<svg id="Layer_1" data-name="Layer 1" xmlns="http://www.w3.org/2000/svg" viewBox="0 0 595.28 175.75"><defs><style>.cls-1{fill:#359acd;}.cls-2{fill:#ca3b28;}.cls-3{fill:#ffce09;}.cls-4{fill:#369a46;}.cls-5{fill:#1b1211;}.cls-6,.cls-7{fill:none;stroke:#1b1211;}.cls-6{stroke-width:0.42px;}.cls-7{stroke-linecap:round;stroke-linejoin:round;stroke-width:0.27px;}</style></defs><path class="cls-1" d="M327.59,108.47h.19l8.84,26.44h-18ZM316.08,82.78l-32,83.05H307l5.71-14.46h29.77l5.42,14.46h23L339.67,82.78Z"/><rect class="cls-2" x="382.09" y="82.78" width="21.59" height="83.04"/><path class="cls-3" d="M444.49,147.56h4.85c12.84,0,23.88-7,23.88-23.21,0-14.84-9.8-23.21-23.69-23.21h-5v46.42ZM422.9,82.78h30.63c23.11,0,42.14,18.17,42.14,41.48s-19.12,41.47-42.14,41.47H422.9Z"/><path class="cls-4" d="M539.71,108.47H540l8.76,26.44h-18ZM528.1,82.78l-31.86,83.05h22.92l5.71-14.46h29.77l5.42,14.46h23L551.79,82.78Z"/><path class="cls-5" d="M304.85,33.89a.8.8,0,0,0-.47.1c-1.15.28-2.38,1.52-4.28,3.23a60.32,60.32,0,0,1-8.66,7c-3,2.09-5.33,3-6.85,3a2.14,2.14,0,0,1-1.81-.76c-1-1.23-.76-3.71-.57-5.51v-.1c.67-5.23.48-8.37-2.57-10.94a6.62,6.62,0,0,0-4.47-1.42c-3.23,0-7.23,1.42-11.32,4.09-1.71,1.14-4.75,3.61-6.18,4.85-4.76,4.18-12.08,11.13-18.55,17.31C230.56,63,227,66.33,226.47,66.42h-.19c-.76,0-1.33-1-2.76-3.52a88.12,88.12,0,0,0-5.8-9.22c-21.69-31-51.37-34.34-63.16-34.34-2.86,0-4.57.19-4.57.19-17.21.95-29.2,6.94-40.81,12.84S86.83,43.69,71.9,43.69C60.1,43.69,44,32.75,24.15,11.16a2.94,2.94,0,0,0-2.1-1.24,3.51,3.51,0,0,0-2.38,1.52c-.19.48-4.56,10.18-6.75,15.32-2.09,4.09.86,5.61,2.09,6.28.19.09.29.19.38.19,9.14,5.51,17.13,16.17,26.45,28.34,10.46,13.8,23.4,31,42.42,46.71,60.69,49.08,94.55,56.31,106.35,57.07.09,0,.48.1.67.1.57,0,1.9-2.1,4-5.52l.76-1.14c.86-1.33,1.71-2.86,2.76-4.38,7.8-12.27,45.47-53.74,61.26-71l.66-.76c8.57-9.42,16.65-17.69,23.79-24.92,1.61-1.62,3.23-3.24,4.66-4.76,1.23-1.23,2.37-2.38,3.42-3.52,8.56-8.84,12.94-13.22,12.94-14.65a.64.64,0,0,0-.67-1"/><path class="cls-6" d="M304.85,33.89a.8.8,0,0,0-.47.1c-1.15.28-2.38,1.52-4.28,3.23a60.32,60.32,0,0,1-8.66,7c-3,2.09-5.33,3-6.85,3a2.14,2.14,0,0,1-1.81-.76c-1-1.23-.76-3.71-.57-5.51v-.1c.67-5.23.48-8.37-2.57-10.94a6.62,6.62,0,0,0-4.47-1.42c-3.23,0-7.23,1.42-11.32,4.09-1.71,1.14-4.75,3.61-6.18,4.85-4.76,4.18-12.08,11.13-18.55,17.31C230.56,63,227,66.33,226.47,66.42h-.19c-.76,0-1.33-1-2.76-3.52a88.12,88.12,0,0,0-5.8-9.22c-21.69-31-51.37-34.34-63.16-34.34-2.86,0-4.57.19-4.57.19-17.21.95-29.2,6.94-40.81,12.84S86.83,43.69,71.9,43.69C60.1,43.69,44,32.75,24.15,11.16a2.94,2.94,0,0,0-2.1-1.24,3.51,3.51,0,0,0-2.38,1.52c-.19.48-4.56,10.18-6.75,15.32-2.09,4.09.86,5.61,2.09,6.28.19.09.29.19.38.19,9.14,5.51,17.13,16.17,26.45,28.34,10.46,13.8,23.4,31,42.42,46.71,60.69,49.08,94.55,56.31,106.35,57.07.09,0,.48.1.67.1.57,0,1.9-2.1,4-5.52l.76-1.14c.86-1.33,1.71-2.86,2.76-4.38,7.8-12.27,45.47-53.74,61.26-71l.66-.76c8.57-9.42,16.65-17.69,23.79-24.92,1.61-1.62,3.23-3.24,4.66-4.76,1.23-1.23,2.37-2.38,3.42-3.52,8.56-8.84,12.94-13.22,12.94-14.65A.64.64,0,0,0,304.85,33.89Z"/><path class="cls-2" d="M40.22,37.41s21.59,22.83,48.51,16,65.64-33.48,96.65-8.46c17.12,13.79,20.45,20.92,29.39,33.38,4.47,6.28,2.66,7.14,14.65-5.32C242.74,60.05,271.27,29.8,276.6,39.6c4,6.66-4.66,17,6.66,11.41l9.51-4.56s-15.88,12.27-26.35,19.88c-7.61,5.52-16.45,14.27-24.92,12-9.8-3.13-17,9-24.26,19.79-8.75,12.94-13.88,7.51-18.93,2.47s-19.59-24.44-53-21.4c-28.73,3.23-47.18.29-64.59-9.8s-36.43-27.87-40.52-32"/><path class="cls-7" d="M40.22,37.41s21.59,22.83,48.51,16,65.64-33.48,96.65-8.46c17.12,13.79,20.45,20.92,29.39,33.38,4.47,6.28,2.66,7.14,14.65-5.32C242.74,60.05,271.27,29.8,276.6,39.6c4,6.66-4.66,17,6.66,11.41l9.51-4.56s-15.88,12.27-26.35,19.88c-7.61,5.52-16.45,14.27-24.92,12-9.8-3.13-17,9-24.26,19.79-8.75,12.94-13.88,7.51-18.93,2.47s-19.59-24.44-53-21.4c-28.73,3.23-47.18.29-64.59-9.8s-36.43-27.87-40.52-32"/><path class="cls-2" d="M48.4,54.25S80.17,93,121.17,91.16s45.85-1.34,66.4,16.45c13.79,11.13,17,19.31,31.58-4.85,8-12,14.26-23.11,23.11-20.07,11.61,4,28.54-16.46,28.54-16.46-.95,1.81-57,54.89-74.77,81-4.47,6.28-4.75,4.95-12,3.14S107.85,126.83,48.4,54.25"/><path class="cls-7" d="M48.4,54.25S80.17,93,121.17,91.16s45.85-1.34,66.4,16.45c13.79,11.13,17,19.31,31.58-4.85,8-12,14.26-23.11,23.11-20.07,11.61,4,28.54-16.46,28.54-16.46-.95,1.81-57,54.89-74.77,81-4.47,6.28-4.75,4.95-12,3.14S107.85,126.83,48.4,54.25"/></svg>