<svg id="Layer_1" data-name="Layer 1" xmlns="http://www.w3.org/2000/svg" xmlns:xlink="http://www.w3.org/1999/xlink" viewBox="0 0 595.28 175.75"><defs><style>.cls-1{fill:none;stroke:#144a98;stroke-miterlimit:10;}.cls-2{fill:url(#linear-gradient);}.cls-3{fill:url(#linear-gradient-2);}.cls-4{fill:#1e4493;}.cls-5{fill:#f89521;}.cls-6{fill:#939598;}</style><linearGradient id="linear-gradient" x1="67.55" y1="937.48" x2="67.55" y2="844.91" gradientTransform="matrix(1, 0, 0, -1, 0, 972)" gradientUnits="userSpaceOnUse"><stop offset="0" stop-color="#1155a2"/><stop offset="1" stop-color="#2d348a"/></linearGradient><linearGradient id="linear-gradient-2" x1="113.03" y1="931.14" x2="113.03" y2="832.66" xlink:href="#linear-gradient"/></defs><ellipse class="cls-1" cx="84.87" cy="87.87" rx="57.32" ry="56.69"/><path class="cls-2" d="M102.42,38.08A22.91,22.91,0,0,0,89.6,42.39c-12.19,9-10.17,28.49-9.75,31.55s.42,1.68,1.39,7a92.62,92.62,0,0,1,2.23,21.38c-.35,7-.9,16.37-7.8,21.38A21.28,21.28,0,0,1,62.51,127a27.34,27.34,0,0,1-16.93-6.2A43.53,43.53,0,0,1,34,99a53,53,0,0,1,15.4-50.08,48.36,48.36,0,0,1,15-9.75c.42,0,2.16-.9,4.6-1.67A49.36,49.36,0,0,1,92.6,35.22,42.19,42.19,0,0,1,102.42,38.08Z"/><path class="cls-3" d="M91.06,139.34a49.84,49.84,0,0,0,6-14.9,54,54,0,0,0,1.33-13.93,78.51,78.51,0,0,0-3.83-22.64c-1.19-3.62-1.61-4-3-8.42a61.91,61.91,0,0,1-3.34-13.93,30.49,30.49,0,0,1,4.73-19.64,14,14,0,0,1,5.44-4.46,14.69,14.69,0,0,1,5.15-1.12,25.83,25.83,0,0,1,18.18,8.08A43.1,43.1,0,0,1,131,60.71a57.22,57.22,0,0,1,7,24.8A56.14,56.14,0,0,1,122.48,124,55,55,0,0,1,91,138.79Z"/><path class="cls-4" d="M161.83,82.93l-7,17.48h-4.11L170,49.85h4.81l20.06,50.56h-4.39l-7-17.48Zm20.89-3.62c-5.78-15-8.78-22.22-9.82-25.63h0c-1.32,3.83-4.67,12.81-9.4,25.63Z"/><path class="cls-4" d="M204.17,49.85h4v47h27.86l-.77,3.55H204.17Z"/><path class="cls-4" d="M244.36,49.85h4v47h27.86l-.77,3.55H244.36Z"/><path class="cls-5" d="M304.88,86.83a13.3,13.3,0,0,0,14.77,10.72c9.61,0,13.3-4.59,13.3-10.09s-2.65-9.27-13.93-12S303.14,69.28,303.14,62s5-12.82,16.23-12.82A15.25,15.25,0,0,1,335.94,62h-4.17a11.63,11.63,0,0,0-12.82-9c-7.59,0-11.7,3.34-11.7,9s3.48,7.74,13.09,10.1c14.77,3.49,16.93,9.2,16.93,15.33,0,7.38-5.64,13.93-17.76,13.93A16.58,16.58,0,0,1,300.7,87.46Z"/><path class="cls-5" d="M379.4,75.62H352.73V96.51H382l-.63,3.55H348.69V49.85H380.8v3.62H352.94V72h26.67Z"/><path class="cls-5" d="M392.29,49.85h17.34a23.21,23.21,0,0,1,24.31,24.86,23.82,23.82,0,0,1-21.86,25.63,23.56,23.56,0,0,1-2.52.07H392.29Zm4,47h12.6a19.7,19.7,0,0,0,20.9-21.94,19.65,19.65,0,0,0-17.7-21.41,20.1,20.1,0,0,0-3.2,0h-12.6Z"/><path class="cls-5" d="M450.31,82.93l-7,17.48h-4.11l19.22-50.56h4.81l20.34,50.56h-4.39l-7-17.48Zm20.89-3.62c-5.78-15-8.78-22.22-9.82-25.63h0c-1.32,3.83-4.67,12.81-9.4,25.63Z"/><path class="cls-5" d="M498.08,100.41V81.47a2.4,2.4,0,0,0,0-1.19L479.35,49.85h4.73c5.23,8.63,14.35,23.54,16.58,27.3,2.23-3.76,11.49-18.53,17.06-27.3h4.53L502.4,80.91a2.32,2.32,0,0,0,0,1.11v18.39Z"/><path class="cls-5" d="M533.05,49.85V80.49c0,13.44,7.87,16.93,15.25,16.93,8.77,0,15.32-3.56,15.32-16.93V49.85h4.11V80.28c0,15.81-8.71,20.9-19.57,20.9a18,18,0,0,1-19.39-16.43,18.26,18.26,0,0,1,.1-3.84V49.85Z"/><path class="cls-6" d="M226.18,113.23h1.39v8.91l9.68-8.91h1.81l-7.93,7,8.42,9.82h-1.74l-7.73-8.64-2.51,2.16v7h-1.39Z"/><path class="cls-6" d="M258.84,121.93h-9v7h9.89v1.18H248.4V113.23h10.93v1.18h-9.54v6.34h9Z"/><path class="cls-6" d="M269.5,113.23h1.39v15.94h9.34v1.19H269.5Z"/><path class="cls-6" d="M292.41,124.44l-2.29,5.92h-1.4l6.55-17.13h1.6l7,17.13H302.3L300,124.44Zm7-1.25c-2-5.09-3-7.53-3.41-8.71h0c-.42,1.32-1.61,4.39-3.21,8.71Z"/><path class="cls-6" d="M313.17,113.23h6.34c3.27,0,5.5,1.74,5.5,4.73s-2.23,5-5.71,5h-4.74v7.45h-1.39Zm1.39,8.42h4.88c2.85,0,4.11-1.46,4.11-3.62a3.55,3.55,0,0,0-3.46-3.64,2.9,2.9,0,0,0-.51,0h-5Z"/><path class="cls-6" d="M335,124.44l-2.3,5.92h-1.39l6.54-17.13h1.61l7,17.13h-1.53l-2.3-5.92Zm7-1.25c-2-5.09-3-7.53-3.41-8.71h0c-.42,1.32-1.6,4.39-3.13,8.71Z"/><path class="cls-6" d="M382.33,130.36h-1.11a15.44,15.44,0,0,1,0-2.72,5.79,5.79,0,0,1-5.72,2.93,7.66,7.66,0,0,1-7.79-7.53,10.32,10.32,0,0,1,.06-1.11A7.93,7.93,0,0,1,374.6,113a6.68,6.68,0,0,1,1.18-.07,6.34,6.34,0,0,1,7,5.08h-1.4a5.28,5.28,0,0,0-5.64-3.83c-4.45,0-6.47,3.34-6.47,7.66s1.53,7.8,6.12,7.8,5.65-2.85,5.65-7H375.3v-1.4h7Z"/><path class="cls-6" d="M395.35,124.44l-2.23,5.92h-1.46l7-17.13h1.6l7,17.13h-1.53l-2.3-5.92Zm7-1.25c-1.95-5.09-3-7.53-3.34-8.71h0c-.42,1.32-1.61,4.39-3.21,8.71Z"/><path class="cls-6" d="M416.18,113.23H422a7.86,7.86,0,0,1,8.29,7.42,8.34,8.34,0,0,1,0,1,8.09,8.09,0,0,1-7.43,8.69,8.23,8.23,0,0,1-.86,0h-5.85Zm1.32,15.94h4.32a7.38,7.38,0,1,0,0-14.76H417.5Z"/><path class="cls-6" d="M441.88,113.23v17.13h-1.46V113.23Z"/><path class="cls-6" d="M453.44,130.36V113.23h2c2.79,4.1,9.26,13.93,10.38,15.53h0V113.23h1.39v17.13h-1.88l-10.52-15.81h0v15.81Z"/><path class="cls-6" d="M492.16,130.36h-1.11a11.25,11.25,0,0,1,0-2.72,5.78,5.78,0,0,1-5.71,2.93,7.66,7.66,0,0,1-7.79-7.53,6.89,6.89,0,0,1,.06-1.11,7.92,7.92,0,0,1,6.82-8.91,6.73,6.73,0,0,1,1.19-.07,6.26,6.26,0,0,1,7,5.08h-1.32a5.29,5.29,0,0,0-5.64-3.83c-4.46,0-6.48,3.34-6.48,7.66s1.67,7.8,6.06,7.8,5.64-2.85,5.64-7h-5.71v-1.4h7Z"/></svg>