<svg id="Layer_1" data-name="Layer 1" xmlns="http://www.w3.org/2000/svg" viewBox="0 0 595.28 175.75"><defs><style>.cls-1{fill:#03a550;}.cls-2{fill:#fff;}.cls-3{fill:#f3f7f5;}.cls-4{fill:#f1f7f4;}.cls-5{fill:#f1f7f3;}.cls-6{fill:#f1f6f4;}.cls-7{fill:#f2f7f4;}.cls-8{fill:#f0f7f3;}.cls-9{fill:#f0f6f3;}.cls-10{fill:#f2f8f4;}.cls-11{fill:#f2f7f5;}.cls-12{fill:#f2f6f4;}.cls-13{fill:#eff6f2;}.cls-14{fill:#eff5f2;}.cls-15{fill:#eef5f1;}.cls-16{fill:#2fa462;}.cls-17{fill:#55ab7e;}.cls-18{fill:#eb2527;}.cls-19{fill:#36aa60;}.cls-20{fill:#15a24f;}.cls-21{fill:#28a459;}.cls-22{fill:#25a558;}.cls-23{fill:#1aa655;}.cls-24{fill:#40a864;}.cls-25{fill:#39a262;}.cls-26{fill:#33a462;}.cls-27{fill:#39a662;}.cls-28{fill:#35a75f;}.cls-29{fill:#fcfaf8;}</style></defs><path class="cls-1" d="M296.6,174.81c-28.6-.95-52.13-12.09-69.66-35.06a80.4,80.4,0,0,1-16-38c-4.41-31,5.29-57,28.37-78A81.94,81.94,0,0,1,280.37,3.71c26.76-4.89,51,1.18,72.22,18.17,16.3,13.07,26.8,30.18,30.17,50.82,5.7,35-5.83,63.55-34,85.17a82.12,82.12,0,0,1-35.06,15.32A75.86,75.86,0,0,1,296.6,174.81Z"/><path class="cls-2" d="M239.92,88.5a56.84,56.84,0,0,1,56.9-56.65c31.62,0,57.33,25.21,57.35,56.23,0,31.78-25.39,56.93-57.53,56.94A56.87,56.87,0,0,1,239.92,88.5Z"/><path class="cls-3" d="M322.81,151.33c.38,1.91.8,4,1.2,6.12.18,1,.1,1.76-1,2.24a1.89,1.89,0,0,1-2.63-.66c-2.17-2.84-4.43-5.62-6.62-8.45-.41-.52-1.08-1.13-.13-1.78s1.64-.88,2.39.14q1.53,2.12,3.09,4.2c.42.56.87,1.64,1.46,1.34.78-.39.12-1.42,0-2.15-.22-1.62-.48-3.24-.84-4.83-.31-1.35.49-1.72,1.46-2.25s1.71-.16,2.32.62c1.21,1.52,2.4,3,3.62,4.56.29.36.58,1,1.15.66.17-.1.12-.76,0-1.14-.37-1.9-.78-3.8-1.2-5.69-.22-1-.1-1.84,1.1-2.11s1.31.66,1.47,1.44c.72,3.59,1.44,7.19,2.13,10.79.22,1.16-.59,1.59-1.47,2s-1.49,0-2-.69c-1.34-1.68-2.72-3.33-4.08-5-.31-.38-.54-1-1.12-.88S322.9,150.68,322.81,151.33Z"/><path class="cls-3" d="M237.25,129.17c-.75.5-1.53,1-2.23,1.5s-1.28.34-1.84-.25-.37-1.25.28-1.77q4.31-3.44,8.58-6.9c.72-.58,1.48-1,2,0s2.41,1.6,1.09,3.28-2.56,3.43-3.83,5.15c-.23.31-.72.58-.48,1s.75.1,1.08-.05a59.25,59.25,0,0,0,5.53-2.58c2.18-1.26,2.66.73,3.55,1.73,1.16,1.3-.4,1.76-1,2.29-2.58,2.16-5.27,4.18-7.87,6.32-.72.59-1.18,1-2,.06s-.55-1.33.26-2c1.11-.88,2.11-1.89,3.16-2.84a2.27,2.27,0,0,1,1.26-1.21,13.31,13.31,0,0,0-2.49.61c-1.28.57-2.54,1.2-3.85,1.69a1.74,1.74,0,0,1-2.32-.73c-.61-.91-.37-1.38.27-2a19.75,19.75,0,0,0,1.63-2.11c.54-.39.3-1.08.61-1.55C238.16,128.85,237.74,129.14,237.25,129.17Z"/><path class="cls-4" d="M303.16,13.76c2.08.28,3.81.42,5.5.75,3.19.63,4.28,3.1,2.44,5.77-.64.92-.5,1.3.11,2a3.19,3.19,0,0,1,.24,4,3.81,3.81,0,0,1-3.81,2c-1.93-.16-3.84-.47-5.76-.63-1.39-.12-2-.71-1.79-2.15.47-3.32.94-6.63,1.28-10C301.52,14.07,302.15,13.56,303.16,13.76Z"/><path class="cls-5" d="M334.71,36.48c0-.61,0-1.23,0-1.84a2.55,2.55,0,0,0-1.5-2.77c-1-.35-1.37.91-1.9,1.58s-.86,1.15-1.3,1.72a1.06,1.06,0,0,1-1.8.15c-.55-.5-1.07-1-.47-1.78q3.47-4.68,6.9-9.37a1,1,0,0,1,1.53-.28c1.79,1.35,3.67,2.6,5.37,4.05,1.1.94,1.93,2.2,1.26,3.8s-1.69,3-3.56,2.86c-1.61-.09-1.93.47-1.77,1.88a9.38,9.38,0,0,1-.08,2.75c-.12.67.22,1.9-.93,1.79a2,2,0,0,1-1.85-1.79c-.07-.91,0-1.83,0-2.75Z"/><path class="cls-6" d="M356.31,131c-.19,0-.6,0-1,0-1.25-.06-2.65-.11-3.15,1.27s1.24,1.55,1.87,2.36a5.67,5.67,0,0,0,1.21.92c.67.52.87,1.05.22,1.78s-1,1.11-2,.37c-3-2.33-6-4.55-9-6.82-.63-.48-1-1-.33-1.77,1.44-1.72,2.76-3.55,4.26-5.2a3.39,3.39,0,0,1,4.18-.9c1.54.69,2.59,1.82,2.31,3.56s.52,1.77,1.85,1.6a7.17,7.17,0,0,1,2.73.15c.69.17,2-.11,1.91.95a2.09,2.09,0,0,1-2.08,1.89A27.06,27.06,0,0,1,356.31,131Z"/><path class="cls-7" d="M272.6,160c-1-.35-1.79-.7-2.07-1.95-.5-2.29-.85-4.61-1.16-6.93-.07-.51-.13-1.12-.75-1.12-.24,0-.54.57-.69.93-.65,1.49-1.22,3-1.89,4.51-.32.71-.58,1.64-1.74,1.19s-1.1-1.2-.67-2.2c1.31-3,2.53-6,3.81-9,.33-.77.3-2,1.68-1.7a2.38,2.38,0,0,1,1.94,2.11c.37,2.31.78,4.63,1.19,6.94.08.45-.1,1.18.52,1.21s.65-.69.84-1.15q1-2.4,1.93-4.83c.33-.83.67-1.53,1.77-1,.93.43,1.08,1,.67,2-1.42,3.28-2.79,6.58-4.18,9.88C273.57,159.35,273.43,160,272.6,160Z"/><path class="cls-7" d="M304.72,163.65c-4.13,0-7-3.13-6.89-7.59a6.41,6.41,0,0,1,6.82-6.61c4.23,0,6.86,2.9,6.89,7.6C311.56,160.89,308.72,163.64,304.72,163.65Z"/><path class="cls-7" d="M339.78,133.57a1.53,1.53,0,0,1,1.22.81,1,1,0,0,1-.38,1.34c-1.17,1-2.41,1.88-3.6,2.84-.62.49-1.49.91-.71,1.93.61.79,1.08,1.17,2.26.61s2-1.66,3.13-2.38c.72-.47,1.35-.93,2.1-.05s0,1.45-.61,2c-.78.65-1.58,1.28-2.41,1.88-1.12.81-1.67,1.48-.52,2.93s1.94.9,2.95.06,2.26-1.74,3.34-2.68c.67-.59,1.22-.67,1.81,0a1,1,0,0,1-.14,1.6q-3.32,2.72-6.64,5.41c-.67.54-1.15,0-1.54-.42q-3.62-4.37-7.2-8.75a1.18,1.18,0,0,1,.18-1.87l6.23-4.94A3.5,3.5,0,0,1,339.78,133.57Z"/><path class="cls-8" d="M325.74,26.58c0,1.74,0,3.48,0,5.22,0,.67.29,1.61-.72,1.73s-2.13-.3-2-1.39c.35-2.53-1.34-3.07-3.09-3.79-1.35-.56-2.51-.81-3.49.62a1.5,1.5,0,0,1-2.11.6c-.85-.41-1.54-.73-.61-1.72,2.8-3,5.6-6,8.39-8.94a1.69,1.69,0,0,1,2.21-.29,1.83,1.83,0,0,1,1.33,1.83c0,2,0,4.09,0,6.13Z"/><path class="cls-9" d="M257.06,40.67c.07.84-1.43,1.75-2.48,1.53-.83-.18-1.6-1.24-2.51-.39A13.48,13.48,0,0,0,249,45.16c-.44.83.31,1.53.62,2.25a1.69,1.69,0,0,1-.94,2.29c-1.23.7-1.24-.66-1.51-1.21-1.63-3.29-3.11-6.64-4.73-9.93a2,2,0,0,1,.35-2.71,1.92,1.92,0,0,1,2.44-.39c3.57,1.47,7.18,2.83,10.77,4.26C256.42,39.9,256.93,40.09,257.06,40.67Z"/><path class="cls-10" d="M293.45,20.18c-.14-1.29-.34-3-.52-4.74-.1-.91.1-1.6,1.21-1.71s1.64.38,1.7,1.54c.14,2.55.47,5.09.54,7.63.08,3.13-1.57,4.73-4.89,5-3.51.33-5.61-1-6.06-4.06-.37-2.52-.45-5.08-.67-7.62-.09-1,0-1.84,1.33-1.88s1.49.84,1.57,1.79a59.66,59.66,0,0,0,.44,6.41c.46,2.49,1,3,3,3s2.39-.65,2.38-3.38Z"/><path class="cls-11" d="M260.57,139.28c-1.17,4.21-2.18,7.95-3.28,11.67-.16.53,0,1.78-1.05,1.43-.88-.29-2.15-1-1.55-2.21,1.17-2.44-.63-3.16-2-4.32-1.15-1-2.12-1.54-3.43-.34a1.58,1.58,0,0,1-2.22.05c-.83-.63-1.16-1.13-.07-1.79,3.48-2.12,6.95-4.27,10.43-6.38a1.82,1.82,0,0,1,2.26.24C260.31,138.19,260.75,138.81,260.57,139.28Z"/><path class="cls-12" d="M342.28,43.42l-1.63.65c-1.31.53-2-.34-2.35-1.29s.86-1,1.38-1.18c3.36-1.46,6.77-2.81,10.16-4.2a2,2,0,0,1,2.51.31,2.08,2.08,0,0,1,.37,2.74c-1.43,3-2.74,6.14-4.22,9.16-.41.82-.36,2.62-1.92,2-1.34-.5-1.31-1.74-.66-3.09S343.93,43.47,342.28,43.42Z"/><path class="cls-13" d="M283.44,27.36c-.05,1-.82,1.13-1.47,1.36-2.11.76-4.23,1.51-6.37,2.2-.81.26-1.68,1.1-2.53.23s-.75-2-.33-3.15c.82-2.2,1.6-4.41,2.36-6.64.25-.71,1.16-1.49.36-2.19s-1.49.26-2.27.38-1.53.54-2.32.74-1.09-.38-1.29-1,.15-1,.69-1.15c2.21-.79,4.41-1.64,6.65-2.33s3,.17,2.37,2.28c-.55,2-1.38,3.84-2.09,5.75-.21.58-.47,1.14-.65,1.72-.23.75-1.13,1.59-.52,2.21s1.67-.1,2.5-.39c1.16-.4,2.31-.82,3.49-1.14C282.9,26,283.35,26.53,283.44,27.36Z"/><path class="cls-14" d="M285.93,149.08c.76.12,2.19.28,3.57.6a4,4,0,0,1,3.31,4.16,4.09,4.09,0,0,1-3.5,4,8,8,0,0,1-1.83.09c-3-.16-3-.17-3.37,2.8-.13,1.13-.28,2.07-1.73,1.9s-1.28-1.33-1.16-2.33c.35-2.93.77-5.85,1.1-8.78C282.62,148.9,282.59,148.9,285.93,149.08Z"/><path class="cls-15" d="M254.24,26.9c.46,0,.71.62,1,1.1,1.27,2,2.51,4,3.75,6,1.53,2.46,1.53,2.45,3.87,1,.86-.55,1.75-1.05,2.59-1.62s1.28-.2,1.72.51,0,1.1-.55,1.46a4.52,4.52,0,0,1-.51.34c-2.2,1.24-4.35,4-6.46,3.58s-2.93-3.85-4.41-5.9c-.89-1.23-1.64-2.58-2.41-3.9A1.73,1.73,0,0,1,254.24,26.9Z"/><path class="cls-16" d="M237.25,129.17c.86-.91,2.12-2.81,2.83-2s-1.18,2.14-2,3.17A1.09,1.09,0,0,0,237.25,129.17Z"/><path class="cls-17" d="M242.31,133.55a3.38,3.38,0,0,1,1-.67c1-.25,1.76-1.4,3-1a3.56,3.56,0,0,1-2.75,2.26C243.32,133.55,242.75,133.69,242.31,133.55Z"/><path class="cls-18" d="M296.88,53.61c2.86,0,5.74.12,8.59,0,1.93-.1,2.82.51,3.52,2.39,6.12,16.37,12.37,32.68,18.58,49,1.49,3.91,2.91,7.85,4.47,11.73.67,1.67.27,2.11-1.48,2.09-5.63-.08-11.26-.12-16.88,0-1.86,0-2.52-.74-2.93-2.32-.59-2.27-1.38-4.49-2-6.77a2.06,2.06,0,0,0-2.36-1.8c-6.45,0-12.89.07-19.34,0a2.2,2.2,0,0,0-2.53,2c-.58,2.27-1.46,4.47-2,6.75-.42,1.72-1.32,2.21-3,2.17-5.32-.11-10.64,0-16-.07-2.29,0-2.32-.09-1.53-2.17q8.88-23.52,17.79-47c1.74-4.59,3.56-9.15,5.18-13.77.55-1.58,1.22-2.3,3-2.2,3,.18,5.93.05,8.9.05Z"/><path class="cls-19" d="M305.37,21.87c1.48.29,3.51,0,3.74,2.15a1.71,1.71,0,0,1-2.42,1.82c-1.2-.51-3.66.89-3.54-2C303.22,22.42,303.63,21.45,305.37,21.87Z"/><path class="cls-20" d="M306.8,19.75c-.61-.07-1.21-.15-1.81-.2-1.2-.09-1.1-.95-1-1.77s.42-1.57,1.5-1.42c.6.09,1.2.22,1.8.3,1.21.15,2.32.54,2,2C309,19.94,307.84,19.9,306.8,19.75Z"/><path class="cls-21" d="M336.2,27c.8-.1,3.84,2.51,3.88,3.24a1.73,1.73,0,0,1-1.46,2c-.9.17-4.16-1.88-4.12-2.67C334.56,28.35,335.52,27.69,336.2,27Z"/><path class="cls-22" d="M347.32,129c.13-1.07,2.82-3.62,3.65-3.51a1.57,1.57,0,0,1,1.5,1.92c-.15,1.33-2.47,4-3.18,3.61S347.42,130.15,347.32,129Z"/><path class="cls-23" d="M308.67,156.73c.05,2.77-1.39,4.52-3.76,4.56s-4.11-1.92-4.18-5c-.05-2.63,1.54-4.6,3.78-4.64S308.62,153.75,308.67,156.73Z"/><path class="cls-24" d="M323.05,24.34c-.38.74.71,2.36-1.22,2.31a2.64,2.64,0,0,1-1.85-.87c-.55-.72.32-1.21.75-1.73a2.85,2.85,0,0,1,.42-.43c.51-.43.7-1.52,1.47-1.26S322.87,23.6,323.05,24.34Z"/><path class="cls-25" d="M249.63,40.67c-.49.72-.88,1.65-1.82,1.91-.74.21-.93-.59-1.2-1.09s-.53-1.11-.79-1.66c-.16-.34-.52-.67-.19-1.07s.75-.11,1.1,0c.74.3,1.49.63,2.22,1C249.3,40,249.68,40.12,249.63,40.67Z"/><path class="cls-26" d="M255.66,145.22c-.85-.75-2-1-2.2-2.13-.07-.44,2.71-2.25,3.21-2.11.92.26.47,1,.36,1.48C256.78,143.44,256.8,144.63,255.66,145.22Z"/><path class="cls-27" d="M347.43,44.53c-.89-.19-1.25-1-1.69-1.62-.55-.81.21-1.06.72-1.28,1-.46,2.34-1.8,3-.73.46.69-.74,2.34-1.53,3.39C347.87,44.43,347.62,44.45,347.43,44.53Z"/><path class="cls-28" d="M287.08,155.63c-.95-.17-2.51.37-2.3-1.48.12-1.05-.34-2.66,1.63-2.71,1.68-.05,3.55,1.08,3.63,2.22S288.87,155.63,287.08,155.63Z"/><path class="cls-29" d="M296.65,94c-1.73,0-3.46,0-5.2,0-1.31,0-1.88-.39-1.43-1.84,2.09-6.7,4.11-13.43,6.17-20.14.08-.27.32-.73.47-.72.47,0,.42.54.52.86,2.1,6.7,4.16,13.42,6.27,20.12.41,1.3-.12,1.64-1.29,1.62-1.84,0-3.67,0-5.51,0Z"/></svg>