<svg id="Layer_1" data-name="Layer 1" xmlns="http://www.w3.org/2000/svg" viewBox="0 0 595.28 175.75"><defs><style>.cls-1{fill:#19305a;}</style></defs><polygon class="cls-1" points="329.29 31.18 298.55 64.84 267.9 31.18 230.96 31.18 279.85 85.36 225.85 144.57 263.89 144.57 298.55 106.16 333.21 144.57 371.16 144.57 317.25 85.36 366.33 31.18 329.29 31.18"/><path class="cls-1" d="M561.08,66.67a10.49,10.49,0,1,1-10.4,10.49,10.34,10.34,0,0,1,10.4-10.49ZM561,68.22a8.65,8.65,0,0,0-8.39,8.84A8.4,8.4,0,1,0,561,68.22Zm-1.92,15h-1.91V71.5a17.14,17.14,0,0,1,3.28-.27,6.07,6.07,0,0,1,3.65.91,2.82,2.82,0,0,1,1.1,2.37,2.87,2.87,0,0,1-2.29,2.83v.09c1,.18,1.74,1.09,1.92,2.83a10,10,0,0,0,.73,2.92h-1.92a10,10,0,0,1-.82-3,2.24,2.24,0,0,0-2.55-2.1H559v5.11Zm0-6.48h1.28c1.55,0,2.83-.55,2.83-2,0-1-.73-2-2.83-2a4.59,4.59,0,0,0-1.28.09Z"/><path class="cls-1" d="M50.62,79.34c-1.1-4.19-3.74-7.29-9.13-7.29-7.84,0-11.12,6.93-11.12,13.86s3.28,14,11.12,14c5.66,0,8.85-4.29,9.31-9.58H57c-.55,8.76-6.75,14.78-15.6,14.78-10.94,0-17.51-8.67-17.51-19.16S30.46,66.76,41.4,66.76c8.21.09,14.69,4.56,15.51,12.49H50.62Z"/><path class="cls-1" d="M66.21,92.57c0,4.2,2.28,7.85,7.12,7.85,3.37,0,5.47-1.46,6.48-4.38h5.56c-1.28,5.74-6.2,9-12,9-8.3,0-13-5.84-13-13.87,0-7.57,4.92-14,12.77-14,8.3,0,13.5,7.48,12.5,15.41H66.21Zm13.6-3.83c-.19-3.65-2.74-7-6.66-7a6.9,6.9,0,0,0-6.94,7Z"/><rect class="cls-1" x="90.21" y="67.76" width="5.84" height="36.49"/><path class="cls-1" d="M106.17,92.57c0,4.2,2.28,7.85,7.11,7.85,3.38,0,5.39-1.46,6.39-4.38h5.56c-1.27,5.74-6.2,9-12,9-8.3,0-13-5.84-13-13.87,0-7.57,4.93-14,12.77-14,8.3,0,13.41,7.48,12.5,15.41H106.17Zm13.59-3.83c-.18-3.65-2.74-7-6.66-7a6.89,6.89,0,0,0-6.93,7Z"/><path class="cls-1" d="M130,67.76h5.83v13.5h.1a9.56,9.56,0,0,1,7.84-4.1c8.39,0,12.41,6.38,12.41,14,0,7.12-3.56,13.78-11.41,13.78-3.55,0-7.38-.91-9.12-4.38h-.09v3.65H130Zm13,14c-4.92,0-7.39,3.74-7.39,9.39,0,5.29,2.74,9.31,7.39,9.31,5.29,0,7.3-4.75,7.3-9.31,0-4.83-2.56-9.39-7.3-9.39"/><path class="cls-1" d="M161.27,77.89h5.47V83h.09c.64-2.82,4.2-5.83,7.75-5.83a9.44,9.44,0,0,1,2.19.18V83a24.51,24.51,0,0,0-2.55-.27c-4,0-7.21,3.19-7.21,9v12.59h-5.84V77.89Z"/><path class="cls-1" d="M181.33,67.76h5.84v5.56h-5.84Zm0,10.13h5.84v26.45h-5.84Z"/><path class="cls-1" d="M192.1,77.89h4.38V70h5.83v7.94h5.29v4.37h-5.29V96.4c0,2.37.19,3.65,2.83,3.65a11.33,11.33,0,0,0,2.46-.18v4.47c-1.27.09-2.46.27-3.74.27-6.11,0-7.2-2.37-7.29-6.75V82.26h-4.38V77.89Z"/><path class="cls-1" d="M211.07,77.89h6.39l6.93,19.7h.09l6.75-19.7h6.11L227,105.8c-1.91,4.74-3.28,9-9.39,9a28.93,28.93,0,0,1-4-.27v-4.93a14.2,14.2,0,0,0,2.73.36c2.74,0,3.38-1.45,4.11-3.74l.64-2Z"/><path class="cls-1" d="M386.21,79.34c-1.09-4.19-3.74-7.29-9.12-7.29C369.25,72.05,366,79,366,85.91s3.29,14,11.13,14c5.66,0,8.85-4.29,9.3-9.58h6.21c-.55,8.76-6.66,14.78-15.6,14.78-10.95,0-17.51-8.67-17.51-19.16S366.05,66.76,377,66.76c8.21.09,14.69,4.56,15.51,12.49h-6.3Z"/><path class="cls-1" d="M397.89,77.89h5.47V83h.09c.64-2.82,4.2-5.83,7.76-5.83a9,9,0,0,1,2.19.18V83a25,25,0,0,0-2.56-.27c-4,0-7.2,3.19-7.2,9v12.59H397.8V77.89Z"/><path class="cls-1" d="M441.4,104.34h-5.75v-3.65h-.09a8.88,8.88,0,0,1-7.57,4.38c-6.93,0-9.85-3.47-9.85-10.4V77.89H424V94.12c0,4.65,1.91,6.39,5,6.39,4.84,0,6.48-3.1,6.48-7.21V78h5.84v26.36Z"/><path class="cls-1" d="M448.24,67.76h5.84v5.56h-5.84Zm0,10.13h5.84v26.45h-5.84Z"/><path class="cls-1" d="M465.85,95.76c.27,3.38,2.82,4.57,5.93,4.57,2.19,0,6-.46,5.93-3.47s-4.38-3.47-8.67-4.38-8.48-2.46-8.48-7.84c0-5.84,6.2-7.58,11-7.58,5.48,0,10.31,2.29,11,8.12h-6.11c-.46-2.73-2.83-3.46-5.38-3.46-1.64,0-4.84.45-4.84,2.73,0,2.83,4.29,3.29,8.58,4.2s8.57,2.46,8.57,7.75c0,6.3-6.38,8.58-11.76,8.58-6.66,0-11.59-3-11.77-9.22Z"/><path class="cls-1" d="M492.76,92.57c0,4.2,2.28,7.85,7.11,7.85,3.38,0,5.38-1.46,6.48-4.38h5.56c-1.27,5.74-6.2,9-12,9-8.3,0-12.95-5.84-12.95-13.87,0-7.57,4.93-14,12.77-14,8.39,0,13.5,7.48,12.5,15.41H492.76Zm13.59-3.83c-.18-3.65-2.74-7-6.66-7s-6.75,3.1-6.93,7Z"/><path class="cls-1" d="M522.31,95.76c.28,3.38,2.83,4.57,5.93,4.57,2.19,0,6-.46,5.93-3.47s-4.38-3.47-8.67-4.38S517,90,517,84.64c0-5.84,6.3-7.58,11-7.58,5.47,0,10.31,2.29,11,8.12H533c-.54-2.73-2.82-3.46-5.38-3.46-1.73,0-4.83.45-4.83,2.73,0,2.83,4.29,3.29,8.57,4.2s8.58,2.46,8.58,7.75c0,6.3-6.39,8.58-11.77,8.58-6.66,0-11.58-3-11.68-9.22Z"/><path class="cls-1" d="M377.09,31.36a8.4,8.4,0,1,1-8.39,8.4,8.49,8.49,0,0,1,8.39-8.4Zm0,1.28a7.08,7.08,0,1,0,6.84,7.12,7.07,7.07,0,0,0-6.84-7.12Zm-1.55,12h-1.46v-9.3a19.55,19.55,0,0,1,2.65-.19,4.71,4.71,0,0,1,2.91.73,2.15,2.15,0,0,1,.83,1.92A2.28,2.28,0,0,1,378.64,40v.09c.82.18,1.37.91,1.55,2.28a8.26,8.26,0,0,0,.55,2.28h-1.55a5.63,5.63,0,0,1-.64-2.37,1.73,1.73,0,0,0-2-1.64h-1v3.92Zm0-5.11h1.09c1.28,0,2.28-.45,2.28-1.64,0-.82-.54-1.64-2.28-1.64a3.78,3.78,0,0,0-1.09.09Z"/></svg>