<svg id="Layer_1" data-name="Layer 1" xmlns="http://www.w3.org/2000/svg" xmlns:xlink="http://www.w3.org/1999/xlink" viewBox="0 0 595.28 175.75"><defs><style>.cls-1{fill:#24579f;}.cls-2{fill:url(#linear-gradient);}.cls-3{fill:url(#linear-gradient-2);}.cls-4{fill:url(#linear-gradient-3);}.cls-5{fill:url(#linear-gradient-4);}.cls-6{fill:url(#linear-gradient-5);}.cls-7{fill:url(#linear-gradient-6);}</style><linearGradient id="linear-gradient" x1="265.4" y1="66.77" x2="298.47" y2="66.77" gradientUnits="userSpaceOnUse"><stop offset="0" stop-color="#faee37"/><stop offset="0.18" stop-color="#fefded"/><stop offset="0.32" stop-color="#fdfac8"/><stop offset="0.61" stop-color="#fbf47a"/><stop offset="0.82" stop-color="#faf04a"/><stop offset="0.93" stop-color="#faee37"/></linearGradient><linearGradient id="linear-gradient-2" x1="265.41" y1="47.97" x2="301.57" y2="47.97" gradientUnits="userSpaceOnUse"><stop offset="0" stop-color="#c4e8f5"/><stop offset="0.18" stop-color="#90badc"/><stop offset="0.37" stop-color="#6292c5"/><stop offset="0.54" stop-color="#4175b5"/><stop offset="0.68" stop-color="#2d63ac"/><stop offset="0.77" stop-color="#265da8"/></linearGradient><linearGradient id="linear-gradient-3" x1="275.81" y1="60.19" x2="311.97" y2="60.19" xlink:href="#linear-gradient"/><linearGradient id="linear-gradient-4" x1="275.82" y1="34.94" x2="311.98" y2="34.94" xlink:href="#linear-gradient-2"/><linearGradient id="linear-gradient-5" x1="291.83" y1="53" x2="327.99" y2="53" gradientUnits="userSpaceOnUse"><stop offset="0" stop-color="#faee37"/><stop offset="0.11" stop-color="#fefded"/><stop offset="0.15" stop-color="#fefce1"/><stop offset="0.37" stop-color="#fcf7a5"/><stop offset="0.58" stop-color="#fbf376"/><stop offset="0.76" stop-color="#fbf053"/><stop offset="0.9" stop-color="#faef3f"/><stop offset="1" stop-color="#faee37"/></linearGradient><linearGradient id="linear-gradient-6" x1="291.83" y1="20.83" x2="327.99" y2="20.83" xlink:href="#linear-gradient-2"/></defs><path class="cls-1" d="M257.22,105.9c-16,0-30.74,11.63-30.74,29.71,0,0,.26,7.75,2.32,11.62,0,0-5.94,7.75-20.4,7.75s-24.8-11.88-24.8-30.48,9.56-32,29.71-32c0,0,9-.26,15.75,3.62l6.72-9.82s-6.2-5.68-24.54-5.68S164,91.7,164,125.53s27.38,40.3,38.49,40.3,18.59-2.33,30.22-11.11c0,0,7.49,10.07,24,10.07s30.22-9.3,30.22-29.44S273.23,105.9,257.22,105.9ZM257,156S244,156.53,244,135.09s13.18-20.4,13.18-20.4,12.65-1.29,12.65,20.66S257,156,257,156Z"/><path class="cls-1" d="M330.05,106.42v9.3H316.36s-7,.51-7,4.65,7.23,7.23,10.59,8.78,13.69,5.94,13.69,16.53-8.26,19.11-24.8,19.11-18.08-10.58-18.08-13.17c0,0-1-7.75,3.36-1.29A16.85,16.85,0,0,0,306,155.24c7.49,0,10.33-3.62,10.33-6.72s-4.39-7-11.1-10.07-13.43-7.24-13.43-15.24,7.74-16.79,21.18-16.79Z"/><path class="cls-1" d="M427.17,155.49c-3.36,0-4.13-5.94-4.13-5.94V106.42l-18.6.26c-30.48,3.36-31,32.8-31,36.42a45.58,45.58,0,0,0,1.29,8.78s-1.81,3.1-8.53,3.1-7.49-6.46-7.49-6.46V115.46h14.21v-8.78H358.72V89.63s-12.91,18.6-24.79,25.83h9.3v36.42c0,5.16,4.39,12.91,14.72,12.91s18.6-7.75,18.6-7.75,2.06,7.5,13.68,7.5,18.34-11.37,18.34-11.37c2.85,12.4,10.85,11.37,10.85,11.37,11.37,0,11.88-10.34,11.88-10.34S430.53,155.49,427.17,155.49Zm-19-12.52s-5,9.17-12,9.17-6.72-12.79-6.72-12.79-.39-23.76,13.56-23.76h5.17Z"/><path class="cls-1" d="M340.32,64.71l19.57,7S339,96.28,289.37,96.28s-46.49-25.57-46.49-25.57-.58-19,32.93-32.93l52.11-9.11s13.95.59,23.44,5l-17,7.17s-3.69-1.36-6.59-2.13L265.35,68s3.88,13.56,30.22,13.56S334.12,70.52,340.32,64.71Z"/><rect class="cls-2" x="265.4" y="49.72" width="33.06" height="34.1"/><path class="cls-3" d="M301.57,56v-11s-2.33-5.14-18.08-5.14-18.08,7.59-18.08,8.5v6.87s2.32-5.68,18.34-5.68S301.57,56,301.57,56Z"/><rect class="cls-4" x="275.81" y="36.68" width="36.16" height="47.01"/><path class="cls-5" d="M312,43V32s-2.32-6.44-18.08-6.44-18.08,8.89-18.08,9.79V44.3s2.32-7.36,18.34-7.36S312,43,312,43Z"/><rect class="cls-6" x="291.83" y="22.26" width="36.16" height="61.47"/><path class="cls-7" d="M328,28.65v-11s-2.33-7.75-18.08-7.75S291.83,20.12,291.83,21V31.75s2.32-8.91,18.34-8.91S328,28.65,328,28.65Z"/><path class="cls-1" d="M265.35,68s3.88,13.56,30.22,13.56,38.55-11,44.75-16.85l19.57,7S339,96.28,289.37,96.28s-46.49-25.57-46.49-25.57"/></svg>