<svg id="Layer_1" data-name="Layer 1" xmlns="http://www.w3.org/2000/svg" viewBox="0 0 595.28 175.75"><defs><style>.cls-1{fill:#038d95;}</style></defs><path class="cls-1" d="M320.18,28.73h2.47a4.85,4.85,0,0,0,.21,1.72,4.73,4.73,0,0,0,1.8,2.38c2.89,2.28,4.54,3.58,7.43,4.39a17,17,0,0,0,7.28.38l.48,1A53,53,0,0,1,345.1,58c.36,5.07-.62,11.27-3.35,18.12,0,.07-.1.14-.13.2a25.23,25.23,0,0,0-7.15-1.46c-2.75-.15-12-.65-18.14,6.4a19.18,19.18,0,0,0-4,18.11A17.47,17.47,0,0,0,321.28,110c1.05.5,7.38,3.5,13.76.14a14.55,14.55,0,0,0,7.7-12.8,12.55,12.55,0,0,0-2.91-8.09c-.2-.23-4.63-5.18-10.85-4a10.83,10.83,0,0,0-6.88,4.41,10.51,10.51,0,0,0-1.75,6.46,9.24,9.24,0,0,0,1.75,5.09,9.14,9.14,0,0,0,4.82,3.3,9.59,9.59,0,0,1-5.09-2.47c-3.14-3.15-3.67-9.31-1.1-13.9,3.33-5.94,10.27-6.43,10.87-6.46A13.94,13.94,0,0,1,339.81,84a14.89,14.89,0,0,1,5,5.35,15.93,15.93,0,0,1-.09,16.89c-6.55,11-21.44,13.34-31.48,4.72a28.88,28.88,0,0,1-8-11.38c-.81-2.21-3-8.4-.81-15.3,1.23-3.95,3.3-6.28,7.08-10.52a134.21,134.21,0,0,1,13.21-12.66,15.38,15.38,0,0,0,4.81-5.92c.42-1,1.85-4.34.28-6.88a4.75,4.75,0,0,0-.83-1,.76.76,0,0,0-.55,0c-.42.25-.29,1-.41,1.93a7.57,7.57,0,0,1-.67,2,14.48,14.48,0,0,1-5,4.72,3.22,3.22,0,0,1-1.75.2c-.88-.09-1.74-.37-2.61-.51a4.58,4.58,0,0,0-4.21,1.54c-.39.42-.74.89-1.11,1.34a8.49,8.49,0,0,1-3.7,2.65,7.23,7.23,0,0,1-5.62-.89,36.3,36.3,0,0,0,3.58-3.85,22.69,22.69,0,0,0,1.93-2.61,13.08,13.08,0,0,0,2-4.75c.38-2.16-.3-2.45.21-4.2.27-.93.64-1.12,2.2-3.57.56-.88.61-.94,3.16-4.82,1.11-1.68,1.71-2.49,2.62-4,.51-.83.91-1.53,1.17-2Z"/><path class="cls-1" d="M281.86,28.66h-2.47a4.61,4.61,0,0,1-.21,1.72,4.69,4.69,0,0,1-1.8,2.38c-2.89,2.28-4.54,3.58-7.43,4.39a17,17,0,0,1-7.28.38l-.48,1A53,53,0,0,0,256.94,58c-.36,5.07.62,11.27,3.35,18.12a1.74,1.74,0,0,0,.13.2,25.23,25.23,0,0,1,7.15-1.46c2.75-.15,12-.65,18.14,6.4a19.2,19.2,0,0,1,4,18.12A17.48,17.48,0,0,1,280.76,110c-1.05.5-7.38,3.5-13.76.14a14.54,14.54,0,0,1-7.7-12.8,12.52,12.52,0,0,1,2.92-8.09c.19-.23,4.62-5.17,10.84-4a10.88,10.88,0,0,1,6.88,4.41,10.51,10.51,0,0,1,1.75,6.46,9,9,0,0,1-6.57,8.4,9.62,9.62,0,0,0,5.09-2.48c3.15-3.17,3.65-9.37,1-14-3.34-5.88-10.2-6.37-10.8-6.4a14,14,0,0,0-8.21,2.26,15,15,0,0,0-5,5.35,15.93,15.93,0,0,0,.09,16.89c6.55,11,21.44,13.34,31.48,4.72a28.65,28.65,0,0,0,8-11.38,24.44,24.44,0,0,0,.4-15.85,24.15,24.15,0,0,0-7.7-11.14L284,67.39c-2.48-2.34-4.72-4.49-6.67-6.4-3-2.93-4-4-4.81-5.92-.42-1-1.85-4.34-.28-6.87a4.59,4.59,0,0,1,.83-1,.76.76,0,0,1,.55,0c.42.25.29,1,.41,1.93a7.57,7.57,0,0,0,.67,2,14.48,14.48,0,0,0,5,4.72,3.22,3.22,0,0,0,1.75.2c.88-.09,1.74-.37,2.61-.5a4.55,4.55,0,0,1,4.21,1.53c.39.43.74.89,1.11,1.34a8.41,8.41,0,0,0,3.7,2.65,7.23,7.23,0,0,0,5.62-.89,36.3,36.3,0,0,1-3.58-3.85,22.69,22.69,0,0,1-1.93-2.61,13.08,13.08,0,0,1-2-4.75c-.38-2.15.3-2.44-.21-4.2-.27-.93-.64-1.12-2.2-3.57-.56-.88-.61-.94-3.16-4.82-1.11-1.68-1.71-2.49-2.62-4-.51-.83-.91-1.53-1.17-2Z"/><path d="M223.84,122.23c4.08.14,8.13,0,12.12.48,3.27.35,5.15,2.69,5.46,5.82a6.42,6.42,0,0,1-4.2,7c-.24.1-.47.22-.86.4,1.89,2.66,3.73,5.25,5.76,8.09-1.55,0-2.85.06-4.14,0-.34,0-.7-.49-.95-.82-1.37-1.92-2.67-3.89-4.11-5.75a2.73,2.73,0,0,0-1.7-.9,30.41,30.41,0,0,0-3.6,0v7.47h-3.78Zm3.83,10.87h5.62a5.7,5.7,0,0,0,.92-.07,3.62,3.62,0,0,0,3.39-3.5,3.27,3.27,0,0,0-3.23-3.54c-2.19-.2-4.4,0-6.7,0Z"/><path d="M364.55,143.87a1.16,1.16,0,0,1-.27.09c-3.53.31-3.5.3-4.91-2.94-1.16-2.67-.35-2.15-3.31-2.19-2.27,0-4.54,0-6.8,0a1.31,1.31,0,0,0-1.49,1c-.4,1.09-.95,2.11-1.33,3.2a1.31,1.31,0,0,1-1.56,1.05c-.83-.07-1.68,0-2.74,0,.22-.57.37-1,.56-1.43,2.79-6.4,5.62-12.77,8.35-19.19a1.73,1.73,0,0,1,2-1.19c1,.09,2-.28,2.6,1.15,2.74,6.51,5.62,13,8.44,19.44C364.27,143.12,364.38,143.45,364.55,143.87Zm-14.91-8.51H357l-3.71-8.58Z"/><path d="M301.57,124.77l-1.84,2.54c-2-.66-3.74-1.38-5.57-1.8a3.62,3.62,0,0,0-2.56.43,3.23,3.23,0,0,0-1.41,2.15,2.84,2.84,0,0,0,1.3,2.06,18.42,18.42,0,0,0,3.5,1.26c1.3.44,2.65.78,3.91,1.33a5.1,5.1,0,0,1,3.29,4.77,5.86,5.86,0,0,1-2.9,5.63,10.43,10.43,0,0,1-7.39,1,12.66,12.66,0,0,1-6.45-3.21l2.21-2.68,1.41,1a8.8,8.8,0,0,0,6.56,1.67c1.7-.29,2.64-1.17,2.74-2.46s-.5-2.17-2.23-2.75c-2-.67-4-1.15-6-1.85a5.2,5.2,0,0,1-3.75-4.13,6,6,0,0,1,4-7C294.38,121.31,298.06,122.19,301.57,124.77Z"/><path d="M209.33,125.44l-2.3,2.64c-5.21-3.34-8.77-3.36-11.47-.12a8.31,8.31,0,0,0,.29,10.77c2.88,3,6.6,2.86,11.25-.53l2.25,2.39c-3.35,4.51-11.13,5.16-15.74,1.26a11.6,11.6,0,0,1-.83-16.5C197,120.86,205.1,120.85,209.33,125.44Z"/><path d="M263.91,132c1.85-2.9,3.63-5.56,5.26-8.3a2.26,2.26,0,0,1,2.45-1.31,26.38,26.38,0,0,0,2.7,0c-.35.59-.58,1-.83,1.4-2.35,3.56-4.73,7.11-7,10.7a4.31,4.31,0,0,0-.62,2.09c-.08,2.44,0,4.88,0,7.39h-3.87c0-2.41.06-4.8,0-7.18a4.9,4.9,0,0,0-.68-2.34c-2.34-3.68-4.76-7.3-7.14-10.95-.19-.29-.36-.59-.67-1.11,1.44,0,2.71-.06,4,0,.37,0,.79.5,1,.87C260.2,126.06,262,128.89,263.91,132Z"/><path d="M325.64,144h-3.85V125.87H315v-3.41h17.39v3.37h-6.71Z"/><path d="M378.7,143.92V122.44h3.65v18.08h11.37v3.4Z"/><path class="cls-1" d="M253.08,82.38a48.19,48.19,0,0,1-3.83-12.07,1.57,1.57,0,0,1,.2-.89,17.27,17.27,0,0,1,4.62-5.26c1.23,4.69,2.44,9.34,3.69,14.09Z"/><path class="cls-1" d="M348.13,63.94a16.72,16.72,0,0,1,4.94,5.53,1.48,1.48,0,0,1,.15.9,47.93,47.93,0,0,1-3.75,12c-1.62-1.37-3.15-2.63-4.64-3.94a.88.88,0,0,1-.2-.8A50,50,0,0,0,348.13,63.94Z"/><path d="M270,170.69c-2.76,1.11-3.8-.71-4.77-2.48a2.1,2.1,0,0,0-2.9-1v3.69h-2.52V158.64c2.43.12,4.86.12,7.26.43a3.07,3.07,0,0,1,2.61,2.71,4,4,0,0,1-1.25,4.11c-.31.26-.66.45-1.15.78Zm-7.59-6.08c1.12,0,2.18.07,3.22,0A1.52,1.52,0,0,0,267,163a1.48,1.48,0,0,0-1.37-1.67,32.83,32.83,0,0,0-3.3,0Z"/><path d="M334.73,168.53v2.29h-9.08v-12h9v2.26H328.3v2.46h5.58V166h-5.6v2.53Z"/><path d="M277.78,158.81h2.66c0,1.77,0,3.49,0,5.21a19,19,0,0,0,.07,2.26,2.44,2.44,0,0,0,2.68,2.38,2.37,2.37,0,0,0,2.47-2.45c.11-2.13,0-4.27.07-6.41,0-.3,0-.6.07-1h2.4a83.35,83.35,0,0,1-.06,8.52c-.27,2.56-2.43,3.88-5.3,3.79s-4.53-1.49-4.94-4.1a11,11,0,0,1-.11-1.72C277.78,163.18,277.78,161.05,277.78,158.81Z"/><path d="M315.78,161.94a19,19,0,0,0-3.28-.93c-.49,0-1,.58-1.57.89.37.44.64,1.06,1.11,1.27,1,.45,2,.61,3,1a3.16,3.16,0,0,1,2.29,3.5,3.47,3.47,0,0,1-2.87,3.25,7.59,7.59,0,0,1-6.73-1.73l1.31-1.58a27.69,27.69,0,0,0,4,1.07c.5.06,1.1-.63,1.65-1-.42-.44-.77-1.05-1.28-1.29-1-.44-2-.63-3-1a3,3,0,0,1-2.14-3,3.43,3.43,0,0,1,2.18-3.36,6.45,6.45,0,0,1,6.52,1.23Z"/><path d="M351.48,160.12,350.19,162a29,29,0,0,0-2.78-1c-.79-.19-1.73-.15-2,.84s.66,1.21,1.37,1.44c1,.33,2,.56,2.92,1a3.07,3.07,0,0,1,2.13,3.2,3.38,3.38,0,0,1-2.45,3.31,7.52,7.52,0,0,1-7.2-1.58l1.37-1.67a35.11,35.11,0,0,0,3.61,1.18c.78.17,1.74.06,1.94-.95s-.71-1.2-1.41-1.44c-.93-.32-1.89-.53-2.8-.88a3.06,3.06,0,0,1-2.23-3.14A3.38,3.38,0,0,1,345,159,6.81,6.81,0,0,1,351.48,160.12Z"/><path d="M251.68,160.51l-1.54,1.77c-3-1.63-4.56-1.6-5.9.06a4.16,4.16,0,0,0,.13,5.18c1.38,1.54,3.18,1.51,5.73-.11l1.62,1.51a6.33,6.33,0,1,1-9.31-8.55A6.61,6.61,0,0,1,251.68,160.51Z"/><path class="cls-1" d="M293.07,24.33l2.48,2.61.48,3.42q.87,6.33,1.58,12.54c-1.17-3.79-2-6-2.52-7.34-.24-.6-.59-1.43-1-2.7s-.58-1.73-1-2.79-.71-1.69-.94-2.17Z"/><path d="M299.75,170.86h-2.51v-12h2.51Z"/><path class="cls-1" d="M300.92,23.48l1.75,3.15c-.12,1.14-.24,2.28-.37,3.43q-.72,6.36-1.55,12.54c-.2-4-.45-6.3-.64-7.73-.09-.65-.23-1.53-.36-2.88s-.13-1.82-.27-2.95-.27-1.8-.38-2.33C299.71,25.64,300.31,24.56,300.92,23.48Z"/><path class="cls-1" d="M308.73,24.42c.32,1.15.65,2.31,1,3.46-.38,1.08-.77,2.17-1.16,3.25-1.44,4-2.92,8-4.41,11.85.72-3.9,1-6.23,1.17-7.67.06-.65.13-1.54.32-2.89s.28-1.8.41-2.93.15-1.82.18-2.35C307.05,26.23,307.89,25.32,308.73,24.42Z"/><path class="cls-1" d="M316.21,27.06c.06,1.19.12,2.39.17,3.59-.61,1-1.24,1.94-1.86,2.91q-3.48,5.37-7,10.54c1.59-3.64,2.41-5.84,2.87-7.21.21-.62.48-1.47,1-2.74s.69-1.68,1.06-2.76.57-1.74.71-2.25Z"/><path class="cls-1" d="M285.59,27.2l3,2c.42,1.07.85,2.14,1.27,3.22q2.31,6,4.46,11.82c-2-3.41-3.33-5.37-4.16-6.54-.38-.54-.92-1.25-1.66-2.39s-1-1.54-1.62-2.48-1.07-1.47-1.41-1.89C285.53,29.67,285.56,28.43,285.59,27.2Z"/><path class="cls-1" d="M302.84,19.1,301.05,21,299,19.1c.64-1.29,1.28-2.57,1.93-3.86Z"/><path class="cls-1" d="M293.93,19.72,292.64,22l-2.45-1.39c.32-1.4.65-2.8,1-4.2Z"/><path class="cls-1" d="M285.32,22.45c-.21.85-.42,1.7-.64,2.55L282,24.31l-.18-4.3Z"/><path class="cls-1" d="M307.91,19.72l1.3,2.29,2.45-1.39c-.32-1.4-.65-2.8-1-4.2Z"/><path class="cls-1" d="M316.53,22.59c.21.85.42,1.7.64,2.55l2.73-.69c.06-1.44.12-2.87.17-4.31Z"/><path d="M396.6,125.72c.1-.22.2-.44.28-.67a4.46,4.46,0,1,1,0,2.77c-.09-.26-.18-.52-.28-.77Zm4.48,4.7a4,4,0,1,0-3.88-4A3.92,3.92,0,0,0,401.08,130.42Z"/><path d="M401.9,126.81l1.37,2.09-.14.19a2.32,2.32,0,0,1-.65-.44,9.71,9.71,0,0,1-.94-1.45.87.87,0,0,0-1.18-.44c-.19.07-.28.55-.33.86s0,.66,0,1c0,.15-.17.28-.27.42a1.46,1.46,0,0,1-.25-.43,4.56,4.56,0,0,1,0-.74c0-.72,0-1.43,0-2.15s.1-1.23.15-1.84a12.81,12.81,0,0,1,2.85.19c.94.25,1,1.79.13,2.38C402.4,126.56,402.17,126.66,401.9,126.81Zm-.91-.48,0-.1h.25c.56,0,1.21,0,1.29-.74,0-.33-.2-.95-.42-1a4.32,4.32,0,0,0-2,0c-.15,0-.14,1,0,1.53C400.13,126.15,400.68,126.22,401,126.33Z"/></svg>