<svg id="Layer_1" data-name="Layer 1" xmlns="http://www.w3.org/2000/svg" viewBox="0 0 595.28 175.75"><defs><style>.cls-1{fill:#24160c;}.cls-2{fill:#231f20;}.cls-3{fill:#bd3427;}.cls-4{fill:#bb3426;}.cls-5{fill:#30211f;}</style></defs><path class="cls-1" d="M296.81,26.24c-.91-.48-7.28,5.58-5.57,10.32a4.72,4.72,0,0,0,1.61,2.2c3.65,2.71,10.47-1.38,10.47-1.38-3.22-2.75-5.21-5.42-5.68-6.93a17.38,17.38,0,0,1-.6-2.52C296.86,26.64,297,26.34,296.81,26.24Z"/><circle class="cls-1" cx="291.11" cy="72.88" r="3.29"/><path class="cls-1" d="M296.28,96.66c-.31-.14-1.48,1.77-3.81,5.58,0,0-4.53,7.42-7.57,9.27l-.29.17a15.09,15.09,0,0,1-3.76,1.51l2.48.24a13.24,13.24,0,0,0,5.69-2.18c3.37-2.34,4.66-5.72,5.93-9.06C295.72,100.17,296.72,96.85,296.28,96.66Z"/><path class="cls-2" d="M249.69,159.25v9h-2.2v-5.41l-2,5.41H243.7l-2-5.43v5.43h-2.2v-9h2.59l2.54,6.25,2.5-6.25Z"/><path class="cls-2" d="M258,165.22h-5a1.46,1.46,0,0,0,.43,1,1.29,1.29,0,0,0,.93.36,1.16,1.16,0,0,0,1.15-.7h2.34a3.31,3.31,0,0,1-.65,1.28,3.27,3.27,0,0,1-1.18.88,3.69,3.69,0,0,1-1.58.32,3.87,3.87,0,0,1-1.88-.45,3.16,3.16,0,0,1-1.28-1.28,4,4,0,0,1-.47-2,4.07,4.07,0,0,1,.46-1.95,3.12,3.12,0,0,1,1.28-1.29,4.15,4.15,0,0,1,3.74,0,3.18,3.18,0,0,1,1.27,1.25,3.83,3.83,0,0,1,.45,1.89C258,164.78,258,165,258,165.22ZM255.78,164a1.11,1.11,0,0,0-.38-.9,1.45,1.45,0,0,0-1-.34,1.37,1.37,0,0,0-.93.33,1.43,1.43,0,0,0-.47.91Z"/><path class="cls-2" d="M259.17,162.74a3.13,3.13,0,0,1,1.14-1.29,3,3,0,0,1,1.61-.45,2.79,2.79,0,0,1,1.29.3,2.32,2.32,0,0,1,.92.8v-3.33h2.2v9.51h-2.2v-1a2.27,2.27,0,0,1-.88.83,2.83,2.83,0,0,1-1.33.3,3,3,0,0,1-1.61-.45,3.22,3.22,0,0,1-1.14-1.3,4.31,4.31,0,0,1-.42-1.95A4.26,4.26,0,0,1,259.17,162.74Zm4.5.66a1.46,1.46,0,0,0-1.11-.48,1.49,1.49,0,0,0-1.11.47,1.74,1.74,0,0,0-.46,1.29,1.82,1.82,0,0,0,.46,1.31,1.52,1.52,0,0,0,2.22,0,2.05,2.05,0,0,0,0-2.59Z"/><path class="cls-2" d="M267.9,162.74a3.13,3.13,0,0,1,1.14-1.29,3,3,0,0,1,1.61-.45,2.84,2.84,0,0,1,1.33.31,2.38,2.38,0,0,1,.88.81v-1h2.2v7.17h-2.2v-1a2.41,2.41,0,0,1-.89.81,2.83,2.83,0,0,1-1.33.3,3,3,0,0,1-1.6-.45,3.22,3.22,0,0,1-1.14-1.3,4.31,4.31,0,0,1-.41-1.95A4.26,4.26,0,0,1,267.9,162.74Zm4.5.66a1.46,1.46,0,0,0-1.11-.48,1.49,1.49,0,0,0-1.11.47,1.74,1.74,0,0,0-.46,1.29,1.82,1.82,0,0,0,.46,1.31,1.52,1.52,0,0,0,2.22,0,2.05,2.05,0,0,0,0-2.59Z"/><path class="cls-2" d="M283,161.85a3.18,3.18,0,0,1,.75,2.24v4.19H281.6v-3.89a1.56,1.56,0,0,0-.37-1.12,1.29,1.29,0,0,0-1-.4,1.31,1.31,0,0,0-1,.4,1.61,1.61,0,0,0-.37,1.12v3.89h-2.2v-7.17h2.2v.95a2.28,2.28,0,0,1,.9-.75A2.79,2.79,0,0,1,281,161,2.59,2.59,0,0,1,283,161.85Z"/><path class="cls-2" d="M287.69,166.25l-1.43,3.69h-1.4l.74-3.69Z"/><path class="cls-2" d="M293.93,159.25v9h-2.19v-9Z"/><path class="cls-2" d="M301.91,161.85a3.18,3.18,0,0,1,.76,2.24v4.19h-2.19v-3.89a1.56,1.56,0,0,0-.37-1.12,1.31,1.31,0,0,0-1-.4,1.29,1.29,0,0,0-1,.4,1.56,1.56,0,0,0-.37,1.12v3.89h-2.2v-7.17h2.2v.95a2.22,2.22,0,0,1,.9-.75,2.76,2.76,0,0,1,1.27-.28A2.58,2.58,0,0,1,301.91,161.85Z"/><path class="cls-2" d="M304.18,162.74a3,3,0,0,1,1.13-1.29,3,3,0,0,1,1.61-.45,2.79,2.79,0,0,1,1.29.3,2.32,2.32,0,0,1,.92.8v-3.33h2.2v9.51h-2.2v-1a2.21,2.21,0,0,1-.88.83,2.81,2.81,0,0,1-1.33.3,3,3,0,0,1-1.61-.45,3.13,3.13,0,0,1-1.13-1.3,4.31,4.31,0,0,1-.42-1.95A4.26,4.26,0,0,1,304.18,162.74Zm4.5.66a1.5,1.5,0,0,0-1.12-.48,1.52,1.52,0,0,0-1.11.47,1.78,1.78,0,0,0-.45,1.29,1.86,1.86,0,0,0,.45,1.31,1.54,1.54,0,0,0,2.23,0,2.09,2.09,0,0,0,0-2.59Z"/><path class="cls-2" d="M314.3,167.93a3.22,3.22,0,0,1-1.33-1.28,3.87,3.87,0,0,1-.48-2,3.76,3.76,0,0,1,.49-1.94,3.26,3.26,0,0,1,1.33-1.3,4,4,0,0,1,1.91-.45,4,4,0,0,1,1.9.45,3.29,3.29,0,0,1,1.34,1.3,3.85,3.85,0,0,1,.49,1.94,3.77,3.77,0,0,1-.5,1.95,3.35,3.35,0,0,1-1.35,1.29,4,4,0,0,1-1.91.45A3.94,3.94,0,0,1,314.3,167.93Zm3-1.91a2.24,2.24,0,0,0,0-2.65,1.39,1.39,0,0,0-1.06-.46,1.4,1.4,0,0,0-1.07.45,1.91,1.91,0,0,0-.42,1.33,2,2,0,0,0,.41,1.33,1.35,1.35,0,0,0,1.05.46A1.44,1.44,0,0,0,317.27,166Z"/><path class="cls-2" d="M327.5,161.85a3.18,3.18,0,0,1,.75,2.24v4.19h-2.18v-3.89a1.57,1.57,0,0,0-.38-1.12,1.27,1.27,0,0,0-1-.4,1.29,1.29,0,0,0-1,.4,1.56,1.56,0,0,0-.37,1.12v3.89h-2.2v-7.17h2.2v.95a2.25,2.25,0,0,1,.89-.75,2.83,2.83,0,0,1,1.28-.28A2.58,2.58,0,0,1,327.5,161.85Z"/><path class="cls-2" d="M336.51,165.22h-5a1.51,1.51,0,0,0,.43,1,1.32,1.32,0,0,0,.93.36,1.16,1.16,0,0,0,1.15-.7h2.34a3.31,3.31,0,0,1-.65,1.28,3.27,3.27,0,0,1-1.18.88,3.69,3.69,0,0,1-1.58.32,3.87,3.87,0,0,1-1.88-.45,3.22,3.22,0,0,1-1.28-1.28,4,4,0,0,1-.46-2,4.07,4.07,0,0,1,.45-1.95,3.18,3.18,0,0,1,1.28-1.29A3.88,3.88,0,0,1,333,161a3.83,3.83,0,0,1,1.85.44,3.12,3.12,0,0,1,1.27,1.25,3.83,3.83,0,0,1,.46,1.89C336.55,164.78,336.53,165,336.51,165.22ZM334.3,164a1.12,1.12,0,0,0-.39-.9,1.44,1.44,0,0,0-1-.34,1.4,1.4,0,0,0-.94.33,1.43,1.43,0,0,0-.47.91Z"/><path class="cls-2" d="M339,168.06a2.89,2.89,0,0,1-1.16-.88,2.29,2.29,0,0,1-.47-1.25h2.17a.82.82,0,0,0,.35.6,1.19,1.19,0,0,0,.76.23,1,1,0,0,0,.63-.16.48.48,0,0,0,.23-.41.49.49,0,0,0-.32-.46,6.47,6.47,0,0,0-1-.33,9.89,9.89,0,0,1-1.29-.38,2.2,2.2,0,0,1-.89-.63,1.7,1.7,0,0,1-.37-1.16,2,2,0,0,1,.34-1.13,2.31,2.31,0,0,1,1-.8,3.81,3.81,0,0,1,1.58-.3,3.2,3.2,0,0,1,2.13.67,2.66,2.66,0,0,1,.89,1.78h-2a1,1,0,0,0-.33-.6,1.17,1.17,0,0,0-.73-.21,1.09,1.09,0,0,0-.59.14.5.5,0,0,0-.2.41.49.49,0,0,0,.32.46,4.61,4.61,0,0,0,1,.31,10.74,10.74,0,0,1,1.3.41,2.24,2.24,0,0,1,.88.64,1.83,1.83,0,0,1,.39,1.19,1.91,1.91,0,0,1-.35,1.12,2.4,2.4,0,0,1-1,.78,3.85,3.85,0,0,1-1.54.28A4,4,0,0,1,339,168.06Z"/><path class="cls-2" d="M345,160a1.09,1.09,0,0,1-.37-.84,1.11,1.11,0,0,1,.37-.86A1.35,1.35,0,0,1,346,158a1.37,1.37,0,0,1,.94.34,1.13,1.13,0,0,1,.36.86,1.12,1.12,0,0,1-.36.84,1.33,1.33,0,0,1-.94.34A1.31,1.31,0,0,1,345,160Zm2,1.09v7.17h-2.2v-7.17Z"/><path class="cls-2" d="M348.65,162.74a3.13,3.13,0,0,1,1.14-1.29,3,3,0,0,1,1.61-.45,2.84,2.84,0,0,1,1.33.31,2.38,2.38,0,0,1,.88.81v-1h2.2v7.17h-2.2v-1a2.41,2.41,0,0,1-.89.81,2.88,2.88,0,0,1-1.34.3,2.94,2.94,0,0,1-1.59-.45,3.22,3.22,0,0,1-1.14-1.3,4.31,4.31,0,0,1-.41-1.95A4.26,4.26,0,0,1,348.65,162.74Zm4.5.66a1.46,1.46,0,0,0-1.11-.48,1.49,1.49,0,0,0-1.11.47,1.74,1.74,0,0,0-.46,1.29,1.82,1.82,0,0,0,.46,1.31,1.52,1.52,0,0,0,2.22,0,2.05,2.05,0,0,0,0-2.59Z"/><path class="cls-1" d="M309.29,114.51a25.57,25.57,0,0,1-21.46,2.66L289,115.8a44.76,44.76,0,0,0,6.75.59A45.85,45.85,0,0,0,309.29,114.51Z"/><path class="cls-3" d="M286.38,43.57l.91-.55a7.43,7.43,0,0,1,1.56-.74,4.13,4.13,0,0,1,3.63.42,7.62,7.62,0,0,1,1.9,1.68,12.83,12.83,0,0,1,2.68,5.32,45.45,45.45,0,0,1,1,6.67,43.14,43.14,0,0,1,.14,4.69,36,36,0,0,1-1.13,8.46,15.38,15.38,0,0,1-1.89,4.36A7,7,0,0,1,294,75.35a2.26,2.26,0,0,1-3,.26,4.15,4.15,0,0,1-1.79-4.37,3.26,3.26,0,0,1,2-2.36l.6-.26,1,0a.4.4,0,0,0,.37-.27c.05-.13.11-.25.15-.38a19.18,19.18,0,0,0,0-13.11A4.56,4.56,0,0,0,292,53a2.5,2.5,0,0,0-1.16-.58,2.84,2.84,0,0,0-2.67.67,5.23,5.23,0,0,0-1.46,1.31,20.67,20.67,0,0,0-2.81,4.24,61.62,61.62,0,0,0-4.43,11.67,80.42,80.42,0,0,0-2.18,11.21,104,104,0,0,0-.8,10.74,35,35,0,0,0,2.64,13.63,16,16,0,0,0,1.32,2.65,9.32,9.32,0,0,0,1.31,1.69,5,5,0,0,0,1,.81,3.32,3.32,0,0,0,3,.23,7.85,7.85,0,0,0,2.46-1.62,21.51,21.51,0,0,0,2.7-3.1c1.23-1.68,2.32-3.46,3.39-5.25.67-1.13,1.36-2.25,2.06-3.37a2.52,2.52,0,0,1,.67-.82.37.37,0,0,1,.23,0c.09,0,.12.1.13.19a3,3,0,0,1-.1,1,19.35,19.35,0,0,1-.76,2.34A56.76,56.76,0,0,1,291.16,111a16.43,16.43,0,0,1-2.34,2.86,10.23,10.23,0,0,1-4.31,2.63l-.31.11a13.22,13.22,0,0,1-2.95.15,6.68,6.68,0,0,1-3.52-1.23,8.82,8.82,0,0,1-1.88-1.83,16.1,16.1,0,0,1-2.05-3.46,34.36,34.36,0,0,1-2.13-6.65,76.11,76.11,0,0,1-1.62-14.28,71.26,71.26,0,0,1,.77-12.38A76.68,76.68,0,0,1,274,63.36a53.66,53.66,0,0,1,5.55-11.8,32.67,32.67,0,0,1,6.51-7.7s.06-.09.1-.13h0Z"/><path class="cls-3" d="M303.83,37.16c-1.31.56-2.63,1.1-4,1.58a7,7,0,0,1-3.08.39,6.36,6.36,0,0,1-2-.55,4.32,4.32,0,0,1-2.64-3.87,8.21,8.21,0,0,1,.39-2.83,8.88,8.88,0,0,1,4-5.27,2.49,2.49,0,0,1,.73-.36.38.38,0,0,1,.5.3c.08.49.15,1,.2,1.47a1.65,1.65,0,0,0,.7,1.24,1.62,1.62,0,0,0,.84.33,4.54,4.54,0,0,0,1.87-.14c.81-.24,1.63-.5,2.42-.79,5.37-1.94,10.67-4,15.94-6.21,2.21-.91,4.36-1.94,6.58-2.83,4.42-1.79,8.89-3.46,13.47-4.82a24.61,24.61,0,0,1,4.16-1,2.7,2.7,0,0,1,1.06,0,.53.53,0,0,1,.44.67,1.07,1.07,0,0,1-.48.74c-.25.16-.52.3-.78.44q-8.58,4.47-17.14,9c-3.13,1.65-6.25,3.31-9.32,5.08-.5.29-1,.6-1.48.89a3.2,3.2,0,0,0-1,1,26,26,0,0,0-3.4,8.34c-.47,2.06-.82,4.14-1.15,6.23C309.8,51,309,55.84,308,60.62c-.49,2.4-.85,4.81-1.12,7.24-.16,1.5-.34,3-.5,4.5-.3,2.86-.4,5.74-.46,8.62,0,1-.07,2.08-.17,3.12a8,8,0,0,1-.3,1.53,2.83,2.83,0,0,1-1.59,1.79,7.7,7.7,0,0,1-1.56.51h-1.64l-.32-.09a2.44,2.44,0,0,1-1.87-2.16,14.74,14.74,0,0,1-.16-1.63,42.34,42.34,0,0,1,.4-6.56c.46-3.7,1.11-7.37,1.87-11,.42-2.07.85-4.13,1.25-6.2.27-1.38.45-2.76.71-4.14.6-3.12,1.37-6.2,2.13-9.29.53-2.16,1.08-4.31,1.49-6.49a12.72,12.72,0,0,0,.28-2.61,2.7,2.7,0,0,0-.13-.89.68.68,0,0,0-1-.45,4,4,0,0,0-1.08.58.19.19,0,0,0-.14.05A.41.41,0,0,0,303.83,37.16Z"/><polygon class="cls-3" points="262.13 128.86 262.13 128.86 262.13 128.86 262.13 128.86"/><path class="cls-3" d="M262.13,142.53h0c-2.05,0-4.1,0-6.16,0-.8,0-.8,0-.83-.83a1.76,1.76,0,0,0-.12-.94c-.2.34-.35.62-.52.89s-.55.44-.81.69a.1.1,0,0,0-.1,0,10.66,10.66,0,0,1-2,.17h-7.57c-.33,0-.66,0-1,0a4.75,4.75,0,0,1-4.5-3.8,10.29,10.29,0,0,1-.29-2.53c0-3.37,0-6.75,0-10.12,0-.41,0-.82.06-1.23a9.13,9.13,0,0,1,.72-2.77c.11-.16.24-.31.35-.46a4.55,4.55,0,0,1,2.85-1.8,7.3,7.3,0,0,1,1.55-.18h16.94c.76,0,.77,0,.78.79s0,1.59,0,2.38c0,.46-.05.61-.55.61a1.84,1.84,0,0,0-.33,0c-.52,0-1,0-1.56,0h-10a3.8,3.8,0,0,0-1.06.08c-.48.14-.85.38-.89.94a1.28,1.28,0,0,0-.1.72q0,6,0,11.94a3.49,3.49,0,0,0,.05.65,1.17,1.17,0,0,0,1,1,2.78,2.78,0,0,0,.58.06q1.6,0,3.21,0a2.73,2.73,0,0,0,.4,0c.87-.18,1.14-.48,1.2-1.3,0-.19,0-.38,0-.57v-2.79c0-.36,0-.72,0-1.07s-.09-.34-.35-.36c-.49,0-1,0-1.48,0h-2.21c-.57,0-.66-.1-.67-.69,0-.8,0-1.59,0-2.38a2.58,2.58,0,0,1,0-.32c.05-.31.18-.33.65-.35h12.73Z"/><path class="cls-3" d="M335.27,126.7c.16-1-.1-1,1.07-1h5.93c.24,0,.49,0,.73,0s.23.13.27.27c.08.33-.13.71.17,1,.32-.14.41-.5.64-.72a1.93,1.93,0,0,1,1.16-.56,5.62,5.62,0,0,1,.58,0h6.91a8.21,8.21,0,0,1,1.64.16,4.18,4.18,0,0,1,3.4,3.29,6.14,6.14,0,0,1,.2,1.54c0,2.31,0,4.61,0,6.92a6.35,6.35,0,0,1-.16,1.38,4.28,4.28,0,0,1-1.75,2.7l-.39.29a9.13,9.13,0,0,1-3.7.55c-1.53,0-3.06,0-4.59,0h-1.47a1.91,1.91,0,0,1-1.78-1c-.06-.11-.1-.26-.32-.23a9.74,9.74,0,0,0,0,2c0,.65,0,1.3,0,2,0,1,0,2.06,0,3.09,0,.47,0,.5-.51.54l-.4,0c-.3,0-.6,0-.91,0h-5.51l-.74,0a.31.31,0,0,1-.33-.29q0-.45,0-.9c0-6.64,0-13.27,0-19.91C335.31,127.46,335.28,127.08,335.27,126.7Zm13.29,12.54a.87.87,0,0,0,.93-.84,3.59,3.59,0,0,0,.05-.73v-7a4.85,4.85,0,0,0,0-.66,1,1,0,0,0-1.07-1c-1.2,0-2.41,0-3.61,0-.69,0-.9.26-1,1a3.87,3.87,0,0,0-.05.49c0,2.46,0,4.92,0,7.38,0,1.1.3,1.39,1.43,1.4.93,0,1.86,0,2.79,0A3.7,3.7,0,0,0,348.56,139.24Z"/><path class="cls-1" d="M267.36,100.42a55.12,55.12,0,0,1-3.87-7.15,63.67,63.67,0,0,1-4.81-17.44,84,84,0,0,1-1.11-17.46,67.25,67.25,0,0,1,4.92-24.25,57,57,0,0,1,7.41-12.9,39.6,39.6,0,0,1,9.16-9.1A35,35,0,0,1,289.5,7.18a23.13,23.13,0,0,1,7.12-1.07,22.73,22.73,0,0,1,8.09,1.74,33.17,33.17,0,0,1,9.92,6.06A38.65,38.65,0,0,1,319.54,19a2.44,2.44,0,0,1,.54.73l.07.17c-.33.08-.67.19-1,.31a12.35,12.35,0,0,0-1.19.46c-.3-.38-.72-.92-1.25-1.54a31.88,31.88,0,0,0-5.79-5.63,32,32,0,0,0-4.18-2.55c-.76-.4-1.3-.65-1.77-.86a22.49,22.49,0,0,0-2.64-.95,22.26,22.26,0,0,0-6.72-.89,22.55,22.55,0,0,0-7.9,1.72,31.17,31.17,0,0,0-8.63,5.23,39.77,39.77,0,0,0-8,9.29A69.57,69.57,0,0,0,263,41.17a70.49,70.49,0,0,0-2.95,12.31,59.89,59.89,0,0,0-.61,10c.06,2.28.17,4.55.42,6.82a71.21,71.21,0,0,0,6.43,23.36c.12.25.26.49.39.73s.37.78.57,1.16a4.91,4.91,0,0,1,.24.68c.16.48.28.87.36,1.15Z"/><path class="cls-4" d="M269,99.2c-.16-.18-3.14-5.13-3.72-6.42a71.87,71.87,0,0,1-5.18-17.22A80.42,80.42,0,0,1,259,58.1a75.05,75.05,0,0,1,4.92-24.24,56.77,56.77,0,0,1,7.29-13.41,41.3,41.3,0,0,1,9.5-9.39,28.77,28.77,0,0,1,10.06-4.57,26,26,0,0,1,15.36,1.09,33,33,0,0,1,9.92,6.06A25.52,25.52,0,0,1,321,18.73c.2.3.37.56.48.74l-.79.27c-.36.12-.7.23-1.05.33l-.48-.52A52.38,52.38,0,0,0,312,13.2a31,31,0,0,0-8.28-4.33,20.51,20.51,0,0,0-6.63-1.12,20.88,20.88,0,0,0-7.24,1.35,29.76,29.76,0,0,0-9.39,5.82,48.07,48.07,0,0,0-7.95,9.3,69.39,69.39,0,0,0-8.08,16.69,70.17,70.17,0,0,0-3,12.3,59.89,59.89,0,0,0-.61,10c0,2.28.17,4.56.41,6.82a71,71,0,0,0,6.44,23.37c.12.24.26.48.39.72.19.39.37.78.57,1.17A4.88,4.88,0,0,1,269,96a7.49,7.49,0,0,1,.6,2.9.49.49,0,0,1-.22.32A.47.47,0,0,1,269,99.2Z"/><path class="cls-3" d="M284.7,127.49a1.63,1.63,0,0,1,.17-.22,5.68,5.68,0,0,1,.51-.52,5.13,5.13,0,0,1,1.74-.84,7.19,7.19,0,0,1,1.46-.17h14.06a6.56,6.56,0,0,1,1.86.29,3.23,3.23,0,0,1,2.25,2.21,6.56,6.56,0,0,1,.31,2c0,2.6,0,5.21,0,7.81a8.08,8.08,0,0,1-.17,1.47,3.58,3.58,0,0,1-1.77,2.55l-.18.11h0a10.79,10.79,0,0,1-3.25.37H288.53a7.18,7.18,0,0,1-1.38-.14,3.4,3.4,0,0,1-2.82-2.76,9.28,9.28,0,0,1-.19-2c0-2.14,0-4.28,0-6.41a11.07,11.07,0,0,1,.39-3.34h0l.07-.15A1.52,1.52,0,0,1,284.7,127.49Zm7.92,2.55a5.46,5.46,0,0,0,0,.57v7.22c0,.19,0,.38,0,.57a1.49,1.49,0,0,0,.06.25.77.77,0,0,0,.07.16.83.83,0,0,0,.16.21.79.79,0,0,0,.46.23,2.6,2.6,0,0,0,.56.06h3.26a2.65,2.65,0,0,0,.48-.07.85.85,0,0,0,.9-.78,3.73,3.73,0,0,0,.07-.82v-7a4.64,4.64,0,0,0,0-.65,1,1,0,0,0-1.1-1c-1.28,0-2.57,0-3.85,0C293,129,292.77,129.29,292.62,130Z"/><path class="cls-3" d="M332.45,125.92c0,.39,0,.77,0,1.15q0,7.27,0,14.55c0,.32.09.66-.12.95l-.65,0H325.4c-.24,0-.49,0-.73,0a.27.27,0,0,1-.27-.25c0-.14,0-.27,0-.41s.05-.49-.08-.71c-.31,0-.34.31-.48.49a6.66,6.66,0,0,1-.78.72.34.34,0,0,0-.26.14c-.38,0-.77.05-1.15.05H315.2c-.27,0-.55,0-.82,0a5.56,5.56,0,0,1-2.42-.74,4.67,4.67,0,0,1-2.08-3,9.56,9.56,0,0,1-.27-2.44v-8.64c0-.36,0-.71-.05-1.07s0-.44.07-.65a.33.33,0,0,1,.34-.3h7.23c.85,0,.85,0,.86.88v10.44a11.4,11.4,0,0,0,0,1.31.86.86,0,0,0,.83.87,2.54,2.54,0,0,0,.48.09h3.2a2.71,2.71,0,0,0,.4,0,1,1,0,0,0,.92-.92c0-.32.05-.65.06-1v-9.94a9.9,9.9,0,0,1,.07-1.72.19.19,0,0,0,.13,0c.3,0,.6,0,.91,0h6.65C332,125.76,332.25,125.72,332.45,125.92Z"/><path class="cls-4" d="M324.71,27.9a1.65,1.65,0,0,1,.24-.22c1.76-.91,1.31-1.11,2.2.63a67.62,67.62,0,0,1,6,17.55,75.64,75.64,0,0,1,1.28,9.37A86.93,86.93,0,0,1,334.46,67a77.13,77.13,0,0,1-2.68,16.12A62.09,62.09,0,0,1,324,100.55a43.38,43.38,0,0,1-9.53,10.6,30.06,30.06,0,0,1-11.07,5.61,26.31,26.31,0,0,1-9.88.64,21.74,21.74,0,0,1-4.26-.89c-.2-.07-.39-.16-.39-.16l-.25-.14.68-.87.6-.81.69.18.16.05a24.26,24.26,0,0,0,13.59-.31,26.18,26.18,0,0,0,5.81-2.69l.54-.38a.16.16,0,0,0,.17-.13h0a5.57,5.57,0,0,0,1.25-.78,38.59,38.59,0,0,0,7.83-7.59,55.66,55.66,0,0,0,8.36-15.41,73.91,73.91,0,0,0,4.24-21,79.59,79.59,0,0,0-.07-10.36,80.57,80.57,0,0,0-1.21-9.29,68.23,68.23,0,0,0-4.76-15.28A30.29,30.29,0,0,0,324.71,27.9Z"/><path class="cls-3" d="M274.28,131.66l0,.15c-.05.11-.08.23-.12.34a6.39,6.39,0,0,0-.09.65,6.26,6.26,0,0,0,0,.65c0,3,0,6.06,0,9.08v0h-7.31a6,6,0,0,1-.74,0,.31.31,0,0,1-.31-.32c0-.27,0-.55,0-.82V127.76c0-.35,0-.71,0-1.06v-.79c.26-.22.57-.15.86-.15h6.38c.44,0,.52.09.54.53s0,.71,0,1.07,0,.43.05.65a.12.12,0,0,0,.23,0c.06-.12.1-.24.15-.37l.11-.12a3.47,3.47,0,0,1,2.79-1.75l.57-.08,4.63,0,0,0,0,4.62h0l-3.78,0c-.63,0-1.26.07-1.89.11a2.32,2.32,0,0,0-1,.27A2.48,2.48,0,0,0,274.28,131.66Z"/><path class="cls-4" d="M297.7,154.52h59.35c.33,0,.66,0,1,0a.52.52,0,0,1,.48.48.56.56,0,0,1-.44.61,1.81,1.81,0,0,1-.4,0H237.48a.9.9,0,0,1-.47-.13.53.53,0,0,1-.25-.56.5.5,0,0,1,.35-.41,1.84,1.84,0,0,1,.41,0H297.7Z"/><path class="cls-1" d="M324.71,27.9a30.29,30.29,0,0,1,1.81,3.6,68.23,68.23,0,0,1,4.76,15.28,80.57,80.57,0,0,1,1.21,9.29,79.59,79.59,0,0,1,.07,10.36,73.91,73.91,0,0,1-4.24,21A55.66,55.66,0,0,1,320,102.89a42.1,42.1,0,0,1-7.83,7.59,8.62,8.62,0,0,1-1.25.78,8.69,8.69,0,0,1,1.14-1,54.26,54.26,0,0,0,4.7-4.6c.15-.17.82-.91,1.63-2A55.77,55.77,0,0,0,324.27,94s1.13-2.38,1.37-3c.58-1.45,1.16-2.9,1.65-4.39A72.55,72.55,0,0,0,330,75.45q.45-2.81.72-5.63a26.69,26.69,0,0,0,.22-3.69,3.54,3.54,0,0,1,0-.65,23.23,23.23,0,0,0,.08-4.93c-.09-1.45-.11-2.9-.24-4.35-.21-2.35-.48-4.69-.87-7A70.4,70.4,0,0,0,325.26,33c-.34-.8-1.48-3.26-1.78-3.79a3.07,3.07,0,0,1-.2-.41Z"/><path class="cls-1" d="M268.81,96.12c-.15-1.51-.41-4.25-.42-7.73a78.3,78.3,0,0,1,2.21-18,85.85,85.85,0,0,1,2.89-9.26,49.41,49.41,0,0,1,4.64-9.07,38.1,38.1,0,0,1,3.17-4.3,22.46,22.46,0,0,1,3.54-3.42,2.74,2.74,0,0,1,1.33-.63s-.06.09-.1.13a32.67,32.67,0,0,0-6.51,7.7A53.66,53.66,0,0,0,274,63.36a76.68,76.68,0,0,0-3.19,13.51,71.26,71.26,0,0,0-.77,12.38,76.11,76.11,0,0,0,1.62,14.28,34.36,34.36,0,0,0,2.13,6.65,16.1,16.1,0,0,0,2.05,3.46,8.82,8.82,0,0,0,1.88,1.83,6.68,6.68,0,0,0,3.52,1.23,13.22,13.22,0,0,0,2.95-.15,1.38,1.38,0,0,1-.79.55,8.75,8.75,0,0,1-.88.23,10.12,10.12,0,0,1-3.76.06,6.62,6.62,0,0,1-3.52-1.84,12.53,12.53,0,0,1-2.34-3.16,29.11,29.11,0,0,1-2.71-7.48A62.71,62.71,0,0,1,268.81,96.12Z"/><path class="cls-1" d="M304.27,37a4,4,0,0,1,1.08-.58.68.68,0,0,1,1,.45,2.7,2.7,0,0,1,.13.89,12.72,12.72,0,0,1-.28,2.61c-.41,2.18-1,4.33-1.49,6.49-.76,3.09-1.53,6.17-2.13,9.29-.26,1.38-.44,2.76-.71,4.14-.4,2.07-.83,4.13-1.25,6.2-.76,3.65-1.41,7.32-1.87,11a42.34,42.34,0,0,0-.4,6.56,14.74,14.74,0,0,0,.16,1.63,2.44,2.44,0,0,0,1.87,2.16l.32.09a6.7,6.7,0,0,0,1.48.15,1.59,1.59,0,0,1-1.15.56,7.64,7.64,0,0,1-2,0,2.23,2.23,0,0,1-2-1.7,8.61,8.61,0,0,1-.33-2,43.31,43.31,0,0,1,.27-5.34c.38-3.74,1.06-7.44,1.76-11.13.24-1.24.51-2.48.79-3.71.43-1.95.78-3.93,1.08-5.91.35-2.25.86-4.47,1.37-6.69.61-2.59,1.27-5.17,1.89-7.76a42.84,42.84,0,0,0,1-5.17A2.82,2.82,0,0,0,304.27,37Z"/><path class="cls-1" d="M309.81,63a1.35,1.35,0,0,0-.13.56c0,.55,0,1.1.06,1.64,0,.36.12.44.46.43s.6,0,.9,0a5.16,5.16,0,0,1,2.72.82,1.49,1.49,0,0,1,.77,1.74c-.15.7-.3,1.4-.5,2.08-1.27,4.48-2.46,9-3.47,13.54q-1.15,5.17-2.06,10.4c-.37,2.16-.71,4.33-1.07,6.49a10.55,10.55,0,0,0-.1,2.38,4.14,4.14,0,0,0,.25,1.21,2.88,2.88,0,0,0,1.72,1.76,5.11,5.11,0,0,0,1.85.35l1.32,0a6,6,0,0,1-1.17.52,5.25,5.25,0,0,1-2.38.23,3.6,3.6,0,0,1-2.24-.92,3.66,3.66,0,0,1-.93-2.24,8.39,8.39,0,0,1,.07-2.55c.37-2.24.73-4.49,1.12-6.73.7-4,1.48-7.87,2.39-11.77q1.47-6.23,3.23-12.34a12.91,12.91,0,0,0,.31-1.37,3,3,0,0,0,.05-.73,1.37,1.37,0,0,0-.68-1.16,5.48,5.48,0,0,0-3.12-.89c-.89,0-1.07-.13-1.1-1,0-.27,0-.55,0-.82a.76.76,0,0,1,.6-.79A2,2,0,0,0,309.81,63Z"/><path class="cls-1" d="M326.06,44.2a6.22,6.22,0,0,1-.14,1.55c-.18.63-1.57,3.64-4.62,3.6a4.73,4.73,0,0,1-4.49-3.65A4.67,4.67,0,0,1,325.72,43c.12.28.21.54.21.54A2.3,2.3,0,0,1,326.06,44.2Z"/><path class="cls-3" d="M327,43.25a6.17,6.17,0,0,1-.14,1.55c-.18.63-1.57,3.65-4.62,3.6a4.71,4.71,0,0,1-4.49-3.65A4.67,4.67,0,0,1,326.67,42l.21.54A2.35,2.35,0,0,1,327,43.25Z"/><path class="cls-5" d="M284.52,127.87a11.07,11.07,0,0,0-.39,3.34c0,2.13,0,4.27,0,6.41a9.28,9.28,0,0,0,.19,2,3.4,3.4,0,0,0,2.82,2.76,7.18,7.18,0,0,0,1.38.14h13.16a10.79,10.79,0,0,0,3.25-.37,1.29,1.29,0,0,1-.64.72,4.43,4.43,0,0,1-1.87.57c-.25,0-.49,0-.74,0-4.69,0-9.38,0-14.07,0a7.13,7.13,0,0,1-1.79-.21,3.75,3.75,0,0,1-2.57-3.09c-.08-.93-.22-1.85-.21-2.79,0-1.21,0-2.41,0-3.62s.1-2.41.18-3.61a4.47,4.47,0,0,1,.39-1.43A1.51,1.51,0,0,1,284.52,127.87Z"/><path class="cls-5" d="M239.07,122.08a9.13,9.13,0,0,0-.72,2.77c0,.41-.06.82-.06,1.23,0,3.37,0,6.75,0,10.12a10.29,10.29,0,0,0,.29,2.53,4.75,4.75,0,0,0,4.5,3.8c.32,0,.65,0,1,0h7.57a10.66,10.66,0,0,0,2-.17,1.88,1.88,0,0,1-1.48,1,5.43,5.43,0,0,1-1,.07h-8.47a6,6,0,0,1-2-.32,4.69,4.69,0,0,1-2.83-2.81,8.69,8.69,0,0,1-.52-2.9c0-.46,0-.93,0-1.4q0-4.47,0-9a12.22,12.22,0,0,1,.33-2.69,6.25,6.25,0,0,1,.53-1.38A2,2,0,0,1,239.07,122.08Z"/><path class="cls-5" d="M335.27,126.7c0,.38,0,.76,0,1.14,0,6.64,0,13.27,0,19.91q0,.45,0,.9a.31.31,0,0,0,.33.29l.74,0h5.51c.31,0,.61,0,.91,0,0,.13,0,.27-.06.41a.61.61,0,0,1-.57.5l-.58,0h-6.16c-1.06,0-1.2-.14-1.2-1.18,0-1.59,0-3.18,0-4.77V128.43c0-.3,0-.6,0-.9,0-.56.16-.68.74-.8A2.13,2.13,0,0,1,335.27,126.7Z"/><path class="cls-5" d="M309.56,126.7c0,.36.05.71.05,1.07v8.64a9.56,9.56,0,0,0,.27,2.44,4.67,4.67,0,0,0,2.08,3,5.56,5.56,0,0,0,2.42.74c.27,0,.55,0,.82,0h6.42c.38,0,.77,0,1.15-.05a1.78,1.78,0,0,1-1.6,1l-.57,0c-2.25,0-4.5,0-6.76,0a6.19,6.19,0,0,1-1.54-.19,4.51,4.51,0,0,1-3.12-2.7,7.52,7.52,0,0,1-.6-3.21c0-1.68,0-3.35,0-5v-4.61C308.6,126.92,308.68,126.84,309.56,126.7Z"/><path class="cls-1" d="M288.13,53.11a2.84,2.84,0,0,1,2.67-.67A2.5,2.5,0,0,1,292,53a4.56,4.56,0,0,1,1.26,1.8,19.18,19.18,0,0,1,0,13.11c0,.13-.1.25-.15.38a.4.4,0,0,1-.37.27l-1,0c.09-.37.17-.75.28-1.11a18.57,18.57,0,0,0,.69-6.67,16.53,16.53,0,0,0-1.13-5.19,6.63,6.63,0,0,0-.54-1,3.21,3.21,0,0,0-2.52-1.49Z"/><path class="cls-5" d="M265.57,126.7c0,.35,0,.71,0,1.06V141.4c0,.27,0,.55,0,.82a.31.31,0,0,0,.31.32,6,6,0,0,0,.74,0H274c-.37.17-.78.26-1,.65a.84.84,0,0,1-.65.3l-.66,0H266a4.59,4.59,0,0,1-.74,0c-.4,0-.56-.23-.62-.64a5.44,5.44,0,0,1,0-.57V128c0-.14,0-.27,0-.41.05-.6.15-.71.79-.84Z"/><path class="cls-5" d="M253.44,136.87c0,.19,0,.38,0,.57-.06.82-.33,1.12-1.2,1.3a2.53,2.53,0,0,0,.18-1.05c0-1,0-2,0-3s-.17-1.08-1.13-1.09h-2.47c-1,0-1.14-.16-1.16-1.15,0-.57,0-1.15,0-1.72a1.27,1.27,0,0,1,.22-.83,1,1,0,0,1,.35-.27c.27-.12.41,0,.51-.13,0,.79,0,1.58,0,2.38,0,.59.1.67.67.69h2.21c.5,0,1,0,1.48,0,.26,0,.34.11.35.36s0,.71,0,1.07Z"/><polygon class="cls-5" points="262.13 128.86 262.13 128.86 262.13 128.86 262.13 128.86"/><path class="cls-5" d="M324.06,125.73a9.9,9.9,0,0,0-.07,1.72v9.94c0,.33,0,.66-.06,1a1,1,0,0,1-.92.92,2.71,2.71,0,0,1-.4,0h-3.2a2.54,2.54,0,0,1-.48-.09l2.78,0c1.05,0,1.19-.14,1.19-1.19,0-3.23,0-6.46,0-9.69,0-.33,0-.66,0-1a.56.56,0,0,1,.32-.54,1.28,1.28,0,0,0,.72-.94A.5.5,0,0,1,324.06,125.73Z"/><path class="cls-5" d="M247.11,124.44c0-.56.41-.8.89-.94a3.8,3.8,0,0,1,1.06-.08h10c.52,0,1,0,1.56,0-.14.84-.22.93-1,1-.28,0-.55,0-.82,0H248.42C248,124.41,247.55,124.43,247.11,124.44Z"/><path class="cls-5" d="M343.8,143.38a9.74,9.74,0,0,1,0-2c.22,0,.26.12.32.23a1.91,1.91,0,0,0,1.78,1h1.47c1.53,0,3.06,0,4.59,0a9.13,9.13,0,0,0,3.7-.55,1.56,1.56,0,0,1-.73.75,4.86,4.86,0,0,1-2.4.74c-2.56,0-5.12,0-7.69,0A9.38,9.38,0,0,1,343.8,143.38Z"/><path class="cls-5" d="M323,142.37a6.66,6.66,0,0,0,.78-.72c.14-.18.17-.48.48-.49.13.22.06.47.08.71s0,.27,0,.41a.27.27,0,0,0,.27.25c.24,0,.49,0,.73,0h6.24l.65,0a1.56,1.56,0,0,0-.92.63.69.69,0,0,1-.57.29c-.24,0-.49,0-.73,0h-5.25c-.11,0-.22,0-.33,0-.57,0-1-.1-1.17-.76C323.29,142.61,323.13,142.5,323,142.37Z"/><path class="cls-5" d="M253.69,142.37c.26-.25.62-.37.81-.69s.32-.55.52-.89a1.76,1.76,0,0,1,.12.94c0,.81,0,.83.83.83,2.06,0,4.11,0,6.16,0a2,2,0,0,0-1.14.74.6.6,0,0,1-.51.22l-.66,0H255.4l-.58,0a.72.72,0,0,1-.74-.53A.94.94,0,0,0,253.69,142.37Z"/><path class="cls-5" d="M274.27,131.7a2.35,2.35,0,0,1,.92-.93,2.25,2.25,0,0,1,1-.27c.63,0,1.26-.09,1.89-.11l3.78,0a2.25,2.25,0,0,0-1,.67.94.94,0,0,1-.82.29c-.59,0-1.19,0-1.79,0a22.68,22.68,0,0,0-2.93.16C274.88,131.56,274.5,131.65,274.27,131.7Z"/><path class="cls-5" d="M302.16,88.07a6.7,6.7,0,0,1-1.48-.15h1.64Z"/><path class="cls-4" d="M323.4,60.84a4.56,4.56,0,0,1-.14.64c-.78,2.8-1.59,5.59-2.35,8.4-.94,3.47-1.82,7-2.76,10.42-.55,2-1.16,4.06-1.73,6.09a73.32,73.32,0,0,0-2,9.16,12.06,12.06,0,0,0-.09,3.12,4.18,4.18,0,0,0,.31,1.19,2,2,0,0,0,.58.78,1.39,1.39,0,0,0,1.53.26,5,5,0,0,0,1.18-.74,28,28,0,0,0,2.61-2.5c1.1-1.17,1.42-1.6,2.19-2.36.12-.11.43-.42.51-.37s0,.18-.26.75c-.38.79-.64,1.22-.64,1.22-.31.48-.62,1-.94,1.44a29.6,29.6,0,0,1-4.08,5.12c-.43.42-.89.81-1.35,1.19a9.29,9.29,0,0,1-2.79,1.54l-.35.1-.29,0-1.32,0a5.11,5.11,0,0,1-1.85-.35,2.88,2.88,0,0,1-1.72-1.76,4.14,4.14,0,0,1-.25-1.21,11.17,11.17,0,0,1,.1-2.38c.36-2.16.7-4.33,1.07-6.49q.92-5.22,2.06-10.4c1-4.55,2.2-9.06,3.47-13.54.2-.68.35-1.38.5-2.08a1.49,1.49,0,0,0-.77-1.74,5.16,5.16,0,0,0-2.72-.82c-.3,0-.6,0-.9,0s-.44-.07-.46-.43c0-.54,0-1.09-.06-1.64a1.35,1.35,0,0,1,.13-.56,1.68,1.68,0,0,0,.74,0L319,61.41l3.81-.69a2.63,2.63,0,0,1,.49,0A.14.14,0,0,1,323.4,60.84Z"/><path class="cls-5" d="M303.83,37.16a.41.41,0,0,1,.3-.14Z"/><path class="cls-1" d="M286.38,43.57l-.21.15Z"/><path class="cls-5" d="M304.94,142.2l.18-.11Z"/><path class="cls-5" d="M348.56,139.24c0-2.51,0-5,0-7.54a2.69,2.69,0,0,0-.11-.89,1,1,0,0,0-.8-.73,2.76,2.76,0,0,0-.57-.06l-3.28,0c.13-.75.34-1,1-1,1.2,0,2.41,0,3.61,0a1,1,0,0,1,1.07,1,4.85,4.85,0,0,1,0,.66v7a3.59,3.59,0,0,1-.05.73A.87.87,0,0,1,348.56,139.24Z"/><path class="cls-5" d="M297.67,139.24c0-2.4,0-4.81,0-7.21a3.8,3.8,0,0,0-.13-1.06,1.13,1.13,0,0,0-1.09-.94h-.33l-3.52,0c.15-.75.36-1,1-1,1.28,0,2.57,0,3.85,0a1,1,0,0,1,1.1,1,4.64,4.64,0,0,1,0,.65v7a3.73,3.73,0,0,1-.07.82A.85.85,0,0,1,297.67,139.24Z"/></svg>