<svg id="Layer_1" data-name="Layer 1" xmlns="http://www.w3.org/2000/svg" viewBox="0 0 595.28 175.75"><defs><style>.cls-1{fill:#bb9631;}.cls-2{fill:#ee3425;}</style></defs><path class="cls-1" d="M283.84,111.84a1.7,1.7,0,0,0,1.45.5c.95-.07,1.35-.92.79-1.25s-.69.33-1.25.56a1.55,1.55,0,0,1-1,.19"/><path class="cls-1" d="M298.54,111.84a1.67,1.67,0,0,1-1.44.5c-1-.07-1.39-.92-.79-1.25s.69.33,1.25.56a1.48,1.48,0,0,0,1,.19"/><path class="cls-1" d="M268.19,32.8a1.08,1.08,0,0,1,.56-.13A1.24,1.24,0,0,1,270,33.91a1.22,1.22,0,0,1-.72,1.12"/><path class="cls-1" d="M270,33.88a1.25,1.25,0,0,0-1.25-1.25,2.09,2.09,0,0,0-.59.13L269.28,35a1.23,1.23,0,0,0,.72-1.12"/><path class="cls-1" d="M314.29,32.8a1.1,1.1,0,0,0-.59-.13,1.24,1.24,0,0,0-.53,2.36"/><path class="cls-1" d="M312.45,33.88a1.25,1.25,0,0,1,1.25-1.25,1.66,1.66,0,0,1,.59.13L313.17,35a1.24,1.24,0,0,1-.72-1.12"/><path class="cls-1" d="M262.54,28.88a1.12,1.12,0,1,1-1.12-1.11,1.11,1.11,0,0,1,1.12,1.11"/><path class="cls-1" d="M262.54,28.88a1.12,1.12,0,1,1-1.12-1.11,1.11,1.11,0,0,1,1.12,1.11"/><path class="cls-1" d="M262.21,24.28a1.13,1.13,0,0,1-1.12,1.12,1.12,1.12,0,0,1,0-2.24,1.16,1.16,0,0,1,1.12,1.12"/><path class="cls-1" d="M263.49,19.91A1.11,1.11,0,0,1,262.37,21a1.14,1.14,0,0,1-1.12-1.12,1.11,1.11,0,0,1,1.12-1.12,1.13,1.13,0,0,1,1.12,1.12"/><path class="cls-1" d="M266.38,16.39a1.12,1.12,0,1,1-1.11-1.12,1.12,1.12,0,0,1,1.11,1.12"/><path class="cls-1" d="M270.43,14a1.12,1.12,0,0,1-2.24,0,1.12,1.12,0,1,1,2.24,0"/><path class="cls-1" d="M274.9,12.8a1.12,1.12,0,1,1-1.12-1.11,1.12,1.12,0,0,1,1.12,1.11"/><path class="cls-1" d="M279.47,12.67a1.12,1.12,0,1,1-1.12-1.11,1.11,1.11,0,0,1,1.12,1.11"/><path class="cls-1" d="M284,13.4a1.12,1.12,0,1,1-1.12-1.12A1.1,1.1,0,0,1,284,13.4"/><polygon class="cls-1" points="287.76 16.09 286.38 16.09 288.78 23.1 289.6 23.1 287.76 16.09"/><path class="cls-1" d="M273.85,15.07c-5.49.69-11.05,5-10.43,10.76.47,4.34,1.75,6.47,3.65,9.73l1.09,1.84,1.22-.69-1.09-1.84c-1.84-3.13-3.06-5.16-3.48-9.21-.5-4.77,4.34-8.61,9.2-9.21a26.56,26.56,0,0,1,12.5,2l-.63-1.78a23.79,23.79,0,0,0-12-1.58"/><path class="cls-1" d="M274.14,17.38c-4.4.52-8.84,3.94-8.38,8.18a15.88,15.88,0,0,0,.49,2.8l.89-.36a21.21,21.21,0,0,1-.46-2.54c-.39-3.68,3.58-6.67,7.56-7.16a25.29,25.29,0,0,1,12.4,2.2,8,8,0,0,0,.76.39l-.46-1.31a23.15,23.15,0,0,0-12.8-2.2"/><path class="cls-1" d="M319.92,28.88A1.12,1.12,0,1,0,321,27.77a1.1,1.1,0,0,0-1.11,1.11"/><path class="cls-1" d="M320.28,24.28a1.12,1.12,0,1,0,1.12-1.12,1.13,1.13,0,0,0-1.12,1.12"/><path class="cls-1" d="M319,19.91A1.11,1.11,0,0,0,320.11,21a1.13,1.13,0,0,0,1.12-1.12,1.12,1.12,0,1,0-2.23,0"/><path class="cls-1" d="M316.1,16.39a1.12,1.12,0,1,0,1.12-1.12,1.11,1.11,0,0,0-1.12,1.12"/><path class="cls-1" d="M312,14a1.12,1.12,0,1,0,1.12-1.12A1.11,1.11,0,0,0,312,14"/><path class="cls-1" d="M307.55,12.8a1.12,1.12,0,1,0,1.12-1.11,1.15,1.15,0,0,0-1.12,1.11"/><path class="cls-1" d="M303,12.67a1.12,1.12,0,1,0,1.12-1.11A1.11,1.11,0,0,0,303,12.67"/><path class="cls-1" d="M298.44,13.4a1.12,1.12,0,1,0,1.12-1.12,1.11,1.11,0,0,0-1.12,1.12"/><polygon class="cls-1" points="294.73 16.09 296.08 16.09 293.71 23.1 292.85 23.1 294.73 16.09"/><path class="cls-1" d="M308.6,15.07c5.5.69,11,5,10.43,10.76-.46,4.34-1.74,6.47-3.65,9.73l-1.09,1.84-1.21-.69,1.08-1.84c1.84-3.13,3.06-5.16,3.49-9.21.52-4.77-4.34-8.61-9.21-9.21a26.69,26.69,0,0,0-12.53,2l.63-1.78a23.93,23.93,0,0,1,12.06-1.58"/><path class="cls-1" d="M308.34,17.38c4.41.52,8.85,3.94,8.39,8.18a15.83,15.83,0,0,1-.5,2.8l-.85-.36a16.55,16.55,0,0,0,.46-2.54c.39-3.68-3.62-6.67-7.56-7.16a25.16,25.16,0,0,0-12.37,2.2s-.39.23-.75.39l.42-1.31a23,23,0,0,1,12.76-2.2"/><polyline class="cls-1" points="290.26 23.1 292.23 23.1 292.72 21.19 289.73 21.19 290.26 23.1 292.23 23.1"/><polygon class="cls-1" points="292.89 20.57 293.25 19.22 289.24 19.22 289.57 20.57 292.89 20.57"/><path class="cls-1" d="M294.47,5.67l-1.12,2.27,2.56-1.28v7.85L292.53,13l1.54,3.12-.66,2.47H289l-.66-2.47L289.93,13l-3.39,1.54V6.66l2.57,1.28L288,5.67ZM295,8.6c-.49.23-.69.32-1,.49v3l1,.46Zm-3.75,3.71a1.66,1.66,0,0,0,1.68-1.64A1.69,1.69,0,0,0,291.24,9h0a1.69,1.69,0,0,0-1.68,1.68,1.71,1.71,0,0,0,1.71,1.64Zm-3.78.26,1-.46v-3c-.3-.13-.5-.23-1-.49Zm3.78-3.05a1.12,1.12,0,1,0,1.12,1.11,1.13,1.13,0,0,0-1.12-1.11"/><path class="cls-1" d="M303.05,42.2l3,2.3,3.52-1.28-3-2.3Zm3.12,1.35-1.38-1.09c.79-.29,1.32-.46,1.68-.59L307.88,43c-.85.26-1.35.46-1.71.59"/><path class="cls-1" d="M278.22,47.82l-3.19.4a.8.8,0,0,0,.2,1.58l3.19-.4a.79.79,0,0,0,.69-.92.82.82,0,0,0-.89-.66"/><path class="cls-1" d="M300.68,40.69l-3.72-.3a.45.45,0,0,0-.49.43l-.13,1.74a.43.43,0,0,0,.43.5l3.71.26a.46.46,0,0,0,.5-.43l.13-1.74a.43.43,0,0,0-.43-.46m-.49,1.81c-.69-.07-2.27-.17-3-.23,0-.3.06-.69.06-1,.53,0,2.44.2,3,.23,0,.26,0,.69-.06,1"/><path class="cls-1" d="M307.45,48.22l-3.19-.4a.85.85,0,0,0-.92.69.78.78,0,0,0,.69.89l3.19.4a.82.82,0,0,0,.92-.69.8.8,0,0,0-.69-.89"/><path class="cls-1" d="M312.19,37h0l.69-1.39a1.92,1.92,0,0,1-1.12-1.74,2,2,0,0,1,1.94-1.94,2,2,0,0,1,.89.2L316,29.31l-3.45-1.41v2.83l-2-2.64-.78,2.24a3.93,3.93,0,0,0,.06-.59,2.71,2.71,0,0,0-2.7-2.7,2.47,2.47,0,0,0-1.38.4h0l.37-.79-2.9-4.11L299.56,26l.2.82a2.54,2.54,0,0,0-1.28-.66,2.69,2.69,0,0,0-3.09,1.78l0-.49.16-1.42-2.27.89,1.12-2.23h-.75v-.83h-4.94v.83H288l1.12,2.23L286.84,26l.16,1.42.07.49A2.75,2.75,0,0,0,284,26.15a2.7,2.7,0,0,0-1.29.66l.2-.82-3.65-3.45-2.86,4.11.36.79h0a2.81,2.81,0,0,0-1.38-.4,2.71,2.71,0,0,0-2.7,2.7,4,4,0,0,0,.07.59l-.79-2.24-2,2.64V27.9l-3.49,1.41,1.42,2.83a2,2,0,0,1,.88-.2,1.93,1.93,0,0,1,.83,3.68L270.3,37h0s-3,.89-2.77,2.57a1.64,1.64,0,0,0,1.75,1.64l0,0,.82,6a3.54,3.54,0,0,0-.75,3.1,3.62,3.62,0,0,0,4.27,2.79l.4-.1c.85-.16,1.08-.23,2.07-.39a91.73,91.73,0,0,1,15.16-1.12,88.54,88.54,0,0,1,17.55,1.58,3.59,3.59,0,0,0,4.28-2.8,3.53,3.53,0,0,0-.76-3.06l.86-6.08A1.61,1.61,0,0,0,315,39.54c.2-1.65-2.76-2.53-2.76-2.53m2.5-7.17L314,31.12a1.71,1.71,0,0,0-.39,0l-.23,0V29.31Zm-45.64,1.25c-.07,0-.17,0-.23,0s-.27,0-.4,0l-.62-1.29,1.28-.52v1.81Zm41.86-.69.92,1.38a2.73,2.73,0,0,0-1,2.1.45.45,0,0,0,0,.23c-.46,0-1.42.07-1.42.07Zm-3.59-1.94a1.48,1.48,0,0,1,1.25,1.9,1.69,1.69,0,0,0-1.31-1.11,1.66,1.66,0,0,0-1.52.85,1.5,1.5,0,0,1,1.58-1.64m-1.84,3c0-.1.07-.17.1-.27a1.31,1.31,0,0,1,.43-.52,1.18,1.18,0,0,1,.82-.3,1.32,1.32,0,0,1,1.31,1.32,1.12,1.12,0,0,1-.13.59,2.76,2.76,0,0,0,1.58-1.38L308,35.43l2.79-.23h0a4.17,4.17,0,0,1-2.63.92,3.78,3.78,0,0,1-3.78-2.67,1.06,1.06,0,0,0,1.08-1,1.19,1.19,0,0,0-.13-.7.44.44,0,0,0,.2-.32m4.44,7.2a.44.44,0,0,1-.46.33l-1.74-.3a.38.38,0,0,1-.33-.46.39.39,0,0,1,.46-.33l1.74.3a.41.41,0,0,1,.33.46M306.07,38a.4.4,0,0,1-.46.36l-1.74-.19a.4.4,0,0,1-.36-.43.4.4,0,0,1,.46-.36l1.77.19a.36.36,0,0,1,.33.43m-3-14,1.94,2.83-1.74,4.14-.53-.06.69-2.9-.65-1.44-.92,1.28.1,3-.5,0-.92-4.44Zm-2.66,7.6,3.65.36a.4.4,0,0,1,.36.43.43.43,0,0,1-.46.36l-3.68-.36a.41.41,0,0,1-.36-.46.63.63,0,0,1,.49-.33m0,4,1.22-1.51.69.07.85,1.7Zm1.75,2a.37.37,0,0,1-.43.37L300,37.79a.39.39,0,1,1,.07-.78l1.77.13a.4.4,0,0,1,.37.42M298.05,27.5a1.54,1.54,0,0,1,1.25,1.94A1.69,1.69,0,0,0,298,28.32a1.7,1.7,0,0,0-1.51.83,1.48,1.48,0,0,1,1.58-1.65m-5,.79,1.39-.43c-.17,1.52-.27,2.64-.4,3.95a9.38,9.38,0,0,1-1-.46,2.34,2.34,0,0,0,.6-1.55,2.86,2.86,0,0,0-.6-1.51m1.71,5.23.46-4,.07-.55.07.46a2.86,2.86,0,0,0,1.25,1.67,1.08,1.08,0,0,1,0-.59,1.3,1.3,0,0,1,1.54-1,1.6,1.6,0,0,1,.76.43,1.55,1.55,0,0,1,.29.59.55.55,0,0,1,0,.26.68.68,0,0,0,.16.4.9.9,0,0,0-.26.62,1.08,1.08,0,0,0,.85,1.22v0a3.8,3.8,0,0,1-4.24,1.84A4.09,4.09,0,0,1,293,32.6Zm3.56,3.78a.41.41,0,0,1-.43.4l-1.78-.1a.41.41,0,0,1-.39-.43.42.42,0,0,1,.43-.39l1.77.09a.41.41,0,0,1,.4.43m-8.52-2,1-1.61h.79l1,1.61Zm.72,1.84a.38.38,0,0,1-.39.4l-1.78,0a.37.37,0,0,1-.39-.39.38.38,0,0,1,.39-.4l1.78,0a.4.4,0,0,1,.39.39m1.78-.39,1.77,0a.41.41,0,0,1,.4.4.4.4,0,0,1-.4.39l-1.77,0a.41.41,0,0,1-.4-.4.37.37,0,0,1,.4-.39m.29-10.92-1.05,1.68a1.12,1.12,0,0,0-.33,0h-.06a1.35,1.35,0,0,0-.33,0l-1.05-1.68Zm-1.41,2.34h0a1.66,1.66,0,1,1,0,3.32h0a1.66,1.66,0,0,1,0-3.32m-1.84.16a2.22,2.22,0,0,0-.56,1.51,2.38,2.38,0,0,0,.59,1.55c-.43.2-.89.39-1,.46-.16-1.35-.26-2.43-.42-3.95l1.38.43m-4.93-.79a1.52,1.52,0,0,1,1.61,1.65,1.72,1.72,0,0,0-1.52-.83,1.74,1.74,0,0,0-1.31,1.12,1.5,1.5,0,0,1,1.22-1.94m-2,5.56a1.09,1.09,0,0,0,.86-1.22,1.17,1.17,0,0,0-.26-.62,1.12,1.12,0,0,0,.16-.4c0-.06,0-.16,0-.26a1.31,1.31,0,0,1,.3-.59,1.31,1.31,0,0,1,2.27,1.18,2.78,2.78,0,0,0,1.28-1.67l.07-.46.06.55.43,4,1.87-1a4,4,0,0,1-2.82,2.33,3.73,3.73,0,0,1-4.25-1.84Zm4.25,4.11a.44.44,0,0,1-.37.43l-1.77.1a.42.42,0,0,1,0-.83l1.78-.09a.4.4,0,0,1,.4.39m-6.09-.07L282.4,37a.4.4,0,0,1,.06.79l-1.77.13a.38.38,0,0,1-.43-.36.46.46,0,0,1,.36-.43m-1.44-1.25.88-1.7.69-.07L282,35.59Zm3.25-3.94a.41.41,0,0,1-.36.46l-3.65.36a.41.41,0,0,1-.46-.36.37.37,0,0,1,.36-.43l3.65-.36a.39.39,0,0,1,.46.33m-3.49,5.79a.37.37,0,0,1-.36.42l-1.77.2a.41.41,0,0,1-.46-.36.4.4,0,0,1,.36-.46l1.77-.2a.42.42,0,0,1,.46.4m.4-13.75,2.53,2.34L281,30.73l-.49,0,.1-3-.92-1.28L279,28l.69,2.9-.53.06-1.74-4.14Zm-4.21,4.51a1.53,1.53,0,0,1,1.61,1.64,1.64,1.64,0,0,0-1.51-.85,1.77,1.77,0,0,0-1.32,1.11,1.45,1.45,0,0,1,1.22-1.9m-.66,3.81a1.66,1.66,0,0,1-.13-.59,1.33,1.33,0,0,1,1.32-1.32,1.18,1.18,0,0,1,.82.3,1.6,1.6,0,0,1,.43.53c0,.09.06.16.09.26a1.26,1.26,0,0,0,.24.36,1.21,1.21,0,0,0-.14.69,1.09,1.09,0,0,0,1.09,1h0a3.82,3.82,0,0,1-3.78,2.66,4.17,4.17,0,0,1-2.63-.92h0l2.76.23L273,30.92a2.37,2.37,0,0,0,1.51,1.35m.63,5.92a.39.39,0,0,1-.33.46L273,39a.4.4,0,0,1-.46-.33.37.37,0,0,1,.32-.46l1.75-.3a.39.39,0,0,1,.46.33m-4.44-6.41.92-1.38L273,34.21s-1,0-1.42-.06a.57.57,0,0,0,0-.24,2.85,2.85,0,0,0-1-2.13m-.86,7.82a.38.38,0,0,1-.49-.29.42.42,0,0,1,.3-.5l1.08-.26a.44.44,0,0,1,.49.3.4.4,0,0,1-.29.49Zm41.93,10.46a2.19,2.19,0,0,1-2.6,1.68l-.76-.17a91.72,91.72,0,0,0-17.09-1.44,100,100,0,0,0-13.45.85c-1.58.2-3.09.46-4.47.76a2.21,2.21,0,0,1-1.65-.3,2.27,2.27,0,0,1-.95-1.38,2.16,2.16,0,0,1,.29-1.68,2.19,2.19,0,0,1,1.38-1,103.58,103.58,0,0,1,37.65,0,2.29,2.29,0,0,1,1.39,1,2.87,2.87,0,0,1,.26,1.71m-.66-3.75a3.85,3.85,0,0,0-.79-.26,105.76,105.76,0,0,0-38.21,0c-.23.06-.49.16-.69.23l-.69-5.36c.23-.07.66-.17,1.12-.26A98.89,98.89,0,0,1,291.21,39a96.43,96.43,0,0,1,19.4,1.71c.46.09.89.19,1.15.26Zm2.07-7a.38.38,0,0,1-.49.29l-1.09-.26a.39.39,0,0,1-.29-.49.36.36,0,0,1,.46-.3l1.12.26a.48.48,0,0,1,.29.5"/><path class="cls-1" d="M291.24,30.92a1.12,1.12,0,1,0-1.12-1.12,1.13,1.13,0,0,0,1.12,1.12"/><path class="cls-1" d="M272.93,43.22l3.52,1.28,3-2.3-3.52-1.28Zm4.77-.76c-.66.53-1.09.86-1.42,1.09l-1.64-.63c.66-.52,1.08-.82,1.38-1.08.39.13.89.33,1.68.62"/><path class="cls-1" d="M288,47.17l-3.22.09a.81.81,0,0,0,0,1.62l3.22-.1a.81.81,0,1,0,0-1.61"/><path class="cls-1" d="M297.75,47.3l-3.22-.1a.79.79,0,1,0-.06,1.58l3.22.13a.8.8,0,0,0,.82-.79.78.78,0,0,0-.76-.82"/><path class="cls-1" d="M288,41.54l3.29,1.84,3.29-1.84-3.29-1.84Zm3.29.86-1.58-.89,1.58-.89,1.58.89Z"/><path class="cls-1" d="M285.49,40.39l-3.72.3a.49.49,0,0,0-.42.49l.13,1.74a.43.43,0,0,0,.49.43l3.72-.26a.45.45,0,0,0,.42-.49L286,40.82a.48.48,0,0,0-.49-.43m-3.22,2.11a8.31,8.31,0,0,1-.07-1c.53,0,2.43-.17,3-.23,0,.29.07.72.07,1-.7.1-2.24.2-3,.27"/><path class="cls-1" d="M286.44,112.8c-.16,0-5.65.06-8.51,4.67a20.29,20.29,0,0,1-7.11,6.41l7.27,2.86a21.48,21.48,0,0,0,6-7.86,10,10,0,0,1,3.16-4.21Zm-3.29,5.69a20.53,20.53,0,0,1-5.26,7.17c-.65-.27-3.19-1.25-5-2a19.72,19.72,0,0,0,5.82-5.75c.17-.23.33-.5.53-.73,0,.56-.06,1.94-1.84,3.92a11.24,11.24,0,0,0,3-2.5c1.05-1.45,1.51-1.48,1.18-.76a8.4,8.4,0,0,1-1.61,2.47s1.38-.1,3-2.3a6.37,6.37,0,0,1,1.38-1.55,8.26,8.26,0,0,0-1.12,2"/><path class="cls-1" d="M304.46,117.43c-2.86-4.57-8.35-4.66-8.52-4.66l-.72,1.84a10,10,0,0,1,3.16,4.21,21.5,21.5,0,0,0,5.95,7.85l7.27-2.86a19.16,19.16,0,0,1-7.14-6.38m-5.23,1.06a12,12,0,0,0-1.05-2,6.37,6.37,0,0,1,1.38,1.55c1.58,2.2,3,2.3,3,2.3a8.81,8.81,0,0,1-1.61-2.47c-.33-.72.1-.69,1.18.76a11.41,11.41,0,0,0,3,2.5c-1.74-2-1.87-3.36-1.81-3.92.17.23.37.47.53.73a20,20,0,0,0,5.82,5.75l-5,2a18.77,18.77,0,0,1-5.36-7.17"/><path class="cls-1" d="M294.07,115.63s.79-1,1.41-6.68a11.81,11.81,0,0,0-1.31-5.72,5.82,5.82,0,0,0-.43-.62,1.67,1.67,0,0,0-.69-.2,1.86,1.86,0,0,0-.43.06c-.09.07.07.5.2.73a12.54,12.54,0,0,1,1.51,5.75c0,4.47-1.87,5.3-3.22,5.3-.92,0-2.4-1.68-2.4-1.68-.16-.2-.26-.33-.2-.33a2.48,2.48,0,0,0,.5,0,4.13,4.13,0,0,0,.56-.06c.16,0,.26-.46.19-.69l-.39-5.43c0-.26-.1-.3-.23-.07l-.92,4.87c-.07.26-.13.23-.17,0a13.16,13.16,0,0,1-.16-1.91,12.54,12.54,0,0,1,1.51-5.75,2,2,0,0,0,.26-.59c0-.1-.36-.2-.49-.2a1.49,1.49,0,0,0-.52.1,2.21,2.21,0,0,0-.56.76,16.57,16.57,0,0,0-1.35,5.68c0,4.57,1.94,6.35,4.37,6.35a5,5,0,0,0,1.35-.23c.23-.07.39-.13.36,0s-.2.2,0,.33.85.56,1.28.2"/><path class="cls-1" d="M292.1,102.47a.47.47,0,0,0-.46-.46h-.43a.47.47,0,0,0-.46.46,85.57,85.57,0,0,1,.36,9.44,29.23,29.23,0,0,0,1-9.44"/><path class="cls-1" d="M240.34,67.22a29.24,29.24,0,0,0,3.65,5.3c.92,1,1-.26,1-.26,2.76-12.83,7.53-20.42,7.53-20.42-2.17,4.57-6.51,19.72-6.61,22.85S248,76,248,76a2.84,2.84,0,0,0,1-1.61,4.85,4.85,0,0,1-.72.23c-1.45.5-.43-.49,1.31-1.94a2,2,0,0,0,.69-1.41,4.16,4.16,0,0,1-1.54.79c-1.48.39.16-.82,1.84-2.57a1.48,1.48,0,0,0,.4-.62,4.89,4.89,0,0,1-2.08.62c-1.51.23.27-.75,2.21-2.27a3.45,3.45,0,0,0,1.28-1.71,4,4,0,0,1-2.6,1.09c-1.51.13.26-.63,2.2-1.84a2.86,2.86,0,0,0,1.29-1.38,6.87,6.87,0,0,1-3.23.82c-1.74.06.33-.69,2.6-1.94a3.28,3.28,0,0,0,1.55-1.48,7.65,7.65,0,0,1-3.19.82c-1.74.07.26-.79,2.6-1.94s2.82-2.23,2.82-2.23a13.63,13.63,0,0,1-4.37,1.34c-1.74.1.26-.79,2.6-1.94a13.45,13.45,0,0,0,3.68-2.69,20.32,20.32,0,0,1-5.49,1.67c-1.78.07,0-.65,2.33-1.77a14.82,14.82,0,0,0,4.18-3.16c-.56.26-3.72,1.71-5.26,1.78s0-.33,2.07-1.32a14.73,14.73,0,0,0,3.95-3.12,16.72,16.72,0,0,1-4.61,1.31c-1.51.07,0-.59,2-1.57a12.81,12.81,0,0,0,3.65-2.83,16.94,16.94,0,0,1-4.5,1.61c-1.55.16-.07-.59,1.9-1.71A13.19,13.19,0,0,0,262.08,42a15.42,15.42,0,0,1-3.65,1.65c-1.29.26.1-.3,1.67-1.35a11.6,11.6,0,0,0,2.67-2.73,12.94,12.94,0,0,1-3.32,1.51c-1.15.23.09-.26,1.51-1.25A5.67,5.67,0,0,0,262.9,37s-2.14,1.55-2.34,1.06.43-2.11,1.68-3.1a4.56,4.56,0,0,0-2.17,1.58,9.35,9.35,0,0,1,.79-1.94c.3-.33-1.84,1.15-2.43,4.38,0,0-.43-2.54,0-3.39-.79.85-1.15,3-1.38,4.27-.07.37-.1,1.68-.69,1.09-.33-.33,0-4.28,0-4.28a8.42,8.42,0,0,0-1.18,3.72c-.13,2.14.29,5.2-.63,4s-.66-3.75-.82-4.34a9.53,9.53,0,0,0-.66,4.6c.36,2.3.53,4-.29,2.76s-.92-3.29-1.12-3.91a16.58,16.58,0,0,0-.1,4.93c.39,2,.36,2.93-.36,2.1-1-1.18-.86-4.11-1-4.7a11.65,11.65,0,0,0-.23,5.16c.59,2.64.42,3.29-.2,2.5-1.09-1.38-1.15-4.14-1.38-4.83a13.61,13.61,0,0,0-.33,4.41c.26,2.56,1.12,4.8.1,3.38a11.32,11.32,0,0,1-1.45-3.81,8.31,8.31,0,0,0-.16,3.81c.65,2.5,1.15,4.87,0,3.55s-1.22-3.74-1.45-4.43a10.36,10.36,0,0,0-.16,3.28c.52,2.54,1.54,5.59.39,4.28a12.65,12.65,0,0,1-1.84-4.31A19.48,19.48,0,0,0,243.7,62c.42,2.24,1.64,5.49.69,4.28a13.62,13.62,0,0,1-2.14-4.64,7.16,7.16,0,0,0,0,2.57,35,35,0,0,1,1.28,4.7c.27.85-1.54-.23-3.22-1.65"/><path class="cls-1" d="M252.24,85.77a40,40,0,0,0-1.47-4.67,8.37,8.37,0,0,1-.2-2.6A16.16,16.16,0,0,0,252.84,83c.95,1.15-.4-2.07-.92-4.31a18.93,18.93,0,0,1-.33-3.25c.26.69.82,3,2,4.24s0-1.81-.62-4.31a12.26,12.26,0,0,1,0-3.35c.27.66.46,3.12,1.61,4.4s.56-1.11-.23-3.61a9.4,9.4,0,0,1-.06-3.92,11.56,11.56,0,0,0,1.54,3.82c1.06,1.38.1-.86-.29-3.45a15.27,15.27,0,0,1,0-4.51c.26.66.49,3.45,1.58,4.8.62.76.75.1.06-2.53a13.06,13.06,0,0,1-.06-5.26c.23.59.23,3.62,1.25,4.7.72.79.69-.16.23-2.17a17.15,17.15,0,0,1-.23-5c.23.59.39,2.63,1.25,3.88s.59-.53.1-2.83a10.4,10.4,0,0,1,.36-4.7c.2.62.06,3.15,1,4.34s.36-1.85.36-4.05a8.92,8.92,0,0,1,.89-3.85s-.13,4,.23,4.34c.59.53.56-.78.59-1.15.13-1.34.36-3.51,1.08-4.44-.39.89.17,3.42.17,3.42a7.14,7.14,0,0,1,2-4.57,9.85,9.85,0,0,0-.63,2,4.34,4.34,0,0,1,2-1.74c-1.12,1.08-1.62,2.76-1.39,3.25s2.14-1.21,2.14-1.21a5.71,5.71,0,0,1-1.64,3c-1.29,1.08-2.44,1.67-1.35,1.38a11.9,11.9,0,0,0,3-1.78,10.74,10.74,0,0,1-2.36,3c-1.42,1.19-2.7,1.84-1.52,1.48A14.91,14.91,0,0,0,268,57.2a12.77,12.77,0,0,1-3.09,3.32c-1.81,1.25-3.16,2.13-1.71,1.84a15.11,15.11,0,0,0,4.14-1.91,13.14,13.14,0,0,1-3.29,3.12c-1.9,1.12-3.29,1.91-1.84,1.75a15.3,15.3,0,0,0,4.24-1.61,14.83,14.83,0,0,1-3.55,3.42c-1.87,1.11-3.35,1.64-1.91,1.48a18.14,18.14,0,0,0,4.87-2.14A14.27,14.27,0,0,1,262.14,70c-2.14,1.25-3.75,2.14-2.1,1.94a18.7,18.7,0,0,0,5.06-2.07,12.89,12.89,0,0,1-3.29,3c-2.1,1.32-4,2.34-2.33,2.14a12.1,12.1,0,0,0,4.08-1.64A6,6,0,0,1,261,75.74c-2.1,1.32-3.94,2.34-2.33,2.14a6.48,6.48,0,0,0,3-1,3.29,3.29,0,0,1-1.38,1.61c-2,1.41-3.94,2.33-2.33,2.13a5.85,5.85,0,0,0,3-1A3,3,0,0,1,259.77,81c-1.74,1.38-3.35,2.27-1.94,2a3.83,3.83,0,0,0,2.41-1.25,3.52,3.52,0,0,1-1.12,1.81c-1.75,1.64-3.36,2.76-1.94,2.43a4.39,4.39,0,0,0,1.94-.75,1.85,1.85,0,0,1-.36.65s-3,3.69-3.1,1.25S257.41,72,258.89,68.8c0,0-5.63,12.83-4.8,25.91,0,0-4.38-3.25-4.64-7.1,0,0,1,2.17,2.24,2.8s1.05.09.09-1.09a11,11,0,0,1-2.13-5.89s2.33,4.44,2.56,2.41"/><path class="cls-1" d="M248.2,84.16a17.71,17.71,0,0,0-.2-3.22c-.16.69-.39,3-1.35,4.47s-.29-1.74,0-4.31a10.36,10.36,0,0,0-.56-3.25c-.16.69,0,3.12-.95,4.57s-.76-1-.36-3.56a8.69,8.69,0,0,0-.56-3.78,12,12,0,0,1-1,4c-.85,1.51-.26-.82-.26-3.39a14,14,0,0,0-.79-4.37c-.16.69.07,3.45-.85,5-.53.85-.76.19-.47-2.47a11.45,11.45,0,0,0-.78-5.1c-.14.63.32,3.56-.56,4.8-.63.89-.73,0-.56-2.07a15.81,15.81,0,0,0-.63-4.86c-.13.62,0,2.63-.69,4s-.69-.4-.59-2.73a9.36,9.36,0,0,0-1.12-4.51c-.1.63.46,3.09-.36,4.41s-.69-1.75-1-3.85a8.29,8.29,0,0,0-1.58-3.58s.79,3.88.49,4.24c-.52.62-.69-.66-.79-1-.36-1.28-1-3.36-1.84-4.11.56.79.4,3.35.4,3.35-.92-3.12-3.22-4.34-2.9-4a9.25,9.25,0,0,1,1,1.81,4.62,4.62,0,0,0-2.33-1.32c1.34.86,2.13,2.4,2,2.89s-2.4-.78-2.4-.78a5.59,5.59,0,0,0,2.23,2.63c1.52.79,2.83,1.18,1.65,1.08a12.82,12.82,0,0,1-3.45-1.15,10.74,10.74,0,0,0,2.92,2.43c1.68.89,3.13,1.29,1.81,1.19a15.05,15.05,0,0,1-3.81-1.25,12.83,12.83,0,0,0,3.78,2.66c2.1.89,3.65,1.51,2.1,1.48a16.33,16.33,0,0,1-4.63-1.12A13.09,13.09,0,0,0,233,71.7c2.14.75,3.72,1.25,2.2,1.34a16.88,16.88,0,0,1-4.7-.78,14.24,14.24,0,0,0,4.28,2.66c2.13.75,3.75,1,2.2,1.08s-4.83-1-5.42-1.18a15,15,0,0,0,4.5,2.7c2.47.82,4.27,1.38,2.5,1.48s-5-.89-5.66-1.09a13.2,13.2,0,0,0,4,2.3c2.4.89,4.51,1.55,2.76,1.65a13.19,13.19,0,0,1-4.5-.86s.62,1,3,1.91,4.51,1.54,2.8,1.64a7.5,7.5,0,0,1-3.29-.46,3.21,3.21,0,0,0,1.71,1.32,28.55,28.55,0,0,1,4.64,2.73c1.48,1.18,1,.1.65-.66,0,0-4.6-10.1-8.45-15.88,0,0,5.76,8.35,7.21,11.47,2,4.34,2.56,6.42,3.45,6.91.59.33,1.48-2.14,1.31-5.79"/><path class="cls-1" d="M245.73,104.71c.73-.16,3.19-.46,4.67-1.51s-1.81-.33-4.5,0a11.89,11.89,0,0,1-3.42-.53c.76-.16,3.29,0,4.77-1.08s-1.06-.79-3.72-.33a8.86,8.86,0,0,1-4-.59,11.67,11.67,0,0,0,4.15-1.12c1.57-.92-.86-.23-3.56-.23a14,14,0,0,1-4.57-.79c.73-.17,3.62,0,5.2-1,.89-.59.23-.82-2.57-.46a12,12,0,0,1-5.36-.79c.63-.16,3.72.33,5-.62.92-.66,0-.79-2.17-.59a15.75,15.75,0,0,1-5.13-.6c.65-.16,2.76,0,4.17-.79s-.43-.75-2.86-.59a9.48,9.48,0,0,1-4.73-1.18c.65-.1,3.22.46,4.6-.4s-1.81-.72-4-1.08a8.57,8.57,0,0,1-3.78-1.65s4.08.79,4.48.47c.65-.56-.7-.73-1.09-.86-1.35-.36-3.52-1-4.34-1.91.82.56,3.52.4,3.52.4-3.26-1-4.61-3.39-4.28-3a9.16,9.16,0,0,0,1.94,1,4.74,4.74,0,0,1-1.41-2.46c.92,1.41,2.53,2.23,3.06,2.1S225,82,225,82a5.76,5.76,0,0,1,2.76,2.33c.89,1.61,1.29,3,1.16,1.75a14.72,14.72,0,0,0-1.25-3.69,11.58,11.58,0,0,1,2.59,3.09c1,1.78,1.39,3.29,1.25,1.91a17.12,17.12,0,0,0-1.34-4,13.78,13.78,0,0,1,2.86,4c1,2.2,1.61,3.84,1.61,2.2a19.6,19.6,0,0,0-1.22-4.93,13.56,13.56,0,0,1,2.57,4.17c.82,2.27,1.34,3.95,1.44,2.3a17.79,17.79,0,0,0-.89-5,16.35,16.35,0,0,1,2.87,4.5c.82,2.27,1.08,4,1.18,2.37s-1.09-5.13-1.32-5.79a16.12,16.12,0,0,1,2.9,4.77c.89,2.6,1.51,4.54,1.61,2.63s-1-5.26-1.22-6A14.53,14.53,0,0,1,245,92.74c1,2.57,1.74,4.8,1.77,2.93a12.91,12.91,0,0,0-1.25-5.07,7.58,7.58,0,0,1,2.34,3.52c1,2.57,2,4.64,1.87,2.76a13.53,13.53,0,0,0-.92-4.07,23.85,23.85,0,0,1,2.7,6c.36,1.67.92.62.82-.33a34.71,34.71,0,0,0-1.68-4.57s1.68.89,2.83,3.91,2,3,1.74,2.11S254,96.79,254,96.79a13.2,13.2,0,0,1,2.83,4c.75,2.07.56,2.79-.73,2.1S242.05,96.19,236,92.15c0,0,8.74,5.82,12,7.3,4.61,2.07,6.81,3.16,7.37,3.81s-2.24,1.61-6,1.48Z"/><path class="cls-1" d="M279.08,112.8c-1-.4-6.35,1.41-12.76,1.48A141.82,141.82,0,0,1,248,112.8c16.11,1.28,26-.23,26.27-1s-2-2.27-2-2.27c-3-2.5-5.43-2.5-5.43-2.5a43.43,43.43,0,0,1,4.54,3.75c.66.88.62,2.23-.76.72-2-2.24-6.48-4.64-6.48-4.64a15.22,15.22,0,0,1,3.36,3.65c1.18,1.81-1.12.27-3.72-1.84a10.28,10.28,0,0,0-4.7-2.37,15.05,15.05,0,0,1,4.34,4.51c1,1.87-1.12,0-3.72-2.07a17.68,17.68,0,0,0-5.19-3c.69.62,3.85,3.52,4.83,5.46s-.82.33-3.35-1.88a20.91,20.91,0,0,0-6-3.35c.63.53,4,3.45,4.8,5.16s-.42.1-2.66-1.77a21.5,21.5,0,0,0-5.85-3.1,21.47,21.47,0,0,1,3.91,4.61c.85,1.71-.72.26-3-1.61a18.59,18.59,0,0,0-5.36-2.9,21.48,21.48,0,0,1,4.24,4.38c1,1.64-.72.33-3.09-1.45a18.69,18.69,0,0,0-5.52-2.56,18.42,18.42,0,0,1,3.88,3.38c.95,1.35-.43,0-2.5-1.31a15.65,15.65,0,0,0-4.74-1.81,16.32,16.32,0,0,1,3.52,3.06c.89,1.21-.39,0-2.3-1.15a8.34,8.34,0,0,0-4.51-1s3,1.74,2.47,2.17-2.83.43-4.67-.56a6.26,6.26,0,0,0,3,1.78,13.47,13.47,0,0,1-2.77-.07c-.55-.19,2.34,1.58,6.61.89,0,0-2.92,1.58-4.21,1.41,1.45.53,4.28,0,6-.26.46-.1,2.11-.59,1.68.3-.23.52-5.33,1.81-5.33,1.81a12.35,12.35,0,0,0,5.23-.27c2.73-.79,6.28-2.56,5.2-1s-4.31,2.33-5,2.79a14,14,0,0,0,6.08-1.25c2.66-1.38,4.67-2.3,3.59-.89s-3.65,2.44-4.31,2.93a22,22,0,0,0,6.15-2c2.3-1.28,3.48-1.67,2.79-.52-1,1.64-4.7,2.73-5.33,3.22a16.64,16.64,0,0,0,6.55-1.94c3-1.78,3.88-1.88,3.19-.86-1.19,1.81-4.57,3.06-5.33,3.62a19.93,19.93,0,0,0,5.66-1.55c3.05-1.38,5.42-3.28,4.17-1.54s-3.29,2.7-4,3.25a11.5,11.5,0,0,0,4.83-1.44c2.76-1.84,5.49-3.39,4.41-1.55s-4.05,3-4.8,3.52a15.78,15.78,0,0,0,4.24-1.22c2.86-1.67,6.18-4.14,5.1-2.3s-3.69,3.36-4.44,3.92c0,0,5.22-1.39,7.53-3.62s.82.16,0,1a13.49,13.49,0,0,0-1.42,1.84s7.1-5.19,5.3-6.77Z"/><path class="cls-1" d="M284.6,107.21c2.53.2,1.94-1.45,1.74-3.16s-.26-2-.26-2-1.12.49-.82,3a7.3,7.3,0,0,1-1.35-2.53s-.62.1-.79,1.84c0,0-1.51-1.08-1.25-2.5a3.43,3.43,0,0,0-.92,2.83s-1.15-2.24-.82-3.39c0,0-1.12.2-1.05,2.21,0,0-1.19-2.24-.83-3.39,0,0-1,.29-.95,2.27,0,0-1-2.34-.59-3.45,0,0-1.22.09-1,2.63v0s-1.09-2.93-.6-4.37c0,0-1.15.29-1.28,2.82,0,0-.95-2.76-.42-3.81,0,0-1,.29-1.09,2.83,0,0-.92-3.85-.2-5.56,0,0-1.58-.07-1.71,4,0,0-.89-5.06-.19-7.3,0,0-1.52-.1-1.68,5.26,0,0-1.15-5.52-.66-8.28,0,0-1.22.56-1.35,5.36,0,0-.69-6.19-.1-9.15,0,0-1.25,2.11-1.61,7.37,0,0-.46-6.64.13-9.8,0,0-.95.53-1.38,6.12,0,0,.13-6.09-.56-7a19.76,19.76,0,0,1-.32,3.42,9.62,9.62,0,0,0-1.22-2.69c-.4.29.26,3,.26,3a4.13,4.13,0,0,0-1-1.15,22.4,22.4,0,0,0,.69,4.11c-.63-.23-1.15-1.18-1.15-1.18a3.68,3.68,0,0,0,.82,3.35c1.35,1.51,2.2,2.8.69,1.71s-2.34-1.61-2.4-2.3a6.31,6.31,0,0,0,2.07,3.95c1.81,1.38,3.06,2.69,1.31,1.9s-2.69-1.11-3-1.94A6.34,6.34,0,0,0,263,95.67c2.37,1,4.08,2,1.91,1.58S261.62,96.72,261,96a6,6,0,0,0,3.26,3c2.24.75,3.91,1.57,1.87,1.38s-3-.27-3.65-.92a6,6,0,0,0,3.79,2.23c2.36.26,4.14.72,2.1,1s-3.06.36-3.78-.14a5.28,5.28,0,0,0,3.52,1.71c2.07,0,3.68.27,1.94.66s-2.63.63-3.29.23a5.17,5.17,0,0,0,3.78,1c2-.4,3.68-.46,2,.26-1.09.49-1.09.72-2.11.82a7.26,7.26,0,0,0,3.55.63c1.94-.23,3.55.19,2,.66a8.36,8.36,0,0,1-2,.52,7,7,0,0,0,3.58.46c1.91-.29,3.78-.43,2.27.1a7.19,7.19,0,0,1-1.94.59,7,7,0,0,0,3.62,0c1.84-.59,3.42-.46,2,.26a7.24,7.24,0,0,1-1.88.89,7,7,0,0,0,3.56-.62s2-1.88-.33-2.4-11.35-2.34-16.64-9.18c0,0,7.36,7.5,16.34,8.19"/><path class="cls-1" d="M258.79,102.28a4.56,4.56,0,0,0,2.63,2.43c2.14.89,3.88-.1,2.93-1.32-.79-1-1.81-.19-3.26-.36a4.17,4.17,0,0,1-2.3-.75"/><path class="cls-1" d="M257.18,99.05a3.83,3.83,0,0,0,2.27,2.17c1.9.86,3.48.1,2.69-1-.66-.89-1.61-.26-2.89-.46a4.62,4.62,0,0,1-2.07-.76"/><path class="cls-1" d="M256.12,96.32a3.39,3.39,0,0,0,2.08,1.85c1.67.72,3.12.09,2.4-.79s-1.45-.23-2.6-.4a4.1,4.1,0,0,1-1.88-.66"/><path class="cls-1" d="M256,93.92a2.82,2.82,0,0,0,1.61,1.55c1.35.62,2.5.13,1.94-.66-.46-.62-1.15-.2-2.1-.36a2.72,2.72,0,0,1-1.45-.53"/><path class="cls-1" d="M255.73,91.79A2.27,2.27,0,0,0,257,93.1c1.05.53,2,.1,1.55-.52s-.92-.2-1.68-.33a2.25,2.25,0,0,1-1.15-.46"/><path class="cls-1" d="M255.37,89.58A2.31,2.31,0,0,0,256.59,91c1.05.6,2,.24,1.57-.46-.33-.55-.92-.23-1.64-.39a2.63,2.63,0,0,1-1.15-.53"/><path class="cls-1" d="M342,67.22a28.64,28.64,0,0,1-3.65,5.3c-.92,1-1-.26-1-.26-2.77-12.83-7.53-20.42-7.53-20.42,2.17,4.57,6.54,19.72,6.61,22.85S334.32,76,334.32,76a2.79,2.79,0,0,1-1-1.61,4.85,4.85,0,0,0,.72.23c1.42.5.43-.49-1.31-1.94a1.91,1.91,0,0,1-.66-1.41,4,4,0,0,0,1.54.79c1.48.39-.16-.82-1.87-2.57a1.38,1.38,0,0,1-.39-.62,4.8,4.8,0,0,0,2.07.62c1.51.23-.27-.75-2.21-2.27a3.67,3.67,0,0,1-1.31-1.71,4,4,0,0,0,2.63,1.09c1.51.13-.26-.63-2.2-1.84A2.86,2.86,0,0,1,329,63.38a6.87,6.87,0,0,0,3.23.82c1.74.06-.33-.69-2.6-1.94a3.28,3.28,0,0,1-1.55-1.48,7.65,7.65,0,0,0,3.19.82c1.75.07-.26-.79-2.59-1.94s-2.83-2.23-2.83-2.23a13.72,13.72,0,0,0,4.37,1.34c1.74.1-.26-.79-2.56-1.94A13.41,13.41,0,0,1,324,54.14a20,20,0,0,0,5.49,1.67c1.78.07,0-.65-2.33-1.77A14.31,14.31,0,0,1,323,50.88c.56.26,3.72,1.71,5.26,1.78s0-.33-2.1-1.32a15.32,15.32,0,0,1-3.95-3.12,16.3,16.3,0,0,0,4.61,1.31c1.54.07,0-.59-2-1.57a13.19,13.19,0,0,1-3.68-2.83,16.94,16.94,0,0,0,4.5,1.61c1.55.16.07-.59-1.91-1.71A13.26,13.26,0,0,1,320.21,42a15.42,15.42,0,0,0,3.65,1.65c1.28.26-.1-.3-1.68-1.35a11,11,0,0,1-2.66-2.73,12.66,12.66,0,0,0,3.29,1.51c1.15.23-.1-.26-1.51-1.25A5.6,5.6,0,0,1,319.36,37s2.13,1.55,2.33,1.06-.43-2.11-1.68-3.1a4.51,4.51,0,0,1,2.17,1.58,9.79,9.79,0,0,0-.78-1.94c-.3-.33,1.84,1.15,2.43,4.38,0,0,.43-2.54,0-3.39.78.85,1.15,3,1.38,4.27.06.37.1,1.68.69,1.09.33-.33,0-4.28,0-4.28A8.49,8.49,0,0,1,327,40.36c.1,2.14-.3,5.2.62,4s.66-3.75.83-4.34a9.58,9.58,0,0,1,.65,4.6c-.36,2.3-.56,4,.27,2.76s.92-3.29,1.11-3.91a16.21,16.21,0,0,1,.1,4.93c-.39,2-.36,2.93.36,2.1,1-1.18.86-4.11,1.06-4.7a11.65,11.65,0,0,1,.23,5.16c-.6,2.64-.43,3.29.19,2.5,1.09-1.38,1.15-4.14,1.38-4.83a14.14,14.14,0,0,1,.3,4.41c-.26,2.56-1.12,4.8-.1,3.38a11.1,11.1,0,0,0,1.42-3.81,8.31,8.31,0,0,1,.16,3.81c-.69,2.5-1.15,4.87,0,3.55s1.21-3.74,1.44-4.43a11.28,11.28,0,0,1,.2,3.28c-.56,2.54-1.54,5.59-.43,4.28a12.71,12.71,0,0,0,1.85-4.31,16.45,16.45,0,0,1-.17,3.22c-.43,2.24-1.64,5.49-.69,4.28a14.44,14.44,0,0,0,2.14-4.64,8,8,0,0,1,0,2.57,34.51,34.51,0,0,0-1.29,4.7c-.06.85,1.75-.23,3.42-1.65"/><path class="cls-1" d="M330.14,85.77a41.4,41.4,0,0,1,1.48-4.67,8.37,8.37,0,0,0,.2-2.6A16.16,16.16,0,0,1,329.55,83c-.95,1.15.39-2.07.92-4.31a18.93,18.93,0,0,0,.33-3.25c-.26.69-.82,3-2,4.24s0-1.81.65-4.31a11.71,11.71,0,0,0,0-3.35c-.23.66-.46,3.12-1.61,4.4s-.56-1.11.23-3.61a9.29,9.29,0,0,0,.07-3.92,11,11,0,0,1-1.58,3.82c-1,1.38-.1-.86.3-3.45a15.06,15.06,0,0,0,0-4.51c-.26.66-.46,3.45-1.57,4.8-.63.76-.76.1,0-2.53a13,13,0,0,0,.07-5.26c-.23.59-.23,3.62-1.28,4.7-.73.79-.66-.16-.2-2.17a17,17,0,0,0,.2-5c-.23.59-.4,2.63-1.29,3.88s-.59-.53-.1-2.83a9.8,9.8,0,0,0-.36-4.7c-.19.62-.06,3.15-1,4.34s-.36-1.85-.36-4.05a8.92,8.92,0,0,0-.89-3.85s.1,4-.23,4.34c-.59.53-.52-.78-.59-1.15-.13-1.34-.36-3.51-1.08-4.44.39.89-.17,3.42-.17,3.42a7.14,7.14,0,0,0-2-4.57,10.35,10.35,0,0,1,.66,2,4.5,4.5,0,0,0-2-1.74c1.12,1.08,1.61,2.76,1.38,3.25s-2.14-1.21-2.14-1.21a5.59,5.59,0,0,0,1.68,3c1.28,1.08,2.43,1.67,1.35,1.38a11.81,11.81,0,0,1-3-1.78,10.91,10.91,0,0,0,2.34,3c1.44,1.19,2.69,1.84,1.51,1.48a14.8,14.8,0,0,1-3.35-1.9,12.77,12.77,0,0,0,3.09,3.32c1.81,1.25,3.15,2.13,1.71,1.84A15.65,15.65,0,0,1,315,60.45a13.35,13.35,0,0,0,3.29,3.12c1.88,1.12,3.29,1.91,1.81,1.75a16,16,0,0,1-4.27-1.61,14.83,14.83,0,0,0,3.55,3.42c1.87,1.11,3.35,1.64,1.9,1.48a18.05,18.05,0,0,1-4.86-2.14A14.27,14.27,0,0,0,320.15,70c2.17,1.25,3.74,2.14,2.1,1.94s-4.47-1.74-5.1-2.07a12.94,12.94,0,0,0,3.32,3c2.11,1.32,3.95,2.34,2.34,2.14a11.9,11.9,0,0,1-4.05-1.64,6,6,0,0,0,2.54,2.43c2.1,1.32,3.94,2.34,2.33,2.14a6.47,6.47,0,0,1-3-1,3.29,3.29,0,0,0,1.38,1.61c2,1.41,3.95,2.33,2.34,2.13a5.94,5.94,0,0,1-3-1A2.9,2.9,0,0,0,322.58,81c1.74,1.38,3.35,2.27,1.94,2a3.82,3.82,0,0,1-2.4-1.25,3.43,3.43,0,0,0,1.12,1.81c1.71,1.64,3.35,2.76,1.94,2.43a4.43,4.43,0,0,1-1.94-.75,1.67,1.67,0,0,0,.36.65s3,3.69,3.09,1.25S325,72,323.47,68.8c0,0,5.62,12.83,4.8,25.91,0,0,4.37-3.25,4.63-7.1,0,0-1,2.17-2.23,2.8s-1.05.09-.1-1.09,2.24-4,2.1-5.89c0,0-2.33,4.44-2.56,2.41"/><path class="cls-1" d="M336.65,104.71c-.72-.16-3.19-.46-4.67-1.51s1.81-.33,4.51,0a12,12,0,0,0,3.42-.53c-.76-.16-3.29,0-4.77-1.08s1.05-.79,3.72-.33a8.84,8.84,0,0,0,4-.59,11.53,11.53,0,0,1-4.14-1.12c-1.58-.92.86-.23,3.55-.23a14,14,0,0,0,4.57-.79c-.72-.17-3.61,0-5.19-1-.89-.59-.2-.82,2.56-.46a12,12,0,0,0,5.36-.79c-.66-.16-3.71.33-5-.62-.95-.66,0-.79,2.17-.59a15.75,15.75,0,0,0,5.13-.6c-.66-.16-2.76,0-4.17-.79s.42-.75,2.86-.59a9.48,9.48,0,0,0,4.73-1.18c-.66-.1-3.22.46-4.6-.4s1.81-.72,4-1.08a8.51,8.51,0,0,0,3.75-1.65s-4.08.79-4.47.47c-.66-.56.72-.73,1.08-.86,1.35-.36,3.52-1,4.31-1.91-.82.56-3.52.4-3.52.4,3.26-1,4.61-3.39,4.28-3a9.89,9.89,0,0,1-1.91,1,4.74,4.74,0,0,0,1.41-2.46c-.92,1.41-2.53,2.23-3.05,2.1s.88-2.56.88-2.56a5.8,5.8,0,0,0-2.76,2.33c-.89,1.61-1.28,3-1.15,1.75a14.32,14.32,0,0,1,1.25-3.69,11.72,11.72,0,0,0-2.6,3.09c-.92,1.78-1.38,3.29-1.25,1.91a14.7,14.7,0,0,1,1.35-4,13.58,13.58,0,0,0-2.86,4c-1,2.2-1.61,3.84-1.58,2.2a18.38,18.38,0,0,1,1.22-4.93,14,14,0,0,0-2.6,4.17c-.82,2.27-1.35,3.95-1.45,2.3a18.55,18.55,0,0,1,.89-5,16.17,16.17,0,0,0-2.86,4.5c-.82,2.27-1.08,4-1.15,2.37s1.09-5.13,1.32-5.79a16.12,16.12,0,0,0-2.9,4.77c-.89,2.6-1.51,4.54-1.61,2.63a20.8,20.8,0,0,1,1.22-6,14.53,14.53,0,0,0-2.47,4.18c-.95,2.57-1.71,4.8-1.77,2.93a12.91,12.91,0,0,1,1.25-5.07,7.58,7.58,0,0,0-2.34,3.52c-.95,2.57-1.94,4.64-1.87,2.76a13.53,13.53,0,0,1,.92-4.07,23.85,23.85,0,0,0-2.7,6c-.36,1.67-.92.62-.82-.33a34.71,34.71,0,0,1,1.68-4.57s-1.68.89-2.83,3.91-2,3-1.74,2.11,1.18-3.09,1.18-3.09a13.2,13.2,0,0,0-2.83,4c-.75,2.07-.56,2.79.72,2.1s14.08-6.71,20.19-10.75c0,0-8.74,5.82-12,7.3-4.6,2.07-6.84,3.16-7.37,3.81s2.24,1.61,6,1.48Z"/><path class="cls-1" d="M303.28,112.8c1-.4,6.34,1.41,12.76,1.48a141.82,141.82,0,0,0,18.28-1.48c-16.11,1.28-26-.23-26.27-1s2-2.27,2-2.27c3-2.5,5.46-2.5,5.46-2.5a42.41,42.41,0,0,0-4.54,3.75c-.66.88-.63,2.23.76.72,2-2.24,6.47-4.64,6.47-4.64a16.05,16.05,0,0,0-3.35,3.65c-1.18,1.81,1.12.27,3.71-1.84a10.31,10.31,0,0,1,4.67-2.37,15.94,15.94,0,0,0-4.34,4.51c-1,1.87,1.12,0,3.69-2.07a17.68,17.68,0,0,1,5.19-3c-.69.62-3.85,3.52-4.83,5.46s.82.33,3.32-1.88a20.91,20.91,0,0,1,6-3.35c-.63.53-3.95,3.45-4.8,5.16s.46.1,2.66-1.77a21.5,21.5,0,0,1,5.85-3.1,21.19,21.19,0,0,0-3.91,4.61c-.86,1.71.72.26,3-1.61a18.46,18.46,0,0,1,5.36-2.9,21.48,21.48,0,0,0-4.24,4.38c-1,1.64.72.33,3.09-1.45a18.57,18.57,0,0,1,5.52-2.56,19.17,19.17,0,0,0-3.85,3.38c-.95,1.35.43,0,2.5-1.31a15.27,15.27,0,0,1,4.74-1.81,17.09,17.09,0,0,0-3.55,3.06c-.86,1.21.39,0,2.3-1.15a8.31,8.31,0,0,1,4.5-1s-3,1.74-2.46,2.17,2.83.43,4.7-.56a6.26,6.26,0,0,1-3,1.78,13.78,13.78,0,0,0,2.8-.07c.56-.19-2.34,1.58-6.61.89,0,0,2.93,1.58,4.21,1.41-1.41.53-4.28,0-6-.26-.46-.1-2.1-.59-1.68.3.23.52,5.33,1.81,5.33,1.81a12.15,12.15,0,0,1-5.19-.27c-2.73-.79-6.28-2.56-5.2-1s4.31,2.33,5,2.79a13.86,13.86,0,0,1-6.05-1.25c-2.66-1.38-4.67-2.3-3.59-.89s3.65,2.44,4.31,2.93a22,22,0,0,1-6.15-2c-2.3-1.28-3.48-1.67-2.79-.52,1,1.64,4.7,2.73,5.33,3.22a16.64,16.64,0,0,1-6.55-1.94c-3-1.78-3.88-1.88-3.19-.86,1.19,1.81,4.57,3.06,5.3,3.62a19.93,19.93,0,0,1-5.66-1.55c-3.06-1.38-5.43-3.28-4.18-1.54s3.33,2.7,4.05,3.25a11.61,11.61,0,0,1-4.83-1.44c-2.77-1.84-5.5-3.39-4.41-1.55s4.08,3,4.8,3.52a15.39,15.39,0,0,1-4.21-1.22c-2.86-1.67-6.18-4.14-5.1-2.3s3.72,3.36,4.44,3.92c0,0-5.22-1.39-7.53-3.62s-.82.16,0,1a13.49,13.49,0,0,1,1.42,1.84s-7.17-5.19-5.36-6.77Z"/><path class="cls-1" d="M297.79,107.21c-2.54.2-1.94-1.45-1.75-3.16s.23-2,.23-2,1.12.49.79,3a7.3,7.3,0,0,0,1.35-2.53s.66.1.79,1.84c0,0,1.51-1.08,1.25-2.5a3.43,3.43,0,0,1,.92,2.83s1.15-2.24.82-3.39c0,0,1.12.2,1.09,2.21,0,0,1.15-2.24.82-3.39,0,0,1,.29.95,2.27,0,0,1-2.34.6-3.45,0,0,1.24.09,1.05,2.63v0s1.05-2.93.59-4.37c0,0,1.12.29,1.28,2.82,0,0,1-2.76.4-3.81,0,0,1,.29,1.08,2.83,0,0,.92-3.85.2-5.56,0,0,1.58-.07,1.71,4,0,0,.89-5.06.2-7.3,0,0,1.51-.1,1.64,5.26,0,0,1.15-5.52.66-8.28,0,0,1.21.56,1.38,5.36,0,0,.66-6.19.1-9.15,0,0,1.25,2.11,1.61,7.37,0,0,.43-6.64-.13-9.8,0,0,.92.53,1.38,6.12,0,0-.13-6.09.56-7a19.18,19.18,0,0,0,.33,3.42,8.62,8.62,0,0,1,1.21-2.69c.4.29-.26,3-.26,3a4.11,4.11,0,0,1,1-1.15,23.33,23.33,0,0,1-.69,4.11c.62-.23,1.15-1.18,1.15-1.18a3.7,3.7,0,0,1-.83,3.35c-1.38,1.51-2.2,2.8-.69,1.71s2.34-1.61,2.4-2.3a6.31,6.31,0,0,1-2.07,3.95c-1.81,1.38-3.06,2.69-1.28,1.9s2.66-1.11,3-1.94a6.3,6.3,0,0,1-3.25,3.36c-2.37,1-4,2-1.91,1.58s3.26-.53,3.85-1.29a6,6,0,0,1-3.26,3c-2.23.75-3.91,1.57-1.87,1.38s3.06-.27,3.65-.92a6,6,0,0,1-3.81,2.23c-2.37.26-4.15.72-2.11,1s3.06.36,3.78-.14a5.25,5.25,0,0,1-3.52,1.71c-2.07,0-3.68.27-1.94.66s2.63.63,3.29.23a5.17,5.17,0,0,1-3.78,1c-2-.4-3.68-.46-2,.26,1.09.49,1.09.72,2.11.82a7.26,7.26,0,0,1-3.55.63c-1.94-.23-3.56.19-2,.66a8.75,8.75,0,0,0,2,.52,7,7,0,0,1-3.58.46c-1.94-.29-3.78-.43-2.27.1a7.06,7.06,0,0,0,2,.59,6.94,6.94,0,0,1-3.61,0c-1.85-.59-3.39-.46-2,.26a7.69,7.69,0,0,0,1.84.89,7,7,0,0,1-3.55-.62s-2-1.88.33-2.4S308.74,105.86,314,99c.1,0-7.3,7.5-16.24,8.19"/><path class="cls-1" d="M323.57,102.28a4.6,4.6,0,0,1-2.63,2.43c-2.14.89-3.88-.1-2.93-1.32.79-1,1.81-.19,3.25-.36a4.13,4.13,0,0,0,2.31-.75"/><path class="cls-1" d="M325.18,99.05a3.83,3.83,0,0,1-2.27,2.17c-1.88.86-3.49.1-2.67-1,.66-.89,1.62-.26,2.9-.46a4.68,4.68,0,0,0,2-.76"/><path class="cls-1" d="M326.23,96.32a3.38,3.38,0,0,1-2,1.85c-1.71.72-3.12.09-2.4-.79s1.45-.23,2.63-.4a4,4,0,0,0,1.81-.66"/><path class="cls-1" d="M326.43,93.92a2.86,2.86,0,0,1-1.61,1.55c-1.35.62-2.54.13-1.94-.66.46-.62,1.15-.2,2.07-.36a2.9,2.9,0,0,0,1.48-.53"/><path class="cls-1" d="M326.62,91.79a2.23,2.23,0,0,1-1.28,1.31c-1.08.53-2,.1-1.54-.52s.92-.2,1.67-.33a2.25,2.25,0,0,0,1.15-.46"/><path class="cls-1" d="M327,89.58A2.36,2.36,0,0,1,325.8,91c-1.05.6-2,.24-1.58-.46.33-.55.92-.23,1.65-.39a2.63,2.63,0,0,0,1.15-.53"/><path class="cls-1" d="M236.3,54.93c.52-.2.85-.56.75-.86s-.62-.36-1.11-.16-.86.56-.76.85.59.36,1.12.17"/><path class="cls-1" d="M237.05,57c.79-.3,1.29-.86,1.12-1.25s-.92-.53-1.68-.23-1.28.85-1.15,1.24.92.5,1.71.24"/><path class="cls-1" d="M238.07,59.73c1.15-.43,1.91-1.29,1.68-1.91s-1.35-.79-2.53-.36-1.94,1.28-1.71,1.91,1.38.78,2.56.36"/><path class="cls-1" d="M239,62.26c-.52.2-.85.59-.75.85s.59.33,1.12.17.85-.56.75-.86-.59-.33-1.12-.16"/><path class="cls-1" d="M238.24,60.25c-.79.27-1.29.86-1.12,1.25s.92.53,1.68.23,1.28-.85,1.11-1.25-.88-.52-1.67-.23"/><path class="cls-1" d="M240.77,66.67c.2,0,.1-.73-.2-1.55s-.69-1.41-.89-1.38-.09.75.2,1.54.69,1.45.89,1.39"/><path class="cls-1" d="M334.19,84.16a18.1,18.1,0,0,1,.19-3.22c.17.69.4,3,1.35,4.47s.33-1.74.07-4.31a10.76,10.76,0,0,1,.52-3.25c.17.69,0,3.12,1,4.57s.75-1,.36-3.56a8.51,8.51,0,0,1,.59-3.78,10.62,10.62,0,0,0,1,4c.86,1.51.23-.82.26-3.39a14.35,14.35,0,0,1,.79-4.37c.17.69-.06,3.45.86,5,.52.85.75.19.46-2.47a11.38,11.38,0,0,1,.79-5.1c.13.63-.33,3.56.52,4.8.63.89.73,0,.59-2.07a15.81,15.81,0,0,1,.63-4.86c.13.62,0,2.63.69,4s.69-.4.56-2.73a9.22,9.22,0,0,1,1.15-4.51c.1.63-.46,3.09.33,4.41s.69-1.75,1.05-3.85a8.29,8.29,0,0,1,1.58-3.58s-.79,3.88-.49,4.24c.52.62.69-.66.79-1,.36-1.28.95-3.36,1.84-4.11-.56.79-.4,3.35-.4,3.35.92-3.12,3.22-4.34,2.9-4a9.25,9.25,0,0,0-1,1.81,4.62,4.62,0,0,1,2.33-1.32c-1.34.86-2.13,2.4-2,2.89s2.43-.78,2.43-.78a5.8,5.8,0,0,1-2.23,2.63c-1.55.79-2.83,1.18-1.65,1.08a12.82,12.82,0,0,0,3.45-1.15,10.74,10.74,0,0,1-2.92,2.43c-1.68.89-3.13,1.29-1.81,1.19a14.64,14.64,0,0,0,3.81-1.25,12.83,12.83,0,0,1-3.78,2.66c-2.07.89-3.62,1.51-2.1,1.48a16.42,16.42,0,0,0,4.63-1.12,13.09,13.09,0,0,1-3.94,2.44c-2.14.75-3.72,1.25-2.21,1.34a16.9,16.9,0,0,0,4.71-.78,14.4,14.4,0,0,1-4.24,2.66c-2.14.75-3.79,1-2.24,1.08s4.83-1,5.42-1.18a15,15,0,0,1-4.5,2.7c-2.47.82-4.24,1.38-2.5,1.48s5-.89,5.66-1.09a12.79,12.79,0,0,1-4,2.3c-2.4.89-4.5,1.55-2.76,1.65a13.19,13.19,0,0,0,4.5-.86s-.62,1-3,1.91-4.51,1.54-2.77,1.64a7.47,7.47,0,0,0,3.29-.46,3.21,3.21,0,0,1-1.68,1.32,29.78,29.78,0,0,0-4.66,2.73c-1.48,1.18-1,.1-.66-.66,0,0,4.6-10.1,8.45-15.88,0,0-5.76,8.35-7.2,11.47-2,4.34-2.57,6.42-3.46,6.91-.59.33-1.48-2.14-1.31-5.79"/><path class="cls-1" d="M346.06,54.93c-.53-.2-.86-.56-.76-.86s.59-.36,1.12-.16.85.56.75.85-.59.36-1.11.17"/><path class="cls-1" d="M345.33,57c-.79-.3-1.28-.86-1.11-1.25s.92-.53,1.67-.23,1.28.85,1.12,1.24-.92.5-1.68.24"/><path class="cls-1" d="M344.31,59.73c-1.18-.43-1.94-1.29-1.71-1.91s1.35-.79,2.5-.36,1.94,1.28,1.71,1.91-1.35.78-2.5.36"/><path class="cls-1" d="M343.36,62.26c.53.2.86.59.76.85s-.6.33-1.12.17-.86-.56-.76-.86.63-.33,1.12-.16"/><path class="cls-1" d="M344.12,60.25c.79.27,1.28.86,1.11,1.25s-.92.53-1.67.23-1.28-.85-1.12-1.25.89-.52,1.68-.23"/><path class="cls-1" d="M341.62,66.67c-.2,0-.1-.73.2-1.55s.69-1.41.88-1.38.1.75-.19,1.54-.73,1.45-.89,1.39"/><path class="cls-1" d="M275.06,62.29a5.25,5.25,0,1,0,5.23,5.26,5.23,5.23,0,0,0-5.23-5.26m4.35,4.8h-1.65l-.26-1.51a12.41,12.41,0,0,0,1.25-.36,4.2,4.2,0,0,1,.66,1.87m-1.29-2.66a7.4,7.4,0,0,1-.92.26,10,10,0,0,0-.72-1.31,5,5,0,0,1,1.64,1.05m-4.83,2.66a5.48,5.48,0,0,1,.26-1.35,11.21,11.21,0,0,0,1.55.1,11.07,11.07,0,0,0,1.54-.1,6.73,6.73,0,0,1,.27,1.35Zm3.58.89a5.48,5.48,0,0,1-.26,1.35,12,12,0,0,0-3.09,0,6.08,6.08,0,0,1-.26-1.35Zm-1.77-4.8a4.19,4.19,0,0,1,1.21,1.71,6.79,6.79,0,0,1-1.21.07c-.43,0-.82,0-1.25-.07a4.17,4.17,0,0,1,1.25-1.71m-1.45.23a8.06,8.06,0,0,0-.72,1.32,7.65,7.65,0,0,1-.92-.27,4.43,4.43,0,0,1,1.64-1m-2.27,1.81c.4.13.82.26,1.25.36a7.57,7.57,0,0,0-.26,1.51h-1.65a5.09,5.09,0,0,1,.66-1.87M270.76,68h1.64a7.1,7.1,0,0,0,.26,1.51,8.94,8.94,0,0,0-1.25.36,4.15,4.15,0,0,1-.65-1.87M272,70.64c.29-.09.62-.19.92-.26a8,8,0,0,0,.72,1.28,4.76,4.76,0,0,1-1.64-1m3.09,1.25a4.25,4.25,0,0,1-1.25-1.67,7.19,7.19,0,0,1,1.25-.1,6.74,6.74,0,0,1,1.21.1,4.61,4.61,0,0,1-1.21,1.67m1.38-.23a8,8,0,0,0,.72-1.28c.33.07.63.17.92.26a4.5,4.5,0,0,1-1.64,1m2.27-1.81c-.4-.13-.82-.26-1.25-.36a7.45,7.45,0,0,0,.26-1.51h1.65a4.29,4.29,0,0,1-.66,1.87"/><path class="cls-1" d="M293.15,55.52a.4.4,0,0,1-.49-.33L292.39,54a.44.44,0,0,1,.33-.49l1.22-.23a.39.39,0,0,1,.49.33l.27,1.21a.4.4,0,0,1-.33.5Z"/><polygon class="cls-1" points="286.44 65.35 286.7 64.43 287.17 64.72 286.44 65.35"/><path class="cls-1" d="M308.41,66.27a5.21,5.21,0,0,0-2.34-4.77,4.59,4.59,0,0,0-1.61-.69c.36-1.28-1.08-1.54-1.08-1.54.19,1.34-.76,1.48-1.38,1.71a5.22,5.22,0,0,0-3.06,7c1.15,2.83,2.46,6,2.23,7.14-.16.95-.88.65-.79.06s.27-1.77-.42-2.3c0,0-.07,1.41-1.09.82-.66-.39.13-1.51.07-3.19a1.26,1.26,0,0,0-1.55-1.31c1.12,1.25-.06,1.48-.16,4.07-.1,2.27,1.74,2,2.27,4.28s-1.38,1.77-1.38,1.77a3.23,3.23,0,0,0-.6-1.54c-.56-.79-3-1.51-4.93-3.06s-1.54-2.1-1.41-3.19-1.29-1.64-1.71-2-.27-.36-.27-.36c1,.46,2.8.39,2.86-.86,0,0-1.84-.06-1-1.31.13-.23,1.18.19,1.41-.69,0,0-.69-.07-.49-.66.13-.43,1.94.33,2.1-1.25,0,0-.79.06-1-.4s-.19-.78.23-1.41a6.49,6.49,0,0,0,1.09-1.91,4.07,4.07,0,0,0,0-1.11h0l1.18-1.78a1,1,0,0,0-.26-1.32L291,53.68a1,1,0,0,0-1.32.26l-1.18,1.78h0a3.15,3.15,0,0,0-1,.42c-.65.5-.85,2-1.51,2.44-1.54,1.05-1.77.19-1.77.19-.37.2-.2,1.06-.6,1.32a.93.93,0,0,1-1.34-.43c-.66.36,0,2,.26,2.2a2.06,2.06,0,0,0-1.61,1.48s.89-.16,1.12.4-.63,1-.63,1a1.58,1.58,0,0,1,.66.23c.36.23,0,.59,0,.59a14.58,14.58,0,0,1-3-2.76c-1.38-1.58-2.17-1.38-3.22-1.61a3.43,3.43,0,0,0-2,.19c-.49.1-.92-.16-1.34.14s.06,1.48.06,1.48l1.84-.4,3.39,1,.95,1.12,1.12,3.36-.39,1.61-1.35,1.67-3.09,1.16-2.07-.3-1.32-.72c-.82,2.89.92,3.19.92,3.19a1.08,1.08,0,0,1,.89-1A1.52,1.52,0,0,0,274.6,75a1,1,0,0,1,.79-.89,1.35,1.35,0,0,0,1,1.18,1,1,0,0,1,.72-.82,1.25,1.25,0,0,0,.89,1.09.85.85,0,0,1,.66-.73.93.93,0,0,0,.85.86.66.66,0,0,1,.6-.63.91.91,0,0,0,1,.79c-.2-.75.69-1.28,1.38-1.21s.3.59-.16.72l.2.43c1.18,2.27,3,2.36,5.29,2.86s5,1.77,5,2.27l.16-.89c.36.59,1.05,5.06,3.06,6.21.79.46,1.67.17,1.81.76s-.5.82-1.85,1.15S294.07,89.26,294,90a7.91,7.91,0,0,0,1.09,2.4l4.9.2a6.82,6.82,0,0,0-.66-.23c-.1-.29-.26-.69-.39-1.18-.27-.92,1.18-1.42,1.51-1.71s.07-1.19.36-1.81.95-1.55.36-2.4a6.32,6.32,0,0,1-1-1.68c-.2-.56.13-1.08-.4-1.18s-.72,0-.69-.53,1.22-.82,1.65-1.61a8,8,0,0,1,1.61-2.5c.62-.43.85-.49.69-.92s-.73-.29-.73-.29c.66-3-.26-3.62-2-7.8s.49-5.75,2-6.28a2,2,0,0,1,2.57,1.32.58.58,0,0,0,.26-.3.56.56,0,0,0,.1-.36,3.5,3.5,0,0,1,1.28,2.76c.13,1.42-1,1.45-1.41,1.22-.63-.36-.46-1.32-.46-1.32-1.55,0-1.48,1.88-1.48,1.88-.53.19-1-.56-1-.56-.49,2.1,1.75,3,1.75,3a5.57,5.57,0,0,0-.76,2.53c-.17,2.27,2,3.59,2.89,3.19,0,0-1.12-1.35-.89-2.07a5.16,5.16,0,0,1,1-1.45,1.38,1.38,0,0,0,.36-.75c2.4,1.31,3.49-.66,3.49-.66-2.08-.16-1.71-2.4-1.58-4.67M279,71a5.64,5.64,0,0,0,1.15-2.21,2.38,2.38,0,0,1,1.05,2.3A2.92,2.92,0,0,0,279,71m11.08-9,.1-.82a1.87,1.87,0,0,1,1.48,1.25s-1.12-.63-1.58-.43m2.86-5.19a1.15,1.15,0,0,1,1.48.62,1.13,1.13,0,0,1-.4,1.35,1.08,1.08,0,0,0,0-.79,1,1,0,0,0-1.38-.59,2.48,2.48,0,0,0-.36.23,1,1,0,0,1,.66-.82m-2.53-2A1.11,1.11,0,0,1,291.54,56a1.21,1.21,0,0,1-.49,1,.68.68,0,0,0,.06-.43,1,1,0,0,0-1.81-.72,1.08,1.08,0,0,1,1.09-.89m1.28,3.36a.52.52,0,0,1-.72.13.57.57,0,0,1-.17-.72.58.58,0,0,1,.76-.17.57.57,0,0,1,.13.76m-3.88-1.32,5.75,3.78-.13.23-5.75-3.74Zm.07,8.16-.69,1a.65.65,0,0,1-.89,0l-.4,0-.23-.36a.67.67,0,0,1-.33-.82L286,63.9a1.14,1.14,0,0,1-.78-1.28.13.13,0,0,1,0-.1,1.22,1.22,0,0,0,1,1,1.41,1.41,0,0,0,1.12-.23l-.89-.56,1.55-2c0-.5-1-1.29-1-1.29a1.87,1.87,0,0,1,1.71.89L287,62.62l1.71,1.12,0,.43-.79-.53a1.28,1.28,0,0,0,.23,1.12,1.17,1.17,0,0,0,1.28.52l-.07.07a1.28,1.28,0,0,1-1.44-.26"/><path class="cls-1" d="M300,92.58c.92-.86,3-.79,4.84.23s3.05,2.89,2.3,4-3,1.12-5,0c0,0-.07,0-.1-.07s0,0,0,.07c-.76,1.12-3,1.12-5,0,0,0-.06,0-.06-.07s0,0,0,.07c-.76,1.12-3,1.12-5,0l-.1-.07s0,0,0,.07c-.76,1.12-3,1.12-5,0l-.1-.07s0,0,0,.07c-.76,1.12-3,1.12-5,0a.11.11,0,0,1-.07,0,.09.09,0,0,0,0,.06c-.76,1.12-3,1.12-5,0s-3.06-2.89-2.3-4,3-1.09,5,0a0,0,0,0,0,.09,0,2.63,2.63,0,0,1,2.54-.79c-.46-.89-1.06-2.34-.79-3.06.36-1,2.23-1.35,3.32-1.12s1.58.89,2.1,1a1.13,1.13,0,0,0,1.45-.59,4.47,4.47,0,0,0,.46-1.12s-3.49-.46-3.06-3.35c.33-2.2,3.06-3.75,6.08-2.93a2.23,2.23,0,0,1,1.81,2.57s-1,.06-1.18.56c-.33.85.92,1.31.92,1.31-.92.63-.43.66-1.05,1.19a1.08,1.08,0,0,0-.46,1.25c.06.26-.3.72-.82,1.38a2.66,2.66,0,0,0-.6,1.67c-.06.56-.23.63-1.11.76s-.79.49-1,.56-.06,0-.1.06a7,7,0,0,1,1.65.66s.06,0,.06.07,0,0,0-.07c.75-1.12,3-1.08,5,0,0,0,.06,0,.1.07l0-.07a1.46,1.46,0,0,1,.46-.43m3.71,1.78a3.8,3.8,0,0,0-2.89-.53,3.18,3.18,0,0,0,1.71,1.68,3.74,3.74,0,0,0,2.86.53,3.17,3.17,0,0,0-1.68-1.68m-5.16,0a3.74,3.74,0,0,0-2.86-.53,3.18,3.18,0,0,0,1.71,1.68,3.74,3.74,0,0,0,2.86.53,3.46,3.46,0,0,0-1.71-1.68m10.29,0a3.8,3.8,0,0,0-2.89-.53,3.31,3.31,0,0,0,1.71,1.68,3.8,3.8,0,0,0,2.89.53A3.46,3.46,0,0,0,304,94.22m-15.42,0a3.81,3.81,0,0,0-2.89-.53,3.14,3.14,0,0,0,1.71,1.68,3.74,3.74,0,0,0,2.86.53,3.21,3.21,0,0,0-1.68-1.68m-5.13,0a3.8,3.8,0,0,0-2.89-.53,3.26,3.26,0,0,0,1.71,1.68,3.81,3.81,0,0,0,2.89.53,3.84,3.84,0,0,0-1.71-1.68m-5.16,0a3.71,3.71,0,0,0-2.86-.52,3.48,3.48,0,0,0,1.71,1.71A3.71,3.71,0,0,0,280,96a3.33,3.33,0,0,0-1.71-1.71"/><path class="cls-2" d="M204.53,159v4.21h-7.66v-14h7.66v3.82h9.28v-3.85a6.82,6.82,0,0,0-6.81-6.8H194.18a6.82,6.82,0,0,0-6.81,6.8v14a6.82,6.82,0,0,0,6.81,6.81H207a6.82,6.82,0,0,0,6.81-6.81V159h-9.28Z"/><path class="cls-2" d="M240.57,142.46v20.81h-7.63V142.46H223.7v20.81a6.84,6.84,0,0,0,6.81,6.81H243a6.82,6.82,0,0,0,6.8-6.81V142.46Z"/><polygon class="cls-2" points="279.24 142.46 279.24 158.87 270.79 142.46 259.41 142.46 259.41 170.08 267.57 170.08 267.57 154.03 275.85 170.08 287.23 170.08 287.23 142.46 279.24 142.46"/><path class="cls-2" d="M317.65,170.08h9.17l-10.16-27.62H303.31l-10.16,27.62h9.21l2-5.53h11.21Zm-10.92-11.87L310,149.3l3.29,8.91Z"/><path class="cls-2" d="M353.16,157c3.71,0,6.28-3.28,6.28-7.26a7.09,7.09,0,0,0-6.81-7.3H332.71V170H342v-9h7.82v9h9.67V163.8c0-3.72-2.53-6.78-6.28-6.78M342,149.1h7.83v5.66H342Z"/><path class="cls-2" d="M388.18,142.46H368.84v27.62h19.34a6.82,6.82,0,0,0,6.81-6.81v-14a6.82,6.82,0,0,0-6.81-6.8m-2.11,20.78h-8.28v-14h8.28Z"/><path class="cls-2" d="M407.91,148.28a5.18,5.18,0,1,1-5.16-5A5.05,5.05,0,0,1,407.91,148.28Zm-9.08,0a3.9,3.9,0,1,0,3.92-4A3.9,3.9,0,0,0,398.83,148.28Zm3.09,2.66h-1.15v-5a9.62,9.62,0,0,1,1.94-.16,3.27,3.27,0,0,1,1.75.36,1.49,1.49,0,0,1,.49,1.12,1.26,1.26,0,0,1-1.05,1.15v.06a1.51,1.51,0,0,1,.92,1.22,4.76,4.76,0,0,0,.36,1.25h-1.25a4.73,4.73,0,0,1-.4-1.22c-.09-.56-.39-.79-1-.79h-.56v2Zm0-2.86h.56c.65,0,1.18-.2,1.18-.72s-.33-.79-1.09-.79a3.09,3.09,0,0,0-.65.06Z"/></svg>