<svg xmlns="http://www.w3.org/2000/svg" viewBox="0 0 595.28 175.75"><path d="M244.14,51c4.35-.22,3.34-.38,6-.44,7.39-.17,14.95-.35,22,4.1a27.63,27.63,0,0,1,11.35,15A33.58,33.58,0,0,1,283,89.45c-2.57,7.54-6.6,14-13.26,18.9a53.49,53.49,0,0,1-15.09,7.54c-6.49,2.15-13.4,2.71-20.25,3.28-8,.67-16,1.59-24.05,2.34-1,.09-2.54.84-2.68-1-.12-1.64.91-1.87,2.5-2,4.06-.27,6.68-2.72,7.64-6.81,1.36-5.76,2.54-11.56,3.89-17.33,2.33-10,4-20.19,6.72-30.12a23.8,23.8,0,0,0,.39-4.33c.13-1.44-.77-2-1.94-2.41-1.9-.68-3.88-.3-5.82-.5-.83-.08-1.77,0-1.7-1.19a2.07,2.07,0,0,1,.36-1.19,2,2,0,0,1,1.08-.65C229.31,51.73,244.14,51,244.14,51Zm24,26.58c-.39-3.67-.14-8.26-1.95-12.61-1.56-3.78-3.52-7.28-7.37-9-3.26-1.45-6.86-1.61-10.43-1.73-2.53-.09-3.81.23-4.39,3.34-2.6,13.73-5.72,27.37-8.5,41.07-.85,4.17-2.33,8.22-2.54,12.52-.13,2.74,1,3.74,3.83,4,4.62.37,8.74-1.13,13-2.74,5.1-1.93,8.55-5.58,11.54-9.83C266.36,95.29,268,87.05,268.13,77.54Z" fill="#323c8f"/><path d="M345.24,65C343,69.3,340,73.13,335.49,75a77.69,77.69,0,0,1-11.42,3.82,97.48,97.48,0,0,1-14.28,2c-1.84.16-1.82,2.42-2,3.79-.53,4.63-1.38,9.19-2.28,13.76a22.13,22.13,0,0,0-.21,7.75c.2,1.26.8,2,2.28,1.83a28,28,0,0,1,3.89-.07c.72,0,1.82-.49,1.94.77a2,2,0,0,1-1.25,2.19,12,12,0,0,1-2.86.6q-13.81,1.37-27.64,2.68c-1.1.11-2.65.42-2.72-.94a2.33,2.33,0,0,1,2.44-2.54,8.67,8.67,0,0,0,8.48-7.38c2.43-13.89,5.69-27.6,8.32-41.44.62-3.26,1.06-6.56,1.68-9.82.31-1.66-.36-2.27-1.91-2.27s-3.09,0-4.63,0c-1,0-2.19.45-2.17-1.09,0-1.17.08-2.54,1.83-2.68,1.46-.11,2.91-.35,4.37-.45,5.76-.4,11.56-.71,17.25-1.41A118.09,118.09,0,0,1,330.32,43a17.86,17.86,0,0,1,13.56,5.86c3.2,3.56,3.45,7.93,2.65,12.43C345.74,62.38,344.81,63.47,345.24,65Zm-25.57-18.1c-1.59.34-4-.83-4.59,2.45C313.53,58,311.71,66.59,310,75.19c-.43,2.17.3,2.9,2.38,2.18a31.38,31.38,0,0,1,5.48-1,13.37,13.37,0,0,0,10.77-8.06,23,23,0,0,0,1.53-14.64C329,48.6,327.55,48,323.07,47A16.56,16.56,0,0,0,319.67,46.93Z" fill="#323c8f"/><path d="M345.24,65c-.43-1.56.5-2.65,1.29-3.79,2.74,1.61,5.62.3,8.26-.05,4.84-.66,9.62-1.68,14.54-1.8a20.45,20.45,0,0,1,7.53,1.44c5.19,1.91,6.78,7.88,3.7,12.42a14.11,14.11,0,0,1-7.7,5.92c-.63.2-1.6.36-1.54,1.29.05.74.91.77,1.48,1.05,2.73,1.34,5.22,2.9,6.95,5.58,2.19,3.39-.13,11.19-4.59,14.12-5.47,3.58-11.56,4.66-17.79,5.18-6.72.56-13.45,1-20.14,2-.73.1-1.64.28-1.93-.57-.37-1.11.72-1.5,1.41-1.57,5.27-.49,6.46-4.38,7.36-8.59,2.06-9.65,4.2-19.3,6.19-29C351.17,64.21,349.88,63.35,345.24,65Zm15.42,18c-1.16.47-3.61-.91-4.24,1.81-1.15,5-2.28,10-3.18,15-.51,2.89.46,3.85,3.37,4.05,5.89.42,13.49-4,12.74-12.92C369,86.44,366.75,82.59,360.66,83.07ZM371.05,69.5a5.58,5.58,0,0,0-.55-3.1c-1.2-3.45-2.57-4.12-6.51-4-3.22.12-3.09,2.45-3.49,4.57-.29,1.52-.73,3-1.07,4.5-.57,2.45-1.14,4.9-1.67,7.36-.21,1-.16,1.75,1.24,1.71C364.72,80.45,371.2,76.21,371.05,69.5Z" fill="#da2e2e"/><path d="M415.15,94.48c2.37.28,3.89-.49,4.76-2.83a2.7,2.7,0,0,1,3.83-1.6c1.61.86.62,2.38.11,3.66a15.67,15.67,0,0,1-3.55,4.84,4.81,4.81,0,0,1-5.65,1,48,48,0,0,1-4.34-2.23c-2.93-1.64-3.46-1.67-4.79,1.32-1,2.36-2.78,2.67-4.91,2.7-1.22,0-1.48-.51-1.39-1.66.19-2.25,1.8-3.72,3.09-5.16,4.66-5.19,8.56-11,12.9-16.37.43-.54.87-1.25-.11-1.53-1.87-.54-3.74-1.3-5.73-.94A3.11,3.11,0,0,0,407,77.49c-.48,1.06-3.27,1.73-4.22,1.08s-.5-1.28-.16-1.95a13.73,13.73,0,0,1,4.57-5.11c2.68-1.83,5.16-.23,7.58.9a13.47,13.47,0,0,1,1.83,1.21,1.66,1.66,0,0,0,2.66-.57,17.24,17.24,0,0,1,2.05-3c1.24-1.28,3-1.75,4.44-.69s.23,2.46-.54,3.55c-3.47,4.87-7.47,9.3-11.31,13.86a66.78,66.78,0,0,1-4.3,5.21,1.51,1.51,0,0,0-.58,1.51c.21.75.9.67,1.42.61C412.08,93.87,413.57,95,415.15,94.48Z" fill="#da2e2e"/><path d="M181,146.72c0-7.81,4.35-10.43,10.25-7.67,5.65,2.65,8.37,7.33,9,13.3a7.42,7.42,0,0,1-3.78,7.6c-2.85,1.63-5.56.58-8-1.15C183.88,155.48,181.12,151.06,181,146.72Z" fill="#da2e2e"/><path d="M388.5,77.66a4.73,4.73,0,0,0-2.27,2.21c-.36.54-.7,1.09-1,1.64a2.16,2.16,0,0,1-2.89.95c-.85-.52-.64-2-.12-2.83,1.62-2.62,3-5.35,6.37-6.53s7.23,1,7.07,4.71c-.12,2.76-1.05,5.4-1.67,8.08-1,4.3-2.32,8.55-2.82,13-.07.55-.14,1.26.51,1.48s1.09-.4,1.35-.84c.87-1.46,1.69-3,2.42-4.49.52-1.07,1.38-1.62,2.33-1.09a1.65,1.65,0,0,1,.7,2.56c-2.73,4.77-3.41,7.75-10.74,7.21-3.33-.25-4.18-1.18-3.68-4.49.88-5.79,2.46-11.41,3.88-17.07A10.77,10.77,0,0,0,388.5,77.66Z" fill="#da2e2e"/><path d="M165.2,137.17c-5.67,0-11.59-7.63-10.19-13.11a5.9,5.9,0,0,1,7.21-4.41c6,1.36,10.63,8,9,13A6.37,6.37,0,0,1,165.2,137.17Z" fill="#da2e2e"/><path d="M201.88,127.33c-.14,5.18-3.51,7.34-8.45,5.74-3.77-1.22-9-8.33-8.1-13.21.59-3.07,2.95-5.28,6-4.62C196.11,116.29,202,121.34,201.88,127.33Z" fill="#da2e2e"/><path d="M176.07,108.45c-.21,3.94-3.58,7.75-8,6.22a13.43,13.43,0,0,1-9-9.42c-.74-2.61.13-5.82,2.11-7,2.3-1.43,4.6-.86,6.94.24a13,13,0,0,1,7.35,7.83C175.79,107.1,176,108,176.07,108.45Z" fill="#da2e2e"/><path d="M207,134c0-4.66,2.79-6.69,7.87-5.57,3.94.87,10.39,9.11,8.45,13.94-1.23,3.06-3.65,4.73-6.78,3.78C211.75,144.68,206.75,138.85,207,134Z" fill="#da2e2e"/><path d="M202.71,104.85c-.22,2.66-.72,4.53-2.69,5.55-2.48,1.29-4.69,0-6.64-1.16a13.74,13.74,0,0,1-6.12-8.18,5.41,5.41,0,0,1,1.36-5.77c1.52-1.41,3.23-1.13,5.32-.36C199.08,96.8,201.29,100.7,202.71,104.85Z" fill="#da2e2e"/><path d="M168.33,79.5c4.5.07,10.3,5.33,10.82,9.82.46,4-2.84,6.93-6.6,5.78a13,13,0,0,1-8.85-8.73C162.39,82.44,164.52,79.44,168.33,79.5Z" fill="#da2e2e"/><path d="M203.54,87.47a4.09,4.09,0,0,1-5.66,3.89A13,13,0,0,1,189.15,82c-.91-3.45,1.23-5.67,4.69-5.27C198.38,77.24,203.51,82.92,203.54,87.47Z" fill="#da2e2e"/><path d="M171.08,63a12.63,12.63,0,0,1,10.53,9.41c.79,2.88-1.85,5.52-4.84,5.15C172.54,77,167.52,72,167,67.78,166.7,64.88,168.43,62.82,171.08,63Z" fill="#da2e2e"/><path d="M203.61,71.44c0,2.63-1,3.62-3.72,3.52-4.18-.17-9.92-6.27-9.81-10.44.07-2.38,1.3-3.48,3.79-3.38C198.34,61.31,203.6,66.88,203.61,71.44Z" fill="#da2e2e"/><path d="M172.94,48.65c4.58.1,9.59,4.51,10.24,9a3.58,3.58,0,0,1-4.69,4.12c-3.89-1-6.45-3.75-8.51-6.87C168.14,52.13,170,48.58,172.94,48.65Z" fill="#da2e2e"/><path d="M150.94,97.09a4.51,4.51,0,0,1-5.59,4.41c-3.76-.81-6-3.4-7.15-6.87a4.31,4.31,0,0,1,3.29-5.35C145.48,88.51,151,93.07,150.94,97.09Z" fill="#da2e2e"/><path d="M240.72,151.89c0,2.33-2.91,4.62-5.38,4.25a10.39,10.39,0,0,1-7.4-6.64c-.7-2.68,1.32-5.72,4-5.81C235.12,143.59,240.82,147.75,240.72,151.89Z" fill="#da2e2e"/><path d="M205.52,58.42a2.28,2.28,0,0,1-2.26,2.79c-4.48.57-10.8-5.39-10.45-9.85a3,3,0,0,1,3.36-3C199.34,48.48,206.23,55,205.52,58.42Z" fill="#da2e2e"/><path d="M186.33,45.32c-.05,1.86-1.31,2.8-3.57,2.66-3.84-.23-8.66-4.08-9.77-7.81-.5-1.67.51-3.72,2.18-4C179.26,35.65,186.16,40,186.33,45.32Z" fill="#da2e2e"/><path d="M156.64,78c0,2.72-2.33,4.4-5.24,3.62A8.73,8.73,0,0,1,145,74.93a3.17,3.17,0,0,1,2.52-4.19C151.14,69.92,156.61,74.24,156.64,78Z" fill="#da2e2e"/><path d="M194,35.49c3.59.13,8.76,4.61,9.46,8.2.38,1.92-.72,3.27-2.73,3-3.66-.57-8.74-4.39-9-8.76C191.61,35.82,192,35.42,194,35.49Z" fill="#da2e2e"/><path d="M157.07,64.92c-3.16,0-7.07-3.38-7.61-6.51a3.07,3.07,0,0,1,3.84-3.61A10.18,10.18,0,0,1,160,60C161.43,62.74,160.07,65,157.07,64.92Z" fill="#da2e2e"/><path d="M204,32.39c0,1.71-.6,2.43-2.1,2.38-3.43-.12-8.26-4.36-8.74-7.76-.3-2.19.57-2.74,2.82-2.35,3.58.6,5.46,3.2,7.38,5.78A5.59,5.59,0,0,1,204,32.39Z" fill="#da2e2e"/><path d="M219.82,44.83c0,1.25-.48,2-1.88,1.93-3.44-.13-8.4-5.17-8.44-8.67,0-1.1.23-2.17,1.69-2.18C214.21,35.88,219.84,41.71,219.82,44.83Z" fill="#da2e2e"/><path d="M156.47,39.74c2.95.09,6.85,3.41,7.36,6.27a2.45,2.45,0,0,1-3.11,2.9,9.65,9.65,0,0,1-6.78-5.12A2.68,2.68,0,0,1,156.47,39.74Z" fill="#da2e2e"/><path d="M186.29,32.85a2,2,0,0,1-2.84,1.91,10.88,10.88,0,0,1-7-6.61c-.41-1-.32-2.1,1.14-2.45C180.67,25,186.37,29.56,186.29,32.85Z" fill="#da2e2e"/><path d="M215.72,33.56a10.22,10.22,0,0,1-5.34-3.74,18.43,18.43,0,0,1-1.92-3.35c-.36-.7-.92-1.49-.27-2.26a2.23,2.23,0,0,1,2.71-.35,12.77,12.77,0,0,1,7.19,7.46C218.73,32.94,217.55,33.47,215.72,33.56Z" fill="#da2e2e"/><path d="M137.22,47.67c.13,1-.39,1.53-1.42,1.81-3.16.85-7.07-1.68-8.12-4.72-.6-1.73.59-2.79,2.21-3.13C132.45,41.09,137.14,45,137.22,47.67Z" fill="#da2e2e"/><path d="M166.46,33.59c.19,1.36-.51,1.93-1.78,2-2.68.2-7.36-3.47-7.79-6.15-.25-1.6.78-2.27,2.08-2.44C161.73,26.65,166.4,30.8,166.46,33.59Z" fill="#da2e2e"/><path d="M397.66,64.06c-.21,2.33-3.37,5-5.64,4.82a3.12,3.12,0,0,1-2.67-3.68,5.38,5.38,0,0,1,5.54-4.65A2.9,2.9,0,0,1,397.66,64.06Z" fill="#da2e2e"/><path d="M194.69,14.05c2.72,0,7.92,4.65,8,7,.05,1.47-1,1.86-2.13,1.47A11.39,11.39,0,0,1,194,16.78C193.5,15.85,193,14.35,194.69,14.05Z" fill="#da2e2e"/><path d="M166.93,21.93c-2.42,0-6.26-3.18-6.75-5.55-.37-1.86.48-2.75,2.28-2.17a10.2,10.2,0,0,1,6.19,5.15C169.53,21.09,168.9,22,166.93,21.93Z" fill="#da2e2e"/><path d="M187.66,22.56c0,.92-.79,1.15-1.82,1-2-.23-5.56-3.33-6.08-5.22a2,2,0,0,1,.22-2.08c.59-.57,1.37-.33,2.08-.09C184.42,17,187.66,20.51,187.66,22.56Z" fill="#da2e2e"/><path d="M126.53,65.3a6.26,6.26,0,0,1-4.75-3.48c-.8-1.75.22-3,2.15-2.88a6.32,6.32,0,0,1,4.87,4.17C129.27,65.16,127.6,64.94,126.53,65.3Z" fill="#da2e2e"/><path d="M136,29.62c1.91.85,3.92,1.5,4.85,3.5.64,1.38-.29,2.61-1.72,2.23a6.43,6.43,0,0,1-4.27-3.59A1.42,1.42,0,0,1,136,29.62Z" fill="#da2e2e"/><path d="M143.75,21.75a6.21,6.21,0,0,1-3.77-3,1.43,1.43,0,0,1,.26-1.8,1.27,1.27,0,0,1,1.57-.24,8.81,8.81,0,0,1,3.58,2.84,1.46,1.46,0,0,1,.14,1.82C145.16,21.85,144.51,21.8,143.75,21.75Z" fill="#da2e2e"/><text transform="matrix(1, -0.1, 0.1, 1, 250.57, 146.39)" font-size="30.96" fill="#1d1d1b" font-family="OpenSansSemiCondensed-LightItalic, Open Sans SemiCondensed" font-weight="300" font-style="italic" letter-spacing="0.29em">internships</text></svg>