<svg id="Layer_1" data-name="Layer 1" xmlns="http://www.w3.org/2000/svg" viewBox="0 0 595.28 175.75"><defs><style>.cls-1{fill:#00969c;}</style></defs><path class="cls-1" d="M156.12,136.17h6.62q7.86,0,11.7,4.16a13.62,13.62,0,0,1,3.83,9.49,13.36,13.36,0,0,1-4,9.51q-4,4.13-11.52,4.13h-6.67Zm3.73,3.64v20h.22a38.32,38.32,0,0,0,6.25-.38,10.21,10.21,0,0,0,4-1.64,9.08,9.08,0,0,0,3-3.35,9.62,9.62,0,0,0,1.12-4.59,9.78,9.78,0,0,0-1.78-5.7,8.82,8.82,0,0,0-4.25-3.43,20.6,20.6,0,0,0-6.65-.88Z"/><path class="cls-1" d="M183.15,136.17h5.92a11.18,11.18,0,0,1,7.18,2.2A6.85,6.85,0,0,1,199,144a7.21,7.21,0,0,1-1.8,4.84,10,10,0,0,1-5.6,2.95l7.93,11.68h-4.27l-7.57-11.22h-.84v11.22h-3.73Zm3.73,3.3V149q8.25.17,8.25-4.78a4.1,4.1,0,0,0-1-2.83,4.75,4.75,0,0,0-2.57-1.5A20.63,20.63,0,0,0,186.88,139.47Z"/><path class="cls-1" d="M204.21,136.17h15.12v3.73H207.89v6.81h11.44v3.68H207.89v9.39h11.44v3.68H204.21Z"/><path class="cls-1" d="M233.91,135.12l12.88,28.34h-3.91l-3.16-7H228.14l-3.13,7h-3.88Zm0,8.52-4.37,9.73h8.78Z"/><path class="cls-1" d="M272.74,135l7.46,28.42h-3.65L272,146.09l-7.77,18.42-7.8-18.57-4.58,17.52h-3.63L255.71,135l8.54,20.33Z"/><path class="cls-1" d="M318.2,137.11v4.22a18.66,18.66,0,0,0-8.12-2.16,11.22,11.22,0,0,0-8,3.07,10.37,10.37,0,0,0,.08,15.15,11.89,11.89,0,0,0,8.34,3.05,15.74,15.74,0,0,0,7.71-2.29v4.26a16.89,16.89,0,0,1-8,2,15.14,15.14,0,0,1-10.84-4.29,13.78,13.78,0,0,1-4.5-10.35,13.64,13.64,0,0,1,4.42-10.19,14.88,14.88,0,0,1,10.66-4.23A21.53,21.53,0,0,1,318.2,137.11Z"/><path class="cls-1" d="M323.21,136.17h5.91a11.19,11.19,0,0,1,7.19,2.2,6.84,6.84,0,0,1,2.77,5.62,7.2,7.2,0,0,1-1.79,4.84,10,10,0,0,1-5.6,2.95l7.93,11.68h-4.28l-7.57-11.22h-.83v11.22h-3.73Zm3.73,3.3V149q8.25.17,8.25-4.78a4.15,4.15,0,0,0-1-2.83,4.79,4.79,0,0,0-2.57-1.5A20.63,20.63,0,0,0,326.94,139.47Z"/><path class="cls-1" d="M344.44,136.21h3.73V153a8.47,8.47,0,0,0,1.78,5.76,6.42,6.42,0,0,0,5.07,2,6.72,6.72,0,0,0,5.07-1.87,7.32,7.32,0,0,0,1.8-5.28V136.21h3.73v17.16a11.11,11.11,0,0,1-2.86,8,10,10,0,0,1-7.61,3,10.3,10.3,0,0,1-7.79-3q-2.92-3-2.92-9Z"/><path class="cls-1" d="M371,136.17h3.68v27.29H371Z"/><path class="cls-1" d="M397.34,139.21l-3,2.42a12.54,12.54,0,0,0-2.17-1.85,5.28,5.28,0,0,0-2.81-.61,5.4,5.4,0,0,0-3.26.91,2.77,2.77,0,0,0-1.25,2.34,2.86,2.86,0,0,0,1.1,2.19,15,15,0,0,0,3.72,2.08,26.49,26.49,0,0,1,4.09,2.1,10.58,10.58,0,0,1,2.41,2.15,8.66,8.66,0,0,1,1.4,2.48,8.41,8.41,0,0,1,.46,2.76,7.77,7.77,0,0,1-2.48,5.8,8.27,8.27,0,0,1-6,2.4,10.1,10.1,0,0,1-6.05-1.87,11.76,11.76,0,0,1-4-5.63l3.72-1q2,4.6,6.24,4.6a4.87,4.87,0,0,0,3.38-1.22,4,4,0,0,0,1.35-3.07,4.07,4.07,0,0,0-.71-2.23,6.2,6.2,0,0,0-1.75-1.85,19.31,19.31,0,0,0-3.35-1.67,23.18,23.18,0,0,1-3.52-1.72,8.93,8.93,0,0,1-2.14-1.86,8,8,0,0,1-1.33-2.15,6.52,6.52,0,0,1,1.94-7.29,8.36,8.36,0,0,1,5.72-2.06,11.63,11.63,0,0,1,4.52,1A9.24,9.24,0,0,1,397.34,139.21Z"/><path class="cls-1" d="M402.31,136.17h15.12v3.73H406v6.81h11.43v3.68H406v9.39h11.43v3.68H402.31Z"/><path class="cls-1" d="M438.49,139.21l-3,2.42a12.54,12.54,0,0,0-2.17-1.85,5.31,5.31,0,0,0-2.81-.61,5.38,5.38,0,0,0-3.26.91,2.77,2.77,0,0,0-1.25,2.34,2.85,2.85,0,0,0,1.09,2.19,15.39,15.39,0,0,0,3.72,2.08,26.2,26.2,0,0,1,4.1,2.1,10.52,10.52,0,0,1,2.4,2.15,8.14,8.14,0,0,1,1.86,5.24,7.76,7.76,0,0,1-2.47,5.8,8.29,8.29,0,0,1-6,2.4,10.15,10.15,0,0,1-6.05-1.87,11.83,11.83,0,0,1-4-5.63l3.73-1c1.36,3.07,3.43,4.6,6.23,4.6a4.88,4.88,0,0,0,3.39-1.22,4,4,0,0,0,1.35-3.07,4.15,4.15,0,0,0-.71-2.23,6.23,6.23,0,0,0-1.76-1.85,19.14,19.14,0,0,0-3.34-1.67,23.37,23.37,0,0,1-3.53-1.72,9.13,9.13,0,0,1-2.14-1.86,8,8,0,0,1-1.32-2.15,6.21,6.21,0,0,1-.42-2.29,6.42,6.42,0,0,1,2.36-5,8.34,8.34,0,0,1,5.72-2.06,11.67,11.67,0,0,1,4.52,1A9.37,9.37,0,0,1,438.49,139.21Z"/><path class="cls-1" d="M244.26,39.65c0-.86,0-1.58,0-2.3.12-2.61.25-5.21.4-7.82.2-3.35.42-6.71.62-10.07.13-2.35.24-4.7.35-7,.05-1.13.08-1.19,1.23-1.17l11.12.17,5.84.1c3.15.08,6.31.19,9.46.25,1.93,0,3.85,0,5.77.05,2.47.1,4.93.29,7.39.49,1.77.15,3.56.3,5.31.61,2.72.48,5.41,1.07,8.11,1.66,1,.23,2,.56,3,.86a38.82,38.82,0,0,1,8.49,3.62c2.16,1.27,4.29,2.59,6.36,4a44.83,44.83,0,0,1,8.87,7.73c1.69,1.95,3.27,4,4.8,6.08A41.27,41.27,0,0,1,337,47.41c1,2.77,1.69,5.65,2.5,8.48a4.23,4.23,0,0,1,.06,1c-1.67-.48-2.37-.73-2.53-2.08a.71.71,0,0,0-.89-.71c-.47.07-.65-.13-.7-.59-.11-1-.22-1.06-1.22-1s-1.17-.08-1.08-1.18-.35-1.62-1.54-1.31c-.48.13-1,.3-1.44.42a5.78,5.78,0,0,1-3.69-.31,25.73,25.73,0,0,0-3.33-1c-2.2-.55-3.75.6-4.76,2.31a49.18,49.18,0,0,0-3.05,6.28c-1,2.51-1.86,5.11-2.85,7.65-.91,2.34-1.86,4.67-2.92,7a49.29,49.29,0,0,1-5.31,9.1,39.05,39.05,0,0,1-7,7.32A33.87,33.87,0,0,1,287.69,94a31.61,31.61,0,0,1-9.85,1.92,4.44,4.44,0,0,0-.57.08c.15.18.22.32.34.39a20.64,20.64,0,0,0,7.9,2.78,20.26,20.26,0,0,0,7.64-.21,18.33,18.33,0,0,0,9.32-5.34c3.55-3.71,5.75-8.22,7.58-12.93,1-2.69,2-5.41,3-8.09a19.38,19.38,0,0,1,3.19-5.65,7.32,7.32,0,0,1,1.18-1,2,2,0,0,1,.69-.15,2.77,2.77,0,0,1,0,.65c-.5,1.66-1.13,3.29-1.51,5-.5,2.21-.84,4.45-1.17,6.69-.72,5-1.54,9.92-3.53,14.56a36.49,36.49,0,0,1-17.21,17.94,45.35,45.35,0,0,1-6,2.26,35.8,35.8,0,0,1-12.6,1.45,34.8,34.8,0,0,1-10.49-1.94,51.47,51.47,0,0,1-6.38-2.62,42.59,42.59,0,0,1-6.5-4.31c-2.15-1.72-4-3.77-6-5.68-2.31-2.2-4.55-4.49-7.39-6.06a8.43,8.43,0,0,0-10.93,12.13c.56.83,1.2,1.61,1.78,2.42a4.73,4.73,0,0,1,.41.81l-.21.18c-.62-.35-1.27-.67-1.86-1.07a20,20,0,0,1-5.67-5.32,12.88,12.88,0,0,1-1.86-11,14.4,14.4,0,0,1,12-11,18,18,0,0,1,8.22.5c1,.3,1.91.76,2.86,1.14a2.46,2.46,0,0,0,.91.26c-.64-.89-1.3-1.75-1.9-2.66a25.44,25.44,0,0,1-3.5-8.58,36.26,36.26,0,0,1-.5-11,28.82,28.82,0,0,1,2.68-10A26.26,26.26,0,0,1,249,41.17,32.67,32.67,0,0,1,261.63,35a31.25,31.25,0,0,1,14.2-.54,22.18,22.18,0,0,1,8.27,3.35,17.29,17.29,0,0,1,5.6,6.2,2.58,2.58,0,0,1,.14.39,1.31,1.31,0,0,1,0,.27,2,2,0,0,1-.41-.2A25.13,25.13,0,0,0,280,39.63a20.6,20.6,0,0,0-12.24.08,18.3,18.3,0,0,0-9.62,7.39,26.6,26.6,0,0,0-4.32,13.76,37.62,37.62,0,0,0,.62,9.77,23.78,23.78,0,0,0,5.42,11.23,20.47,20.47,0,0,0,8.3,5.65,25.63,25.63,0,0,0,14.53.87,28.09,28.09,0,0,0,12.54-6.33,46.37,46.37,0,0,0,8.42-9.54,95.8,95.8,0,0,0,7-12.13c1.16-2.38,2.3-4.78,3.6-7.09,1.13-2,2.39-4,4.52-5.14a9.83,9.83,0,0,1,2.36-.87c.54-.13.71-.32.49-.83a51.1,51.1,0,0,0-4.23-8.14,41.64,41.64,0,0,0-3.16-4.38c-1.86-2.11-3.83-4.12-5.87-6a30.55,30.55,0,0,0-4.37-3.41A29.94,29.94,0,0,0,299.21,22a49.45,49.45,0,0,0-6.32-2.24,76.34,76.34,0,0,0-7.48-1.55c-2.14-.35-4.3-.51-6.46-.7-1.11-.1-2.23-.08-3.34-.11-2.14,0-4.28-.08-6.41-.1-1.74,0-3.48,0-5.21,0s-3.75,0-5.63,0c-.53,0-.64.38-.66.79q-.07,1.82-.12,3.63c-.1,3.64-.19,7.27-.28,10.91a.83.83,0,0,1-.64.84c-2.12.84-4.29,1.58-6.33,2.59s-3.72,2.22-5.57,3.34ZM246.35,89l-.1.26.25.11c2.86,1.44,5.07,3.72,7.5,5.73,2.74,2.28,5.46,4.6,8.35,6.68a33.9,33.9,0,0,0,8.78,4.55,25.37,25.37,0,0,0,17.39-.36c1.13-.45,2.22-1,3.33-1.47l-.07-.22c-.23,0-.46.06-.69.11-.79.15-1.56.38-2.35.45a28.66,28.66,0,0,1-9.28-.41,32.92,32.92,0,0,1-6.27-2.15,63.66,63.66,0,0,1-9.06-5.63c-2.46-1.69-4.87-3.48-7.37-5.1a15.09,15.09,0,0,0-6.68-2.52A35.68,35.68,0,0,0,246.35,89Z"/><path class="cls-1" d="M325.05,67.62A64.77,64.77,0,0,0,324,55.19q-.12-.63-.3-1.26c-.19-.67-.08-.82.63-.82a6.05,6.05,0,0,1,3.21,1.06,10.66,10.66,0,0,1,1.86,1.4,4.9,4.9,0,0,0,3.41,1.21c1.16,0,1.38.33,1,1.44-.19.52,0,.85.5,1a.75.75,0,0,1,.68.92c0,.2.07.54.19.59.61.25.59.71.62,1.24a1.51,1.51,0,0,0,.46.92c1.1,1,1,2-.38,2.68-.76.36-1.58.59-2.36.92A4,4,0,0,0,331,71.34a13.47,13.47,0,0,0,2.37,4.76c1.5,2.18,3.09,4.3,4.64,6.45.64.89,1.3,1.76,1.91,2.67a1.67,1.67,0,0,1,.24.9,8.14,8.14,0,0,1-3.75,6.93,5.54,5.54,0,0,1-1.13.64c-.81.29-1.11,1-1.45,1.66a44.57,44.57,0,0,1-4.24,6.79A61.52,61.52,0,0,1,321.5,111a50.83,50.83,0,0,1-7.5,5.63,42.46,42.46,0,0,1-8,3.85,44.68,44.68,0,0,1-12.44,2.57q-3.3.2-6.59.1a24.88,24.88,0,0,1-4-.52,53.55,53.55,0,0,1-5.48-1.22,51.28,51.28,0,0,1-6.63-2.38c-2.42-1.1-4.7-2.49-7-3.77a3.52,3.52,0,0,1-.8-.64,1.33,1.33,0,0,1-.19-.47c.18,0,.39-.14.54-.09,1.47.51,2.91,1.1,4.39,1.57a33,33,0,0,0,4.1,1.08c2.88.5,5.77,1,8.67,1.28a44.21,44.21,0,0,0,6.51-.07,33.19,33.19,0,0,0,4.55-.63,35.82,35.82,0,0,0,9-3,38.19,38.19,0,0,0,11.95-9.39,47.35,47.35,0,0,0,6.14-9.23,57.37,57.37,0,0,0,5.46-16.2A73.13,73.13,0,0,0,325.05,67.62Z"/></svg>