<svg id="Layer_1" data-name="Layer 1" xmlns="http://www.w3.org/2000/svg" xmlns:xlink="http://www.w3.org/1999/xlink" viewBox="0 0 595.28 175.75"><defs><style>.cls-1,.cls-2,.cls-4{fill-rule:evenodd;}.cls-1{fill:url(#linear-gradient);}.cls-2{fill:url(#radial-gradient);}.cls-3,.cls-4{fill:#d7182a;}.cls-5{fill:#231f20;}</style><linearGradient id="linear-gradient" x1="1526.91" y1="-1150.63" x2="1605.35" y2="-1229.07" gradientTransform="translate(-1484.61 1276.54)" gradientUnits="userSpaceOnUse"><stop offset="0" stop-color="#f15a22"/><stop offset="0.36" stop-color="#fff200"/><stop offset="0.63" stop-color="#ffcb05"/><stop offset="1" stop-color="#f15a22"/></linearGradient><radialGradient id="radial-gradient" cx="1281.57" cy="-1227.57" r="81.01" gradientTransform="translate(-803.51 934.12) scale(0.69)" gradientUnits="userSpaceOnUse"><stop offset="0.81" stop-color="#d71635"/><stop offset="1" stop-color="#9e0621"/></radialGradient></defs><path class="cls-1" d="M112.53,40.66c-.78-.55-1.61-.82-2-.37s-.29,1.2.84,2.37c5.82,6,20.06,21.43,19.87,40.74-.14,13.45-3.56,20.91-5.19,21.8-.25-.53-1-9.8-2.23-14.27a61.24,61.24,0,0,0-3.29-9.84,23.3,23.3,0,0,0-1.77-3.26c-1.51-2.28-4.65-4.43-5.91-4.32-8.16.7-9.34,10.14-10.25,17.38-.6,5-4,39.74-13.68,40.76-7.18.77-6.89-4.86-7.1-7.87-.59-7.68-.14-14.63-4.2-28.42-3.73-12.7-16.76-22.36-20-27.07l.1-.09c.87-.8,1.4.37,3-.94s11.39,2.56,21.67,2.37c35.35-.56,17.36-18.73,12.24-22.54-3.93-3-8.08-5-9.75-6.45.18-.24.43-.57,1.65-1,3-1.06,10.3-1.78,18.07-1.14,1.47.13,1.9-.34,2-.83.18-.69-1.34-1.63-2.27-2A108.39,108.39,0,0,0,91.9,32.06a55.89,55.89,0,0,0-65.52,44.4c-4.85,25.2,9.54,48.88,30.74,60.89,2.28,1.3,3.19,1.1,3.44.69.39-.68-.07-1.43-3-3.78C46.91,125.54,42,116.71,39.73,109.07s-2.62-14.13-2.17-17.56c1-7.35,6-9.24,7.75-9.86A12.77,12.77,0,0,1,58.09,85c3.21,3.14,6.79,7.68,9.13,18.68,1.78,8.36,2.63,10.53,4,20.09,1.7,12,9,18.46,15.05,18.41,18-.15,22.34-24.35,26.15-45.72.3-1.63.41-3.4,1.2-3.38,1.61.08,4.31,11.39,4.91,24.65.23,5.44,3.15,8.62,7.09,3.78,4.42-5.43,8.94-15.69,10.46-23.64A56.25,56.25,0,0,0,112.53,40.66ZM65.19,52.34c.4-.34,5.86-4.57,9.12-4.57,2.57,0,8.15,2.93,11.79,5.39,1.25.86,5.31,3.69.27,4.74C81.17,59,79.36,58.12,67,56,63.15,55.41,64.29,53.13,65.19,52.34Z"/><path class="cls-2" d="M113.15,40.7c-1.57-1-2.61-.71-2.76-.25s.06.82.78,1.46c6.17,5.4,18.57,18.14,20.94,36,2.59,19.2-4.77,34.85-6.07,25.52a98.07,98.07,0,0,0-2.21-12.83,62.2,62.2,0,0,0-3.3-9.86,24,24,0,0,0-1.75-3.26c-3.68-5.55-8.71-4.94-11.4.18-4.72,9-3.18,58-20.13,55.52-6.63-1-5.07-8.72-6.26-28.16-2.23-36.39-24.2-38.32-21.68-39.8,3.06-1.81,10.32,1.82,22.81,2.29,7.65.31,18.71-1,21-4.71,2.18-3.53-.57-10.11-8.5-16-6.72-5-14.83-7.57-8.43-9.27A38.89,38.89,0,0,1,98.51,37c2.53.29,5.34.84,6.85,1s1.89-.8-.16-2a45.87,45.87,0,0,0-13.28-4.37A56.17,56.17,0,0,0,56,136.9c2.74,1.39,4.23,1.84,4.51,1.1.09-.21,0-.51-.36-.79-2.37-2.12-16-10.72-21.75-25.65-1.33-3.46-5-13-3.11-23.31a11.13,11.13,0,0,1,9.78-9c13-.75,21.12,14,24.16,35.4s7.92,27.11,16.68,27.83c12.2,1,25.6-13.75,26.95-46.36.14-3.62.75-5.15,2-5.12,1.54,0,4.78,11.08,5.26,24.65.26,7,2,11.07,6.5,4.57a62.05,62.05,0,0,0,9.54-22.72C140.51,74.77,131.13,52.93,113.15,40.7ZM64.58,49.89s5.7-4.51,10-4.42c2.66.06,8.89,3.62,12.1,5.72,1.8,1.18,4.88,4.44,1.2,5.94-4.34,1.78-11.64.77-22.33-1.68C59.13,54,64.58,49.89,64.58,49.89Z"/><path class="cls-3" d="M459,93.76c.72-.41,2-1.17,3.51-1.87a17.76,17.76,0,0,1,5-1.5c3.1-.4,5.43,0,7.18,1.08s3.38,2.54,4.56,2.82,1.62-.53,3.66-1.82A69.46,69.46,0,0,1,489,89.05c6.25-3.16,10.51-4.23,13.1-4.35s3.44,1.3,3.73,2.11c.57,1.7-.47,4.42-2.58,4.26-2.59-.21-6.37,1.17-7.58,1.57a30.84,30.84,0,0,0-7,3.26,57,57,0,0,0-5.79,4.51c-1.8,1.34-4.27,2.78-6.4,1.87-.68-.27-1.66-1.8-2.08-2.68-1.6-3.39-5.08-4-9.08-1.78-4.13,2.47-8.12,5.11-9.81,5.83s-7.88,1.84-10.41-1.82c-5.25-7.54,3.19-19.83,13.72-19,3,.24,3.95.81,4.81,2s.68,4.28-.86,4.18c-5.92-.4-11.9.79-12.77,6,0,.08-.11,1.93.66,2.36,1.15.64,2.56,0,3.34-.38C455.39,96.37,457.48,94.56,459,93.76Z"/><path class="cls-4" d="M346.76,72.38a119.6,119.6,0,0,0,14.85.31c1.74,0,3.68-.22,4.89.21,1.38.51,3.38,3.17,2.95,5.29-.61,3.11-4.29,2-7.43,1.5a77.36,77.36,0,0,0-16.75-1.06,27.63,27.63,0,0,0-3.41.11c-1.2.29-2.22,2.27-3.17,3.72a50.75,50.75,0,0,0-4.74,8.9c-.78,1.77-1.55,4.19-.28,4.81,2.61,1.3,6.36-4.25,11.05-5.65a9.31,9.31,0,0,1,7.12.65c3,1.8,5.26,7,3.3,11a4.05,4.05,0,0,1-2.42,2.13,3.53,3.53,0,0,1-4.37-2.44c-.28-1.45.84-2.55.74-3.5-.28-2.76-3.57-1.62-5.31-.43-3,2-6.36,5.67-10.61,6.15a10.27,10.27,0,0,1-2.55-.1,5.74,5.74,0,0,1-4-4.13,15.75,15.75,0,0,1,.43-6.58c1.3-5.76,4.6-10.4,6.85-15.29-3.74-.94-7.23-.24-11.26-.35s-7.42-.34-10.87-.5c-6.78-.32-13.93-.25-20.91-.53a42.49,42.49,0,0,0-5.19.21c-2.12.18-4.09.9-6.16.43-1.87-.45-4-1.9-4.14-3.62a4,4,0,0,1,2.13-3.39c1.44-.57,5.14-.21,7.53-.21,13.78,0,24.75.42,37.5,1.38,3.32.25,7.23.58,11.18.6,1.38,0,3.67.37,4.59.15,1.13-.3,2.88-3.15,3.71-4,1.32-1.43,5.22-5.6,7.11-2.23C350.78,69,347.76,71.14,346.76,72.38Z"/><path class="cls-4" d="M254.46,86.21a11.07,11.07,0,0,0-7.67-.11c-2.28.75-9,5.05-12.94,7-2,1-8.35,4.71-11.15,5.34-3.36.74-8.64,1-9.34-2.12,5,0,11.69-3.94,13.27-8.78,1-3.2.82-5.72-.72-7.68-1.33-1.69-4.54-2.27-7.13-1.43C214.83,79.69,212,82.55,210,86a30.22,30.22,0,0,0-1.78,3.45c-.07.2-.16.43-.26.67s-.06.25-.82.07a11,11,0,0,1-2.05-.77,5.23,5.23,0,0,1-2.67-3c-.55-1.51-.34-3.68-1.8-3.7s-2.33,2.8-2,4.87a10.09,10.09,0,0,0,2.59,5A14,14,0,0,0,206.63,96a12.56,12.56,0,0,0,.69,2.88,8.52,8.52,0,0,0,6.36,5.71,19.74,19.74,0,0,0,10.47-.42c2-.64,7.87-3.55,10.15-4.69s7.82-4.47,10-5.47c1.47-.69,4.08-2.46,6-2.24.85.09,1.79.48,1.81,1.37,0,1.48-1.76,2.37-2.85,3.08-1.42.88-3.09,1.28-3.22,2.86a2.76,2.76,0,0,0,2.56,2.76,7.29,7.29,0,0,0,3.51-.74A12.89,12.89,0,0,0,257,97C259.35,93,257.89,87.59,254.46,86.21Zm-33.38-2.52c1.78-.1,1.56,2.46.43,3.83A10.42,10.42,0,0,1,214,90.7C214.15,88.49,218,83.87,221.08,83.69Z"/><path class="cls-4" d="M327.83,142.14c0,.08-.07.16-.26,0a20.7,20.7,0,0,0-3.27.17,25.92,25.92,0,0,1-3.43,0,4.52,4.52,0,0,0-1.67.25c-.06.18,0,.15-.12.26,0-.32,0,0-.14-.19a1.29,1.29,0,0,0-.25,0,2.62,2.62,0,0,1-1.41-.09c-.31-.08-.42,0-.66,0l-.62.14c-1.31.13-1.07-.37-2.79,0l-1.09-.18-1.14.08c-1.68-.19-2-.2-2-.2-1.36-.1-3.59-.15-4.06-.17,0,0-10.39-.48-23.3-2.46-10.66-1.66-20.35-3.76-28.83-5.84a142.3,142.3,0,0,1-53.15-26.25c-7.06-5.92-14.1-12.18-18.58-20.14,1.3-2.65,2.49-5.47,4.68-7.13a35.77,35.77,0,0,1,6-3.53c2.4-1.1,5-1.41,6.45-3.14,1.36-.57,2.92-.92,3.92-1.82-.3-2.34,2.55-1.49,3.2-2.86a20,20,0,0,0,7-3.5c1.89-1.32,4.67-2.79,5.73-4.88a18.45,18.45,0,0,0,1.49-6.15A16.72,16.72,0,0,0,216.86,44c-1.08-1.9-2.94-4.51-5.2-4.25a11.44,11.44,0,0,0-2.54,1.39c-5.78,3.46-10.13,8.58-14.21,13.26-5,5.75-9.74,11.3-13.7,17.83a10.23,10.23,0,0,1-5.84,1.27c-1.83-.2-3-1.34-4.33-1.49-2-.2-2.9,1.29-2.67,3.2.38,3.07,2.82,7,3.94,9-2.83,5.88-7.7,12.67-10.83,18.89-1.11,2.21-2.41,4.78-2.67,7.33-.5,5.54,6.09,8,8.4,3.72a14.18,14.18,0,0,0-.32-3.08c-.19-3.7,2.62-6.84,4.26-9.67,1.95-3.41,3.59-6.71,6.24-8.48a163.86,163.86,0,0,0,17.93,21.42c2.64,2.63,14.43,11.71,17.51,13.91a88,88,0,0,0,9.87,5.84c3.85,2.06,16.32,6.38,17.18,6.16.31.27,1.9.38,2.24.63.19-.4,1.06,0,1.16.51,0-.26,2.93.53,3.26.44.63.84,1.7-.41,2.23.5.22-.4.52,0,1-.06a3.21,3.21,0,0,0,.67-.05c.3.43.41.41.86.68s.58-.66.83-.43c0,.18-.16.28,0,.32.1-.16.17-.34.43-.32,0,.3,0,.59.31.54.06-.19-.3-.44,0-.54.61,0,.6.62.95.85a1.63,1.63,0,0,1,.84-.22c-.17.22.08.21,0,.54.37.08.19-.39.45-.43.12.34.58.34,1.06.33,0,.21-.12.24-.11.43.74.12,1.67,0,2.34.19-.24-.48.07-.9.41-.84.36.23-.22.66,0,.74.24-.17.21.35.55.53h2.23c.31-.15.42-.48.74-.62a3.3,3.3,0,0,0,1.58.72c.16-.11.16-.38.33-.53.34.18.13.61.41.64a4.75,4.75,0,0,0,1.59-.21c.14-.25-.26-.39,0-.43s.25.18.22.43c1.34-.18,2.59,1.64,3.91.32.31.19-.4.5.11.64.64-.4,2.28-.21,2.56.43a5.38,5.38,0,0,1,2.32.21c0-.13,0-.3.12-.32a.78.78,0,0,0,.21.32c0-.29-.16-.21,0-.42,2.27-.13,3.4.92,5.42,1.06.3-.27.2-.94.74-1,.32.19-.15.66.09.73.92-.58,2.5.05,3.72-.3,0,.12-.14.15-.09.3a1.2,1.2,0,0,0,1.06-.3v.42a23.42,23.42,0,0,1,4.66-.42c.12.15.08.46.43.42s.27-.3.42-.42c.22.51.9,0,1.16-.11.25.09.2.46.54.41.79-.21,1-.65,1.87-.47-.12.4-.17,0-.17.47.81-.15,1.13-.83,2.22-.73,0,.21-.11.24-.11.43a12.33,12.33,0,0,1,2.55-.21c-.41-.42.12-.27.53-.46,0,.56.77,0,.54.46.78-.58.6-.21,1.48-.66.16,0,.09.29.32.22.46-.26.61-.1,1.41-.08-.1.56.85-.33,1.06-.06.23-.41-.07,0,.5-.08-.31.28.41.13.61-.09,0,0,0,.21.36-.15.42,0,.22.05.5.15,0-.3.2-.21.62-.1.24-.47.71.13.85-.18.06.21.36.12.63.07.16-.26.46-.11.76-.21.77.46.42-.41.87,0,.13.46.26-.14.37.27.93-.29,1.15,0,1.82-.57.27.22.78,0,1.06.24a4.59,4.59,0,0,1,2.81-.26c.15-.09,0-.4.21-.43.79,1,1.45-.47,2.76,0,.12-.16.26-.13.43-.3,0-.36.57.23.57-.24.38,0,.29.41.54-.25.25.46.18.14.54.14,0,0,0,0,0,.07s0-.08.18-.05c.2-.16,0-.21.43-.16,0,.24-.16-.17-.12.16.25.22.55.11,1,.11,0-.31.29-.35.47-.44s.11-.12.35-.19c0,.53-.24.27.06.5.21-.24,1.19-.13,1.29-.22-.14,0,.22,0,.35-.08a2.43,2.43,0,0,0,2.35-.64c-.13.16-.12.28.09.33,0-.38,1.41-.62,1.41-.62A12.37,12.37,0,0,0,327.83,142.14ZM203.28,58c1-1,2.08-2.27,3.19-3.29,1.48-1.33,3.21-3.52,5.62-3-.92,3.54-3.49,5.88-5.94,8a49.07,49.07,0,0,1-8.48,5.31A51.28,51.28,0,0,1,203.28,58Z"/><path class="cls-3" d="M529.15,65.16c1.65,3.09-6.61,9.86-10.7,18.27a36.92,36.92,0,0,0-3.7,10c-.9,4.82.21,5,2.21,2.88,4-4.25,11-12.63,23.3-13.82,3.5-.15,5.35.32,6.39.79,2.56,1.11.87,5.15-1.75,5.09-.95,0-2.48-1-5.62-.42-6.1,1.11-7.75,5.1-6.92,8.21,1.2,4.37,7.72-1,11.78-3.57,3.5-2.15,5.51-4.82,7.48-7.4.53-1.7.77-3.24,1.44-5.28,2.1-6.41,3.71-10.37,7.89-15.42,4-4.84,8.64-1.71,5.89,4.42-2.94,6.57-4.66,9.26-9.59,17-.59.93-1.23,2.1-1.77,3.11-1,4.25.39,9.37,2.21,8.51,7.24-3.41,4.22,6.71-1,5.73-4.11-.76-5.48-6.8-5.76-10A22,22,0,0,1,549.1,95c-6.35,5.71-15.44,12.12-20.68,7.24-1.8-1.66-2.73-4.92-2-8-3.44,3.16-4.14,4.59-6.24,6.78-2.43,2.59-4.93,4.54-8.37,3.6-4.63-1.31-4.32-7.14-3.33-11.92a54.53,54.53,0,0,1,5-12.86,153.67,153.67,0,0,1,9.65-14.33C524.51,63.62,527.91,62.79,529.15,65.16Z"/><path class="cls-4" d="M416.63,84c-9.31-7.44-17.92,4.89-21.76,10.88-2.3,3.63-4.59,2-4.14-3.58a42.19,42.19,0,0,1,5.08-16.58c2.91-5.2,5.16-6,7-8.72a3,3,0,0,0,.07-3.28A3.79,3.79,0,0,0,398,61.33c-4.3,1.66-9.25,8.93-11.54,16.81-3.29,11.35-4.72,26.12,4.87,27.89,8.5,1.58,13-21.73,21.39-16.22,4,2.68,4.69,8.1,9.14,11.63C432.47,109.92,448,83.59,442,78.5c-1-.8-3-1.47-4.08-.34-.74.73-.47,2-.66,3.44-.74,5.17-1.75,8.68-7.36,13.41C424.54,99.55,420.91,87.4,416.63,84Z"/><path class="cls-3" d="M276.94,93.76c.75-.41,2-1.17,3.5-1.87a18.05,18.05,0,0,1,5-1.5c3.15-.4,5.42,0,7.19,1.08s3.41,2.54,4.56,2.82,1.65-.53,3.7-1.82a68.44,68.44,0,0,1,6-3.42c6.25-3.16,10.51-4.23,13.11-4.35s3.44,1.3,3.73,2.11c.57,1.7-.49,4.42-2.57,4.26-2.61-.21-6.39,1.17-7.6,1.57a31.31,31.31,0,0,0-7,3.26,57.36,57.36,0,0,0-5.77,4.51c-1.79,1.34-4.27,2.78-6.39,1.87-.7-.27-1.68-1.8-2.11-2.68-1.59-3.39-5.07-4-9-1.78-4.14,2.47-8.12,5.11-9.83,5.83s-7.86,1.84-10.42-1.82c-5.23-7.54,3.22-19.83,13.74-19,3,.24,4,.81,4.82,2s.65,4.28-.87,4.18c-5.93-.4-11.93.79-12.77,6,0,.08-.12,1.93.64,2.36,1.16.64,2.58,0,3.36-.38C273.38,96.37,275.47,94.56,276.94,93.76Z"/><path class="cls-5" d="M362.2,138.56l-.6.22-.48.17-.67.16c-.51.11-1,.21-1.49.27a12.85,12.85,0,0,1-1.55.08,7.37,7.37,0,0,1-3.06-.61A5,5,0,0,1,352.1,137a5.55,5.55,0,0,1-.84-3.11,6.35,6.35,0,0,1,.44-2.34,4.25,4.25,0,0,1,1.33-1.83,6.67,6.67,0,0,1,1.49-.89,6.9,6.9,0,0,1,1.48-.39,11,11,0,0,1,1.58-.1,10.81,10.81,0,0,1,2.36.22c.63.14,1.31.33,2.05.56v2.57a8.18,8.18,0,0,0-1.56-.71,5.6,5.6,0,0,0-2.06-.3,4.14,4.14,0,0,0-2.25.54,2.86,2.86,0,0,0-1.18,1.28,3.26,3.26,0,0,0-.34,1.44,3.2,3.2,0,0,0,.37,1.5,3,3,0,0,0,1.16,1.12,4,4,0,0,0,1.9.41,6.2,6.2,0,0,0,1.31-.15v-1.28h-1.46v-2.2h4.32Z"/><path class="cls-5" d="M394.59,139.32h-8.18V128.49h8v2.17h-4.76v2h4.57v2.19h-4.57v2.31h4.91Z"/><path class="cls-5" d="M430.18,139.32h-2.92l-5.62-6v6h-3.23V128.49h2.91l5.61,6v-6h3.25Z"/><path class="cls-5" d="M464.94,131.12h-4v8.2H457.7v-8.2h-4v-2.63h11.22Z"/><path class="cls-5" d="M491.76,139.32h-3.27V128.49h3.27Z"/><path class="cls-5" d="M527.92,139.32H525l-5.62-6v6h-3.22V128.49h2.9l5.59,6v-6h3.27Z"/><path class="cls-5" d="M562.49,138.56l-.58.22-.5.17c-.15,0-.37.1-.68.16-.48.11-1,.21-1.45.27a13.76,13.76,0,0,1-1.59.08,7.25,7.25,0,0,1-3-.61A5,5,0,0,1,552.4,137a5.63,5.63,0,0,1-.85-3.11,6.57,6.57,0,0,1,.45-2.34,4,4,0,0,1,1.34-1.83,6.2,6.2,0,0,1,1.48-.89,6.9,6.9,0,0,1,1.48-.39,11,11,0,0,1,1.58-.1,10.74,10.74,0,0,1,2.36.22c.63.14,1.3.33,2,.56v2.57a8.47,8.47,0,0,0-1.56-.71,5.51,5.51,0,0,0-2.05-.3,4.24,4.24,0,0,0-2.27.54,3.11,3.11,0,0,0-1.18,1.28,3.54,3.54,0,0,0-.33,1.44,2.89,2.89,0,0,0,.38,1.5,2.79,2.79,0,0,0,1.16,1.12,3.88,3.88,0,0,0,1.87.41,6.31,6.31,0,0,0,1.33-.15v-1.28h-1.48v-2.2h4.33Z"/></svg>