<svg xmlns="http://www.w3.org/2000/svg" viewBox="0 0 595.28 175.75"><g style="isolation:isolate"><path d="M273.63,143.15c0,3.26,0,6.51,0,9.77a1.76,1.76,0,0,1-1.31,1.92,37.46,37.46,0,0,1-16.54,2.77c-8.71-.64-15.81-4.15-19.26-12.69-3.19-7.88-2.55-15.62,2.37-22.7,3-4.33,7.52-6.67,12.51-7.81A24.72,24.72,0,0,1,271.68,118c.27.18.5.42.76.62.73.55.83,1,.09,1.77-1.48,1.48-2.86,3.06-4.26,4.63-1,1.18-1.67,1.38-2.76.25-4.81-5-16.12-3-19.18,4.93-2.06,5.32-1.14,12.88,4,16.42,2.95,2,6.29,2.26,9.7,2a31,31,0,0,0,3.16-.51,1.19,1.19,0,0,0,1.1-1.37c0-1.9,0-3.79,0-5.69,0-1-.46-1.2-1.31-1.1a44.57,44.57,0,0,1-5.42.09c-.8,0-1.19-.28-1.16-1.18.05-2,0-4,0-5.93,0-.86.29-1.12,1.16-1.11,4.89.07,9.79.12,14.68.1,1.08,0,1.44.31,1.42,1.4-.05,3.26,0,6.51,0,9.76Z" fill="#fab600"/><path d="M326.83,135.93c0-6.55,0-13.1,0-19.64,0-1.08.33-1.44,1.41-1.45,5.63,0,11.26-.24,16.9.1A16.78,16.78,0,0,1,355.6,119c4.51,4,5.41,15.43-3.73,19-1.82.7-1.84.88-.72,2.45,2.57,3.59,4.58,7.52,6.93,11.24.84,1.32,1.59,2.69,2.4,4,.43.69.25.93-.54.93q-4.87,0-9.75.07a1.47,1.47,0,0,1-1.42-.94c-2.66-4.74-5.36-9.45-7.82-14.3a2.53,2.53,0,0,0-1.28-1.43c-1.75-.68-2.87,0-2.89,1.88q-.06,6.8,0,13.59c0,.8-.16,1.13-1,1.13-2.59,0-5.18,0-7.77,0-.83,0-1-.35-1-1.12,0-3.3-.11-6.59-.13-9.89s0-6.5,0-9.76Zm9.9-8.08h0c0,1.23,0,2.46,0,3.7,0,.77.32,1.23,1.18,1.21,2.09-.07,4.18,0,6.27-.22a5.72,5.72,0,0,0,3.63-1.88,4.44,4.44,0,0,0-1.15-6.77,7,7,0,0,0-3.2-.81c-1.81,0-3.61,0-5.42-.06-.89,0-1.28.39-1.28,1.25Z" fill="#fab600"/><path d="M282.08,135.73c0-6.63,0-13.26,0-19.88,0-.88.37-1.13,1.19-1.13,2.51,0,5,0,7.53,0,1,0,1.22.41,1.22,1.31,0,4.29,0,8.57,0,12.85,0,1.78.06,1.84,1.77,1.85,4.32,0,8.64,0,13,0,1.18,0,1.58-.38,1.56-1.57,0-4.33,0-8.65,0-13,0-.94.25-1.32,1.24-1.32,2.55,0,5.1-.06,7.65-.15.9,0,1.25.26,1.25,1.19q0,19.89-.05,39.79c0,.75-.28,1-1,1-2.68,0-5.35,0-8,0-.91,0-1.07-.41-1.07-1.22,0-4.94,0-9.88,0-14.82,0-1.14-.32-1.51-1.47-1.5q-6.66.06-13.33,0c-1.14,0-1.48.39-1.47,1.51,0,4.86-.05,9.72,0,14.58,0,1.17-.42,1.49-1.52,1.46-2.3-.06-4.61,0-6.91,0-1.05,0-1.48-.25-1.5-1.45C282,148.74,281.86,142.24,282.08,135.73Z" fill="#fab600"/><text transform="translate(204.01 172.86)" font-size="13.73" fill="#13110c" font-family="Poppins-Regular, Poppins" letter-spacing="0.01em">GLOBAL HUMAN RESOURCES</text><path d="M313.56,36.57c-.61,3-1.35,6-2.2,8.85a86.78,86.78,0,0,1-20.72,36.2,54.61,54.61,0,0,1-21.21,14.06,1.86,1.86,0,0,1-1.95-.22,61.08,61.08,0,0,1-10.72-10.35c-.63-.77-.27-1.09.48-1.45a104.74,104.74,0,0,0,26.15-17.51,80.57,80.57,0,0,0,18.7-25.37,2.56,2.56,0,0,0,.11-.24,79,79,0,0,0,6.89-32.36c0-1.77,0-3.54,0-5.31,0-1,.32-1.2,1.25-.9,4.11,1.31,3.35.49,4,4.51A82.51,82.51,0,0,1,313.56,36.57Z" fill="#a44091"/><path d="M343.88,35.91a101,101,0,0,1-7.14,34.46,94.58,94.58,0,0,1-9.95,18.29,85.08,85.08,0,0,1-9.63,11.23c-2.71,2.73-6,3.81-9.69,4.41a51.23,51.23,0,0,1-15.58.51,61.38,61.38,0,0,1-9.4-2c-.39-.11-.94-.21-1-.64s.58-.48.93-.64c10.27-4.86,20-10.6,28.43-18.27A82.42,82.42,0,0,0,329.07,60c.6-1.14,1.17-2.31,1.71-3.5a74.61,74.61,0,0,0,6.76-28c.11-2.67.24-5.34.14-8,0-.33-.22-.84.24-1s.61.33.85.61a40.56,40.56,0,0,1,3.85,5.42,5.6,5.6,0,0,1,.91,2.78C343.62,31.35,344,34.34,343.88,35.91Z" fill="#ed6855"/><path d="M297.85,35.23c-.46,1.16-1,2.31-1.49,3.44a72.82,72.82,0,0,1-15.13,21.1c-7.49,7.39-16.14,13.09-25.39,18-3,1.56-3,1.56-4.48-1.34a3.24,3.24,0,0,0-.17-.32c-.89-1.7-.88-1.7.75-2.65,10.83-6.32,19.11-15.19,25.74-25.74A96,96,0,0,0,284,35.85a107.16,107.16,0,0,0,6.17-18.12,118.22,118.22,0,0,0,2.42-14.6C292.83,1,292.84,1,295,1s4,0,6.05,0c1.65,0,1.77.17,1.81,1.76,0,1.16,0,2.31,0,3.46A68.07,68.07,0,0,1,297.85,35.23Z" fill="#7ec0ba"/><path d="M286.25,3.27a93.63,93.63,0,0,1-2.9,16,95.34,95.34,0,0,1-5.87,16,93.5,93.5,0,0,1-7.39,12.84,67.27,67.27,0,0,1-20.87,20c-.83.51-1.2.42-1.44-.56a60.21,60.21,0,0,1-1.44-6.89,58.94,58.94,0,0,1-.56-7.36c-.76-2.43.57-4,2.76-5.66a86.71,86.71,0,0,0,12.39-11.35,75.31,75.31,0,0,0,16.24-29c.6-2,1.38-3.51,3.61-3.94,1.37-.26,2.69-.76,4-1.13C286.34,1.72,286.39,1.76,286.25,3.27Z" fill="#668fca"/><path d="M325.69,53.16c-.34.77-.7,1.53-1.06,2.29a75.19,75.19,0,0,1-20.75,25.83,132.39,132.39,0,0,1-12.19,8.59c-.35.23-.88.72-1.15.37s.39-.73.73-1c7.93-6.68,13.76-15,18.55-24.09a97.65,97.65,0,0,0,6.82-16.29A99.85,99.85,0,0,0,320,35c1.53-9.21,2.11-18.48.68-27.78,0-.31-.26-.68.13-.9s.52.15.77.27a44.37,44.37,0,0,1,8.23,5.19,3.39,3.39,0,0,1,1.35,2.36,69.93,69.93,0,0,1,.46,9A70.21,70.21,0,0,1,325.69,53.16Z" fill="#be6c8f"/><path d="M342,80.74a57.34,57.34,0,0,1-8.82,10.74l-.18.17c-.26.18-.59.61-.82.41s0-.67.21-1c1.52-2.44,3.12-4.84,4.55-7.34q1.86-3.24,3.47-6.59a97.24,97.24,0,0,0,7.94-24.53c.28-1.5.56-3,.87-4.49,0-.2-.05-.54.31-.54a1.2,1.2,0,0,1,.13.55c0,1.44,0,2.88,0,4.32A50.32,50.32,0,0,1,342,80.74Z" fill="#fab753"/><path d="M270.39,6.44S252,17.56,247.79,37.87C247.79,37.87,263.15,26.22,270.39,6.44Z" fill="#81c1eb"/><path d="M249.22,68.07c-.83.51-1.2.42-1.44-.56a60.21,60.21,0,0,1-1.44-6.89,58.94,58.94,0,0,1-.56-7.36c-.76-2.43.57-4,2.76-5.66a86.71,86.71,0,0,0,12.39-11.35,74.07,74.07,0,0,1,12.81-1.1c1.26,0,2.5,0,3.74.09a93.5,93.5,0,0,1-7.39,12.84A67.27,67.27,0,0,1,249.22,68.07Z" fill="#2b2523" opacity="0.1" style="mix-blend-mode:darken"/><path d="M281.23,59.77c-7.49,7.39-16.14,13.09-25.39,18-3,1.56-3,1.56-4.48-1.34a3.24,3.24,0,0,0-.17-.32c-.89-1.7-.88-1.7.75-2.65,10.83-6.32,19.11-15.19,25.74-25.74A96,96,0,0,0,284,35.85a73.58,73.58,0,0,1,12.37,2.82A72.82,72.82,0,0,1,281.23,59.77Z" fill="#2b2523" opacity="0.1" style="mix-blend-mode:darken"/><path d="M269.43,95.68a1.86,1.86,0,0,1-1.95-.22,61.08,61.08,0,0,1-10.72-10.35c-.63-.77-.27-1.09.48-1.45a104.74,104.74,0,0,0,26.15-17.51,80.57,80.57,0,0,0,18.7-25.37,72.25,72.25,0,0,1,9.27,4.64,86.78,86.78,0,0,1-20.72,36.2A54.61,54.61,0,0,1,269.43,95.68Z" fill="#2b2523" opacity="0.1" style="mix-blend-mode:darken"/><path d="M309.82,65.15a97.65,97.65,0,0,0,6.82-16.29,73.21,73.21,0,0,1,8,6.59,75.19,75.19,0,0,1-20.75,25.83,132.39,132.39,0,0,1-12.19,8.59c-.35.23-.88.72-1.15.37s.39-.73.73-1C299.2,82.56,305,74.24,309.82,65.15Z" fill="#2b2523" opacity="0.1" style="mix-blend-mode:darken"/><path d="M336.74,70.37a94.58,94.58,0,0,1-9.95,18.29,85.08,85.08,0,0,1-9.63,11.23c-2.71,2.73-6,3.81-9.69,4.41a51.23,51.23,0,0,1-15.58.51,61.38,61.38,0,0,1-9.4-2c-.39-.11-.94-.21-1-.64s.58-.48.93-.64c10.27-4.86,20-10.6,28.43-18.27A82.42,82.42,0,0,0,329.07,60,74.72,74.72,0,0,1,336.74,70.37Z" fill="#2b2523" opacity="0.1" style="mix-blend-mode:darken"/><path d="M342,80.74a57.34,57.34,0,0,1-8.82,10.74l-.18.17c-.26.18-.59.61-.82.41s0-.67.21-1c1.52-2.44,3.12-4.84,4.55-7.34q1.86-3.24,3.47-6.59C341,78.34,341.54,79.53,342,80.74Z" fill="#2b2523" opacity="0.1" style="mix-blend-mode:darken"/></g></svg>