<svg id="Layer_1" data-name="Layer 1" xmlns="http://www.w3.org/2000/svg" xmlns:xlink="http://www.w3.org/1999/xlink" viewBox="0 0 595.28 175.75"><defs><style>.cls-1{fill:none;}.cls-2{fill:#e54c25;}.cls-3{clip-path:url(#clip-path);}.cls-4{clip-path:url(#clip-path-2);}.cls-5{fill:url(#linear-gradient);}.cls-6{clip-path:url(#clip-path-3);}.cls-7{clip-path:url(#clip-path-4);}.cls-8{fill:url(#linear-gradient-2);}.cls-9{clip-path:url(#clip-path-5);}.cls-10{clip-path:url(#clip-path-6);}.cls-11{fill:url(#linear-gradient-3);}.cls-12{clip-path:url(#clip-path-7);}.cls-13{clip-path:url(#clip-path-8);}.cls-14{fill:url(#linear-gradient-4);}</style><clipPath id="clip-path"><rect class="cls-1" x="334.72" y="66.71" width="85.65" height="48.7"/></clipPath><clipPath id="clip-path-2"><path class="cls-1" d="M383.84,78c-25.54,25.17-49.12,37.42-49.12,37.42h44.51c14,0,16.48-7.79,16.48-7.79l6.75-13.13c11.33-24.12,17.91-27.67,17.91-27.67-1.46-.08-2.86-.11-4.21-.11C392.09,66.72,383.84,78,383.84,78"/></clipPath><linearGradient id="linear-gradient" x1="-293.98" y1="671.72" x2="-286.13" y2="671.72" gradientTransform="matrix(0, -6.2, -6.2, 0, 4544.63, -1708.32)" gradientUnits="userSpaceOnUse"><stop offset="0" stop-color="#eb6732"/><stop offset="0.35" stop-color="#ea6432"/><stop offset="0.59" stop-color="#e55b32"/><stop offset="0.8" stop-color="#dd4c33"/><stop offset="0.98" stop-color="#d23734"/><stop offset="1" stop-color="#d03434"/></linearGradient><clipPath id="clip-path-3"><rect class="cls-1" x="334.72" y="17.01" width="85.65" height="49.99"/></clipPath><clipPath id="clip-path-4"><path class="cls-1" d="M334.72,17s23.58,12.23,49.12,37.42c0,0,9.21,12.57,36.53,11.14,0,0-6.58-3.53-17.91-27.66l-6.75-13.12S393.23,17,379.23,17H334.72"/></clipPath><linearGradient id="linear-gradient-2" x1="-476.63" y1="671.71" x2="-468.78" y2="671.71" gradientTransform="translate(4543.3 2972.93) rotate(90) scale(6.2)" xlink:href="#linear-gradient"/><clipPath id="clip-path-5"><rect class="cls-1" x="416.46" y="34.33" width="52.12" height="30.17"/></clipPath><clipPath id="clip-path-6"><path class="cls-1" d="M435.48,34.33c-6.52.42-8.56,7-8.56,7C425.7,43.78,419,54.47,419,54.47c-2.57,2.8-1.77,4.61-1.77,4.61,1.89,5.29,6.28,5.19,6.28,5.19,8.46.23,24.9-16.9,24.9-16.9,13.18-12.49,20.14-13,20.14-13h-33.1"/></clipPath><linearGradient id="linear-gradient-3" x1="-534.16" y1="749.57" x2="-526.3" y2="749.57" gradientTransform="matrix(0, 3.81, 3.81, 0, -2416.86, 2071.98)" xlink:href="#linear-gradient"/><clipPath id="clip-path-7"><rect class="cls-1" x="416.46" y="68.2" width="52.12" height="30.07"/></clipPath><clipPath id="clip-path-8"><path class="cls-1" d="M423.54,68.33s-4.39-.13-6.28,5.15c0,0-.8,1.81,1.77,4.63,0,0,6.67,10.69,7.89,13.17,0,0,2,6.55,8.56,7h33.1s-7-.56-20.14-13.06c0,0-16.22-16.88-24.72-16.88h-.18"/></clipPath><linearGradient id="linear-gradient-4" x1="-237.17" y1="641.83" x2="-229.32" y2="641.83" gradientTransform="matrix(0, -3.81, -3.81, 0, 2890.28, -806.24)" xlink:href="#linear-gradient"/></defs><polyline class="cls-2" points="257.67 91.89 257.67 46.98 265.19 46.98 265.19 85.56 299.31 85.56 299.31 91.89"/><polyline class="cls-2" points="313.71 91.89 313.71 46.98 357.07 46.98 357.07 52.9 321.23 52.9 321.23 65.56 343.1 65.56 343.1 71.49 321.23 71.49 321.23 85.69 357.4 85.69 357.4 91.89"/><rect class="cls-2" x="472.02" y="46.98" width="7.36" height="44.92"/><path class="cls-2" d="M541,53.05H508.79V65.56h28.63q6.18,0,8.41,2.27c1.46,1.51,2.19,4.29,2.19,8.38v5c0,4.14-.73,6.94-2.19,8.43s-4.29,2.22-8.37,2.22H510.91c-4.09,0-6.88-.75-8.38-2.23s-2.26-4.31-2.26-8.44V80l7.05-1.67v7.23h33.79V72.14H512.56c-4,0-6.82-.75-8.31-2.22S502,65.63,502,61.51V57.58c0-4.14.75-7,2.25-8.42S508.51,47,512.57,47h24.25c3.89,0,6.64.69,8.25,2.09s2.42,3.95,2.42,7.72v.94L541,59.56"/><g class="cls-3"><g class="cls-4"><rect class="cls-5" x="334.72" y="66.71" width="85.65" height="48.7"/></g></g><g class="cls-6"><g class="cls-7"><rect class="cls-8" x="334.72" y="17.01" width="85.65" height="49.99"/></g></g><g class="cls-9"><g class="cls-10"><rect class="cls-11" x="416.46" y="34.33" width="52.12" height="30.17"/></g></g><g class="cls-12"><g class="cls-13"><rect class="cls-14" x="416.46" y="68.2" width="52.12" height="30.07"/></g></g><path class="cls-2" d="M49.93,71H61.6V91.89H56.9v-3.4c-3.78,2.82-8,4.57-12.18,4.57C33.11,93.06,22,83.09,22,69.8A23.27,23.27,0,0,1,45.3,46.54a23,23,0,0,1,13.49,4.3l.45.33v4.1H54.62V53.64A18.62,18.62,0,1,0,45.3,88.37a17.5,17.5,0,0,0,11.6-4.82v-8h-7"/><path class="cls-2" d="M96.78,86c.78,1.23.91,1.23,1.63,1.23h2.67v4.64H98.41c-2.22,0-3.78-.73-5.54-3.4L86.09,78c-2.86-4.49-3.52-4.75-9.44-4.75H73.19V91.89H68.5V52.33H66.81v-4.7H83.94c9.84,0,14.86,6.41,14.86,12.85,0,5.73-4,11.33-11.73,12.59A17.09,17.09,0,0,1,92,78.54m2.16-18.06c0-4-3-8.15-10.17-8.15H73.19V68.62H83.94c7.17,0,10.17-4.16,10.17-8.14"/><path class="cls-2" d="M122.2,46.53h3.26L142.2,91.1l-4.3,1.56-4.3-11.25H114.17l-3.91,10.48h-4.49V87.25H107m8.87-10.49h16l-8.08-21.37Z"/><polyline class="cls-2" points="182.54 91.89 178.49 91.89 152.3 56.31 152.3 91.89 147.62 91.89 147.62 52.33 145.91 52.33 145.91 47.63 151.71 47.63 177.91 83.28 177.91 47.63 182.54 47.63"/><path class="cls-2" d="M207,47.63a22.13,22.13,0,0,1,0,44.26H191.78V52.33h-1.69v-4.7M207,87.25a17.46,17.46,0,0,0,0-34.92h-10.5V87.25Z"/><path class="cls-2" d="M98.78,158.47V134.41h7.62a7.81,7.81,0,0,1,5.48,1.85,6.41,6.41,0,0,1,2.05,5,6.51,6.51,0,0,1-1.06,3.72,6,6,0,0,1-2.85,2.35,14.92,14.92,0,0,1-5.23.72h-2.55v10.43m3.57-21h-3.57V145H106a4.73,4.73,0,0,0,3.23-1,3.49,3.49,0,0,0,1.15-2.82c0-2.47-1.53-3.69-4.57-3.69"/><path class="cls-2" d="M139.26,134.1a12.93,12.93,0,0,1,9.27,3.51,11.7,11.7,0,0,1,3.71,8.85,11.47,11.47,0,0,1-3.74,8.79,13.23,13.23,0,0,1-9.41,3.49,12.47,12.47,0,0,1-9.05-3.49,11.6,11.6,0,0,1-3.62-8.71,11.93,11.93,0,0,1,3.64-8.93,12.72,12.72,0,0,1,9.2-3.51m.15,3.27a9.25,9.25,0,0,0-6.77,2.58,8.72,8.72,0,0,0-2.66,6.59,8.53,8.53,0,0,0,2.67,6.45,9.87,9.87,0,0,0,13.37-.06,8.79,8.79,0,0,0,2.68-6.54A8.62,8.62,0,0,0,146,140a9.17,9.17,0,0,0-6.61-2.6"/><path class="cls-2" d="M167.13,158.47v-24h6a8.71,8.71,0,0,1,5.78,1.81,6.08,6.08,0,0,1,2.13,4.87A6,6,0,0,1,177,147a10.49,10.49,0,0,1,2.26,2.07,43,43,0,0,1,3.1,4.54c.84,1.38,1.5,2.41,2,3.1l1.27,1.72h-4.09l-1-1.6-.21-.29-.69-1-1.05-1.75L177.41,152a19.9,19.9,0,0,0-1.95-2.36l-1.6-1.26a5.39,5.39,0,0,0-2.41-.38h-.89v10.46m1-21.1h-1V145h1.31a9.75,9.75,0,0,0,3.58-.46l1.52-1.35a4,4,0,0,0,.54-2.06,3.67,3.67,0,0,0-.6-2.05,3.27,3.27,0,0,0-1.69-1.29,12,12,0,0,0-3.62-.38"/><polyline class="cls-2" points="193.64 134.41 213.71 134.41 213.71 137.48 205.33 137.48 205.33 158.45 201.89 158.45 201.89 137.48 193.64 137.48"/><path class="cls-2" d="M247.9,158.42v-24H256a17.05,17.05,0,0,1,7.75,1.47,11.16,11.16,0,0,1,4.53,4.33,12.11,12.11,0,0,1,.77,10.84,12,12,0,0,1-6.72,6.45,13.31,13.31,0,0,1-2.49.71,33.77,33.77,0,0,1-4.34.18m.14-20.91h-4.3v17.85h4.4a16.64,16.64,0,0,0,4-.36,8.92,8.92,0,0,0,2.39-.89l1.74-1.33a8.84,8.84,0,0,0,2.55-6.52,8.24,8.24,0,0,0-2.61-6.3,8.62,8.62,0,0,0-2.21-1.5,9.12,9.12,0,0,0-2.36-.77,25.41,25.41,0,0,0-3.6-.18"/><rect class="cls-2" x="284.86" y="134.44" width="3.43" height="24.02"/><path class="cls-2" d="M324.89,152.89v3.78a18,18,0,0,1-8.73,2.06,13.53,13.53,0,0,1-6.83-1.61,11.84,11.84,0,0,1-4.44-4.47,12,12,0,0,1-1.64-6.13,11.67,11.67,0,0,1,3.75-8.81,12.85,12.85,0,0,1,9.22-3.58,21.62,21.62,0,0,1,8.41,2v3.69a16.54,16.54,0,0,0-8.24-2.4,9.43,9.43,0,0,0-6.84,2.61,9.15,9.15,0,0,0-.05,13,9.51,9.51,0,0,0,6.85,2.55,15.57,15.57,0,0,0,8.54-2.68"/><polyline class="cls-2" points="353.25 134.44 357.55 134.44 347.14 145.85 360.11 158.47 355.41 158.47 343.14 146.6 343.14 158.47 339.71 158.47 339.71 134.44 343.14 134.44 343.14 145.42"/><path class="cls-2" d="M379.27,148.39l-2.61-1.59a11.79,11.79,0,0,1-3.5-3,5.59,5.59,0,0,1-1-3.34,5.92,5.92,0,0,1,2-4.61,7.4,7.4,0,0,1,5.11-1.77,9.58,9.58,0,0,1,5.52,1.69v3.91a8,8,0,0,0-5.6-2.5,4.59,4.59,0,0,0-2.75.78,2.34,2.34,0,0,0-1.09,2l.8,2a9.33,9.33,0,0,0,2.57,2l2.62,1.57q4.39,2.63,4.39,6.67a6.14,6.14,0,0,1-1.93,4.69,7,7,0,0,1-5,1.81,10.57,10.57,0,0,1-6.48-2.18v-4.37q2.79,3.52,6.45,3.52a4,4,0,0,0,2.69-.9,2.81,2.81,0,0,0,1.08-2.25c0-1.46-1.06-2.84-3.17-4.16"/><path class="cls-2" d="M411.78,134.1a13,13,0,0,1,9.28,3.51,11.73,11.73,0,0,1,3.7,8.85,11.49,11.49,0,0,1-3.73,8.79,13.28,13.28,0,0,1-9.42,3.49,12.49,12.49,0,0,1-9.05-3.49,11.6,11.6,0,0,1-3.62-8.71,12,12,0,0,1,3.64-8.93,12.73,12.73,0,0,1,9.2-3.51m.15,3.27a9.27,9.27,0,0,0-6.77,2.58,8.75,8.75,0,0,0-2.66,6.59,8.57,8.57,0,0,0,2.67,6.45,9.87,9.87,0,0,0,13.37-.06,8.79,8.79,0,0,0,2.68-6.54,8.62,8.62,0,0,0-2.68-6.42,9.15,9.15,0,0,0-6.61-2.6"/><polyline class="cls-2" points="458.62 134.44 461.89 134.44 461.89 158.47 458.94 158.47 442.88 139.96 442.88 158.47 439.65 158.47 439.65 134.44 442.43 134.44 458.62 153.1"/><path class="cls-2" d="M563.33,28.36a9.77,9.77,0,0,1,4.95,1.33,10,10,0,0,1,3.62,3.63,9.83,9.83,0,0,1,0,9.89,9.93,9.93,0,0,1-8.58,4.94,10,10,0,0,1-5-1.32,9.9,9.9,0,0,1-3.62-13.53,10.1,10.1,0,0,1,3.64-3.62,9.91,9.91,0,0,1,5-1.32m0,1.64a8.3,8.3,0,0,0-8.27,8.27,7.91,7.91,0,0,0,2.42,5.82,8.23,8.23,0,0,0,11.67,0,8.21,8.21,0,0,0,0-11.65A7.9,7.9,0,0,0,563.33,30m-2.25,13.58h-1.72V32.92h3.69a8.7,8.7,0,0,1,2.76.32l1.29,1,.5,1.55a2.79,2.79,0,0,1-.86,2,3.37,3.37,0,0,1-2.2,1l1.14.83A12.46,12.46,0,0,1,567,41.51l1.29,2.07h-2.11l-.94-1.66a10,10,0,0,0-1.59-2.34l-1.57-.53h-1Zm0-9.2v3.2h2.1a3.77,3.77,0,0,0,2-.39l.62-1.22-.6-1.24a4.45,4.45,0,0,0-2.11-.35Z"/></svg>