<svg xmlns="http://www.w3.org/2000/svg" viewBox="0 0 595.28 175.75"><path d="M490.32,84.06a39.26,39.26,0,0,1-37.05,47.41V103.59a39.13,39.13,0,0,1-26.56,18.7,38.28,38.28,0,0,1-7.23.67,39.22,39.22,0,0,1-39.23-39.22h23.91a39.1,39.1,0,0,1-14.45-25.53A39.2,39.2,0,0,1,424.82,14V41.09a39.22,39.22,0,0,1,27.83-19,38.77,38.77,0,0,1,6-.46A39.19,39.19,0,0,1,497.86,59H472.77A39.25,39.25,0,0,1,490.32,84.06Z" fill="#8bbf49"/><rect x="424" y="124.82" width="27.18" height="36.9" fill="#8bbf49"/><text transform="translate(97.41 126.55)" font-size="124.27" fill="#010101" font-family="TTNormsPro-Light, TT Norms Pro" font-weight="300" letter-spacing="0em">grsm</text></svg>