<svg id="Layer_1" data-name="Layer 1" xmlns="http://www.w3.org/2000/svg" viewBox="0 0 595.28 175.75"><defs><style>.cls-1{fill:#1226aa;}</style></defs><path class="cls-1" d="M230.71,126v-2h5.17V106.43H222.05V124h5.28v2h-19v-2h4.84V88.2h-4.84v-2h19v2h-5.28v15.86h13.83V88.2h-5.17v-2h18.86v2h-4.9V124h4.9v2Z"/><path class="cls-1" d="M257.85,91V86.22h8.62V91Zm-4.22,35V124h4.62V99.34h-4.62v-2h13.18V124h4.39V126Z"/><path class="cls-1" d="M273.71,126v-2h4.78V83h-4.78V81.1H287.1V124h4.51v2Z"/><path class="cls-1" d="M305,126c-4,0-7.2-1.81-7.2-6.14V99.28h-4.68V97.37h4.68v-11h8v11h6.64v1.91h-6.64V124h6.77V126Z"/><path class="cls-1" d="M331,126.74c-9.06,0-16.61-5.67-16.61-15.19,0-9.18,7.66-14.91,16.39-14.91,9.11,0,16,6.34,16,15.65C346.74,121.17,339.6,126.74,331,126.74Zm-7.1-15.3c0,2.53-.11,8.22,1.19,10.53a6.18,6.18,0,0,0,5.69,3.14c6.64,0,6.75-7.26,6.69-12.15v-1.81c-.05-5.18.62-12.66-6.76-12.66C323.66,98.49,323.88,106.37,323.88,111.44Z"/><path class="cls-1" d="M370.23,126V124h3.83V106.66c0-3.16,0-7-4.15-7-3.28,0-6.36,3.2-7.16,6.19a19.17,19.17,0,0,0-.28,4.34V124h4.39V126H349.3V124h4.62V99.34H349.3v-2h13.17v4.38a12.31,12.31,0,0,1,5.46-4.22,13.83,13.83,0,0,1,5.18-1.07A15,15,0,0,1,377,97c4.67,1.35,5.79,4.38,5.79,8.78V124h4.5V126Z"/><path class="cls-1" d="M191.54,161v-1h2.37V141.8h-2.37v-1h9.35v1h-2.43V160h2.43v1Zm11.24,0v-1h2.35l-6.47-9.44c2.6-2.91,5.2-5.83,7.77-8.75h-3v-1h6.86v1H208c-1.88,2.15-3.76,4.32-5.65,6.46l8,11.73h1.49v1Z"/><path class="cls-1" d="M225.22,161v-2.27c-1.72,1.8-3,2.64-5.56,2.64-3.68,0-4.25-1.8-4.25-5v-8.95h-2.25v-1h6.65v10.69c0,1.28.23,2.63,1.83,2.63a3,3,0,0,0,1.46-.46c1.77-1.06,2.12-2.72,2.12-4.63v-7.26h-2.49v-1h6.89V160h2.28v1Z"/><path class="cls-1" d="M246.2,161c-1.12,0-2.77-.06-3.52-1.07a4.78,4.78,0,0,1-.48-1,6.4,6.4,0,0,1-5,2.4c-2.23,0-4.08-1.08-4.08-3.49a4.55,4.55,0,0,1,2-3.64c1.88-1.39,4.69-1.65,6.93-1.88v-2.73c0-1.84-.39-2.64-2.42-2.64-.51,0-2.08.22-2.08,1,0,.54.68,1.06.68,1.85a1.91,1.91,0,0,1-2,1.95,1.88,1.88,0,0,1-1.95-1.91c0-2.83,3.86-3.77,6.09-3.77a9.17,9.17,0,0,1,3.46.62c1.86.8,2.32,1.9,2.32,3.8V160h2.31v1Zm-9-4.29a2.33,2.33,0,0,0,2.38,2.54,2.55,2.55,0,0,0,1.51-.56,3.16,3.16,0,0,0,1-2.7v-2.65C239.79,153.47,237.22,153.81,237.22,156.7Z"/><path class="cls-1" d="M249.65,161v-1h2.44V139.14h-2.44v-.94h6.82V160h2.28v1Z"/><path class="cls-1" d="M272.67,161c-1.12,0-2.78-.06-3.51-1.07a5.43,5.43,0,0,1-.5-1,6.37,6.37,0,0,1-5,2.4c-2.23,0-4.09-1.08-4.09-3.49a4.53,4.53,0,0,1,2-3.64c1.88-1.39,4.68-1.65,6.94-1.88v-2.73c0-1.84-.4-2.64-2.44-2.64-.5,0-2.08.22-2.08,1,0,.54.7,1.06.7,1.85a1.92,1.92,0,0,1-2,1.95,1.88,1.88,0,0,1-1.95-1.91c0-2.83,3.86-3.77,6.09-3.77a9.2,9.2,0,0,1,3.46.62c1.86.8,2.32,1.9,2.32,3.8V160H275v1Zm-9-4.29a2.33,2.33,0,0,0,2.37,2.54,2.56,2.56,0,0,0,1.52-.56,3.14,3.14,0,0,0,1-2.7v-2.65C266.26,153.47,263.69,153.81,263.69,156.7Z"/><path class="cls-1" d="M298.62,161H283.27v-1h2.43V141.8h-2.43v-1h9.4v1h-2.39V160h6.06c.31-1.78.61-3.55.94-5.32h1.38Z"/><path class="cls-1" d="M312.06,161v-2.27c-1.72,1.8-3,2.64-5.55,2.64-3.68,0-4.25-1.8-4.25-5v-8.95H300v-1h6.65v10.69c0,1.28.24,2.63,1.84,2.63a3,3,0,0,0,1.45-.46c1.78-1.06,2.12-2.72,2.12-4.63v-7.26h-2.49v-1h6.89V160h2.29v1Z"/><path class="cls-1" d="M340.44,161v-1h1.89v-9c0-1.54.12-3.46-2-3.46a3.44,3.44,0,0,0-2.29,1c-1.32,1.28-1.34,2.93-1.34,4.61V160h2.08v1h-8.32v-1h1.89v-8.8c0-1.55,0-3.6-2.09-3.6a3.24,3.24,0,0,0-2.5,1.23,5.45,5.45,0,0,0-1,3.83V160h2.16v1h-8.75v-1h2.28V147.47h-2.28v-1h6.64v2.17c1.39-1.66,2.65-2.67,5-2.67a4.86,4.86,0,0,1,5,3,5.6,5.6,0,0,1,5.2-3c3.46,0,4.85,1.63,4.85,4.92V160h2.15v1Z"/><path class="cls-1" d="M366.62,158.76a6.09,6.09,0,0,1-5.08,2.64c-2.14,0-3.35-.93-4.66-2.5v10.2h2.8v1h-9.46v-1h2.26V147.47h-2.26v-1h6.63l0,2.12c1.22-1.55,2.37-2.55,4.46-2.55a6.47,6.47,0,0,1,2.75.63c2.86,1.34,4.05,4.23,4.05,7.29A7.55,7.55,0,0,1,366.62,158.76ZM358.74,148c-1.75,1.29-2.07,3.75-2.07,5.78a8.81,8.81,0,0,0,.73,4,4.07,4.07,0,0,0,3.25,2.42c2.77,0,2.72-4.08,2.72-6s.05-6.91-2.86-6.91A3,3,0,0,0,358.74,148Z"/><path class="cls-1" d="M381.53,161v-2.27c-1.72,1.8-3,2.64-5.56,2.64-3.69,0-4.26-1.8-4.26-5v-8.95h-2.26v-1h6.67v10.69c0,1.28.23,2.63,1.82,2.63a3,3,0,0,0,1.46-.46c1.78-1.06,2.13-2.72,2.13-4.63v-7.26H379v-1h6.89V160h2.3v1Z"/><path class="cls-1" d="M401.41,151.24a2.08,2.08,0,0,1-2.2-2c0-.9.6-1.4.6-1.62s-.29-.34-.48-.34c-.46,0-1.35,1.12-1.58,1.43a7.83,7.83,0,0,0-1.39,4.76V160h2.88v1h-9.6v-1H392V147.47h-2.35v-1h6.74v2.62c1.1-1.71,2.09-3.08,4.32-3.08a2.83,2.83,0,0,1,3,2.89A2.21,2.21,0,0,1,401.41,151.24Z"/><path class="cls-1" d="M312.61,49.27a12.17,12.17,0,0,1-2.2,7.07H315V20.77H300.29V35.29C308.25,37.76,312.61,42.87,312.61,49.27Z"/><path class="cls-1" d="M287.15,34a34.44,34.44,0,0,1,8.77,1.41c-5-.88-12.77.39-16.79,3.55V56.34h14.74V36.61a18.55,18.55,0,0,1,7.07,2.86V56.34h3.19a15.86,15.86,0,0,1-13.5,4.71v.7h0c14,1.11,19.94-5.54,19.94-13,0-8.8-8.27-13.94-16.7-15v-13H279.13V33.9c-9.53,1.91-18.86,7.58-18.86,17,0,14.44,20.18,23.39,37.76,23.39,26.7,0,47.25-12.9,47.25-31,0-21.93-29.67-37.57-53-37.57-26.69,0-46.35,17-46.35,35.08h0c0,9.39,5.27,17.24,11.91,22.72l.51-.33c-5.26-4.38-10-11.18-10-20.55,1.4-19.83,25.83-31,47.58-31,15.37,0,43,3.56,43,29.28,0,13.41-14.34,30.86-44.45,30.86-15.41,0-27.4-8.26-27.4-20.13C267.11,41.33,275.16,34,287.15,34Z"/><path class="cls-1" d="M339.62,71.44a3.57,3.57,0,1,1,3.59-3.57A3.57,3.57,0,0,1,339.62,71.44Zm0-6.49a2.92,2.92,0,1,0,2.87,2.92A2.9,2.9,0,0,0,339.62,65Zm1.81,4.81h-.85l-.72-1.37h-1v1.35h-.73V65.81h1.88a1.24,1.24,0,0,1,1.37,1.28,1.26,1.26,0,0,1-.83,1.21Zm-1.37-2.06a.56.56,0,0,0,.62-.61.54.54,0,0,0-.62-.61H338.9V67.7Z"/></svg>