<svg id="Layer_1" data-name="Layer 1" xmlns="http://www.w3.org/2000/svg" xmlns:xlink="http://www.w3.org/1999/xlink" viewBox="0 0 595.28 175.75"><defs><style>.cls-1{fill:url(#linear-gradient);}.cls-2{fill:url(#linear-gradient-2);}.cls-3,.cls-9{fill:#4ea947;}.cls-4{fill:#038745;}.cls-5{fill:#fff;}.cls-6{fill:url(#linear-gradient-3);}.cls-7,.cls-8{fill:#0a743f;}.cls-7,.cls-9{fill-rule:evenodd;}.cls-10{fill:#4fa947;}</style><linearGradient id="linear-gradient" x1="241.29" y1="5.79" x2="343.63" y2="108.13" gradientUnits="userSpaceOnUse"><stop offset="0" stop-color="#bdd28a"/><stop offset="1" stop-color="#078241"/></linearGradient><linearGradient id="linear-gradient-2" x1="242.37" y1="6.87" x2="342.55" y2="107.05" gradientUnits="userSpaceOnUse"><stop offset="0" stop-color="#90bb40"/><stop offset="1" stop-color="#46a147"/></linearGradient><linearGradient id="linear-gradient-3" x1="304.78" y1="60.85" x2="294.58" y2="42.45" gradientUnits="userSpaceOnUse"><stop offset="0" stop-color="#fff"/><stop offset="0.33" stop-color="#fdfefc"/><stop offset="0.53" stop-color="#f7faf4"/><stop offset="0.69" stop-color="#edf4e6"/><stop offset="0.83" stop-color="#deebd2"/><stop offset="0.96" stop-color="#cbdfb8"/><stop offset="1" stop-color="#c3daad"/></linearGradient></defs><path class="cls-1" d="M342.43,5.67h-101V108.25h102.1V5.67Zm0,101.5H242.49V6.75h99.94Z"/><rect class="cls-2" x="242.49" y="6.75" width="99.93" height="100.42"/><path class="cls-3" d="M263.78,62.09c1.46-.11,2.69-.26,3.7-.41l.33-1.66C266.88,60.45,265.42,61.21,263.78,62.09Z"/><path class="cls-4" d="M263.78,62.09c-4.53,2.43-10.46,5.78-10.46,5.78a4.21,4.21,0,0,1-.39-.58,4.26,4.26,0,0,0,.59,1s7.48.13,12.85-.28c.3-1.88.67-4,1.11-6.3C266.47,61.83,265.24,62,263.78,62.09Z"/><path class="cls-4" d="M281.77,58.38c.52-1.85,1.05-3.68,1.58-5.47-1.59.64-3.08,1.27-4.45,1.87A221.37,221.37,0,0,0,273.43,89s-2.32,1.72-6.09-.1a1.62,1.62,0,0,1-.47-.25v.07C266,94.63,270,96.82,270,96.82c3.46,2.31,5.95,1.15,5.95,1.15a279.55,279.55,0,0,1,4.43-32c3.57-.78,8.37-2.14,12-3.22.55-2.56,1.17-5.29,1.87-8.16C290.21,55.79,286,57,281.77,58.38Z"/><path class="cls-4" d="M286.14,43.88C289.32,34,292,27,292,27a10.88,10.88,0,0,0-4.58,0c-1.76,4.68-4,11.18-6.21,19Q283.67,44.89,286.14,43.88Z"/><path class="cls-4" d="M316.05,34.46c2.56-7,4.4-11.08,4.4-11.08a23.27,23.27,0,0,0-6.26.27c-1.23,3.41-2.64,7.52-4.13,12.25C312.14,35.36,314.13,34.89,316.05,34.46Z"/><path class="cls-4" d="M311.76,47.06c.41-1.3.82-2.56,1.22-3.77-1.87.45-3.73.92-5.55,1.42a301.35,301.35,0,0,0-10.37,54.94,8.13,8.13,0,0,1-6.06.18c-.43,4.59-.6,7.43-.6,7.43h10c1.83-20.78,4.1-35,8.35-50C323.36,52.56,340,42,343.51,39.45v-.29a125.47,125.47,0,0,0-18,1.6C321.48,42.73,316.88,44.87,311.76,47.06Z"/><path class="cls-5" d="M316.05,34.46c-1.92.43-3.91.9-6,1.44,1.49-4.73,2.9-8.84,4.13-12.25,2.5-6.94,4.23-10.91,4.23-10.91a10,10,0,0,0-8.49.08c-4.78,2.92-7.85,14.33-7.85,14.33-1.41,4.19-2.69,8.29-3.85,12.23-3.88,1.3-7.93,2.79-12.09,4.5q-2.46,1-5,2.13c2.2-7.87,4.45-14.37,6.21-19,2-5.27,3.37-8.23,3.37-8.23-1-1.29-5.26-.81-5.26-.81-4.25.37-6.56,5.66-6.56,5.66a187.87,187.87,0,0,0-9.24,28q-2.16,1.16-4.35,2.39a55.57,55.57,0,0,0-11.41,7.91s-2.57,2.65-1,5.37a4.21,4.21,0,0,0,.39.58s5.93-3.35,10.46-5.78c1.64-.88,3.1-1.64,4-2.07l-.33,1.66c-.44,2.31-.81,4.42-1.11,6.3-.94,6-1.21,9.54-1.21,9.54-1,8.08.8,10.44,1.71,11.1a1.62,1.62,0,0,0,.47.25c3.77,1.82,6.09.1,6.09.1a221.37,221.37,0,0,1,5.47-34.19c1.37-.6,2.86-1.23,4.45-1.87,3.65-1.49,7.83-3.08,12.42-4.63-.57,2.15-1.09,4.25-1.58,6.27-.7,2.87-1.32,5.6-1.87,8.16-2.91,13.49-3.92,22.22-3.92,22.22-2.12,10.92,0,13,0,13a7.21,7.21,0,0,0,2.6,1.86,8.13,8.13,0,0,0,6.06-.18,301.35,301.35,0,0,1,10.37-54.94c1.82-.5,3.68-1,5.55-1.42,4.06-1,8.24-1.84,12.51-2.53a125.47,125.47,0,0,1,18-1.6V30.87S332.81,30.73,316.05,34.46Z"/><path class="cls-6" d="M332.85,39.8a101.21,101.21,0,0,1,10.66-.64V30.87a48.08,48.08,0,0,0-5.46.58c-60,12.39-84.73,36.42-84.73,36.42s11-6.22,14.49-7.85c-1.51,7.47-2.21,13.13-2.49,15.8a38.65,38.65,0,0,0,9.86-2.06c1-6.77,2.32-13.15,3.72-19,4.54-2,10.29-4.28,16.87-6.5-1.8,6.83-3.19,13-4.27,18.31,4-2.09,8.05-4.43,12.06-6.87,1.24-5.35,2.56-10.38,3.87-15A158.21,158.21,0,0,1,332.85,39.8Z"/><path class="cls-5" d="M309.65,93h-1v-.35h2.38V93h-1v2.86h-.42Z"/><path class="cls-5" d="M314.11,94.42c0-.45-.05-1-.05-1.39h0c-.12.38-.24.78-.41,1.22l-.56,1.56h-.32l-.52-1.53c-.15-.46-.28-.86-.37-1.25h0c0,.4,0,.94-.06,1.42l-.08,1.38h-.4l.22-3.21h.53l.55,1.55c.13.4.24.75.32,1.08h0c.09-.32.2-.67.35-1.08l.57-1.55h.53l.2,3.21h-.41Z"/><path class="cls-7" d="M190.57,122l-3.76,19.19c-2.74,1.17-6.44,2.88-5.53,6.27l4.71-1.64s-1.9,6.51-1.9,10c.2,1.95.65,4.48,5.36,4.11q1.71-8,3.35-16.1l12.09-2.5-1.56,6.68c-.71,3-1.74,7.07-1.28,9.2.56,1.88,1.66,2.85,5.42,2.72L215.35,122h-6.64l-3,14L194,138.38,197.44,122Z"/><path class="cls-7" d="M243.5,127.64l-4.57,22.1a28.71,28.71,0,0,0-1.17,6.62c.39,3.65,3.31,3.89,5.39,3.82l6.74-32.54Z"/><path class="cls-7" d="M352.11,122l-5.85,27.77a28.71,28.71,0,0,0-1.17,6.62c.39,3.65,3.49,3.89,5.57,3.82L358.72,122Z"/><path class="cls-7" d="M254.32,135.81l-2.88,13.93a28.71,28.71,0,0,0-1.17,6.62c.39,3.65,3.31,3.89,5.39,3.82l5-24.37Z"/><path class="cls-7" d="M405.4,151.08c1-4.69,2.4-9,1.37-11.56-2.35-5.85-10.78-5.16-14.5-1.17a16.47,16.47,0,0,0-.41-2.64h-5s-.12,2.24-.43,4.1c-.48,4-2.39,12.89-3.85,19.7h6.18c1.23-4.37,2.64-13.67,4.59-17.13,1.33-2.13,5.83-3.68,7-.12.58,1.28-1.44,7-2,11-.49,3.6-.93,6.69,5.15,6.56Z"/><path class="cls-7" d="M379.2,151.08c1-4.69,2.41-9,1.38-11.56-2.35-5.85-10.79-5.16-14.5-1.17a18.56,18.56,0,0,0-.41-2.64h-5s-.13,2.24-.43,4.1c-.49,4-2.39,12.89-3.85,19.7h6.18c1.23-4.37,2.64-13.67,4.59-17.13,1.32-2.13,5.82-3.68,7-.12.59,1.28-1.43,7-2,11-.49,3.6-.93,6.69,5.16,6.56Z"/><path class="cls-8" d="M332.09,136s-2.5,14-3.58,15.63c-1.45,3.14-3.4,3.85-6.09,3.43-2.66-.65-1.21-5.76-1.21-5.76.66-3.14,2.7-13.28,2.7-13.28h-6.29L315,148c-1.32,5.83-1,8,.69,9.64-3.43.8-5.26,2.28-5.5,5.19-.37,4.53,4.27,7.27,9.05,7.21,11.47-.14,14.47-7.51,15.95-17.64L338.55,136Zm-12.77,30.25c-1.63-.11-3.76-1.06-3.62-3.1.29-4.23,7.86-2.15,11.59-5.24C327.29,160.74,325,166.6,319.32,166.22Z"/><path class="cls-8" d="M276.68,157.5c.64,1.82,2.32,2.58,5,2.35l7.77-36.75h-6.64l-2.57,12.42c-11-1.06-18.42,6.39-18.55,16.28C261.59,160.19,270.81,162.48,276.68,157.5Zm2.6-17.63-1.91,8.92c-.78,4.84-3.21,7.65-6.81,6.5C265.05,153.54,270.11,137.36,279.28,139.87Z"/><path class="cls-8" d="M302,157.31c.65,1.82,2.51,2.77,5.21,2.54L311.6,138c-1.38-1.88-5.87-2.33-5.87-2.33A16.28,16.28,0,0,0,287.2,151.8C287,160.18,296.46,162.64,302,157.31ZM294.69,147c1.55-4.34,5.15-8.43,10.09-7.08l-1.91,8.92c-.79,4.84-3.22,7.77-6.81,6.62C293.51,154.6,293.36,150.68,294.69,147Z"/><path class="cls-8" d="M225.26,135.55a13.4,13.4,0,0,0-9.46,6c-2.19,3.33-3.69,8.82-2.38,13.14,1.16,3.86,5.21,5.63,8.82,5.65,4.9,0,9.85-3.34,12.07-7,1-1.7,3.18-7,2.35-11.06C235.64,137.28,231.47,134.73,225.26,135.55Zm3.81,14.08c-.91,2.7-2.36,4.84-4,5.66s-4.46.76-5.32-2a14.47,14.47,0,0,1,.7-7.29c1.21-3.09,3.44-6.21,6.13-6.16a3.33,3.33,0,0,1,3.45,2.55A12.9,12.9,0,0,1,229.07,149.63Z"/><path class="cls-7" d="M261.8,126.59c1.27,1.27,1,3.58-.54,5.17s-3.88,1.83-5.16.56-1-3.59.53-5.17S260.52,125.32,261.8,126.59Z"/><path class="cls-9" d="M190.07,121.41l-3.77,19.18c-2.73,1.18-6.43,2.89-5.52,6.27l4.71-1.64s-1.9,6.51-1.9,10c.2,1.94.65,4.47,5.36,4.11,1.14-5.35,2.24-10.72,3.35-16.1l12.09-2.51-1.56,6.69c-.72,3-1.74,7.07-1.28,9.2.56,1.87,1.66,2.85,5.42,2.72l7.88-37.89h-6.63l-3,14-11.72,2.44,3.41-16.42Z"/><path class="cls-9" d="M243,127.08l-4.57,22.1a28.84,28.84,0,0,0-1.17,6.63c.39,3.65,3.31,3.89,5.39,3.82l6.74-32.55Z"/><path class="cls-9" d="M351.61,121.42l-5.85,27.76a28.84,28.84,0,0,0-1.17,6.63c.39,3.65,3.49,3.89,5.56,3.82l8.07-38.21Z"/><path class="cls-9" d="M253.82,135.26l-2.88,13.92a28.84,28.84,0,0,0-1.17,6.63c.39,3.65,3.31,3.89,5.39,3.82l5-24.37Z"/><path class="cls-9" d="M404.89,150.53c1-4.7,2.41-9,1.38-11.56-2.35-5.85-10.78-5.16-14.5-1.17a16.93,16.93,0,0,0-.41-2.65h-5s-.13,2.25-.43,4.11c-.49,4-2.39,12.89-3.85,19.7h6.18c1.23-4.37,2.64-13.67,4.59-17.14,1.33-2.13,5.82-3.67,7-.12.58,1.28-1.44,7.05-2,11-.49,3.6-.93,6.69,5.15,6.56Z"/><path class="cls-9" d="M378.7,150.53c1-4.7,2.41-9,1.38-11.56-2.35-5.85-10.79-5.16-14.5-1.17a19.11,19.11,0,0,0-.41-2.65h-5s-.13,2.25-.44,4.11c-.48,4-2.38,12.89-3.84,19.7h6.18c1.23-4.37,2.64-13.67,4.58-17.14,1.33-2.13,5.83-3.67,7-.12.59,1.28-1.43,7.05-2,11-.49,3.6-.93,6.69,5.16,6.56Z"/><path class="cls-3" d="M331.59,135.42s-2.51,14-3.58,15.62c-1.45,3.15-3.4,3.86-6.09,3.44-2.66-.66-1.22-5.76-1.22-5.76.67-3.14,2.71-13.29,2.71-13.29h-6.28l-2.65,12.06c-1.32,5.83-1,7.95.69,9.64-3.43.8-5.26,2.28-5.5,5.18-.37,4.53,4.28,7.28,9.05,7.22,11.47-.15,14.47-7.51,15.95-17.64l3.38-16.47Zm-12.77,30.24c-1.63-.11-3.76-1-3.62-3.09.29-4.23,7.86-2.16,11.59-5.24C326.79,160.18,324.49,166.05,318.82,165.66Z"/><path class="cls-3" d="M276.17,157c.65,1.81,2.33,2.58,5,2.35L289,122.55h-6.65L279.75,135c-11-1.07-18.42,6.39-18.55,16.28C261.09,159.63,270.31,161.93,276.17,157Zm2.61-17.63-1.91,8.91c-.78,4.85-3.21,7.66-6.81,6.51C264.55,153,269.61,136.81,278.78,139.32Z"/><path class="cls-3" d="M301.48,156.76c.64,1.82,2.51,2.77,5.21,2.54l4.41-21.9c-1.39-1.88-5.87-2.33-5.87-2.33a16.28,16.28,0,0,0-18.54,16.18C286.49,159.63,296,162.08,301.48,156.76Zm-7.29-10.36c1.55-4.34,5.15-8.43,10.08-7.08l-1.9,8.91c-.79,4.85-3.22,7.78-6.81,6.63C293,154,292.86,150.13,294.19,146.4Z"/><path class="cls-3" d="M224.76,135a13.39,13.39,0,0,0-9.46,6c-2.2,3.34-3.69,8.83-2.38,13.15,1.16,3.86,5.2,5.63,8.82,5.65,4.9,0,9.85-3.34,12.07-7,1-1.7,3.18-7,2.35-11.06C235.14,136.73,231,134.18,224.76,135Zm3.81,14.08c-.91,2.7-2.36,4.83-4,5.66s-4.46.76-5.32-2.05a14.51,14.51,0,0,1,.7-7.3c1.2-3.08,3.44-6.2,6.13-6.16a3.34,3.34,0,0,1,3.45,2.56A12.9,12.9,0,0,1,228.57,149.08Z"/><path class="cls-9" d="M261.3,126c1.27,1.27,1,3.58-.54,5.16s-3.88,1.84-5.16.56-1-3.58.53-5.16S260,124.77,261.3,126Z"/><path class="cls-10" d="M411.85,136.1a2.75,2.75,0,1,1-2.84,2.74,2.74,2.74,0,0,1,2.84-2.74Zm0,.55a2.19,2.19,0,0,0,0,4.37,2.09,2.09,0,0,0,2.09-2.18,2.12,2.12,0,0,0-2.11-2.19Zm-.42,3.6h-.64v-2.72a5.51,5.51,0,0,1,1.06-.1,1.58,1.58,0,0,1,.95.22.76.76,0,0,1,.26.58.7.7,0,0,1-.56.65v0c.27.08.41.3.5.66a1.65,1.65,0,0,0,.2.67h-.69a2.19,2.19,0,0,1-.21-.65c0-.3-.22-.43-.57-.43h-.3Zm0-1.53h.3c.35,0,.63-.12.63-.4s-.18-.42-.58-.42a2,2,0,0,0-.35,0Z"/></svg>