<svg id="Layer_1" data-name="Layer 1" xmlns="http://www.w3.org/2000/svg" viewBox="0 0 595.28 175.75"><defs><style>.cls-1{fill:#916d5c;}.cls-2{fill:#e9333d;}</style></defs><path class="cls-1" d="M293.08,62.25s-4.37-6.16-5.42-7.2c-5.38-5.27-15.05-6.81-19.18-3.13s-3.91,12.77.83,18.89c6.92,8.92,16.14,13.26,27.5,12.3,8-.68,16.67-8.76,18.93-17.25,4.2-15.8-6.62-34.74-22.38-39.12-7.67-2.14-14.54-1.22-20,5.22a9.55,9.55,0,0,1-1.06,1c-1.33,1.15-2.79,3.52-4.48,2-1.9-1.74.42-3.55,1.56-5,6.12-7.54,14.26-9.85,23.67-9.06,18.88,1.6,37.75,18.29,41.43,36.81,3.64,18.34-6.08,36.05-22.33,40.65-22.42,6.36-49.75-10.17-53.93-32.61-1.59-8.56,1.53-16.71,7.5-19.61,8.11-3.94,20.06-1.81,25.37,4.68C296.05,56.66,293.08,62.25,293.08,62.25Z"/><path class="cls-1" d="M410.62,147.28c3.6-4.19,7-8.23,10.5-12.2,1.42-1.63,2.95-3.18,4.52-4.68,2-1.92,4.67-3.74,7-1.52,2.7,2.53.13,4.88-1.7,6.76-2.9,3-6,5.82-9,8.74a27,27,0,0,0-2.72,2.94c-.67.86-2,1.71-1.26,3,.8,1.46,2.07.44,3.1.13,7.86-2.3,14.78-6.1,19.91-12.68,2.15-2.77,4.27-5.56,6.51-8.25,1.13-1.37,2.32-3.28,4.5-1.82,1.88,1.27,2.18,3.18,1.48,5.34-1,3-3.32,4.95-5.33,7.15-1.23,1.35-2.76,2.44-4,3.79-1.51,1.65-4,3.08-2.93,5.83s3.81,2.85,6.76,2.58a7.56,7.56,0,0,1-7.44,4.83c-4.46.09-4.29-3.89-5.64-6.81-4.62,2.37-8.87,5.33-13.75,7-6.82,2.28-11.24.29-13.63-6.42-5.43,4.94-11.53,7.95-19,7.32-3.94-.32-7.78-.84-10-4.52-1.33-2.16-2.25-1.1-3.45-.09a17.91,17.91,0,0,1-9.84,4.56c-6.2.58-10.71-4.9-8.52-10.7,2.09-5.53,5.77-10.11,10-14.18,1.29-1.23,2.93-1.87,4.58-1s1.48,2.84,1.23,4.49a10.13,10.13,0,0,1-3.23,5.51q-2.28,2.33-4.43,4.76c-.91,1-1.7,2.4-.66,3.58s2.51.73,3.7,0a26.08,26.08,0,0,0,9.29-8.91,10.59,10.59,0,0,1,2.8-3.42c2.06-1.34,3.89-1.11,4.15,1.9a18.91,18.91,0,0,1-.09,2.49c-.29,8.39,2.62,10.61,10.95,8.55a14.65,14.65,0,0,0,7.88-5c3.76-4.5,3.38-8.2-1.16-12-1.37-1.14-3.71-2.16-2.39-4.23,1.17-1.84,3.33-.7,5,0,4.61,2,7.13,6.83,6.56,12.35C410.81,143.94,409.83,145.29,410.62,147.28Z"/><path class="cls-1" d="M197.74,138.72c4.25-2.61,8.12-5.21,12.2-7.41,2.82-1.52,6.3-2.65,8.88-.11s1.31,5.94.11,8.9a15.87,15.87,0,0,1-2.5,4.29c-3.28,3.88-6.15,7.88-6.53,13.19-.11,1.53-.75,3.21-2.64,3.06s-2.64-1.72-2.64-3.61a16.19,16.19,0,0,1,2.55-9c.91-1.39,2.06-2.64,2.9-4.07s3-3.22,1.52-4.81-3.36.29-4.73,1.24c-4.93,3.42-9.66,7.14-14.63,10.51-2.35,1.59-5.47,4.91-7.75,2.54-2-2.12,1.7-4.72,3.17-7,1.74-2.68,5.88-6.09,3-8.42-3.21-2.62-5.93,2.15-8.1,4.53-3.46,3.83-6.4,8.11-9.59,12.18-2.1,2.68-4.52,5.47-8.14,5.05-3.84-.45-4.86-4.09-5.92-7.69-3.26,2.21-6,5-9.89,5.73s-7.76.54-10.28-3.17-2.64-7.87.24-11.62a52.24,52.24,0,0,1,15.62-13.87c4.16-2.35,8.65-2.31,13.11-.83,3.52,1.16,4.76,3.6,3.24,7-1,2.27-2.35,4.39-3.58,6.56a32.28,32.28,0,0,0-2.28,3.86c-.79,2-1.71,4.92.09,6,2.31,1.37,3.08-1.8,4.09-3.27,4.09-6,8.63-11.49,14.73-15.5C190.8,128.56,195.84,130.55,197.74,138.72Zm-31.91-3.92c-1.55-2-3.21-3-5.57-1.73a58.6,58.6,0,0,0-15.86,12.7c-2.08,2.28-.67,4.92,2.46,5.18a7.53,7.53,0,0,0,5.08-1.73c4.6-3.35,8.36-7.56,12.2-11.7A16.8,16.8,0,0,0,165.83,134.8Z"/><path class="cls-1" d="M449.36,152.86c-.23-3.3.92-5.59,2.08-7.77q9.38-17.62,19-35.14c1.48-2.69,3.59-6.62,7-4.73,4,2.27,1.58,6.49-.28,9.19-4,5.76-8.28,11.28-11.44,17.55-.62,1.22-2.34,2.63-.94,3.94s2.82-.32,4.09-.91c4.9-2.28,8.88-5.8,12.73-9.54,1.64-1.59,3.55-4.6,6.21-2.27s.77,5.23-.91,7.53c-3.7,5.06-9.35,6.67-15,8.19-9.27,2.49-9.24,2.48-4.54,11.09a87,87,0,0,1,4.4,8.93c.95,2.36,1.45,5.17-1.54,6.5-3.27,1.46-4.54-1.33-5.47-3.57-1.66-4-2.88-8.14-4.4-12.18-.38-1-.85-2.48-2.23-2.35s-1.49,1.58-1.84,2.66a17.4,17.4,0,0,0-.84,2.87c-.3,2.1-1.32,3.55-3.5,3.46C449.22,156.2,449.57,153.93,449.36,152.86Z"/><path class="cls-1" d="M240.05,132c1.81,0,2.46,0,3.11,0,4.25.11,8.67.17,10.37,5.11,1.62,4.73-.62,8.45-4,11.54A59.15,59.15,0,0,1,235,158.27a13.85,13.85,0,0,1-16.81-3.4c-2-2.21-2-4.29.11-6.6,4.25-4.7,8.25-9.61,12.45-14.35a110,110,0,0,0,15.33-21.52,19,19,0,0,1,4.33-6.07c2-1.69,4.35-3.21,6.65-1,1.94,1.85,1.31,4.44-.17,6.38-2.62,3.45-5.51,6.69-8.27,10C246,124.87,243.33,128.05,240.05,132Zm2.49,4.91c-7.7-.3-11.37,5.44-15.55,10.34-1.09,1.27-3.12,2.43-1.66,4.64,1.2,1.82,3.17,1.71,5,1.5,6.52-.79,11.05-5.07,15.63-9.18,1.51-1.35,2.84-3.11,1.84-5.26S244.49,137,242.54,136.91Z"/><path class="cls-1" d="M145.93,106.07c3.45.26,6.81.64,6.93,4.18s-3.22,3.68-5.9,4c-7.44.77-7.38.77-8.52,8.06-1.24,7.88-2.5,15.76-4,23.6a14.14,14.14,0,0,1-6.28,9.82c-5.81,3.64-11.24,2.82-16.07-2.56a22.15,22.15,0,0,1-5.87-12.42c-.13-1.1-.36-2.52,1-3.08,1.59-.69,2.44.52,3.17,1.68,1.59,2.53,2.72,5.34,4.88,7.51,5.84,5.85,11.22,4.82,14-2.89,3-8.4,3.22-17.28,4-26.05.23-2.74-1.28-3.11-3.47-2.26-2.79,1.08-5.52,2.37-8.38,3.22-3.1.92-5.95,0-6.8-3.28s1.92-4.38,4.33-5.15c3.84-1.23,7.89-1.09,11.89-1.29C136.15,108.85,141.2,107,145.93,106.07Z"/><path class="cls-1" d="M352.74,152c-2.84,4.16-5.56,5.84-9.2,5.08-3.25-.68-3.46-3.65-4-6.9-3.64,2-7,4-10.48,5.68-3.94,1.95-8,3.38-12.47,1.51-4.21-1.77-5.45-5.22-2.67-8.73,4.86-6.13,9.7-12.3,15.39-17.72,2.2-2.1,4.9-4.69,7.68-1.81s-.53,5-2.41,6.94c-3.71,3.82-7.53,7.54-11.25,11.35-.77.79-2,1.8-1.12,3s2.16.37,3.22,0c7.58-2.43,14.46-6,19.48-12.41,2.25-2.89,4.56-5.73,6.86-8.59,1.17-1.45,2.45-3.12,4.53-1.72,1.87,1.27,2.16,3.35,1.41,5.39a15.72,15.72,0,0,1-4,5.67c-1.8,1.74-3.64,3.44-5.29,5.31-1.45,1.65-4.25,2.85-3.09,5.69S349,152.84,352.74,152Z"/><path class="cls-1" d="M283.77,156.1c-2.13.06-4.34-.6-5.33-2.25-1.95-3.22-3.33-1.56-5.31-.18a22.21,22.21,0,0,1-18.57,3.54c-4.66-1.14-5.62-3.76-2.75-7.56,4.23-5.59,8.59-11.07,13-16.52a24.09,24.09,0,0,1,4.34-4.1,4,4,0,0,1,5.49.3c1.78,1.77.43,3.44-.58,4.89-2.8,4-6.71,6.95-10.1,10.39-1.75,1.78-5.61,3.53-4,6.09,1.7,2.71,5.15.19,7.7-.59,8-2.45,12.86-8.64,17.53-15,1.57-2.15,3-4.39,4.81-6.37,1.25-1.39,3.17-2.47,4.93-1.32,1.94,1.27,1,3.3.19,5-2.15,4.57-5.37,8.41-8.59,12.25-4.24,5.06-4.22,5.19,1.85,7,2.23.66,1.78,1.6.47,2.66A7.94,7.94,0,0,1,283.77,156.1Z"/><path class="cls-1" d="M294.22,153.25a19.6,19.6,0,0,1,2.42-7.25c4.08-7.24,8.12-14.49,12.06-21.8a34,34,0,0,0,3.52-8.74c.8-3.67,3.13-6.55,7-5s1.55,5,.34,7.23c-4.5,8.32-9.43,16.41-14,24.71-2.2,4-5,7.92-4.73,12.9.13,2.12-1.2,2.48-2.92,2.26C295.3,157.23,294.54,155.32,294.22,153.25Z"/><path class="cls-2" d="M274,9.93a8.24,8.24,0,0,1,5.33,1.68,9.22,9.22,0,0,1,2.28,2.62,12.75,12.75,0,0,1,1.78,4.34,11.78,11.78,0,0,0-2.59-.68,26.54,26.54,0,0,0-2.82-.11,28.18,28.18,0,0,1-4.2-.35A5.93,5.93,0,0,1,270.21,15a3.14,3.14,0,0,1-.54-1.84,3.2,3.2,0,0,1,1-2A4.78,4.78,0,0,1,274,9.93Z"/></svg>