<svg id="Layer_1" data-name="Layer 1" xmlns="http://www.w3.org/2000/svg" viewBox="0 0 595.28 175.75"><defs><style>.cls-1{fill:#ef6825;}.cls-2{fill:#f26522;}</style></defs><path class="cls-1" d="M42.37,72.58C42,55,48.3,41.84,61.76,32.6c15-10.28,31.12-11.36,47.11-2.67S133,52.57,132.57,72.51c-12.41-14.35-26.95-22.24-45.18-22.27S54.87,58.38,42.37,72.58Z"/><path class="cls-1" d="M96.38,103.88c.56,17-5.62,30.42-19.75,39.74-15.94,10.51-32.73,10.59-48.69,1-14.85-8.91-22-22.95-21.31-40.81,11.77,14.06,26.85,21.79,44.88,21.81S84.63,118,96.38,103.88Z"/><path class="cls-1" d="M53.48,24.81C39.4,36.68,31.86,51.75,31.77,69.74s7.49,33.16,22,44.66c-9.92,3-27.52-4.06-36.45-14.88-12.46-15.1-15-32-6.38-49.58C19.39,32.74,34.21,25,53.48,24.81Z"/><path class="cls-1" d="M86.27,150.7c28-23.9,28.19-65.14,0-89.06,10.71-2.89,27.41,4.33,36.61,15.84,11.43,14.3,13.38,34.43,4.26,50.33C118.15,143.42,104.3,151,86.27,150.7Z"/><path class="cls-2" d="M174.93,91.1a20.71,20.71,0,0,1,3.92,10.73c.37,6.28,0,33.29,0,33.29-.11.2-1.44,2.5-3.48,2.45a3.51,3.51,0,0,1-2.17-1c-2.57-2.12-2.83-5.82-2.86-7l-12.62,1.36a25.46,25.46,0,0,0,1,6.78,16.93,16.93,0,0,0,18.65,12.95c2.64-.12,6.84-.32,10.6-3.45a15.45,15.45,0,0,0,5.11-8.84V91.1Z"/><path class="cls-2" d="M224.09,91.09h-6.22a17.62,17.62,0,0,0-17.61,17.61V133a17.61,17.61,0,0,0,17.61,17.61h6.22A17.61,17.61,0,0,0,241.7,133V108.7A17.62,17.62,0,0,0,224.09,91.09Zm3.43,40.76a6.48,6.48,0,0,1-6.48,6.48h-.12a6.48,6.48,0,0,1-6.48-6.48V109.17a6.49,6.49,0,0,1,6.48-6.49H221a6.49,6.49,0,0,1,6.48,6.49Z"/><path class="cls-2" d="M290.35,110.19v-5.71A13.4,13.4,0,0,0,277,91.09h-23.7c-2.77,0-5.56,0-8.33-.09,1.64,2.94,3.27,5.86,4.9,8.8v41.64A7.56,7.56,0,0,0,257.4,149h21.38a11.57,11.57,0,0,0,11.57-11.57v-6.05a12.63,12.63,0,0,0-3.71-8.93l-2.12-2.13,2.51-2.38A10.72,10.72,0,0,0,290.35,110.19Zm-14.16,23.59a3.56,3.56,0,0,1-3.55,3.56h-8.83V126h8.83a3.55,3.55,0,0,1,3.55,3.56Zm0-22.66a3.55,3.55,0,0,1-3.55,3.56h-8.83V103.31h8.83a3.55,3.55,0,0,1,3.55,3.55Z"/><path class="cls-2" d="M291.27,91.1,295.7,100a7.33,7.33,0,0,1,.73,2.37L302.56,149h16.27l4.44-27.2,2.59-.18L329.75,149h15.91l7.95-57.9L341,91q-1.72,18.63-3.46,37.25l-1.53,0L331,91.1,317.73,91l-4.81,37.65-2.22-.37L307.37,91.1Z"/><path class="cls-2" d="M365.26,91l3.24,6.46a7.1,7.1,0,0,1,.53,5L356.88,149h15l1.95-10.92h11.87L383,126h-6.47l3-17h2l8.51,40h14.62l-16.1-58Z"/><path class="cls-2" d="M404.67,91l4.15,8.39a6.33,6.33,0,0,1,.66,2.8V149h14l.56-29,12.76,29h14.43V91h-14.8l.56,29.88L423,91Z"/><polygon class="cls-2" points="453.32 91 456.64 104.6 467.93 104.6 467.93 149 482.36 149 482.36 104.23 494.57 104.23 494.57 91 453.32 91"/><path class="cls-2" d="M501.41,102.36v38.58a5.91,5.91,0,0,0,1.8,4.25l2.21,2.14a5.93,5.93,0,0,0,4.12,1.67h30.72V136.79H514.73V121.43l5.36,5.37h16.65l-2.22-13H514.73V103.31h24.6q-.83-6.11-1.66-12.21L496.42,91l4.24,8.25A6.86,6.86,0,0,1,501.41,102.36Z"/><path class="cls-2" d="M584.32,99.45a32.94,32.94,0,0,0-3.55-3.54,31.88,31.88,0,0,0-3.32-2.49A15,15,0,0,0,569.3,91h-29L544,98.31a9.44,9.44,0,0,1,1,4.33v37.1a8.83,8.83,0,0,0,3.34,6.91l1.35,1.06a5.85,5.85,0,0,0,3.66,1.29h19.65a7.82,7.82,0,0,0,3.43-.77,18.93,18.93,0,0,0,7.54-6.52,10.54,10.54,0,0,0,1.73-5.88V103.38A6.06,6.06,0,0,0,584.32,99.45ZM572.81,129a8.51,8.51,0,0,1-8.5,8.51h-4.63V103.12h4.63a8.51,8.51,0,0,1,8.5,8.51Z"/></svg>