<svg id="Layer_1" data-name="Layer 1" xmlns="http://www.w3.org/2000/svg" viewBox="0 0 595.28 175.75"><defs><style>.cls-1{fill:#172c47;}.cls-2{fill:#f5f1ea;}.cls-3{fill:#b4a091;}</style></defs><rect class="cls-1" x="185.5" y="17.01" width="224.28" height="141.73"/><g id="Artwork"><path class="cls-2" d="M238.45,99.89V99.3c.65,0,1.56,0,2-.46a6.77,6.77,0,0,0,.29-2.46v-3h-7.54v4.2c0,1.79.73,1.73,2.24,1.76v.59h-6.21V99.3c.54,0,1.39,0,1.73-.54a4.73,4.73,0,0,0,.25-2c0-2.63.06-5.32.06-8,0-1.62-.68-1.56-2-1.62V86.6h6.06v.59a3.81,3.81,0,0,0-1.58.26c-.46.28-.46.68-.46,1.16,0,1.33,0,2.67,0,4h7.54V89.26c0-2-.29-2-2.19-2.09v-.6h6.15v.6c-.51,0-1.47,0-1.81.45a7,7,0,0,0-.14,2.32c0,2.33-.06,4.82-.06,7.2A4.06,4.06,0,0,0,243,98.9c.42.48,1.27.34,1.84.4v.59Z"/><path class="cls-2" d="M254,98.62a5.35,5.35,0,0,1-3.49,1.56,4.75,4.75,0,0,1-4.76-4.77v0a5,5,0,0,1,4.79-4.54A5.48,5.48,0,0,1,253.62,92a4.39,4.39,0,0,1,1.67,3.43A4.78,4.78,0,0,1,254,98.62Zm-1.42-6a2.63,2.63,0,0,0-2-1.22,2.53,2.53,0,0,0-1.28.37,4.16,4.16,0,0,0-1.61,3.57c0,1.73.9,4.22,3,4.22,1.87,0,2.69-2.52,2.69-4A4.93,4.93,0,0,0,252.54,92.64Z"/><path class="cls-2" d="M262,92h-2.84v5.22c0,1,.31,1.84,1.45,1.84a2.42,2.42,0,0,0,1.56-.57l.2.34a4,4,0,0,1-2.9,1.36c-1.47,0-2.09-.9-2.09-2.32,0-1.93.08-3.88.11-5.87h-1.19l-.06-.14c1-.88,2-1.76,3-2.58v1.79h3.17Z"/><path class="cls-2" d="M267.22,100.18a4.31,4.31,0,0,1-4.08-4.31A5.34,5.34,0,0,1,264.61,92a4.18,4.18,0,0,1,2.73-1.16,3.31,3.31,0,0,1,3.4,3.12c-2,.09-4,.17-6,.17,0,.2,0,.4,0,.6V95a3.54,3.54,0,0,0,3.37,3.71h.06a3.76,3.76,0,0,0,2.44-1.3l.31.25A4.69,4.69,0,0,1,267.22,100.18Zm1.39-7.91a1.69,1.69,0,0,0-1.64-.91c-1.19,0-1.9,1.3-2.07,2.33a23.73,23.73,0,0,0,4-.35A2,2,0,0,0,268.61,92.27Z"/><path class="cls-2" d="M271.53,99.89v-.51c.43,0,1.25,0,1.48-.45a5.86,5.86,0,0,0,.11-1.56c0-3.12.06-6.24.06-9.35a13.82,13.82,0,0,0-.06-1.56c-.4-.2-.77-.4-1.22-.6v-.14c1-.4,2-.88,3-1.33v.2c0,4.13-.12,8.3-.12,12.47a9.69,9.69,0,0,0,.12,1.78c.22.49,1.22.46,1.7.46v.51Z"/><path class="cls-2" d="M286.81,87.76a13.31,13.31,0,0,0-.17,3V97c0,2.07-.11,2.24,2,2.33v.59H282.7V99.3c2.15-.06,1.9-.48,1.9-2.33,0-2.32.06-4.67.06-7V88.75c0-1.56-.68-1.39-2-1.56V86.6h5.95v.59C288.14,87.28,287.15,87.19,286.81,87.76Z"/><path class="cls-2" d="M295.88,99.89v-.51a2.57,2.57,0,0,0,1.56-.39,2.5,2.5,0,0,0,.23-1.17c0-.93.11-1.84.11-2.77a5.54,5.54,0,0,0-.31-2.13,2,2,0,0,0-1.82-1,3.33,3.33,0,0,0-2.09.82.23.23,0,0,0-.12.25c-.08,1.62,0,3.29,0,4.91,0,1.39.4,1.3,1.56,1.47v.51h-4.82v-.51c.46,0,1.31,0,1.48-.59.08-.29,0-2.21,0-2.58v-3.8a14.63,14.63,0,0,0-1.39-.62v-.23l3.12-1.16v1.95c.43-.25.77-.62,1.19-.9a3.82,3.82,0,0,1,2.19-.83,2.71,2.71,0,0,1,1.81,1.17,4.23,4.23,0,0,1,.77,2.77c0,1.25-.17,2.53-.17,3.77s.56,1,1.55,1.11V100Z"/><path class="cls-2" d="M308.55,100.35h-.08c0-.6-.06-1.17-.06-1.76a29,29,0,0,1-2.58,1.39,3,3,0,0,1-.54,0,3.74,3.74,0,0,1-2-.7,4.17,4.17,0,0,1-1.67-3.43v-.34a4.87,4.87,0,0,1,3.57-4.23A5.64,5.64,0,0,1,307,91h1.45c-.06-1.33,0-2.69,0-4v-.4a8.48,8.48,0,0,0-1.25-.6v-.2c1-.36,2-.9,2.95-1.3v.2c0,4.45-.11,9-.11,13.41a1.34,1.34,0,0,0,.08.65c.12.2,1.22.2,1.45.2v.42C310.54,99.67,309.57,100.09,308.55,100.35Zm-.14-7.52a3.35,3.35,0,0,0-2.18-1.24c-2,0-2.89,2-2.89,3.68a3.33,3.33,0,0,0,3.17,3.49,3.87,3.87,0,0,0,2-.74V95.3c0-.91,0-1.64-.06-2.47Z"/><path class="cls-2" d="M320.43,98.62a5.33,5.33,0,0,1-3.49,1.56,4.76,4.76,0,0,1-4.76-4.77v0A5,5,0,0,1,317,90.85,5.34,5.34,0,0,1,320.09,92a4.51,4.51,0,0,1,1.7,3.43A4.67,4.67,0,0,1,320.43,98.62Zm-1.39-6A2.64,2.64,0,0,0,317,91.42a2.37,2.37,0,0,0-1.25.37,4.16,4.16,0,0,0-1.61,3.57c0,1.73.9,4.22,3,4.22,1.87,0,2.7-2.52,2.7-4a5,5,0,0,0-.77-2.89Z"/><path class="cls-2" d="M328.28,99.89v-.51c.4,0,1.28,0,1.53-.39a2.38,2.38,0,0,0,.23-1.17c0-.93.11-1.84.11-2.77a5,5,0,0,0-.31-2.13,2,2,0,0,0-1.81-1,3.33,3.33,0,0,0-2.1.82.23.23,0,0,0-.12.25c-.08,1.62,0,3.29,0,4.91,0,1.39.4,1.3,1.56,1.47v.51h-4.79v-.51c.46,0,1.31,0,1.48-.59.05-.85.08-1.73.05-2.58v-3.8a14.63,14.63,0,0,0-1.39-.62v-.23l3.12-1.16v1.95c.43-.25.77-.62,1.19-.9a3.82,3.82,0,0,1,2.19-.83,2.84,2.84,0,0,1,1.87,1.11,4.23,4.23,0,0,1,.76,2.78c0,1.24-.14,2.52-.14,3.77s.57,1,1.56,1.1v.51Z"/><path class="cls-2" d="M338.15,100.18a4.31,4.31,0,0,1-4.09-4.31A5.39,5.39,0,0,1,335.54,92a4.13,4.13,0,0,1,2.72-1.16,3.3,3.3,0,0,1,3.4,3.12c-2,.09-4,.17-6,.17a2,2,0,0,0,0,.6V95a3.54,3.54,0,0,0,3.37,3.71h.06a3.76,3.76,0,0,0,2.44-1.3l.31.25A4.88,4.88,0,0,1,338.15,100.18Zm1.38-7.91a1.69,1.69,0,0,0-1.64-.91c-1.19,0-1.87,1.3-2.07,2.33a21.82,21.82,0,0,0,4-.37,2.26,2.26,0,0,0-.32-1Z"/><path class="cls-2" d="M348.27,99.38a3.73,3.73,0,0,1-2.33.77,9,9,0,0,1-2.24-.31c-.11-.77-.23-1.56-.34-2.27l.54-.11c.48.9.85,2.21,2.1,2.21a1.52,1.52,0,0,0,1.64-1.36v-.06c0-2.47-4.19-2.16-4.19-5a2.7,2.7,0,0,1,2.89-2.47,9.53,9.53,0,0,1,1.73.26h.14a1.29,1.29,0,0,0,.45-.11c.14.76.26,1.55.34,2.29l-.51.11c-.4-.93-1.08-2.06-2.24-2.06a1.33,1.33,0,0,0-1.47,1.19v.22c0,.85.54,1.14,1.16,1.56,1.3.88,3.12,1.39,3.12,3.32A2.86,2.86,0,0,1,348.27,99.38Z"/><path class="cls-2" d="M353.25,99.86h-3.09v-.51c1.56-.14,1.62-.14,1.62-1.78V92.81c0-.06,0-.15-.06-.17-.25-.15-1.05-.49-1.36-.63v-.22l3.12-1.22v7.14c0,1.56.14,1.56,1.64,1.67v.51C354.47,99.89,353.88,99.86,353.25,99.86ZM352.55,89a1,1,0,0,1-1.05-1,1,1,0,0,1,1.05-1.05,1.05,1.05,0,0,1,0,2.1Z"/><path class="cls-2" d="M362.1,100.12c-.57,0-.85-.94-1-1.36a11.71,11.71,0,0,1-3.57,1.39c-.91,0-1.05-1.16-1.05-1.84,0-1,.11-1.51,1.05-1.93,1.16-.43,2.35-.82,3.57-1.14V93.77c0-1-.31-2.07-1.82-2.07a1.28,1.28,0,0,0-1.3.65,4.55,4.55,0,0,0-.17,1.22h-1.62a.85.85,0,0,1,.29-.74,16.49,16.49,0,0,1,2.24-1.7,3.43,3.43,0,0,1,1.56-.51,2.5,2.5,0,0,1,2.43,2.58v4.17c0,.51-.11,1.45.66,1.45a2.35,2.35,0,0,0,1-.37l.2.31A7.56,7.56,0,0,1,362.1,100.12Zm-1-4.37c-.77.17-2.44.54-2.92,1.25a2,2,0,0,0-.26.77A1.31,1.31,0,0,0,359.12,99a5,5,0,0,0,2-.76Z"/><path class="cls-2" d="M262.4,122h-2.92v-.59c.29,0,1.31,0,1.31-.43s-.51-.76-.74-1c-1-1.08-2-2.1-2.92-3.18-.23-.25-.76-.91-1.08-1h-.73v4.08a1.92,1.92,0,0,0,.2,1.05c.34.45,1.19.51,1.75.57V122h-5.84v-.59c.49-.06,1.36,0,1.68-.43a4.23,4.23,0,0,0,.19-1.87v-5c0-.76.12-4-.25-4.45s-1.3-.34-1.76-.4v-.59h6v.59c-.51.06-1.21-.08-1.64.26s-.28,1.42-.31,1.87v3.77h.14c1,0,1.62-.91,2.24-1.56s2.81-3,2.81-3.71c0-.6-1.05-.57-1.48-.63v-.59h5.25v.59c-1.82.12-1.76.26-3,1.45-.62.62-1.22,1.33-1.84,2s-1.16,1.33-1.76,2c.68.68,1.33,1.42,2,2.13l2.69,2.86a12.06,12.06,0,0,0,1.56,1.47,2.14,2.14,0,0,0,1.05.31v.6A22.76,22.76,0,0,0,262.4,122Z"/><path class="cls-2" d="M269.75,122.29a4.31,4.31,0,0,1-4.09-4.31,5.39,5.39,0,0,1,1.48-3.89,4,4,0,0,1,2.75-1.16,3.32,3.32,0,0,1,3.4,3.12c-2,.09-4,.17-6,.17a2,2,0,0,0,0,.6v.31a3.54,3.54,0,0,0,3.37,3.71h.06a3.71,3.71,0,0,0,2.43-1.3l.32.25A4.88,4.88,0,0,1,269.75,122.29Zm1.41-7.94a1.71,1.71,0,0,0-1.64-.91c-1.19,0-1.9,1.31-2.07,2.33a24.79,24.79,0,0,0,4-.34A2.35,2.35,0,0,0,271.16,114.35Z"/><path class="cls-2" d="M285.62,122v-.51c.37,0,1.25-.06,1.5-.4a2.32,2.32,0,0,0,.23-1.16c.06-.88.11-1.78.11-2.69a6,6,0,0,0-.31-2.13,2,2,0,0,0-1.81-1,3.67,3.67,0,0,0-2.1.77,3.22,3.22,0,0,1,0,.76v4.82a1.49,1.49,0,0,0,.11.6c.2.36,1,.36,1.39.39V122H280v-.51c.37,0,1.33,0,1.5-.42a13.47,13.47,0,0,0,.17-2.61v-1.87a4.89,4.89,0,0,0-.17-1.56,2,2,0,0,0-1.81-1,3.85,3.85,0,0,0-2.13.76c-.05,0-.11.06-.11.15v5.24a2.26,2.26,0,0,0,.11.85c.26.43,1.08.4,1.5.45V122h-4.79v-.51c1.25-.09,1.51,0,1.51-1.34v-5.64a9.52,9.52,0,0,0-1.39-.62v-.26l3.12-1.16v2c.42-.26.76-.6,1.19-.85a3.93,3.93,0,0,1,2.21-.88,2.6,2.6,0,0,1,1.87,1.1,3.38,3.38,0,0,1,.37.77c1.1-.77,1.9-1.81,3.37-1.81a2.71,2.71,0,0,1,1.9,1.13,4.19,4.19,0,0,1,.76,2.78c0,1.22-.17,2.46-.17,3.68s.57,1,1.56,1.11v.51Z"/><path class="cls-2" d="M295.37,122h-.54a3.87,3.87,0,0,1-.76,0v3.65c.08,1,1.05.74,1.73.86v.51h-5v-.51c.73-.06,1.55-.09,1.55-1.05V114.46a7.84,7.84,0,0,0-1.38-.62v-.26c1-.42,1.95-.82,3-1.16v1.67a6.2,6.2,0,0,1,2.81-1.27,4.1,4.1,0,0,1,3,1.56,4.89,4.89,0,0,1,.94,2.69C300.81,120,298.06,121.83,295.37,122Zm1.56-7.63a2.75,2.75,0,0,0-2.92.37v5.24a2.62,2.62,0,0,0,2.32,1.42,2,2,0,0,0,1.05-.31,3.89,3.89,0,0,0,1.68-3.46,3.41,3.41,0,0,0-2.1-3.26Z"/><path class="cls-2" d="M304.64,122h-3.09v-.51c1.56-.14,1.62-.14,1.62-1.78v-4.82c0-.06,0-.14-.06-.17-.26-.14-1.05-.48-1.36-.62v-.2l3.12-1.22v7.14c0,1.56.14,1.56,1.64,1.67V122C305.86,122,305.24,122,304.64,122Zm-.74-10.88a1,1,0,0,1-1-1,1,1,0,0,1,1-1.05h0A1,1,0,0,1,305,110,1,1,0,0,1,303.9,111.09Z"/><path class="cls-2" d="M313.26,122v-.51c.39,0,1.27-.06,1.56-.4A2.32,2.32,0,0,0,315,120c0-.93.12-1.84.12-2.78a5,5,0,0,0-.32-2.12,2,2,0,0,0-1.81-1,3.32,3.32,0,0,0-2.1.82.24.24,0,0,0-.11.25c-.09,1.62,0,3.29,0,4.91,0,1.39.4,1.3,1.56,1.47V122h-4.82v-.51c.45,0,1.3,0,1.47-.59a24.24,24.24,0,0,0,.06-2.58v-3.8c-.45-.23-.91-.43-1.39-.63v-.25l3.12-1.16v1.95c.42-.25.76-.62,1.19-.9a3.79,3.79,0,0,1,2.18-.83,2.8,2.8,0,0,1,1.87,1.11,4.25,4.25,0,0,1,.77,2.78c0,1.24-.14,2.52-.14,3.77s.56,1,1.56,1.1V122h-5Z"/><path class="cls-2" d="M324.31,121.49a3.68,3.68,0,0,1-2.32.77,8.9,8.9,0,0,1-2.24-.31c-.11-.77-.23-1.56-.34-2.27l.54-.11c.48.9.85,2.21,2.09,2.21a1.53,1.53,0,0,0,1.65-1.36v-.06c0-2.47-4.2-2.16-4.2-5a2.7,2.7,0,0,1,2.89-2.47,8.91,8.91,0,0,1,1.73.26h.15a1.29,1.29,0,0,0,.45-.11c.14.76.25,1.55.34,2.32l-.51.11c-.4-.93-1.08-2.07-2.24-2.07a1.34,1.34,0,0,0-1.47,1.19v.23c0,.85.53,1.14,1.16,1.56,1.3.88,3.12,1.39,3.12,3.32A2.6,2.6,0,0,1,324.31,121.49Z"/><path class="cls-2" d="M326.21,122v-.51c.4,0,1.22.09,1.33-.42a7.32,7.32,0,0,0,.12-1.39c0-2.7,0-5.36,0-8v-2.89a9.44,9.44,0,0,0-1.24-.6V108c1-.46,2-.88,2.94-1.33v.19c0,1.2,0,2.33-.05,3.58,0,2.8-.09,5.67-.09,8.47v1.33c0,1.31.34,1.28,1.48,1.34v.45Zm5.44,0v-.45c.32,0,1.11,0,1.11-.43a19.93,19.93,0,0,0-2.69-3c-.26-.26-.54-.45-.77-.71a11.25,11.25,0,0,0,2.33-1.84c.22-.23,1-1,1-1.33s-.82-.49-1.1-.51v-.51h4.19v.51a3.79,3.79,0,0,0-2.32,1c-.85.68-1.67,1.39-2.49,2.1,1,1.1,2.06,2.24,3.11,3.31.37.37.77.82,1.22,1.19a1.39,1.39,0,0,0,.94.26v.51Z"/><path class="cls-2" d="M340.24,122h-3.09v-.51c1.56-.14,1.62-.14,1.62-1.78v-4.82c0-.06,0-.14-.06-.17-.25-.14-1-.48-1.36-.62v-.2l3.12-1.22v7.14c0,1.56.14,1.56,1.64,1.67V122C341.46,122,340.84,122,340.24,122Zm-.73-10.88a1,1,0,0,1-1.05-1,1,1,0,1,1,1.05,1Z"/><path class="cls-2" d="M274.82,150.94a1.87,1.87,0,0,1-1.76-1l.94-.62a.84.84,0,0,0,.82.59.79.79,0,0,0,.79-.76v-4.31h1.11v4.22a1.8,1.8,0,0,1-1.76,1.87Z"/><path class="cls-2" d="M278.65,150.8l2.52-6h1.05l2.52,6h-1.27l-.52-1.36H280.4l-.51,1.36Zm2.12-2.32h1.79l-.91-2.3Z"/><path class="cls-2" d="M286.92,144.85H288v2.78l2.49-2.78h1.36l-2.32,2.52,2.18,3.43h-1.33l-1.59-2.58-.76.88v1.73H287Z"/><path class="cls-2" d="M293.64,150.8l2.52-6h1l2.53,6h-1.28l-.54-1.36h-2.55l-.54,1.36Zm2.13-2.32h1.78l-.9-2.3Z"/><path class="cls-2" d="M304.87,148.17l1.56,2.63h-1.34l-1.36-2.49H303v2.49h-1.13v-6H304c1.16,0,2.21.45,2.21,1.73A1.55,1.55,0,0,1,304.87,148.17Zm.22-1.62c0-.59-.59-.76-1.13-.76H303v1.55h.85C304.38,147.34,305.09,147.26,305.09,146.55Z"/><path class="cls-2" d="M308.27,144.85H313v1h-1.81v5h-1.08v-5H308.3Z"/><path class="cls-2" d="M314,150.8l2.56-6h1l2.53,6h-1.28l-.51-1.36h-2.55l-.51,1.36Zm2.13-2.32h1.79l-.91-2.3Z"/><rect class="cls-2" x="246.25" y="134.9" width="100.71" height="0.85"/><path class="cls-3" d="M291.69,42.52a62.83,62.83,0,0,0-.91,7.4c0-.06,3.34-10.77,4.25-8.48A42.85,42.85,0,0,1,296.59,47a7.18,7.18,0,0,0,.48,2.8c1-3.6,2.44-3.88,2.44-4,3.12-1.55,2.66,3.46,2.66,3.46,2.55-6.12.43-10.37.43-10.37a9.23,9.23,0,0,1-.17-2.52h.51v2a3.14,3.14,0,0,1,3.2,2.21c.12.4.48-1.47.43-2.32a4.48,4.48,0,0,0-3-4.26v.54c0-.11-1.16.12-1.75-.25-.34-.2-.29-.34-.31-.54a1.77,1.77,0,0,0,.9-1.67,1.43,1.43,0,0,0-2.75-.77,2,2,0,0,0,0,.77,2.27,2.27,0,0,0,.29,1.05c-2-.49-4.71-6.78-4.71-6.78-.11,1.67,2.15,6.58,2.15,6.58a7.87,7.87,0,0,1,.57,1.07l-.76,0s-2.53,0-2.87-1.08a1.65,1.65,0,0,0,1.28-1.79,1.43,1.43,0,0,0-2.75-.76,1.63,1.63,0,0,0,0,.76A2,2,0,0,0,293,32c-.26,0-.65-.08-1.11-1a26.49,26.49,0,0,1-2.55-6s-.11-.42-.2,0a21.83,21.83,0,0,0,2.56,9C293.19,35.89,291.69,42.52,291.69,42.52Zm6.37-8.08a10.57,10.57,0,0,1,.74,3.88,14.8,14.8,0,0,1-1.56,6.89,2.49,2.49,0,0,0-.2.4,15.75,15.75,0,0,0-.45-6.12c-1.28-4.79.08-4.91,1.47-5.05Z"/><path class="cls-3" d="M304.84,70.44V50H288.37V70.44h-7v.68h30.44v-.68Zm-3.46,0h-9.64v-16h9.64Z"/></g></svg>