<svg id="Layer_1" data-name="Layer 1" xmlns="http://www.w3.org/2000/svg" viewBox="0 0 595.28 175.75"><defs><style>.cls-1{fill:#231f20;}</style></defs><path class="cls-1" d="M219.07,31.93l10.31,70.14H218.06l-.61-6.78c-.34-3.18-.75-6.44-1-9.62l-.61-5.9-1-10.37c0-2.5-.41-5.08-.61-7.93L191,103.63,167.23,61.81l-4.54,40.26H152.53l9.62-69.67h0l28.8,49Z"/><path class="cls-1" d="M502.69,32l47.44,46.56V33.48h10.16v70.69h0l-47-47.44v45.34H502.69Z"/><path class="cls-1" d="M364.91,102.14V33.48h16.81a41.38,41.38,0,0,1,20.87,5,29.7,29.7,0,0,1,11.59,11.25,30.39,30.39,0,0,1,4,12.74,41.63,41.63,0,0,1-1.83,18.7A28.35,28.35,0,0,1,407.81,94a36,36,0,0,1-17.35,7.25,41.5,41.5,0,0,1-6.77.55H366.2Zm10.71-9.63A77.74,77.74,0,0,0,390,91.63a19.58,19.58,0,0,0,12.94-7.86,26.15,26.15,0,0,0,4.88-16.4,31.12,31.12,0,0,0-1-6.78A19.55,19.55,0,0,0,396.09,47a27.94,27.94,0,0,0-12.67-2.85h-7.8Z"/><path class="cls-1" d="M287.86,33.48H306a23.64,23.64,0,0,1,12.74,3.8,17.76,17.76,0,0,1,7.79,13.15,20.94,20.94,0,0,1-.95,10.64,19.85,19.85,0,0,1-7.86,9.42c-1.22.81-2.58,1.35-3.93,2.1l20.33,29.55H323a2,2,0,0,1-1.49-.68l-11-16.06-6.78-9.69a1.82,1.82,0,0,0-1.29-.68h-4.2v27.11H287.86Zm9.83,32.67h9.21a8.27,8.27,0,0,0,6-3.73,14.87,14.87,0,0,0,2.37-9.08,10.93,10.93,0,0,0-4.81-8.88c-3.93-3-8.34-1.83-12.74-2.1Z"/><path class="cls-1" d="M454.1,33.48h39.24V42H465.08V63.24H491v8.6H465V93.73H495v8.54H454.3Z"/><path class="cls-1" d="M238.39,33.48h39V42h-28V63.24h25.95v8.6H249.37V93.73h29.68v8.54H238.39Z"/><path class="cls-1" d="M48.16,41.68c-.41,1-.81,1.7-1.15,2.51a15.65,15.65,0,0,0-1.09,3.73,21.74,21.74,0,0,0,1.9,11.32,21.29,21.29,0,0,0,11.25,10,39.41,39.41,0,0,0,15.05,3,1.9,1.9,0,0,0,2-1.22A101.14,101.14,0,0,1,86.92,52.46a122.41,122.41,0,0,1,9.7-12.2,29.15,29.15,0,0,1,16.46-8.81,12.09,12.09,0,0,1,7.39.75,7.13,7.13,0,0,1,3.19,7.66,35.79,35.79,0,0,1-8.27,16.73A45.92,45.92,0,0,1,97.63,69.67,48.3,48.3,0,0,1,85,73.33,4.76,4.76,0,0,0,81.23,76c-2.51,3.87-5.49,7.59-7.93,11.66a38.58,38.58,0,0,1-4.2,4.74c-.95,1-2.1,1.9-3.46,3.12,4.27.82,8.34,1.63,12.41,2.24a48.75,48.75,0,0,0,7.72.74A25.37,25.37,0,0,0,101.56,93,36.61,36.61,0,0,0,109,84.65,46.46,46.46,0,0,1,123.45,71.1,13.52,13.52,0,0,1,133,69.81a4.27,4.27,0,0,1,3.18,3c.54,1.63-.4,2.71-1.15,3.79A24.77,24.77,0,0,1,119.59,87c-2.1.54-4.27.74-6.78,1.15a1.48,1.48,0,0,0-.88.67c-.61,2.58-1.35,5.09-1.76,7.73a4.46,4.46,0,0,0,3.42,5.32,4.17,4.17,0,0,0,.78.1,12.72,12.72,0,0,0,10.57-3.25,29.46,29.46,0,0,0,7.73-8.61,1.49,1.49,0,0,1,2.57,0,33.78,33.78,0,0,1-12.06,12.13,16.12,16.12,0,0,1-13.55,0,6.79,6.79,0,0,1-3.87-5.55c-.27-1.37-.47-2.75-.61-4.14-2,2.1-3.93,4.27-6,6.24a17.09,17.09,0,0,1-9.89,5,37.66,37.66,0,0,1-16.2-2.17C69.71,100.51,66.32,99.22,63,98a1,1,0,0,0-.74,0,21.75,21.75,0,0,1-11.59,5,27.13,27.13,0,0,1-14.44-.41,6,6,0,0,1-2.91-1.9A5.15,5.15,0,0,1,35,93.55l0,0a22.48,22.48,0,0,1,5.22-1.83,24.59,24.59,0,0,1,4.54,0,70.45,70.45,0,0,1,13.56,1.69A19.34,19.34,0,0,1,61,94a2.15,2.15,0,0,0,2.23-.74A63.59,63.59,0,0,0,73.51,77.87c.47-1.15.88-2.37,1.35-3.66a24.59,24.59,0,0,1-6.78-.61A31.25,31.25,0,0,1,50.6,66.83a19.2,19.2,0,0,1-6.3-12.2A29.07,29.07,0,0,1,45,44.12C44.77,42.29,46.06,41.55,48.16,41.68ZM83.81,71.44h2.37A38.63,38.63,0,0,0,97.63,67a56.85,56.85,0,0,0,14.44-11,38.88,38.88,0,0,0,7.65-11.93,10,10,0,0,0,.61-6.77,6.29,6.29,0,0,0-8.2-2.78,22.05,22.05,0,0,0-5.89,3.79,48.26,48.26,0,0,0-8.68,10.17c-2.84,4.27-5.62,8.61-8.2,13A92.24,92.24,0,0,0,83.81,71.44ZM33.86,98.54c4.88,5.7,19,4.34,24.26-2.3a31.55,31.55,0,0,0-18-2.37,8.06,8.06,0,0,0-6.3,4.4ZM114,86.41h1.09a35,35,0,0,0,11.32-4.13,15.78,15.78,0,0,0,6.77-8.13c.75-1.83,0-2.85-2-2.92a7.83,7.83,0,0,0-4.81,1.9,53.33,53.33,0,0,0-6.17,5.56c-2.1,2.23-3.73,4.67-6.17,7.45Z"/><path class="cls-1" d="M352.45,102.14H342.21V33.48h10.24Z"/><path class="cls-1" d="M430,33.48h10.23v68.59H430Z"/><path class="cls-1" d="M490.22,112.37h12.2a8.53,8.53,0,0,1,8.4,5.89,8.4,8.4,0,0,1-2.3,9.29,24.64,24.64,0,0,1-4.41,2.37l8.2,13.55h-4.88a1,1,0,0,1-.74-.54c-2.24-3.79-4.54-7.52-6.78-11.38a2.24,2.24,0,0,0-2.37-1.43,15.87,15.87,0,0,1-2.58,0v13.56h-4.81ZM494.83,127h6.64a8.22,8.22,0,0,0,1.83-.48,5.48,5.48,0,0,0,2.91-6.77,4.24,4.24,0,0,0-2.71-3.39,25,25,0,0,0-8.67-.55Z"/><path class="cls-1" d="M429.63,143.68h-5l-2.37-7.8H410.12s-.75.48-.88.89c-.75,2.23-1.43,4.54-2.17,6.77h-4.88c.81-2.57,1.69-5.15,2.51-7.66,2.5-7.45,5-15,7.45-22.43a1.63,1.63,0,0,1,1.78-1.45l.19,0h4.06c.75,0,1.15,0,1.42,1C422.86,123.21,426.25,133.38,429.63,143.68Zm-13.55-27.92h0l-5.42,16.94h10.71Z"/><path class="cls-1" d="M486.09,143.68h-5l-2.37-7.8H466.64c-.34,0-.75.48-.88.82-.82,2.3-1.49,4.61-2.24,6.77h-4.88c.75-2.37,1.49-4.6,2.24-6.77,2.57-7.86,5.21-15.66,7.79-23.45a1.56,1.56,0,0,1,1.78-1.3h.05a28.47,28.47,0,0,0,4.13,0,1.35,1.35,0,0,1,1.49,1.09C479.38,123.28,482.77,133.38,486.09,143.68Zm-19.25-11h11l-5.35-17h0Z"/><path class="cls-1" d="M540.1,143.61h-4.81c.88-2.85,1.76-5.56,2.71-8.34,2.37-7.31,4.88-14.57,7.25-22A1.55,1.55,0,0,1,547,112.1h4.41c.4,0,1,0,1.08.68,3.46,10.23,6.78,20.33,10.23,30.76h-5.08l-2.37-7.72H543.35a1.28,1.28,0,0,0-1,.74Zm3.25-11h11L549,115.76h0Z"/><path class="cls-1" d="M513.4,116.57v-4.13h23.18v4.06h-9.09v27.11h-4.94V116.5Z"/><path class="cls-1" d="M384.43,134.12c.34,1.29.68,2.58,1.09,3.8a3.93,3.93,0,0,0,4.27,2.37,4,4,0,0,0,3.59-3.25,14.2,14.2,0,0,0,0-2.44V112.71h4.81v22.63a8.28,8.28,0,0,1-5.9,8.68,10,10,0,0,1-10-2.1,9.16,9.16,0,0,1-2.16-5.9l.61-.88Z"/><path class="cls-1" d="M456.74,112.37,444.88,126.6l12.68,17.08h-5.15a1.46,1.46,0,0,1-1-.61l-11.25-15.39a1.21,1.21,0,0,1-.11-1.72,1.14,1.14,0,0,1,.11-.11c3.11-3.86,6.16-7.65,9.21-11.58,1-1.22,2-2.24,3.8-1.9A25.84,25.84,0,0,0,456.74,112.37Z"/><path class="cls-1" d="M433.7,112.44h4.74v31.17H433.7Z"/></svg>