<svg id="Layer_1" data-name="Layer 1" xmlns="http://www.w3.org/2000/svg" viewBox="0 0 595.28 175.75"><defs><style>.cls-1{font-size:16.96px;font-family:Poppins-Bold, Poppins;font-weight:700;}.cls-1,.cls-4{fill:#323567;}.cls-2{fill:#4e6830;}.cls-3{fill:#d84e29;}</style></defs><text class="cls-1" transform="translate(186.35 170.23)">PT. MILLENIUM MUDA MANDIRI</text><path class="cls-2" d="M285.43,10.77a67.92,67.92,0,0,0-38.57,2.34c-29.32,10.92-39.62,39-41.12,43.33a68.06,68.06,0,0,0-2.34,36.27c5.43,25.4,24.08,39,28.68,42.18a63.52,63.52,0,0,1-23.77-12.19c-17.87-14.78-26.39-39.15-23.12-62.15.58-4.06,5.66-35.8,35.68-51.33C252.6-7.18,283.2,9.5,285.43,10.77Z"/><path class="cls-3" d="M240.32,130.88s14-66.49-3.67-89.88c0,0,7.21-3.34,8.95-8,0,0,18.45,16.71,48.52,7,0,0,21.38,24.73,34.74,14.37,0,0-7.68,15.37-37.08-4,0,0-18,8.69-41.77-3.68C250,46.68,253.69,115.51,240.32,130.88Z"/><path class="cls-4" d="M440.36,134.86,381,133.78a6.67,6.67,0,0,0-1.16-2.78l5.85-6.6a2,2,0,0,0-3-2.68l-5.92,6.67v-8.92a2,2,0,0,0-4,0v8.23l-5-6.56a2,2,0,0,0-3.22,2.44l5.07,6.7a6.76,6.76,0,0,0-1.71,3.26l-34.11-.65h-.1c-1.38.18-9,1.05-12.48-3.51-1.94-2.54-1.86-5.81-.84-11.36,2.08-11.26,4.9-14.81,7.19-22.89,1.06-3.77,6.26-22.1-1.67-29A16.37,16.37,0,0,0,318,62.89a17,17,0,0,0-9.86,1.84c-13,7-20.18,38.85-21.72,40.42-.16.17-1,1-1,1h0c4.23-21.59.56-32.75.56-32.75-.68-2-2.88-8.73-8.63-10.77s-11.9,1.4-15.21,4.65c-3.63,3.57-4.69,8-6.61,16-.26,1.08-.47,2.08-.65,3-.63,3.17-.91,5.54-1,6.13-.57,4.67-2.3,13.06-3.12,16.76-2.1,9.52-3.15,14.28-6,20.05l-.07.13a.69.69,0,0,0,1.2.66c.68-1.11,1.22-2.13,1.65-3,2-4.12,3-8,4.87-15.73.49-2,1-4.43,2.09-9.38.93-4.28,2.15-10.06,2.45-11.53.66-3.11,1.41-6.21,2.09-9.32a28,28,0,0,1,2-6.6c1.07-2.27,2.16-4.5,4.56-5.46.19-.08,2.63-1,4.32-.13,3.75,2,2.1,12.08,1.59,15.27-2.05,12.64-4.79,30.62-8.27,53.09a.69.69,0,0,0,1,.74L283.61,129a.66.66,0,0,0,.4-.56c1.13-13.83,14.67-46.55,14.67-46.55s6.91-15.42,12.69-15,.9,16.49.9,16.49c-5,17.36-5.57,20-5.57,20-3,13.73-5,22.74-.05,28.9,1.41,1.78,4.85,5.14,12.92,6.07h.1l45.84-.66,2.88,0L363.76,143a2,2,0,1,0,3,2.69l4.42-5a7,7,0,0,0,1.5.59V148a2,2,0,1,0,4,0v-6.82a5.27,5.27,0,0,0,.8-.36l4.17,5.51a2,2,0,0,0,3.23-2.44l-4.5-5.94,59.89.52a1.78,1.78,0,0,0,1.8-1.78A1.81,1.81,0,0,0,440.36,134.86Z"/></svg>