<svg id="Layer_1" data-name="Layer 1" xmlns="http://www.w3.org/2000/svg" viewBox="0 0 595.28 175.75"><defs><style>.cls-1{fill:#1e3160;}</style></defs><path class="cls-1" d="M349,118.63H349c-2.36-.24-4.75-.36-7.08-.48s-4.69-.23-7.05-.47c-2.36.24-4.74.36-7.05.47s-4.73.24-7.08.48h-.3c-2.42,0-5-.09-5-2.44s1.38-3,3.63-4c2.6-1.16,2.87-3,2.87-9.58V64.32a12,12,0,0,0-.24-2.75A15.22,15.22,0,0,0,319.73,65l-.51,1L295.7,115c-1.2,2.42-2.51,3.64-3.9,3.64-1.69,0-2.42-1.48-3-2.67l-.07-.13L265.67,65c-1.17-2.75-1.71-3-1.89-3s-.43,0-.43,2.23V95.84c0,6.61,1.16,13.18,9.6,16.4,1.83.69,3.52,1.65,3.52,4s-2.6,2.44-3.71,2.44a56.21,56.21,0,0,1-6.26-.48,52.71,52.71,0,0,0-6.15-.48,55,55,0,0,0-6.15.48,56.58,56.58,0,0,1-6.27.48c-1.12,0-3,0-3-2.44,0-2.08,1.42-2.84,3.07-3.72l.4-.21c5.68-3.1,7.4-6.13,7.4-13V54.14c0-4.67-1.44-10.83-5.5-12.83-.69-.34-1.31-.63-1.86-.88-2.65-1.25-4-1.87-4-3.77,0-1.73.6-2.44,2.06-2.44,1.79,0,3.6.12,5.36.24s3.53.24,5.28.24,3.55-.12,5.29-.24,3.56-.24,5.35-.24c2.36,0,3.5.32,4.49,2.32l23.05,48.65c.65,1.34,1.18,2.47,1.62,3.4.73,1.55,1.28,2.73,1.57,3.17a17,17,0,0,0,1.5-2.63l.89-1.69,25.88-50.18c1.27-2.47,1.87-3,3.18-3,1.79,0,3.61.13,5.36.25s3.53.23,5.28.23,3.55-.12,5.29-.23,3.56-.25,5.35-.25a1.36,1.36,0,0,1,1,.43,2.61,2.61,0,0,1,.44,2.05c0,2.13-2,2.86-5.39,4.06l-.63.22c-3.92,1.33-5.8,2.27-5.8,9.22V92.72c0,9.81.45,16,9.48,19.52,2.4.93,3.88,1.62,3.88,4s-2.79,2.43-5.25,2.43"/><path class="cls-1" d="M395.35,119.37c-5.36,0-10.33-1.22-15.14-2.41-2.13-.52-4.32-1.06-6.54-1.5l-.44-.08c-1.22-.21-3.26-.57-3.84-2.58l-4.17-16.45c-.08-.34-.18-.71-.29-1.11a12.3,12.3,0,0,1-.57-2.89c0-.64.25-2.7,3.43-2.7,2.54,0,3.49,2.5,4.18,4.33.16.42.31.82.47,1.16,3.89,8.25,12,17.06,23.28,17.06,8.33,0,14.15-5.24,14.15-12.77,0-7.73-8-10.54-17.2-13.81-12-4.23-26.87-9.5-26.87-28.34C365.8,44,377,33.2,390.73,33.2a40.41,40.41,0,0,1,14.83,3.15,17.5,17.5,0,0,0,5.25,1.45,9.27,9.27,0,0,0,2.35-.8,7.74,7.74,0,0,1,2.63-.85c2.51,0,2.84,1.7,2.84,3.18-.17,4.79.75,11.57,1.29,15.62.25,1.84.37,2.75.37,3.16,0,2.18-1.27,3.53-3.31,3.53-2.7,0-3.4-2.2-4.29-5l-.16-.5c-2.66-8.4-12.46-15.77-21-15.77-6.27,0-12.62,3.42-12.62,9.94,0,8.16,8.08,10.9,17.44,14.08,12.49,4.23,26.64,9,26.64,28a27.4,27.4,0,0,1-27.67,27"/><path class="cls-1" d="M476.5,119.37c-20.19,0-41.07-15.1-41.07-40.38,0-15.21,4.72-27.48,13.65-35.49,7.42-6.66,17.69-10.32,28.93-10.32,8.71,0,16,2.84,20.82,4.72a20.07,20.07,0,0,0,4.82,1.54c.82,0,1.06-.37,1.56-1.27a3.72,3.72,0,0,1,3.55-2.39,2.35,2.35,0,0,1,2.42,2.06L512.93,54c.11,1,.26,1.94.42,2.89a23.22,23.22,0,0,1,.4,3.35c0,1.87-.91,3.76-2.67,3.76s-3-2.34-3.73-3.74q-.12-.24-.21-.39c-7-12.57-16.4-19.48-26.45-19.48-16.55,0-24.59,10.89-24.59,33.31,0,19,11.71,34.39,26.1,34.39,8.52,0,17.37-4,24.28-11.06l.77-.83c1.32-1.44,2.95-3.24,4.88-3.24.67,0,2.22.26,2.22,2.59,0,4-12.72,23.85-37.85,23.85"/><path class="cls-1" d="M139.81,119.6a1.32,1.32,0,1,0-.49-1.8,1.33,1.33,0,0,0,.49,1.8m57.1-21.32,39-10.41-39-10.42,15.9-21.23-26.31,3.2L189.71,33,168.51,49,158.1,9.92,147.7,49,126.5,33.07l3.19,26.35-26.33-3.19,15.93,21.24-39,10.4,39,10.43-15.93,21.23,26.34-3.2-3.19,26.38,21.19-15.92,10.4,39,10.39-39.08,21.21,16-3.18-26.4,26.32,3.22Zm24.34-10.41s-23,0-23,0a40.21,40.21,0,0,0-.48-6.24ZM95,87.87s23,0,23,0a41.51,41.51,0,0,0,.47,6.25Zm90.31-47.06L178.19,53a36.64,36.64,0,0,0-5.62-2.69Zm-7.63,17.53a2.11,2.11,0,1,1-.77-2.9,2.11,2.11,0,0,1,.77,2.9M158.11,24.63v23a41.2,41.2,0,0,0-6.24.47ZM139.44,55.46a2.12,2.12,0,1,1-.78,2.9,2.12,2.12,0,0,1,.78-2.9M138,53a38,38,0,0,0-5.14,3.53l-1.94-15.74ZM124.87,87.71a2.12,2.12,0,1,1-2.12-2.11,2.12,2.12,0,0,1,2.12,2.11m-13.76-27,12.19,7.09a37.29,37.29,0,0,0-2.68,5.64Zm0,54.43L123.3,108a38.12,38.12,0,0,0,3.53,5.15ZM130.93,135,138,122.73a36.75,36.75,0,0,0,5.63,2.69Zm7.71-17.62a2.11,2.11,0,1,1,.78,2.9,2.11,2.11,0,0,1-.78-2.9m19.47,33.73s0-23,0-23a41.34,41.34,0,0,0,6.23-.49Zm18.77-30.81a2.12,2.12,0,1,1,.78-2.9,2.13,2.13,0,0,1-.78,2.9m1.32,2.42a37.19,37.19,0,0,0,5.14-3.54L185.28,135Zm-20.1-4.25a30.61,30.61,0,1,1,30.55-30.61,30.58,30.58,0,0,1-30.55,30.61m47-57.82L192.9,67.75a38.36,38.36,0,0,0-3.53-5.15ZM191.33,87.84a2.1,2.1,0,0,1,2.11-2.11,2.12,2.12,0,1,1-2.11,2.11m4.26,14.52,9.5,12.73L192.91,108a37.76,37.76,0,0,0,2.68-5.64M141.15,58.44a1.34,1.34,0,0,0,.49-1.81,1.31,1.31,0,0,0-1.8-.48,1.33,1.33,0,0,0-.49,1.81,1.31,1.31,0,0,0,1.8.48M121.43,87.71a1.32,1.32,0,1,0,1.32-1.32,1.33,1.33,0,0,0-1.32,1.32m53.73,29.62a1.32,1.32,0,1,0,1.81.48,1.31,1.31,0,0,0-1.81-.48m19.6-29.49a1.32,1.32,0,1,0-1.32,1.33,1.32,1.32,0,0,0,1.32-1.33M176.47,56.13a1.32,1.32,0,1,0,.49,1.81,1.33,1.33,0,0,0-.49-1.81"/><path class="cls-1" d="M146.4,104.89a1.52,1.52,0,0,0,.93,1.35,3.82,3.82,0,0,0,2.86,0,1.43,1.43,0,0,0,.09-2.65,5.9,5.9,0,0,0-1.28-.45l-1.72-.38-.9-.15a8.59,8.59,0,0,1-4.55-2.06,5.31,5.31,0,0,1-.76-1.22,5.2,5.2,0,0,1,2.62-6.86,12.6,12.6,0,0,1,10-.1,4.86,4.86,0,0,1,3.25,4.52h-5.49a1.93,1.93,0,0,0-1.64-1.53,3.19,3.19,0,0,0-2.11.21,1.57,1.57,0,0,0-.86,2,2.65,2.65,0,0,0,1.93,1.31,26.23,26.23,0,0,1,4.56,1,4.69,4.69,0,0,1,1.76.76,5,5,0,0,1,1.24,1.4,5.12,5.12,0,0,1-1.72,7,12.76,12.76,0,0,1-9.53.78,5,5,0,0,1-4.11-5ZM175.3,99a7.22,7.22,0,0,0-3.42-6,7.88,7.88,0,0,0-9.85.52,8.07,8.07,0,0,0-2.75,5.74,13.46,13.46,0,0,0,.75,6.56,7.79,7.79,0,0,0,4.57,4.13,7.21,7.21,0,0,0,6-.37,8.15,8.15,0,0,0,4.65-6.71h-5.06a4.36,4.36,0,0,1-1.61,2.38c-1.62,1.08-3.53,0-4.25-2.38s0-5.18,1.61-6.25,3.52,0,4.25,2.38Zm-7.36-12.55V74.7a2.91,2.91,0,0,0-5.81.15v13.2a27.25,27.25,0,0,1,5.81-1.62M154.07,88V74.85a2.93,2.93,0,0,0-5.81-.47V86.51A23.34,23.34,0,0,1,154.07,88m28.67,1.88a8.41,8.41,0,0,1-7.52.39,15.37,15.37,0,0,0-11.49,0,15.79,15.79,0,0,1-11.27,0,15.42,15.42,0,0,0-11.49,0,8.44,8.44,0,0,1-7.52-.39l1.32-2.22a5.87,5.87,0,0,0,5.2.23V65.93h8.21V68a7.18,7.18,0,0,1,.85-.8A8.48,8.48,0,0,1,161,68.41a8.64,8.64,0,0,1,15.26,5.13V87.86a5.91,5.91,0,0,0,5.2-.24Z"/><path class="cls-1" d="M266,147.82c.07.59.22,1.25.22,1.63s-.15.75-.46.75-.72-.75-.85-1c-2-3.47-4.63-5.28-7.35-5.28-4,0-6.89,2.24-6.89,9.06,0,4.81,3.07,9.34,7.29,9.34a9.82,9.82,0,0,0,6.73-3c.38-.37.85-1,1.35-1,.25,0,.34.15.34.44,0,.94-3.38,6.06-9.95,6.06-5.25,0-10.82-3.78-10.82-10.44,0-8.71,5.85-11.86,11.23-11.86,3.44,0,6.07,1.65,6.92,1.65s.5-1,1.37-1a.38.38,0,0,1,.41.35Z"/><path class="cls-1" d="M293.22,146.66a2.36,2.36,0,0,0-2.38-2.59.67.67,0,0,1-.65-.75c0-.32.12-.5.87-.5s1.6.24,3.82.24c1.69,0,4-.24,5.38-.24,4.19,0,8.54.78,8.54,5.93a4.25,4.25,0,0,1-2.34,4c-.63.34-1.53.53-1.53.84a46.89,46.89,0,0,0,5,8.44c.31.34.57.53.85.53s.69-.09,1-.09.5.22.5.56c0,1.34-3.69,1.53-4.73,1.53a3.28,3.28,0,0,1-2.69-1.87L301.2,156c-.53-1-1-1.75-2.19-1.75-.81,0-1,.16-1,.56v5.31c0,2.56,1.06,3.13,2.38,3.22a.65.65,0,0,1,.65.75c0,.4-.37.5-1.81.5-1.26,0-2.51-.25-3.76-.25s-2.5.25-3.75.25c-.44,0-.91,0-.91-.5s.53-.66.85-.75a2.49,2.49,0,0,0,1.59-2.6Zm4.76,5.13c0,.37,0,1.09,2,1.09,2.81,0,4-1.31,4-4.44,0-2.25-1.34-4.44-4-4.44-1.66,0-1.94.5-1.94,1.63,0,0,0,6.16,0,6.16"/><path class="cls-1" d="M337.83,146.66c0-1.94-1.07-2.59-2.38-2.59a.61.61,0,0,1-.66-.66c0-.44.28-.59,1.82-.59,1.25,0,2.5.25,3.75.25s2.5-.25,3.76-.25c.75,0,.9.19.9.5s-.44.5-.93.75a2.71,2.71,0,0,0-1.51,2.6v9.71a6,6,0,0,0,6.29,6.28c5.61,0,7-4.47,7-7.94v-8a2.41,2.41,0,0,0-2.53-2.68c-.54,0-1-.25-1-.75s.38-.5,1.16-.5c.94,0,1.88.13,2.82.13s1.88-.13,2.81-.13c.63,0,.72.13.72.5s-.56.53-1.09.75c-.91.37-1.16.94-1.16,3.65v6.65c0,6.94-3.6,10.47-10.67,10.47-5.73,0-9.07-2.41-9.07-8.34Z"/><path class="cls-1" d="M391.53,160.72a2.63,2.63,0,0,0,2.41,2.6c.41,0,.66.24.66.75s-.91.5-1.82.5-2.22-.25-3.47-.25-2.5.25-3.75.25c-.6,0-1.07,0-1.07-.5s.53-.66.85-.75c1.22-.38,1.44-1.57,1.44-2.6V146.66a2.26,2.26,0,0,0-2.38-2.59c-.41,0-.65-.25-.65-.75s.9-.5,1.81-.5c1.25,0,2.5.24,3.76.24s2.5-.24,3.75-.24c.44,0,.91,0,.91.5s-.85.65-1.16.75c-1.22.37-1.28,1.56-1.28,2.59Z"/><path class="cls-1" d="M419,158.94a6.2,6.2,0,0,1-.22-1c0-.23.13-.47.66-.47s.78.84,1,1.31c1.16,2.47,3.41,4.66,6.36,4.66,2.19,0,4-1.34,4-3.63,0-5.09-11.61-2.62-11.61-11.15a6.2,6.2,0,0,1,6.32-6.12c2.66,0,4.25,1.22,5.29,1.22.34,0,1-.44,1.31-.44s.5.18.5.59a42.65,42.65,0,0,0,.44,5c0,.4-.18.68-.62.68s-.7-.5-.94-1.27a6.66,6.66,0,0,0-5.76-4.34c-1.91,0-3.57,1.09-3.57,2.87,0,5.31,11.61,2.5,11.61,11.12a7,7,0,0,1-7,6.9,28.46,28.46,0,0,1-5.67-1c-.31-.06-.81-.09-.93-.53Z"/><path class="cls-1" d="M460.77,148.25c0-1.53-.15-3.87-1.47-4-1-.12-1.62-.4-1.62-.9s.53-.5,1.15-.5a60.24,60.24,0,0,0,7.23.24c2.41,0,4.82-.24,7.23-.24.72,0,1.34,0,1.34.62s-.12,1.38-.12,2.07.12,1.37.12,2.06c0,.34-.09.59-.56.59s-.59-.56-.63-.84c-.22-2-1.12-2.78-4.79-2.78h-2c-.87,0-1.09.28-1.09,1.5v5.47c0,.5.53.65,1.78.65,1.82,0,3.19-.53,3.69-1.87.34-.88.47-1,.78-1,.48,0,.48.44.48.88,0,.93-.13,1.87-.13,2.81s.13,1.87.13,2.81c0,.44,0,.88-.6.88s-.47-.94-.84-1.57c-.79-1.27-1.69-1.47-3.51-1.47-1.5,0-1.78.41-1.78,1.19v5.34c0,2.31.41,2.65,2.06,2.65,3.29,0,5.1-1,6.17-2s1.37-2.09,1.87-2.09.5.28.5.59a10.14,10.14,0,0,1-.46,2.47c-.41,1.25-1.82,2.78-3.29,2.78-2.1,0-4.19-.25-6.29-.25s-4.2.25-6.29.25c-1,0-1.44,0-1.44-.5s.62-.72,1.19-1c1-.5,1.22-1.25,1.22-3Z"/><path class="cls-1" d="M500.27,158.94a6.2,6.2,0,0,1-.22-1c0-.23.13-.47.66-.47s.78.84,1,1.31c1.15,2.47,3.41,4.66,6.35,4.66,2.19,0,4-1.34,4-3.63,0-5.09-11.61-2.62-11.61-11.15a6.19,6.19,0,0,1,6.32-6.12c2.65,0,4.25,1.22,5.29,1.22.34,0,1-.44,1.31-.44s.5.18.5.59a41.06,41.06,0,0,0,.43,5c0,.4-.18.68-.63.68s-.68-.5-.93-1.27A6.66,6.66,0,0,0,507,144c-1.91,0-3.57,1.09-3.57,2.87,0,5.31,11.61,2.5,11.61,11.12a7,7,0,0,1-7,6.9,28.33,28.33,0,0,1-5.67-1c-.31-.06-.81-.09-.94-.53Z"/></svg>