<svg id="Layer_1" data-name="Layer 1" xmlns="http://www.w3.org/2000/svg" viewBox="0 0 595.28 175.75"><defs><style>.cls-1{fill:#2867af;fill-rule:evenodd;}</style></defs><path class="cls-1" d="M124.7,12.28l-19.14.1.45,3.77.85,5.32,3,.29c3.4.32,11.59,1.11,15.65,2.08.52,9.85.71,41.44.71,49.54v8.15c0,22.21-.2,58.86-.73,70.54-3.69.67-9.19,1.42-12.75,1.91l-5.61.78-.35,2.38-1.4,6.49,3.7-.31c4.83-.41,27.58-.81,36.13-.81,8,0,27.54.4,33.36.81l3.84.27-2.24-8.9-2-.23c-3.82-.43-14.38-1.61-19.91-2.46-.52-10.79-.69-50.83-.69-69.46V74c0-18.06.17-41.78.64-50.59,7.74.28,14.63,1.76,18.79,4.1,8,4.56,12.61,15.15,12.61,26.31,0,24.27-10.66,33.38-22.25,36.74l-1.91.55-1.2,11.64,3.67-.59c8.23-1.33,28.61-7.41,40.25-20.92a51.19,51.19,0,0,0,13-34.76c0-5.7-1.84-19.87-19-28.13-8.76-4.15-27.86-6.17-48.32-6.17l-29.07.12ZM238.93,118.43c0-9.61,6.55-19.56,13.6-25.11C266.36,109.54,283,126,296.92,138.74c-4.34,4.07-15.28,12.85-28.55,12.85-13.61,0-29.44-13.93-29.44-33.16Zm-13.8-71.76c0,11,7.31,23.27,18.85,36.59C229.19,91,211.62,105.65,211.62,126c0,22.69,22.8,39.8,48.85,39.8,17.58,0,32-5.83,44.17-17.68l5.87,5c6.39,5.51,8.6,7.54,15.09,11.16l.93.52,17.92-4.39-4.63-4.18c-5.55-5-10-10.22-21-23.34,9.17-13.89,14.74-27.55,16.94-41.6,2.89-.64,7.55-1.37,10.8-1.71l1.86-.2,3.3-11.49-4.62.83c-2,.36-15.34.77-21,.77-9.86,0-19.7-.62-22.48-.81l-4.22-.28,3.15,10.93,1.8.24c4.61.61,8.38,1.21,11.16,1.75,0,.6.1,1.15.1,1.78,0,9-2.84,21.3-6.15,29.24C301,112.2,287.07,95.66,276.58,82.53,294.9,70.37,308.26,55.43,308.26,42c0-15.93-15-32.06-39-32.06-22.39,0-44.11,16.48-44.11,36.75ZM251.55,42c0-11.46,5.43-20.32,14.53-20.32,8.52,0,17.16,9.22,17.16,23,0,6.26-2.17,17.91-15.35,27.72C260.44,63.36,251.55,51.25,251.55,42Z"/><path class="cls-1" d="M412.07,10.07A77.88,77.88,0,1,0,489.94,88a77.88,77.88,0,0,0-77.87-77.88Zm47.08,65c9.39,35-3.81,69-29.48,75.87S375.58,135,366.19,100s3.83-69,29.5-75.87S449.77,40.07,459.15,75.1Z"/><path class="cls-1" d="M382.93,82.3A5,5,0,0,0,379.69,81c-3.06,0-4.87,2.72-4.87,6.32,0,3.89,2.16,6.5,4.87,6.5a4.78,4.78,0,0,0,3.14-1.14l.67,1.27a6.27,6.27,0,0,1-3.89,1.41c-4.43,0-6.68-3.76-6.68-8,0-3.86,2.44-7.9,6.89-7.9A5.38,5.38,0,0,1,383.65,81l-.72,1.32Zm6.15-1.08h1.72a2.3,2.3,0,0,1,2.46,2.61c0,1.29-.47,3.32-3,3.32h-1.14Zm-2,13.84h2V88.68h2.14l3.35,6.64,2-.66L393,88.11a5,5,0,0,0,2.42-4.48c0-2.66-1.84-3.95-4.2-3.95h-4.15Zm14.37-15.38V89c0,3.19,1.12,4.86,3.7,4.86s3.62-2.29,3.62-4.48V79.68h1.89v9.73c0,3.45-2,5.91-5.51,5.91-4.08,0-5.72-2.29-5.72-6.24v-9.4Zm13.53,0h2V95.06h-2Zm13.33,2.37A4.5,4.5,0,0,0,425.79,81,2,2,0,0,0,423.54,83c0,1.1.89,1.91,2.75,3.34s3.15,2.94,3.15,4.92a4.24,4.24,0,0,1-4.5,4,5.81,5.81,0,0,1-4.07-1.61l.88-1.27a5.09,5.09,0,0,0,3.15,1.34,2.33,2.33,0,0,0,2.52-2.53c0-1.93-2.17-3.18-3.35-4.1s-2.55-1.93-2.55-4.11a3.89,3.89,0,0,1,4.15-3.62A4.53,4.53,0,0,1,429.25,81l-.95,1.09Zm12.16-.83h-5.14v5h5v1.54h-5v5.8h6v1.54h-8V79.68h7.14v1.54Zm11,.83a4.41,4.41,0,0,0-2.5-1.09A2,2,0,0,0,446.68,83c0,1.1.89,1.91,2.76,3.34s3.15,2.94,3.15,4.92a4.23,4.23,0,0,1-4.49,4A5.85,5.85,0,0,1,444,93.71l.89-1.27a5,5,0,0,0,3.14,1.34,2.33,2.33,0,0,0,2.53-2.53c0-1.93-2.18-3.18-3.36-4.1s-2.54-1.93-2.54-4.11a3.89,3.89,0,0,1,4.14-3.62A4.54,4.54,0,0,1,452.4,81l-1,1.09Z"/></svg>