<svg id="Layer_1" data-name="Layer 1" xmlns="http://www.w3.org/2000/svg" viewBox="0 0 595.28 175.75"><defs><style>.cls-1{fill:#0b4d88;}</style></defs><path class="cls-1" d="M70.28,81.46c16.75,10.29,19.46,9.91,33.4.75,18-11.79,27.78,3.83,40.13,5.52,6.55.84,12.26-2.81,12.26-2.81-13.29,24.14-31.9,12.63-47,5.52-14.22-6.64-23.67,12.72-38.73,10.2-.47-.1-.75.37-.38.56,17.78,10.94,25.17,5.42,32.74.46,18.53-12.06,29,4.21,40.89,5.8,6.54.85,12.25-2.8,12.25-2.8-15.25,27.6-34.71,10.57-42.75,6.83-6.36-2.9-9.82-6.64-24.23.28-12.54,6.08-29.19,11.13-44.44,6.55a.09.09,0,0,1-.09-.1c1.78-4.86,4.49-11.22,9.17-11.22,1.4,0,8.88.46,9.73.37a1.9,1.9,0,0,0,1.68-1.5c.37-1.59-.28-2-.37-2.52s.46-.66.84-1a1.3,1.3,0,0,0,.65-1.5c-.09-.37-1.12-.56-1.4-.75a.49.49,0,0,1,.28-.84c2.53-.37,2.43-1.68,2.15-2.15-1-1.87.56-2.24,1.22-2.43.84-.19,2.34-.75,1.87-2.15-.56-1.69-1-3-1.41-4.49-.56-2.34-1.12-4.49-.56-5.9.56-1.68,1.41-1.12,2.06-.65m74.09-14.32c-15.24-2-23.48-15-39.75-4.3C94.7,69.3,91.05,74.72,71.5,62.75c-9.83-6-15.63-6.55-21.14-6.93A31.52,31.52,0,0,0,17.05,86.14c-.47,9.54,2.9,18,9.45,24.13a1.26,1.26,0,0,0,2.06-.28l.18-.47,9.92-24.13s5.43-14.22,18.9-9.73c4.3,1.4,7.86,2.8,11.13,3.74,7.67,2.34,13.29,2.43,22.08-4.58,4-3.19,10.66-7.68,19.27-3.65,12.07,5.52,32.18,19.27,46.59-6.74-.09-.09-5.8,3.56-12.26,2.71"/><path class="cls-1" d="M568.91,61.06a4.69,4.69,0,1,1,4.68,4.4,4.43,4.43,0,0,1-4.68-4.4m8.33-.09a3.75,3.75,0,0,0-7.49,0,3.75,3.75,0,0,0,7.49,0m-5.61-.66V59c0-.29-.19-.38-.66-.38-.09,0-.09-.09-.09-.19s.09-.18.28-.18h.18a7.77,7.77,0,0,0,.85.09c.46,0,.65-.09,1.12-.09.84,0,2.24.18,2.24,1.4,0,.47-.18.94-1,1.5l.93,1c.66.74.75.74.84.74a.2.2,0,0,1,.19.19c0,.19-.09.19-.47.19a1.89,1.89,0,0,1-2-.94l-.75-.93h-.66v.47c0,.93.1,1,.1,1s.37.1.47.1.18,0,.18.18-.09.19-.18.19H573c-.09,0-.56-.09-.84-.09s-.66.09-.75.09h-.28c-.1,0-.38-.09-.38-.19A.2.2,0,0,1,571,63c.47,0,.47,0,.56-.28a5.48,5.48,0,0,0,0-1.31m1.22-.66a1.69,1.69,0,0,0,.75.19.85.85,0,0,0,.46-.09,1,1,0,0,0,.47-.85,1.11,1.11,0,0,0-1.21-1.12s-.38,0-.47.1M195.92,57.13c-1.78,0-3.83.1-5.7.1s-3.65.09-5.15.09c-.84,0-2.25,0-3.74-.09-2.06-.1-4.68-.19-7-.19-.65,0-2.24,0-2.24,1.31,0,.84.65,1.31,1.87,1.31a18.68,18.68,0,0,1,2.8.19c2,.46,2.62,1.31,2.72,4,.18,2.53.18,4.77.18,16.93V94.93c0,7.3,0,13.66-.37,16.93-.28,2.34-.66,3.65-1.68,3.93a14.07,14.07,0,0,1-2.53.28c-1.5,0-1.78.66-1.78,1.22s.28,1.4,2.15,1.4c1.69,0,3.93-.09,5.9-.19,1.49-.09,2.8-.09,3.46-.09s1.87,0,3.27.09c2.34.1,5.24.19,8.33.19,1.87,0,2.06-1.12,2.06-1.4s-.19-1.22-1.78-1.22c-1,0-2.71-.19-3.74-.28-1.78-.28-2.15-1.5-2.43-3.74-.38-3.46-.38-9.73-.38-17.12v-32c0-.74.19-.93.19-.93a9,9,0,0,1,2.71-.28,10.15,10.15,0,0,1,7.11,3c3.74,3.65,4.21,8.33,4.21,11.6,0,7.77-5.52,12.63-9.45,12.63-.93,0-2.71,0-2.71,1.5,0,1,.94,1.21,1.4,1.31a9,9,0,0,0,1.69.09c11,0,19-8.42,19-20a14.87,14.87,0,0,0-3.93-9.91c-1.22-1.22-4.77-4.78-14.41-4.78m175.88,0c-2.62,0-4.87.1-6.36.19-.66,0-1.13.09-1.41.09-.65,0-1.59,0-2.8-.09-1.87-.09-4.31-.19-6.83-.19-1,0-2.71,0-2.71,1.31,0,.85.65,1.31,1.87,1.31a11.28,11.28,0,0,1,3.93.47c1.49.66,2.24,1.78,2.33,6.64l.75,34.8c-1-1-2.8-3-5-5.23-3.83-4.12-8.6-9.17-11.78-12.35-12.07-12.16-24.42-25.54-24.51-25.73-.28-.28-.47-.56-.75-.84-.94-1.12-1.69-1.87-2.62-1.87-1.69,0-1.69,2.43-1.69,3.37l-.74,47.43c-.1,7.11-.47,8.88-2.06,9.35a11.38,11.38,0,0,1-3.37.38c-1.59,0-1.87.65-1.87,1.21,0,1.4,1.5,1.4,2.34,1.4,2.9,0,5.61-.09,7.2-.18.66,0,1.12-.1,1.31-.1a18.37,18.37,0,0,1,2.15.1c1.78.09,4.31.18,7.67.18.66,0,2.44,0,2.44-1.4,0-.84-.66-1.21-2-1.21a12.06,12.06,0,0,1-3.93-.57c-1-.37-2.15-1.59-2.34-8.32L320.25,75c.28.28.56.66.94,1,3.27,3.74,10.19,11.41,17.12,18.24,3.37,3.37,7,7.11,10.48,10.67,5,5.14,9.91,10.1,12.81,12.91.94,1,2,2,3.09,2,1.68,0,1.68-2.15,1.68-3.08l.85-50.52c.09-4.77.84-5.71,2.43-6.27a8.93,8.93,0,0,1,2.24-.19c1.78,0,2.06-.84,2.06-1.31.28-1.31-1.4-1.31-2.15-1.31m59.69,45.66c-1.22,0-1.41,1-1.6,2.06a13.57,13.57,0,0,1-2.52,5.05c-3.09,3.55-7.3,4.3-13.94,4.3-16.56,0-24.23-16.65-24.23-27.88,0-9.35,2.24-15.81,7-20.3,3.55-3.37,8-4.77,14.4-4.77,6.65,0,12.91,1.87,15.53,4.77a10.71,10.71,0,0,1,2.9,6.92c0,.75,0,2.34,1.41,2.34s1.49-1.49,1.59-2.43.09-2.43.09-4.12,0-3.27.09-4.58c.1-1.68.19-2.71.28-3.37a4.73,4.73,0,0,0,.1-1c0-.37-.1-1.4-1.78-1.59a32.46,32.46,0,0,1-3.84-.65c-1.31-.28-2.61-.56-4-.75a75.19,75.19,0,0,0-11.51-.84c-10.94,0-19,2.71-25.35,8.6-8.7,8.14-9.45,19.18-9.45,22.36,0,10.11,3.37,18.15,10,24.05,6.83,6.08,15.63,8.88,27.41,8.88,4.78,0,11-.46,14.41-1.87a3.41,3.41,0,0,0,2.43-2.71,82.47,82.47,0,0,0,1.78-10.85c.09-1.41-.84-1.59-1.21-1.59m44.34,2.71c-1.12,0-1.31,1-1.4,1.68-.47,3.19-1.31,4.59-2.9,5.43-1.78.94-4.78.94-6.55.94-7.21,0-8-1.13-8.05-6.18-.09-1.68,0-5.8,0-9.07V88.47c2.15,0,8.79.1,10,.28,2.62.29,3.28,1.5,3.56,2.62a8.37,8.37,0,0,1,.18,2.06,1.33,1.33,0,0,0,.1.66,1.18,1.18,0,0,0,1.31,1.31c1.31,0,1.31-1.5,1.31-2.15,0-.29.09-1.31.09-2.53.09-1,.09-2.15.19-2.81.18-2.71.37-4.21.46-5a3.94,3.94,0,0,0,.1-.93c0-.94-.56-1.22-1.12-1.22s-1,.47-1.5,1.13l-.09.09c-.47.65-1.5.84-3.09.93-1,.1-5.15.19-11.42.19V62.37c1.78,0,9,.19,10.11.28,3.37.47,3.93,1.31,4.4,2.53a9.77,9.77,0,0,1,.37,2.62c0,1.12.47,1.68,1.31,1.68.47,0,1.12-.28,1.31-1.4.09-.66.19-2.34.28-3.74,0-.75.09-1.31.09-1.59.19-2.44.38-3.65.47-4.4a3.3,3.3,0,0,0,.09-.84c0-1.22-.74-1.31-1-1.31a3.08,3.08,0,0,0-.94.19.57.57,0,0,1-.37.09,23.17,23.17,0,0,1-3,.47c-1.21.09-13.1.09-18.05.09-.85,0-2.25-.09-3.84-.09h-6.55c-.65,0-2.24,0-2.24,1.31,0,.93.65,1.31,1.87,1.31a18,18,0,0,1,2.71.18c2,.47,2.53,1.31,2.62,4,.09,2.52.09,4.77.09,16.93V94.84c0,7.29,0,13.65-.37,17-.28,2.34-.66,3.65-1.68,3.93a13.94,13.94,0,0,1-2.44.28c-1.49,0-1.77.75-1.77,1.22s.28,1.4,2,1.4a21.14,21.14,0,0,0,2.34-.09c.84,0,1.78-.1,2.72-.1,1.68-.09,3.27-.09,4.11-.09h0c2.06,0,4.12.09,7.49.28l2.05.09c2.72.1,6.18.19,10.48.19,2.72,0,3.93,0,4.49-2.52a68.33,68.33,0,0,0,.94-9.08c-.1-.65-.1-1.87-1.31-1.87m32-24.23-2.24-1.68c-6.83-5.34-8.14-7.86-8.14-11,0-4.68,3.46-7.67,8.79-7.67,4.68,0,6.93,2,8.14,3.74a9,9,0,0,1,1.87,4.86c0,1.69.75,2.06,1.41,2.06,1.49,0,1.49-1.87,1.49-3,0-4.4.19-6.83.28-8.24,0-.56.1-1,.1-1.3,0-1.22-1.13-1.5-1.59-1.6A38.17,38.17,0,0,0,507.26,56c-11.13,0-18.9,6.46-18.9,15.72,0,7,3.56,12.81,11.89,19.46l3.64,2.9c6.27,5,7.49,8.42,7.49,12.35,0,4.11-3.46,8.51-10,8.51-3.18,0-8.8-1-10.67-7.67a18.32,18.32,0,0,1-.65-3.93c0-1.69-.75-2-1.4-2-1.41,0-1.5,2-1.6,2.62v.28c-.09,1.5-.37,6.09-.37,10.29,0,2,.37,2.62,1.87,3.28A27.34,27.34,0,0,0,500.34,120a23.45,23.45,0,0,0,12.91-3.37,16.68,16.68,0,0,0,7.67-14.4c.09-8-3.46-13.66-13.1-21m42.66,0-2.24-1.68c-6.83-5.34-8.14-7.86-8.14-11,0-4.68,3.46-7.67,8.79-7.67,4.68,0,6.93,2,8.14,3.64a9,9,0,0,1,1.87,4.87c0,1.68.75,2.06,1.41,2.06,1.49,0,1.49-1.87,1.49-3,0-4.39.19-6.83.28-8.23,0-.56.1-1,.1-1.31,0-1.21-1.13-1.5-1.59-1.59a38.17,38.17,0,0,0-10.67-1.4c-11.13,0-18.9,6.45-18.9,15.71,0,7,3.56,12.82,11.89,19.46l3.64,2.9c6.27,5,7.49,8.42,7.49,12.35,0,4.12-3.46,8.52-10,8.52-3.18,0-8.8-1-10.67-7.68a18.14,18.14,0,0,1-.65-3.92c0-1.69-.75-2-1.41-2-1.4,0-1.49,2-1.59,2.62v.28c-.09,1.68-.37,6.08-.37,10.29,0,2,.37,2.62,1.87,3.28A27.49,27.49,0,0,0,543,119.91a23.54,23.54,0,0,0,12.91-3.37,16.71,16.71,0,0,0,7.67-14.41c.09-7.86-3.46-13.56-13.1-20.86M300,116.17c-1.12,0-2.71-.19-3.74-.29-1.87-.28-2.25-1.31-2.43-3.36-.28-3.46-.28-9.64-.28-17.5V80.9c0-12.17,0-14.41.18-16.94.19-2.71.75-3.65,2.25-4a8.59,8.59,0,0,1,2.15-.19c1.22,0,1.78-.46,1.78-1.4,0-1.22-1.69-1.22-2.15-1.22-1.59,0-3.65.1-5.52.1-1.5.09-2.81.09-3.65.09-1,0-2.53-.09-4.21-.09-2-.1-4-.1-5.52-.1-.75,0-2.43,0-2.43,1.22,0,.94.56,1.4,1.77,1.4a9.77,9.77,0,0,1,2.53.28c.94.28,1.87.85,2.06,3.93.18,2.53.18,4.77.18,16.94V95c0,7.86,0,14-.37,17.4-.19,2.34-.65,3.28-1.68,3.46a9.76,9.76,0,0,1-2.25.29h-2.06a16.65,16.65,0,0,1-1.87-.19c-1.12-.19-4-.84-7.95-5.24s-8.14-10.1-13.56-17.4l-2.34-3.09c6.73-6,9.63-11.41,9.63-18a14.93,14.93,0,0,0-5.33-11.51c-4.3-3.18-9.54-3.56-14.13-3.56-1.12,0-3.08.1-5,.1s-4.21.09-5.52.09c-.56,0-1.68,0-3-.09-2.15-.1-4.87-.19-7.3-.19-.65,0-2.24,0-2.24,1.31,0,.84.65,1.31,1.87,1.31a18.68,18.68,0,0,1,2.8.19c2.06.46,2.62,1.31,2.72,4,.18,2.53.18,4.77.18,16.93V94.93c0,7.3,0,13.66-.37,16.93-.28,2.34-.65,3.65-1.68,3.93a14.07,14.07,0,0,1-2.53.28c-1.5,0-1.78.66-1.78,1.22s.28,1.4,2.15,1.4,4.21-.09,6.09-.19c1.3-.09,2.43-.09,3-.09.37,0,1.21,0,2.43.09,2.25.1,5.71.19,8.61.19,1.87,0,2.15-.84,2.15-1.4s-.37-1.22-1.5-1.22c-.84,0-2.52-.19-3.55-.28-1.78-.28-2.15-1.5-2.43-3.83-.38-3.37-.38-9.73-.38-17.12V93.71l6.55.19c.47,0,.65.09.84.37.56.66,2,2.81,3.56,5.24,1.21,1.87,2.52,3.84,3.83,5.71,4.4,6.45,7.21,10.1,10.48,12,2.15,1.22,4.12,1.59,8.33,1.59h9.45c1.68,0,3.92-.09,5.89-.18,1.5-.1,2.81-.1,3.46-.1s2,0,3.46.1c2.34.09,5.24.18,8.23.18,1.88,0,2.06-1.12,2.06-1.4s-.28-1.21-1.87-1.21m-49.49-40c0,7.2-2.62,10.29-4.21,11.5-1.21.94-2.06,1.22-5,1.22a17.56,17.56,0,0,1-5.42-.75c-.19-.09-.28-.19-.28-.94V62.84c0-.47.09-.47.28-.56a15.22,15.22,0,0,1,3.74-.28c4,.09,10.85,3.09,10.85,14.13"/></svg>