<svg id="Layer_1" data-name="Layer 1" xmlns="http://www.w3.org/2000/svg" xmlns:xlink="http://www.w3.org/1999/xlink" viewBox="0 0 595.28 175.75"><defs><style>.cls-1{fill:none;}.cls-2{clip-path:url(#clip-path);}.cls-3{fill:url(#linear-gradient);}.cls-4{fill:#6d0e23;}.cls-5{clip-path:url(#clip-path-2);}.cls-6{fill:url(#linear-gradient-2);}.cls-7{clip-path:url(#clip-path-3);}.cls-8{fill:url(#linear-gradient-3);}</style><clipPath id="clip-path"><path class="cls-1" d="M194.26,25.43c-1.18-.24-1.31.48-.35.69,29.21,6.37,57-2.25,79.49-10.83C290.73,8.65,305,2,314.47,2.25c21.38.51,31.66,17,63.18,24.8,16.75,4.16,26.44,2.74,36.33-.38.77-.24.59-.51-.17-.41-11.76,1.56-23.49.86-44.84-6.92C348.38,12,328.79,1.17,314.33,1.17c-25.78,0-77.34,32.49-120.07,24.26"/></clipPath><linearGradient id="linear-gradient" x1="1254.48" y1="-417.03" x2="1256.86" y2="-417.03" gradientTransform="matrix(93.14, 0, 0, -93.14, -116652.01, -38825.86)" gradientUnits="userSpaceOnUse"><stop offset="0" stop-color="#6d0e23"/><stop offset="0.1" stop-color="#79181f"/><stop offset="0.27" stop-color="#9b3821"/><stop offset="0.51" stop-color="#ce6828"/><stop offset="0.52" stop-color="#d06b28"/><stop offset="0.67" stop-color="#a84524"/><stop offset="0.81" stop-color="#89261c"/><stop offset="0.92" stop-color="#741521"/><stop offset="1" stop-color="#6d0e23"/></linearGradient><clipPath id="clip-path-2"><path class="cls-1" d="M193.57,84.46c.83.73,1.39,1.28,1.84,1.73.62.66.62,1.07.62,1.07,3.11-2.8,3.29-2.87.24-5.5l-.1,0s-2.39,2.56-2.6,2.73M212.5,58.13c-.38,0-.52.1-.52.27a.33.33,0,0,0,.28.28,2.86,2.86,0,0,1,2.91,1.8c2.28,4.53,1.52,14.78-10,14.78H184.92c-11.87,0-12.31-10.9-9.75-15.19a2.8,2.8,0,0,1,2.66-1.39.34.34,0,0,0,.28-.28c0-.17-.14-.27-.52-.27-1.52,0-3.5-.11-4.05-.11s-.93.11-1.25.56h0s0,.07-.07.1a1,1,0,0,1-.1.17h0c-3.63,6.44-.93,18.55,14.36,18.55h17.16c15.26,0,18-12.14,14.36-18.58h0c-.07-.1-.1-.17-.17-.28h0a1.26,1.26,0,0,0-1.25-.55c-.58.07-2.59.14-4.08.14M373.78,74.94a41.62,41.62,0,0,1,4-4.6c4-4,10.48-9.1,17.3-9.1,8.09,0,14.63,7.3,14.63,13.88h-36a.46.46,0,0,1,.1-.18m-16.61-16.4c-12,21.21-25.95,30-39.86,23.74-.45-.21-.73-.35-.83-.1s.17.38.42.52a27.14,27.14,0,0,0,11.86,3c7.62,0,13.88-3.67,18.79-8.31h19.28c1.24,0,3,0,3.8-.73,0,0,.38.59,1.66.59h58.83c2.28,0,3.73-.59,4.6-1.49a6.17,6.17,0,0,0,1.35-4.36V58.23c0-.34-.31-.41-.52-.41h-6.47c-6.54,0-9.65,4.08-9.65,8.51,0,8.86,11.55,7.06,12.31,6.92.52-.11.56-.49,0-.49-.17,0-9.27,1.32-9.27-6.64,0-5.09,3.63-6.61,6.15-6.89A7.2,7.2,0,0,1,434,60a.85.85,0,0,1,.39.8v2c0,.56.06,3.29.06,5.37,0,1.87.28,3.94-.41,5.36-.48,1-1.49,1.7-3.43,1.7H412.78c0-5-3.32-16-17.44-16-12.08,0-21.32,12.77-21.52,13v-9a.32.32,0,0,0-.45-.34c-.49.17-4.16,1.49-5.57,2-.35.13-.49.24-.39.44s.25.21.35.14c.28-.1,2.8-.79,3,.83v6.3c0,2.08-1.08,2.6-2.53,2.6H349.84c6.19-6.68,9.86-14.33,11.21-15.89A2.61,2.61,0,0,1,363,58.23c.48,0,.38-.48-.11-.48h-3.63a2.22,2.22,0,0,0-2.08.79m-39.93-8.82H312.5c-.38,0-.52.07-.52.28a.33.33,0,0,0,.28.27c.31,0,.86,0,1.14.07,1.11.18,1.28.69,1.35,1.77s.07,2.49.07,7.44v5.67h0v5.71a5,5,0,0,1-.9,3.15A3.58,3.58,0,0,1,311,75.22h-6c-4.36,0-6.75-4-6.75-6.75,0-.48-.17-4.11-.17-4.11V58.13c0-.38-.38-.45-.56-.45h-4.77c-.38,0-.52.07-.52.27a.33.33,0,0,0,.28.28c.31,0,.86,0,1.14.07,1.11.14,1.28.69,1.35,1.77s.07,2.49.07,5.22v6.12a4.48,4.48,0,0,1-4.22,4.4c-4.85,0-4.88-6-4.88-6.71v-11c0-.38-.42-.45-.59-.45h-4.78c-.38,0-.52.07-.52.27a.33.33,0,0,0,.28.28c.31,0,.87,0,1.14.07,1.11.14,1.28.69,1.35,1.77s.07,2.49.07,7.43v4a4.5,4.5,0,0,1-4.57,4.26c-2.94,0-4.6-2.56-4.6-6.85V58.13c0-.38-.38-.45-.55-.45h-4.74c-.38,0-.52.07-.52.27a.33.33,0,0,0,.28.28c.31,0,.86,0,1.14.07,1.1.14,1.28.69,1.35,1.77s.07,2.49.07,7.43V69c0,5.08-2.7,6.26-5.23,6.26h-18.2c6.23-6.68,9.93-14.39,11.28-16a2.57,2.57,0,0,1,2-1.07c.49,0,.38-.48-.1-.48h-3.46s-1.66-.11-2.18.83c-12,21.21-25.95,30-39.86,23.74-.45-.21-.73-.35-.83-.11s.17.38.41.52a26.35,26.35,0,0,0,11.7,3c7.61,0,14-3.67,18.92-8.27H268a7,7,0,0,0,4-1.11,4.36,4.36,0,0,0,1.94-2.63,6.45,6.45,0,0,0,6.29,3.91,7,7,0,0,0,2.94-.86,4,4,0,0,0,.83-.59,1.85,1.85,0,0,0,.25-.24l.07,0A7,7,0,0,0,286,73.08a6.51,6.51,0,0,0,5,4.32,3,3,0,0,0,.73.1h.45a6.65,6.65,0,0,0,3.49-1s.07,0,.1-.07.18-.14.28-.21l0,0a6.54,6.54,0,0,0,2-2.53,7.53,7.53,0,0,0,2.36,2.7,8.41,8.41,0,0,0,4.15,1.08h7.3A6.51,6.51,0,0,0,316.24,76a5.45,5.45,0,0,0,1.69-4.25V50.17a.73.73,0,0,0-.69-.45Zm-87.33,0c-.52,0-3.26,0-4.78.07-.38,0-.52.07-.52.28a.3.3,0,0,0,.28.28,10.42,10.42,0,0,1,1.14.07c1.11.14,1.45.65,1.52,1.76s-.07,5.57,0,10.52v5.68c0,3.07,0,5.46,0,7,0,1-.2,1.56-.86,1.7a5.47,5.47,0,0,1-1,.17.25.25,0,0,0-.27.28c0,.17.21.24.55.24,0,0,1.45,0,2.18,0,1.63,0,2.35-1.17,2.35-2.8V50.13c0-.34-.38-.45-.58-.45Zm98.89,0c-.55,0-3.25,0-4.78.07-.38,0-.52.07-.52.28a.3.3,0,0,0,.28.28,10.26,10.26,0,0,1,1.14.07c1.11.14,1.46.65,1.53,1.76s0,5.57,0,10.52v5.68c0,3.07,0,5.46,0,7,0,1-.21,1.56-.83,1.7a5.61,5.61,0,0,1-1,.17c-.21,0-.24.14-.24.28s.17.24.52.24c0,0,1.45,0,2.18,0,1.63,0,2.35-1.17,2.35-2.8s0-6.47,0-6.47V50.13a.61.61,0,0,0-.62-.45Zm96.75,1c.86.73,1.38,1.28,1.83,1.73a1.85,1.85,0,0,1,.62,1.08c3.12-2.81,3.29-2.88.25-5.51l-.11-.1c0,.07-2.39,2.63-2.59,2.8m6.47,0a24.73,24.73,0,0,1,1.8,1.73c.65.66.62,1.08.62,1.08,3.11-2.81,3.29-2.88.24-5.51l-.1-.1c0,.07-2.39,2.63-2.56,2.8"/></clipPath><linearGradient id="linear-gradient-2" x1="1257.26" y1="-415.33" x2="1259.63" y2="-415.33" gradientTransform="matrix(112.19, 0, 0, -112.19, -140883.83, -46528.47)" xlink:href="#linear-gradient"/><clipPath id="clip-path-3"><path class="cls-1" d="M233,96.16c-4.84.24-7.78,2.69-7.61,6,.11,2.11,1.11,4,5.33,6.5l1.8,1.07c3.39,2,4.57,3.15,4.67,5.3s-1.59,4.25-5.26,4.43c-2.56.14-5.12-.63-5.81-2.91a5.23,5.23,0,0,1-.17-1.14c0-.24-.07-.35-.28-.35s-.28.18-.28.52c0,.52-.1,1.77,0,3.32,0,.83.07,1,.63,1.15a13.3,13.3,0,0,0,5.15.58,11.5,11.5,0,0,0,5.71-1.62,6.14,6.14,0,0,0,3-5.37c-.14-2.49-1.32-4.29-6-7l-1.1-.62c-3.81-2.15-4.85-3.22-5-5-.14-2.28,1.87-3.74,4.53-3.88,3.53-.17,4.6,1.08,4.85,1.42a5,5,0,0,1,.58,1.52c0,.25.11.39.32.39s.24-.25.24-.73c-.11-2.15,0-3.18,0-3.32s-.1-.21-.38-.18a8.41,8.41,0,0,1-1.35-.1,16.18,16.18,0,0,0-2.38-.17,4.7,4.7,0,0,1-1.22.14m104.43,0c-4.84.24-7.78,2.69-7.61,6,.11,2.11,1.11,4,5.33,6.5l1.77,1.07c3.42,2,4.56,3.15,4.67,5.3s-1.6,4.25-5.23,4.43c-2.56.14-5.12-.63-5.81-2.91a3.87,3.87,0,0,1-.17-1.14c0-.24-.07-.35-.28-.35s-.28.18-.28.52c0,.52-.1,1.77,0,3.32,0,.83.07,1,.62,1.15a13.37,13.37,0,0,0,5.16.58,11.5,11.5,0,0,0,5.71-1.62,6.16,6.16,0,0,0,3-5.37c-.14-2.49-1.32-4.29-6-7l-1.1-.62c-3.81-2.15-4.85-3.22-4.95-5-.14-2.28,1.87-3.74,4.53-3.88,3.53-.17,4.6,1.08,4.88,1.42a5.26,5.26,0,0,1,.59,1.52c.07.25.1.39.31.39s.28-.25.24-.73a29.19,29.19,0,0,1,0-3.32c0-.14-.1-.21-.38-.18a8.41,8.41,0,0,1-1.35-.1,16.22,16.22,0,0,0-2.39-.17,5.58,5.58,0,0,1-1.28.14M208.51,97.33l-7.75,19.83c-.62,1.59-1.59,3-3.74,3a.28.28,0,0,0-.31.25c0,.17.24.27.62.27h3.36c1.11,0,1,0,1.39-1.07h0l6.54-18c.17-.49.38-.49.55,0l7.09,18h0c.31.83.45,1,1,1h4.53c.32,0,.59-.1.59-.27s-.24-.25-.41-.25c-2.22,0-2.67-.83-3.84-3.66-2-4.85-7.3-17.89-7.89-19.24-.35-.73-.49-1.18-.83-1.18s-.49.35-.87,1.28m78.82,0-7.75,19.83c-.65,1.59-1.59,3-3.73,3a.28.28,0,0,0-.31.25c0,.17.2.27.62.27h3.32c1.11,0,1,0,1.38-1.07h0l6.54-18c.18-.49.38-.49.59,0l7.1,18h0c.31.83.45,1,1,1h4.57c.31,0,.59-.1.59-.27s-.24-.25-.41-.25c-2.22,0-2.67-.83-3.88-3.66-2-4.85-7.3-17.89-7.89-19.24-.31-.73-.48-1.18-.83-1.18s-.45.35-.87,1.28m69.66,0-7.75,19.83c-.62,1.59-1.56,3-3.74,3-.14,0-.31.11-.31.25s.21.27.62.27h3.36c1.11,0,1,0,1.38-1.07h0l6.51-18c.21-.49.38-.49.55,0l7.1,18h0c.31.83.45,1,1,1h4.54c.31,0,.59-.1.59-.27s-.25-.25-.42-.25c-2.21,0-2.63-.83-3.84-3.66-2-4.85-7.3-17.89-7.89-19.24-.35-.73-.52-1.18-.83-1.18s-.45.35-.83,1.28m46.68,0-7.89,20.24a.86.86,0,0,0,.27,1,10.77,10.77,0,0,0,1.11.94.54.54,0,0,1,.07-.21c0-.07,6.54-17.68,6.54-17.68.21-.49.38-.49.59,0l7.09,18h0c.31.84.45,1,1,1H417c.31,0,.59-.1.59-.27s-.24-.25-.42-.25c-2.21,0-2.63-.83-3.84-3.66-2-4.85-7.3-17.89-7.89-19.24-.34-.73-.48-1.18-.83-1.18s-.52.28-.93,1.21m-159.8-1.24c-.38,0-.51.07-.51.27a.32.32,0,0,0,.27.28,9.29,9.29,0,0,1,1.11.07c1.07.14,1.28.66,1.35,1.76s.07,2.18.07,7.13v5.64c0,3.08,0,5.85-.17,7.16-.18.94-.25,1.53-.87,1.67a5.81,5.81,0,0,1-1,.17.24.24,0,0,0-.25.24c0,.17.21.28.52.28.49,0,2.74,0,3.36,0s1.28-.18,1.28-1.49V97.82a.4.4,0,0,1,.24-.38,15.39,15.39,0,0,1,2.36-.18c3.52,0,6,1.77,6,5.71,0,4.47-4.7,6-6.81,6-.45,0-.45.55,0,.45,4.46-.69,9.86,17.78,29.37,18.82a23.38,23.38,0,0,0,11.77-3c.24-.14.55-.32.41-.52s-.38-.07-.83.1c-20.83,8.58-34.5-15.26-35.36-15.26a7.84,7.84,0,0,0,4.36-7.16c0-2.22-1.73-6.26-8.62-6.26h-8Zm129.52,0c-.38,0-.52.07-.52.27a.33.33,0,0,0,.28.28,10,10,0,0,1,1.11.07c1.1.14,1.28.66,1.34,1.76s.11,2.18.11,7.13v5.64a63.16,63.16,0,0,1-.21,7.16c-.14.94-.21,1.53-.83,1.67a6.54,6.54,0,0,1-1,.17.25.25,0,0,0-.28.24c0,.17.17.28.52.28s2.73,0,3.36,0,1.28-.18,1.28-1.49V97.82a.4.4,0,0,1,.24-.38,15.11,15.11,0,0,1,2.35-.18c3.53,0,6,1.77,6,5.71,0,4.47-4.71,6-6.82,6-.45,0-.45.55,0,.45,4.43-.69,9.86,17.78,29.41,18.82,4.81.28,9.55-1.76,11.77-3,.24-.14.52-.32.41-.52s-.41-.07-.83.1c-20.83,8.58-34.5-15.26-35.36-15.26a7.84,7.84,0,0,0,4.36-7.16c0-2.22-1.73-6.26-8.62-6.26h-8.06Zm-64.22,0h-4.71c-.38,0-.52.07-.52.28a.34.34,0,0,0,.28.28c.31,0,.87,0,1.11.06,1.11.14,1.28.7,1.35,1.77s.07,2.46.07,7.4v5.64a67.48,67.48,0,0,1-.18,6.89c-.13.93-.2,1.52-.86,1.66a5.51,5.51,0,0,1-1,.17.27.27,0,0,0-.28.25c0,.17.17.27.52.27h12.56c1.76,0,1.87-.1,2.11-.86a22.06,22.06,0,0,0,.48-3.12c0-.34-.07-.48-.24-.48s-.31.21-.35.41a3.81,3.81,0,0,1-.79,1.8c-.8.94-2.25,1-4,1-2.56,0-3.88-.24-4.36-.76s-.69-2.46-.69-7.16v-15c0-.34-.31-.45-.52-.45Zm117.06,23c-1-.49-1-.87-1.11-2.39,0-.49,0-4.4,0-6.89V97.54c0-.17.1-.28.41-.35a10.85,10.85,0,0,1,1.7-.13c3.28,0,4.74,2.9,4.63,5.36-.17,4.25-4.63,4.67-5.33,4.64-.45,0-.45.44,0,.44,5.74,0,7.3,3.57,7.3,6.27,0,4.08-2.32,5.71-4.67,5.71h-.42a6.24,6.24,0,0,1-2.45-.38m-6.3-23c-.38,0-.52.07-.52.28s.14.17.24.17c.31,0,.87,0,1.15.07,1.07.14,1.28.76,1.34,1.83s.07,2.29.07,7.24v5.71c0,2,0,4.25,0,5.64,0,3.21-1.18,3.28-2,3.28-.18,0-.24.07-.24.18s.17.27.51.27l8.34,0c5.61,0,8.27-3.53,8.27-7.1s-3.28-6-5.81-6.71a6.33,6.33,0,0,0,3.32-5.4c0-1.69-1.42-5.43-6.92-5.43ZM173.74,107.57c0-7,4-10.62,9.3-10.62,5,0,9.66,4.15,9.66,11.9,0,9.38-5.92,11.08-8.79,11.08-5.71,0-10.17-4.85-10.17-12.36m-3,.9c0,5.82,3.63,12.7,12.45,12.7a12.12,12.12,0,0,0,5-1.1s8.82,9,18.44,9a24.37,24.37,0,0,0,10.1-2.22c.21-.1.24-.17.24-.31s-.07-.17-.2-.17-.25.07-.45.1a19.44,19.44,0,0,1-6.27,1.25c-8.72.48-19.55-9.14-19.55-9.14A12.6,12.6,0,0,0,195.74,108c0-7.47-5.36-12.11-12.49-12.11-8.79,0-12.52,7.41-12.52,12.63"/></clipPath><linearGradient id="linear-gradient-3" x1="1257.25" y1="-415.57" x2="1259.63" y2="-415.57" gradientTransform="matrix(112.15, 0, 0, -112.15, -140831.33, -46492.29)" xlink:href="#linear-gradient"/></defs><g class="cls-2"><rect class="cls-3" x="192.91" y="1.17" width="221.8" height="32.49"/></g><path class="cls-4" d="M290.65,13.91c10.21,1.41,20.35-8.2,38.82-2,21.56,7.27,42.88,16.79,61.77,7.24.83-.42,1.11.06.41.48-21.59,13.29-34.81,6-65.32-5.61-16.27-6.12-26.82,2.53-35.75-.1Z"/><path class="cls-4" d="M341.62,139.68v.18l.52.1c.41.11.52.14.55.73v9.51h1.49V139.3l-.07-.06ZM238.19,148c0,1-.38,1.63-1.28,1.63h-1.52c-1.18,0-1.9-1.56-1.9-2.63v-4.32l-1.49.76V148c0,1-.38,1.59-1.28,1.59h-1.8c-.73-.07-1.14-.52-1.14-1.42v-8.82l-.07-.07-2.53.41v.18l.56.1c.41.11.52.14.55.8v7.33c0,1.63,1.07,2.11,2.49,2.11H231a2.41,2.41,0,0,0,2.49-1.31,2.68,2.68,0,0,0,2.15,1.31h1.52a2.18,2.18,0,0,0,2.46-2.21v-5.33l-1.49.83V148Zm-19.93-8.61-.07-.07-2.49.41v.18l.56.1c.38.07.52.14.55.66v9.58h1.49v-6.61h0v-4.25Zm3.81,8.82c-.14,3.19-1.35,4.4-3.81,5.05.63,0,1,.07,1.21.07,3.81,0,4.09-3.39,4.09-6.4v-4.22l-1.49.83Zm16.75-9a.87.87,0,1,0,.86.86.86.86,0,0,0-.86-.86m8.92,8.78c0,1-.38,1.63-1.28,1.63h-1.41c-.73-.07-1.15-.52-1.15-1.42v-8.72h0v-.1l-.07-.07-2.49.41v.18l.56.1c.41.11.52.14.55.83v7.3c0,1.63,1.07,2.11,2.53,2.11h1.8a2.17,2.17,0,0,0,2.45-2.21v-5.33l-1.49.83Zm14.68-7.09a.85.85,0,0,0,.86-.86.84.84,0,0,0-.86-.87.86.86,0,0,0-.87.87.88.88,0,0,0,.87.86m109.23,0a.87.87,0,1,0-.86-.87.86.86,0,0,0,.86.87m2.46,0a.87.87,0,1,0,0-1.73.87.87,0,0,0,0,1.73m5,0a.87.87,0,1,0-.86-.87.83.83,0,0,0,.86.87M248.4,139.17a.83.83,0,0,0-.86.86.87.87,0,1,0,1.73,0,.88.88,0,0,0-.87-.86m-14.81,1.73a.84.84,0,0,0,.87-.87.87.87,0,0,0-1.73,0,.83.83,0,0,0,.86.87m26.4,0a.87.87,0,1,0-.86-.86.84.84,0,0,0,.86.86m-28.85,0a.87.87,0,1,0-.87-.87.84.84,0,0,0,.87.87m20.62-4.43c0-.38.17-.73.48-.73a.43.43,0,0,1,.35.14.51.51,0,0,0-.24.38.43.43,0,0,0,.48.38c.31,0,.49-.1.49-.45a1,1,0,0,0-1.08-.9,1.31,1.31,0,0,0-1.35,1.35,1.49,1.49,0,0,0,.7,1.14h-.77l-.17.49h2.91v-.49h-.76c-.7,0-1-.79-1-1.31m86.12,3.21v.18l.56.1c.41.11.52.14.55.73V148c0,1-.38,1.63-1.35,1.63h-2.25c-.17-3.94-1.73-6.43-4.32-6.43-1.08,0-3,1.66-4.33,4.11v-3.39l-1.49.83v3.22c0,1-.41,1.63-1.35,1.63h-2.25c0-3.15-1.69-6.44-4.36-6.44a3.35,3.35,0,0,0-3.08,1.9,1.34,1.34,0,0,1-.69.66l.73,1.28c.52-1.76,1.49-3.25,3-3.25s2.7,2,2.77,5.85h-9.76a17.25,17.25,0,0,0,.17-2.7v-4.22l-1.48.83v4.67c-.14,3.18-1.35,4.39-3.81,5.05.62,0,1,.07,1.21.07a3.53,3.53,0,0,0,3.77-3.05h14.15a3.46,3.46,0,0,0,.87-.1l-.07.1H338a2.17,2.17,0,0,0,2.45-2.21v-4.4h0V139.3l-.1-.06Zm-11.21,9.94c.35-1.63,2.67-5.89,4.47-5.89,1.38,0,2.63,2.08,2.66,5.89Zm-21.56-10.28-.06-.07-2.5.41v.18l.56.1c.41.11.55.14.59.83v9.45h1.48V139.41h0v-.07Zm-54.7.34v.18l.52.1c.41.11.55.14.55.73v9.51H253V139.3l-.07-.06ZM289.92,148c0,1-.38,1.63-1.28,1.63h-1.41c-.73-.07-1.11-.52-1.11-1.42v-8.72h0v-.1l-.07-.07-2.53.41v.18l.56.1c.41.11.52.14.55.76v7.37c0,1.63,1.07,2.11,2.49,2.11h1.8a2.18,2.18,0,0,0,2.46-2.21v-5.33l-1.49.83V148ZM364,151.76a.86.86,0,0,0-.86.87.87.87,0,0,0,.86.86.87.87,0,1,0,0-1.73m24.92-7.89c-2.43,0-3,1.56-3.36,3s-.76,2.74-2.73,2.74H382c-1.18,0-1.9-1.56-1.9-2.63v-4.43l-1.49.83V148c0,1-.38,1.6-1.28,1.6h-1.42c-1.18,0-1.9-1.56-1.9-2.63v-4.33l-1.49.83V148c0,1-.38,1.59-1.28,1.59H368.3c0-3.15-1.7-6.43-4.36-6.43a3.34,3.34,0,0,0-3.08,1.9,1.43,1.43,0,0,1-.69.66l.69,1.28c.52-1.77,1.52-3.26,3-3.26s2.7,2,2.77,5.85H354.87a1.46,1.46,0,0,1-1-.28c1.49-.79,3.15-1.86,3.15-3.49,0-1.9-1.49-3-3.6-3a7.3,7.3,0,0,0-4.05,1.31,8.35,8.35,0,0,1,1.32,1.8,16.81,16.81,0,0,0,1.86,3.33,4.53,4.53,0,0,1-1.62.38h-2.15a4.9,4.9,0,0,0,4.74,3.53l.56-.59h-.35a3.62,3.62,0,0,1-3.6-2.32h1.21a3.32,3.32,0,0,0,1.84-.45h0a3,3,0,0,0,1.9.41h16.47a2.41,2.41,0,0,0,2.49-1.31,2.62,2.62,0,0,0,2.11,1.31h1.46a2.41,2.41,0,0,0,2.49-1.31,2.65,2.65,0,0,0,2,1.31h1.59a2.55,2.55,0,0,0,1.9-.69,3.39,3.39,0,0,0,2.77,1.42,3.43,3.43,0,0,0,3.6-3.46c0-1.56-1.07-3.6-3.11-3.6m-36.72,2.77-.48-1a6.87,6.87,0,0,0-.94-1.35,5.81,5.81,0,0,1,2.7-.79c1.25,0,1.91.86,1.91,2.21,0,1.76-.8,2.32-2,3.08a10.51,10.51,0,0,1-1.21-2.18m36.34,3.74a2.94,2.94,0,0,1-2.18-1.32l-.14-.21a8.91,8.91,0,0,0,.65-1.9c.35-1.31.7-2.52,1.77-2.52h.07c1.21,0,1.83,1.55,1.83,3.14s-.93,2.81-2,2.81M297.85,147c0-.7.34-1.35,1.11-1.35.27,0,.62,0,.76.27a1.13,1.13,0,0,0-.49.7.78.78,0,0,0,.83.69c.52,0,.83-.18.83-.83a1.74,1.74,0,0,0-1.9-1.56,2.39,2.39,0,0,0-2.53,2.42,2.66,2.66,0,0,0,1.35,2.11h-1.59l-.31.8h5.36v-.8h-1.35c-1.28,0-2.07-1.55-2.07-2.45m-29.28,1.17c-.13,3.19-1.34,4.4-3.8,5.05.62,0,1,.07,1.21.07,3.81,0,4.08-3.39,4.08-6.4v-4.22l-1.49.83Zm20.8,3.6a.88.88,0,0,0-.86.87.91.91,0,0,0,.86.9.87.87,0,0,0,.87-.9.82.82,0,0,0-.87-.87m-28.2-9.31a3.91,3.91,0,1,0,3.56,3.91,3.66,3.66,0,0,0-3.56-3.91m0,7.2c-1.35,0-1.94-1.18-1.94-3.29s.59-3.32,1.94-3.32,1.94,1.18,1.94,3.32-.59,3.29-1.94,3.29m12.63-10.31-.07-.07-2.49.41v.18l.55.1c.42.11.52.14.56.76v9.48h1.48V139.34Zm10.59,13.42a.6.6,0,1,1,1.14.21c.31,0,.48-.1.48-.45a1,1,0,0,0-1.07-.86,1.28,1.28,0,0,0-1.35,1.31,1.49,1.49,0,0,0,.69,1.14h-.76l-.17.49h2.91v-.49h-.76c-.7,0-1.11-.86-1.11-1.35m-5.05-10.06h0a2,2,0,0,0-1.52.83c-.73.83-1,.93-1.45.93l.31,1.31c1-1.45,1.87-2.56,2.49-2.56.86,0,1.11,1.35,1.11,4.26v2.08h-4.95l.52.62h6.05v-.45c0-2.8-.45-7-2.52-7"/><g class="cls-5"><rect class="cls-6" x="168.45" y="47.99" width="269.27" height="40.59"/></g><g class="cls-7"><rect class="cls-8" x="170.73" y="95.84" width="266.3" height="37.51"/></g><path class="cls-4" d="M231,169.62c-2.08,0-2.94-1.84-2.84-3.71h5.06v-.31a2.7,2.7,0,0,0-2.7-2.73c-2.32,0-3.5,2.21-3.5,4.32,0,2.29,1.45,3.64,3.18,3.64,1.42,0,2.15-.73,3-1.7l-.17-.21a3.15,3.15,0,0,1-2.08.7m-.86-6.09a1.48,1.48,0,0,1,1.62,1.21c0,.45-.24.65-1.38.65h-2.22a2,2,0,0,1,2-1.86m7.09,2.73c-1.21-.59-1.87-.87-1.87-1.63,0-.55.49-1,1.25-1a1.24,1.24,0,0,1,1.41,1l.18.59h.27v-1.8a4.36,4.36,0,0,0-1.66-.34,2.26,2.26,0,0,0-2.42,2.14c0,1.07.73,1.63,1.66,2.08s1.84.86,1.84,1.76a1.34,1.34,0,0,1-1.46,1.25,1.56,1.56,0,0,1-1.62-1.18l-.21-.62-.31,0,.14,2a4.39,4.39,0,0,0,1.86.41,2.44,2.44,0,0,0,2.6-2.35,2.29,2.29,0,0,0-1.66-2.32m39.69,3.36c-2.08,0-2.94-1.84-2.81-3.71h5a.8.8,0,0,0,0-.31,2.7,2.7,0,0,0-2.7-2.73c-2.32,0-3.5,2.21-3.5,4.32,0,2.29,1.46,3.64,3.19,3.64,1.42,0,2.14-.73,3-1.7l-.14-.21a3.48,3.48,0,0,1-2.14.7m-.87-6.09a1.52,1.52,0,0,1,1.66,1.21c0,.45-.24.65-1.38.65h-2.22a2,2,0,0,1,1.94-1.86m-5.4,5.15c-.79-.93-1.79-2.18-2.62-3.22,1.41-.31,2.76-1.17,2.76-2.7,0-2.21-2-2.56-3.8-2.56h-4.26v.21l.69.17c.63.18.73.28.73,1.6v6.47c0,1.31-.07,1.42-.73,1.59l-.69.17v.21h4.4v-.21l-.7-.17c-.62-.17-.72-.28-.72-1.59v-7.93h.72c1.56,0,2.63.45,2.63,2.29,0,1.69-1.28,2.21-2.59,2.21h-.49c1,1.32,3.29,4.19,4.29,5.43h2.6v-.2l-.52-.18c-.41-.14-.83-.55-1.7-1.59m-50.34-8.44H214.9v.21l.69.17c.62.17.72.28.72,1.59v6.47c0,1.32-.1,1.42-.72,1.59l-.69.18v.2h4.84c3,0,6.19-1.83,6.19-5.46s-2.38-4.95-5.67-4.95m-1,9.83h-.49c-.62,0-.86-.14-.86-1.6v-7.61h1.62c3.05,0,4.6,1.52,4.6,4.57s-1.83,4.64-4.87,4.64m24.53-.45c-2.08,0-2.94-1.84-2.84-3.71H246v-.31a2.67,2.67,0,0,0-2.7-2.73c-2.31,0-3.49,2.21-3.49,4.32,0,2.29,1.49,3.64,3.18,3.64,1.42,0,2.15-.73,3-1.7l-.14-.21a3.31,3.31,0,0,1-2.11.7m-.87-6.09a1.52,1.52,0,0,1,1.66,1.21c0,.45-.24.65-1.38.65H241a1.93,1.93,0,0,1,1.93-1.86m8.69-.56c-.73,0-1.28.45-2,1.39h0v-1.25l-.07-.07-2.56.38v.21l.62.14c.55.1.8.21.8,1.31V169c0,1.14-.07,1.21-.63,1.35l-.59.18v.17h4.12v-.17l-.9-.21c-.55-.11-.69-.18-.69-1.32v-3.94a1.13,1.13,0,0,1,2.08-.35l.07,0a.82.82,0,0,0,.83-.83,1,1,0,0,0-1-.94m5.12,7c-.62,0-1.11-.45-1.11-1.53v-4.25h2l.07-.07v-.69l-2.11.07V161.1l-1.28.73v1.63l-1.11.07-.13.51.07.07h1.14v4.47c0,1.31.55,2.21,1.69,2.21a3.17,3.17,0,0,0,2.15-1.07l-.18-.24a2.09,2.09,0,0,1-1.24.45m26.37-3.67c-1.21-.59-1.87-.87-1.87-1.63,0-.55.48-1,1.24-1a1.27,1.27,0,0,1,1.42,1l.14.59h.28v-1.8a4.54,4.54,0,0,0-1.66-.34,2.24,2.24,0,0,0-2.43,2.14c0,1.07.73,1.63,1.67,2.08s1.83.86,1.83,1.76a1.34,1.34,0,0,1-1.45,1.25,1.51,1.51,0,0,1-1.6-1.18l-.2-.62-.32,0,.14,2a4.47,4.47,0,0,0,1.87.41,2.47,2.47,0,0,0,2.63-2.35c0-1.25-.59-1.8-1.69-2.32m73.21,2.46v-3.26c0-1.38-.55-2.45-2.31-2.45a3,3,0,0,0-1.84.65c-.34.28-.86.77-.86,1.22s.2.38.41.38a1.3,1.3,0,0,0,.62-.18l0-.07v-.31c0-.52.21-1,1.11-1a1.5,1.5,0,0,1,1.55,1.66v1c-2.52.48-4.11.93-4.11,2.7a1.83,1.83,0,0,0,1.86,1.76,3.39,3.39,0,0,0,2.36-1.28h0v1.07h2.6v-.24l-.73-.21c-.59-.13-.73-.34-.73-1.48m-1.31.1c0,.52-.55,1-1.38,1a1.27,1.27,0,0,1-1.35-1.18c0-.76.27-1.45,2.73-1.83Zm10.86.17v-3.63a2.23,2.23,0,0,0-2.42-2.39,3.56,3.56,0,0,0-2.59,1.32h0v-1.18l-.11-.07-2.45.38v.21l.62.14c.59.1.66.21.66,1.31V169c0,1.14-.07,1.21-.63,1.35l-.55.18v.17h3.7v-.17l-.59-.18c-.55-.14-.62-.24-.62-1.35v-3.94c0-.52.69-1.07,1.73-1.07a1.68,1.68,0,0,1,1.9,1.73V169c0,1.14-.06,1.21-.62,1.35l-.59.18v.17H367v-.17l-.59-.18c-.45-.14-.56-.24-.56-1.35m5,.94c-.63,0-1.11-.45-1.11-1.53v-4.25h2l.07-.07v-.69l-2.11.07V161.1l-1.28.73v1.63l-1.11.07-.14.51.07.07h1.14v4.47c0,1.31.59,2.21,1.74,2.21a3.16,3.16,0,0,0,2.14-1.07l-.17-.24a2.33,2.33,0,0,1-1.28.45m-21.7-.94v-3.63a2.21,2.21,0,0,0-2.42-2.39,3.6,3.6,0,0,0-2.6,1.32h0v-1.18L344,163l-2.46.38v.21l.63.14c.55.1.65.21.65,1.31V169c0,1.14-.07,1.21-.62,1.35l-.59.18v.17h3.74v-.17l-.55-.18c-.56-.14-.63-.24-.63-1.35v-3.94c0-.52.7-1.07,1.73-1.07a1.65,1.65,0,0,1,1.87,1.73V169c0,1.14-.07,1.21-.59,1.35l-.58.18v.17h3.7v-.17l-.56-.18c-.55-.14-.62-.24-.62-1.35m35.61-6c-.73,0-1.32.45-2.08,1.39h0v-1.25l-.1-.07-2.56.38v.21l.65.14c.56.1.8.21.8,1.31V169c0,1.14-.07,1.21-.62,1.35l-.56.18v.17h4.12v-.17l-.86-.21c-.56-.11-.7-.18-.7-1.32v-3.94a1.09,1.09,0,0,1,1.15-.9,1.07,1.07,0,0,1,.93.55l.07,0a.82.82,0,0,0,.83-.83,1.09,1.09,0,0,0-1.07-.94m-95.12-.07a4,4,0,0,0-3.91,4.22,3.47,3.47,0,0,0,3.59,3.81,4,4,0,0,0,3.91-4.19,3.46,3.46,0,0,0-3.59-3.84m0,7.48c-1.8,0-2.42-2.63-2.42-4.12s.48-2.87,2-2.87c1.83,0,2.53,2.66,2.53,4.08s-.49,2.91-2.08,2.91m9.14-7.41c-.73,0-1.32.45-2.08,1.39h0v-1.25l-.1-.07-2.56.38v.21l.65.14c.56.1.8.21.8,1.31V169c0,1.14-.07,1.21-.62,1.35l-.56.18v.17h4.12v-.17l-.9-.21c-.52-.11-.69-.18-.69-1.32v-3.94a1.13,1.13,0,0,1,2.07-.35l.07,0a.82.82,0,0,0,.83-.83,1,1,0,0,0-1-.94m5.12,7c-.63,0-1.15-.45-1.15-1.53v-4.25h2.05l.07-.07v-.69l-2.12.07V161.1l-1.28.73v1.63l-1.1.07-.18.51.07.07h1.15v4.47c0,1.31.58,2.21,1.73,2.21a3.14,3.14,0,0,0,2.14-1.07l-.17-.24a1.93,1.93,0,0,1-1.21.45m19-6.51.59.17c.49.14.69.32.21,1.7l-.94,2.7a8.45,8.45,0,0,0-.31,1.07h0a5.3,5.3,0,0,0-.31-1L321,165.29c-.55-1.28-.38-1.56.07-1.7l.59-.17v-.17h-3.46v.17l.38.14c.31.1.34.28.83,1.38l2.49,5.61c-.48,1.35-1,2.42-1.66,2.42a.83.83,0,0,1-.73-.52l-.07,0a.8.8,0,0,0-.72.83,1,1,0,0,0,1,.93c1,0,2-1.31,2.73-3.39l2.11-5.85c.41-1.14.55-1.24.83-1.38l.35-.14v-.17h-2.81Zm16.3,5.26-3.39-8.75h-.76l-3.53,8.41c-.66,1.59-.76,1.76-1.38,2l-.45.17v.21h3.59v-.21l-.65-.17c-.7-.21-.83-.45-.07-2.36l.41-1h3.84l.66,1.77c.45,1.24.31,1.41-.35,1.59l-.65.17v.21h4.43v-.21l-.42-.17c-.66-.21-.79-.35-1.28-1.63m-6-2.42,1.28-3.15s.41-1.11.48-1.35h0a14,14,0,0,0,.45,1.35l1.14,3.15ZM314.79,163a3.46,3.46,0,0,0-2.49,1.18h0l.17-5.05-.11-.07-2.56.38-.17.17.62.14c.59.1.66.21.66,1.31v9.17a9,9,0,0,0,2.7.52c2.56,0,3.95-1.94,3.95-4.32,0-1.63-.84-3.43-2.74-3.43m-.76,7.27c-1.14,0-1.73-.59-1.73-1.28v-3.95a1.37,1.37,0,0,1,1.49-1.07c1.87,0,2.45,1.83,2.45,3.39s-.69,2.91-2.21,2.91m78.1-.11c-.56-.13-.69-.34-.69-1.48v-3.26c0-1.38-.56-2.45-2.32-2.45a3,3,0,0,0-1.84.65c-.34.28-.83.77-.83,1.22s.21.38.42.38a1.26,1.26,0,0,0,.59-.18l0-.07v-.31c0-.52.21-1,1.11-1a1.5,1.5,0,0,1,1.56,1.66v1c-2.53.48-4.09.93-4.09,2.7a1.83,1.83,0,0,0,1.84,1.76,3.48,3.48,0,0,0,2.35-1.28h0v1.07h2.59v-.24Zm-2-1.38c0,.52-.55,1-1.38,1a1.25,1.25,0,0,1-1.35-1.18c0-.76.24-1.45,2.73-1.83Zm-11.83-.1v-3.26c0-1.38-.56-2.45-2.32-2.45a3.07,3.07,0,0,0-1.84.65c-.34.28-.86.77-.86,1.22s.21.38.41.38a1.19,1.19,0,0,0,.59-.18l0-.07v-.31c0-.52.2-1,1.1-1a1.5,1.5,0,0,1,1.56,1.66v1c-2.52.48-4.12.93-4.12,2.7a1.83,1.83,0,0,0,1.84,1.76,3.46,3.46,0,0,0,2.35-1.28h0v1.07h2.6v-.24l-.7-.21c-.52-.13-.65-.34-.65-1.48m-1.28.1c0,.52-.56,1-1.39,1a1.27,1.27,0,0,1-1.35-1.18c0-.76.28-1.45,2.74-1.83Z"/></svg>