<svg id="Layer_1" data-name="Layer 1" xmlns="http://www.w3.org/2000/svg" viewBox="0 0 595.28 175.75"><defs><style>.cls-1{fill:#010101;fill-rule:evenodd;}</style></defs><path class="cls-1" d="M386.7,167.17v-7.34c0-4.05-2.4-2.91-2.4-3.67,0-.12.13-.12.25-.12h1.9c.13,0,.38.25.51.38l9.36,10.5c.12.12.12.25.25.25v-8.48c0-2.65-2.15-1.89-2.15-2.53,0-.12.13-.12.25-.12h3.67c.13,0,.26,0,.26.12,0,.51-1.14.13-1.14,1.65v11.38c0,.51,0,.76-.26.76s-.25,0-.63-.5L388.1,160c-.13-.13-.26-.38-.51-.38,0,0-.13,0-.13.38v8.1c0,1.77,1.77,1.13,1.77,1.64,0,.13,0,.25-.25.25s-1-.12-1.9-.12-1.77.12-1.89.12-.26-.12-.26-.25C384.93,169.07,386.7,169.83,386.7,167.17Zm-10.5,2.91c-4.17,0-6.83-3-6.83-7.21a7,7,0,0,1,7.21-7.09,6.82,6.82,0,0,1,7.09,7C383.67,167.17,380.63,170.08,376.2,170.08ZM376,156.42c-3.29,0-5.19,2.78-5.19,5.94,0,3.54,2.41,7.09,6.33,7.09,2.91,0,5.18-2.28,5.18-5.95s-2.4-7.08-6.32-7.08Zm-14.42,11.76V157.93c0-.12,0-.88-.26-.88h-3.16c-1.26,0-1.26.38-1.64,1.39,0,.25,0,.5-.25.5a.26.26,0,0,1-.26-.25l.26-1.89c0-.26,0-.76.25-.76h11.38c.51,0,.51.12.63.5v1.64c.13.13.13.39-.12.39-.76,0,.25-1.52-1.77-1.52H363.8c-.88,0-.75,0-.75,1v10c0,1.64,1.64,1,1.64,1.64a.24.24,0,0,1-.25.25c-.38,0-1-.12-1.52-.12a18.37,18.37,0,0,0-2.78.12c-.13,0-.13-.12-.13-.25,0-.51,1.52-.25,1.52-1.52Zm-11.14-10.25v9.62c0,1.14-.12,1.64,1.52,1.64,4.56,0,5.19-2,5.44-2a.13.13,0,0,1,.13.13,2.87,2.87,0,0,1-1,1.89,1.9,1.9,0,0,1-1.9.76c-1.52,0-3-.12-4.43-.12-.88,0-1.65.12-2.41.12-.25,0-.37-.12-.37-.25s.25-.13.88-.51.63-.76.63-1.64v-10c0-1-1.64-.88-1.64-1.26s.13-.25.38-.25h3.79c.26,0,.38,0,.38.25s-1.39,0-1.39,1.64Zm-9.48,4.81,3.29,5.06c1.51,2.15,2.4,1.39,2.4,1.9,0,.25-1.14.25-1.27.25-1.39,0-2.15-1-2.9-2.15l-2.28-3.42c-.64-1.13-.38-1-2.53-1-.64,0-.51.26-.51.51v4.18c0,1.64,2,1,2,1.77,0,.12-.13.12-.39.12a16.11,16.11,0,0,0-2.27-.12c-.63,0-1.39.12-2.15.12a.26.26,0,0,1-.25-.25c0-.51,1.51-.25,1.51-1.64V157.93c0-1.89-1.77-1-1.77-1.64,0-.13.13-.25.38-.25h4.56c.38,0,4.68-.38,4.68,3.41a3.66,3.66,0,0,1-2.53,3.29Zm-3.8-5.31v4.93c0,.38,1.14.25,2.15.25a2.56,2.56,0,0,0,2.66-2.78c0-2.4-1.77-3.16-3.67-3.16-.76,0-1.14,0-1.14.76Zm-8,9.36-.63-1.52c-.26-.51-.38-.76-.89-.76h-4.3a1,1,0,0,0-1,.38L321,167.68a5.52,5.52,0,0,0-.12.63c0,1.39,1.39.76,1.39,1.26s-.25.38-.51.38c-.5,0-1.14-.12-1.64-.12s-1,.12-1.52.12a.26.26,0,0,1-.25-.25c0-.38,1-.13,1.52-1.14l4.68-10.12c1.13-2.4,1.13-2.78,1.39-2.78s.38.63.5.76l4,10.12a8.89,8.89,0,0,0,1,2.27c.51.89,1.65.38,1.65.89,0,.25-.13.25-.25.25-.76,0-1.52-.12-2.41-.12-.5,0-1,.12-1.52.12-.12,0-.5,0-.5-.25,0-.51,1.26-.25,1.26-1C329.77,168.31,329.27,167.42,329.14,166.79Zm-3.8-8.35-2.15,4.81c-.12.25,0,.38.26.38h3.92c.38,0,.38-.13.25-.38l-1.9-4.81c-.12-.26-.25-.26-.38,0ZM300.8,161.6c0-5.19,3.67-9.24,8.86-9.24,4.55,0,5.94,1.9,6.58,1.9.25,0,.38-.25.63-.25s.25.38.38,1.9.25,2.15-.25,2.15c-.26,0-.38-.63-.51-.76C315,154.64,313.2,153,310,153c-4.81,0-7.09,3.16-7.09,7.84,0,4.18,2.41,8.48,7.21,8.48,3.8,0,6.2-2.4,6.58-3.54a.57.57,0,0,1,.39-.38c.12,0,.25.25.12.25l-.51,2.53c0,.13-1.77,1.9-7.33,1.9a8.21,8.21,0,0,1-8.61-8.48Zm-6.45,2.79L298,163a6,6,0,0,1,.88-.25c.26,0,.26.38.26.63,0,.89,0,.76-.76,1l-3.67,1.39a3.4,3.4,0,0,1-.89.25c-.25,0-.12-.38-.12-.51C293.72,164.64,293.59,164.64,294.35,164.39Zm-3.42-7.47-6.58,11.14a1.23,1.23,0,0,0-.25.75c0,.13.25.26.76.26h3.67c2.53,0,2.4-1.39,3.16-1.39.13,0,.13.25.13.38l-.76,1.26a.78.78,0,0,1-.89.51h-8.09a.28.28,0,0,1-.26-.26.47.47,0,0,1,.13-.38l6.83-11.64a1,1,0,0,0,.38-.5.13.13,0,0,0-.13-.13h-4.17c-2.66,0-2,2-2.66,2a.26.26,0,0,1-.25-.25l.25-2c.13-.51.13-.63.76-.63h7.59c.51,0,.63.12.63.38a.64.64,0,0,1-.25.5Zm-16.82,11.26V157.93c0-.12,0-.88-.26-.88h-3.16c-1.26,0-1.26.38-1.64,1.39,0,.25-.13.5-.38.5s-.13-.12-.13-.25l.13-1.89c.12-.26,0-.76.38-.76h11.38c.51,0,.51.12.51.5l.13,1.64c0,.13.12.39-.13.39-.76,0,.25-1.52-1.77-1.52h-2.79c-.88,0-.75,0-.75,1v10c0,1.64,1.51,1,1.51,1.64,0,0,.13.25-.12.25-.51,0-1-.12-1.65-.12a17.18,17.18,0,0,0-2.65.12.27.27,0,0,1-.26-.25c0-.51,1.65-.25,1.65-1.52ZM264,167.8V157.68c0-1.39-1.52-1-1.52-1.52,0-.12,0-.12.12-.12h4.05c.26,0,.38,0,.38.12,0,.51-1.52,0-1.52,1.52v10.63c0,1.26,1.77.88,1.77,1.39,0,.13,0,.25-.37.25s-1.27-.12-2.16-.12c-1.13,0-1.51.12-1.89.12a.33.33,0,0,1-.38-.38c0-.5,1.52.13,1.52-1.77Zm-9.62-6.7,4.05,6.2c1.77,2.65,3,1.77,3,2.4,0,.25-1.39.25-1.64.25-1.77,0-2.78-1.26-3.67-2.65L253.48,163c-.88-1.39-.63-1.26-3.28-1.26-.89,0-.64.38-.64.63v5.19c0,2.15,2.53,1.39,2.53,2.15,0,.25-.25.25-.38.25s-.88-.12-2.91-.12c-.88,0-1.89.12-2.78.12a.27.27,0,0,1-.25-.25c0-.63,1.77-.25,1.77-2.15V155c0-2.41-2-1.4-2-2.16a.41.41,0,0,1,.39-.38,13.24,13.24,0,0,0,1.64.13c1.39,0,2.78-.13,4.05-.13.38,0,5.82-.5,5.82,4.31a4.8,4.8,0,0,1-3,4.3Zm-4.81-6.83v6.19c0,.51,1.52.38,2.66.38a3.2,3.2,0,0,0,3.41-3.54c0-2.91-2.27-3.92-4.68-3.92-.88,0-1.39-.13-1.39.89Zm-17.71,3.79v3.67c0,.63,0,.63.76.63h2.15c2,0,1.52-1.52,1.9-1.52s.25.13.25.38v3.54a.28.28,0,0,1-.25.26c-.64,0,.12-1.77-1.52-1.77h-2.91c-.51,0-.38.38-.38.63v3.67c0,1.13-.13,1.64,1.52,1.64,4.55,0,5.18-2,5.44-2a.12.12,0,0,1,.12.12,2.83,2.83,0,0,1-1,1.9,1.89,1.89,0,0,1-1.9.76c-1.51,0-2.91-.13-4.42-.13-.89,0-1.65.13-2.41.13-.25,0-.38-.13-.38-.25s.25-.13.89-.51.63-.76.63-1.64v-9c0-.88,0-1.89-1.14-2-.13,0-.51-.13-.51-.25s0-.25.64-.25h8.35c.12,0,.25.12.25.38,0,2.15-.25,2.4-.38,2.4-.51,0-.25-1-.51-1.39-.5-.76-2.53-.63-3.41-.63-1.77,0-1.77,0-1.77,1.26ZM215,167.8V157.68c0-1.39-1.64-1-1.64-1.52,0-.12.13-.12.25-.12h4.05a.58.58,0,0,1,.38.12c0,.38-1.52,0-1.52,1.52V162c0,.25,0,.25.38.25h7.21c.13,0,.13-.38.13-.5v-4c0-1.39-1.52-1-1.52-1.52,0-.12.13-.12.38-.12h3.42c.5,0,.63.12.63.25,0,.38-1.39,0-1.39,1.39v10.37c0,1.52,1.77,1.14,1.77,1.65,0,0,0,.25-.13.25-.63,0-1.14-.13-1.89-.13-1.27,0-1.78.13-2.15.13s-.51,0-.51-.25c0-.51,1.39-.25,1.39-1.52V163.5c0-.25.13-.51-.13-.51H216.8c-.26,0-.26.13-.26.38v4.94c0,1.26,1.9.88,1.9,1.51a.45.45,0,0,1-.25.13c-.26,0-1.77-.13-2.79-.13a5,5,0,0,0-1.64.13c-.13,0-.25-.13-.25-.38,0-.5,1.51.13,1.51-1.77Zm-11.38,0V155c0-.12.12-1.14-.26-1.14h-4c-1.52,0-1.52.39-2,1.78,0,.25-.13.5-.38.5a.27.27,0,0,1-.25-.25l.25-2.41c0-.25,0-1,.51-1,1.9,0,3.79.13,7,.13,4.42,0,6.7-.13,7.21-.13s.63.25.63.76l.13,2a.3.3,0,0,1-.26.5c-.88,0,.38-1.9-2-1.9h-3.54c-1.14,0-1-.12-1,1.27v12.53c0,2,2,1.26,2,2a.24.24,0,0,1-.25.25c-.64,0-1.27-.12-2-.12A26.42,26.42,0,0,0,202,170a.33.33,0,0,1-.38-.38c0-.5,2-.25,2-1.77ZM296.75,8.39c3.67-.13,7.34.5,7.85.25,1.9-.63,3.67-1.14,4.93-2.28C311.17,5,313.07,6,314,6.74l1.64,1.14c1,1,2.91,3.42,3.42,3.92a2.87,2.87,0,0,0,1.9.51c3.29-.13,7.59,2.53,8.35,5.57.5,1.89,1.64,8.47,1.77,8.85.76,1.27,2.15,3,2.28,3.54.63,1.14-1,.38-.76,1.65a3.39,3.39,0,0,0,2.27,2.91c2.66,3,2.66,6,2.41,6.07s-2.15-.38-2.28-.25v.63c1.9,5.69,3.8,9.36-.63,16.57a9.06,9.06,0,0,0-1.65,3.93c0,.63.38,2.4.38,3.54.13,2.53-1.26,4.3-2.65,6.32-3.17,4.81-5.06,9.62-.89,14.81,2.28,2.78,4.43,3.92,7.72,1.9,1-1,1.14-1.9,1.9-1.9,1.52,1.14,1.9,4,1.64,6.2-.25,3.67-3.29,6.2-6.83,7.08-9.49,2.28-13.79-2.28-15.18-2.53-2.66-.38-12.53-.51-17.71-4.3-2.41-2-3.55-3.42-4.3-3.29-3.29.76-4.05,5.19-12.15,6.33-2.4.25-5.06.12-7.08,1-5.19,3.29-11,5.82-19.11,3.16-4.3-1.64-10.37-9.11-5.06-13.92a12.85,12.85,0,0,0,4.43,4.18,9.43,9.43,0,0,0,12.4-7.47l.63-12.39a24.66,24.66,0,0,1,3-9.37c.63-1,2.4-2.78,2-3.92-.25-.88-1-.88-1.64-1.26A5,5,0,0,1,273,53.55a30.84,30.84,0,0,0-1.26-3.29c-1.14-1.64-4.81-2.53-7-2.4-1.27.51-1.52,1.26-2.41.51-1-1.14-.88-2.16-.38-2.79,1-1.52,1.52-2,5.7-2.28,1.64.13,3.79,1.4,4.3.89.76-.89-1.77-3.42-2.28-3.67-1.26-.51-2-.63-2.78-2.28s-2-5.82-2.28-6.07A6.22,6.22,0,0,1,263,29.51a3.54,3.54,0,0,1,.88-3.29l.64-.38a30.76,30.76,0,0,0,2.65-1.64l.89-.63c.5-.51,4.8-2.53,7.21-3.67l.88-.51c1.4-1.14,1.27-1.64,2.15-3.54a3.07,3.07,0,0,1,1-1.14,23.19,23.19,0,0,1,4.17-1.39c.63,0,6.58-.25,8.48-1.14,1.64-.76,3-3.79,4.8-3.79Zm17,15.43c-.38-.38-1-1.39.5-.88,4.43,1.77,7.47,4,10.38,9.36s2.4,8.6-.51,13.28c-.76,1.27-4.68,5.44-5.19,6.46-1.39,1.39-3.67,3.54-4.17,5.56-.25.51.25.76.76.51a47.34,47.34,0,0,0,11.89-8.61c2.15-2.78,3.29-5.81,1.64-10.62-.25-.76-1.39-2.53-2-3.92-.51-1-1-3.17-1.52-4.69A10.36,10.36,0,0,0,321.55,25c-1.77-1.39-5.06-3.29-6.45-5.19-.89-1.26-.13-2,.63-3.54,1.9-2.66-2.4-9.36-5.32-8.6-1.89.76-.5.63-4.93,2.91-2.15,1.14-2.91,3.67-1.52,5.31.89.89,2.41,2.15,2.79,2.53,0,.13.25.51-.25.63-.76.38-.76.64-1.27.26A9.71,9.71,0,0,1,303.71,18c-.89-.76-3.92-2.91-4.3-3.16-2.91-1.14-11.64-1-14.93-.51a11.58,11.58,0,0,0-3.92,1.27c-.13.12-1.39,1.77-1.14,1.89h.38c.51-.12,1.77-.88,2.4-1.14s3.55.26,4.05,1.14c-.12,0-1.39-.12-2.15-.12-2.15.5-.76,2.65-.13,2.53h1.52v.5l-.12.38-.76.89c-.26.25-.13.25.38.25,1-.12,1.52-.25,1.52.26a7.14,7.14,0,0,1-3,1.89c-1.14.38-.76-.25-1.77-1.14-.26-.25-1.65-.63-2-.88l-.5-.51c-.51-1.39-.13-2-1-1.64-.25.12-10.24,4.55-12,5.94a4.19,4.19,0,0,0-.76.76c-.51.89-.89,1.52-.76,2s.25.76.63,1c.63.51,1.52-.63,2.4-1,.38-.26.64-.13.76.25.13.63-1,1.77-1.26,2.28-1,1.89,0,4.17,1,6.07.63,1.14,1,.25,1.9-.51,1.26-1.39,5.19-1.64,6.58-2.4a14.37,14.37,0,0,1,2.91-1.9A3.46,3.46,0,0,1,283,34.57c.89,1.4,3.8,3.67,4.68,4.31a2.88,2.88,0,0,1,1.52,2.9c-.13.26-3.79.64-5.56,1.4s-2.41,1.77-3.42,2.91c-4.81,3.92-5.44,2.65-6.33,3.67-1.13,1.13.89,5.18,2.66,5.18,2.28-.12,2.15.76,4.43-.38a7,7,0,0,0,1.77-2.4,16.67,16.67,0,0,1,1.9-3.67,11.72,11.72,0,0,1,7.72-4.43c1.14-.25,7.21.76,9-.25,2.27-1.77,1.26-3.54-.51-3.67a4.68,4.68,0,0,0-1.9,0l-1.39.13a3.54,3.54,0,0,1,.13-1c1.39-3.41,4.93-5.31,9.11-5.94.38,0,.38-.13,1,.38.25.12.25.5.13.76a7.31,7.31,0,0,0-1.27,3c-.76,4.05-.12,3.67-1.9,6.33a10.61,10.61,0,0,1-5.31,2.28,50.6,50.6,0,0,0-14.93,7.08,52.3,52.3,0,0,0-7,6.33,26.1,26.1,0,0,0-4.68,18.85c.38,4.18-.38,10.63-2.53,13-4.05,4.3-10.5,3.29-12,2.53a2.06,2.06,0,0,0-1.14-.63.82.82,0,0,0-1,.63c.38,2.15,3.8,4.43,7.34,4.93a12.51,12.51,0,0,0,6.7-1.51l1.52-1.14-.38-1.52s4.18-2.15,4.81-10.25c.13-2.15.25-7.34.13-8.09l-.38-1.9c-.26-1.27.25-11.64,2-14.05a12.66,12.66,0,0,1,4.18-3.92c7.33-4.43,16.7-5.19,23.28-10.37,5.81-4.43,7.21-7.47,6.7-11.77-1.14-5.31-4.43-5.69-6.83-6.83-.64-.25-.51-1.14-1-2a18.05,18.05,0,0,0-2.15-2.15,2.74,2.74,0,0,1-.64-.5c-.76-.76,1.14-1,1-1a3.55,3.55,0,0,1,1.13,0c3.42.38,8.36,1.52,10.63,4.31A10.87,10.87,0,0,1,317,35.33a15.5,15.5,0,0,1-8,10.38,78.35,78.35,0,0,1-16.58,8.22c-2.15,1-3.92,1.9-6.07,2.91a11.22,11.22,0,0,0-4.93,5.06c-1.65,3.54-2.66,10.12-1.65,13.67.13,1.77-.51,2.91.26,3.92.12.38.37.51.88.63,1.26-3.92-.13-9.49,4.93-15.18,3-3.67,5.82-5.44,10.13-7.72a2.1,2.1,0,0,1,1.26-.38l-.13,1.26A36.4,36.4,0,0,1,295.36,62c-.63,1.64-2.4,8.48-1.64,11.13,1,5.7,1.52,9.62,6.7,14a11.7,11.7,0,0,0,10.76,2.27c.5-.25.76-.63.25-1.26a4.24,4.24,0,0,0-1.52-.76c-4.93-2.66-8.86-7-10-12.27a36.19,36.19,0,0,0-1.27-4.43c-.13-.38-.51-.38-.63.12-.25.89-.13,2.28-.38,2.53-.89.64-1.64-3.41-1.64-3.54-1.27-8.35,5.18-15.18,7.08-17.33A19.8,19.8,0,0,1,307.25,49c.64-.26,1.27,0,1.14.25-.25.63-3.29,5.06-3.92,6.45a56.8,56.8,0,0,0-2,7.34c.26,1.39.89,2.91,1.9,0a51.68,51.68,0,0,1,6.46-11.39c5.31-6.7,4.55-7.21,7.08-10.37.13-.25.51-.13.63.25a2.06,2.06,0,0,1,.25,1.39c0,.51-.25,2.15.26,2.28s.51,0,1.14-1.77a24.82,24.82,0,0,0,.88-5.06,22.27,22.27,0,0,0-.25-3.16c-.63-4.81-3.16-7.59-7.08-11.39Zm.5,55.8c.63,6.07,8.22,17.84,17,15.43,1.14-.25,1.52,0,2.66-1,.25-.13,1-.76.51-1.14l-2.79-.63c-3.66.38-8-3.92-8.85-7.09l-1-2.78c-.26-.76-.64-3-1.27-3.29h-.25c-.13,0-.38.76-.63,1.14-3.67-1.39-2.92-8.35-1.4-10.5l2.79-3.8c2.53-2.4,7.46-6.83,7.71-7.34,0,0,1-1.89,1.27-2.4,0-.25.12-.63-.13-.76l-7.34,4.81a105.47,105.47,0,0,1-9.86,4.81c-2.91,1.39-6.07,8-2.16,13.16.26.25.51.5.89-.13.13-.38.63-3.8,1-5.7.13-.75,1.39-3.92,2.66-3.66l.13.25a38,38,0,0,1-.89,4.05c-.38,1.64,0,5.69,0,6.58Zm-26.95,8.85c-.25-.25-.12-.5.13-1.14.51-.75,1.14-1.51,1.52-2.15A13.11,13.11,0,0,0,291.06,76c-.13-1.77-.89-4-1-5.57-.26-2.28,0-3.92-1-3.42-2.14,1.65-3.28,5.44-3.41,7.85s.25,8.22.13,9.36a14.73,14.73,0,0,1-1.27,4.55c-.38.89-1.26,1.9-1.39,2.28-.38.89.51.89,1.64.63a9.82,9.82,0,0,0,4.3-2.15s.89-.76.38-1.14c-.12,0-1.64.39-2.15.13ZM263.48,46.85a6.42,6.42,0,0,0,1.64-.13,14.18,14.18,0,0,1,4.56,1,2.8,2.8,0,0,0,2.15.26,2,2,0,0,0,1.14-.26c1.14-.76.12-1.51,0-1.51a41.9,41.9,0,0,0-4.43-1.52,7,7,0,0,0-2.15-.51c-1.9.38-2.66,1-2.91,1.52A1.6,1.6,0,0,0,263.48,46.85ZM275.75,45a.88.88,0,0,0-1,.38c-.25.13-.13.25-.13.63s.89,1.65,1.27,1.77.5.26.63.13.89-.63.76-1A2.63,2.63,0,0,0,275.75,45Zm.76-1.9c-.13.38.63,1.52,1.14,1.27a9.08,9.08,0,0,0,2-1.77c.13-.38.38-.89.26-1a1.76,1.76,0,0,0-1.52-.25A3.51,3.51,0,0,0,276.51,43.05Zm-3.67-2.15V39a1.87,1.87,0,0,0-.13-.76,2.62,2.62,0,0,1-.5-.76.41.41,0,0,0-.25-.12c-.26-.13-.38,0-.64.12a3,3,0,0,0-.63.64c-.13,0-.25.25-.25.5a4.34,4.34,0,0,0,.76,1.65,1.51,1.51,0,0,1,.5.38,2.11,2.11,0,0,0,1.14.25Zm52.88-14.42c.38.38,1.52.88,1.9.63s.25-1.64.13-2.15A9.73,9.73,0,0,0,326,20.78a10,10,0,0,0-3.29-2.15c-2.41,0-1.52,1.78-1.52,1.78a31.21,31.21,0,0,0,4.55,6.07ZM299.16,12.56a1.48,1.48,0,0,0,.76-1.77,2.36,2.36,0,0,0-1-.25c-.5-.13-1.14.5-1.14,1.13a.94.94,0,0,0,1.4.89Zm-8.73,26.7a4.24,4.24,0,0,1-2.41-2c-.25-.38-3.16-4.17-4.42-4.43-.76-.12-.89,0-1.27-.5-1.27-2-1.39-3.8-3.67-5.06-.25-.13-.76-.76-.38-1.14a1.31,1.31,0,0,1,1,0,8.4,8.4,0,0,1,4.94,3c.76,1.14.89,2,1.77,2.79a8.66,8.66,0,0,1,1.14.76A7.85,7.85,0,0,1,288.91,35c.63,1.26,1.14,2.4,1.77,3.92.13.38,0,.5-.25.38ZM270.18,28.12a1.54,1.54,0,0,1-1-.25s-.12-.13-.12-.63a1.28,1.28,0,0,1,.76-1c.12,0,.5-.38.88-.38H272c.13,0,0,.25-.12.38a16.49,16.49,0,0,1-1.14,1.51A.56.56,0,0,1,270.18,28.12ZM309.28,18c-1-.13-4.31-2-4.43-2.91a2.69,2.69,0,0,1,0-1.77c0-.63,2.15-2.66,3.67-3,.63-.12.63.26.63.38a15.38,15.38,0,0,0-.25,2.53c0,.76.88,2.41,1.64,2.41a1.77,1.77,0,0,0,.76-.26A4.13,4.13,0,0,0,313,13.7c.25-.76.38-.89.63-1.52.12-.38.5-.25.88.38a2.82,2.82,0,0,1,0,2.28,3.88,3.88,0,0,1-2.28,2.4,4.62,4.62,0,0,1-1.64.64,2.28,2.28,0,0,1-1.26.12ZM296.63,92a7.81,7.81,0,0,1,2.53,2c.63.63,3,3.16,3.92,3.29.5,0,1.14.88,1.14.88s-.13.64-1.14.89c-.51.13-3.16.25-3,3.29.26,2.66,3.16,2.66,3.54,2.53,3.17-.38,3.17-.89,4.56-2.15.76-.76,1.14-.13,1.14-.13a32.51,32.51,0,0,1,2.15,2.79c.12.12.88.88-.25,1.9s-2.15,1.89-2.41,2.15-.88.75-1.52-.13c-.88-1.27-3.16-3.16-5.94-1s-2.28,6.32,2.15,7.84c4.68,1.65,9.74.51,11.76-1.14a3.45,3.45,0,0,0,1.52-2,6.27,6.27,0,0,0,.38-4.18c-.25-.5-.76-1.39-.76-1.39s-.63-.88-.12-1.39a21.68,21.68,0,0,1,2.4-2.15s1.52-1,2.28.12l1.39,2.54s.38.63-.38,1.77c-.59,1-1.22,2-1.9,2.91a4.2,4.2,0,0,0-.12,2.78,13.79,13.79,0,0,0,1.26,2.78,5.6,5.6,0,0,0,4.17,1.9c2.66.13,5.19-1.9,5.57-2.28s2.28-3.79-1.77-4.68c-1.39-.12-2.15.13-2.66,0a5.65,5.65,0,0,1-1.64-2.53c-.13-1.14.5-1.39.5-1.39a5.29,5.29,0,0,1,2.28-1.52c.89-.12,1,0,1.65.64a15.25,15.25,0,0,0,1.51,1.51,1.67,1.67,0,0,0,2.66-1.89c-.89-1.65-1-1.65-1.39-2.41,3.29-1,6.58-4,9-5.57-.25.64-8.35,18-8.6,18.6s-.89,3.17-.26,4.3a3.14,3.14,0,0,1-.38,3.42c-.63.89-2.65,9-2.65,9.74.12.51.12.89.76,1v2.16c-.26.5-1.52,2-2.41,1.89H265.63c-.89.13-2.28-1.39-2.4-1.89v-2.16c.5-.12.63-.5.63-1,.13-.76-1.9-8.85-2.53-9.74a3.16,3.16,0,0,1-.38-3.42c.63-1.13,0-3.54-.38-4.3s-8.48-18.6-8.48-18.6c.76.51,4.93,4,9.11,5.57,0,0-1,1.52-1.52,2.41a1.61,1.61,0,0,0,2.53,1.89s1-.88,1.65-1.51.76-.76,1.64-.64a5.29,5.29,0,0,1,2.28,1.52s.63.25.5,1.39a5.57,5.57,0,0,1-1.64,2.53c-.63.13-1.26-.12-2.65,0-4.05.89-2,4.3-1.78,4.68a8.48,8.48,0,0,0,5.57,2.28,5.63,5.63,0,0,0,4.18-1.9,7.53,7.53,0,0,0,1.13-2.78,3.47,3.47,0,0,0-.12-2.78c-.26-.51-1.27-2-1.9-2.91-.76-1.14-.25-1.77-.25-1.77a21.32,21.32,0,0,1,1.39-2.54c.63-1.13,2.28-.12,2.28-.12a14.86,14.86,0,0,1,2.27,2.15c.51.51,0,1.39,0,1.39s-.5.89-.76,1.39a7,7,0,0,0,.26,4.18c.76,1.64,1.52,2,1.64,2,2,1.65,7.09,2.79,11.64,1.14s5.06-5.69,2.15-7.84-4.93-.26-5.82,1c-.76.88-1.26.25-1.51.13s-1.39-1.14-2.41-2.15-.38-1.78-.25-1.9a32.51,32.51,0,0,1,2.15-2.79s.38-.63,1,.13c1.52,1.26,1.52,1.77,4.68,2.15.38.13,3.29.13,3.42-2.53.25-3-2.4-3.16-2.91-3.29a1.78,1.78,0,0,1-1.27-.89s.76-.88,1.14-.88c.89-.13,3.42-2.66,4.05-3.29a8.81,8.81,0,0,1,2.66-2Zm29.6,42.76a5,5,0,0,0,0-1.39c-.13-.51-.76-1.9-.89-2.66s0-3.67.89-4.43c1.64-.76,1.9.63,1.64-1.39H265.25c-.13,2,0,.63,1.77,1.39.76.76,1,3.8.89,4.43a15.6,15.6,0,0,0-.89,2.66s-.25,1.26-.12,1.39S326.23,134.91,326.23,134.78Zm-61.49-4.55h.76v-1.52h-.76Zm62.5,0H328v-1.52h-.76Zm-63.51-6.71h65.41c.25,0,.38-.13.38-.25v-1.78c0-.12-.13-.25-.38-.25H263.73c-.25,0-.25.13-.25.25v1.78c0,.12,0,.25.25.25Zm2.91,14.3h59.84a.28.28,0,0,0,.26-.26v-1a.27.27,0,0,0-.26-.25H266.64a.28.28,0,0,0-.25.25v1a.28.28,0,0,0,.25.26Zm44.91-4.56a2.72,2.72,0,0,1-2.78-2.78v-1.27a2.66,2.66,0,0,1,2.78-2.78h5.95a2.8,2.8,0,0,1,2.78,2.78v1.27a2.8,2.8,0,0,1-2.78,2.78Zm2.92-1.39c1.51,0,2.78-.88,2.78-2s-1.27-2-2.78-2-2.79.89-2.79,2S313,131.87,314.47,131.87Zm-38.59,1.39a2.81,2.81,0,0,1-2.79-2.78v-1.39a2.82,2.82,0,0,1,2.79-2.79h5.94a2.82,2.82,0,0,1,2.79,2.79v1.39a2.81,2.81,0,0,1-2.79,2.78Zm3-1.52c1.52,0,2.66-.88,2.66-2a2.45,2.45,0,0,0-2.66-2c-1.51,0-2.78,1-2.78,2S277.4,131.74,278.91,131.74Zm15.31,1.52a2.72,2.72,0,0,1-2.78-2.78v-1.39a2.73,2.73,0,0,1,2.78-2.79H300a2.81,2.81,0,0,1,2.78,2.79v1.39a2.8,2.8,0,0,1-2.78,2.78Zm2.91-1.52c1.52,0,2.66-.88,2.66-2a2.45,2.45,0,0,0-2.66-2c-1.52,0-2.78,1-2.78,2S295.61,131.74,297.13,131.74Zm-26.44-.63a.86.86,0,0,1-.88-.84v0a.86.86,0,0,1,.84-.89h0a.89.89,0,0,1,0,1.77Zm17.33,0a.87.87,0,0,1-.88-.84v0a.89.89,0,1,1,.93.88Zm34.79,0a.87.87,0,0,1-.88-.85v0a.89.89,0,1,1,.93.88Zm-16.95,0a.88.88,0,0,1-.89-.84v0a.89.89,0,1,1,.94.88Z"/></svg>