<svg id="Layer_1" data-name="Layer 1" xmlns="http://www.w3.org/2000/svg" viewBox="0 0 595.28 175.75"><defs><style>.cls-1{fill:#231f20;}.cls-1,.cls-2,.cls-3,.cls-4,.cls-5{fill-rule:evenodd;}.cls-2{fill:#0073bb;}.cls-3{fill:#fec057;}.cls-4{fill:#003a80;}.cls-5{fill:#fff;}.cls-6{fill:none;stroke:#003a80;stroke-miterlimit:2.61;stroke-width:0.49px;}</style></defs><path class="cls-1" d="M574.08,20.36a4.71,4.71,0,1,1-4.68,4.71,4.67,4.67,0,0,1,4.68-4.71v-.52a5.23,5.23,0,1,0,5.19,5.23,5.23,5.23,0,0,0-5.19-5.23v.52Z"/><path class="cls-1" d="M572.78,22.72h1.82c.77,0,1.55,0,1.55,1s-1.3,1-2.33,1h-1v.53h1.3l1.81,2.61h.78l-1.82-2.61c1,0,1.82-.53,1.82-1.57,0-.52,0-1-.52-1.31a3.28,3.28,0,0,0-1.55-.26H572v5.75h.78V22.72Z"/><polygon class="cls-2" points="16.01 155.91 562.66 155.91 562.66 20.36 16.01 20.36 16.01 155.91 16.01 155.91"/><polygon class="cls-3" points="148.39 155.91 562.66 155.91 562.66 114.12 148.39 114.12 148.39 155.91 148.39 155.91"/><polygon class="cls-4" points="171.23 145.2 173.82 145.2 173.82 126.13 171.23 126.13 171.23 145.2 171.23 145.2"/><polygon class="cls-4" points="193.29 126.13 196.93 126.13 205.23 141.54 205.23 141.54 205.23 126.13 208.09 126.13 208.09 145.2 204.71 145.2 196.15 129.53 195.89 129.53 195.89 145.2 193.29 145.2 193.29 126.13 193.29 126.13"/><polygon class="cls-4" points="231.19 128.48 225.22 128.48 225.22 126.13 239.75 126.13 239.75 128.48 233.78 128.48 233.78 145.2 231.19 145.2 231.19 128.48 231.19 128.48"/><polygon class="cls-4" points="257.14 126.13 267.79 126.13 267.79 128.48 259.74 128.48 259.74 134.23 267.01 134.23 267.01 136.58 259.74 136.58 259.74 142.85 267.79 142.85 267.79 145.2 257.14 145.2 257.14 126.13 257.14 126.13"/><path class="cls-4" d="M286.48,126.13h4.67c3.63,0,7.27.53,7.27,5.23a4.26,4.26,0,0,1-3.9,4.18v.26a2.52,2.52,0,0,1,1.82,1.82L300,145.2h-3.11L294,138.67c-.78-1.83-1.81-1.83-3.11-1.83h-1.82v8.36h-2.59V126.13Zm2.59,8.1h2.34c2.59,0,4.15-1,4.15-2.87s-1.3-2.88-3.89-2.88h-2.6v5.75Z"/><polygon class="cls-4" points="317.62 126.13 321.26 126.13 329.56 141.54 329.82 141.54 329.82 126.13 332.42 126.13 332.42 145.2 329.05 145.2 320.48 129.53 320.48 129.53 320.48 145.2 317.62 145.2 317.62 126.13 317.62 126.13"/><path class="cls-4" d="M357.86,126.13h2.85l7.79,19.07h-2.86l-1.81-5h-9.35l-1.81,5h-2.86l8.05-19.07Zm1.3,2.62-3.9,9.4h7.53l-3.63-9.4Z"/><polygon class="cls-4" points="387.71 128.48 381.74 128.48 381.74 126.13 396.27 126.13 396.27 128.48 390.3 128.48 390.3 145.2 387.71 145.2 387.71 128.48 387.71 128.48"/><polygon class="cls-4" points="413.4 145.2 416.26 145.2 416.26 126.13 413.4 126.13 413.4 145.2 413.4 145.2"/><path class="cls-4" d="M443.77,125.87c5.71,0,9.09,4.18,9.09,9.67,0,6-3.38,9.92-9.09,9.92s-9.08-3.92-9.08-9.92c0-5.49,3.37-9.67,9.08-9.67Zm0,17.24c4.16,0,6.23-3.66,6.23-7.57,0-3.66-2.07-7.32-6.23-7.32s-6.23,3.66-6.23,7.32c0,3.91,1.82,7.57,6.23,7.57Z"/><polygon class="cls-4" points="471.29 126.13 474.92 126.13 483.23 141.54 483.23 141.54 483.23 126.13 485.82 126.13 485.82 145.2 482.45 145.2 473.88 129.53 473.88 129.53 473.88 145.2 471.29 145.2 471.29 126.13 471.29 126.13"/><path class="cls-4" d="M511.26,126.13h2.86l8,19.07h-3.11l-1.82-5h-9.34l-1.82,5h-2.86l8.05-19.07Zm1.3,2.62-3.63,9.4h7.26l-3.63-9.4Z"/><polygon class="cls-4" points="539.29 126.13 542.15 126.13 542.15 142.85 549.94 142.85 549.94 145.2 539.29 145.2 539.29 126.13 539.29 126.13"/><polygon class="cls-4" points="16.01 155.91 150.72 155.91 150.72 20.36 16.01 20.36 16.01 155.91 16.01 155.91"/><path class="cls-5" d="M83.49,38.91c4.94,4.7,10.39,9.92,15.06,14.62l-5.45,7v.53l14.28,6.26,9.86-6.53-6-6.79v-.52c6.23-4.18,11.42-8.36,17.13-12.27l-2.86,29.51H41.19L38.33,41.26c6,3.91,11.16,8.09,17.13,12.27v.52l-6,6.79,9.87,6.53,14.53-6.26v-.53l-5.45-7c4.67-4.7,9.86-9.92,14.8-14.62Z"/><path class="cls-5" d="M125,76l-1,9.93H92.84v34h15.31c3.38,0,7-3.66,6.23-6-.78-3.4-3.89-5.75-6.75-7.31.52,0,10.91-7.84,15.84-11.23-.26,2.35-3.64,30-3.64,30.55L83.75,139.71h-.51L47.16,125.87c0-.52-3.64-28.2-3.9-30.55,4.93,3.39,15.32,11.23,15.84,11.23-2.86,1.56-5.71,3.91-6.49,7.31-.78,2.35,2.59,6,6.23,6h15V85.92H42.74L42,76Z"/><path class="cls-5" d="M172.27,59c0-9.67-.52-11.23-7.53-11.76v-1l15.31-.52c16.1-.53,17.14,7.31,17.14,10.44,0,5.23-3.12,8.36-7.79,10.45l.26.26c4.93,8.62,10.9,19.59,21.28,21.68v1c-6.75-.52-11.68-.26-15.31-3.92a54.59,54.59,0,0,1-8.83-12.79c-2.33-5.23-4.67-3.66-9.08-4.44V78.6c0,7.05,0,8.36,8.82,9.4v1H164.22V88c7.79-1,7.79-2.87,8.05-9.4V59Zm5.45,8.35c6,0,13-2.87,13-9.92,0-7.31-6.49-10.45-13-10.45V67.37Z"/><path class="cls-5" d="M220.29,89.57c-8.83,0-15.58-5.48-15.58-14.62,0-8.62,7-14.63,15.58-14.63S235.6,65.81,235.6,75c0,8.35-7,14.62-15.31,14.62ZM220,61.63c-6.75,0-9.35,7.05-9.35,13.06,0,5.74,3.12,13.58,9.87,13.58,6.49,0,9.34-7.32,9.34-12.8,0-5.75-2.85-13.84-9.86-13.84Z"/><path class="cls-5" d="M237.68,66.59c-1-2.87-1.3-3.4-4.42-3.92v-1h13v1c-4.93.26-3.63,3.14-2.33,6.27l6.23,16.19L254,73.64c2.86-8.1,3.37-10.45-1.3-11v-1h10.9v1C261,62.93,260,64,259,66.59l-2.85,6L246.5,97.14c-2.33,6-3.89,7.84-6.49,7.84a3,3,0,0,1-3.11-3.13A2.83,2.83,0,0,1,239,99c.51.26,2.59,1.57,3.37,1.57,1.3,0,2.34-3.4,2.86-4.18l2.07-5-9.6-24.81Z"/><path class="cls-5" d="M276.35,73.38c.52-7-1.29-9.92-6.23-9.92-4.41,0-3.89,2.08-3.89,5.74h-3.11c-.52,0-1.56.26-1.56-.52,0-1.83,7-8.36,12.2-8.36,5.71,0,7.53,4.44,7.53,9.4v9.14c0,5.49-.52,9.14,5.45,8.1v1.31a19.89,19.89,0,0,1-6.49,1c-2.6,0-3.64-1.57-3.9-3.92-2.07,2.09-4.67,4.18-8,4.18-3.9,0-6.23-3.39-6.23-7,0-1,.26-2.09.26-2.87l14-6.27Zm-8.56,5.48a8.14,8.14,0,0,0-.26,2.62c0,2.61,1.3,5,4.41,5a6.24,6.24,0,0,0,4.41-2.35V74.42l-8.56,4.44Z"/><path class="cls-5" d="M283.88,89.05V87.48c4.41-.52,4.93-1.56,4.93-5.74V54.58c0-2.62,0-3.4-3.11-5.75v-.52L293,45.44l.51.26v36c0,5.22.26,5.48,4.94,6.26v1Z"/><path class="cls-5" d="M357.86,73.38c.52-7-1-9.92-6.23-9.92-4.16,0-3.9,2.08-3.9,5.74h-3.11c-.52,0-1.3.26-1.3-.52,0-1.83,6.75-8.36,11.94-8.36,5.71,0,7.53,4.44,7.53,9.4v9.14c0,5.49-.52,9.41,5.45,8.1v1.31a19.47,19.47,0,0,1-6.23,1c-2.6,0-3.63-1.57-4.15-3.92-1.82,2.09-4.67,4.18-7.79,4.18-4.15,0-6.49-3.39-6.49-7a9.41,9.41,0,0,1,.52-2.87l13.76-6.27Zm-8.31,5.48a7.81,7.81,0,0,0-.52,2.62c0,2.61,1.56,5,4.41,5a5.8,5.8,0,0,0,4.42-2.35V74.42l-8.31,4.44Z"/><path class="cls-5" d="M339.69,59h-1c-1.3-7.32-5.45-12.28-13-12.28-11.42,0-17.91,9.4-17.91,20.37,0,12.54,9.6,21.16,18.69,21.16,8.31,0,11.42-6.27,14.28-13.06l.77.52A42.61,42.61,0,0,1,338.13,87a26.73,26.73,0,0,1-12.72,2.87c-13.24,0-24.92-7.83-24.92-21.93,0-11.5,8.83-22.73,25.44-22.73,4.67,0,9.6.79,13.76,3.4V59Z"/><path class="cls-5" d="M507.63,73.38c.52-7-1.3-9.92-6.23-9.92-4.42,0-3.9,2.08-3.9,5.48l-3.11.26c-.52,0-1.56,0-1.56-.52,0-1.83,7-8.36,11.94-8.36,6,0,7.79,4.44,7.79,9.4v9.14c0,5.49-1,9.14,4.67,8.88v1.05a15.07,15.07,0,0,1-5.71.52c-2.59,0-3.63-1.57-3.89-3.92-2.08,2.09-4.93,4.18-8.05,4.18-3.89,0-6.23-3.39-6.23-7.31a8.91,8.91,0,0,1,.26-2.61l14-6.27Zm-8.57,5.48a7.81,7.81,0,0,0-.52,2.62c0,2.61,1.56,5,4.42,5a6.33,6.33,0,0,0,4.67-2.35V74.42l-8.57,4.44Z"/><path class="cls-5" d="M375.25,81.74c0,5,.26,5.48,6.23,6.26v1H365.64V87.48c4.42-.52,4.68-1.56,4.68-6.27V69.46c0-2.61,0-3.39-3.12-5.74v-.53l7.53-2.87.78.26-.26,7.58h0c1.3-3.4,4.93-7.84,8.82-7.84,1.82,0,3.38,1,3.38,2.87s-1.82,3.4-3.38,3.92c-1-.78-2.59-2.09-3.89-2.09-5.45.52-4.93,9.14-4.93,10.19v6.53Z"/><path class="cls-5" d="M389.26,89.05V88c4.68-.78,4.94-1.56,4.94-6.26V69.46c0-2.61,0-3.39-3.9-5.74v-.53l8.05-2.87.78.26V81.74c0,5,.26,5.48,4.93,6.26v1Zm10.39-39.17A3.41,3.41,0,0,1,396.27,53a3.36,3.36,0,0,1-3.11-3.13,3.42,3.42,0,0,1,3.11-3.4,3.45,3.45,0,0,1,3.38,3.4Z"/><path class="cls-5" d="M406.4,54.58c0-2.62,0-3.4-3.12-5.75v-.52l7.27-2.87.52.26V64c3.11-1.83,7-3.66,10.64-3.66,7,0,11.68,6.53,11.68,13.06,0,11.23-10.12,16.19-17.13,16.19-3.63,0-6.49-1-9.86-2.61V54.58ZM411.07,76c0,6,.78,11.75,8.05,11.75,3.37,0,9.08-2.87,9.08-11.75,0-7.57-5.19-12.53-11.16-12.53a16.46,16.46,0,0,0-6,1.3V76Z"/><path class="cls-5" d="M436.51,54.58c0-2.62,0-3.4-3.12-5.75v-.52l7.27-2.87.52.26V64c3.11-1.83,7-3.66,10.64-3.66,7,0,11.68,6.53,11.68,13.06,0,11.23-10.12,16.19-17.13,16.19-3.63,0-6.49-1-9.86-2.61V54.58ZM441.18,76c0,6,.78,11.75,8,11.75,3.38,0,9.09-2.87,9.09-11.75,0-7.57-5.19-12.53-11.16-12.53a16.42,16.42,0,0,0-6,1.3V76Z"/><path class="cls-5" d="M471.81,72.86c-.52,6.53,3.89,12.79,11.16,12.79,3.11,0,5.45-1.56,7.27-4.17l1,.78c-2.33,4.18-6.74,7.31-11.68,7.31-7.78,0-13-6.53-13-14.1,0-8.1,5.45-15.15,14-15.15,5.71,0,9.35,3.66,9.61,9.4H472.07l-.26,3.14Zm12.46-5c-.52-2.88-2.34-6.27-5.45-6.27-3.64,0-5.71,3.65-6.49,6.79l11.94-.52Z"/><path class="cls-5" d="M520.09,69.46c0-2.61,0-3.39-3.12-5.74v-.53l7.53-2.87.78.26-.52,4.7c3.63-2.61,7-5,10.9-5,7.79,0,8.05,6.27,8.05,9.93V81.74c0,5,.26,5.48,4.93,6.26v1h-14.8V88c4.68-.78,4.94-1.56,4.94-6.26V74.42c0-4.44.25-10.7-7.53-10.7-2.6,0-4.16.78-6.23,2.61V81.74c0,5,.26,5.48,4.93,6.26v1h-14.8V87.74c4.42-.26,4.94-1.3,4.94-6V69.46Z"/><polygon class="cls-6" points="38.3 150.38 562.66 150.38 562.66 20.36 38.3 20.36 38.3 150.38 38.3 150.38"/></svg>