<svg id="Layer_1" data-name="Layer 1" xmlns="http://www.w3.org/2000/svg" viewBox="0 0 595.28 175.75"><defs><style>.cls-1{fill:#cda72d;}.cls-2{fill:#231f20;}</style></defs><path class="cls-1" d="M272.7,67.4c0-7,0-13.86,0-20.72,0-.88.55-.91,1.1-1.06,8.8-2.39,16.18.11,22.39,6.55,1.33,1.38,1.56,1.39,2.74-.06,3.45-4.2,8-6.85,12.88-9a16.45,16.45,0,0,0,2.89-1.48h-1.21c-13.1,0-26.19,0-39.28,0-1.27,0-1.52-.35-1.51-1.54.06-7.53.05-15.07,0-22.6,0-.94.23-1.19,1.18-1.22a34.91,34.91,0,0,0,19-5.86,33.5,33.5,0,0,0,3-2.38c1.35-1.16,1.93-1.18,3.32-.11a33.14,33.14,0,0,0,14.57,6.49,13.63,13.63,0,0,0,8.67-1.7c.27.28.15.59.15.86,0,6.14,0,12.27,0,18.41,0,.92-.31,1.2-1.13,1.42-8.77,2.4-16.09-.12-22.29-6.49-1.42-1.46-1.62-1.47-2.92.1-3.42,4.1-7.89,6.72-12.68,8.87a27.54,27.54,0,0,0-3.15,1.53h1.26c13.18,0,26.36,0,39.53,0,1.15,0,1.38.31,1.38,1.4q-.07,11.82,0,23.62c0,1.16-.36,1.38-1.42,1.41a33.66,33.66,0,0,0-19.9,6.61c-.71.53-1.35,1.14-2,1.72-1.2,1-1.81,1-3,.08a34.58,34.58,0,0,0-13.29-6.35C279.4,65,276.08,65.68,272.7,67.4Z"/><path class="cls-2" d="M142.41,113.4a8,8,0,0,0,7.23,5.46,6.94,6.94,0,0,0,6.89-7.12c0-7.79-13.45-4.7-13.45-14.89,0-5.82,4.8-8.66,9.73-8.66,1.94,0,5,.68,6.57,2.17,0,1.76,0,3.93,0,3.93-1.1-2.93-3.37-4.69-5.79-4.69-2.83,0-5.53,1.67-5.74,5.81-.38,7.53,13.53,5,13.53,14.56,0,6.45-6.13,10.28-11.71,10.28-2,0-5.88-1-7.27-2.61V113.4"/><rect class="cls-2" x="374.02" y="102.85" width="12.79" height="2.79"/><path class="cls-2" d="M191.93,103v15.42c-.12.73-1.31,1.33-1.31,1.33h8.09s-1.25-.66-1.3-1.33V90.19c.05-.66,1.3-1.32,1.3-1.32-1.36,0-6.06,0-8.09,0,0,0,1.19.6,1.3,1.32,0,1.35,0,11.27,0,11.27-2.24,0-10.86,0-13.1,0V90.19c.12-.72,1.3-1.32,1.3-1.32-2,0-6.71,0-8.09,0,0,0,1.25.66,1.31,1.32V118.4c-.06.65-1.31,1.31-1.31,1.31,1.39,0,6.08,0,8.09,0,0,0-1.19-.6-1.3-1.33V103c3.19,0,9.92,0,13.1,0"/><path class="cls-2" d="M360.32,102.22v-12c.11-.7,1.29-1.3,1.29-1.3-2,0-6.71,0-8.08,0,0,0,1.23.65,1.29,1.3v28.21c-.06.67-1.29,1.32-1.29,1.32h8.08s-1.18-.61-1.29-1.32V102.22"/><path class="cls-2" d="M399.38,119.71s1.25-.66,1.29-1.33V90.17c0-.65-1.3-1.3-1.3-1.3,1.38,0,6.07,0,8.07,0,0,0-1.16.6-1.3,1.3v28.11h.05c2.47.1,6.41-.28,8.87-.25a3.85,3.85,0,0,0,2.46-.75,6.65,6.65,0,0,1-.57,2.42H399.38"/><path class="cls-2" d="M265.53,109.36c-.76-.94-17.24-20.51-17.24-20.51h-5.67a3.32,3.32,0,0,1,1.94,1.86s0,26.34,0,27.67c-.13.72-1.31,1.32-1.31,1.32h4s-1.22-.65-1.28-1.32c0-1.64,0-23.56,0-23.56s-.24-1.58,1,0c1.49,1.85,21.8,26,21.8,26s0-29,0-30.61c.08-.63,1.31-1.28,1.31-1.28-1.36,0-3.44,0-5.47,0,0,0,1.19.59,1.32,1.28v19.16"/><path class="cls-2" d="M221.38,87.88s11.6,29.41,12.25,30.42a3.62,3.62,0,0,0,1.61,1.41c-1.11,0-6.78,0-7.92,0,0-.09,1-.52.67-1.4-.78-2.09-2.55-6.2-3.33-8.42H214.37c-.74,2-2.62,7.44-3,8.46s.46,1.17.8,1.36c-.83,0-4.09,0-5,0,0,0,1.18-.43,1.36-1.36s11.88-30.47,11.88-30.47m-5.52,20.51h9.19l-4.61-11.75Z"/><path class="cls-2" d="M438.39,87.87S450,117.28,450.62,118.3a3.8,3.8,0,0,0,1.64,1.41c-1.14,0-6.8,0-7.94,0,0-.09,1-.53.7-1.4-.82-2.09-2.58-6.2-3.37-8.42H431.38c-.72,2-2.65,7.43-3,8.46s.45,1.16.78,1.36c-.81,0-4.19,0-5,0,0,0,1.17-.42,1.34-1.37s11.87-30.47,11.87-30.47m-5.5,20.5h9.21l-4.61-11.73Z"/><path class="cls-2" d="M303.9,117.13a14.38,14.38,0,0,1-7.2,1.53c-5.49,0-11.31-5.55-11.31-14.48,0-9.11,4.92-14.15,10.86-14.15A12.55,12.55,0,0,1,307,96.36s0-3.44,0-5c-2.24-1-5.21-2.78-10.59-2.78-9.11,0-16.49,5.25-16.49,15.78,0,9.17,6.42,15.65,15.61,15.65a32,32,0,0,0,11.54-1.75v-9.93c.06-.64,1.3-1.3,1.3-1.3-1.37,0-3.78,0-5.79,0,0,0,1.18.6,1.29,1.3v8.76"/><path class="cls-2" d="M326.62,118.38c.06.67,1.29,1.32,1.29,1.32-1.35,0-3.86,0-4.51,0s-2.25,0-3.62,0c0,0,1.23-.65,1.29-1.32V90.17c-.06-.65-1.29-1.3-1.29-1.3,1.69,0,8.6,0,8.6,0,6.3,0,11.11,3,11.11,7.55,0,5.24-4.94,7.63-6.22,8.19a15.27,15.27,0,0,1,3.49,3.54c1.67,2.4,3,4.89,3.78,6.19,2.71,4.56,4.25,5,4.25,5a9.9,9.9,0,0,1-4.72.49c-3.7-.87-7.19-13.1-9.84-14a19.38,19.38,0,0,0-3.61-.23m0-1.48a12.92,12.92,0,0,0,4.42-.22c3.22-.92,4.5-3.42,4.5-6.93,0-3.09-1.63-6.14-4.7-6.75a8.06,8.06,0,0,0-4.22,0v13.92Z"/><polyline class="cls-2" points="182.9 157.61 182.9 163.67 184.16 163.67 184.16 164.07 179.78 164.07 179.78 163.68 180.91 163.68 180.91 151.6 179.78 151.6 179.78 151.21 184.16 151.21 184.16 151.6 182.9 151.6 182.9 157.21 187.84 157.21 187.84 151.6 186.63 151.6 186.63 151.21 190.98 151.21 190.98 151.6 189.85 151.6 189.85 163.67 190.98 163.67 190.98 164.07 186.63 164.07 186.63 163.67 187.84 163.67 187.84 157.61"/><path class="cls-2" d="M214.07,163.67h1.38V151.6h-1.21c-.84,0-1,.19-1.79,3.71H212V151.2h8.87v4.11h-.4c-.78-3.52-1-3.71-1.81-3.71h-1.22v12.07h1.41v.4h-4.81"/><path class="cls-2" d="M226.54,164.07v-.4h1.11V151.6h-1.11v-.4H236v4.14h-.42c-1-3.49-1.31-3.74-2.22-3.74h-3.7v5.61h1.45c.95,0,1.41-.58,1.74-2.58h.43v5.54h-.43c-.33-2-.79-2.57-1.74-2.57h-1.45v6.07H233c1.32,0,1.7-.51,2.8-4.35h.42v4.75"/><path class="cls-2" d="M245.74,163.67h2.76c1.23,0,1.59-.21,2.68-4.75h.43v5.15h-9v-.4h1.12V151.6h-1.12v-.4h5v.4h-1.86"/><path class="cls-2" d="M257.53,159.24c.77,3.48,1.49,4.73,3.29,4.73a2.82,2.82,0,0,0,3-2.72c0-3.68-6.92-2.25-6.92-6.66,0-2.21,1.7-3.69,4.23-3.69a8.73,8.73,0,0,1,3.51.73v3.75h-.42s-.19-.69-.66-2.16a2.39,2.39,0,0,0-2.57-1.91,2.61,2.61,0,0,0-2.84,2.46c0,1.4,1,1.77,3.5,2.73,2.76,1,3.74,1.73,3.74,3.78,0,2.34-2,4.09-4.84,4.09a7.31,7.31,0,0,1-3.47-1v-4.09"/><path class="cls-2" d="M287.07,156.68h2.07l-.23,1h0a3,3,0,0,1,2.31-1.2c1.15,0,1.86.55,1.51,2.13l-1.09,5.18h.77l-.05.31h-3l.08-.31h.81l1.17-5.34c.23-1.09,0-1.45-.72-1.45s-1.69.68-2,2.21l-1,4.58h.85l-.06.31h-3l.06-.31h.8l1.42-6.76H287"/><path class="cls-2" d="M300,164.07l.19-.9h0a2.22,2.22,0,0,1-2,1.14c-1.39,0-2.42-1.38-1.88-3.93s2.08-3.93,3.57-3.93a1.37,1.37,0,0,1,1.43,1.11h0l.68-3.24h-.72l.09-.33h2.07l-2.08,9.77H302l0,.31m-3.47-.08c1,0,1.74-1.15,2.24-3.48.58-2.61.19-3.66-.76-3.66s-1.62.71-2.21,3.66C297.18,163.17,297.56,164,298.51,164Z"/><path class="cls-2" d="M277.33,159.32l.5-2.35a6.78,6.78,0,0,1,2.33-.52c1.82,0,2.44,1,2.26,1.86l-1.16,5.45h.7l-.07.31h-2l.27-1.27h0a3.07,3.07,0,0,1-2.54,1.52c-1.3,0-2-.78-1.77-2,.52-2.55,3.35-1.81,5-2.7l.34-1.52c.2-.93-.21-1.3-1-1.3-1,0-1.41.52-2.53,2.55m3.13.65c-1.82.78-3.06.22-3.5,2.32-.23,1.09.11,1.5.87,1.5,1.07,0,2-1.11,2.38-2.71Z"/><path class="cls-2" d="M201.9,150.9c2.81,0,5.37,2.65,5.37,6.74s-2.56,6.74-5.37,6.74-5.37-2.65-5.37-6.74,2.56-6.74,5.37-6.74m0,13.08c2.06,0,3-1.46,3-6.34s-1-6.33-3-6.33-3,1.46-3,6.33S199.83,164,201.9,164Z"/><path class="cls-2" d="M314.26,164.07v-.4h1.12V151.6h-1.12v-.4h5.42c3.11,0,4.22,1.49,4.22,3.11,0,1.8-1.42,3.05-4.1,3.21l4.43,6.14h.92v.41H322.2l-4.76-6.55h-.06v6.14h1.42v.41m-1.42-6.83h1.09c2.22,0,3.31-1.09,3.31-2.93a2.48,2.48,0,0,0-2.69-2.71h-1.71v5.64Z"/><path class="cls-2" d="M346.63,159.24c.76,3.45,1.46,4.73,3.3,4.73a2.8,2.8,0,0,0,3-2.72c0-3.69-6.9-2.25-6.9-6.66,0-2.21,1.72-3.69,4.23-3.69a8.77,8.77,0,0,1,3.51.73v3.73h-.4l-.68-2.14a2.4,2.4,0,0,0-2.58-1.91,2.61,2.61,0,0,0-2.82,2.46c0,1.4,1,1.76,3.5,2.72,2.75,1,3.72,1.74,3.72,3.8,0,2.33-2,4.08-4.84,4.08a7.34,7.34,0,0,1-3.46-1v-4.09"/><path class="cls-2" d="M365.35,151c2.81,0,5.37,2.62,5.37,6.74s-2.56,6.72-5.37,6.72-5.37-2.63-5.37-6.72,2.57-6.74,5.37-6.74m0,13.05c2.08,0,3.06-1.45,3.06-6.31s-1-6.35-3.06-6.35-3.05,1.47-3.05,6.35S363.29,164,365.35,164Z"/><path class="cls-2" d="M375.93,164.07v-.4h1.14V151.6h-1.14v-.41h5.43c3.13,0,4.22,1.5,4.22,3.11,0,1.81-1.39,3.06-4.1,3.22l4.44,6.14h.91v.41h-3l-4.73-6.55h-.07v6.14h1.41v.41m-1.41-6.83h1.11c2.21,0,3.29-1.11,3.29-2.94a2.49,2.49,0,0,0-2.7-2.7h-1.7Z"/><path class="cls-2" d="M393.2,163.67h1.42V151.6h-1.25c-.83,0-1,.19-1.76,3.69h-.43v-4.1h8.87v4.1h-.41c-.77-3.5-1-3.69-1.81-3.69h-1.21v12.07H398v.4H393.2"/><path class="cls-2" d="M406.35,159.24c.77,3.45,1.49,4.72,3.29,4.72a2.82,2.82,0,0,0,3-2.71c0-3.69-6.92-2.25-6.92-6.68,0-2.19,1.69-3.67,4.24-3.67a8.6,8.6,0,0,1,3.49.73v3.73h-.41l-.66-2.15a2.41,2.41,0,0,0-2.59-1.9,2.6,2.6,0,0,0-2.81,2.46c0,1.4,1,1.76,3.49,2.72,2.77,1,3.71,1.74,3.71,3.8,0,2.33-1.93,4.08-4.82,4.08a7.24,7.24,0,0,1-3.46-1v-4.09"/><path class="cls-2" d="M329.8,164.07v-.4h1.1V151.6h-1.1v-.4h9.44v4.13h-.38c-1-3.48-1.32-3.73-2.26-3.73h-3.68v5.59h1.46c.93,0,1.37-.57,1.75-2.56h.4v5.54h-.4c-.38-2-.82-2.57-1.75-2.57h-1.46v6.07h3.28c1.31,0,1.72-.51,2.8-4.36h.42v4.76"/><rect class="cls-2" x="141.94" y="134.96" width="311.39" height="1.14"/></svg>