<svg id="Layer_1" data-name="Layer 1" xmlns="http://www.w3.org/2000/svg" viewBox="0 0 595.28 175.75"><defs><style>.cls-1{fill:#1d1d1b;fill-rule:evenodd;}</style></defs><polygon class="cls-1" points="208.99 165.51 208.99 164.82 207.86 164.82 207.86 153.59 208.99 153.59 208.99 152.91 203.79 152.91 203.79 153.63 204.93 153.63 204.93 158.6 200.1 158.6 200.1 153.59 201.24 153.59 201.24 152.91 196.05 152.91 196.05 153.59 197.17 153.59 197.17 164.82 196.05 164.82 196.05 165.51 201.21 165.51 201.21 164.82 200.1 164.82 200.1 159.31 204.93 159.31 204.93 164.82 203.79 164.82 203.79 165.51 208.99 165.51 208.99 165.51 208.99 165.51"/><path class="cls-1" d="M224,159.31c.15-3.89-2.15-6.72-6.19-6.72-2.86,0-6.17,1.54-6.35,6.65a6.28,6.28,0,0,0,6.35,6.59c4.8,0,6.09-4.23,6.19-6.52Zm-3.09,0c0,3.52-.85,5.85-3.1,5.85s-3.2-3-3.2-5.85.62-6.4,3.2-6.4,3.1,3.62,3.1,6.4Z"/><path class="cls-1" d="M237.57,157.7v-4.79H226.43v4.79h.33c0-3.76,2.47-4.11,3.32-4.11h.29v11.23h-1.14v.69h5.19v-.69H233.3V153.59h.34c.7,0,3.6.35,3.6,4.11Z"/><path class="cls-1" d="M251.46,165.51v-4.44h-.4a3.64,3.64,0,0,1-3.39,3.75h-3.62v-5.46h1.49c1.29.07,2.13.57,2.13,2.71h.39v-5.86h-.39a2.43,2.43,0,0,1-2.13,2.56h-1.49v-5.18h2.78c2.95,0,3.53.74,4,3.89h.32v-4.57H240v.68h1.12v11.23H240v.69Z"/><path class="cls-1" d="M264,165.51v-5h-.37c-.35,1.93-1,4.32-4.26,4.32h-1.42V153.59h1.14v-.68h-5.2v.68H255v11.23h-1.13v.69Z"/><path class="cls-1" d="M277.21,161.47c0-2.52-1.77-4.21-4.54-4.31-2.61-.1-4.61-.1-4.61-2s1.75-2,3.1-2a5,5,0,0,1,4.75,3.87h.48v-4.12h-.48c0,.38,0,.92-.47.92s-1.8-1.24-4.44-1.24a4.08,4.08,0,1,0-.12,8.13c2.45,0,4.66.16,4.66,2.14,0,1.79-1.93,2.26-3.69,2.3-3.05,0-4.41-2-5-4.19h-.47v4.54h.47s.1-.92.66-.92c1,0,1.45,1.24,4.39,1.24,3.47,0,5.29-2,5.29-4.36Z"/><path class="cls-1" d="M296.39,162.11h-.45c0,.6,0,1.64-.84,1.64s-1.67-1.26-1.67-1.26a7.79,7.79,0,0,0,.85-3.89,6.38,6.38,0,0,0-.13-1.07l-.69.13c.08,1.8.18,3.22-.54,4.41l-4-4.09c.61-.38,2.22-1.17,2.22-2.83a2.5,2.5,0,0,0-2.8-2.56,3.53,3.53,0,0,0-3.72,3.28c0,1.22.5,1.83,1.44,3-.69.32-3,1.46-3,3.72,0,1.33,1,3.22,4.19,3.22s4.23-1,4.41-1.14a2.61,2.61,0,0,0,2,.75c2.43,0,2.71-1.66,2.78-2.23a6.34,6.34,0,0,0,0-1.1Zm-6.55-7a2.63,2.63,0,0,1-1.43,2.36s-1.72-1.52-1.72-2.85A1.62,1.62,0,0,1,288.3,153c1,0,1.54,1.07,1.54,2.11Zm1.32,9.1a5,5,0,0,1-2.43.79,3.19,3.19,0,0,1-3-3.37,2.81,2.81,0,0,1,.89-2.15l4.54,4.73Z"/><path class="cls-1" d="M315.38,162.51H315c0,.82-.25,2.11-.89,2.11s-.62-.79-.75-2.55a2.73,2.73,0,0,0-2.51-2.86,3,3,0,0,0,2.86-3.05c0-1.8-.75-3.25-3.94-3.25h-7.52v.68h1.12v11.23h-1.12v.69h5.19v-.69h-1.14v-5.33h2c1.95,0,1.95.86,1.95,3.22s1.36,3.12,2.65,3.12c2,0,2.56-1.29,2.56-3.32Zm-4.64-6.17a2.2,2.2,0,0,1-2.52,2.47h-2v-5.22h2.15c1.71,0,2.33,1.24,2.33,2.75Z"/><path class="cls-1" d="M329.28,165.51v-4.44h-.41a3.63,3.63,0,0,1-3.38,3.75h-3.62v-5.46h1.49c1.29.07,2.13.57,2.13,2.71h.38v-5.86h-.38a2.43,2.43,0,0,1-2.13,2.56h-1.49v-5.18h2.78c3,0,3.52.74,4,3.89H329v-4.57H317.81v.68h1.12v11.23h-1.12v.69Z"/><path class="cls-1" d="M342.51,161.47c0-2.52-1.78-4.21-4.54-4.31s-4.61-.1-4.61-2,1.74-2,3.1-2A5,5,0,0,1,341.2,157h.49v-4.12h-.49c0,.38,0,.92-.47.92-.62,0-1.79-1.24-4.44-1.24a4.08,4.08,0,1,0-.12,8.13c2.45,0,4.66.16,4.66,2.14,0,1.79-1.93,2.26-3.68,2.3-3.06,0-4.41-2-5-4.19h-.47v4.54h.47s.1-.92.65-.92c1,0,1.46,1.24,4.39,1.24,3.47,0,5.3-2,5.3-4.36Z"/><path class="cls-1" d="M357.45,159.31c.15-3.89-2.14-6.72-6.18-6.72-2.87,0-6.17,1.54-6.35,6.65a6.28,6.28,0,0,0,6.35,6.59c4.79,0,6.08-4.23,6.18-6.52Zm-3.08,0c0,3.52-.85,5.85-3.1,5.85s-3.2-3-3.2-5.85.62-6.4,3.2-6.4,3.1,3.62,3.1,6.4Z"/><path class="cls-1" d="M373.06,162.51h-.42c0,.82-.25,2.11-.89,2.11-.79,0-.62-.79-.75-2.55a2.74,2.74,0,0,0-2.52-2.86,3,3,0,0,0,2.87-3.05c0-1.8-.76-3.25-3.94-3.25h-7.53v.68H361v11.23h-1.13v.69h5.2v-.69h-1.14v-5.33h2c2,0,2,.86,2,3.22s1.35,3.12,2.64,3.12c2,0,2.57-1.29,2.57-3.32Zm-4.64-6.17a2.2,2.2,0,0,1-2.52,2.47h-2v-5.22h2.14c1.71,0,2.34,1.24,2.34,2.75Z"/><path class="cls-1" d="M386.63,157.7v-4.79H375.49v4.79h.33c0-3.76,2.47-4.11,3.32-4.11h.29v11.23h-1.14v.69h5.19v-.69h-1.12V153.59h.34c.7,0,3.6.35,3.6,4.11Z"/><path class="cls-1" d="M399.87,161.47c0-2.52-1.78-4.21-4.55-4.31-2.61-.1-4.61-.1-4.61-2s1.75-2,3.11-2a5,5,0,0,1,4.74,3.87h.49v-4.12h-.49c0,.38,0,.92-.47.92s-1.79-1.24-4.44-1.24a4.08,4.08,0,1,0-.12,8.13c2.45,0,4.66.16,4.66,2.14,0,1.79-1.93,2.26-3.69,2.3-3.05,0-4.41-2-5-4.19h-.46v4.54h.46s.11-.92.66-.92c1,0,1.46,1.24,4.39,1.24,3.47,0,5.3-2,5.3-4.36Z"/><path class="cls-1" d="M289.17,90c-2.44,0-4.41,1-5.72,1.31a7,7,0,0,1-4.54,0c-.33-.13-1.38-.2-.13,1.18a5.74,5.74,0,0,0,1.78,1.18c4.2,2,7.95,1.19,12.48-.85,1.12-.52,3-.46,3-1s-1-1-1.64-1.91c-2.5-3.55-5.59-6.5-9.34-7.88-2-.79-2.89-.2-2.3.33,1.45,1.38,2.17,3.94,4.08,6.11A5.37,5.37,0,0,0,289.17,90Z"/><path class="cls-1" d="M295.6,88.08c0-1.38,2.11-3.48,2.5-4.73.46,1.25,2.5,3.35,2.5,4.73a2.5,2.5,0,0,1-5,0Z"/><path class="cls-1" d="M295.6,94.91c0,1.38,2.11,3.55,2.5,4.8.46-1.25,2.5-3.42,2.5-4.8a2.5,2.5,0,0,0-5,0Z"/><path class="cls-1" d="M276.74,84.79a20.31,20.31,0,0,0-5.71-.72c-.73-.13-2.76-.2-4.08-1.44-.26-.27-1.18-.73-.52,1.05a5.91,5.91,0,0,0,1.18,1.57c3.22,3.29,6.9,3.75,11.63,3.36,1.25-.07,3.29.39,3.42-.2s-.86-1-1.18-2c-1.12-4.07-2.9-7.82-5.85-10.32-1.51-1.31-2.63-1-2.24-.39.86,1.71.66,4.27,1.71,6.9a6,6,0,0,0,1.64,2.23Z"/><path class="cls-1" d="M266.56,75.53a16.65,16.65,0,0,0-5-2.24,6.67,6.67,0,0,1-3.36-2.49c-.19-.33-.92-1-.85.79a9.72,9.72,0,0,0,.72,1.9c2,3.81,5.26,5.32,9.73,6.24,1.12.33,2.89,1.25,3.15.79s-.52-1.18-.46-2.23c.07-4-.52-8-2.56-11-.92-1.71-2-1.77-1.84-1,.26,1.78-.59,4.08-.39,6.77a5.56,5.56,0,0,0,.85,2.5Z"/><path class="cls-1" d="M260.38,64.36a17.94,17.94,0,0,0-3.87-3.55,5.66,5.66,0,0,1-2.3-3.29c-.14-.33-.6-1.11-1.06.53a11.06,11.06,0,0,0,.14,1.9c.65,4.14,3.22,6.44,7,8.61,1,.66,2.3,2,2.7,1.71s-.14-1.25.19-2.17c1.32-3.68,1.91-7.49,1-10.91-.4-1.83-1.38-2.16-1.38-1.44-.33,1.71-1.78,3.55-2.37,6.11a5.55,5.55,0,0,0,0,2.5Z"/><path class="cls-1" d="M258.28,51.67c-.46-1.9-1.71-3.35-2.23-4.4a5.88,5.88,0,0,1-.86-3.68c0-.26-.13-1.18-1.05.13a8.4,8.4,0,0,0-.59,1.71c-.79,3.81.72,6.71,3.22,9.93.66.85,1.31,2.56,1.71,2.36s.39-1.12,1-1.77c2.3-2.83,4.14-6,4.41-9.27.26-1.71-.46-2.43-.66-1.77-.86,1.44-2.83,2.56-4.08,4.6a3.68,3.68,0,0,0-.85,2.16Z"/><path class="cls-1" d="M259.92,39.78a16.83,16.83,0,0,0-1-4.6,5.53,5.53,0,0,1,.13-3.55c.06-.33.13-1.18-1.05-.19a17,17,0,0,0-.92,1.44c-1.65,3.29-1,6.37.52,9.92.4.92.59,2.63,1,2.57s.66-.92,1.31-1.45c2.83-2,5.26-4.4,6.38-7.36.65-1.51.13-2.37-.2-1.84C265,35.84,263,36.36,261.24,38a3.25,3.25,0,0,0-1.32,1.77Z"/><path class="cls-1" d="M264.65,29.2a15.93,15.93,0,0,0,.4-4.73,5.29,5.29,0,0,1,1.05-3.42c.2-.19.46-1-.85-.39a4.24,4.24,0,0,0-1.32,1.12c-2.56,2.69-2.76,5.84-2.3,9.66.13,1.05-.13,2.69.26,2.75s.86-.72,1.71-1c3.22-1.11,6.25-2.76,8.09-5.25,1.05-1.32.85-2.24.32-1.84-1.38.72-3.48.72-5.58,1.77a3.7,3.7,0,0,0-1.78,1.38Z"/><path class="cls-1" d="M272,20.79A12.69,12.69,0,0,0,273.72,17a4.85,4.85,0,0,1,2-2.37c.27-.19.73-.79-.59-.65a4.7,4.7,0,0,0-1.44.46c-2.89,1.44-4.08,3.94-4.93,7.22-.2.86-.92,2.17-.59,2.37s.92-.33,1.64-.33c3.09.07,6.11-.33,8.35-1.84,1.24-.72,1.38-1.51.85-1.38-1.38.2-3.09-.46-5.13-.33a3.36,3.36,0,0,0-1.9.66Z"/><path class="cls-1" d="M280.23,15.2a12.3,12.3,0,0,0,2.23-2.89,4.17,4.17,0,0,1,2.11-1.71c.26-.06.72-.52-.4-.65a3.37,3.37,0,0,0-1.31.13c-2.76.66-4.28,2.63-5.59,5.39-.33.65-1.25,1.71-.92,1.9s.85-.19,1.51,0a12.1,12.1,0,0,0,7.49-.06c1.19-.4,1.45-1,1-1-1.25-.13-2.56-1-4.4-1.25a3.08,3.08,0,0,0-1.71.13Z"/><path class="cls-1" d="M293.11,10.8c-.86,1.84-3,2.43-3.68,2.63A5.31,5.31,0,0,1,285,13.1c.86-1.84,3-2.43,3.62-2.63s2.76-.79,4.47.33Z"/><path class="cls-1" d="M311.64,29.53a2.45,2.45,0,0,0,3.22-1.31,2.81,2.81,0,0,0,.39-1.38h1.91V42.28h-1.38c-2.37-6.44-8.28-12.68-15.18-14.2-6.84-1-14.79-.92-18.73,5.06a4.79,4.79,0,0,0,1.58,6.18c7,4.27,14.72,2.3,24.05,3.61,4.73.66,9.92,3.36,12,8.61,2,5.06,1.65,10.25-.39,13.67-4.8,8.22-13.73,9-19.45,9-6,0-12-2.76-16.69-4.46a2.44,2.44,0,0,0-3.22,1.31,3,3,0,0,0-.4,1.38h-1.9V56.14c.52,0,1.11,0,1.9.07A20.7,20.7,0,0,0,293,70.93c6.84,2,13.67,1.71,19-2,2.11-1.44,2.89-4.6,2.11-7.36-1.19-4.14-7.56-5.25-12.16-5.32-9.86-.26-21.82-.13-25.37-11-1.38-5.2-.52-10.91,3.22-14.79,6.18-6,16.56-6.24,24.45-3.81,2.82.59,4.73,2.1,7.36,2.89Z"/><path class="cls-1" d="M307,90c2.43,0,4.4,1,5.78,1.31a6.74,6.74,0,0,0,4.47,0c.33-.13,1.38-.2.13,1.18a5.67,5.67,0,0,1-1.77,1.18c-4.21,2-7.95,1.19-12.42-.85-1.19-.52-3-.46-3-1s.92-1,1.58-1.91c2.49-3.55,5.58-6.5,9.33-7.88,2-.79,2.89-.2,2.3.33-1.45,1.38-2.1,3.94-4.08,6.11A5.39,5.39,0,0,1,307,90Z"/><path class="cls-1" d="M319.46,84.79a20.31,20.31,0,0,1,5.71-.72c.73-.13,2.83-.2,4.08-1.44.26-.27,1.18-.73.53,1.05a6.24,6.24,0,0,1-1.19,1.57c-3.22,3.29-6.9,3.75-11.63,3.36-1.25-.07-3.22.39-3.42-.2s.86-1,1.19-2c1.11-4.07,2.89-7.82,5.85-10.32,1.51-1.31,2.62-1,2.23-.39-.85,1.71-.66,4.27-1.71,6.9a6,6,0,0,1-1.64,2.23Z"/><path class="cls-1" d="M329.64,75.53a16.68,16.68,0,0,1,5-2.24c.72-.32,2.56-1,3.35-2.49.2-.33.92-1,.85.79a8.55,8.55,0,0,1-.72,1.9c-2,3.81-5.26,5.32-9.72,6.24-1.12.33-2.9,1.25-3.16.79s.53-1.18.46-2.23c-.06-4,.53-8,2.56-11,1-1.71,2-1.77,1.84-1-.26,1.78.59,4.08.4,6.77a5.7,5.7,0,0,1-.86,2.5Z"/><path class="cls-1" d="M335.82,64.36a16.76,16.76,0,0,1,3.94-3.55,6.3,6.3,0,0,0,2.3-3.29c.07-.33.53-1.11,1,.53A9.49,9.49,0,0,1,343,60c-.65,4.14-3.28,6.44-7,8.61-1,.66-2.3,2-2.63,1.71s.07-1.25-.26-2.17c-1.25-3.68-1.91-7.49-1-10.91.46-1.83,1.39-2.16,1.39-1.44.32,1.71,1.83,3.55,2.36,6.11a4.1,4.1,0,0,1,0,2.5Z"/><path class="cls-1" d="M337.92,51.67a20.87,20.87,0,0,1,2.24-4.4,6,6,0,0,0,.85-3.68c0-.26.2-1.18,1.12.13a8.47,8.47,0,0,1,.52,1.71c.79,3.81-.72,6.71-3.15,9.93-.72.85-1.38,2.56-1.77,2.36s-.33-1.12-.92-1.77c-2.37-2.83-4.14-6-4.47-9.27-.27-1.71.46-2.43.65-1.77.86,1.44,2.83,2.56,4.08,4.6a3.33,3.33,0,0,1,.85,2.16Z"/><path class="cls-1" d="M336.35,39.78a14.48,14.48,0,0,1,.92-4.6,5.45,5.45,0,0,0-.07-3.55c-.13-.33-.2-1.18,1-.19a9.69,9.69,0,0,1,.92,1.44c1.7,3.29,1,6.37-.46,9.92-.4.92-.66,2.63-1.06,2.57s-.59-.92-1.31-1.45c-2.76-2-5.26-4.4-6.37-7.36-.59-1.51-.13-2.37.26-1.84,1.05,1.12,3.15,1.64,4.86,3.29a3.56,3.56,0,0,1,1.32,1.77Z"/><path class="cls-1" d="M331.55,29.2a13.82,13.82,0,0,1-.33-4.73,5.91,5.91,0,0,0-1.12-3.42c-.13-.19-.46-1,.92-.39a4.91,4.91,0,0,1,1.25,1.12c2.56,2.69,2.76,5.84,2.3,9.66-.13,1.05.13,2.69-.26,2.75s-.85-.72-1.64-1c-3.29-1.11-6.31-2.76-8.15-5.25-1-1.32-.79-2.24-.33-1.84,1.38.72,3.48.72,5.59,1.77a3.73,3.73,0,0,1,1.77,1.38Z"/><path class="cls-1" d="M324.39,20.72a13.91,13.91,0,0,1-1.71-3.81,5.21,5.21,0,0,0-2-2.36c-.27-.2-.73-.79.59-.66a5.64,5.64,0,0,1,1.44.46c2.9,1.45,4.08,3.94,4.87,7.23.19.92,1,2.17.65,2.36s-.92-.32-1.7-.32a14.31,14.31,0,0,1-8.29-1.78c-1.31-.79-1.37-1.58-.91-1.44,1.44.19,3.15-.46,5.19-.33a3.17,3.17,0,0,1,1.84.65Z"/><path class="cls-1" d="M316,15.2a11.36,11.36,0,0,1-2.23-2.95,4.55,4.55,0,0,0-2.11-1.71c-.26-.07-.72-.46.4-.59a3.28,3.28,0,0,1,1.31.13c2.76.66,4.27,2.63,5.59,5.32.33.72,1.25,1.71.92,1.91s-.86-.13-1.51.06a12.43,12.43,0,0,1-7.43-.06c-1.25-.4-1.51-1.12-1.05-1,1.25-.14,2.56-1,4.4-1.25a3.09,3.09,0,0,1,1.71.19Z"/><path class="cls-1" d="M303.1,10.8c.85,1.84,3,2.43,3.68,2.63a5.29,5.29,0,0,0,4.4-.33c-.86-1.84-3-2.43-3.62-2.63s-2.76-.79-4.46.33Z"/><path class="cls-1" d="M209,130.11c0-7.46-5.27-12.47-13.46-12.77-7.75-.3-13.67-.3-13.67-5.81,0-5.12,5.17-6.06,9.19-6.06,10.54,0,13.62,9.73,14.06,11.47h1.44V104.72h-1.44c-.05,1.15,0,2.74-1.39,2.74-1.84,0-5.31-3.68-13.16-3.68-7.65,0-13.17,5.16-13.17,12.27,0,6.31,5.22,11.72,12.82,11.82,7.25.1,13.81.5,13.81,6.36,0,5.32-5.71,6.71-10.93,6.81-9,.09-13.06-6-14.75-12.42h-1.39v13.46h1.39s.3-2.73,1.93-2.73c3,0,4.33,3.67,13,3.67,10.28,0,15.7-6,15.7-12.91Z"/><path class="cls-1" d="M245.13,142.08v-1.79H242V124.15c0-4.77-3.82-9.34-10.43-9.34-5.31,0-7.65,2.23-9.64,4.12V104.72H210.11v1.79h3v33.78h-3.28v1.79H225v-1.79h-3.08V125c0-3.72,2.09-7.65,6.36-7.65,2.78,0,4.57,2.68,4.57,5.12v17.83h-3.28v1.79Z"/><path class="cls-1" d="M273,128.62v-1.94c0-6.06-4.32-12.32-13.46-12.32-8.3,0-14.46,5-14.46,14.56s6.81,14.1,15,14.1c5.27,0,11.87-2.33,12.72-10.48h-1.19c0,2.09-2.64,8.15-9.09,8.15-7.75,0-8.75-5.81-8.75-12.07Zm-8.15-1.74H253.79s-.3-10.93,5.67-10.93c6.45,0,5.41,10.93,5.41,10.93Z"/><path class="cls-1" d="M299.87,120.77c0-2.78-1.79-6.06-5.41-6.06-4.53,0-7.31,3.47-8,4.47V115.3H274.73V117h2.64v23.25h-3.28v1.79h15.2v-1.79h-3.18V128.62c0-6,3.38-12.22,8.15-12.22a2.19,2.19,0,0,1,1.93.94c-1.73-.54-4.57,1.19-4.57,4.12a4.24,4.24,0,0,0,4.23,4c2.23,0,4-2.34,4-4.67Z"/><path class="cls-1" d="M333.1,135.52v-2h-1.39c0,1.39,0,6.35-2.14,6.35a1.94,1.94,0,0,1-2.08-2.13V129c0-5,1.24-14.65-12.77-14.65-8.24,0-12.42,3.28-12.42,7.1a4,4,0,0,0,4.18,4.18,4.37,4.37,0,0,0,3.92-4.13,4.7,4.7,0,0,0-2.68-4.07,9.08,9.08,0,0,1,4.37-1.14c3.38,0,6.46,2,6.46,5.41,0,9.14-17.84,1.89-17.84,13.76,0,3.13,1.79,7.55,8.75,7.55s8.14-2.73,9.44-4.67c1.58,2.69,2.83,4.57,6.55,4.57,5.62,0,7.65-2.63,7.65-7.4ZM318.25,135c0,3-3.28,5.51-4.77,5.51-2.43,0-4-2.63-4-5.22,0-6.16,5.26-5.71,8.79-8.69V135Z"/><path class="cls-1" d="M351.7,135.27v-1.59h-1.34c0,1.94,0,6.07-3.23,6.07-1.44,0-3-1.05-3-3.53V117h5V115.3h-5V106h-1.29c-.84,4.33-3.73,9.29-9.79,9.29V117h3.28v19.18c0,3.53,2.78,6.8,7.65,6.8,6.41,0,7.75-5.21,7.75-7.75Z"/><path class="cls-1" d="M382.7,128.92c0-7.46-4-14.56-15.25-14.56-9.54,0-14.46,6.36-14.46,14.56,0,9.14,5.86,14.1,14.95,14.1,7.8,0,14.76-4.42,14.76-14.1Zm-8.45-.45c0,5.21-1,12.66-6.6,12.66-5.92,0-6.46-9.24-6.46-12,0-4.52.94-13.06,6.9-13.06,5.07,0,6.16,6.8,6.16,12.42Z"/><path class="cls-1" d="M418.35,142.08v-1.79h-3V124.05c0-5-3.53-9.54-10.53-9.54A11.55,11.55,0,0,0,395.1,119V115.3H383.33V117h3v23.25h-3.28v1.79h15.2v-1.79H395.1V125.54c0-3.73,2.23-8.1,6.26-8.1,2.23,0,4.77,1.39,4.77,4.47v18.38h-3.28v1.79Z"/></svg>