<svg id="Layer_1" data-name="Layer 1" xmlns="http://www.w3.org/2000/svg" viewBox="0 0 595.28 175.75"><defs><style>.cls-1{fill:#383d95;}.cls-2{fill:#f89b3e;}</style></defs><path class="cls-1" d="M427.29,67.36c1.55.18,3,.42,4.53.51a13.89,13.89,0,0,0,4.12-.63v7.7c0,5.15,0,10.31,0,15.46,0,.71-.11,1.12-.91,1.36-8.53,2.48-17.12,4.54-26.11,3.42s-16.63-4.41-21.55-12.41c-6-9.77-5.47-25.22,1.18-34.29,4.57-6.24,11-9.47,18.44-10.69,9.8-1.6,19.38-.77,28.48,3.61,1.08.52,1.18.94.66,1.92A21.17,21.17,0,0,0,434.55,48c-.12.45.25,1.23-.52,1.33a2.42,2.42,0,0,1-2.39-.59,22.35,22.35,0,0,0-12-6.73C406.05,39,394.2,47.79,393,61.64c-.52,5.89-.26,11.64,2.31,17.09,3.23,6.83,8.82,10.42,16.13,11.45A32.83,32.83,0,0,0,425.85,89a2.07,2.07,0,0,0,1.73-2.19c.31-6.32,0-12.62-.29-18.93C427.28,67.73,427.29,67.54,427.29,67.36Z"/><path class="cls-1" d="M53.63,89.84c0,2.78-.06,5.13,0,7.49.17,5.82.06,11.66.66,17.47.09.84-.28.87-.91.72a14.87,14.87,0,0,0-7.08,0c-.83.2-1-.06-.91-.87.79-13.2.64-26.43.59-39.64,0-6.46-.13-12.92-.6-19.37-.06-1,.16-1.09,1-.88a14.54,14.54,0,0,0,6.94,0c1-.25,1,.18.93,1-.2,1.41-.35,2.84-.57,4.7a14.7,14.7,0,0,1,9.24-6.05c8.25-1.57,15.55,2.19,18.57,10,3.09,8,2.85,16-1.92,23.43C74.21,96.18,60.74,98.18,53.63,89.84Zm0-14.34c0,.77,0,2,.19,3.19.41,3.47,1.18,6.84,3.85,9.35,5,4.66,12.66,2.76,15.33-4a26.22,26.22,0,0,0,.41-18.37c-1.31-3.93-4-6.41-8.28-6.65-4.49-.26-7.75,1.84-9.68,6.05C54,68.28,53.65,71.64,53.61,75.5Z"/><path class="cls-1" d="M194.73,89a16,16,0,0,1-9.36,5.9,15.45,15.45,0,0,1-15.49-5.27c-6.41-7.41-6.57-23.57,1.56-31,5-4.55,10.8-5.68,17.22-3.7a11.75,11.75,0,0,1,5.75,4.29c.41-.4.22-.86.22-1.26,0-8.07,0-16.14-.33-24.2-.06-1.11.2-1.52,1.33-1.2a11.32,11.32,0,0,0,6.19,0c1.07-.29,1.45,0,1.36,1.27-.46,6.79-.67,13.59-.74,20.39-.08,7.58-.19,15.16-.18,22.74,0,5.44.14,10.88.3,16.32,0,1.23-.35,1.56-1.46,1.23a8.87,8.87,0,0,0-5.3,0c-.82.25-1.13,0-1.08-.91C194.78,92.21,194.73,90.81,194.73,89Zm.3-15c-.07-3.56-.37-6.83-2-9.83a9.18,9.18,0,0,0-8.25-5.08,8.25,8.25,0,0,0-8.34,4.77A24.28,24.28,0,0,0,176,85.45c2.83,6.15,10.84,6.82,15.1,1.55C194.23,83.12,194.88,78.49,195,74Z"/><path class="cls-1" d="M508.4,60.45c2.48-2.72,5.06-4.82,8.35-5.81a15.79,15.79,0,0,1,19.94,10.55c2.49,7.85,1.9,15.5-2.9,22.41-5.72,8.21-17.73,10.79-25.76,2.85-.5-.5-.79-.51-1.28,0-1.11,1-2.25,2-3.38,3a1.84,1.84,0,0,1-1.08.64c-2.17.23-2.21.15-2.14-2.11.2-7,.43-14,.48-21,.08-11.9.09-23.81-.46-35.7-.13-2.82-.11-2.86,2.7-2.38a12.38,12.38,0,0,0,4.78-.26c1.37-.31,1.72,0,1.61,1.42-.64,8.24-.7,16.49-.86,24.75C508.39,59.23,508.4,59.7,508.4,60.45Zm-.33,15.3a26.07,26.07,0,0,0,.32,5.22,18.37,18.37,0,0,0,1.21,4.18A9.32,9.32,0,0,0,517.78,91c3.84.32,6.55-1.58,8.4-4.71C529.36,81,529.87,75.09,529,69a13.93,13.93,0,0,0-1.21-3.87c-1.73-3.63-4.31-6.15-8.6-6.09s-7.51,2.29-9.3,6.3A23.51,23.51,0,0,0,508.07,75.75Z"/><path class="cls-1" d="M296.13,102.69c-6.36-3.36-9.51-8.94-10.64-15.77-1.51-9.19.81-17.77,4.6-26C295,50.2,302,41,310.12,32.62A86.6,86.6,0,0,1,341.5,11.75c1-.37,1-.71.53-1.51-1.31-2.42-1.27-2.38,1.53-2.62a31.27,31.27,0,0,1,18.28,3.51,14.4,14.4,0,0,1,3.06,2.2c.22.22.71.35.49.76-.1.17-.5.2-.78.25a27.83,27.83,0,0,0-12.47,5.17c-.88.68-1.6,2.17-2.65,1.87-.86-.25-1.46-1.6-2.06-2.53a1.65,1.65,0,0,0-2.26-.76,63.46,63.46,0,0,0-24.9,15.12,115.19,115.19,0,0,0-23.51,31.1,53.13,53.13,0,0,0-5.94,18.83c-.65,6.63.51,12.85,4.73,18.25.27.34.5.71.75,1.06Z"/><path class="cls-1" d="M20.41,95.47c-4.42.3-8.62-1.53-12.52-4.3-.75-.53-1-1-.63-1.9a21.41,21.41,0,0,0,1.22-5.82c0-.49-.16-1.23.65-1.23s1.61-.38,2.14.69a13.69,13.69,0,0,0,4.14,5A12,12,0,0,0,26,90.06a9.82,9.82,0,0,0,7.35-8.81c.49-4.38-1.16-7.53-5.43-9.67-3.42-1.72-7-3.1-10.48-4.71-4-1.86-7.19-4.61-8.39-9-2.61-9.45,1.83-18.39,13-20.43,5.77-1.06,11.33-.33,16.32,3.1.8.56,1,1,.5,1.85A19.5,19.5,0,0,0,37,48.06c-.09.46,0,1.15-.88,1s-1.53.34-1.92-.76a10.57,10.57,0,0,0-3.29-4.9,9.28,9.28,0,0,0-12.8,1.51,9.16,9.16,0,0,0,1.46,12.54,29.3,29.3,0,0,0,7.47,3.87c1.62.67,3.23,1.33,4.83,2,9.09,3.89,11.26,11.36,8.27,20-2.47,7.21-9.61,11.93-17.64,12.08C22,95.48,21.44,95.47,20.41,95.47Z"/><path class="cls-1" d="M454.27,73.7c0-5.92,2-11.82,7.71-16,8.31-6.11,26.3-5.64,31.29,8.64a24.58,24.58,0,0,1,0,16.58c-2.6,7.43-9.36,12.08-17.46,12.29-4.67.12-9.14-.56-13.1-3.17C456.47,87.9,454.26,81.78,454.27,73.7Zm31.65,1a26.27,26.27,0,0,0-1.41-9.23c-1.82-4.82-5.29-7.33-10.12-7.33a10.12,10.12,0,0,0-10.06,7.38,28.06,28.06,0,0,0,0,18.17,10.12,10.12,0,0,0,9.81,7.33c5,0,8.48-2.41,10.33-7.24A26,26,0,0,0,485.92,74.73Z"/><path class="cls-1" d="M108.37,74.52c-4.29-.21-8.56.23-12.84.23-.52,0-.9,0-.92.73-.23,7.72,4,15,13.36,14.66,4.24-.14,7.63-2.35,10.68-5.13.3-.27.47-1,1.1-.58a1.8,1.8,0,0,1,1,1.62A6.35,6.35,0,0,1,117,92.13c-5.79,3.12-11.72,4-18,2-8.86-2.88-14-11.26-13-21a25.58,25.58,0,0,1,3.12-10.81,16.21,16.21,0,0,1,12.08-8,21.88,21.88,0,0,1,10.8.76c7.18,2.55,11,9.35,10.29,17.85-.13,1.58-.59,1.92-2.11,1.88C116.24,74.7,112.3,74.75,108.37,74.52Zm-3.89-4.14c2.77,0,5.54-.07,8.3,0,1.17,0,1.42-.34,1.23-1.39s-.19-2-.36-3c-.73-4.26-3.22-7-6.86-7.7-3.88-.71-7.42,1.08-9.6,4.83A21.26,21.26,0,0,0,95,69.56c-.14.65,0,.84.71.83C98.66,70.36,101.57,70.38,104.48,70.38Z"/><path class="cls-1" d="M148.88,74.52c-4.23-.21-8.46.22-12.69.24-.48,0-.88-.09-1,.67-.82,6.55,3.65,13.17,9.85,14.45,5.66,1.16,10.13-1.22,14.17-4.84.31-.27.47-1,1.1-.63a1.85,1.85,0,0,1,1,1.73,6.33,6.33,0,0,1-3.83,6c-7.85,4.15-15.61,4.41-23-.65-6.36-4.35-8.46-10.86-7.89-18.34.35-4.68,1.51-9.1,4.49-12.86a16.73,16.73,0,0,1,12.39-6.23c4.8-.37,9.47.18,13.41,3.29,5,3.92,6.29,9.32,6,15.35-.07,1.59-.5,2.14-2.23,2.08C156.76,74.67,152.81,74.75,148.88,74.52Zm-3.79-4.14v.31c1.89-.09,3.79-.1,5.67-.29,1.3-.13,3.18.64,3.75-.43s0-2.74-.28-4.11c-1.32-7.2-8.5-10.15-13.91-5.73-3.07,2.5-4,6-4.7,9.71-.12.67.38.53.74.53Z"/><path class="cls-1" d="M563.58,90.24a15.91,15.91,0,0,1-12,5c-5.6-.12-10.22-3.64-11.2-8.79-1-5.43,1.63-10,7.09-12.26,3.37-1.38,7-1.5,10.51-2.31a23.25,23.25,0,0,0,3.91-1.12,2.29,2.29,0,0,0,1.49-2.27,13.42,13.42,0,0,0-.46-3.89c-1.32-4.82-5.93-6.81-11.26-4.87a9.6,9.6,0,0,0-5.14,3.89,1.86,1.86,0,0,1-2.27.77c-.93-.18-.32-1-.45-1.6-.73-3.16,1-4.78,3.59-6.15a20.36,20.36,0,0,1,12.38-2.45c7.8,1.06,11.77,6.43,11.37,14.42a181.2,181.2,0,0,0-.31,18.2c.17,3.37,1,3.8,4.07,2.73.23-.07.44-.25.64,0,.56.63-.16,3.47-1,3.77a15,15,0,0,1-3.78,1C567.48,94.59,564.87,93.66,563.58,90.24Zm-.5-10h.25c0-1.41-.05-2.81,0-4.22,0-.9-.15-1.22-1.12-1-1.21.32-2.47.5-3.71.74-2.57.51-5.17.94-7.38,2.51-3.72,2.64-3.75,8.53,0,10.94a6.84,6.84,0,0,0,7.46,0c2.37-1.36,4.92-2.77,4.52-6.24A25.39,25.39,0,0,1,563.08,80.23Z"/><path class="cls-1" d="M211.13,115.87a195.7,195.7,0,0,0,11-20.93,2.85,2.85,0,0,0,.07-2.44c-4.91-12.2-10.07-24.28-15.27-36.35-.19-.44-.36-.89-.6-1.51,1.05.12,2,.17,2.91.35a11.86,11.86,0,0,0,5.07-.19c1-.25,1.4,0,1.73,1C219,65,222.78,74,226.42,83c.12.3.29.59.59,1.18,1.34-3.17,2.61-6.09,3.81-9,2.57-6.34,4.79-12.8,6.92-19.29.29-.9.5-1.33,1.56-.95,2,.71,4,0,6.16-.56-2,4.46-4,8.74-6,13-6.83,15-13.74,30-19.58,45.4,0,.09-.09.18-.12.27-.9,2.48-.9,2.44-3.57,2.13C214.55,114.93,213,115.68,211.13,115.87Z"/><path class="cls-1" d="M347.62,38.89l-3.38,3.37A149.81,149.81,0,0,0,330.58,57.2c-.52.68-.81.73-1.39,0-2.49-3-2.63-3.1-5.45-.28-9.69,9.66-16.71,20.83-18.93,34.57-1.07,6.66.95,12.43,5.59,17.3l1.61,1.73a14.38,14.38,0,0,1-10.15-6c-3.16-4.41-3.66-9.49-2.75-14.6,2.81-15.65,10.77-28.46,22.35-39.14.92-.86,1-1.32.18-2.26-1.64-1.83-1.57-1.86.58-3.13a47.38,47.38,0,0,1,22-6.22c.54,0,1.07,0,1.6-.09Z"/><path class="cls-1" d="M442.37,70.59c0-12.29.12-24.59-.61-36.86-.07-1.2.23-1.38,1.33-1.1a12.71,12.71,0,0,0,6.22,0c1.12-.29,1.31,0,1.25,1-.82,12.86-.56,25.74-.59,38.61,0,7,.15,13.89.57,20.83.07,1.14,0,1.7-1.39,1.31a11.12,11.12,0,0,0-5.92,0c-1.53.43-1.54-.2-1.46-1.37C442.22,85.55,442.34,78.07,442.37,70.59Z"/><path class="cls-1" d="M580,63.52c0-9.81,0-19.62-.59-29.42-.07-1.21,0-1.89,1.53-1.45a11.9,11.9,0,0,0,6.07,0c1-.25,1.25,0,1.19,1-.86,13.64-.56,27.29-.59,41q0,9.18.56,18.34c.08,1.33,0,2-1.59,1.5a10.8,10.8,0,0,0-5.78,0c-1.47.4-1.45-.21-1.39-1.3C580,83.25,580,73.39,580,63.52Z"/><path class="cls-1" d="M299.1,22.32c-4.37,12.25-10.4,23.49-12.72,36.18l-4.11-2.89c-.39-.28-.71-.55-.91.2-2.58,10.16-3.62,20.3.35,30.38.33.83.77,1.62,1.05,2.47a26.1,26.1,0,0,1-6.93-12.76c-1.41-6.47-.91-12.92.15-19.36a42,42,0,0,1,1-5.11c.45-1.5-.66-2.17-1.3-3.1-.31-.45-.82-.74-.28-1.45C281.37,39,287.37,31.17,295,24.8A13,13,0,0,1,299.1,22.32Z"/><path class="cls-1" d="M334.66,83.91c4.26-1.87,8.18-4.12,12.57-5.24,1.76-.45,1.76-.45,1.35,1.22a76.86,76.86,0,0,0-2.09,10.2c-.1.84-.41.87-1.13.53-2.81-1.31-2.84-1.29-4.31,1.44a16.92,16.92,0,0,0-2.14,6c-.52,4.63,3.34,8,7.94,7a32,32,0,0,0,4.95-1.78,2,2,0,0,1-1,1.2A17.52,17.52,0,0,1,337.45,108c-2-.28-3.86-2.51-4.36-5.24-.84-4.62.61-8.79,2.4-12.9a3.41,3.41,0,0,1,.21-.38c.58-1.07,1.67-2.19,1.56-3.18S335.69,84.8,334.66,83.91Z"/><path class="cls-1" d="M363,100.13a44.52,44.52,0,0,1-21.71,12c-7.08,1.58-13.86.94-20.18-2.89-1.23-.75-2.49-.08-3.67.14-1.51.29-1.84,0-1.79-1.56a24.19,24.19,0,0,1,4.23-13.67c1.07,5.85,5.3,9,9.49,12.25-.66.66-1.52.5-2.29,1a23.5,23.5,0,0,0,10.55,2c8-.29,14.94-3.72,21.8-7.39Z"/><path class="cls-2" d="M491.13,145.41c3.82-2.64,6.68-2.39,9.24.71,1.66-2.33,4-2.9,6.65-2.36,2.25.46,3.52,2.07,3.57,4.69.06,3.59-.07,7.19-.09,10.78,0,.6-.2.81-.78.6a3,3,0,0,1-.43-.1c-.74-.33-1.76.71-2.21-.16-.31-.59.08-1.51.1-2.29.07-2.57.17-5.15.15-7.72,0-2.4-1-3.53-2.94-3.56a3.27,3.27,0,0,0-3.5,3.47c-.1,3.15-.08,6.32,0,9.47,0,1-.17,1.15-1,.85a.73.73,0,0,0-.43-.06c-2.4.73-2-.78-2-2.26.12-2.67.1-5.34.09-8,0-2.06-.85-3.2-2.44-3.43a3.21,3.21,0,0,0-3.73,2.71,35.22,35.22,0,0,0-.14,9.29c.09,1.34.22,1.75-1.59,1.85-2.22.13-1.84-.82-1.78-2.12a116.47,116.47,0,0,0-.06-12.81c-.06-.89.08-1.18,1-.86a1.82,1.82,0,0,0,1.15,0C491.22,143.67,491.33,144.3,491.13,145.41Z"/><path class="cls-2" d="M419.14,146.16a5.55,5.55,0,0,1,4.22-2.53c4-.33,6.1,1.54,6,5.58-.07,3.3-.2,6.6-.11,9.91,0,.59-.11,1-.79.69-.89-.46-2.11.68-2.61-.28-.36-.7.09-1.79.12-2.71.07-2.38.14-4.76.13-7.14s-1-3.67-3-3.68-3.42,1.28-3.48,3.64c-.08,3.11,0,6.22,0,9.33,0,.8,0,1.14-.9.85a.81.81,0,0,0-.42-.08c-2.55.73-2.11-.92-2.05-2.45.11-2.62.09-5.24.08-7.87,0-2-.87-3.19-2.47-3.4a3.2,3.2,0,0,0-3.71,2.73,35.1,35.1,0,0,0-.11,9.44c.11,1.29.07,1.55-1.5,1.66-2.27.17-2-.83-1.9-2.27a113.94,113.94,0,0,0,0-12.67c0-.72-.06-1.17.87-.86a2.22,2.22,0,0,0,1.14.07c1-.25,1.72-.25,1.07,1.51,1.7-1.44,3.22-2.18,5.08-2A5.61,5.61,0,0,1,419.14,146.16Z"/><path class="cls-2" d="M91.55,157.78c-2.6,2.6-5.28,3.26-8.15,1.75-3.17-1.65-3.84-4.71-3.77-8a8.34,8.34,0,0,1,2.44-6.06c2.58-2.51,6.06-2.55,9.21,0,0-3,.1-6,0-9-.07-1.29.39-1.49,1.44-1.38a7.17,7.17,0,0,0,1.31,0c.69-.06.93.17.88.9-.44,7.47-.35,14.95-.22,22.43,0,1,0,1.74-1.35,1.24a.48.48,0,0,0-.29,0C91.54,160.15,91.17,159.46,91.55,157.78Zm-8.39-5.48a10.8,10.8,0,0,0,.59,3.61,3.67,3.67,0,0,0,3.1,2.53,3.31,3.31,0,0,0,3.38-1.85,9.56,9.56,0,0,0,.39-9.2,3.58,3.58,0,0,0-6.39-.11A10,10,0,0,0,83.16,152.3Z"/><path class="cls-2" d="M255.69,158.43c0,2.92-.06,5.68,0,8.43,0,1-.08,1.33-1.17,1.3-2.4-.06-2.38,0-2.29-2.35.25-6.69.31-13.39-.06-20.09-.06-1.1-.22-2.22,1.52-1.58a1,1,0,0,0,.58,0c1.35-.47,1.72.08,1.25,1.64a7.26,7.26,0,0,1,4.25-2.16,6.58,6.58,0,0,1,7.25,5.17,12.22,12.22,0,0,1,.2,5.21C266.37,159.33,260.45,162.49,255.69,158.43Zm8.19-6.73a9.65,9.65,0,0,0-.53-3.57,3.64,3.64,0,0,0-3.41-2.71,3.69,3.69,0,0,0-3.69,2.55,11.34,11.34,0,0,0-.14,7.83,3.6,3.6,0,0,0,3.61,2.65c1.82,0,2.83-1.11,3.49-2.62A9.51,9.51,0,0,0,263.88,151.7Z"/><path class="cls-2" d="M435.09,158.32c0,3-.07,5.8,0,8.55,0,1-.13,1.32-1.19,1.29-2.38-.06-2.37,0-2.28-2.36.25-6.7.32-13.39-.06-20.09-.07-1.14-.17-2.19,1.53-1.57a1,1,0,0,0,.58,0c1.4-.5,1.67.14,1.22,1.75a6.7,6.7,0,0,1,5.45-2.29,6.12,6.12,0,0,1,2.91.85c3.19,2,3.7,5.16,3.45,8.55-.21,3-1.49,5.45-4.37,6.7A6.22,6.22,0,0,1,435.09,158.32Zm8.19-6.68a9,9,0,0,0-.6-3.68,3.68,3.68,0,0,0-6.92-.22,11,11,0,0,0-.12,8.36,3.65,3.65,0,0,0,6.73.22A9.51,9.51,0,0,0,443.28,151.64Z"/><path class="cls-2" d="M70.47,153.59v1c0,3.33,0,3.36,3.4,3.25,1.46-.05,2.91-.19,4.37-.33.46,0,1.15-.32.87.51-.2.64.86,2-.67,1.88a73,73,0,0,0-10.77,0c-.87.08-.74-.49-.73-1,.1-3.93.23-7.86.24-11.8,0-3-.11-5.92-.26-8.88,0-.85.19-1.12,1-1a61.91,61.91,0,0,0,10.19,0c1.86-.12.45,1.35.75,2,.39.85-.53.52-.9.48a56.57,56.57,0,0,0-6.24-.46c-.66,0-1.15.05-1.16.89,0,2-.07,4-.13,6,0,.81.45.79,1,.76,1.89-.11,3.79-.1,5.68-.28,1-.1,1.26.24,1,1.09-.15.6.73,1.77-1,1.56-1.88-.23-3.79-.13-5.68-.23-.93,0-1.19.35-1.16,1.19,0,1.12,0,2.24,0,3.36Z"/><path class="cls-2" d="M225,153.5v.87c0,3.7,0,3.7,3.76,3.49a16.64,16.64,0,0,0,3.33-.28c1.6-.42,1.69.32,1.63,1.56,0,.63-.16.88-.8.82a57.19,57.19,0,0,0-10.63,0c-.94.09-.85-.48-.81-1.1.31-5.34.32-10.68.2-16,0-1.55-.1-3.11-.22-4.65-.06-.77.14-1.06.94-1a70,70,0,0,0,10.34,0c1.76-.09.35,1.38.71,2.07s-.49.48-.83.43c-2.07-.27-4.15-.4-6.24-.47-.84,0-1.26.17-1.26,1.09,0,1.89-.06,3.79-.12,5.68,0,.72.28.9,1,.86,1.89-.12,3.79-.13,5.68-.28.83-.06,1.4,0,1.13,1-.17.62.77,1.87-1.05,1.64s-3.79-.14-5.68-.23c-.85,0-1.12.31-1.09,1.11,0,1.11,0,2.23,0,3.35Z"/><path class="cls-2" d="M396.25,153.61v.87c0,3.51,0,3.53,3.57,3.38,1.41-.06,2.82-.19,4.22-.34.49-.05,1.14-.27.86.54-.22.63.87,2-.69,1.86a68.58,68.58,0,0,0-10.63,0c-.89.09-.9-.39-.86-1.06.32-5.34.33-10.68.21-16,0-1.55-.1-3.11-.22-4.65,0-.72.05-1.11.9-1a63.75,63.75,0,0,0,10.34,0c1.84-.11.44,1.36.74,2,.36.85-.57.5-.92.45-2.08-.24-4.16-.41-6.25-.46-.81,0-1.14.25-1.15,1.06,0,1.9-.05,3.79-.13,5.68,0,.84.37.94,1.08.89,1.89-.12,3.8-.1,5.68-.29,1-.1,1.21.3,1,1.13-.14.61.68,1.75-1,1.53s-3.59-.12-5.39-.24c-1.05-.06-1.52.23-1.42,1.37s0,2.14,0,3.21Z"/><path class="cls-2" d="M469.59,152c0,5.17-3,8.29-8,8.29s-8.09-3.16-8.1-8.27,3.08-8.37,8.14-8.36S469.59,146.77,469.59,152Zm-3.52,0a8.84,8.84,0,0,0-.53-3.71,4.08,4.08,0,0,0-4-2.84,4,4,0,0,0-4,2.85,10.67,10.67,0,0,0,0,7.41,4.2,4.2,0,0,0,7.85.13A8.53,8.53,0,0,0,466.07,152Z"/><path class="cls-2" d="M174.48,152c0,5.17-3,8.29-8,8.28s-8.08-3.17-8.09-8.28,3.09-8.36,8.16-8.35S174.49,146.77,174.48,152Zm-3.52,0a8.35,8.35,0,0,0-.65-4,4,4,0,0,0-3.89-2.54,3.88,3.88,0,0,0-3.84,2.61,10.3,10.3,0,0,0,0,7.81,3.89,3.89,0,0,0,3.84,2.61,4,4,0,0,0,3.9-2.53A8.35,8.35,0,0,0,171,151.94Z"/><path class="cls-2" d="M107.47,158.08a7.15,7.15,0,0,1-5.58,2.19A4.89,4.89,0,0,1,97,155.43c-.08-3.55,0-7.09,0-10.64,0-.71.18-1,.91-.74a.84.84,0,0,0,.43.08c2.35-.66,2,.82,1.93,2.28-.05,2.76-.49,5.52-.11,8.28.26,1.95,1.33,3.06,3,3.18a3.55,3.55,0,0,0,3.78-2.76c.51-1.76.25-3.57.28-5.37,0-1.6.06-3.21,0-4.8,0-.93.24-1.15,1.06-.85a.34.34,0,0,0,.14,0c2.41-.67,2.13.9,2.07,2.4-.16,4.08-.21,8.16,0,12.24,0,.9-.09,1.43-1.16,1a1.26,1.26,0,0,0-.72,0C107.5,160.07,106.83,160,107.47,158.08Z"/><path class="cls-2" d="M521.7,152.08c-1.46,0-2.92.06-4.37,0-1-.05-1.16.33-1.07,1.19.22,2,.93,3.78,2.91,4.72,2.15,1,4,.33,5.88-.9.43-.29.89-1.41,1.43-.62a1.71,1.71,0,0,1-.64,2.37c-3.63,2.4-8.71,1.84-11.31-1.27s-2.36-9.07.5-12a8.15,8.15,0,0,1,8.58-1.4,6.79,6.79,0,0,1,3.75,6.7c0,.9-.29,1.29-1.28,1.23C524.63,152,523.16,152.08,521.7,152.08Zm-5.24-1.75c2.26,0,4.49,0,6.73,0,.58,0,.72-.23.73-.78a4,4,0,0,0-2.69-4.07c-1.71-.41-3.32.5-4.2,2.37A5.83,5.83,0,0,0,516.46,150.33Z"/><path class="cls-2" d="M277.48,152.08c-1.46,0-2.92,0-4.38,0-.9,0-1.16.23-1.12,1.14.22,4.43,4.34,6.61,8.15,4.27.46-.28.86-.64,1.29-1,.21-.16.38-.48.73-.24a.65.65,0,0,1,.25.77c-.19.57,0,1.26-.67,1.69-4.82,3-11.57,1.62-13.05-4.39-1.21-4.88,1.24-9.6,5.47-10.58,5.07-1.16,9,1.92,9,6.92,0,1-.24,1.51-1.39,1.42C280.31,152,278.89,152.08,277.48,152.08Zm-1.33-6.66c-2,0-4.18,2.5-4,4.48.06.6.44.42.72.42,2,0,4,0,6,0,.32,0,.64.07.79-.41C280.23,148,278.24,145.4,276.15,145.42Z"/><path class="cls-2" d="M308.11,152.08c-1.46,0-2.92.06-4.38,0-1-.05-1.14.35-1.05,1.2.22,2,.93,3.77,2.91,4.71s3.94.35,5.76-.82c.48-.31,1-1.47,1.54-.68a1.72,1.72,0,0,1-.77,2.44c-3.1,1.84-7.14,1.87-9.8-.09-3.05-2.24-3.62-5.4-3-8.85.92-5,4.91-7.42,9.73-6.1a6.69,6.69,0,0,1,4.68,7.46c-.11.63-.4.77-1,.76C311.22,152.07,309.67,152.08,308.11,152.08Zm-5.24-1.75c2.25,0,4.48,0,6.71,0,.71,0,.75-.33.74-.91a3.89,3.89,0,0,0-2.8-4,3.73,3.73,0,0,0-4.13,2.51A6.1,6.1,0,0,0,302.87,150.33Z"/><path class="cls-2" d="M356,152.08c-1.41,0-2.83.07-4.23,0-1-.06-1.2.35-1.13,1.26.3,4.37,4.33,6.47,8.1,4.17a8.89,8.89,0,0,0,1.39-1.05c.41-.37.84-.31.86.15,0,.73.17,1.62-.6,2.11-4.78,3.09-11.65,1.72-13.1-4.46-1.17-4.92,1.34-9.58,5.61-10.5,5.1-1.1,9.14,2.22,8.84,7.21-.06.85-.31,1.2-1.21,1.15C359,152,357.47,152.08,356,152.08Zm-1.56-1.75c1,0,2-.05,2.92,0,.8,0,1-.27.92-1-.13-2-1.26-3.61-2.91-3.88s-3.25.72-4.06,2.63c-.88,2.07-.77,2.26,1.38,2.26Z"/><path class="cls-2" d="M179.9,145.84a6.74,6.74,0,0,1,5.23-2.24c2.92.11,5,1.82,5.07,4.73.13,3.64,0,7.28,0,10.92,0,.64-.23.76-.78.59a.94.94,0,0,0-.42-.09c-2.53.76-2.08-1-2.05-2.4.05-2.57.12-5.14,0-7.71-.08-2.29-1.23-3.57-3-3.64-2.1-.07-3.47,1.08-3.82,3.39a41.08,41.08,0,0,0,.05,9.14c.09,1.14-.11,1.69-1.34,1.2-.71-.28-1.67.66-2.08-.13-.31-.6,0-1.52,0-2.29a91.72,91.72,0,0,0-.09-12.07c-.07-.9-.11-1.59,1.13-1.13a1.19,1.19,0,0,0,.72,0C179.93,143.72,180.47,144.08,179.9,145.84Z"/><path class="cls-2" d="M319,145.63a7.16,7.16,0,0,1,5.11-2c3.05.1,5.08,1.88,5.16,5,.09,3.54,0,7.09,0,10.63,0,.72-.23.85-.85.65a1,1,0,0,0-.57-.1c-2.27.68-1.87-.87-1.85-2.16,0-2.62.13-5.24.06-7.86-.07-2.31-1.18-3.61-2.91-3.71-2.14-.12-3.56,1.07-3.9,3.46a43.06,43.06,0,0,0,.06,9.15c.08,1-.08,1.64-1.26,1.13-.74-.31-1.75.7-2.16-.21a5.61,5.61,0,0,1,0-2.44,87.38,87.38,0,0,0-.09-11.78c-.07-.93-.11-1.69,1.2-1.19a1.18,1.18,0,0,0,.72,0C319,143.77,319.69,143.91,319,145.63Z"/><path class="cls-2" d="M532.27,145.84a6.74,6.74,0,0,1,5.23-2.24c2.92.11,5,1.82,5.07,4.73.13,3.64,0,7.28,0,10.92,0,.64-.23.77-.77.59a1,1,0,0,0-.43-.09c-2.52.76-2.08-.95-2-2.4,0-2.57.12-5.14,0-7.71-.07-2.28-1.22-3.57-3-3.64-2.09-.07-3.47,1.08-3.81,3.38a42.53,42.53,0,0,0,0,9.3c.07,1-.08,1.51-1.2,1.09a.72.72,0,0,0-.43,0c-2.36.74-1.85-.83-1.77-2.13a91,91,0,0,0-.08-12.36c-.07-.89-.11-1.6,1.13-1.13a1.18,1.18,0,0,0,.72,0C532.3,143.73,532.85,144.07,532.27,145.84Z"/><path class="cls-2" d="M140.8,152.63c0,1.55,0,3.11,0,4.66,0,.62.2,1.17,1.05,1,.23,0,.57-.65.74,0,.09.37.11.82-.38,1-1.32.42-2.72.8-3.84-.3-.61-.6-.92-.39-1.4,0a5.88,5.88,0,0,1-5.1,1.12,4.25,4.25,0,0,1-3.34-3.46,4.36,4.36,0,0,1,2.34-4.89,17.62,17.62,0,0,1,4.5-1.15c1.19-.27,2.49-.3,2.29-2.12s-1.19-3-2.86-3.1a4.47,4.47,0,0,0-3.43,1.33c-.38.37-.75,1.27-1.32.62a1.6,1.6,0,0,1,.1-2.14c2.45-2,7.17-2.48,9.41,0a4.86,4.86,0,0,1,1.27,3.33v4.08ZM137.66,155c0-.93,0-1.47,0-2,0-.28,0-.64-.45-.54-1.46.32-3,.36-4.3,1.26a2.59,2.59,0,0,0-.76,3.5,2.4,2.4,0,0,0,3.16,1C137,157.67,138,156.61,137.66,155Z"/><path class="cls-2" d="M473.05,168.13c1.28-2.5,2.54-5,3.86-7.49a2.35,2.35,0,0,0,0-2.2c-1.84-4.32-3.64-8.67-5.45-13l-.59-1.43a12.59,12.59,0,0,0,3.25,0c.73-.22.67.56.82,1,1.23,3.16,2.43,6.33,3.64,9.5.12.3.28.58.53,1.11a62.68,62.68,0,0,0,3-7.42c.11-.32.26-.63.34-1,.49-2,1-4,3.93-3-.36.8-.78,1.74-1.21,2.67-3.11,6.74-6.28,13.45-8.93,20.39-.24.64-.5.93-1.25.81a10.42,10.42,0,0,0-2,0Z"/><path class="cls-2" d="M250.12,143.93c-1.68,2-3.44,4.1-5.3,6.14a1.46,1.46,0,0,0,0,2.23c1.88,2.46,3.69,5,5.63,7.61-1.35,0-2.53-.41-3.72,0-.56.19-.71-.41-.94-.74-1.06-1.57-2.11-3.15-3.13-4.75-.43-.69-.75-.76-1.21,0-.58,1-1.35,1.8-1.85,2.79-1,2-2.37,3.3-4.9,2.54,1.72-2.17,3.44-4.43,5.28-6.59a1.45,1.45,0,0,0,0-2.21c-1.79-2.23-3.48-4.53-5.33-7,1.42,0,2.65.4,3.88,0,.56-.18.71.39.94.73.92,1.32,1.82,2.64,2.71,4,.42.65.79.78,1.27,0,.31-.49.7-.92,1-1.4C245.88,145.33,247.06,143,250.12,143.93Z"/><path class="cls-2" d="M121.48,143.62a8.4,8.4,0,0,1,4.6,1.14c.37.21.91.41.64,1s-.22,1.65-.92,2.05-.86-.43-1.2-.79a4.41,4.41,0,0,0-7.57,1.38,9.89,9.89,0,0,0-.28,6.57c1.06,3.64,4.83,4.61,8.25,2.25.46-.32,1-1.65,1.64-.63a1.75,1.75,0,0,1-.89,2.43,9.2,9.2,0,0,1-10.15-.47c-2.53-2.07-3.52-6.32-2.26-9.76S117.42,143.61,121.48,143.62Z"/><path class="cls-2" d="M339.52,160.26c-4.89,0-8.09-3.23-8.14-8.1s3.16-8.44,7.95-8.55a9.64,9.64,0,0,1,5.2,1.1c.4.23,1.05.42.73,1s-.18,1.66-.93,2-.86-.47-1.2-.83a4.41,4.41,0,0,0-7.56,1.43,9.88,9.88,0,0,0-.26,6.57c1.09,3.67,5,4.6,8.38,2.11.42-.31.91-1.52,1.53-.51a1.66,1.66,0,0,1-.7,2.27A9.24,9.24,0,0,1,339.52,160.26Z"/><path class="cls-2" d="M451.45,147.59c0,3.74,0,7.48,0,11.22,0,.87-.08,1.34-1.08,1a1,1,0,0,0-.57-.06c-2.33.74-1.85-.82-1.8-2.12.26-6.94.3-13.89,0-20.83,0-.52-.4-1.4.27-1.53a8.31,8.31,0,0,1,3,.06c.36.05.16.68.16,1.06q0,5.61,0,11.22Z"/><path class="cls-2" d="M145.51,154.34c0-2.28,0-4.56,0-6.84,0-.78-.05-1.35-1.06-1.21-.64.08-1.09,0-1.08-.89s.38-1,1.06-.9c1,.14,1.07-.45,1-1.23-.19-2.18.48-3,2.61-3.4.52-.09.83,0,.75.65-.1,1,0,1.95-.15,2.91-.15,1.16.28,1.49,1.37,1.25a4.1,4.1,0,0,1,1.59-.12c.61.12.28.72.3,1.11.06.84-.62.55-1,.57-2.43.1-2.44.08-2.45,2.48s-.07,4.77,0,7.15c.06,2,1,2.75,2.89,2.52.38,0,.89-.45,1,.28a1,1,0,0,1-.79,1.31c-3,.76-6.43.38-6.33-4.47,0-.39,0-.78,0-1.17Z"/><path class="cls-2" d="M546.09,154.39c0-2.28,0-4.56,0-6.84,0-.87-.12-1.42-1.17-1.26-.6.09-1,0-1-.84s.25-1.07,1-1c1.13.18,1.13-.49,1-1.32a2.72,2.72,0,0,1,2.73-3.32c.48,0,.72,0,.66.62-.09,1,0,1.95-.16,2.91-.18,1.28.33,1.53,1.47,1.29.54-.12,1.21-.4,1.67,0,.22.21.17.83.1,1.23-.09.57-.62.32-1,.34-2.48.11-2.49.1-2.5,2.58,0,2.24,0,4.47,0,6.71s.81,3,3.14,2.78c.41,0,.79-.15.83.46a1,1,0,0,1-.76,1.2c-3.66,1.34-6.37-.52-6.39-4.41v-1.17Z"/><path class="cls-2" d="M288,145.74c1.28-1.1,2.27-2.21,3.89-2.13.87,0,1.58.08,1.19,1.29a7,7,0,0,0-.07,1.45c-.05.68-.37.89-1.08.71-2.4-.62-3.83.49-3.89,3.13-.07,2.82,0,5.63,0,8.45,0,.88,0,1-1.15,1.21-2.5.37-2.1-1-2.08-2.48.05-4.07,0-8.15-.05-12.23,0-.87,0-1.48,1.15-1a.86.86,0,0,0,.57,0C287.87,143.69,288.38,144.17,288,145.74Z"/><path class="cls-2" d="M153.38,152c0-2.28,0-4.56,0-6.83,0-.8,0-1.42,1-1,.81.33,1.9-.64,2.37.18.34.6-.08,1.6-.09,2.42a115.68,115.68,0,0,0,.15,12.21c.08.89-.11,1.18-1,.88a1.06,1.06,0,0,0-.57-.08c-2.26.71-1.91-.75-1.86-2.11.07-1.89,0-3.78,0-5.67Z"/><path class="cls-2" d="M297.49,151.22a58.57,58.57,0,0,0,.17,7.84c.1.73-.1,1-.84.79a1.31,1.31,0,0,0-.71-.11c-2.24.69-1.92-.74-1.87-2.11.18-4.12.15-8.24,0-12.36,0-.92,0-1.59,1.15-1.13.76.29,1.78-.64,2.24.15.32.56-.08,1.5-.1,2.28C297.48,148.12,297.49,149.67,297.49,151.22Z"/><path class="cls-2" d="M376.75,153.25a23.24,23.24,0,0,0-2.77,0c-1.3.17-1.52-.39-1.48-1.54,0-.91.27-1.16,1.16-1.13,2.14.06,4.28.09,6.42,0,1.12,0,1.13.53,1.12,1.33s.06,1.46-1.1,1.35S377.87,153.25,376.75,153.25Z"/><path class="cls-2" d="M205.86,153.25a19.08,19.08,0,0,0-2.62,0c-1.54.24-1.79-.5-1.65-1.79.06-.58.14-.88.81-.87,2.33,0,4.67,0,7,0,1.2,0,.81.83.85,1.42s.16,1.29-.88,1.24S207,153.25,205.86,153.25Z"/><path class="cls-2" d="M297.91,138.86c-.25,1.12-.8,1.89-2.07,1.84a1.9,1.9,0,1,1,.13-3.79C297.24,136.94,297.73,137.74,297.91,138.86Z"/><path class="cls-2" d="M155.2,136.89a1.81,1.81,0,0,1,1.82,2,1.95,1.95,0,0,1-3.89-.14C153.16,137.53,153.93,136.92,155.2,136.89Z"/><path class="cls-1" d="M296.3,102.45l.2.25h-.37Z"/><path class="cls-2" d="M473,168.11l-.06.17s0-.06,0-.07l.1-.08Z"/></svg>