<svg id="Layer_1" data-name="Layer 1" xmlns="http://www.w3.org/2000/svg" xmlns:xlink="http://www.w3.org/1999/xlink" viewBox="0 0 595.28 175.75"><defs><style>.cls-1{fill:none;}.cls-2{fill:#23366a;}.cls-3{clip-path:url(#clip-path);}.cls-4{fill:#fff;}.cls-5{fill:#cd2029;}.cls-6{fill:#fbd405;}.cls-7{fill:#22346a;}</style><clipPath id="clip-path"><path class="cls-1" d="M302.25,21.75H214.56a79.86,79.86,0,0,1,6.88,20.63c3.55,19-.91,34.28-5.2,48.23a156.19,156.19,0,0,1-20,41.54H414Z"/></clipPath></defs><path class="cls-2" d="M181.31,122.87c.14-.35.31-.7.43-1.06a7,7,0,0,1,7.73-4.71,7,7,0,0,1,.1,13.8,7,7,0,0,1-7.83-4.74c-.14-.41-.29-.81-.43-1.21Zm7,7.39a6.27,6.27,0,1,0-6.1-6.38A6.15,6.15,0,0,0,188.34,130.26Z"/><path class="cls-2" d="M189.63,124.58l2.15,3.28-.22.31a4.15,4.15,0,0,1-1-.69,15.36,15.36,0,0,1-1.47-2.29,1.38,1.38,0,0,0-1.86-.69c-.3.11-.43.86-.52,1.35s0,1-.05,1.55c0,.23-.28.43-.43.65a2.13,2.13,0,0,1-.4-.67,7.61,7.61,0,0,1,0-1.17c0-1.12,0-2.25,0-3.37s.16-1.94.24-2.91a22,22,0,0,1,4.47.3c1.49.41,1.54,2.83.21,3.75C190.42,124.19,190.06,124.34,189.63,124.58Zm-1.43-.75.06-.17c.13,0,.26,0,.39,0,.87-.06,1.89,0,2-1.16.06-.51-.32-1.49-.67-1.57a6.72,6.72,0,0,0-3.12-.06c-.23,0-.23,1.6-.08,2.41C186.85,123.54,187.71,123.65,188.2,123.83Z"/><path class="cls-2" d="M239.45,21.75H229.27L223.55,11,233,11Z"/><path class="cls-2" d="M256.83,21.75H246.64L240.93,11l9.41-.08Z"/><path class="cls-2" d="M274.2,21.75H264L258.3,11l9.41-.08Z"/><path class="cls-2" d="M291.57,21.75H281.38L275.67,11l9.42-.08Z"/><path class="cls-2" d="M302.25,21.75H214.56a79.86,79.86,0,0,1,6.88,20.63c3.55,19-.91,34.28-5.2,48.23a156.19,156.19,0,0,1-20,41.54H414Z"/><g class="cls-3"><rect class="cls-4" x="206.13" y="26.24" width="143.24" height="4.49"/><rect class="cls-4" x="206.13" y="35.07" width="143.24" height="4.49"/><rect class="cls-4" x="206.13" y="43.95" width="143.24" height="4.49"/><rect class="cls-4" x="206.13" y="52.78" width="143.24" height="4.49"/><rect class="cls-4" x="206.13" y="61.67" width="143.24" height="4.49"/><rect class="cls-5" x="206.13" y="21.75" width="143.24" height="4.91"/><rect class="cls-5" x="206.13" y="30.85" width="143.24" height="4.68"/><rect class="cls-5" x="206.13" y="39.46" width="143.24" height="4.49"/><rect class="cls-5" x="206.13" y="48.29" width="143.24" height="4.93"/><rect class="cls-5" x="206.13" y="57.18" width="143.24" height="4.88"/></g><path class="cls-6" d="M289.37,61.17l23.43,5-23,5.4,7.41,14-13.78-7.66-5.07,20.69-5.1-21.07L259,85.4l8.06-14.09-23.51-5.16,23.11-4.91q-4-7.25-8-14.49l14.22,7.76,4.8-22.35,5.53,22.38,13.95-7.47Z"/><path class="cls-4" d="M312.21,116.1l4,7.82c-1.82,0-3.4,0-5,0a.84.84,0,0,1-.56-.42c-1.31-2.92-2.6-5.85-3.95-8.9.76-.1,1.33-.16,1.9-.26,2-.36,2.91-1.86,2.44-4.08a3.1,3.1,0,0,0-3.92-2.44c-.28.09-.54.77-.55,1.17,0,4.44,0,8.88,0,13.33,0,.49,0,1-.07,1.63h-4c-.89,0-.71-.67-.71-1.18,0-4.44,0-8.88,0-13.32,0-1.29-.34-3,.34-3.75s2.37-.25,3.63-.27c1.48,0,3-.06,4.44,0,4.17.18,6.84,3.69,5.62,7.33A5.44,5.44,0,0,1,312.21,116.1Z"/><path class="cls-4" d="M272.45,123.94c-1.81,0-3.28,0-4.76,0a1.07,1.07,0,0,1-.8-.45c-1.32-2.91-2.6-5.85-3.94-8.9.7-.08,1.23-.12,1.76-.2,2.09-.35,3-1.78,2.61-4a3.1,3.1,0,0,0-3.94-2.58c-.28.07-.59.73-.59,1.11,0,4.45,0,8.89,0,13.33v1.59h-4.62V105.56a5,5,0,0,1,.91-.14c2.41,0,4.82-.06,7.23,0,4.23.11,7,3.65,5.76,7.32a5.46,5.46,0,0,1-3.55,3.36c.69,1.35,1.33,2.62,2,3.89Z"/><path class="cls-4" d="M255.84,123.94c-1.69,0-3.12,0-4.55,0a1.37,1.37,0,0,1-.94-.76,20.64,20.64,0,0,1-1.11-3.24c-.25-1.08-.83-1.39-1.88-1.31-1.3.11-2.92-.38-3.83.24s-.93,2.24-1.32,3.45c-.59,1.88-.66,1.92-2.91,1.49.09-.36.15-.72.25-1.07,1.67-5.38,3.37-10.74,5-16.13a1.39,1.39,0,0,1,1.59-1.18c3.52,0,3.51,0,4.63,3.31,1.53,4.58,3.08,9.14,4.61,13.72C255.53,122.85,255.64,123.29,255.84,123.94Zm-11.7-8H248l-1.89-5.69h-.24Z"/><path class="cls-4" d="M332,112.48c0,2,0,3.89,0,5.84-.1,3.81-2.38,6-6.33,6.12s-6.77-2.15-6.94-5.71c-.2-4.14-.07-8.3-.11-12.44,0-.67.3-.92.93-.88a2.09,2.09,0,0,0,.25,0c3.62-.09,3.62-.09,3.62,3.51,0,3,0,6,0,9,0,2.25,1.25,3.48,3.21,3.38a2.49,2.49,0,0,0,2.53-2.08,14.79,14.79,0,0,0,.21-2.9c0-3.22.05-6.43,0-9.65,0-1,.29-1.34,1.3-1.3s1.4.16,1.35,1.25c-.08,1.94,0,3.89,0,5.84Z"/><path class="cls-4" d="M373.78,119.12a19.4,19.4,0,0,0,1.41,1.87,2.17,2.17,0,0,0,3.26.14,2.15,2.15,0,0,0-.64-3.28c-1.12-.74-2.37-1.3-3.5-2-2.27-1.48-3.05-3.78-2.33-6.57a5.55,5.55,0,0,1,5.16-4.34,5.71,5.71,0,0,1,6,3.74l-1.77,1.57c-.37-.54-.68-1-1-1.47-.67-.85-1.53-1.53-2.61-1.09a2.78,2.78,0,0,0-1.37,1.58c-.37,1.13.32,1.93,1.31,2.46s2,1,3,1.6a5.52,5.52,0,0,1,2.78,6.36,5.63,5.63,0,0,1-5,4.73,6.26,6.26,0,0,1-6.59-3,1.24,1.24,0,0,1,.23-1.09A12.57,12.57,0,0,1,373.78,119.12Z"/><path class="cls-4" d="M215.59,119.09a18.2,18.2,0,0,0,1.51,2,2.09,2.09,0,1,0,2.67-3.12c-.93-.64-2-1.13-3-1.7-2.84-1.64-3.8-4-2.95-7.08a5.46,5.46,0,0,1,5.09-4.24,5.74,5.74,0,0,1,6,3.73l-1.78,1.56c-.49-.66-.86-1.28-1.34-1.81a2.05,2.05,0,0,0-2.5-.69,3,3,0,0,0-1.17,1.61,1.85,1.85,0,0,0,1.07,2.22c.84.49,1.71.91,2.57,1.37,2.94,1.55,4,3.57,3.51,6.6a5.69,5.69,0,0,1-5,4.88,6.28,6.28,0,0,1-7-3.74Z"/><path class="cls-4" d="M343.67,120.63l2.2-1.54c.46.64.83,1.23,1.29,1.77a2,2,0,0,0,2.46.79,2.84,2.84,0,0,0,1.33-1.5,1.93,1.93,0,0,0-1.07-2.34c-1.12-.68-2.31-1.24-3.41-2A5.46,5.46,0,0,1,344,109.7c.5-2.39,1.81-4.11,4.3-4.62a5.8,5.8,0,0,1,6.28,2.29c.69.91.67,1.55-.3,2.15a9.53,9.53,0,0,0-.86.66c-.42-.58-.77-1.15-1.2-1.66a2.12,2.12,0,0,0-2.58-.82,2.8,2.8,0,0,0-1.21,1.59,1.94,1.94,0,0,0,1.14,2.31c1,.56,2,1,3,1.6a5.56,5.56,0,0,1,2.92,6.64,5.63,5.63,0,0,1-5.23,4.58A6.06,6.06,0,0,1,343.67,120.63Z"/><path class="cls-4" d="M298.21,109.21l-2,1.66c-.5-.67-1-1.26-1.41-1.85a4,4,0,0,0-4-1.68,3.77,3.77,0,0,0-3,2.9,13.85,13.85,0,0,0-.12,8.26c.46,1.62,1.33,3,3.18,3.24a4.6,4.6,0,0,0,4.58-1.87c.42-.57.78-1.2,1.27-2a15.88,15.88,0,0,0,1.29,1c.62.39.53.82.24,1.39a8,8,0,0,1-8.58,4.06c-5.38-.82-8.61-5.91-7.5-11.84a8.91,8.91,0,0,1,10.94-7.42C295.42,105.57,297,107.05,298.21,109.21Z"/><path class="cls-4" d="M363.47,113.12h5.26c.14.2.22.27.23.34.27,2.27.25,2.29-2,2.29h-3.4v5.56h5.77c.13.2.21.26.21.34.24,2.29.24,2.29-2.07,2.29-2.58,0-5.16,0-7.74,0-.8,0-1.12-.22-1.11-1.07q0-8.19,0-16.37c0-.92.35-1.14,1.19-1.13,2.79,0,5.58.06,8.37,0,1.19,0,1.11.65,1.15,1.45s-.24,1.31-1.21,1.26a32.12,32.12,0,0,0-3.8,0,1.15,1.15,0,0,0-.83.75C363.43,110.21,363.47,111.56,363.47,113.12Z"/><path class="cls-4" d="M240,108.07c-1.07,0-2.12.05-3.17,0s-1.15.3-1.14,1.17c0,4.44,0,8.88,0,13.31,0,1.12-.31,1.54-1.43,1.42a12.4,12.4,0,0,0-2.28,0c-.92.08-1.14-.33-1.14-1.18,0-4.31,0-8.62,0-12.93v-1.77c-1.2,0-2.32,0-3.43,0s-1-.69-1-1.41,0-1.3,1-1.29c3.68,0,7.36,0,11,0,1.73,0,1.74,0,1.65,1.79C240.14,107.43,240.07,107.67,240,108.07Z"/><path class="cls-4" d="M340.68,105.4v16.8c0,1.74,0,1.74-1.8,1.74l-2.41,0a2.74,2.74,0,0,1-.5-.11c0-.42-.09-.86-.09-1.31,0-5.2,0-10.39,0-15.59,0-1.25.39-1.64,1.59-1.53C338.44,105.48,339.45,105.4,340.68,105.4Z"/><path class="cls-7" d="M125.29,148.67h.43l1.24-4H115.42l-1.06,4h.41a5.1,5.1,0,0,1,.81-1.81,3.17,3.17,0,0,1,1.29-1,5.62,5.62,0,0,1,2.11-.33h.91l-3.15,10.79a14.23,14.23,0,0,1-.73,2.11,1.73,1.73,0,0,1-.59.69,2.7,2.7,0,0,1-1.34.28h-.3l-.12.41h6.61l.14-.41h-.52a2.13,2.13,0,0,1-1.27-.28.85.85,0,0,1-.35-.7,13.59,13.59,0,0,1,.57-2.43l3-10.46H123a3.7,3.7,0,0,1,2,.31,1.5,1.5,0,0,1,.5,1.23A6.88,6.88,0,0,1,125.29,148.67Z"/><path class="cls-7" d="M133.74,158.69a.58.58,0,0,1-.34.15.28.28,0,0,1-.21-.11.32.32,0,0,1-.1-.25,8.68,8.68,0,0,1,.26-.94l1.36-4.7a6.46,6.46,0,0,0,.32-1.79,1.37,1.37,0,0,0-.36-1,1.23,1.23,0,0,0-.9-.37,3.4,3.4,0,0,0-2.18,1,22.79,22.79,0,0,0-3.18,4.08l3.14-10.88-3.87.65V145l.23,0a4.93,4.93,0,0,1,.62-.06.83.83,0,0,1,.59.22.69.69,0,0,1,.24.52L129,147l-3.69,12.82H127l.72-2.29a8.4,8.4,0,0,1,.77-1.72c1-1.63,1.61-2.57,1.79-2.8a7.69,7.69,0,0,1,1.76-1.75,1.52,1.52,0,0,1,.74-.24.52.52,0,0,1,.37.13.49.49,0,0,1,.14.36,5.25,5.25,0,0,1-.25,1.32l-1.29,4.48a8.17,8.17,0,0,0-.39,1.84.89.89,0,0,0,.94.94,1.87,1.87,0,0,0,.87-.27,5.94,5.94,0,0,0,1.16-1,8.32,8.32,0,0,0,1.06-1.3l-.34-.22A6.58,6.58,0,0,1,133.74,158.69Z"/><path class="cls-7" d="M143.83,149.69a6.06,6.06,0,0,0-3.2,1,7.79,7.79,0,0,0-2.59,2.72,6.66,6.66,0,0,0-1,3.42,3.55,3.55,0,0,0,.83,2.27,3,3,0,0,0,2.46,1q2.41,0,5.07-2.63l-.24-.33a12.91,12.91,0,0,1-2.21,1.47,3.79,3.79,0,0,1-1.55.33,2.4,2.4,0,0,1-1.72-.7,2.32,2.32,0,0,1-.7-1.7,7.28,7.28,0,0,1,.08-.93,15.74,15.74,0,0,0,3.53-.72,6.83,6.83,0,0,0,2.87-1.79,2.69,2.69,0,0,0,.73-1.78,1.48,1.48,0,0,0-.57-1.15A2.68,2.68,0,0,0,143.83,149.69Zm0,3.25a5.41,5.41,0,0,1-2.06,1.47,9.54,9.54,0,0,1-2.7.65,7.33,7.33,0,0,1,1.88-3.59,3.7,3.7,0,0,1,2.43-1.22,1.2,1.2,0,0,1,.85.29,1.06,1.06,0,0,1,.29.77A2.68,2.68,0,0,1,143.87,152.94Z"/><path class="cls-7" d="M163.51,156a11.89,11.89,0,0,1-1.11,1.67,3.92,3.92,0,0,1-1.28.91,6.55,6.55,0,0,1-2.54.4h-1.47a1.45,1.45,0,0,1-.86-.16.7.7,0,0,1-.3-.52,6.07,6.07,0,0,1,.3-1.43l2.63-9.09a10.62,10.62,0,0,1,.66-1.88,1.7,1.7,0,0,1,.73-.66,3.69,3.69,0,0,1,1.48-.21l.09-.41h-6.2l-.13.41.3,0a2,2,0,0,1,1.16.23.78.78,0,0,1,.31.66,6.49,6.49,0,0,1-.34,1.68l-2.67,9.25a7.45,7.45,0,0,1-.75,1.86,1.52,1.52,0,0,1-.69.52,4.23,4.23,0,0,1-1.2.15l-.15.41h11.25l1.48-4.31h-.41Z"/><path class="cls-7" d="M172.52,149.69a6.06,6.06,0,0,0-3.21,1,7.79,7.79,0,0,0-2.59,2.72,6.75,6.75,0,0,0-1,3.42,3.55,3.55,0,0,0,.83,2.27,3,3,0,0,0,2.47,1q2.4,0,5.06-2.63l-.23-.33a12.89,12.89,0,0,1-2.22,1.47,3.75,3.75,0,0,1-1.55.33,2.36,2.36,0,0,1-1.71-.7,2.33,2.33,0,0,1-.71-1.7,7.28,7.28,0,0,1,.08-.93,15.62,15.62,0,0,0,3.53-.72,6.77,6.77,0,0,0,2.87-1.79,2.71,2.71,0,0,0,.74-1.78,1.48,1.48,0,0,0-.57-1.15A2.7,2.7,0,0,0,172.52,149.69Zm0,3.25a5.45,5.45,0,0,1-2.07,1.47,9.54,9.54,0,0,1-2.7.65,7.26,7.26,0,0,1,1.89-3.59,3.66,3.66,0,0,1,2.42-1.22,1.18,1.18,0,0,1,.85.29,1,1,0,0,1,.29.77A2.66,2.66,0,0,1,172.56,152.94Z"/><path class="cls-7" d="M183.74,157.29l2.19-7.6-1.78.27-.41,1.28a2.18,2.18,0,0,0-.69-1.19,1.76,1.76,0,0,0-1.13-.36,4.19,4.19,0,0,0-2.43.94,9.28,9.28,0,0,0-2.72,3.17,8,8,0,0,0-1.07,3.76,2.75,2.75,0,0,0,.59,1.86,1.81,1.81,0,0,0,1.41.68,3.26,3.26,0,0,0,1.74-.55,11,11,0,0,0,2.7-2.68l-.23.85a5.42,5.42,0,0,0-.25,1.44.94.94,0,0,0,.24.7,1,1,0,0,0,.72.24,2.59,2.59,0,0,0,1.52-.61,7.39,7.39,0,0,0,1.59-1.77l-.38-.27a6.69,6.69,0,0,1-1.17,1.34.7.7,0,0,1-.38.18.29.29,0,0,1-.23-.1.5.5,0,0,1-.11-.32.85.85,0,0,1,0-.24ZM181.4,157c-1,1.2-1.84,1.8-2.65,1.8a1.16,1.16,0,0,1-.88-.44,1.83,1.83,0,0,1-.38-1.21,9.51,9.51,0,0,1,2.93-6.2,2.4,2.4,0,0,1,1.52-.67,1.29,1.29,0,0,1,1,.42,2.11,2.11,0,0,1,.37,1.38A7.82,7.82,0,0,1,181.4,157Z"/><path class="cls-7" d="M199.05,143.9l-3.86.64V145a7.51,7.51,0,0,1,.85-.07.93.93,0,0,1,.61.19.51.51,0,0,1,.17.39,2.75,2.75,0,0,1-.14.74c-.05.16-.12.38-.2.66l-1.1,3.9a2.84,2.84,0,0,0-.86-.82,2,2,0,0,0-1-.25,4.59,4.59,0,0,0-2.53.95,9,9,0,0,0-2.82,3.09,7.41,7.41,0,0,0-1.06,3.56,3.08,3.08,0,0,0,.63,2.05,1.89,1.89,0,0,0,1.49.76,3.07,3.07,0,0,0,1.76-.66,13,13,0,0,0,3-3.47l-.43,1.39a5.85,5.85,0,0,0-.34,1.71,1.06,1.06,0,0,0,.25.76.8.8,0,0,0,.63.27,2.49,2.49,0,0,0,1.54-.69,10.24,10.24,0,0,0,1.63-1.82l-.38-.23a9.51,9.51,0,0,1-1.28,1.34.64.64,0,0,1-.35.15.28.28,0,0,1-.19-.1.3.3,0,0,1-.1-.22,6.58,6.58,0,0,1,.31-1.41Zm-5.92,12.36c-1.17,1.68-2.15,2.52-2.92,2.52a1.14,1.14,0,0,1-.89-.44,2,2,0,0,1-.37-1.29,8.19,8.19,0,0,1,1.53-4.46c1-1.55,2-2.33,2.94-2.33a1.41,1.41,0,0,1,1.06.44,1.63,1.63,0,0,1,.41,1.15A8.12,8.12,0,0,1,193.13,156.26Z"/><path class="cls-7" d="M203.24,145.24a1.08,1.08,0,0,0-.8.33,1.1,1.1,0,0,0-.32.79,1.07,1.07,0,0,0,.33.79,1,1,0,0,0,.79.34,1.06,1.06,0,0,0,.79-.34,1.11,1.11,0,0,0,0-1.58A1.06,1.06,0,0,0,203.24,145.24Z"/><path class="cls-7" d="M203.38,149.69l-3.86.63v.44a9.08,9.08,0,0,1,1-.13.68.68,0,0,1,.47.16.5.5,0,0,1,.18.4,8,8,0,0,1-.36,1.55l-1.46,5a6.06,6.06,0,0,0-.28,1.38.94.94,0,0,0,.29.69,1.09,1.09,0,0,0,.76.27,2.43,2.43,0,0,0,1.45-.59,7.83,7.83,0,0,0,1.79-2l-.39-.26a6.36,6.36,0,0,1-1.29,1.43.69.69,0,0,1-.4.18.31.31,0,0,1-.25-.11.4.4,0,0,1-.11-.29,6,6,0,0,1,.23-.95Z"/><path class="cls-7" d="M213.38,158.76a.64.64,0,0,1-.33.14.26.26,0,0,1-.19-.1.42.42,0,0,1-.09-.27,5.47,5.47,0,0,1,.24-1l1.37-4.72a7.13,7.13,0,0,0,.32-1.79,1.34,1.34,0,0,0-.36-1,1.3,1.3,0,0,0-.93-.37,3.28,3.28,0,0,0-2.14,1,23.44,23.44,0,0,0-3.21,4.11l1.49-5.1-3.88.7.07.4.42-.07a3.91,3.91,0,0,1,.47,0,.69.69,0,0,1,.49.18.6.6,0,0,1,.2.44,9.35,9.35,0,0,1-.36,1.52l-2,7h1.68l.56-1.85a10.82,10.82,0,0,1,.87-2.08,23.65,23.65,0,0,1,1.9-3,6.64,6.64,0,0,1,1.72-1.67,1.49,1.49,0,0,1,.75-.27.51.51,0,0,1,.36.14.5.5,0,0,1,.15.37,5.27,5.27,0,0,1-.25,1.31l-1.3,4.5a8.09,8.09,0,0,0-.38,1.85.91.91,0,0,0,.25.68.86.86,0,0,0,.66.25,2.08,2.08,0,0,0,1.16-.44,8.24,8.24,0,0,0,2-2.12l-.34-.22A7.68,7.68,0,0,1,213.38,158.76Z"/><path class="cls-7" d="M223.84,149.86a4.8,4.8,0,0,0-1.38-.17,5.33,5.33,0,0,0-3.71,1.26,3.73,3.73,0,0,0-1.39,2.84,2.57,2.57,0,0,0,.72,1.77,3.36,3.36,0,0,0,1.95,1,5.83,5.83,0,0,0-1.92,1.11,1.5,1.5,0,0,0-.45,1,1.13,1.13,0,0,0,.51.88c-.94.53-1.51.87-1.71,1a2.75,2.75,0,0,0-.8.86,1.84,1.84,0,0,0-.32,1,1.72,1.72,0,0,0,.49,1.15,3.37,3.37,0,0,0,1.64.89,9.86,9.86,0,0,0,5.41-.1,4.39,4.39,0,0,0,2-1.19,2.49,2.49,0,0,0,.68-1.68,1.89,1.89,0,0,0-.58-1.37,5.25,5.25,0,0,0-2.38-1l-2.18-.5a2.67,2.67,0,0,1-1-.38.54.54,0,0,1-.2-.4.5.5,0,0,1,.23-.37,5.08,5.08,0,0,1,1.78-.86,5.4,5.4,0,0,0,3.47-1.27,3.5,3.5,0,0,0,1.26-2.64,3.27,3.27,0,0,0-.22-1.13h1.87l.33-1.16h-3A3.53,3.53,0,0,0,223.84,149.86Zm-1.7,10.81a3.6,3.6,0,0,1,1.63.64,1.14,1.14,0,0,1,.42.83c0,.58-.38,1-1.14,1.41a6.35,6.35,0,0,1-2.74.54,4.73,4.73,0,0,1-2.82-.7,1.43,1.43,0,0,1-.67-1.22,2.18,2.18,0,0,1,.46-1.27,3.35,3.35,0,0,1,1.37-1.07C220.54,160.3,221.7,160.58,222.14,160.67Zm1.66-7.25a4.59,4.59,0,0,1-.61,1.46,2.85,2.85,0,0,1-.93.9,2.32,2.32,0,0,1-1.15.32,1.7,1.7,0,0,1-1.28-.55,1.94,1.94,0,0,1-.53-1.41,4.81,4.81,0,0,1,.83-2.65,2.42,2.42,0,0,1,2.09-1.27,1.72,1.72,0,0,1,1.3.51,1.94,1.94,0,0,1,.5,1.42A5.82,5.82,0,0,1,223.8,153.42Z"/><path class="cls-7" d="M248.9,144.29a3.38,3.38,0,0,1-.68.64.88.88,0,0,1-.47.11,2.82,2.82,0,0,1-.87-.22,7.11,7.11,0,0,0-2.49-.53,9.27,9.27,0,0,0-4.69,1.35,10.07,10.07,0,0,0-5,8.53,6.37,6.37,0,0,0,.75,3,5.25,5.25,0,0,0,2.19,2.19,7.42,7.42,0,0,0,6.89-.14,8.78,8.78,0,0,0,2.73-2.89h-.53a7.28,7.28,0,0,1-2.25,2.14,5.54,5.54,0,0,1-2.78.7,4.48,4.48,0,0,1-3.35-1.32,4.82,4.82,0,0,1-1.29-3.53,10.72,10.72,0,0,1,.9-4.26,9.28,9.28,0,0,1,3-4,5.82,5.82,0,0,1,3.51-1.1,4.23,4.23,0,0,1,1.37.22,2.86,2.86,0,0,1,1,.61,2.34,2.34,0,0,1,.6.91,4.24,4.24,0,0,1,.26,1.2l0,1.23h.41l1.13-4.92Z"/><path class="cls-7" d="M257,149.69a2.68,2.68,0,0,0-1.48.76,18.16,18.16,0,0,0-3.56,4.69l1.61-5.45-3.86.63.08.41a7.74,7.74,0,0,1,.86-.1.9.9,0,0,1,.59.18.4.4,0,0,1,.17.34,7,7,0,0,1-.36,1.72l-2.07,7h1.71l.36-1.41q.08-.25.54-1.53a7.85,7.85,0,0,1,.81-1.67,23.43,23.43,0,0,1,2-2.85,3.9,3.9,0,0,1,.89-.87.74.74,0,0,1,.36-.09.29.29,0,0,1,.21.09.39.39,0,0,1,.1.28.81.81,0,0,0,.23.51.64.64,0,0,0,.44.17.85.85,0,0,0,.78-.5,2.88,2.88,0,0,0,.38-1.42.85.85,0,0,0-.22-.63A.78.78,0,0,0,257,149.69Z"/><path class="cls-7" d="M268.2,150h-1.7l-.25.85a18,18,0,0,1-1.37,3.55,21.93,21.93,0,0,1-1.64,2.39,7.76,7.76,0,0,1-1.58,1.64,2.08,2.08,0,0,1-1,.37.55.55,0,0,1-.37-.13.42.42,0,0,1-.14-.34,9.09,9.09,0,0,1,.43-1.87l1.06-3.62a9.39,9.39,0,0,0,.45-2.17.92.92,0,0,0-.95-.94,2.43,2.43,0,0,0-1.32.48,6.55,6.55,0,0,0-1.78,1.92l.35.25a9.65,9.65,0,0,1,1.06-1.25.83.83,0,0,1,.47-.16.29.29,0,0,1,.21.09.33.33,0,0,1,.1.23,8.35,8.35,0,0,1-.36,1.55l-1,3.46a10.42,10.42,0,0,0-.49,2.58,1.22,1.22,0,0,0,.36.9,1.19,1.19,0,0,0,.87.36,3.63,3.63,0,0,0,2.38-1.19,21.27,21.27,0,0,0,3.19-4.31c-.56,1.85-.9,3.05-1,3.61a4.44,4.44,0,0,0-.14,1,.85.85,0,0,0,.24.63.91.91,0,0,0,.69.25,2.1,2.1,0,0,0,1.18-.42,7.32,7.32,0,0,0,1.82-2.07l-.34-.25a12.32,12.32,0,0,1-1.16,1.38.67.67,0,0,1-.42.17.22.22,0,0,1-.19-.09.47.47,0,0,1-.08-.3,9.76,9.76,0,0,1,.44-1.88Z"/><path class="cls-7" d="M274.8,145.57a1.08,1.08,0,0,0-.8-.33,1.06,1.06,0,0,0-.79.33,1.11,1.11,0,0,0,0,1.58,1.06,1.06,0,0,0,.79.34,1,1,0,0,0,.79-.34,1.12,1.12,0,0,0,0-1.58Z"/><path class="cls-7" d="M274.15,149.69l-3.87.63v.44a9.67,9.67,0,0,1,1-.13.73.73,0,0,1,.48.16.5.5,0,0,1,.17.4,8,8,0,0,1-.36,1.55l-1.45,5a5.54,5.54,0,0,0-.28,1.38.91.91,0,0,0,.29.69,1,1,0,0,0,.75.27,2.46,2.46,0,0,0,1.46-.59,8.22,8.22,0,0,0,1.79-2l-.39-.26a6.87,6.87,0,0,1-1.29,1.43.72.72,0,0,1-.4.18.33.33,0,0,1-.26-.11.39.39,0,0,1-.1-.29,5.47,5.47,0,0,1,.22-.95Z"/><path class="cls-7" d="M282.34,150.22a2.73,2.73,0,0,1-.77-.22,5.61,5.61,0,0,0-.73-.25,3.27,3.27,0,0,0-.65-.06,2.85,2.85,0,0,0-2,.75,2.47,2.47,0,0,0-.79,1.84,2.74,2.74,0,0,0,.29,1.19,10,10,0,0,0,1.29,1.78,8.89,8.89,0,0,1,1.31,1.86,1.9,1.9,0,0,1,.18.83,1.56,1.56,0,0,1-.49,1.17,1.89,1.89,0,0,1-1.35.48,2.24,2.24,0,0,1-1.75-.71,3.81,3.81,0,0,1-.71-2.41h-.41L275,160.1h.42a.81.81,0,0,1,.76-.51,1.82,1.82,0,0,1,.57.13,5.65,5.65,0,0,0,1.86.38,3.46,3.46,0,0,0,2.45-.9,2.74,2.74,0,0,0,1-2.07,3.2,3.2,0,0,0-.43-1.52,13.38,13.38,0,0,0-1.88-2.4,4.52,4.52,0,0,1-.71-.94,1.57,1.57,0,0,1-.16-.71,1.21,1.21,0,0,1,.41-.92,1.56,1.56,0,0,1,1.1-.38,1.8,1.8,0,0,1,1.44.69,3.47,3.47,0,0,1,.64,2.18h.42l.68-3.44h-.42A1,1,0,0,1,282.34,150.22Z"/><path class="cls-7" d="M291.72,149.69a6.06,6.06,0,0,0-3.21,1,7.79,7.79,0,0,0-2.59,2.72,6.75,6.75,0,0,0-1,3.42,3.55,3.55,0,0,0,.83,2.27,3,3,0,0,0,2.47,1q2.4,0,5.06-2.63l-.23-.33a12.89,12.89,0,0,1-2.22,1.47,3.75,3.75,0,0,1-1.55.33,2.36,2.36,0,0,1-1.71-.7,2.33,2.33,0,0,1-.71-1.7,7.28,7.28,0,0,1,.08-.93,15.62,15.62,0,0,0,3.53-.72,6.77,6.77,0,0,0,2.87-1.79,2.71,2.71,0,0,0,.74-1.78,1.48,1.48,0,0,0-.57-1.15A2.7,2.7,0,0,0,291.72,149.69Zm0,3.25a5.45,5.45,0,0,1-2.07,1.47,9.54,9.54,0,0,1-2.7.65,7.26,7.26,0,0,1,1.89-3.59,3.66,3.66,0,0,1,2.42-1.22,1.18,1.18,0,0,1,.85.29,1,1,0,0,1,.29.77A2.66,2.66,0,0,1,291.76,152.94Z"/><path class="cls-7" d="M311.39,156a11.89,11.89,0,0,1-1.11,1.67,3.82,3.82,0,0,1-1.28.91,6.52,6.52,0,0,1-2.54.4H305a1.49,1.49,0,0,1-.86-.16.7.7,0,0,1-.3-.52,6.07,6.07,0,0,1,.3-1.43l2.63-9.09a10.62,10.62,0,0,1,.66-1.88,1.7,1.7,0,0,1,.73-.66,3.73,3.73,0,0,1,1.48-.21l.09-.41h-6.19l-.14.41.3,0a2,2,0,0,1,1.16.23.78.78,0,0,1,.31.66,6.81,6.81,0,0,1-.33,1.68l-2.68,9.25a7.52,7.52,0,0,1-.74,1.86,1.55,1.55,0,0,1-.7.52,4.23,4.23,0,0,1-1.2.15l-.15.41h11.26l1.48-4.31h-.42Z"/><path class="cls-7" d="M318.14,149.69l-3.87.63v.44a9.67,9.67,0,0,1,1-.13.73.73,0,0,1,.48.16.53.53,0,0,1,.17.4,8,8,0,0,1-.36,1.55l-1.46,5a5.89,5.89,0,0,0-.27,1.38.91.91,0,0,0,.29.69,1,1,0,0,0,.75.27,2.41,2.41,0,0,0,1.45-.59,8.06,8.06,0,0,0,1.8-2l-.4-.26a6.59,6.59,0,0,1-1.28,1.43.74.74,0,0,1-.41.18.31.31,0,0,1-.25-.11.4.4,0,0,1-.11-.29,6,6,0,0,1,.23-.95Z"/><path class="cls-7" d="M318,145.24a1.11,1.11,0,0,0-1.12,1.12,1.07,1.07,0,0,0,.33.79,1.09,1.09,0,0,0,1.58,0,1.07,1.07,0,0,0,.33-.79,1.11,1.11,0,0,0-1.12-1.12Z"/><path class="cls-7" d="M328.13,158.76a.61.61,0,0,1-.32.14.26.26,0,0,1-.2-.1.48.48,0,0,1-.09-.27,5.47,5.47,0,0,1,.24-1l1.37-4.72a7.13,7.13,0,0,0,.32-1.79,1.34,1.34,0,0,0-.36-1,1.27,1.27,0,0,0-.93-.37,3.3,3.3,0,0,0-2.14,1,23.44,23.44,0,0,0-3.21,4.11l1.49-5.1-3.88.7.07.4.42-.07a4,4,0,0,1,.48,0,.68.68,0,0,1,.48.18.6.6,0,0,1,.2.44,9.35,9.35,0,0,1-.36,1.52l-2,7h1.68l.56-1.85a10.24,10.24,0,0,1,.88-2.08,22.61,22.61,0,0,1,1.89-3,6.8,6.8,0,0,1,1.72-1.67,1.56,1.56,0,0,1,.75-.27.49.49,0,0,1,.36.14.5.5,0,0,1,.15.37,4.84,4.84,0,0,1-.25,1.31l-1.3,4.5a8.09,8.09,0,0,0-.38,1.85.91.91,0,0,0,.25.68.86.86,0,0,0,.66.25,2.14,2.14,0,0,0,1.17-.44,8.41,8.41,0,0,0,2-2.12l-.35-.22A7.35,7.35,0,0,1,328.13,158.76Z"/><path class="cls-7" d="M338.25,149.69a6.06,6.06,0,0,0-3.21,1,7.77,7.77,0,0,0-2.58,2.72,6.67,6.67,0,0,0-1,3.42,3.55,3.55,0,0,0,.83,2.27,3,3,0,0,0,2.47,1q2.4,0,5.06-2.63l-.23-.33a12.89,12.89,0,0,1-2.22,1.47,3.75,3.75,0,0,1-1.55.33,2.36,2.36,0,0,1-1.71-.7,2.33,2.33,0,0,1-.71-1.7,7.28,7.28,0,0,1,.08-.93,15.62,15.62,0,0,0,3.53-.72,6.77,6.77,0,0,0,2.87-1.79,2.71,2.71,0,0,0,.74-1.78,1.48,1.48,0,0,0-.57-1.15A2.7,2.7,0,0,0,338.25,149.69Zm0,3.25a5.45,5.45,0,0,1-2.07,1.47,9.45,9.45,0,0,1-2.7.65,7.26,7.26,0,0,1,1.89-3.59,3.66,3.66,0,0,1,2.42-1.22,1.18,1.18,0,0,1,.85.29,1,1,0,0,1,.3.77A2.68,2.68,0,0,1,338.29,152.94Z"/><path class="cls-7" d="M351.91,149.69l-3.87.63v.44a9.67,9.67,0,0,1,1-.13.73.73,0,0,1,.48.16.53.53,0,0,1,.17.4,8,8,0,0,1-.36,1.55l-1.46,5a6.06,6.06,0,0,0-.28,1.38.92.92,0,0,0,.3.69,1,1,0,0,0,.75.27,2.41,2.41,0,0,0,1.45-.59,8.06,8.06,0,0,0,1.8-2l-.4-.26a6.59,6.59,0,0,1-1.28,1.43.74.74,0,0,1-.41.18.31.31,0,0,1-.25-.11.4.4,0,0,1-.11-.29,6,6,0,0,1,.23-.95Z"/><path class="cls-7" d="M351.76,145.24a1.11,1.11,0,0,0-1.12,1.12,1.07,1.07,0,0,0,.33.79,1.09,1.09,0,0,0,1.58,0,1.07,1.07,0,0,0,.33-.79,1.11,1.11,0,0,0-1.12-1.12Z"/><path class="cls-7" d="M361.9,158.76a.64.64,0,0,1-.33.14.26.26,0,0,1-.19-.1.42.42,0,0,1-.09-.27,5.47,5.47,0,0,1,.24-1l1.37-4.72a7.13,7.13,0,0,0,.32-1.79,1.34,1.34,0,0,0-.36-1,1.28,1.28,0,0,0-.93-.37,3.3,3.3,0,0,0-2.14,1,23.44,23.44,0,0,0-3.21,4.11l1.49-5.1-3.88.7.07.4.42-.07a4.07,4.07,0,0,1,.47,0,.69.69,0,0,1,.49.18.6.6,0,0,1,.2.44,9.35,9.35,0,0,1-.36,1.52l-2,7h1.68l.56-1.85a10.24,10.24,0,0,1,.88-2.08,22.61,22.61,0,0,1,1.89-3,6.8,6.8,0,0,1,1.72-1.67,1.56,1.56,0,0,1,.75-.27.49.49,0,0,1,.36.14.5.5,0,0,1,.15.37,4.84,4.84,0,0,1-.25,1.31l-1.3,4.5a8.09,8.09,0,0,0-.38,1.85.91.91,0,0,0,.25.68.86.86,0,0,0,.66.25,2.08,2.08,0,0,0,1.16-.44,8.42,8.42,0,0,0,2-2.12l-.35-.22A7.35,7.35,0,0,1,361.9,158.76Z"/><path class="cls-7" d="M380.54,158.78a1.2,1.2,0,0,1-.16-.68c0-.19,0-.58.08-1.17l1.16-12.64h-.39l-9.08,12.35a13,13,0,0,1-1.89,2.22,2.36,2.36,0,0,1-1.46.56l-.12.41h4.49l.12-.41a1.57,1.57,0,0,1-1-.28.81.81,0,0,1-.29-.62,1.46,1.46,0,0,1,.13-.58,6.59,6.59,0,0,1,.66-1l1.55-2.09h4.35l-.18,1.92a8.36,8.36,0,0,1-.24,1.64,1.31,1.31,0,0,1-.5.7,2.06,2.06,0,0,1-1.19.32h-.26l-.12.41h6l.13-.41a3.26,3.26,0,0,1-1.23-.16A1.29,1.29,0,0,1,380.54,158.78ZM378.82,154H375l4.4-6Z"/><path class="cls-7" d="M390.91,150.22a2.65,2.65,0,0,1-.77-.22,6.2,6.2,0,0,0-.73-.25,3.34,3.34,0,0,0-.65-.06,2.85,2.85,0,0,0-2,.75,2.47,2.47,0,0,0-.79,1.84,2.74,2.74,0,0,0,.29,1.19,10,10,0,0,0,1.29,1.78,9.3,9.3,0,0,1,1.31,1.86,1.9,1.9,0,0,1,.18.83,1.54,1.54,0,0,1-.5,1.17,1.86,1.86,0,0,1-1.35.48,2.22,2.22,0,0,1-1.74-.71,3.75,3.75,0,0,1-.71-2.41h-.41l-.69,3.63H384a.81.81,0,0,1,.76-.51,1.82,1.82,0,0,1,.57.13,5.65,5.65,0,0,0,1.86.38,3.46,3.46,0,0,0,2.45-.9,2.78,2.78,0,0,0,1-2.07,3.32,3.32,0,0,0-.43-1.52,13.38,13.38,0,0,0-1.88-2.4,4.52,4.52,0,0,1-.71-.94,1.58,1.58,0,0,1-.17-.71,1.25,1.25,0,0,1,.41-.92,1.59,1.59,0,0,1,1.11-.38,1.82,1.82,0,0,1,1.44.69,3.53,3.53,0,0,1,.64,2.18h.42l.68-3.44h-.43A.93.93,0,0,1,390.91,150.22Z"/><path class="cls-7" d="M397.88,145.24a1.08,1.08,0,0,0-.8.33,1.12,1.12,0,0,0,0,1.58,1,1,0,0,0,.79.34,1.06,1.06,0,0,0,.79-.34,1.12,1.12,0,0,0-.79-1.91Z"/><path class="cls-7" d="M398,149.69l-3.86.63v.44a9.08,9.08,0,0,1,1-.13.68.68,0,0,1,.47.16.5.5,0,0,1,.18.4,8,8,0,0,1-.36,1.55l-1.46,5a5.54,5.54,0,0,0-.28,1.38.94.94,0,0,0,.29.69,1.08,1.08,0,0,0,.75.27,2.43,2.43,0,0,0,1.46-.59,8,8,0,0,0,1.79-2l-.39-.26a6.36,6.36,0,0,1-1.29,1.43.72.72,0,0,1-.4.18.31.31,0,0,1-.25-.11.36.36,0,0,1-.11-.29,5.47,5.47,0,0,1,.22-.95Z"/><path class="cls-7" d="M407.7,157.29l2.19-7.6-1.78.27-.41,1.28a2.18,2.18,0,0,0-.69-1.19,1.76,1.76,0,0,0-1.13-.36,4.24,4.24,0,0,0-2.44.94,9.36,9.36,0,0,0-2.71,3.17,7.85,7.85,0,0,0-1.07,3.76,2.75,2.75,0,0,0,.59,1.86,1.81,1.81,0,0,0,1.41.68,3.26,3.26,0,0,0,1.74-.55,11,11,0,0,0,2.7-2.68l-.24.85a5.77,5.77,0,0,0-.24,1.44.94.94,0,0,0,.24.7,1,1,0,0,0,.72.24,2.56,2.56,0,0,0,1.51-.61,7.2,7.2,0,0,0,1.6-1.77l-.39-.27a6.42,6.42,0,0,1-1.16,1.34.7.7,0,0,1-.38.18.29.29,0,0,1-.23-.1.5.5,0,0,1-.11-.32.85.85,0,0,1,0-.24Zm-2.34-.29c-1,1.2-1.84,1.8-2.66,1.8a1.14,1.14,0,0,1-.87-.44,1.83,1.83,0,0,1-.38-1.21,8.07,8.07,0,0,1,.89-3.38,8.21,8.21,0,0,1,2-2.82,2.44,2.44,0,0,1,1.53-.67,1.29,1.29,0,0,1,1,.42,2.11,2.11,0,0,1,.37,1.38A7.82,7.82,0,0,1,405.36,157Z"/><polygon class="cls-7" points="411.2 155.6 417 155.6 417.46 154.11 411.66 154.11 411.2 155.6"/><path class="cls-7" d="M427.8,144.64h-6l-.12.41a2.74,2.74,0,0,1,1.4.32.78.78,0,0,1,.32.65,9.59,9.59,0,0,1-.45,2.08l-2.51,8.65a5.44,5.44,0,0,1-1,2.26,2.55,2.55,0,0,1-1.65.41l-.12.41h6l.12-.41a3.22,3.22,0,0,1-1.45-.3.74.74,0,0,1-.3-.6,9.44,9.44,0,0,1,.42-2l1.21-4.14a12.53,12.53,0,0,0,2.68.38,7.4,7.4,0,0,0,3.15-.68,5.27,5.27,0,0,0,2.2-1.77,3.94,3.94,0,0,0,.74-2.24,3.16,3.16,0,0,0-1.17-2.47A5.28,5.28,0,0,0,427.8,144.64Zm1.95,5.39a3.63,3.63,0,0,1-1.57,1.51,4.85,4.85,0,0,1-2.23.51,8.61,8.61,0,0,1-2-.33l1.75-6.05a10.72,10.72,0,0,1,1.85-.19,3,3,0,0,1,2.11.66,2.37,2.37,0,0,1,.69,1.79A4.29,4.29,0,0,1,429.75,150Z"/><path class="cls-7" d="M440.83,157.29l2.19-7.6-1.79.27-.4,1.28a2.18,2.18,0,0,0-.69-1.19,1.76,1.76,0,0,0-1.13-.36,4.24,4.24,0,0,0-2.44.94,9.36,9.36,0,0,0-2.71,3.17,7.85,7.85,0,0,0-1.07,3.76,2.7,2.7,0,0,0,.59,1.86,1.81,1.81,0,0,0,1.41.68,3.26,3.26,0,0,0,1.74-.55,11,11,0,0,0,2.7-2.68l-.24.85a5.77,5.77,0,0,0-.24,1.44.94.94,0,0,0,.24.7,1,1,0,0,0,.72.24,2.56,2.56,0,0,0,1.51-.61,7.2,7.2,0,0,0,1.6-1.77l-.39-.27a6.42,6.42,0,0,1-1.16,1.34.74.74,0,0,1-.38.18.29.29,0,0,1-.23-.1.5.5,0,0,1-.11-.32.85.85,0,0,1,0-.24Zm-2.34-.29c-1,1.2-1.84,1.8-2.66,1.8a1.14,1.14,0,0,1-.87-.44,1.83,1.83,0,0,1-.38-1.21,8.07,8.07,0,0,1,.89-3.38,8.21,8.21,0,0,1,2-2.82,2.44,2.44,0,0,1,1.53-.67,1.29,1.29,0,0,1,1,.42,2.11,2.11,0,0,1,.37,1.38A7.82,7.82,0,0,1,438.49,157Z"/><path class="cls-7" d="M451.06,149.69a5.85,5.85,0,0,0-3.17,1,7.81,7.81,0,0,0-2.58,2.69,6.68,6.68,0,0,0-1,3.38,3.3,3.3,0,0,0,.89,2.41,3.38,3.38,0,0,0,2.48.89,5.19,5.19,0,0,0,2.51-.65,8.73,8.73,0,0,0,2.36-2.06l-.33-.29a7.33,7.33,0,0,1-1.9,1.56,3.67,3.67,0,0,1-1.71.43,2.39,2.39,0,0,1-1.77-.66,2.51,2.51,0,0,1-.65-1.81,7.31,7.31,0,0,1,.92-3.45A6.34,6.34,0,0,1,449,151a3.66,3.66,0,0,1,2.17-.77,1.61,1.61,0,0,1,.92.22.49.49,0,0,1,.21.39.52.52,0,0,1-.05.24,2.36,2.36,0,0,1-.32.36,1.64,1.64,0,0,0-.35.43,1,1,0,0,0-.08.4.73.73,0,0,0,.23.56.77.77,0,0,0,.57.22,1,1,0,0,0,.78-.38,1.77,1.77,0,0,0,.42-1.19,1.59,1.59,0,0,0-.6-1.25A2.79,2.79,0,0,0,451.06,149.69Z"/><path class="cls-7" d="M459,147.49a1,1,0,0,0,.79-.34,1.11,1.11,0,0,0,0-1.58,1.06,1.06,0,0,0-.79-.33,1.11,1.11,0,0,0-1.12,1.12,1.07,1.07,0,0,0,.33.79A1,1,0,0,0,459,147.49Z"/><path class="cls-7" d="M459.19,157.55l-.4-.26a6.36,6.36,0,0,1-1.29,1.43.69.69,0,0,1-.4.18.31.31,0,0,1-.25-.11.4.4,0,0,1-.11-.29,6,6,0,0,1,.23-.95l2.22-7.86-3.87.63v.44a9.08,9.08,0,0,1,1-.13.73.73,0,0,1,.48.16.53.53,0,0,1,.17.4,8,8,0,0,1-.36,1.55l-1.46,5a6.06,6.06,0,0,0-.28,1.38.92.92,0,0,0,.3.69,1,1,0,0,0,.75.27,2.43,2.43,0,0,0,1.45-.59A8.06,8.06,0,0,0,459.19,157.55Z"/><path class="cls-7" d="M471.94,149.69l-3.87.63v.44a9.08,9.08,0,0,1,1-.13.73.73,0,0,1,.48.16.53.53,0,0,1,.17.4,8,8,0,0,1-.36,1.55l-1.46,5a6.06,6.06,0,0,0-.28,1.38.92.92,0,0,0,.3.69,1,1,0,0,0,.75.27,2.43,2.43,0,0,0,1.45-.59,8.06,8.06,0,0,0,1.8-2l-.4-.26a6.36,6.36,0,0,1-1.29,1.43.69.69,0,0,1-.4.18.31.31,0,0,1-.25-.11.4.4,0,0,1-.11-.29,6,6,0,0,1,.23-.95Z"/><path class="cls-7" d="M471.79,145.24a.41.41,0,1,1-.7,0,1.23,1.23,0,0,0-.51-.94,2,2,0,0,0-1.37-.43,3.64,3.64,0,0,0-1.72.5,6.07,6.07,0,0,0-1.74,1.49,12,12,0,0,0-1.27,2.09,6.77,6.77,0,0,1-.8,1.36,1.53,1.53,0,0,1-.67.49,4.34,4.34,0,0,1-1.3.13l-.16.74h1.95l-1.95,7.59c-.46,1.75-.74,2.79-.84,3.1a6.91,6.91,0,0,1-.79,1.73,2.86,2.86,0,0,1-.94.9,2.13,2.13,0,0,1-1,.31.52.52,0,0,1-.31-.08.19.19,0,0,1-.08-.16q0-.08.18-.24a.6.6,0,0,0,.24-.46.57.57,0,0,0-.21-.43.72.72,0,0,0-.51-.19,1,1,0,0,0-.7.26.83.83,0,0,0-.29.62.9.9,0,0,0,.35.73,1.67,1.67,0,0,0,1.14.4,3.55,3.55,0,0,0,2.06-.72,8.71,8.71,0,0,0,2.54-3.45,29,29,0,0,0,1.64-5l1.24-4.9h1.63l.2-.74h-1.64a31.34,31.34,0,0,1,1.11-3.28,5,5,0,0,1,1.34-1.86,2,2,0,0,1,1.27-.45.72.72,0,0,1,.42.11.28.28,0,0,1,.1.24,1,1,0,0,1-.14.35,1,1,0,0,0-.15.44.64.64,0,0,0,.22.49.82.82,0,0,0,.57.2.91.91,0,0,0,.56-.2,1,1,0,0,0-.07.36,1.07,1.07,0,0,0,.33.79,1.09,1.09,0,0,0,1.58,0,1.11,1.11,0,0,0,0-1.58A1.06,1.06,0,0,0,471.79,145.24Z"/><path class="cls-7" d="M481.23,151.41a1.64,1.64,0,0,0-.35.43.87.87,0,0,0-.08.4.73.73,0,0,0,.23.56.77.77,0,0,0,.57.22,1,1,0,0,0,.78-.38,1.77,1.77,0,0,0,.42-1.19,1.59,1.59,0,0,0-.6-1.25,2.79,2.79,0,0,0-1.83-.51,5.9,5.9,0,0,0-3.18,1,7.88,7.88,0,0,0-2.57,2.69,6.68,6.68,0,0,0-1,3.38,3.3,3.3,0,0,0,.89,2.41,3.38,3.38,0,0,0,2.48.89,5.19,5.19,0,0,0,2.51-.65,8.73,8.73,0,0,0,2.36-2.06l-.33-.29a7.49,7.49,0,0,1-1.9,1.56,3.67,3.67,0,0,1-1.71.43,2.39,2.39,0,0,1-1.77-.66,2.51,2.51,0,0,1-.65-1.81,7.31,7.31,0,0,1,.92-3.45,6.34,6.34,0,0,1,1.84-2.2,3.66,3.66,0,0,1,2.17-.77,1.61,1.61,0,0,1,.92.22.49.49,0,0,1,.21.39.52.52,0,0,1-.05.24A2.36,2.36,0,0,1,481.23,151.41Z"/></svg>