<svg id="Layer_1" data-name="Layer 1" xmlns="http://www.w3.org/2000/svg" viewBox="0 0 595.28 175.75"><defs><style>.cls-1,.cls-3{fill:#231815;}.cls-2{fill:#ce1f3a;}.cls-2,.cls-3{fill-rule:evenodd;}</style></defs><path class="cls-1" d="M144.61,129.3c2-4.57,6.52-16.43,7.26-18.89a5.31,5.31,0,0,0,.32-1.29.9.9,0,0,0-.45-.8,4.46,4.46,0,0,0-1.29-.13c-.21,0-.37,0-.37-.21s.21-.27.74-.27c1.37,0,2.93.11,3.33.11.21,0,1.66-.11,2.64-.11.37,0,.58.08.58.24s-.13.24-.4.24a3.22,3.22,0,0,0-1.64.4c-.44.31-1,.9-1.87,3.19-.37,1-2.06,5-3.81,9.23-2.06,5-3.59,8.64-4.38,10.3-1,2-1.09,2.59-1.43,2.59s-.58-.47-1.22-2.11l-8.32-20.85c-.74-1.9-1.27-2.27-2.46-2.62a5.44,5.44,0,0,0-1.29-.13c-.21,0-.27-.11-.27-.24s.35-.24.9-.24c1.64,0,3.57.11,4,.11s1.88-.11,3.17-.11c.61,0,.93.08.93.24s-.11.24-.34.24a4.26,4.26,0,0,0-1.3.16.7.7,0,0,0-.45.69,12,12,0,0,0,.93,2.82Z"/><path class="cls-1" d="M169.76,123.6c0,3.27,0,5.94.16,7.37.11,1,.32,1.74,1.32,1.87a12.16,12.16,0,0,0,1.54.14c.21,0,.26.1.26.21s-.16.26-.56.26c-1.87,0-4-.1-4.17-.1s-2.33.1-3.33.1c-.37,0-.56-.08-.56-.26s.08-.21.27-.21a6.07,6.07,0,0,0,1-.14c.69-.13.85-.87,1-1.87.16-1.43.16-4.12.16-7.37v-6c0-5.31,0-6.26-.08-7.35s-.4-1.74-1.17-1.9a4,4,0,0,0-1.05-.13c-.14,0-.27-.08-.27-.21s.16-.27.56-.27c1.11,0,3.27.11,3.43.11s2.33-.11,3.33-.11c.37,0,.56.08.56.27s-.13.21-.27.21a3.87,3.87,0,0,0-.84.1c-.93.16-1.19.74-1.27,1.93s-.08,2-.08,7.35v6Z"/><path class="cls-1" d="M183.9,117.6c0-5.31,0-6.26-.08-7.35s-.34-1.69-1.45-1.93a5.49,5.49,0,0,0-1.17-.1.24.24,0,0,1-.26-.21c0-.22.16-.27.56-.27,1.53,0,3.54.11,3.75.11s2.27-.11,3.3-.11c.37,0,.56.08.56.27s-.14.21-.27.21a3.8,3.8,0,0,0-.84.1c-.93.16-1.19.74-1.27,1.93s-.08,2-.08,7.35v2h.13c.58-.63,6.74-6.89,7.95-8.24,1-1,1.83-1.88,1.83-2.46a.65.65,0,0,0-.45-.71c-.16-.08-.32-.14-.32-.27s.16-.24.4-.24c.68,0,1.74.11,2.53.11.16,0,2.41-.11,3.28-.11.37,0,.5.08.5.24s-.08.24-.34.24a4.82,4.82,0,0,0-1.9.48c-1.4.6-2.14,1.45-3.68,2.93-.84.82-6.76,6.61-7.47,7.45.89,1,7.95,8.3,9.35,9.59,2.85,2.65,3.43,3.2,5.07,3.89a6.48,6.48,0,0,0,2.12.45c.23,0,.45.08.45.21s-.16.26-.74.26h-1.75a21.08,21.08,0,0,1-2.35-.08c-1.8-.16-2.64-.92-4.12-2.06s-8.75-9.06-10.39-11h-.15v3.33c0,3.27,0,5.94.15,7.37.11,1,.32,1.74,1.32,1.87a9.88,9.88,0,0,0,1.33.14c.21,0,.26.1.26.21s-.16.26-.55.26c-1.67,0-3.65-.1-3.92-.1s-2.24.1-3.27.1c-.37,0-.56-.08-.56-.26s.08-.21.27-.21a6.21,6.21,0,0,0,1-.14c.68-.13.84-.87,1-1.87.15-1.43.15-4.12.15-7.37v-6Z"/><path class="cls-1" d="M217.12,123.6c0,3.27,0,5.94.15,7.37.11,1,.32,1.74,1.32,1.87a12.16,12.16,0,0,0,1.54.14c.21,0,.26.1.26.21s-.16.26-.55.26c-1.88,0-4-.1-4.18-.1s-2.32.1-3.33.1c-.37,0-.55-.08-.55-.26s.08-.21.26-.21a5.94,5.94,0,0,0,1-.14c.69-.13.85-.87,1-1.87.16-1.43.16-4.12.16-7.37v-6c0-5.31,0-6.26-.08-7.35s-.4-1.74-1.16-1.9a4,4,0,0,0-1.06-.13.24.24,0,0,1-.26-.21c0-.22.15-.27.55-.27,1.14,0,3.28.11,3.44.11s2.29-.11,3.32-.11c.37,0,.56.08.56.27a.24.24,0,0,1-.26.21,3.94,3.94,0,0,0-.85.1c-.92.16-1.19.74-1.27,1.93s-.08,2-.08,7.35v6Z"/><path class="cls-1" d="M232.52,128.83c.08,2.8.4,3.67,1.32,3.94a8.93,8.93,0,0,0,1.69.21c.16,0,.27.08.27.21s-.21.26-.61.26c-1.93,0-3.3-.1-3.59-.1s-1.75.1-3.28.1c-.34,0-.56,0-.56-.26s.11-.21.27-.21a4.75,4.75,0,0,0,1.4-.21c.84-.24,1-1.22,1-4.34l0-19.5c0-1.32.1-1.69.37-1.69s.84.74,1.18,1.08c.51.58,5.58,6.05,10.81,11.68,3.36,3.6,7.08,7.77,8.17,8.88l-.37-17.28c0-2.22-.27-3-1.32-3.22a8.58,8.58,0,0,0-1.67-.16c-.24,0-.26-.11-.26-.24s.26-.24.68-.24c1.54,0,3.18.11,3.55.11s1.5-.11,2.88-.11c.37,0,.6,0,.6.24s-.13.24-.37.24a3.09,3.09,0,0,0-.82.1c-1.11.24-1.26,1-1.26,3l-.08,19.93c0,2.24-.08,2.4-.32,2.4s-.69-.37-2.48-2.17c-.37-.34-5.29-5.33-8.88-9.22-3.94-4.25-7.8-8.53-8.88-9.75Z"/><path class="cls-1" d="M281.51,124.79c0-2.75-.16-3.12-1.53-3.52a5.44,5.44,0,0,0-1.16-.11c-.14,0-.27-.07-.27-.21s.16-.26.56-.26c1.53,0,3.67.11,3.83.11s2.32-.11,3.33-.11c.37,0,.55.08.55.26s-.13.21-.26.21a4.08,4.08,0,0,0-.85.11c-.92.16-1.19.74-1.27,1.93s-.07,2.11-.07,3.54v3.81c0,1.53,0,1.61-.45,1.82a16.75,16.75,0,0,1-7.22,1.53c-2.59,0-7.42-.34-11.2-3.65a13.3,13.3,0,0,1-4-9.69,12.92,12.92,0,0,1,5.68-11.21,16.74,16.74,0,0,1,9.06-2.14,30,30,0,0,1,5.21.58,17.5,17.5,0,0,0,2.74.35c.35,0,.43.16.43.31a42.92,42.92,0,0,0-.24,4.84c0,.56-.08.71-.32.71s-.21-.21-.24-.5a5.14,5.14,0,0,0-.71-2.24c-.85-1.3-3.59-2.75-8-2.75a10.84,10.84,0,0,0-7.26,2.24c-2,1.56-3.39,4.65-3.39,8.64a13.91,13.91,0,0,0,3.6,9.44,12.43,12.43,0,0,0,8.9,3.64,9.57,9.57,0,0,0,3.89-.71,1.22,1.22,0,0,0,.68-1.19v-5.78Z"/><path class="cls-1" d="M306.77,130.18a13,13,0,0,1-4.08-10,13.65,13.65,0,0,1,3.81-9.27c2-2,5.1-3.63,10.33-3.63a28.59,28.59,0,0,1,4.92.4,26.47,26.47,0,0,0,3.46.48c.35,0,.44.18.44.36s-.09.66-.18,1.9-.08,3-.08,3.51-.09.71-.31.71-.27-.23-.27-.71a4.66,4.66,0,0,0-1.42-3.46,11.32,11.32,0,0,0-6.78-2c-4.52,0-6.61,1.33-7.8,2.48-2.49,2.35-3.06,5.41-3.06,8.87A12.23,12.23,0,0,0,318,132.26c2.53,0,4.52-.31,5.9-1.68a6.3,6.3,0,0,0,1.24-2.84c0-.36.13-.49.35-.49s.23.22.23.49a32.44,32.44,0,0,1-.76,4.34c-.22.67-.26.71-.88,1a20.19,20.19,0,0,1-6.12.8c-5.06,0-8.47-1.29-11.17-3.68"/><path class="cls-1" d="M336.2,117.59c0-5.28,0-6.25-.09-7.32s-.35-1.68-1.46-1.9a4.75,4.75,0,0,0-1.15-.09c-.13,0-.27,0-.27-.22s.18-.27.53-.27c1.51,0,3.68.09,3.82.09.35,0,2.92-.09,4-.09a10.46,10.46,0,0,1,6.2,1.51,5.93,5.93,0,0,1,2.35,4.61c0,2.52-1.06,5-4.08,7.84,2.8,3.55,5.1,6.57,7,8.69a6.84,6.84,0,0,0,4.13,2.44,9,9,0,0,0,1.33.09c.17,0,.31.09.31.22s-.22.27-.8.27h-2.39a6.75,6.75,0,0,1-3.64-.67c-1.46-.79-2.66-2.44-4.57-5-1.42-1.86-3-4.13-3.68-5a.54.54,0,0,0-.44-.22l-4.17,0c-.17,0-.22.09-.22.27v.8c0,3.23,0,5.94.18,7.36.09,1,.31,1.72,1.33,1.86A10.24,10.24,0,0,0,342,133c.22,0,.26.09.26.22s-.18.27-.53.27c-1.86,0-4-.09-4.17-.09s-2.17.09-3.19.09c-.35,0-.53-.09-.53-.27a.25.25,0,0,1,.26-.22,3.91,3.91,0,0,0,1-.13c.67-.14.85-.89,1-1.86.18-1.42.18-4.08.18-7.36v-6Zm2.71,2.92a.47.47,0,0,0,.22.4,9.25,9.25,0,0,0,3.55.53,4.3,4.3,0,0,0,2.52-.62c1.2-.79,2.09-2.66,2.09-5.23,0-4.21-2.26-6.78-5.86-6.78a8.26,8.26,0,0,0-2.26.22.43.43,0,0,0-.26.4Z"/><path class="cls-1" d="M362.14,117.59c0-5.28,0-6.25-.09-7.32s-.36-1.68-1.46-2a4.88,4.88,0,0,0-1.16-.09.25.25,0,0,1-.26-.22c0-.22.17-.27.53-.27,1.51,0,3.59.09,3.9.09s2.35-.09,3.37-.09c.35,0,.53.09.53.27a.25.25,0,0,1-.26.22c-.23,0-.45,0-.85.09-.93.13-1.19.75-1.24,2s-.09,2-.09,7.32v4.74c0,4.88,1.11,7,2.53,8.38a6.62,6.62,0,0,0,5.1,1.86,7.09,7.09,0,0,0,5.32-2.44c1.55-1.95,1.95-4.83,1.95-8.29v-4.25c0-5.28,0-6.25-.09-7.32s-.35-1.68-1.46-2a4.79,4.79,0,0,0-1.15-.09A.25.25,0,0,1,377,108c0-.22.18-.27.53-.27,1.51,0,3.37.09,3.59.09s1.82-.09,2.84-.09c.35,0,.53.09.53.27a.25.25,0,0,1-.26.22,3.33,3.33,0,0,0-.85.09c-.93.18-1.19.75-1.24,2s0,2,0,7.32v3.63c0,3.68-.4,7.72-3.11,10.15a9.85,9.85,0,0,1-7,2.53c-1.15,0-4.56-.13-7-2.39-1.64-1.6-2.92-3.95-2.92-8.91Z"/><path class="cls-1" d="M397.6,123.53c0,3.23,0,5.94.18,7.36.09,1,.31,1.73,1.33,1.86.49,0,1.2.13,1.51.13s.27.09.27.22-.18.27-.54.27c-1.86,0-4-.09-4.16-.09s-2.31.09-3.33.09c-.35,0-.53-.09-.53-.27a.25.25,0,0,1,.26-.22,8.62,8.62,0,0,0,1-.13c.67-.13.85-.89,1-1.86.18-1.42.18-4.08.18-7.36v-6c0-5.27,0-6.25,0-7.31s-.4-1.73-1.15-1.91a4.84,4.84,0,0,0-1.06-.13c-.14,0-.27,0-.27-.22s.18-.27.53-.27c1.11,0,3.24.09,3.42.09s2.3-.09,3.32-.09c.36,0,.53,0,.53.27a.25.25,0,0,1-.26.22,7.71,7.71,0,0,0-.85.09c-.93.17-1.19.75-1.24,1.9s-.09,2-.09,7.32Z"/><path class="cls-1" d="M408.87,132.93c-.49-.23-.49-.36-.49-1.29,0-1.68.13-3.06.17-3.59.05-.36.09-.53.27-.53s.22.09.22.35a6.38,6.38,0,0,0,.09,1.24c.53,2.53,2.75,3.46,5,3.46a4.53,4.53,0,0,0,4.83-4.52c0-2.35-1-3.68-3.9-6.12l-1.51-1.24c-3.59-3-4.38-5-4.38-7.36,0-3.63,2.7-6.12,7-6.12a12.13,12.13,0,0,1,3.15.36,5.87,5.87,0,0,0,1.19.17c.27,0,.36.09.36.23s-.13,1.28-.13,3.59c0,.53-.09.8-.23.8s-.22-.18-.26-.45a5.71,5.71,0,0,0-.44-1.68c-.23-.36-1.11-1.78-4.22-1.78a3.85,3.85,0,0,0-4.16,4c0,1.95.93,3.1,4.12,5.67l.93.76c4,3.15,5,5.23,5,8a7.07,7.07,0,0,1-2.89,5.63,8.85,8.85,0,0,1-5.09,1.42,10.77,10.77,0,0,1-4.61-.93"/><path class="cls-1" d="M431.7,117.59c0-5.28,0-6.25-.09-7.32s-.36-1.68-1.46-2a4.88,4.88,0,0,0-1.16-.09.25.25,0,0,1-.26-.22c0-.22.17-.27.53-.27,1.51,0,3.63.09,3.81.09s7,0,7.76,0a7.83,7.83,0,0,0,1.46-.18c.18,0,.31-.18.49-.18s.13.14.13.31-.17.67-.26,1.6c0,.36-.09,1.82-.18,2.26,0,.18-.09.36-.22.36s-.27-.18-.27-.45a3.35,3.35,0,0,0-.22-1.19c-.22-.54-.58-1-2.39-1.16-.58-.09-4.26-.09-4.66-.09-.13,0-.22.09-.22.36v9.35c0,.23,0,.36.22.36.44,0,4.61,0,5.37,0s1.28-.13,1.59-.48.36-.45.49-.45.18.09.18.27-.18.8-.27,1.91c-.09.66-.13,2-.13,2.17s0,.66-.22.66-.23-.13-.23-.31a3.55,3.55,0,0,0-.13-1.11c-.13-.48-.44-1.06-1.77-1.19-.93-.09-4.26-.18-4.83-.18-.18,0-.23.09-.23.22v3c0,1.15,0,5.1,0,5.81.09,2.35.62,2.79,4,2.79a10.24,10.24,0,0,0,3.24-.35c.88-.36,1.28-1.07,1.5-2.44,0-.36.14-.53.31-.53s.23.26.23.53a30.51,30.51,0,0,1-.45,3.28c-.22.89-.49.89-1.82.89-5.09,0-7.4-.22-8.37-.22-.05,0-.63,0-1.33,0s-1.47.09-2,.09-.53-.09-.53-.27.05-.18.27-.18a7.11,7.11,0,0,0,1-.13c.66-.13.84-.88,1-1.86.18-1.42.18-4.08.18-7.36v-6.07Z"/><path class="cls-1" d="M452.4,132.93c-.49-.23-.49-.36-.49-1.29,0-1.68.14-3.06.18-3.59,0-.36.09-.53.27-.53s.22.09.22.35a6.38,6.38,0,0,0,.09,1.24c.53,2.53,2.74,3.46,5,3.46a4.53,4.53,0,0,0,4.83-4.52c0-2.35-1-3.68-3.9-6.12l-1.51-1.24c-3.59-3-4.39-5-4.39-7.36,0-3.63,2.7-6.12,7-6.12a12,12,0,0,1,3.14.36,5.85,5.85,0,0,0,1.2.17c.27,0,.35.09.35.23s-.13,1.28-.13,3.59c0,.53-.09.8-.22.8s-.22-.18-.27-.45a5.42,5.42,0,0,0-.44-1.68c-.22-.36-1.11-1.78-4.21-1.78a3.86,3.86,0,0,0-4.17,4c0,1.95.93,3.1,4.12,5.67l.94.76c4,3.15,5,5.23,5,8a7.06,7.06,0,0,1-2.88,5.63,8.86,8.86,0,0,1-5.1,1.42,10.8,10.8,0,0,1-4.61-.93"/><path class="cls-2" d="M258.41,12.39h8.13c23.07,16.43,32.74,25.89,31.07,34.11-2,9.63-14.08,16.73-39.16,27.81L255,74.14c28.59-12.07,38.73-21.91,36.68-29.95-2.18-8.65-10.66-14.55-33.25-31.8"/><path class="cls-2" d="M274.46,12.35l8,0c23.84,16.26,30,27.17,26.32,33.76-6.33,11.43-21,18.66-44.21,27.95l-3.38.21c24.95-10.78,41.51-20,42.46-30.12.81-8.44-6.47-14.68-29.23-31.84"/><path class="cls-2" d="M290.51,12.39h8c23.15,16.35,26.75,26.36,21.78,34C312.72,58,295.43,65,271.46,74.31h-3.59C297.82,62,310.49,55,314.56,46.11c4.79-10.48-3.56-17.93-24.05-33.72"/><path class="cls-2" d="M306.55,12.39h8c21.69,18.23,22.55,27,17.84,33.55-8.13,11.3-32.82,22.51-54.56,28.37h-3.6c26.15-9.11,44.3-15.92,52.17-28.5,5.52-8.81,0-16.9-19.86-33.42"/><path class="cls-2" d="M322.56,12.39h8c13.31,13.82,18.06,25.68,13.35,33.68-9.41,16-40.1,23.71-59.65,28.24h-3.6C307.28,67,331.25,58.82,337.88,46c3.89-7.36,1.63-17-15.32-33.64"/><path class="cls-2" d="M354.78,30.23c4.37,34.37-28.07,40.53-28.45,40.87-2.14.69-7,1.89-7,1.89-19.73,3.93-47.2,4.19-61.41,2C242.7,72.69,232.3,67.72,230,58.65c11.43,18,66.34,18.06,95.31,9.24,18.74-6.76,26.75-18.65,26.53-36.41-.08-1.84-.13-6.6,1.84-8.78,2.74-2.95,9.25-2.05,9.85,2.48.85,6.51-8,6.59-7.62,1.29.17-2.57,4.28-3.6,5.05-1a1.92,1.92,0,0,1-2.87,2.14c-.6-.42-.64-.72-.43-1.15a.67.67,0,0,1,1,0,.61.61,0,0,0,.9.34c.77-.42.13-2.14-1.46-1.58a1.88,1.88,0,0,0-.08,3.17c3.46,1.62,5.09-2.61,3-4.63a3.06,3.06,0,0,0-2.74-.94c-3.26.22-3.77,3.85-3.56,7.36"/><path class="cls-3" d="M333.9,85.18s5.86.3,14.94-3.89c8.51-3.94,26.74-17.63,9.11-46.05-.43,5-.43,20.76-15.58,31.33-14.12,11.21-74.89,16.39-100,6.63-10.4-5-12.45-11-12.45-11S232,84.41,241.93,85Z"/><path class="cls-1" d="M360.86,79.24a3,3,0,0,1,2.95,3,2.92,2.92,0,0,1-2.95,3,3,3,0,0,1-2.95-3,2.91,2.91,0,0,1,2.95-3Zm0,.47a2.45,2.45,0,0,0-2.4,2.52,2.49,2.49,0,0,0,2.4,2.57,2.45,2.45,0,0,0,2.4-2.53,2.41,2.41,0,0,0-2.4-2.56ZM360.26,84h-.55V80.65a6.12,6.12,0,0,1,.94-.09,1.52,1.52,0,0,1,1,.26.79.79,0,0,1,.29.68.83.83,0,0,1-.64.82v0c.3,0,.52.3.56.81a3,3,0,0,0,.21.82h-.55a2,2,0,0,1-.22-.86.64.64,0,0,0-.72-.6h-.39V84Zm0-1.89h.39c.43,0,.81-.17.81-.55s-.21-.6-.81-.6a1.06,1.06,0,0,0-.39,0Z"/><rect class="cls-1" x="255.2" y="11.62" width="78.32" height="1.11"/><rect class="cls-1" x="296.71" y="5.67" width="1.11" height="6.38"/><path class="cls-1" d="M142.48,149.11c.81-2.53.81-2.87-.6-3.17l-.56-.13a.43.43,0,0,1,.17-.68c.47,0,.95,0,1.42,0s1,0,1.54,0h5.05c1.71,0,2.95,0,3.76-.08-.17.47-.81,2.57-1.11,3.55-.09.21-.6.17-.68,0,.17-1.37.25-2.06-.95-2.36a10.86,10.86,0,0,0-2.82-.25h-1.58c-.69,0-.82.08-1,.9l-1.71,5.47c-.26.73-.26.77.47.77h1.32c2.53,0,3.09-.17,3.68-1.28l.43-.81c.13-.17.6-.17.69,0-.17.47-.6,1.58-.9,2.57s-.56,2-.69,2.61a.45.45,0,0,1-.68,0v-.73c0-1.37-.69-1.41-2.74-1.41h-1.33c-.72,0-.81,0-1,.77l-1.12,3.59c-.47,1.5-.72,2.4-.47,3,.17.39.69.56,3,.56,3,0,4-.17,5.69-2.78a.39.39,0,0,1,.6.17,13.47,13.47,0,0,1-1.84,3.51c-.9,0-1.89,0-3,0s-2.14,0-3.16,0h-3.17c-1.11,0-2,0-3.17.09a.49.49,0,0,1,0-.69l.94-.08c1.29-.13,1.54-.47,2.4-3.17Z"/><path class="cls-1" d="M154.89,155.1c-.3-.81-.47-1.24-.73-1.24-.47,0-.85.81-1.2,1.37-.25.13-.51,0-.47-.39.47-1.45,1.71-2.86,2.4-2.86.47,0,.81.38,1.15,1.37l1.16,3.12c.26-.26.47-.6,1.8-2.18s2.14-2.31,3-2.31a1.12,1.12,0,0,1,1.07,1.24,1.48,1.48,0,0,1-1.07,1.54c-.17,0-.3-.17-.38-.47s-.3-.69-.56-.69c-.47,0-1.2.73-3.59,3.64l1,2.52c.39,1,.64,1.5.94,1.5s.82-.81,1.24-1.58c.17-.21.6-.13.56.17-.39,1.76-1.28,3.3-2.31,3.3-.73,0-1.11-.73-1.58-1.89l-1-2.52c-.43.43-1.24,1.45-1.93,2.31-1.54,1.8-2.35,2.1-2.86,2.1a.91.91,0,0,1-.95-1,2.25,2.25,0,0,1,.77-1.58.91.91,0,0,1,.6-.3c.13,0,.26.17.26.34.09.47.26.73.47.73s.6-.3,1.07-.81c.77-.82,1.46-1.67,2.31-2.66Z"/><path class="cls-1" d="M169,152.4c.21,0,.51,0,1,0,1.24,0,3.63.51,3.63,3s-1.49,4.62-3.51,6.33a6.69,6.69,0,0,1-3.8,1.5,2.11,2.11,0,0,1-.82-.17c-.21,0-.34.21-.43.47l-1.15,3.17c-.73,2.05-.69,2.31.21,2.44l1.12.17a.41.41,0,0,1-.13.6c-2,0-4,.13-5.82.17a.42.42,0,0,1,0-.6l.6-.09c1.49-.25,1.58-.89,2-2l5-13.91a12.71,12.71,0,0,0-2.69,1.11.36.36,0,0,1-.26-.51,9.51,9.51,0,0,1,3.29-1.46l.82-2.14a1.25,1.25,0,0,1,1.54.39ZM166,161a.85.85,0,0,0,.05.73,1.29,1.29,0,0,0,1,.6,4.43,4.43,0,0,0,3-2.14,9.35,9.35,0,0,0,1.58-5,1.93,1.93,0,0,0-2.1-2c-.3,0-.51,0-.68,0Z"/><path class="cls-1" d="M177.23,161.13c-.22.6-.17.9.08.9.6,0,1.84-1.28,3.09-2.69a.35.35,0,0,1,.42.38c-.68,1.33-2.35,3.55-4.58,3.55-.81,0-1-.38-1-.81a7.7,7.7,0,0,1,.6-2.27l4.23-12.62c.64-1.89.39-2.14,0-2.31l-.47-.22a.29.29,0,0,1,0-.43,18.27,18.27,0,0,1,3.34-.81l.13.17c-.35.94-.6,1.71-1.59,4.58Z"/><path class="cls-1" d="M191.05,155.31a10.08,10.08,0,0,1-2.82,6,5.1,5.1,0,0,1-3.81,1.84c-1.71,0-2.83-1.24-2.66-3.55a10.14,10.14,0,0,1,2.91-6,5.24,5.24,0,0,1,3.69-1.71c1.88,0,2.82,1.46,2.69,3.38M186.22,154a15.58,15.58,0,0,0-2.66,6.68c0,.94.3,1.71,1.11,1.71.6,0,1.25-.26,2.1-1.37a16.48,16.48,0,0,0,2.48-6.51c.05-.81-.12-1.75-1.07-1.75-.55,0-1.19.21-2,1.24"/><path class="cls-1" d="M197,154.5l-1.16,3.34h.13a39.86,39.86,0,0,1,2.78-4.49,2.78,2.78,0,0,1,1.93-1.37c.94,0,1.07.89,1.07,1.32a3.55,3.55,0,0,1-.56,1.59c-.3.38-.73.42-.85-.13s-.3-1-.56-1-.56.26-.94.81a47.3,47.3,0,0,0-4.54,8.39.45.45,0,0,1-.47.3c-.3,0-1.07-.08-.9-.68.34-1.07,2-5.78,2.74-8.39.09-.3,0-.56-.21-.56-.69,0-1.42.73-1.89,1.37-.25,0-.47-.08-.42-.43.85-1.45,1.88-2.56,3.16-2.56s.94,1.79.69,2.52"/><path class="cls-1" d="M205.17,154.2c.13-.3.13-.51,0-.51a6.56,6.56,0,0,0-2.22,1.41.4.4,0,0,1-.35-.47A7.66,7.66,0,0,1,207,152c.17,0,.34.17.43.25s.17.39-.17,1.16L204.06,161c-.08.26-.13.6.09.6a6.38,6.38,0,0,0,2.78-2,.43.43,0,0,1,.38.47c-.38.77-3.16,3.17-5,3.17a.57.57,0,0,1-.43-.26.56.56,0,0,1-.09-.72Zm3.43-7.62a1.6,1.6,0,0,1-1.41,1.67.94.94,0,0,1-.95-1,1.58,1.58,0,0,1,1.46-1.67c.6,0,.9.42.9,1"/><path class="cls-1" d="M212.54,157.71l.08,0c1.88-2.86,4.54-5.82,6.55-5.82a1.33,1.33,0,0,1,1.5,1.46,7.81,7.81,0,0,1-.43,1.88c-.47,1.33-2.4,5.69-2.48,5.91s-.13.51,0,.51a5.86,5.86,0,0,0,2.52-1.8c.39,0,.43.17.43.39a6.26,6.26,0,0,1-4.58,3,.78.78,0,0,1-.64-.68c0-.26.09-.43.64-1.76s1.54-3.93,2.19-5.26a6.29,6.29,0,0,0,.55-1.92c0-.3,0-.65-.43-.65-.64,0-2.22,1.33-3.68,3.17a42.32,42.32,0,0,0-4.06,6.76.44.44,0,0,1-.47.3c-.3,0-1-.08-.77-.68.13-.35,2.95-8,3.08-8.39s.13-.6-.09-.6a4.8,4.8,0,0,0-2.44,1.33.31.31,0,0,1-.3-.39,5.79,5.79,0,0,1,4-2.48c.65,0,1,.47.69,1.11Z"/><path class="cls-1" d="M229.7,152.19a3.58,3.58,0,0,0,.64.26,6.32,6.32,0,0,0,1.28-.17,7.28,7.28,0,0,1,1.2-.22c.39,0,.56.26.56.69,0,.6-.3.81-.6.81a7,7,0,0,1-.9-.13,5.14,5.14,0,0,0-1-.17c-.12,0-.25.09-.25.17a5.22,5.22,0,0,1,.17,1,6.81,6.81,0,0,1-3.38,5.35,13.38,13.38,0,0,1-1.88.68,1.2,1.2,0,0,0-.6.94,1.46,1.46,0,0,0,.89,1.24c.6.43,1.67,1,2.62,1.59,1.54.9,2,1.75,2,2.61,0,1.5-2.19,3.17-6.51,3.17-1.92,0-4.19-.73-4.19-2.53,0-2,3.12-3.29,4.58-3.77-.69-.47-.86-.85-.86-1.24a5.63,5.63,0,0,1,1.2-2.05,2.36,2.36,0,0,1-1.93-2.4,6.5,6.5,0,0,1,2.14-4.49,5.77,5.77,0,0,1,3.94-1.58,3.36,3.36,0,0,1,.86.21m-1,15.15c0-.47-.3-1-1.15-1.63a9,9,0,0,0-2.49-1.32,4.22,4.22,0,0,0-2.48,1,2.07,2.07,0,0,0-1,1.71c0,1.24,1.79,2.06,3.59,2.06,1.28,0,3.55-.52,3.55-1.8m-2-13.48c-1,1.2-2.39,3.55-2.39,4.92a.87.87,0,0,0,.81.94,2.35,2.35,0,0,0,1.75-1,10.39,10.39,0,0,0,2.44-5,.83.83,0,0,0-.81-.9c-.47,0-1,.13-1.8,1.07"/><path class="cls-1" d="M244.12,153.64l-2.4,7c-.17.52,0,.69.17.69a9.84,9.84,0,0,0,3-2.4.37.37,0,0,1,.39.47c-1.5,2.23-4,3.85-5.14,3.85a.78.78,0,0,1-.73-.72,4.48,4.48,0,0,1,.39-1.54l2.52-7.37h-2.09c-.05-.25,0-.64.3-.72l2.14-.39,1.49-2.65a.92.92,0,0,1,1,.17l-.77,2.61h2.91a.78.78,0,0,1-.3,1Z"/><path class="cls-1" d="M254.6,143.93c-.55,1.5-1.37,3.94-1.92,5.44l-2.74,8,0,0a16.84,16.84,0,0,1,4.2-4.41,4.53,4.53,0,0,1,2.52-1c1.16,0,1.58.86,1.58,1.8,0,1.84-1.15,4.54-2.09,6.25a9.82,9.82,0,0,1-1.71,2.18,2.83,2.83,0,0,1-1.93,1c-.9,0-1-.56-1-.77a.85.85,0,0,1,.72-.86.65.65,0,0,1,.39.17,1.47,1.47,0,0,0,.68.35c.39,0,.69-.39,1.07-1.33a26.48,26.48,0,0,0,1.93-6.89c0-.51-.17-.81-.56-.81a3.09,3.09,0,0,0-1.45.72,16.08,16.08,0,0,0-3.38,3.56,39.74,39.74,0,0,0-3.21,5.56.51.51,0,0,1-.47.3c-.3,0-1-.09-.77-.69l5-15c.59-1.76.72-2.14.29-2.44l-.55-.39a.27.27,0,0,1,.08-.34,15,15,0,0,1,3.13-.6Z"/><path class="cls-1" d="M268.3,153.56c0,2-2.65,3.34-6.46,4.41a6.94,6.94,0,0,0-.39,2.35,1.35,1.35,0,0,0,1.29,1.5c.94,0,1.62-.51,2.78-1.54.25,0,.38.21.34.47-1.63,2-3.17,2.44-4.28,2.44-1.58,0-2.18-1.5-2.18-2.78a10.12,10.12,0,0,1,4-7.19,5.12,5.12,0,0,1,3.21-1.29,1.73,1.73,0,0,1,1.71,1.63m-4.24.51a10.45,10.45,0,0,0-2,3.13,7.68,7.68,0,0,0,3.56-2,3.08,3.08,0,0,0,1-1.8.56.56,0,0,0-.6-.6c-.34,0-1.07.22-2,1.24"/><path class="cls-1" d="M277.8,147.78c-.17-1.24-.17-1.67-1.24-1.88l-.56-.13a.4.4,0,0,1,.09-.64c.85,0,1.62.08,2.57.08s1.84,0,2.73-.08c.18.08.22.55.05.64l-1,.13c-.68.08-.9.47-.72,1.5l1.45,10.1c.21,1.67.3,2.14.43,2.22a11.5,11.5,0,0,0,1.71-2.22l1.8-2.44a1.71,1.71,0,0,0,.43-1.5l-.9-6.08c-.17-1.11-.39-1.45-1.24-1.58l-.6-.13a.39.39,0,0,1,.12-.64c.73,0,1.67.08,2.62.08s2,0,2.61-.08c.17.08.17.51,0,.64l-.9.13c-.69.08-.9.3-.73,1.41l.68,5.05.48-.73.89-1.32c1.2-1.8,2.27-3.43,2.44-3.77s-.17-.51-.55-.6l-.69-.13a.41.41,0,0,1,.13-.64c.81,0,1.54.09,2.35.09s1.67,0,2.23-.09a.47.47,0,0,1,0,.64l-.51.13c-1.16.26-1.33.47-2.49,1.88s-3.08,4.24-3.63,5.05c-.35.48-.52.56-.39,1.25l.51,3.42c.26,1.71.35,2.14.48,2.22.17-.08.34-.34,1.32-1.84.56-.85,5.27-8,6.34-9.84,1.15-2,1.24-1.92.25-2.14l-.51-.13a.43.43,0,0,1,.08-.64c.9,0,1.67.09,2.44.09.95,0,1.67,0,2.23-.09.17.09.17.56,0,.64l-.6.13c-1.33.22-2.31,2-3,3L292.86,155c-1.84,2.74-3.55,5.44-5.35,8.18a.68.68,0,0,1-.34.08.66.66,0,0,1-.3-.08c-.17-2.23-.6-4.41-.9-6.59l-.17-1-3.55,5.1a21.14,21.14,0,0,0-1.58,2.48.72.72,0,0,1-.35.08,1.11,1.11,0,0,1-.34-.08c0-.81-.38-3.51-.6-4.92Z"/><path class="cls-1" d="M304.42,155.31a10.17,10.17,0,0,1-2.83,6,5.1,5.1,0,0,1-3.8,1.84c-1.72,0-2.83-1.24-2.66-3.55a10.09,10.09,0,0,1,2.91-6,5.22,5.22,0,0,1,3.68-1.71c1.84,0,2.78,1.46,2.7,3.38M299.54,154a15.54,15.54,0,0,0-2.65,6.68c-.05.94.3,1.71,1.11,1.71.6,0,1.24-.26,2.1-1.37a16.63,16.63,0,0,0,2.48-6.51c0-.81-.13-1.75-1.07-1.75-.56,0-1.2.21-2,1.24"/><path class="cls-1" d="M310.32,154.5l-1.15,3.34h.13a38.46,38.46,0,0,1,2.78-4.49A2.77,2.77,0,0,1,314,152c.95,0,1.07.89,1.07,1.32a3.53,3.53,0,0,1-.55,1.59c-.3.38-.73.42-.86-.13s-.3-1-.55-1-.56.26-.95.81a48,48,0,0,0-4.53,8.39.49.49,0,0,1-.47.3c-.3,0-1.07-.08-.9-.68.34-1.07,2-5.78,2.74-8.39.08-.3,0-.56-.22-.56-.68,0-1.41.73-1.88,1.37-.26,0-.47-.08-.43-.43.86-1.45,1.89-2.56,3.17-2.56s.94,1.79.68,2.52"/><path class="cls-1" d="M316.74,161.13c-.21.6-.17.9.13.9.6,0,1.84-1.28,3.08-2.69a.35.35,0,0,1,.43.38c-.68,1.33-2.35,3.55-4.58,3.55-.81,0-1-.38-1-.81a7.54,7.54,0,0,1,.59-2.27l4.24-12.62c.64-1.89.39-2.14,0-2.31l-.47-.22a.29.29,0,0,1,0-.43,18.27,18.27,0,0,1,3.34-.81l.12.17c-.34.94-.6,1.71-1.58,4.58Z"/><path class="cls-1" d="M332.36,147.31c.56-1.5.6-2,.26-2.22l-.6-.43a.36.36,0,0,1,.09-.39,12.46,12.46,0,0,1,3.16-.51l.13.17c-.47,1.5-.9,2.53-1.67,4.71-2.65,7.27-3.89,11.55-4.15,12.32-.08.35-.08.6.17.6.43,0,2.1-1.37,3-2.39.25,0,.38.12.38.34-.73,1.45-3.16,3.64-4.53,3.64a.83.83,0,0,1-.86-.86,5.49,5.49,0,0,1,.34-1.54l.94-2.65-.12,0c-1.85,2.44-3.86,5-6.42,5-1,0-1.59-.85-1.59-1.92,0-1.89,1.46-5.05,3.55-7a7.77,7.77,0,0,1,4.8-2.35,1.63,1.63,0,0,1,1.37.81ZM327,153.9a22.29,22.29,0,0,0-3.81,5.22,5.47,5.47,0,0,0-.81,2.53.53.53,0,0,0,.51.55c.39,0,1.76-.47,3.6-2.35a11.34,11.34,0,0,0,3.25-5.14c.34-1.11,0-1.92-.68-1.92A3.52,3.52,0,0,0,327,153.9"/><path class="cls-1" d="M344.09,154.2c.13-.3.13-.51,0-.51a6.65,6.65,0,0,0-2.23,1.41.4.4,0,0,1-.34-.47,7.66,7.66,0,0,1,4.41-2.65c.17,0,.34.17.43.25s.17.39-.18,1.16L343,161c-.09.26-.13.6.08.6a6.39,6.39,0,0,0,2.79-2,.44.44,0,0,1,.38.47c-.38.77-3.17,3.17-5,3.17a.54.54,0,0,1-.42-.26.55.55,0,0,1-.09-.72Zm3.38-7.62a1.6,1.6,0,0,1-1.41,1.67.93.93,0,0,1-.94-1,1.58,1.58,0,0,1,1.45-1.67c.6,0,.9.42.9,1"/><path class="cls-1" d="M351.45,157.71l.09,0c1.88-2.86,4.53-5.82,6.54-5.82a1.33,1.33,0,0,1,1.5,1.46,7.36,7.36,0,0,1-.43,1.88c-.47,1.33-2.39,5.69-2.48,5.91s-.13.51.05.51a5.86,5.86,0,0,0,2.52-1.8c.39,0,.43.17.43.39a6.28,6.28,0,0,1-4.58,3,.77.77,0,0,1-.64-.68c0-.26.08-.43.64-1.76s1.54-3.93,2.18-5.26a6,6,0,0,0,.56-1.92c0-.3,0-.65-.43-.65-.64,0-2.23,1.33-3.68,3.17a42.28,42.28,0,0,0-4.07,6.76.43.43,0,0,1-.47.3c-.3,0-1-.08-.77-.68.13-.35,3-8,3.08-8.39s.13-.6-.08-.6a4.8,4.8,0,0,0-2.44,1.33.36.36,0,0,1-.34-.39,5.75,5.75,0,0,1,4-2.48c.64,0,.94.47.68,1.11Z"/><path class="cls-1" d="M386.59,145.68a31.74,31.74,0,0,0-1.2,3.56c-.09.21-.64.17-.73-.05.51-2.31-.17-3.55-2.91-3.55a9.52,9.52,0,0,0-6.8,3,12.14,12.14,0,0,0-3.17,8c0,3.76,1.8,5.82,5.18,5.82,2.78,0,4.45-1.63,5.73-3.73a.46.46,0,0,1,.64.18,25,25,0,0,1-1.71,3.76,15,15,0,0,0-2.09.3,15.31,15.31,0,0,1-2.61.34c-3.47,0-7.45-1.58-7.45-7.19a11.12,11.12,0,0,1,3.81-8,13.46,13.46,0,0,1,8.94-3.25,12,12,0,0,1,4.37.85"/><path class="cls-1" d="M394.55,155.31a10.17,10.17,0,0,1-2.83,6,5.1,5.1,0,0,1-3.81,1.84c-1.71,0-2.82-1.24-2.65-3.55a10.09,10.09,0,0,1,2.91-6,5.22,5.22,0,0,1,3.68-1.71c1.84,0,2.78,1.46,2.7,3.38M389.67,154a15.54,15.54,0,0,0-2.65,6.68c0,.94.29,1.71,1.11,1.71.6,0,1.24-.26,2.09-1.37a16.66,16.66,0,0,0,2.49-6.51c0-.81-.13-1.75-1.07-1.75-.56,0-1.2.21-2,1.24"/><path class="cls-1" d="M406.79,155.44l-1,2.44.09,0c2.56-4.06,4.57-6,6.33-6a1.33,1.33,0,0,1,1.5,1.46,6,6,0,0,1-.43,1.88c-.47,1.33-2.4,5.69-2.48,5.91s-.13.51,0,.51a5.86,5.86,0,0,0,2.52-1.8c.39,0,.43.17.43.39a6.24,6.24,0,0,1-4.58,3,.78.78,0,0,1-.64-.68c0-.26.09-.43.64-1.76s1.63-3.89,2.19-5.26a7.45,7.45,0,0,0,.55-2c0-.3,0-.64-.43-.64-.77,0-2.05,1.37-3.5,3.21a48.17,48.17,0,0,0-4.2,6.76.49.49,0,0,1-.47.3c-.3,0-1-.08-.77-.68l2.65-7c.09-.3,1.16-2.61.22-2.61-.73,0-2.23,1.37-3.73,3.21a45,45,0,0,0-4,6.76.44.44,0,0,1-.47.3c-.3,0-1-.08-.77-.68.09-.22,2.95-8,3-8.39s.13-.73-.17-.73a3.65,3.65,0,0,0-2.36,1.46.36.36,0,0,1-.38-.39,4.62,4.62,0,0,1,4.11-2.48c.6,0,.9.47.64,1.11L399.47,158l.08,0c1.93-3.17,4.41-6,6.47-6s1.32,2,.77,3.42"/><path class="cls-1" d="M420.35,153.35c-.17.47-.38,1.32-.6,2.09-.85,3-1.62,5.91-2.52,8.86a11.11,11.11,0,0,1-2.1,4.37,4.44,4.44,0,0,1-3,1.37,1.56,1.56,0,0,1-1.71-1.37,1,1,0,0,1,.52-.95c.38-.34.55-.12.77.26a2.1,2.1,0,0,0,1.58,1c.47,0,1.11-.39,1.67-2.23,1.37-4.45,2.22-9,3.51-13.39H416.2a.69.69,0,0,1,.17-1h2.31a15.66,15.66,0,0,1,3-6.33,5.71,5.71,0,0,1,4.49-2.23,2,2,0,0,1,2.18,1.76c0,.81-.72,1.67-1.15,1.67-.26,0-.34-.26-.39-.43-.08-1.59-.94-2.1-1.62-2.1a2.68,2.68,0,0,0-2.1,1.46,23,23,0,0,0-2.53,6.2h3.34a.75.75,0,0,1-.25,1Z"/><path class="cls-1" d="M431.74,155.31a10.17,10.17,0,0,1-2.83,6,5.1,5.1,0,0,1-3.81,1.84c-1.71,0-2.82-1.24-2.65-3.55a10.32,10.32,0,0,1,2.91-6,5.22,5.22,0,0,1,3.68-1.71c1.88,0,2.83,1.46,2.7,3.38M426.9,154a15.54,15.54,0,0,0-2.65,6.68c-.05.94.3,1.71,1.11,1.71.6,0,1.24-.26,2.1-1.37a16.63,16.63,0,0,0,2.48-6.51c0-.81-.13-1.75-1.07-1.75-.56,0-1.2.21-2,1.24"/><path class="cls-1" d="M437.69,154.5l-1.16,3.34h.13a39.86,39.86,0,0,1,2.78-4.49,2.76,2.76,0,0,1,1.93-1.37c.94,0,1.07.89,1.07,1.32a3.55,3.55,0,0,1-.56,1.59c-.3.38-.73.42-.86-.13s-.3-1-.55-1-.56.26-.94.81a47.3,47.3,0,0,0-4.54,8.39.46.46,0,0,1-.47.3c-.3,0-1.07-.08-.9-.68.34-1.07,2-5.78,2.74-8.39.08-.3,0-.56-.21-.56-.69,0-1.42.73-1.89,1.37-.25,0-.47-.08-.43-.43.86-1.45,1.89-2.56,3.17-2.56s.9,1.79.69,2.52"/><path class="cls-1" d="M447.4,153.64l-2.4,7c-.17.52,0,.69.18.69a10,10,0,0,0,3-2.4.37.37,0,0,1,.39.47c-1.5,2.23-4,3.85-5.14,3.85a.77.77,0,0,1-.72-.72,4.39,4.39,0,0,1,.38-1.54l2.53-7.37h-2.1c0-.25,0-.64.3-.72l2.14-.39,1.5-2.65a.91.91,0,0,1,1,.17l-.77,2.61h2.91a.77.77,0,0,1-.3,1Z"/><path class="cls-1" d="M456.52,149.37a3,3,0,0,1,3,3,2.92,2.92,0,0,1-3,3,3,3,0,0,1,0-6Zm0,.47a2.45,2.45,0,0,0-2.4,2.52,2.49,2.49,0,0,0,2.4,2.57,2.45,2.45,0,0,0,2.39-2.53,2.4,2.4,0,0,0-2.39-2.56Zm-.56,4.28h-.56v-3.34a5.17,5.17,0,0,1,.94-.09,1.49,1.49,0,0,1,1,.26.77.77,0,0,1,.3.68.84.84,0,0,1-.64.82v0c.3,0,.51.3.56.81a3,3,0,0,0,.21.82h-.56a2.26,2.26,0,0,1-.21-.86.65.65,0,0,0-.73-.6h-.38v1.46Zm0-1.89h.38c.43,0,.82-.17.82-.55s-.22-.6-.82-.6a1,1,0,0,0-.38,0Z"/></svg>