<svg id="Layer_1" data-name="Layer 1" xmlns="http://www.w3.org/2000/svg" xmlns:xlink="http://www.w3.org/1999/xlink" viewBox="0 0 595.28 175.75"><defs><style>.cls-1,.cls-2{fill:#cb2026;}.cls-1{fill-rule:evenodd;}.cls-3{fill:url(#linear-gradient);}.cls-4{fill:#fff;}</style><linearGradient id="linear-gradient" x1="457.65" y1="165.85" x2="458.02" y2="165.73" gradientTransform="translate(-50849.36 -32846.28) scale(111.7 198.4)" gradientUnits="userSpaceOnUse"><stop offset="0.08" stop-color="#a31d21"/><stop offset="0.65" stop-color="#cb2026"/></linearGradient></defs><path class="cls-1" d="M236.49,147.57h1.68l5.45,10.17,5.46-10.17h1.68L243.62,161Zm-2.64,0a2.72,2.72,0,0,1,2.64,1.76l7.13,13.32,7.14-13.32a2.72,2.72,0,0,1,2.64-1.76l-9.77,18.26-9.78-18.26Zm35.66,8.9a5.43,5.43,0,1,0-5.43,5.49,5.47,5.47,0,0,0,5.43-5.49m-12.26,0a6.84,6.84,0,1,1,6.83,6.92,6.84,6.84,0,0,1-6.83-6.92m14.57,0a7.74,7.74,0,1,0-7.74,7.83,7.79,7.79,0,0,0,7.74-7.83m-16.88,0a9.15,9.15,0,1,1,9.14,9.26,9.19,9.19,0,0,1-9.14-9.26m28,1.09,4.55-8.39a2.71,2.71,0,0,1,2.56-1.6l-5.7,10.48v7.32H282.9Zm-5.37-10h1.68l3.24,6.05,3.24-6.05h1.69l-4.93,9.13Zm3.06,17.8v-7.32l-5.7-10.48a2.69,2.69,0,0,1,2.56,1.6l4.55,8.39v7.81Zm19-13.37,7.14,13.37H305l-5.45-10.17-5.45,10.17h-1.68Zm0-4.89,9.78,18.26a2.71,2.71,0,0,1-2.64-1.76l-7.14-13.32-7.13,13.32a2.73,2.73,0,0,1-2.64,1.76Zm15,9.36A5.46,5.46,0,0,0,320,162a5.52,5.52,0,0,0,3.4-1.19V158.4h-4.12L320,157H325v4.22a6.57,6.57,0,0,1-5,2.19,6.92,6.92,0,0,1,0-13.83,6.62,6.62,0,0,1,3.52,1l-.68,1.24a5.41,5.41,0,0,0-8.26,4.68Zm12.74-1.83V162A9.19,9.19,0,1,1,320,147.22a8.91,8.91,0,0,1,4.63,1.27,1.48,1.48,0,0,1-2.06.58,7.23,7.23,0,0,0-2.57-.43,7.83,7.83,0,0,0,0,15.66,7.56,7.56,0,0,0,5.88-2.72v-5.52h-5.35l.78-1.42Zm9.52,7H344V163h-8.59v-6.1h5.85l-.75,1.42h-3.69v3.26Zm-1.41-11.7H344v1.43h-7.18v3.25h5.7l-.78,1.42h-6.33Zm-2.31-2.34H344c0,1-.83,1.43-1.93,1.43H334.5v14.94h7.57c1.38,0,1.93.69,1.93,1.43H333.1v-17.8Zm16.89,5a5.38,5.38,0,0,1,5.43-5.36,6.79,6.79,0,0,1,4.5,1.6c-.38.73-1,.86-2,.38a5.29,5.29,0,0,0-2.44-.56,3.89,3.89,0,0,0-4.07,3.86c0,2.39,2,3.44,4.12,4.28s3.59,1.6,3.59,3.55c0,1.71-1.68,3.06-3.64,3.06a7.47,7.47,0,0,1-5.12-2.29l.65-1.25a6.77,6.77,0,0,0,4.45,2.11c1.35,0,2.26-.61,2.26-1.6s-.86-1.4-2.89-2.26S350,156,350,152.58m11.42,7.78c0,3.13-3,5.37-6.05,5.37a8.93,8.93,0,0,1-6.18-2.52c.4-.69,1.28-.74,2.06-.2a7.1,7.1,0,0,0,4.22,1.29c2.36,0,4.55-1.7,4.55-4,0-2.57-2-3.51-4.22-4.4-1.84-.74-3.49-1.63-3.49-3.46a3.05,3.05,0,0,1,3.16-3,5.51,5.51,0,0,1,3.37,1.27l-.68,1.22a4,4,0,0,0-2.69-1.07c-1,0-1.76.56-1.76,1.47s.76,1.45,2.67,2.27c2.26,1,5,2.05,5,5.69"/><g id="Page-1"><g id="VV-Logo-Stacked_type" data-name="VV-Logo-Stacked type"><g id="Group"><path id="Shape" class="cls-2" d="M361.42,28.77h-5.68A17.41,17.41,0,0,0,341,37.37l-43.43,77.29L254.11,37.37a17.34,17.34,0,0,0-14.67-8.6h-5.59l63.79,113.49Z"/><polygon class="cls-2" points="351.81 9.92 243.37 9.92 297.64 106.31 351.81 9.92"/><polygon class="cls-3" points="297.59 9.92 243.37 9.92 297.64 106.31 297.59 9.92"/><path class="cls-4" d="M324.55,34.7h-.05c-.05.14-.19.24-.19.43s-.1.1-.1.15a1.78,1.78,0,0,1-.53.53,2,2,0,0,1-.39.25,6.61,6.61,0,0,1-1.36.53c-.54.2-1.12.34-1.65.58s-1.17.49-1.7.73c-.25.1-.49.25-.68.34-.78.44-1.61.83-2.38,1.27l-1,.53c-.14.1-.34.15-.48.24s-.54.29-.78.44-.73.44-1.12.63l-1.21.73-1,.58-1,.59c-.44.29-.93.53-1.36.82-.1,0-.15.15-.2.2a.62.62,0,0,0-.19.14,2.75,2.75,0,0,0-.59.39l-.92.63a.58.58,0,0,0-.24.25c0,.09-.15.09-.24.19a.24.24,0,0,0-.15.29.58.58,0,0,1-.05.29v.34a.18.18,0,0,0,.05.15c-.05.05-.05.1-.1.19.15.1,0,.25,0,.39a.28.28,0,0,1,0,.34c0,.15-.14.24,0,.39s0,.15-.09.1a.19.19,0,0,0,0,.14.3.3,0,0,1,0,.29v0c.1.2,0,.39,0,.59a2.81,2.81,0,0,0,0,.58v.19c0,.05,0,.15,0,.2s-.05.1,0,.14a.55.55,0,0,1,0,.25c0,.29,0,.63,0,.92V52c0,.1-.05.15,0,.19v.05a1.47,1.47,0,0,0,0,.39,1.64,1.64,0,0,0,0,.44c-.24,0-.09.24-.14.39s.19,0,.14.19a.17.17,0,0,0-.14.05.59.59,0,0,1,.14.19h0c.14.25,0,.39-.1.59a3.45,3.45,0,0,1,.14.34c0,.1,0,.14,0,.19a.18.18,0,0,0-.1.25c.05.09.1.14.1.24s-.1.05-.15.05v.29a.17.17,0,0,0,.1-.05.29.29,0,0,1,.05.19c-.05,0-.05,0-.1,0s.14.2-.05.29l.24.25s0,.14-.09.24a.17.17,0,0,1,.14,0c-.05.05-.14.14,0,.19l.05,0c-.05.15.1.29,0,.44a.15.15,0,0,1-.1,0,.4.4,0,0,1,0,.34.32.32,0,0,0,.1.19c.05,0,.1,0,.15-.09s0,.14,0,.24a.9.9,0,0,0,.1.39.14.14,0,0,1,0,.19,2.43,2.43,0,0,0-.14.2l.09.09c-.05,0-.09.05-.14.05v.29s0,0,.09.1l.1-.1c-.05.15.24.15.1.3.05,0,.09,0,.14.09-.14,0-.14.15-.19.25s0,.09-.1.14.24.1.15.24c.09.05.14.05.19.1s-.19.15-.14.29l-.05.05c-.15.1-.1.15.05.2l0,0c0,.05-.14.1-.19.15s-.05.15-.1.24a1.06,1.06,0,0,1-.24.29,2.92,2.92,0,0,1-.58.34h-.68c-.05,0-.05,0-.1,0a1.33,1.33,0,0,1-1-1,5.84,5.84,0,0,1-.19-1.31c0-.29,0-.58,0-.92V57.38a9.88,9.88,0,0,1,0-1.21,2.84,2.84,0,0,0,0-.92V54.18a3.08,3.08,0,0,0,0-.68v-.1c.1,0,.05-.15.05-.24V47.47a2.92,2.92,0,0,1-.58.34c-.34.25-.68.49-1,.78s-.73.54-1.07.83a2.59,2.59,0,0,1-.53.39,4.56,4.56,0,0,0-.83.68l-.92.77c-.44.34-.88.68-1.27,1s-.87.73-1.31,1.12-.63.54-1,.78l-.15.14a2.86,2.86,0,0,0-.34.35,2.17,2.17,0,0,1-.34.34,4.21,4.21,0,0,1-.58.48l-.58.58c-.15.1-.24.25-.39.34s-.1.15-.15.2-.14.14-.19.19l-.24.25c-.34.34-.63.68-1,1a7.5,7.5,0,0,0-.68.72l-.15.15-.24.24-.1.1c-.24.24-.53.49-.78.73l-.43.44a.74.74,0,0,1-.54.24,2.59,2.59,0,0,1-.87-.1,1.16,1.16,0,0,1-.73-1,1.3,1.3,0,0,1,0-.44c.05-.09.05-.19.1-.29l.29-.43a14.81,14.81,0,0,1,1.26-1.36l.73-.73c.44-.39.82-.78,1.21-1.17l2-1.75,1-.87c.25-.2.44-.44.68-.63a5.46,5.46,0,0,1,.64-.49c.34-.24.63-.53,1-.78a4.93,4.93,0,0,0,.53-.43l.73-.59a2.21,2.21,0,0,0,.39-.34,9.5,9.5,0,0,0,.87-.63c.44-.34.88-.63,1.31-1s.54-.39.83-.58.53-.39.78-.59c.44-.34.87-.68,1.36-1l1-.73V43.54s0-.1-.05-.1a.18.18,0,0,0-.15.05c-.24.15-.43.34-.68.49h0a1.73,1.73,0,0,0-.44.14c-.15.05-.29.15-.44.1a1.78,1.78,0,0,0-.49.1,2.53,2.53,0,0,1-1.06,0,1.61,1.61,0,0,1-1-.88,2.91,2.91,0,0,1-.19-1.11V40.82c0-.15-.05-.34-.05-.49s.05-.19.05-.34.05-.38.05-.58a4.77,4.77,0,0,1,.14-1.12,7.23,7.23,0,0,1,.25-1.11,3.17,3.17,0,0,1,.48-1.12c.25-.39.54-.78.78-1.12a2.1,2.1,0,0,1,.63-.53.17.17,0,0,0,.1,0,2.13,2.13,0,0,1,1.07-.44.68.68,0,0,1,.43.1.51.51,0,0,1,.2.43c0,.2-.1.34-.1.54a.49.49,0,0,1-.19.34c0,.14-.2.24-.29.34s-.05,0-.1.1a2.71,2.71,0,0,1-.29.43v0c0,.2-.15.29-.24.49,0,0-.05.09-.05.14a.54.54,0,0,1-.15.39.18.18,0,0,0,0,.15c-.05.19-.09.39-.14.58s0,.1,0,.2a1,1,0,0,0-.05.53.17.17,0,0,0,.05.1.3.3,0,0,1,0,.29.35.35,0,0,0-.05.24c0,.15-.05.34-.05.49v.38a1.19,1.19,0,0,0-.05.59v.34a1.34,1.34,0,0,0,.2.58.47.47,0,0,0,.48.29,1.47,1.47,0,0,0,1.07-.48,2.24,2.24,0,0,0,.49-1.07c.09-.59.14-1.12.24-1.7a5.33,5.33,0,0,0,.1-.83v-.34a.49.49,0,0,0,.09-.34c.05-.44.05-.87.1-1.31,0-.24.05-.54.05-.78s.05-.58.05-.82a1.58,1.58,0,0,1,.09-.64,1.4,1.4,0,0,1,1.46-.68.77.77,0,0,1,.49.25c.05.09.19.19.19.34v.14a1.63,1.63,0,0,1-.05.49c0,.05.05.14.05.19s-.09,0-.05.15,0,.14,0,.24a.3.3,0,0,0,0,.29,1.62,1.62,0,0,1,0,.44,1.4,1.4,0,0,1-.1.44c0,.05-.05.09,0,.14a.83.83,0,0,0-.1.59c-.05.58-.1,1.11-.14,1.7-.05.43-.05.87-.1,1.31,0,.09-.05.19-.05.29,0,.29,0,.58,0,.83a1,1,0,0,0,0,.34.3.3,0,0,1,0,.29,1.91,1.91,0,0,0,0,.53v.29c0,.2-.05.34-.05.54v.68c.05,0,.1,0,.15-.1a7.57,7.57,0,0,1,.82-.53c.49-.3,1-.64,1.46-.93a2.39,2.39,0,0,1,.44-.24l.87-.58a7.18,7.18,0,0,1,1.12-.63c.1,0,.15-.1.2-.15s.14-.24.34-.2.24-.14.34-.19a3.72,3.72,0,0,1,.34-.19l.34-.2.34-.19c.14-.1.34-.2.48-.29.58-.34,1.17-.68,1.75-1s.92-.53,1.41-.77l1.51-.88a1.72,1.72,0,0,1,.34-.19l-.1-.1a1.11,1.11,0,0,1-.54-.68,2.2,2.2,0,0,1,0-.53v-.63a5.33,5.33,0,0,0,.09-.78v-.1a1.13,1.13,0,0,1,0-.68v-.19s0-.1,0-.15,0-.29,0-.43a1.35,1.35,0,0,0,.05-.44V30.28c0-.15,0-.25-.1-.34a.35.35,0,0,0-.34-.2h-.29a.88.88,0,0,0-.58.29c-.05,0-.15,0-.19.15s-.15.14-.15.24a.69.69,0,0,1-.15.2c-.09.09-.24.19-.24.34l-.19.19a.4.4,0,0,1-.15.39v.1c0,.14.05.29-.05.38s.1.1.05.15a.17.17,0,0,1-.14,0,0,0,0,0,1-.05.05.14.14,0,0,1,.09,0,.75.75,0,0,1,0,.29c-.15,0-.15,0-.15.19s0,.15.1.25,0,.14-.05.19-.1.15-.2.19v.15c.1.05.1.15.1.29a.38.38,0,0,0,.05.2,2.43,2.43,0,0,0-.2.14c-.09.1,0,.15,0,.2a.59.59,0,0,0,0,.24V35c0,.09-.05.24.14.24-.1.15-.19.24-.05.39a0,0,0,0,0-.05,0c.1.09.1.09.05.24a.34.34,0,0,0-.05.29v.1s0,.1,0,.1.05.19,0,.29a1,1,0,0,0-.25.53s0,0-.05.1a2.34,2.34,0,0,1-.53.39,1.91,1.91,0,0,0-.44.24,1.22,1.22,0,0,1-.73,0c-.29,0-.43-.24-.48-.59a3.47,3.47,0,0,1,0-.72c0-.39.05-.83.05-1.22s.05-.92.05-1.41,0-.77,0-1.16c.05-.54.05-1.07.1-1.61a1.91,1.91,0,0,1,.05-.53,2.63,2.63,0,0,1,.34-.87,1.73,1.73,0,0,1,1.36-.78h.1c.14,0,.29.05.43-.05a.33.33,0,0,1,.3.05.83.83,0,0,0,.58,0c.19-.1.39-.2.53-.29s.15-.15.2-.25a.52.52,0,0,0,.14-.19l.49-.49.05-.05a3.82,3.82,0,0,1,1-.48,1.36,1.36,0,0,1,.78-.1,1,1,0,0,1,.63.29c.14.2.24.25.24.49s.05.14.15.19l.05,0c-.15.15-.1.25,0,.34V29l-.09.05a.3.3,0,0,0-.05.2v.24c.05,0,.05-.05.1-.1,0,.15-.1.25,0,.34h-.14c0,.2.05.34.05.54-.05,0-.1,0-.1.05a.17.17,0,0,0,.1.24c-.05.05-.1.05-.15.1s.05.09.1.14-.1.1-.1.15v.87a.38.38,0,0,0,.1.2s-.15.09,0,.24v.1c-.05.14-.05.14.1.19v.29a.17.17,0,0,0-.05.1c0,.1.05.19,0,.29v.05c0,.1,0,.1,0,.19v0c0,.05.1.05.15.1-.1.05-.1.1-.1.14s0,.15.05.2l.05,0c-.05.09,0,.14.14.19a.17.17,0,0,1,0,.1c0,.05-.05.05-.05.1s.15.09.15.19,0,.15.1.15l.05,0a.38.38,0,0,0,.43.14,2.47,2.47,0,0,0,.49-.19c.44-.2.87-.44,1.31-.68a4.37,4.37,0,0,1,.78-.39,1.93,1.93,0,0,1,1.07-.1c.14,0,.24,0,.38,0a.56.56,0,0,1,.39.29,2.61,2.61,0,0,1,.25.54v.09c-.05.1-.1.15,0,.24v0ZM292.29,17.65a2.59,2.59,0,0,0-1.16.72,2.27,2.27,0,0,0-.54.78,5.1,5.1,0,0,1-.38.73,4.37,4.37,0,0,0-.34.92c-.3.78-.59,1.56-.93,2.34-.19.53-.39,1.06-.58,1.6-.1.34-.24.63-.34,1-.29.73-.54,1.51-.83,2.24-.05.09-.09.19-.14.29a1.88,1.88,0,0,0-.15.34c0,.14-.1.34-.14.48s-.15.34-.2.54a10.16,10.16,0,0,1-.34,1.16s-.05.1-.05.15-.05.19-.09.24a.51.51,0,0,1-.1.39c-.05.05,0,.1-.05.15s-.05.14-.05.24c-.19.58-.34,1.21-.53,1.8-.05.24-.1.53-.15.77a5.76,5.76,0,0,0-.24.88c-.15.58-.29,1.21-.49,1.79a.86.86,0,0,1-.09.3l-.15.58c-.05.19-.1.34-.15.53-.14.68-.24,1.31-.38,2s-.25,1.07-.3,1.61-.19,1.16-.29,1.75c-.05.34-.09.68-.14,1-.1.58-.2,1.11-.29,1.7-.05.34-.1.73-.15,1.07a.72.72,0,0,1-.1.29c-.05,0-.09,0-.09-.1s0,0,0-.1a.77.77,0,0,1,0-.34c0-.09,0-.19-.1-.19a1.84,1.84,0,0,0-.1-.73V46.4c0-.14.05-.29.05-.43s-.05-.15-.1-.25-.14-.19,0-.34a.21.21,0,0,1-.15,0c0-.2,0-.39.1-.54a.57.57,0,0,0,0-.48l-.05,0a2.18,2.18,0,0,1-.15-.54,1.64,1.64,0,0,0-.09-.48c-.05-.15-.15-.29,0-.49a1.09,1.09,0,0,1-.15-.49,1.32,1.32,0,0,0-.1-.34c-.05-.14-.19-.29-.09-.48s-.1-.15-.1-.2-.05-.34-.05-.53-.05-.34-.1-.53-.05-.25-.05-.39-.14-.39,0-.59v-.09s0-.1,0-.15a.15.15,0,0,0-.05-.19.37.37,0,0,0-.05-.25c0-.09-.05-.14-.05-.24v-.14a.87.87,0,0,1-.1-.49c-.05-.34-.1-.63-.14-1-.1-.63-.25-1.31-.34-1.94A2.17,2.17,0,0,0,280,34a1.25,1.25,0,0,0-1.6-.29,1,1,0,0,0-.53.68,2.22,2.22,0,0,0-.2.63c-.14.48-.29.92-.48,1.41,0,.09-.05.14-.1.24a12.94,12.94,0,0,0-.19.68l-.15.44a6.7,6.7,0,0,1-.34,1.07c-.05.14-.1.24-.15.38a1.42,1.42,0,0,1-.24.68c-.05.1-.05.2-.1.3a.51.51,0,0,1-.14.38.38.38,0,0,0-.1.25,3.47,3.47,0,0,1-.24.77,2.4,2.4,0,0,0-.2.64,4.93,4.93,0,0,1-.29.87c-.09.29-.19.58-.29.83v.14a1,1,0,0,0,.78.83,1,1,0,0,0,.39,0,1,1,0,0,0,.68-.34l.09-.1c.05-.1.05-.14.1-.24s.05-.05.05-.1a3.48,3.48,0,0,1,.29-.68c.05-.05.05-.14.1-.19s.05-.25.19-.3,0-.09,0-.09a2.79,2.79,0,0,1,.2-.39v-.29c.14,0,0-.1.09-.2s.05-.29.15-.38v0c-.05-.2.15-.29.15-.44s.09-.29.09-.44a.17.17,0,0,0,.1,0,.42.42,0,0,1,.05-.14c.1,0,.1-.1.14-.15a.88.88,0,0,0,.1-.34.11.11,0,0,1,.1-.1.24.24,0,0,1,.19.1c.05.05.1.1.05.2v.09c.05,0,.1,0,.15,0v.3c0,.14,0,.24,0,.38s0,.15.09.2a.35.35,0,0,1,.1.19,1.42,1.42,0,0,0,.1.49c.05.39.14.83.19,1.21a2.34,2.34,0,0,1,.05.83s0,.15.05.15a.49.49,0,0,1,.1.38c0,.15.05.3.05.44.09.54.19,1.12.24,1.65s.14,1,.19,1.46.15.92.2,1.36.14.87.24,1.36a1.38,1.38,0,0,1,0,.78v0c.2.14.24.24.05.43.15,0,.19,0,.19.15a5.28,5.28,0,0,0,.15.87c0,.1.05.2,0,.3a.14.14,0,0,0,.05.09s.05,0,.05.1a8,8,0,0,0,.19,1.07,8.77,8.77,0,0,0,.2,1.12c.09.43.19.87.29,1.31a1,1,0,0,0,.34.53,1,1,0,0,0,.87.15,1.08,1.08,0,0,0,.78-.73,5.27,5.27,0,0,0,.24-1.22,9.07,9.07,0,0,0,.2-1.16c0-.49.14-.92.19-1.41.1-.78.2-1.56.29-2.33.05-.39.1-.73.15-1.12.05-.19.05-.44.1-.63a1,1,0,0,0,.09-.54c.24-.09.24-.14.1-.34l0-.09a.58.58,0,0,1,0-.29c0-.2.05-.44.05-.64a.56.56,0,0,1,.14-.38.38.38,0,0,0,.1-.25v-.09a1.23,1.23,0,0,0,.1-.59l-.05,0c-.1,0-.1-.05-.1-.14a4.22,4.22,0,0,1,.15-.83c0-.1,0-.24,0-.34a.42.42,0,0,0,.05-.24c0-.1,0-.15,0-.2a.16.16,0,0,0,.05-.14v-.54a.43.43,0,0,1,0-.24c.05-.19.15-.34.1-.53s.05-.15.05-.2a.44.44,0,0,0,.09-.24.82.82,0,0,0,0-.49s0-.14,0-.19.05-.1.05-.19,0-.1.1-.15a.39.39,0,0,0,.1-.19c0-.05-.05-.1,0-.15v-.1c-.05-.05,0-.09,0-.14v-.29a11.19,11.19,0,0,0,.24-1.12,14.44,14.44,0,0,1,.34-1.41,4.56,4.56,0,0,1,.34-1.12c.1-.24.1-.48.29-.68v0c0-.14.1-.34.15-.48s.05-.1.09-.15c.2-.1.2-.34.25-.49v-.38c.05-.2.05-.39.09-.59a.83.83,0,0,1,.05-.34l.15-.29c.05,0,.05-.1.05-.19s.09-.39.14-.59c0,0,.05-.09.05-.09l.15-.29v-.1a.21.21,0,0,1,0-.24c.05-.1.09-.25.14-.39V31c0-.05,0-.1,0-.15s.1-.34.15-.49.14-.38.19-.53a2.14,2.14,0,0,1,.2-.53,1.92,1.92,0,0,1,.14-.39l.15-.29a2.83,2.83,0,0,1,.39-.93c0-.05,0-.09.09-.14s.15-.25.2-.39a.3.3,0,0,0,0-.2.72.72,0,0,1,.05-.34c.14-.38.34-.77.48-1.16s.49-1.07.73-1.61c0-.14.19-.24.24-.38a7.81,7.81,0,0,1,.44-.73,6.2,6.2,0,0,1,.73-.88,1.53,1.53,0,0,1,.29-.24c.05-.05.1,0,.1-.05a.17.17,0,0,0,.05-.14l0-.05c.05-.05.15-.1.2-.15s.1-.19.14-.29,0-.1.05-.1.2-.24.29-.39a2.24,2.24,0,0,0,.25-.63,2.13,2.13,0,0,0-.05-1,1.6,1.6,0,0,0-1.12-1.16l-.49-.15h-.34v.1Zm2.87,23.41a.59.59,0,0,0,0-.29c.05-.15.1-.34.14-.49a3.1,3.1,0,0,1,.59-.82,5.39,5.39,0,0,1,.82-.68,2.33,2.33,0,0,0,.59-.58,1.13,1.13,0,0,0,.09-.78c0-.15-.14-.29-.19-.44a.6.6,0,0,0-.58-.29,1.09,1.09,0,0,0-.54.19l-.34.15-.39.15a2,2,0,0,1-.68.24,2.81,2.81,0,0,0-1,.29,2.06,2.06,0,0,0-.73.68,3.42,3.42,0,0,0-.29,1,10.79,10.79,0,0,0-.05,1.27c0,.19,0,.43,0,.63s0,.48,0,.77a.78.78,0,0,1-.05.34,1.71,1.71,0,0,0-.1.49c0,.19-.1.44,0,.63v0a.91.91,0,0,0,0,.63v.1c0,.15-.05.24-.05.39s-.1.43,0,.63a2.66,2.66,0,0,1,0,.63,1.1,1.1,0,0,0,.15.54.64.64,0,0,0,.63.34,2.52,2.52,0,0,0,1.26-.69,1.4,1.4,0,0,0,.49-1.11,1.19,1.19,0,0,1,.05-.59v-.09a2,2,0,0,1,0-.54c0-.39.05-.82.05-1.21,0-.15.05-.24.05-.34v-.68c0-.1,0-.24.09-.24S295.16,41.21,295.16,41.06Zm-4.52-.78a.75.75,0,0,0-.19-.53.62.62,0,0,0-.63-.15,2.13,2.13,0,0,0-1.22.83,3.27,3.27,0,0,0-.58,1.75c0,.24,0,.49,0,.73v.82c0,.39-.05.83-.05,1.22a.16.16,0,0,1-.05.14s-.05.1-.05.15a1.91,1.91,0,0,1-.05.53c0,.2,0,.39,0,.59,0,.43-.05.87-.05,1.31a9,9,0,0,0,0,1.16c.05.44.14.54.58.64a1.47,1.47,0,0,0,.49-.1,3.52,3.52,0,0,0,.82-.63l.05-.05c.1.05.15,0,.15-.15.19,0,.19,0,.19-.19h-.14V48.2c0-.09,0-.14,0-.24l.15-.73s.05-.1,0-.1a2.54,2.54,0,0,1,0-.87v-.1a3.57,3.57,0,0,0,.1-.73c.05-.19.05-.43.09-.63v-.58a1.4,1.4,0,0,0,.1-.44c0-.19.05-.39.05-.63a1.91,1.91,0,0,1,0-.53c.05-.15.05-.34.1-.49s0-.24,0-.34a.93.93,0,0,1,0-.34.29.29,0,0,0,.05-.19c-.05-.1,0-.2,0-.25s-.1-.24-.14-.34,0-.19.14-.24S290.64,40.43,290.64,40.28Zm19.05-4.13c-.1,0-.1-.14-.1-.24a.93.93,0,0,1,.1-.34l0,0c0-.14,0-.29,0-.43v-.68c0-.1-.05-.2,0-.3a1.21,1.21,0,0,0,0-.38v-.44a.46.46,0,0,1,0-.2c0-.09.1-.14,0-.24v-.19a.83.83,0,0,0,.05-.34c-.05-.15.05-.29.05-.49a1.3,1.3,0,0,0,0-.44.63.63,0,0,1-.1-.29.32.32,0,0,0-.29-.34h-.43a1.72,1.72,0,0,0-.64.34,2,2,0,0,0-.63,1.22c-.05.24-.05.53-.1.77s0,.34,0,.54a10.69,10.69,0,0,0-.1,1.26,7,7,0,0,0-.1,1c-.09.73-.14,1.46-.19,2.19a1.07,1.07,0,0,1-.05.39c0,.24,0,.48,0,.73a.69.69,0,0,0,.29.53.7.7,0,0,0,.54,0,2.45,2.45,0,0,0,1.11-.68c.2-.15.25-.39.39-.54s.15-.43.05-.63v-.14a6.12,6.12,0,0,1,0-.93c0-.14.05-.34.05-.48s.1.05.14.05-.09-.2-.14-.3a.15.15,0,0,0,.1.05S309.73,36.2,309.69,36.15Zm-20,.54a.46.46,0,0,0,.44,0,4.36,4.36,0,0,0,1-.63.41.41,0,0,0,.19-.2l.29-.43a1.08,1.08,0,0,0,.1-.88.67.67,0,0,1-.1-.29.3.3,0,0,0-.19-.19h-.2a1,1,0,0,0-.63.19c-.24.15-.43.34-.68.49a1.28,1.28,0,0,0-.24.29c-.15.14-.15.29-.24.48a2.28,2.28,0,0,0-.15.39C289.33,36.35,289.43,36.59,289.72,36.69Zm20.79-10.25a1.14,1.14,0,0,0-.58,0,2,2,0,0,0-1,.58,1.34,1.34,0,0,0-.39.73.93.93,0,0,0,.05.63c.05.1.09.15.14.24a.38.38,0,0,0,.25.1.71.71,0,0,0,.82-.1l.1,0c.19-.15.39-.25.48-.44s.2-.24.3-.39.19-.44.29-.63v-.05a1.59,1.59,0,0,0-.24-.58A.54.54,0,0,0,310.51,26.44Z"/></g></g></g></svg>