<svg id="Layer_1" data-name="Layer 1" xmlns="http://www.w3.org/2000/svg" viewBox="0 0 80 80"><defs><style>.cls-1{fill:#7eb2c4;}.cls-2{fill:#004870;}.cls-3{fill:#85cbcb;}.cls-4{fill:#61a4bc;}.cls-5{fill:#96c1cc;}.cls-6{fill:#97d0c9;}.cls-7{fill:#fff;}.cls-8{fill:#fedc85;}.cls-9{fill:#ec9571;}</style></defs><rect class="cls-1" x="7.09" y="44.75" width="63.85" height="14.5"/><path class="cls-2" d="M68.25,74.59a1.52,1.52,0,0,0,1.52,1.52H77a1.53,1.53,0,0,0,1.53-1.52V63.71c0-.84-.69-.37-1.53-.37H69.77c-.84,0-1.52-.47-1.52.37Z"/><path class="cls-2" d="M1.23,74.59a1.52,1.52,0,0,0,1.53,1.52H10a1.53,1.53,0,0,0,1.53-1.52V63.71c0-.84-.69-.37-1.53-.37H2.76c-.85,0-1.53-.47-1.53.37Z"/><path class="cls-2" d="M78.52,64.09a1.8,1.8,0,0,1-1.81,1.81H3.09a1.81,1.81,0,0,1-1.82-1.81V57.35a1.81,1.81,0,0,1,1.82-1.81H76.71a1.81,1.81,0,0,1,1.81,1.81Z"/><path class="cls-2" d="M7.09,64.53a1.52,1.52,0,0,1-1.53,1.52H2.76a1.52,1.52,0,0,1-1.53-1.52V31.89a1.52,1.52,0,0,1,1.53-1.52h2.8a1.52,1.52,0,0,1,1.53,1.52Z"/><rect class="cls-3" x="7.09" y="41.01" width="15.98" height="7.47" rx="2.63"/><path class="cls-2" d="M6.91,29.62a2.75,2.75,0,1,1-2.75-2.75A2.75,2.75,0,0,1,6.91,29.62Z"/><path class="cls-1" d="M77.49,60.49c0,2.08-.9,3.77-2,3.77H4.68c-1.11,0-2-1.69-2-3.77h0c0-2.08.9-3.77,2-3.77H75.49c1.1,0,2,1.69,2,3.77Z"/><path class="cls-2" d="M78.77,59.56a3.81,3.81,0,0,1-4,3.57H26.92a3.81,3.81,0,0,1-4-3.57V46.62a3.82,3.82,0,0,1,4-3.58H74.75a3.82,3.82,0,0,1,4,3.58Z"/><path class="cls-2" d="M21,10.4s.66-.59,1.07.64,2.46,7.35.45,13.46a.66.66,0,0,0-.33.81,5.91,5.91,0,0,0-1.14.17C21.08,18.23,21.05,10.91,21,10.4Z"/><path class="cls-2" d="M22.15,25.31a1,1,0,0,0,0,.14c.25.74,1.68,6.4,1.46,9.62s-2.93,1.77-2.8.28c0-.6.11-4.91.16-9.87A5.91,5.91,0,0,1,22.15,25.31Z"/><path class="cls-2" d="M23,35.1a.71.71,0,1,1-.67-.74A.71.71,0,0,1,23,35.1Z"/><path class="cls-2" d="M60.65,16.24c0-.14.06-.28.08-.43A12.81,12.81,0,0,0,60,10.26c-.17-.34-.25-.43-.17.06a12,12,0,0,1,.13,3.94c0,.16-.16.32-.24.32-.25,0-.28-.43-.28-.43S58.94,10,58.7,10c0,0-.07-.25,0,1.58a22.84,22.84,0,0,1-.12,2.52c-.06.49-.22.55-.3.56s-.25-.07-.31-.56a23,23,0,0,1-.13-2.52c0-1.83,0-1.58,0-1.58-.24-.06-.66,4.12-.66,4.12s0,.39-.26.43-.18,0-.27-.31a10.55,10.55,0,0,1,.11-3.94c.08-.49,0-.38-.17-.06-1.05,1.82-.75,5.56-.75,5.56l.09.43v0h0a3.13,3.13,0,0,0,.55,1.24,6,6,0,0,1,1.49,4.39c0,1.39-.1,7.8-1,10.14s-.08,4.9,1.28,5.21h.16c1.36-.32,2.09-3,1.25-5.22s-1-8.75-1-10.13a6,6,0,0,1,1.48-4.4,3.43,3.43,0,0,0,.54-1.24h0A.18.18,0,0,1,60.65,16.24Z"/><path class="cls-2" d="M57.19,34.19c0,1.36.52,2.46,1.16,2.46s1.15-1.1,1.15-2.46-.51-2.46-1.15-2.46S57.2,32.83,57.19,34.19Z"/><path class="cls-2" d="M59.89,16c0,.42-.81,2.23-1.75,2.25s-1.66-1.78-1.66-2.2.75-.77,1.69-.78S59.89,15.56,59.89,16Z"/><path class="cls-1" d="M24,23A16.13,16.13,0,1,0,40.14,6.82,16.13,16.13,0,0,0,24,23Z"/><path class="cls-4" d="M40.65,12a13.6,13.6,0,0,1,8.89,3.29,12.3,12.3,0,0,0-21.19,4.43A13.66,13.66,0,0,1,40.65,12Z"/><path class="cls-5" d="M40.14,35.54a12.29,12.29,0,0,0,9.4-20.21,13.66,13.66,0,0,0-21.19,4.43,12.58,12.58,0,0,0-.5,3.49A12.29,12.29,0,0,0,40.14,35.54Z"/><path class="cls-6" d="M32.74,17.86a5.05,5.05,0,0,1,3.47-.58c1.88.41,4.64-.75,5.87-1.2,2.29-.83,5.07.83,5.19,4.13s1.77,3.11,1.56,5-1.69,2.92-2.31,4.42c-.89,2.14-4.58,1.64-6.88,1.76s-5.94-.62-5.94-3.45-.73-4.68-1.6-5.39A3.19,3.19,0,0,1,32.74,17.86Z"/><path class="cls-7" d="M32.21,17.58A5.07,5.07,0,0,1,35.68,17c1.88.41,4.64-.75,5.87-1.2,2.29-.83,5.07.84,5.19,4.13s1.78,3.11,1.57,5S46.62,27.84,46,29.34c-.88,2.14-4.58,1.64-6.87,1.76s-5.95-.62-5.95-3.45-.72-4.68-1.6-5.39A3.19,3.19,0,0,1,32.21,17.58Z"/><path class="cls-8" d="M45,22.65a4.45,4.45,0,1,0-5.14,5.71A4.73,4.73,0,0,0,45,22.65Z"/><path class="cls-7" d="M42.24,20.54h.26a3.82,3.82,0,0,0-1.79-.44,3.86,3.86,0,0,0-3.11,6.15,5.25,5.25,0,0,1-.1-1A4.74,4.74,0,0,1,42.24,20.54Z"/><path class="cls-9" d="M45,22.65a4.9,4.9,0,0,1-5.14,5.71A4.46,4.46,0,0,0,45.16,24,4.33,4.33,0,0,0,45,22.65Z"/></svg>