<?xml version="1.0" encoding="utf-8"?>
<!-- Generator: Adobe Illustrator 24.3.0, SVG Export Plug-In . SVG Version: 6.00 Build 0)  -->
<svg version="1.1" id="Layer_1" xmlns="http://www.w3.org/2000/svg" xmlns:xlink="http://www.w3.org/1999/xlink" x="0px" y="0px"
	 viewBox="0 0 80 80" style="enable-background:new 0 0 80 80;" xml:space="preserve">
<style type="text/css">
	.st0{fill:#7EB2C4;}
	.st1{fill:#004870;}
	.st2{fill:#85CBCB;}
	.st3{fill:#61A4BC;}
	.st4{fill:#96C1CC;}
	.st5{fill:#97D0C9;}
	.st6{fill:#FFFFFF;}
	.st7{fill:#FEDC85;}
	.st8{fill:#EC9571;}
</style>
<rect x="7.1" y="44.8" class="st0" width="63.9" height="14.5"/>
<path class="st1" d="M68.2,74.6c0,0.8,0.7,1.5,1.5,1.5H77c0.8,0,1.5-0.7,1.5-1.5V63.7c0-0.8-0.7-0.4-1.5-0.4h-7.2
	c-0.8,0-1.5-0.5-1.5,0.4V74.6z"/>
<path class="st1" d="M1.2,74.6c0,0.8,0.7,1.5,1.5,1.5c0,0,0,0,0,0H10c0.8,0,1.5-0.7,1.5-1.5V63.7c0-0.8-0.7-0.4-1.5-0.4H2.8
	c-0.9,0-1.5-0.5-1.5,0.4V74.6z"/>
<path class="st1" d="M78.5,64.1c0,1-0.8,1.8-1.8,1.8c0,0,0,0,0,0H3.1c-1,0-1.8-0.8-1.8-1.8c0,0,0,0,0,0v-6.7c0-1,0.8-1.8,1.8-1.8
	c0,0,0,0,0,0h73.6c1,0,1.8,0.8,1.8,1.8V64.1z"/>
<path class="st1" d="M7.1,64.5c0,0.8-0.7,1.5-1.5,1.5c0,0,0,0,0,0H2.8c-0.8,0-1.5-0.7-1.5-1.5c0,0,0,0,0,0V31.9
	c0-0.8,0.7-1.5,1.5-1.5c0,0,0,0,0,0h2.8c0.8,0,1.5,0.7,1.5,1.5c0,0,0,0,0,0V64.5z"/>
<path class="st2" d="M9.7,41h10.7c1.5,0,2.6,1.2,2.6,2.6v2.2c0,1.5-1.2,2.6-2.6,2.6H9.7c-1.5,0-2.6-1.2-2.6-2.6v-2.2
	C7.1,42.2,8.3,41,9.7,41z"/>
<path class="st1" d="M6.9,29.6c0,1.5-1.2,2.8-2.8,2.8s-2.8-1.2-2.8-2.8s1.2-2.8,2.8-2.8l0,0C5.7,26.9,6.9,28.1,6.9,29.6z"/>
<path class="st0" d="M77.5,60.5c0,2.1-0.9,3.8-2,3.8H4.7c-1.1,0-2-1.7-2-3.8l0,0c0-2.1,0.9-3.8,2-3.8h70.8
	C76.6,56.7,77.5,58.4,77.5,60.5z"/>
<path class="st1" d="M78.8,59.6c-0.1,2.1-1.9,3.7-4,3.6H26.9c-2.1,0.1-3.9-1.5-4-3.6V46.6c0.1-2.1,1.9-3.7,4-3.6h47.8
	c2.1-0.1,3.9,1.5,4,3.6L78.8,59.6z"/>
<path class="st1" d="M21,10.4c0,0,0.7-0.6,1.1,0.6s2.5,7.3,0.5,13.5c-0.3,0.1-0.4,0.5-0.3,0.8c-0.4,0-0.8,0.1-1.1,0.2
	C21.1,18.2,21,10.9,21,10.4z"/>
<path class="st1" d="M22.1,25.3c0,0,0,0.1,0,0.1c0.2,0.7,1.7,6.4,1.5,9.6s-2.9,1.8-2.8,0.3c0-0.6,0.1-4.9,0.2-9.9
	C21.4,25.4,21.8,25.3,22.1,25.3z"/>
<path class="st1" d="M23,35.1c0,0.4-0.3,0.7-0.7,0.7c-0.4,0-0.7-0.3-0.7-0.7c0-0.4,0.3-0.7,0.7-0.7c0,0,0,0,0,0
	C22.7,34.4,23,34.7,23,35.1z"/>
<path class="st1" d="M60.7,16.2c0-0.1,0.1-0.3,0.1-0.4c0.2-1.9-0.1-3.8-0.7-5.5c-0.2-0.3-0.2-0.4-0.2,0.1c0.3,1.3,0.3,2.6,0.1,3.9
	c0,0.2-0.2,0.3-0.2,0.3c-0.2,0-0.3-0.4-0.3-0.4S58.9,10,58.7,10c0,0-0.1-0.2,0,1.6c0,0.8,0,1.7-0.1,2.5c-0.1,0.5-0.2,0.6-0.3,0.6
	S58,14.6,58,14.1c-0.1-0.8-0.1-1.7-0.1-2.5c0-1.8,0-1.6,0-1.6c-0.2-0.1-0.7,4.1-0.7,4.1s0,0.4-0.3,0.4s-0.2,0-0.3-0.3
	c-0.2-1.3-0.2-2.6,0.1-3.9c0.1-0.5,0-0.4-0.2-0.1c-1,1.8-0.8,5.6-0.8,5.6l0.1,0.4l0,0l0,0c0.1,0.4,0.3,0.9,0.5,1.2
	c1.1,1.2,1.6,2.8,1.5,4.4c0,1.4-0.1,7.8-1,10.1s-0.1,4.9,1.3,5.2h0.2c1.4-0.3,2.1-3,1.2-5.2s-1-8.8-1-10.1c-0.1-1.6,0.4-3.2,1.5-4.4
	C60.4,17.1,60.6,16.7,60.7,16.2L60.7,16.2C60.7,16.2,60.7,16.2,60.7,16.2z"/>
<path class="st1" d="M57.2,34.2c0,1.4,0.5,2.5,1.2,2.5s1.2-1.1,1.2-2.5s-0.5-2.5-1.2-2.5S57.2,32.8,57.2,34.2z"/>
<path class="st1" d="M59.9,16c0,0.4-0.8,2.2-1.8,2.2s-1.7-1.8-1.7-2.2s0.8-0.8,1.7-0.8S59.9,15.6,59.9,16z"/>
<path class="st0" d="M24,23c0,8.9,7.3,16.1,16.2,16.1s16.1-7.3,16.1-16.2C56.2,14,49,6.8,40.1,6.8C31.2,6.8,24,14,24,23
	C24,23,24,23,24,23z"/>
<path class="st3" d="M40.7,12c3.3,0,6.4,1.2,8.9,3.3c-4.4-5.2-12.1-5.8-17.3-1.5c-1.8,1.5-3.2,3.6-3.9,5.9C30.6,15,35.4,12,40.7,12z
	"/>
<path class="st4" d="M40.1,35.5c6.8,0,12.3-5.5,12.3-12.3c0-2.9-1-5.7-2.9-7.9c-5.7-4.9-14.4-4.2-19.3,1.5c-0.8,0.9-1.4,1.9-1.9,2.9
	c-0.3,1.1-0.5,2.3-0.5,3.5C27.9,30,33.4,35.5,40.1,35.5z"/>
<path class="st5" d="M32.7,17.9c1-0.6,2.3-0.8,3.5-0.6c1.9,0.4,4.6-0.8,5.9-1.2c2.3-0.8,5.1,0.8,5.2,4.1s1.8,3.1,1.6,5
	s-1.7,2.9-2.3,4.4c-0.9,2.1-4.6,1.6-6.9,1.8s-5.9-0.6-5.9-3.5s-0.7-4.7-1.6-5.4c-1.1-1.3-1-3.4,0.4-4.5C32.6,18,32.7,17.9,32.7,17.9
	z"/>
<path class="st6" d="M32.2,17.6c1.1-0.6,2.3-0.8,3.5-0.6c1.9,0.4,4.6-0.8,5.9-1.2c2.3-0.8,5.1,0.8,5.2,4.1s1.8,3.1,1.6,5
	s-1.7,2.9-2.3,4.4c-0.9,2.1-4.6,1.6-6.9,1.8s-6-0.6-6-3.5s-0.7-4.7-1.6-5.4c-1.1-1.3-1-3.4,0.4-4.5C32,17.7,32.1,17.6,32.2,17.6z"/>
<path class="st7" d="M45,22.6c-0.7-2.3-3.3-3.6-5.6-2.9c-2.3,0.7-3.6,3.3-2.9,5.6c0.5,1.5,1.8,2.7,3.3,3c2.6,0.3,4.9-1.6,5.2-4.2
	C45.1,23.7,45.1,23.2,45,22.6z"/>
<path class="st6" d="M42.2,20.5h0.3c-0.6-0.3-1.2-0.4-1.8-0.4c-2.1,0-3.9,1.7-3.9,3.9c0,0.8,0.3,1.6,0.8,2.3c-0.1-0.3-0.1-0.7-0.1-1
	C37.5,22.6,39.6,20.5,42.2,20.5z"/>
<path class="st8" d="M45,22.6c0.5,2.7-1.3,5.2-4,5.7c-0.4,0.1-0.8,0.1-1.1,0.1c2.4,0.5,4.8-1.1,5.2-3.5c0.1-0.3,0.1-0.5,0.1-0.8
	C45.2,23.5,45.1,23.1,45,22.6z"/>
</svg>
