<svg id="Layer_1" data-name="Layer 1" xmlns="http://www.w3.org/2000/svg" viewBox="0 0 80 80"><defs><style>.cls-1{fill:#004870;}.cls-2{fill:#f90;}.cls-3{fill:#f9b384;}.cls-15,.cls-4{fill:#102048;}.cls-5{fill:#0f2d38;}.cls-14,.cls-6{fill:#fff;}.cls-7{opacity:0.3;}.cls-8{fill:#1f3c88;}.cls-9{fill:#e28b6d;}.cls-10{fill:#acbfee;}.cls-11{fill:#6f3428;}.cls-12{fill:#bb9132;}.cls-13{fill:#fbc343;}.cls-14{opacity:0.6;}.cls-15{opacity:0.15;}.cls-16{fill:#708cd5;}</style></defs><rect class="cls-1" x="58.73" y="37.35" width="9.4" height="38.76"/><rect class="cls-1" x="46.63" y="44.87" width="9.4" height="31.23"/><rect class="cls-1" x="34.52" y="54.02" width="9.4" height="22.09"/><rect class="cls-1" x="22.41" y="61.66" width="9.4" height="14.45"/><rect class="cls-1" x="10.31" y="67.56" width="9.4" height="8.54"/><path class="cls-2" d="M49.16,33C39.58,47.19,26,56.17,9.75,59.05l-.33,2.39C26.58,58.59,41,49.21,51.05,34.29Z"/><polygon class="cls-2" points="51.59 37.39 55.77 25.27 46.09 33.67 51.59 37.39"/><path class="cls-3" d="M67.1,35.33v-1l-1.44.11,0,.81A4.8,4.8,0,0,0,67.1,35.33Z"/><path class="cls-4" d="M68.65,36.68a1.92,1.92,0,0,0-1.56-.93v-.42a4.8,4.8,0,0,1-1.47-.07l-.07,1.42Z"/><path class="cls-4" d="M60,35.43l-.13.3a3,3,0,0,0-1.73,1h3l.32-1.25A4,4,0,0,1,60,35.43Z"/><path class="cls-3" d="M61.45,35.43l.26-1-1.27-.07-.46,1A4,4,0,0,0,61.45,35.43Z"/><path class="cls-5" d="M67.76,20a40.67,40.67,0,0,1-.51,14.74h-1.8a41.55,41.55,0,0,0-.13-9.53l-3.44,9.57h-2l3.25-13.63,1.12-2.19,2.61-.31Z"/><path class="cls-3" d="M70.16,9.48,70.64,8l1.31.3c.1.49-.49,1.23-.92,1.78Z"/><polygon class="cls-3" points="65.73 14.67 64.22 14.69 64.07 12.71 64.06 12.47 65.57 12.46 65.63 13.21 65.73 14.67"/><path class="cls-4" d="M65.62,13.07a1.16,1.16,0,0,1-1.55-.36v-.24h1.51Z"/><path class="cls-3" d="M65.27,12.91a1.89,1.89,0,0,1-2-1l-.05-1.18.43-.6,1.82.15v.07c0,.12.1.36.16.65C65.83,11.74,66,12.75,65.27,12.91Z"/><path class="cls-6" d="M64,13.92a1.44,1.44,0,0,0,2.11-.38L68,19.71a5.91,5.91,0,0,1-4.31.86Z"/><g class="cls-7"><path class="cls-8" d="M64.22,14.69a2.05,2.05,0,0,0,.48.1,1.23,1.23,0,0,0,.47,0,1.41,1.41,0,0,0,.45-.15l.21-.12.2-.15-.17.19a1,1,0,0,1-.2.15,1.24,1.24,0,0,1-.47.2A1.33,1.33,0,0,1,64.22,14.69Z"/></g><path class="cls-1" d="M70.11,9.21a16,16,0,0,1-2.92,3.95.67.67,0,0,1-.47.15,3.48,3.48,0,0,0-1.08.12c.09,3.09.38,5.95,1.43,7.7a5.5,5.5,0,0,0,1.83-.83c-.35-1.18-.76-2.86-1.06-4.33l3.37-6Z"/><path class="cls-9" d="M65.67,11a1.75,1.75,0,0,1-2.12-.54l2-.11C65.54,10.5,65.61,10.74,65.67,11Z"/><path class="cls-4" d="M63.57,11.71c.14-.18.2-.49.07-1.11.43.47,1.06.59,2,.18a.75.75,0,0,0,.46-.85c-.13-.55-.59-.84-1-.39-.82-.24-1.62-.29-2,.46A.9.9,0,0,0,63,11.56Z"/><polygon class="cls-8" points="61.89 24.47 61.69 24.43 61.9 23.5 60.53 23.17 60.35 24.01 60.15 23.97 60.38 22.92 62.14 23.35 61.89 24.47"/><path class="cls-3" d="M61.09,21.55c0,.05-.16,1-.16,1s-.55.52-.18.84a.76.76,0,0,0,1,.07,1.31,1.31,0,0,0,0-.83L62,21.58Z"/><polygon class="cls-10" points="62.9 24.41 62.35 26.71 62.15 27.61 58.61 26.28 59.07 24.33 59.3 23.4 62.9 24.41"/><polygon class="cls-11" points="72.82 9.06 70.94 10.2 70.85 9.54 72.27 8.68 72.82 9.06"/><polygon class="cls-12" points="71.8 8.96 71.32 9.25 70.18 7.63 70.89 7.2 71.8 8.96"/><path class="cls-13" d="M71,7.14l-.91.55a.47.47,0,0,1-.61-.11L68,5.75l2.31-1.4.92,2.19A.49.49,0,0,1,71,7.14Z"/><path class="cls-13" d="M70.88,6l-.13-.05c.35-.84.29-1.52,0-1.67s-.31,0-.5.26l-.11-.09c.33-.42.59-.34.68-.28C71.16,4.33,71.26,5.07,70.88,6Z"/><path class="cls-13" d="M69.07,7.08c-1-.09-1.6-.51-1.61-.87,0-.11,0-.37.56-.47l0,.13c-.3,0-.47.18-.46.33s.59.66,1.49.74Z"/><path class="cls-14" d="M69.91,5.54c-.08-.14-.07-.29,0-.34s.22,0,.3.16.07.29,0,.34S70,5.68,69.91,5.54Z"/><path class="cls-3" d="M72,8.3a.38.38,0,0,1-.42.44c-.2,0-.47-.27-.53-.58a.4.4,0,0,1,.24-.51C71.43,7.57,71.89,7.86,72,8.3Z"/><rect class="cls-13" x="66.66" y="3.54" width="0.21" height="1.73" transform="translate(42.51 66.76) rotate(-72.51)"/><rect class="cls-13" x="68.59" y="2.64" width="1.72" height="0.21" transform="translate(54.67 70.66) rotate(-79.99)"/><rect class="cls-13" x="67.7" y="2.25" width="0.21" height="1.72" transform="translate(9.02 37.05) rotate(-32.62)"/><path class="cls-1" d="M63,17.77l-.27,4.08a6.79,6.79,0,0,0,2.52-.56,18.38,18.38,0,0,0-1.15-7.61c-2.44.91-3.13,3.92-3.5,8.4l1.44.17Z"/><path class="cls-3" d="M63.59,12.12c-.46.16-.76.12-.78-.32a.34.34,0,0,1,.47-.34.74.74,0,0,1,.29.25Z"/><path class="cls-15" d="M62.35,26.71l-.2.9-3.54-1.33.46-2A4.34,4.34,0,0,0,62.35,26.71Z"/><path class="cls-4" d="M67.53,14.58c.06.19.11.39.16.58s.1.4.15.59.09.4.13.6.07.39.1.6h0c-.06-.2-.12-.39-.17-.59s-.1-.39-.14-.59-.09-.39-.13-.59-.07-.4-.1-.6Z"/><path class="cls-4" d="M63.11,16.4V17c0,.19,0,.39,0,.58l0,.59c0,.19,0,.39-.07.58h-.05a5.8,5.8,0,0,1,0-.59c0-.19,0-.39,0-.58s0-.39,0-.59,0-.39,0-.58Z"/><path class="cls-16" d="M65,26c.06-.22.13-.44.2-.66s.15-.44.22-.66l.24-.65c.08-.21.16-.43.26-.64l0,0c-.06.22-.13.44-.2.66s-.15.44-.22.66l-.24.65c-.08.21-.16.43-.26.64Z"/><path class="cls-4" d="M63.31,11.87l-.07-.1a.27.27,0,0,0-.07-.08s-.05,0-.08,0l-.08.06,0,0a.18.18,0,0,1,.09-.1.13.13,0,0,1,.15,0,.47.47,0,0,1,.12.23Z"/><path class="cls-3" d="M71,8.37c0-.19,0-.36-.06-.38s-.2.07-.25.25-.11.46,0,.52S70.93,8.55,71,8.37Z"/></svg>