<svg id="Layer_1" data-name="Layer 1" xmlns="http://www.w3.org/2000/svg" viewBox="0 0 80 72"><defs><style>.cls-1{fill:#1daa4f;}</style></defs><path class="cls-1" d="M51.76,63.45A15.69,15.69,0,1,0,36.08,47.76,15.74,15.74,0,0,0,51.76,63.45ZM71.37,47.76a19.61,19.61,0,1,1-19.61-19.6A19.42,19.42,0,0,1,71.37,47.76Z"/><path class="cls-1" d="M45.49,51.29c0,2.35,2,4.32,5.49,4.32v1.56h1.57V55.61c3.53-.4,5.49-2,5.49-4.71,0-2.35-1.57-3.53-4.32-4.31l-1.17-.4V41.88a2.61,2.61,0,0,1,2.74,2H58c0-2.35-2-3.92-5.1-4.31V38H51.37v1.57c-3.14.39-5.49,2.35-5.49,4.7s1.57,3.53,3.92,4.32l.79.39V54a3.46,3.46,0,0,1-2.75-2.36H45.49ZM51,46.19c-1.57-.39-2.35-1.17-2.35-2,0-1.17.78-2,2.35-2.35v4.31Zm1.57,2.75c1.57.39,2.74,1.18,2.74,2.35a2.61,2.61,0,0,1-2.74,2.35v-4.7Z"/><path class="cls-1" d="M12.55,6.63a3.71,3.71,0,0,0-3.92,3.92V41.92a3.71,3.71,0,0,0,3.92,3.92H28.63c.39-1.17.39-2.74,1.18-3.92H20.39a7.86,7.86,0,0,0-7.84-7.84V18.39a7.85,7.85,0,0,0,7.84-7.84H59.61a7.85,7.85,0,0,0,7.84,7.84V32.12a15.62,15.62,0,0,1,3.92,4.7V10.55a3.71,3.71,0,0,0-3.92-3.92Z"/><path class="cls-1" d="M47.84,26.63h0A8,8,0,0,0,40,18.39a7.87,7.87,0,0,0-7.84,7.85,6.64,6.64,0,0,0,3.53,6.27A22.14,22.14,0,0,1,47.84,26.63Z"/></svg>