<svg id="Layer_1" data-name="Layer 1" xmlns="http://www.w3.org/2000/svg" viewBox="0 0 80 80"><defs><style>.cls-1{fill:none;stroke:#004870;stroke-miterlimit:10;stroke-width:2px;}.cls-2{font-size:6.07px;fill:#004870;font-family:Courgette-Regular, Courgette;}.cls-3,.cls-5{fill:#f90;}.cls-4{fill:#fff;}.cls-5{fill-rule:evenodd;}</style></defs><rect class="cls-1" x="2.69" y="18.28" width="74.62" height="42.54"/><line class="cls-1" x1="15.32" y1="38.08" x2="64.68" y2="38.08"/><line class="cls-1" x1="15.32" y1="45.42" x2="64.68" y2="45.42"/><line class="cls-1" x1="15.42" y1="52.78" x2="28.54" y2="52.78"/><text class="cls-2" transform="translate(26.11 30.14)">Certificate</text><path class="cls-3" d="M70.86,53.22c.2-.17.16-.38-.09-.46l-.89-.3a.44.44,0,0,1-.28-.59l.34-.88c.1-.24,0-.41-.29-.37l-.93.15a.44.44,0,0,1-.52-.39l-.1-.94c0-.26-.23-.34-.44-.19l-.75.57a.45.45,0,0,1-.65-.11l-.52-.78c-.15-.22-.36-.2-.47,0l-.41.85a.45.45,0,0,1-.62.21l-.83-.45c-.23-.12-.41,0-.4.25l0,.94a.45.45,0,0,1-.46.47h-.94c-.26,0-.37.18-.24.41l.47.81a.45.45,0,0,1-.19.63l-.83.43c-.24.12-.25.33,0,.47l.79.5a.46.46,0,0,1,.13.65l-.55.76c-.15.22-.06.41.2.43l.94.08a.44.44,0,0,1,.41.51l-.12.93c0,.26.13.39.37.29l.87-.37a.45.45,0,0,1,.6.26l.32.88c.09.25.3.29.47.08l.59-.72a.45.45,0,0,1,.66,0l.69.63c.2.17.4.11.45-.15l.19-.92a.46.46,0,0,1,.56-.35l.91.24c.25.06.4-.09.33-.34l-.26-.9a.46.46,0,0,1,.33-.57l.92-.21c.25-.06.31-.27.13-.46l-.65-.67a.45.45,0,0,1,0-.66Z"/><path class="cls-3" d="M69.58,56.63l.26.9c.08.25-.07.41-.33.34l-.9-.23a.45.45,0,0,0-.56.34l-.16.79,2.65,2.95.21-1.8,1.85-.06-3-3.36A.62.62,0,0,0,69.58,56.63Z"/><path class="cls-3" d="M63.63,58l-.86.37c-.24.11-.41,0-.38-.28l.13-.94a.45.45,0,0,0-.41-.51H62l-3.23,2.91,1.8.21.06,1.85,3.65-3.29v0A.46.46,0,0,0,63.63,58Z"/><path class="cls-4" d="M68.87,53.94a3,3,0,1,0-3,3A3,3,0,0,0,68.87,53.94Z"/><path class="cls-5" d="M68.53,53.78A2.7,2.7,0,1,0,66,56.64a2.8,2.8,0,0,0,2.54-2.86Z"/></svg>