<svg id="Layer_1" data-name="Layer 1" xmlns="http://www.w3.org/2000/svg" viewBox="0 0 80 80"><defs><style>.cls-1{fill:#fcd09a;}.cls-2{fill:#2e536b;}.cls-3{fill:#a6cfe5;}.cls-4{fill:#0f2d38;}.cls-5{fill:#f90;}.cls-6{fill:#1053b7;}.cls-7{fill:#3d5f75;}.cls-8{fill:#e0e0e0;}.cls-9{fill:#fff;}</style></defs><path class="cls-1" d="M31.6,43.19l.62-.55,1-1a1,1,0,0,1,.32-.21s2.27-1.3,2.57-1c.14.13-.29.69-.29.69l-1.3,1,2-.33a.83.83,0,0,0,.34-.13s1.21-1.23,1.62-1-.07,1.43-.07,1.43a1,1,0,0,1-.38.71l-2.31,1.78a.94.94,0,0,1-.42.19l-2.35.4a1,1,0,0,1-1.11-.79Z"/><path class="cls-1" d="M48.78,43.44l-.63-.55-1-1a1,1,0,0,0-.32-.21s-2.27-1.3-2.57-1c-.14.13.29.69.29.69l1.3,1-2-.33a.83.83,0,0,1-.34-.13s-1.21-1.23-1.62-1,.07,1.43.07,1.43a1,1,0,0,0,.37.71l2.31,1.78a1,1,0,0,0,.43.19l2.35.4a1,1,0,0,0,1.11-.79Z"/><rect class="cls-2" x="25.55" y="45.01" width="28.91" height="2.96"/><polygon class="cls-1" points="11.83 34.15 14.99 34.75 15.86 31.26 12.69 30.66 11.83 34.15"/><path class="cls-3" d="M34.42,76.63c-6.25,0-7.09.18-8.29.07-1-.09.24-3.84.24-3.84l3.26.07a11.11,11.11,0,0,0,4,2.17C34.79,75.45,34.92,76.62,34.42,76.63Z"/><path class="cls-4" d="M15.15,52,25.6,53.34A2.76,2.76,0,0,1,28,55l2.56,18-5-.07L23.71,58.77S13.65,59.31,10,59c-3.27-.26-2.14-4.29-2-5.79C7.94,53.08,15.15,52,15.15,52Z"/><path class="cls-5" d="M7.76,53.22s-.85-7.62,2.5-18.76c.68-2.25,3.84-2.08,6.45.29,2.18,2,8.38,6.58,8.38,6.58l7.24,1.3V45l-8.15.09c-.48,0-7.47-3.27-7.47-3.27S14.9,51.8,14.86,52C14.86,52,9.8,52.93,7.76,53.22Z"/><path class="cls-1" d="M14.25,28.64s-.85.23-.8-1.53,1.32,0,1.82-.17c.86-.24.57-2.76,1.24-3.33.31-.26.75-.14,1.53-.43a1.75,1.75,0,0,0,.82-.69,5,5,0,0,1,.45.82A18.8,18.8,0,0,1,20,25.67c.5,3.3-.3,5.27-2.5,6.19h0c-1.77.74-3.4.35-5-1.21C14.13,31.16,14.25,28.64,14.25,28.64Z"/><path class="cls-4" d="M10,27.21c-.39-2.61-.52-4.72,1.84-6.38s7.35-.58,7.36,1.66a.93.93,0,0,1-.62.81c-.78.28-1.75.05-2.06.31-.67.57-.38,3.09-1.24,3.33-.5.13-1.76-1.67-1.82.17s.8,1.53.8,1.53-.12,2.52-1.83,2C12,30.28,10.27,29,10,27.21Z"/><path class="cls-6" d="M24.1,63.59H3.22v-.05A4.73,4.73,0,0,1,8,58.81H19.37a4.73,4.73,0,0,1,4.73,4.73Z"/><path class="cls-6" d="M3.28,62.85,0,33.1H.05c2.59-.28,5.13,3.46,5.67,8.35l1.33,12c.54,4.9-1.13,9.1-3.72,9.39Z"/><rect class="cls-6" x="12.85" y="62.19" width="1.63" height="12.04"/><path class="cls-6" d="M19.43,76.74H7.9v0A3.14,3.14,0,0,1,11,73.57h5.25a3.15,3.15,0,0,1,3.14,3.14Z"/><polygon class="cls-1" points="68.17 34.15 65 34.75 64.14 31.26 67.31 30.66 68.17 34.15"/><path class="cls-3" d="M45.57,76.63c6.26,0,7.1.18,8.3.07,1-.09-.24-3.84-.24-3.84l-3.27.07a11,11,0,0,1-4,2.17C45.21,75.45,45.08,76.62,45.57,76.63Z"/><path class="cls-4" d="M64.85,52,54.4,53.34A2.75,2.75,0,0,0,52.05,55l-2.56,18,5-.07,1.78-14.09S66.35,59.31,70,59c3.27-.26,2.14-4.29,2-5.79C72.05,53.08,64.85,52,64.85,52Z"/><path class="cls-6" d="M72.24,53.22s.85-7.62-2.5-18.76c-.68-2.25-3.84-2.08-6.45.29-2.18,2-8.38,6.58-8.38,6.58l-7.24,1.3V45l8.15.09c.48,0,7.47-3.27,7.47-3.27S65.1,51.8,65.14,52C65.14,52,70.2,52.93,72.24,53.22Z"/><path class="cls-1" d="M65.75,28.64s.85.23.8-1.53-1.32,0-1.82-.17c-.86-.24-.57-2.76-1.24-3.33-.31-.26-.75-.14-1.53-.43a1.75,1.75,0,0,1-.82-.69,5,5,0,0,0-.45.82A17.19,17.19,0,0,0,60,25.67c-.5,3.3.3,5.27,2.5,6.19h0c1.77.74,3.4.35,5-1.21C65.87,31.16,65.75,28.64,65.75,28.64Z"/><path class="cls-4" d="M70,27.21c.39-2.61.52-4.72-1.84-6.38s-7.35-.58-7.36,1.66a.93.93,0,0,0,.62.81c.78.28,1.75.05,2.06.31.67.57.38,3.09,1.24,3.33.5.13,1.76-1.67,1.82.17s-.8,1.53-.8,1.53.12,2.52,1.83,2C68,30.28,69.73,29,70,27.21Z"/><path class="cls-6" d="M55.9,63.59H76.78v-.05a4.73,4.73,0,0,0-4.73-4.73H60.63a4.73,4.73,0,0,0-4.73,4.73Z"/><path class="cls-6" d="M76.72,62.85,80,33.1h0c-2.59-.28-5.14,3.46-5.67,8.35L73,53.46c-.54,4.9,1.13,9.1,3.72,9.39Z"/><rect class="cls-6" x="65.52" y="62.19" width="1.63" height="12.04"/><path class="cls-6" d="M60.57,76.74H72.1v0A3.14,3.14,0,0,0,69,73.57H63.71a3.15,3.15,0,0,0-3.14,3.14Z"/><rect class="cls-7" x="31.31" y="47.59" width="17.37" height="29.15"/><rect class="cls-5" x="37.52" y="17.47" width="18.49" height="15.36" rx="6.75"/><polygon class="cls-5" points="59.57 31.92 55.85 27.54 50.4 29.96 59.57 31.92"/><rect class="cls-8" x="23.04" y="3.26" width="18.49" height="15.36" rx="6.75"/><polygon class="cls-8" points="19.49 17.71 23.21 13.33 28.66 15.76 19.49 17.71"/><path class="cls-6" d="M32,14.68h0a3.09,3.09,0,0,1-3.09-3.09V9.44a3.12,3.12,0,0,1,6.23,0v2.15A3.09,3.09,0,0,1,32,14.68Zm0-7a1.78,1.78,0,0,0-1.82,1.77v2.15a1.77,1.77,0,0,0,1.77,1.77h0a1.77,1.77,0,0,0,1.77-1.77V9.44A1.78,1.78,0,0,0,32,7.67Z"/><path class="cls-6" d="M35.09,15.53a.67.67,0,0,1-.47-.2l-2.7-2.7a.65.65,0,0,1,0-.93.66.66,0,0,1,.94,0l2.7,2.7a.65.65,0,0,1,0,.93A.67.67,0,0,1,35.09,15.53Z"/><path class="cls-9" d="M44.05,29.18a.7.7,0,0,1-.25-.05.67.67,0,0,1-.37-.86l2.73-6.74a.65.65,0,0,1,1.22,0l2.72,6.74a.66.66,0,1,1-1.22.49l-2.11-5.22-2.11,5.22A.66.66,0,0,1,44.05,29.18Z"/><path class="cls-9" d="M48.28,26.83H45a.66.66,0,1,1,0-1.32h3.29a.66.66,0,0,1,0,1.32Z"/></svg>