<?xml version="1.0" encoding="utf-8"?>
<!-- Generator: Adobe Illustrator 24.3.0, SVG Export Plug-In . SVG Version: 6.00 Build 0)  -->
<svg version="1.1" id="Layer_1" xmlns="http://www.w3.org/2000/svg" xmlns:xlink="http://www.w3.org/1999/xlink" x="0px" y="0px"
	 viewBox="0 0 80 80" style="enable-background:new 0 0 80 80;" xml:space="preserve">
<style type="text/css">
	.st0{fill:#004870;}
	.st1{fill:#7EB2C4;}
</style>
<path class="st0" d="M64.6,16.3c-4.3,2.4-7.3,3.9-9.8,3.5c4.3-1.7,7.8-5,9.6-9.2c0.2-0.4-1.1-1-1.5-1.2c-0.4-0.2-0.9,0-1.1,0.4
	c-1.2,3.3-3.5,6-6.5,7.8c2.5-4.8,3.9-10.1,4-15.6H20.7c0,6.1,2.5,14.8,6.3,19h25.8l0,0c1.3,0.4,2.6,0.6,3.9,0.5
	c3.2-0.1,6.4-1,9.1-2.7c0.4-0.2,0.1-2-0.1-2.4C65.5,16.2,65,16,64.6,16.3C64.6,16.3,64.6,16.3,64.6,16.3z"/>
<path class="st0" d="M53.2,23H26.8C13.1,28.4,4.1,41.6,4.2,56.3c0,19.8,16,21.5,35.8,21.5s35.8-1.7,35.8-21.5
	C75.9,41.6,66.9,28.4,53.2,23z M49.8,55.5c-0.4,3.9-3.5,6.9-7.4,7.3v4.6H38v-4.2c0,0-5-0.2-7.9-2l1.7-5.2c1.4,0.7,2.8,1.2,4.3,1.6
	c2.3,0.5,6.3,0.3,6.8-1.8s-0.9-2.9-3.8-3.8s-7.8-3.2-8.3-7c-0.5-4.2,1.4-7.4,7.1-8.6v-4.5h4.4v3.9c0,0,4.5,0.3,6.2,1.4l-1,4.8
	c0,0-4.3-1.4-7.2-1.2s-3.1,3.2-1,4.5c2.5,1.6,6.1,2.7,7.2,3.3S50.2,51.2,49.8,55.5L49.8,55.5z"/>
<path class="st1" d="M49.8,55.5c-0.4,3.9-3.5,6.9-7.4,7.3v4.6H38v-4.2c0,0-5-0.2-7.9-2l1.7-5.2c1.4,0.7,2.8,1.2,4.3,1.6
	c2.3,0.5,6.3,0.3,6.8-1.8s-0.9-2.9-3.8-3.8s-7.8-3.2-8.3-7c-0.5-4.2,1.4-7.4,7.1-8.6v-4.5h4.4v3.9c0,0,4.5,0.3,6.2,1.4l-1,4.8
	c0,0-4.3-1.4-7.2-1.2s-3.1,3.2-1,4.5c2.5,1.6,6.1,2.7,7.2,3.3S50.2,51.2,49.8,55.5z"/>
</svg>
