<svg id="Layer_1" data-name="Layer 1" xmlns="http://www.w3.org/2000/svg" viewBox="0 0 80 80"><defs><style>.cls-1{fill:#f2bf64;}.cls-2{fill:#1daa4f;}</style></defs><path class="cls-1" d="M64.62,16.28c-4.28,2.44-7.34,3.94-9.78,3.55a17.46,17.46,0,0,0,9.63-9.19c.18-.43-1.13-1-1.55-1.22a.85.85,0,0,0-1.11.45,15.64,15.64,0,0,1-6.51,7.85,35.71,35.71,0,0,0,4-15.56H20.74c0,6.07,2.45,14.82,6.34,19H52.92a0,0,0,0,1,0,0,13.83,13.83,0,0,0,3.87.55A18.28,18.28,0,0,0,65.9,19c.4-.23.1-2-.13-2.42A.84.84,0,0,0,64.62,16.28Z"/><path class="cls-1" d="M53.21,23H26.77A35.85,35.85,0,0,0,4.16,56.35C4.16,76.13,20.21,77.84,40,77.84s35.84-1.71,35.84-21.49A35.84,35.84,0,0,0,53.21,23Zm-3.4,32.49a8.15,8.15,0,0,1-7.37,7.26v4.59H38V63.14s-5-.25-7.88-2l1.66-5.18a17.92,17.92,0,0,0,4.32,1.56c2.31.47,6.32.35,6.81-1.83s-.9-2.94-3.76-3.75-7.84-3.17-8.29-7c-.5-4.19,1.41-7.43,7.07-8.64V31.83h4.43v3.88s4.54.35,6.24,1.44L47.57,41.9s-4.3-1.43-7.22-1.21-3.13,3.16-1.05,4.49c2.46,1.57,6.09,2.71,7.24,3.33S50.21,51.16,49.81,55.52Z"/><path class="cls-2" d="M49.81,55.52a8.15,8.15,0,0,1-7.37,7.26v4.59H38V63.14s-5-.25-7.88-2l1.66-5.18a17.92,17.92,0,0,0,4.32,1.56c2.31.47,6.32.35,6.81-1.83s-.9-2.94-3.76-3.75-7.84-3.17-8.29-7c-.5-4.19,1.41-7.43,7.07-8.64V31.83h4.43v3.88s4.54.35,6.24,1.44L47.57,41.9s-4.3-1.43-7.22-1.21-3.13,3.16-1.05,4.49c2.46,1.57,6.09,2.71,7.24,3.33S50.21,51.16,49.81,55.52Z"/></svg>