<svg id="Layer_1" data-name="Layer 1" xmlns="http://www.w3.org/2000/svg" viewBox="0 0 80 72"><defs><style>.cls-1{fill:#004870;}.cls-2{fill:#fff;}</style></defs><path class="cls-1" d="M73.19,55.72v9H67.53l-2.49-9H15l-2.49,9H6.81V38.05h3.64V17.57a2.63,2.63,0,0,1,2.47-2.76H67.08a2.63,2.63,0,0,1,2.47,2.76V38.05h3.64V55.72ZM65,38.79V36.21A5.2,5.2,0,0,0,59.85,31H20.15A5.2,5.2,0,0,0,15,36.21v2.58Zm-4.38-9V19.56a59.27,59.27,0,0,1-18.42,0V29.79Zm-22.86,0V19.56a59.27,59.27,0,0,1-18.42,0V29.79Z"/><path class="cls-2" d="M65,38.05v.74H15V36.21A5.2,5.2,0,0,1,20.15,31h39.7A5.2,5.2,0,0,1,65,36.21Z"/><path class="cls-2" d="M60.64,19.56V29.79H42.22V19.56A59.27,59.27,0,0,0,60.64,19.56Z"/><path class="cls-2" d="M37.78,19.56V29.79H19.36V19.56A59.27,59.27,0,0,0,37.78,19.56Z"/></svg>