<svg id="Layer_1" data-name="Layer 1" xmlns="http://www.w3.org/2000/svg" viewBox="0 0 24 24"><defs><style>.cls-1{fill:none;stroke:#abb3c4;stroke-width:1.5px;}.cls-2{fill:#abb3c4;}</style></defs><rect class="cls-1" x="2.52" y="1.37" width="19.5" height="21.5" rx="4.75"/><path class="cls-2" d="M12.27,7.12h0a.71.71,0,0,1,.7.7v8.6a.7.7,0,0,1-.7.7h0a.7.7,0,0,1-.7-.7V7.82A.7.7,0,0,1,12.27,7.12Z"/><path class="cls-2" d="M17.27,11.82h0a.7.7,0,0,1-.7.7H8a.7.7,0,0,1-.7-.7h0a.7.7,0,0,1,.7-.7h8.6A.71.71,0,0,1,17.27,11.82Z"/></svg>