<svg id="Layer_1" data-name="Layer 1" xmlns="http://www.w3.org/2000/svg" xmlns:xlink="http://www.w3.org/1999/xlink" viewBox="0 0 199 40"><defs><style>.cls-1{fill:#221f1f;}.cls-2{fill:#283c80;}.cls-3{fill:url(#linear-gradient);}.cls-4{fill:url(#New_Gradient_Swatch_3);}.cls-5{fill:url(#New_Gradient_Swatch_3-2);}.cls-6{fill:url(#New_Gradient_Swatch_3-3);}.cls-7{fill:url(#New_Gradient_Swatch_3-4);}.cls-8{fill:url(#New_Gradient_Swatch_3-5);}.cls-9{fill:url(#New_Gradient_Swatch_3-6);}.cls-10{fill:url(#New_Gradient_Swatch_3-7);}.cls-11{fill:url(#linear-gradient-2);}.cls-12{fill:#1053b7;}</style><linearGradient id="linear-gradient" x1="8.67" y1="19.92" x2="34.19" y2="19.92" gradientUnits="userSpaceOnUse"><stop offset="0" stop-color="#0e90cf"/><stop offset="0.13" stop-color="#0f7db7"/><stop offset="0.41" stop-color="#12598a"/><stop offset="0.65" stop-color="#143f6a"/><stop offset="0.86" stop-color="#152f56"/><stop offset="1" stop-color="#15294f"/></linearGradient><linearGradient id="New_Gradient_Swatch_3" x1="18.9" y1="10.12" x2="18.94" y2="6.08" gradientTransform="translate(1.71 -5.01) rotate(-0.45)" gradientUnits="userSpaceOnUse"><stop offset="0" stop-color="#0e90cf"/><stop offset="0.21" stop-color="#1186c5"/><stop offset="0.56" stop-color="#196daa"/><stop offset="1" stop-color="#254580"/></linearGradient><linearGradient id="New_Gradient_Swatch_3-2" x1="55.35" y1="-404.82" x2="55.73" y2="-410.01" gradientTransform="translate(-297.59 251.6) rotate(45.93)" xlink:href="#New_Gradient_Swatch_3"/><linearGradient id="New_Gradient_Swatch_3-3" x1="-710.53" y1="301.52" x2="-710.96" y2="295.79" gradientTransform="translate(-289.16 -692.97) rotate(-89.53)" xlink:href="#New_Gradient_Swatch_3"/><linearGradient id="New_Gradient_Swatch_3-4" x1="-251.03" y1="327.2" x2="-249.93" y2="321.74" gradientTransform="translate(-43.1 -397.67) rotate(-44.98)" xlink:href="#New_Gradient_Swatch_3"/><linearGradient id="New_Gradient_Swatch_3-5" x1="-964.42" y1="42.58" x2="-964.68" y2="38.52" gradientTransform="translate(-687.56 -637.51) rotate(-133.75)" xlink:href="#New_Gradient_Swatch_3"/><linearGradient id="New_Gradient_Swatch_3-6" x1="-973.69" y1="-344.78" x2="-974.03" y2="-349.42" gradientTransform="translate(-946.39 -329.88) rotate(-178.83)" xlink:href="#New_Gradient_Swatch_3"/><linearGradient id="New_Gradient_Swatch_3-7" x1="-788.51" y1="-574.99" x2="-788.52" y2="-579.06" gradientTransform="translate(-944.59 -19.97) rotate(146.98)" xlink:href="#New_Gradient_Swatch_3"/><linearGradient id="linear-gradient-2" x1="16.18" y1="-9.93" x2="26.39" y2="-9.46" gradientTransform="matrix(1, 0.05, -0.05, 1, -9.11, 28.07)" gradientUnits="userSpaceOnUse"><stop offset="0" stop-color="#0e90cf"/><stop offset="0.28" stop-color="#1871ae"/><stop offset="0.55" stop-color="#1f5995"/><stop offset="0.8" stop-color="#234a85"/><stop offset="1" stop-color="#254580"/></linearGradient></defs><path class="cls-1" d="M20.43,18l-.23-.09c-.35-.14-.54-.31-.54-.61s.28-.53.64-.53a.89.89,0,0,1,.39.09l.1.6h.41l0-.7a1.6,1.6,0,0,0-.93-.27c-.73,0-1.24.37-1.24,1s.36.85.94,1.09l.21.09c.39.16.56.29.56.6s-.27.56-.7.56a1.3,1.3,0,0,1-.54-.11l-.1-.63H19l0,.75a2.16,2.16,0,0,0,1.08.27c.82,0,1.32-.4,1.32-1S21.11,18.25,20.43,18Z"/><path class="cls-1" d="M24.08,18.47a1,1,0,0,0-1-1,1.26,1.26,0,0,0-1.28,1.32A1.19,1.19,0,0,0,23,20.05a1.12,1.12,0,0,0,1-.6l-.15-.13a.89.89,0,0,1-.69.32c-.44,0-.76-.3-.78-.89h1.61A1.14,1.14,0,0,0,24.08,18.47Zm-.92,0h-.72c0-.62.31-.83.57-.83a.49.49,0,0,1,.47.53C23.48,18.4,23.42,18.51,23.16,18.51Z"/><path class="cls-1" d="M26.68,19.72c-.1,0-.15-.06-.15-.23V18.36c0-.67-.27-.93-.88-.93s-1,.26-1.12.68a.27.27,0,0,0,.3.23c.17,0,.3-.11.33-.36l.06-.29h.22c.34,0,.46.13.46.61v.15a4.39,4.39,0,0,0-.5.14c-.76.24-.94.49-.94.81a.64.64,0,0,0,.7.66,1,1,0,0,0,.76-.4.49.49,0,0,0,.52.39.55.55,0,0,0,.55-.33l-.13-.1A.24.24,0,0,1,26.68,19.72Zm-1.61-.43c0-.2.11-.38.46-.52l.37-.13v.82c-.23.16-.32.21-.46.21A.34.34,0,0,1,25.07,19.29Z"/><path class="cls-1" d="M30.7,19.7H29.53c0-.44,0-.88,0-1.35h.68l.07.45h.27V17.63h-.27l-.07.45h-.68c0-.43,0-.85,0-1.26H30.6l.11.63h.37l0-.91H28.38v.25l.45.05v2.85l-.45,0V20h2.77l0-.91h-.37Z"/><path class="cls-1" d="M33.93,17l0-.73-.08-.05-1,.24v.2l.41.05v1.07a.81.81,0,0,0-.67-.31,1.2,1.2,0,0,0-1.14,1.33c0,.8.45,1.29,1.07,1.29a.89.89,0,0,0,.73-.35l0,.33.93-.05v-.22l-.35-.06Zm-1.1,2.72c-.37,0-.64-.3-.64-.93s.29-1,.65-1a.7.7,0,0,1,.45.19v1.49A.6.6,0,0,1,32.83,19.68Z"/><path class="cls-1" d="M37,18.24v-.73L37,17.46l-.9.12v.19l.33.07v1.48a1,1,0,0,1-.6.3c-.24,0-.36-.14-.36-.53v-.85l0-.73-.07-.05-.92.11v.2l.34.07,0,1.28c0,.68.28.93.72.93a1.12,1.12,0,0,0,.89-.48l0,.45.9,0v-.21L37,19.7Z"/><path class="cls-1" d="M39.09,19.64c-.47,0-.79-.34-.79-1s.33-1,.71-1a.62.62,0,0,1,.19,0l.07.3c0,.25.15.37.34.37a.28.28,0,0,0,.3-.23.9.9,0,0,0-1-.71,1.26,1.26,0,0,0-1.32,1.31,1.2,1.2,0,0,0,1.25,1.31,1,1,0,0,0,1-.65l-.16-.11A.78.78,0,0,1,39.09,19.64Z"/><path class="cls-1" d="M42.49,19.72c-.1,0-.15-.06-.15-.23V18.36c0-.67-.27-.93-.88-.93s-1.05.26-1.12.68a.27.27,0,0,0,.3.23c.17,0,.3-.11.33-.36l.06-.29h.22c.34,0,.46.13.46.61v.15a4.39,4.39,0,0,0-.5.14c-.76.24-.94.49-.94.81a.63.63,0,0,0,.69.66,1,1,0,0,0,.77-.4.49.49,0,0,0,.52.39.55.55,0,0,0,.55-.33l-.13-.1A.24.24,0,0,1,42.49,19.72Zm-1.61-.43c0-.2.11-.38.46-.52l.37-.13v.82c-.23.16-.32.21-.46.21A.34.34,0,0,1,40.88,19.29Z"/><path class="cls-1" d="M44.17,19.71c-.17,0-.28-.12-.28-.37V17.81h.63V17.5h-.63l0-.72h-.42l-.2.71-.43.06v.26h.39V19.4a.59.59,0,0,0,.67.65.76.76,0,0,0,.69-.34l-.12-.13A.6.6,0,0,1,44.17,19.71Z"/><path class="cls-1" d="M45.76,18.89V17.48l-.08-.05-1,.32V18l.38,0c0,.21,0,.37,0,.65v.25c0,.22,0,.55,0,.81l-.34.06V20h1.3v-.22l-.32-.06Z"/><path class="cls-1" d="M45.44,16.94a.37.37,0,1,0,0-.73.37.37,0,1,0,0,.73Z"/><path class="cls-1" d="M47.69,17.43a1.24,1.24,0,0,0-1.27,1.31,1.27,1.27,0,1,0,2.54,0A1.24,1.24,0,0,0,47.69,17.43Zm0,2.37c-.38,0-.58-.34-.58-1.06s.2-1.06.58-1.06.59.35.59,1.06S48.07,19.8,47.69,19.8Z"/><path class="cls-1" d="M51.93,19.7c0-.25,0-.58,0-.81v-.54c0-.64-.26-.92-.72-.92a1.21,1.21,0,0,0-.89.45l0-.4-.09-.05-.88.32V18l.37,0c0,.21,0,.34,0,.63v.27c0,.22,0,.55,0,.81l-.34.06V20h1.3v-.22l-.31-.06c0-.26,0-.59,0-.81v-.77a.93.93,0,0,1,.6-.26c.26,0,.37.14.37.54v.49c0,.23,0,.55,0,.81l-.34.06V20h1.31v-.22Z"/><path class="cls-2" d="M24.76,22a.57.57,0,0,1,0-.14.22.22,0,0,1,0-.09s0-.06,0-.1,0-.07,0-.1a.45.45,0,0,0,0-.08s0,0,0,0,0,0,0,0h0a.45.45,0,0,0-.13.11.37.37,0,0,0-.1.16.59.59,0,0,0-.05.13c0,.06,0,.13-.05.22a2.82,2.82,0,0,0-.07.31,1.23,1.23,0,0,0,0,.17,1.23,1.23,0,0,1,0,.17v.08s0,.06,0,.1a.3.3,0,0,1,0,.1s0,.05,0,.07a3.9,3.9,0,0,1,0,.4c0,.1,0,.16,0,.19s0,.1,0,.17,0,.14-.05.23a1.55,1.55,0,0,1,0,.15.29.29,0,0,0,0,.09.2.2,0,0,0,0,.07.22.22,0,0,1,0,.09s0,0,0,0,0,0-.09-.11a3.11,3.11,0,0,1-.16-.32l-.18-.43c-.05-.16-.11-.31-.16-.47a4.08,4.08,0,0,0-.17-.42,1.72,1.72,0,0,0-.09-.25.64.64,0,0,1,0-.15.16.16,0,0,1,0-.09.45.45,0,0,0,.08-.18.93.93,0,0,1,0-.13l0-.11a.18.18,0,0,0,0-.06v0l0,0-.07,0-.07,0-.06.06-.07.08,0,.05-.06,0a.07.07,0,0,0-.06,0h-.14l-.1,0a.12.12,0,0,0-.05,0l0,.11,0,.1,0,.16c0,.27-.08.53-.13.79s-.07.47-.1.62a2.6,2.6,0,0,1-.05.28l0,.11a.45.45,0,0,1,0,.08c0,.09,0,.17,0,.23a.63.63,0,0,1,0,.16s0,.05,0,.1,0,.11-.05.2,0,.14,0,.19a.89.89,0,0,0,0,.11.22.22,0,0,0,0,.1s0,0,0,0a.08.08,0,0,0,.06,0l0,0a.11.11,0,0,0,.08,0,.19.19,0,0,0,0-.09c0-.07,0-.14.06-.19a.72.72,0,0,1,0-.14.77.77,0,0,1,0-.15l.05-.09,0-.14,0-.14c0-.13.08-.25.11-.37l.09-.32a.73.73,0,0,0,.05-.12c0-.07,0-.13,0-.18s0-.09,0-.13h0l.06.11s0,.07,0,.1l.18.39.13.28,0,.08s0,0,0,.06a.89.89,0,0,0,.07.18c0,.08.09.18.16.3a2.35,2.35,0,0,0,.18.31c.06.06.09.1.12.1l.17-.06a.7.7,0,0,0,.16-.06l.08-.13a1.9,1.9,0,0,0,.09-.29,1.57,1.57,0,0,0,0-.25,2.2,2.2,0,0,0,.09-.42,3.92,3.92,0,0,0,.06-.52c0-.15,0-.31.05-.47l0-.47a1.58,1.58,0,0,0,0-.26A.85.85,0,0,0,24.76,22Z"/><path class="cls-2" d="M28.53,23.28s0,0,0,0h0a.15.15,0,0,0-.14.07.51.51,0,0,0-.08.21.6.6,0,0,1-.08.24c0,.11-.11.25-.19.42a3.28,3.28,0,0,1-.22.38c-.06.09-.11.13-.14.13s-.05-.05-.06-.15a2.7,2.7,0,0,1,0-.45s0,0,0,0V24s0-.09,0-.15v-.24a.46.46,0,0,0,0-.14s0-.05-.05-.05a.32.32,0,0,0-.13.07l-.11.08a2.2,2.2,0,0,1-.09.21c0,.05-.05.1-.07.14L27,24a.71.71,0,0,1-.12.13l-.11.13-.05.07h0l0,0h0l0,0,0,.05,0,0h-.05a.14.14,0,0,1-.12-.06.2.2,0,0,1,0-.15,2.09,2.09,0,0,1,0-.24.28.28,0,0,0,0-.12.09.09,0,0,0-.08-.05.4.4,0,0,0-.19.07,1,1,0,0,0-.22.21l0,0,0,0-.08.07-.14.12-.14.12-.11.06,0,0,.12-.17.06-.08a1.69,1.69,0,0,0,.23-.21.4.4,0,0,0,.11-.15l.1-.07.05-.05s0,0,0-.06l.14-.11.1-.12.14-.1a.13.13,0,0,0,.06-.07.2.2,0,0,0,0-.09.11.11,0,0,0,0-.08.15.15,0,0,0-.1,0,.65.65,0,0,0-.3.11,3.1,3.1,0,0,0-.41.33l-.09.08-.08,0a.38.38,0,0,0-.09.09l-.06.06-.07,0-.05.06,0,.06s0,0,0,0l-.23.16-.05.07,0,0a.36.36,0,0,1,0,.09l0,.08v0a0,0,0,0,1,0,0v.05a.47.47,0,0,0-.09.12.31.31,0,0,0,0,.13.23.23,0,0,0,.06.18.24.24,0,0,0,.18.06h.06l.09,0,.15-.08.12-.09.09-.08.15-.15.12-.09.08-.07,0,0,0,0s0,0,0,.05a.09.09,0,0,1,0,.05.45.45,0,0,0,.11.28.33.33,0,0,0,.25.09.4.4,0,0,0,.15,0l.15-.08.12-.11.12-.11.21-.23.1-.09,0,0,0,.06a.35.35,0,0,1,0,.06v.14a.43.43,0,0,0,0,.11.19.19,0,0,0,0,.08.15.15,0,0,1,0,.06.62.62,0,0,0,.07.31.25.25,0,0,0,.21.11l.09,0,.06-.06.05-.06.06-.06a1,1,0,0,0,.18-.2.24.24,0,0,0,.06-.14,1.49,1.49,0,0,0,.14-.23,1.21,1.21,0,0,0,.12-.23.74.74,0,0,1,0-.14,1.07,1.07,0,0,0,.09-.19.34.34,0,0,0,0-.15,1.8,1.8,0,0,0,.08-.21A.76.76,0,0,0,28.53,23.28Z"/><path class="cls-2" d="M29.06,23h.17l.05,0,.1-.05.1-.08.06-.1a.22.22,0,0,0,0-.08,1.55,1.55,0,0,0,0-.15l0-.12a.09.09,0,0,0,0-.07.12.12,0,0,0-.09,0l-.1,0-.07,0-.1.13c-.05,0-.1,0-.17.12a.32.32,0,0,0-.09.19.52.52,0,0,0,0,.14A.1.1,0,0,0,29.06,23Z"/><path class="cls-2" d="M31.16,25.15a.19.19,0,0,1-.06-.07.09.09,0,0,1,0-.06l.17-.23.12-.16.07-.08-.1-.23-.29.34a.85.85,0,0,1-.15.13s-.05,0-.06-.05,0,0,0,0l-.11-.16-.06-.08a.83.83,0,0,1,0-.12s0-.11,0-.17a1,1,0,0,1,0-.12l.1-.09a.3.3,0,0,1,.08-.08l.17-.19.17-.18.19-.25a.3.3,0,0,0,.06-.14.34.34,0,0,0,0-.19.11.11,0,0,0-.1-.06.5.5,0,0,0-.21.05.59.59,0,0,0-.17.18l-.3.32a1.72,1.72,0,0,0-.15.2.48.48,0,0,0-.08.16l-.06.12a.41.41,0,0,0-.05.09l-.1.12-.08.08a.33.33,0,0,0-.06.08l-.05.06h0l-.08.06-.08.07a.27.27,0,0,1-.1.06h-.16l0,0a.49.49,0,0,1,0-.12.75.75,0,0,0,0-.15l0-.17,0-.15a.22.22,0,0,0-.08-.14.33.33,0,0,0-.15,0l-.07,0a.17.17,0,0,0-.06.06,2.65,2.65,0,0,1-.24.24,2,2,0,0,0-.25.24v0l0,0,0,0s0,0,0,0,0,.08,0,.11l0,.08.17-.16a.24.24,0,0,1,.11-.06.05.05,0,0,1,0,0l.06.09,0,.06a.09.09,0,0,1,0,0,.77.77,0,0,0,.16.3.61.61,0,0,0,.3.05.19.19,0,0,0,.11,0l.19-.11.16-.12.11-.09h0a.57.57,0,0,1,.11-.11s0,0,0,0a.75.75,0,0,0,.08.24,1.43,1.43,0,0,0,.15.22c.06.08.12.15.17.23a.31.31,0,0,1,0,.08l-.08.09-.15.15a.36.36,0,0,1-.07.1l-.07.11-.07.12-.05.1L30,26a.18.18,0,0,0,0,.06,1.7,1.7,0,0,0,0,.25.31.31,0,0,0,0,.13.23.23,0,0,0,.11.11.69.69,0,0,0,.22,0,1,1,0,0,0,.63-.29.93.93,0,0,0,.36-.58.18.18,0,0,0,0-.06v-.05a1.11,1.11,0,0,0-.08-.29A.75.75,0,0,0,31.16,25.15Zm-1.22-.78a.36.36,0,0,1,0,.09l0,.06Zm.79,1.77a.58.58,0,0,1-.4.21l-.09,0a.14.14,0,0,1,0-.07.4.4,0,0,1,0-.13.48.48,0,0,1,0-.13l.12-.17a1,1,0,0,1,.11-.17,1.16,1.16,0,0,1,.15-.21c0-.05.06-.07.07-.07a.09.09,0,0,1,.06,0l.07.11s0,.08,0,.12a.38.38,0,0,1,0,.1A.58.58,0,0,1,30.73,26.14Z"/><path class="cls-2" d="M36,24.32l-.05,0,0,0-.15.07-.18,0-.11,0-.07,0a.1.1,0,0,1,0-.06.15.15,0,0,1,0-.09.13.13,0,0,1,0-.06l0-.05a2.72,2.72,0,0,0,.34-.36.68.68,0,0,0,.16-.28l0-.08a.51.51,0,0,0,0-.09h0s0-.08,0-.11a1,1,0,0,0,0-.1.16.16,0,0,0,0-.06.1.1,0,0,0-.07,0l-.1,0h-.09l-.07,0-.06,0s-.05,0-.06.05l-.12.14-.12.12-.1.19a.73.73,0,0,0-.06.14.69.69,0,0,0,0,.1l0,.09a.38.38,0,0,1,0,.1v.1a.65.65,0,0,0-.12.11.38.38,0,0,0-.08.11h0c-.12.09-.2.17-.27.21l-.11.08,0,0a.13.13,0,0,1,0-.06s0-.09,0-.18,0-.2.06-.34.09-.33.12-.46.07-.24.1-.32a.37.37,0,0,0,0-.09l0-.06.17,0s0,0,0-.08,0-.13,0-.23,0-.05,0-.06a.05.05,0,0,0,0,0l0,0s0,0,0,0a.63.63,0,0,1,0-.14.56.56,0,0,0,0-.15.16.16,0,0,0,0-.11.1.1,0,0,0-.09,0c-.08,0-.15.08-.22.24s-.13.24-.19.24l-.09,0h-.07l-.06,0-.08,0h-.44s-.08,0-.1.09a.54.54,0,0,0,0,.25l0,0s0,0,0,0l0,0,.05,0h.58s0,0,0,0l-.06.11a.59.59,0,0,1,0,.08,6.1,6.1,0,0,1-.35.53,3.46,3.46,0,0,1-.35.4l-.06.07,0,.05v0h0l0,0h0l0,0,0,.05,0,0h0a.16.16,0,0,1-.13-.06.24.24,0,0,1,0-.15V24a.19.19,0,0,0,0-.12.1.1,0,0,0-.08-.05.37.37,0,0,0-.19.07,1.07,1.07,0,0,0-.23.21l0,0,0,0-.08.07-.14.12L32,24.5a.34.34,0,0,1-.12.06l0,0,.12-.17.07-.08.23-.21a.55.55,0,0,0,.11-.15l.1-.07,0-.05,0-.06.14-.11.1-.12.14-.1s0,0,.06-.07a.2.2,0,0,0,0-.09.11.11,0,0,0,0-.08.17.17,0,0,0-.1,0,.65.65,0,0,0-.3.11,2.57,2.57,0,0,0-.41.33l-.1.08-.07,0-.1.09s0,.05-.06.06l-.06,0-.05.06a.61.61,0,0,0,0,.06l0,0-.24.16a.25.25,0,0,0,0,.07s0,0,0,0l0,.09,0,.08,0,0s0,0,0,0a.11.11,0,0,1,0,.05.47.47,0,0,0-.09.12.31.31,0,0,0,0,.13.23.23,0,0,0,.06.18.25.25,0,0,0,.19.06h.05l.09,0,.16-.08.12-.09a.24.24,0,0,1,.09-.08l.15-.15.11-.09.09-.07,0,0,0,0s0,0,0,.05,0,0,0,.05a.45.45,0,0,0,.1.28.36.36,0,0,0,.26.09.35.35,0,0,0,.14,0l.15-.08a.65.65,0,0,0,.12-.11l.12-.11h0s0-.05.05-.06l0,0,.26-.25.15-.14a.91.91,0,0,0,.1-.13l0,0s0,0,0,0l-.06.13,0,.19,0,.1a.23.23,0,0,0,0,.07s0,0,0,0,0,.1,0,.17a1.93,1.93,0,0,0,0,.25.28.28,0,0,0,.06.2.18.18,0,0,0,.16.07.2.2,0,0,0,.11,0l.13-.09.09-.1.09-.1.08-.08.07-.06.11-.09.07-.06h0a.17.17,0,0,1,.06-.06l0,0s0,0,.05,0a.29.29,0,0,1,0,.08.67.67,0,0,0,.06.12.13.13,0,0,0,0,.07.2.2,0,0,0,.12.08.43.43,0,0,0,.17,0h.12l.1,0a.43.43,0,0,0,.22-.07,1.5,1.5,0,0,0,.26-.21l0-.1A.49.49,0,0,0,36,24.32Zm-2.71,0h0s0,0,0,0v0Zm1.46.08,0,.05,0,.06Zm.54-.53a0,0,0,0,1,0,0,.45.45,0,0,1,.1-.21c.06-.1.11-.14.15-.14h0s0,0,0,0a.25.25,0,0,1,0,.07l0,.07-.05,0,0,.06,0,.05a.05.05,0,0,1,0,0Z"/><path class="cls-2" d="M39.35,22.71l0,0s0-.07,0-.1,0,0,0-.07l.07-.21c0-.07.05-.14.07-.22a.9.9,0,0,0,0-.19,1.93,1.93,0,0,0,0-.24.31.31,0,0,0,0-.11.12.12,0,0,0-.09,0l0,0,0,.05-.27.43a.81.81,0,0,0-.1.16c0,.08-.07.15-.09.21l-.08.14a.64.64,0,0,0-.06.16.76.76,0,0,0,0,.11l0,.06,0,0a1.17,1.17,0,0,1,0,.11l0,.08-.17.35c0,.07-.06.11-.07.11h0a.3.3,0,0,1,0-.08l-.05-.06c0-.11,0-.22-.07-.31s0-.17,0-.23,0-.19,0-.27a1.91,1.91,0,0,1,0-.2.07.07,0,0,0,0-.05v0a.72.72,0,0,1,0-.13c0-.06,0-.11,0-.14a.66.66,0,0,0,0-.15.25.25,0,0,0,0-.1.2.2,0,0,0-.06-.11.16.16,0,0,0-.11,0l-.19.09h-.09a.16.16,0,0,0-.08.06.26.26,0,0,0,0,.14V22a.25.25,0,0,0,0,.08.34.34,0,0,1,0,.09.35.35,0,0,0,0,.06l0,.06,0,0c0,.09,0,.17,0,.24a1.41,1.41,0,0,1,0,.18l.19.65c0,.06,0,.11.08.16l0,.11a.65.65,0,0,0,.08.17,1.06,1.06,0,0,0,.15.15,1.55,1.55,0,0,1,0,.15.54.54,0,0,1-.06.11,1.16,1.16,0,0,1-.06.15,1,1,0,0,0,0,.11s0,0,0,0v0h0a.89.89,0,0,0-.08.17.65.65,0,0,0-.06.21.81.81,0,0,0,0,.09.07.07,0,0,0,0,.06l.08,0,.08,0h.08a.65.65,0,0,0,.19-.09c.1,0,.15-.1.15-.14a.15.15,0,0,0,0-.06s0-.06,0-.08a.56.56,0,0,0,0-.07,1.3,1.3,0,0,0,0-.13c0-.09,0-.18.08-.28s.08-.21.13-.32l.15-.3V23.6a4.73,4.73,0,0,0,.27-.41c.08-.11.13-.22.18-.3l0-.08s0,0,0-.06Z"/><path class="cls-2" d="M45,24.32l-.07,0a1.1,1.1,0,0,0-.17.15l-.1.08-.08,0h0s0,0,0,0a.87.87,0,0,1,.08-.28,1,1,0,0,0,.08-.29,1,1,0,0,0,0-.33.49.49,0,0,0-.16-.21l0,0-.12-.1a.19.19,0,0,0-.14-.05.4.4,0,0,0-.22.08.46.46,0,0,0-.16.15l0,.12a1.15,1.15,0,0,1-.17.26,3,3,0,0,1-.31.3.44.44,0,0,0-.08.11h-.11a.1.1,0,0,1-.1-.05.24.24,0,0,1,0-.14l0-.07A.54.54,0,0,0,43,24v-.12s0-.05,0-.06a.08.08,0,0,0,0-.05h-.11a.18.18,0,0,0-.13.06.37.37,0,0,0-.11.18l0,.05,0,.05-.1.14-.14.16a.63.63,0,0,1-.1.12l-.09.05-.06,0s0,0,0-.06a1.06,1.06,0,0,1,0-.21,1.11,1.11,0,0,1,0-.17.88.88,0,0,1,0-.2,1.54,1.54,0,0,1,0-.17c0-.06,0-.12.05-.18l0-.1s0,0,0-.06,0,0,0-.05a.06.06,0,0,0,0-.06.05.05,0,0,0-.05,0l-.08,0-.16.07-.12.16-.11.16-.13.15L41.4,24l-.12.15-.1.09a0,0,0,0,1,0,0l0,0h0l0,0,0,0,0,0a.05.05,0,0,1,0,0,.28.28,0,0,0,.05-.08.67.67,0,0,0,.06-.12.79.79,0,0,0,0-.13.38.38,0,0,0,0-.1.53.53,0,0,0-.09-.34.36.36,0,0,0-.28-.11l-.09,0-.17.06,0,0,.06-.12,0,0h-.08l-.1,0-.08.05-.07.08-.08.07-.06.06-.08.06a.46.46,0,0,1-.07.07l0,.07-.19.16-.11.11-.19.14-.05.06,0,.05.06.11,0,.12,0-.05,0,0,.14-.11.06,0h0a0,0,0,0,1,0,0,.62.62,0,0,1,0,.11.53.53,0,0,0,0,.16.36.36,0,0,0,.11.27A.35.35,0,0,0,40,25h.11l.1,0,.11-.05a1.39,1.39,0,0,0,.21-.11l.15-.15.06.07a.17.17,0,0,0,.1,0l.11,0,.11-.07.09-.07.09-.08h0l.05-.07,0,0,.15-.15h0s0,0,0,0,0,.06,0,.11,0,0,0,.09a1,1,0,0,0,0,.21.29.29,0,0,0,.09.2.25.25,0,0,0,.19.07A.28.28,0,0,0,42,25a.62.62,0,0,0,.19-.15l.14-.15a2.09,2.09,0,0,1,.14-.17l.06-.07.05-.06,0,.06s0,0,0,.06a.34.34,0,0,0,.12.2.33.33,0,0,0,.21.06.41.41,0,0,0,.15,0l.25-.14-.1-.23.05.11a.61.61,0,0,1,0,.12s0,0,0-.05l0,0a.85.85,0,0,0,.14-.1l.07-.09a.46.46,0,0,0,.1-.07l.13-.15a.62.62,0,0,1,.14-.14.47.47,0,0,1,.12-.09.2.2,0,0,1,.13.08.41.41,0,0,1,0,.21,1.12,1.12,0,0,1,0,.24c0,.09,0,.19-.08.3l0,.07a.21.21,0,0,0,0,.06l0,.08a.2.2,0,0,0,0,.07.12.12,0,0,0,0,.1.35.35,0,0,0,.16,0,.33.33,0,0,0,.12-.05l.34-.21.23-.15.07-.06,0-.05,0-.12Zm-4.27-.11s0,.06,0,.08a.07.07,0,0,1,0,.05l-.07.09a.73.73,0,0,1-.19.2.43.43,0,0,1-.22.06.14.14,0,0,1-.11,0,.13.13,0,0,1,0-.1.28.28,0,0,1,0-.09,1,1,0,0,1,0-.14.53.53,0,0,1,.06-.13s0-.05,0-.05l.07,0a.09.09,0,0,0,.06,0l.09-.13,0-.06,0,0,.13,0s.05,0,.05,0a.12.12,0,0,1,0,.05l0,.12Zm.46.22h0v0l0,.06Z"/><path class="cls-2" d="M48.4,21.58a.55.55,0,0,0-.24,0h-.07l-.1,0-.05,0h0l-.08,0-.07,0a1.07,1.07,0,0,0-.49.24,1.78,1.78,0,0,0-.26.33.82.82,0,0,0-.13.31l0,.23v0a.11.11,0,0,1,0,.05l0,.08s0,.06,0,.12a1.44,1.44,0,0,0,0,.24c0,.08,0,.14,0,.19s0,.07,0,.08l-.07.05-.06.06,0,.07-.05.08v0h0l.06,0h.13s0,0,0,0,0,0,0,.06a.11.11,0,0,0,0,.05v.07a.26.26,0,0,1,0,.07c0,.1,0,.19,0,.28s0,.1,0,.16a.71.71,0,0,0,0,.14.49.49,0,0,0,0,.11.11.11,0,0,0,0,.05.72.72,0,0,0,0,.13c0,.06,0,.11,0,.14v.16a.22.22,0,0,0,0,.09.16.16,0,0,0,0,.11.2.2,0,0,0,.11,0h.06a.41.41,0,0,0,.05-.09.12.12,0,0,0,0-.08c0-.13,0-.26,0-.39s0-.26,0-.39v-.09l0-.3V24l0-.11a.93.93,0,0,1,.06-.18s0-.06.06-.06h.15l.07,0,.14,0,.14,0h.15l.13,0,.27.06.12,0,.07-.12c0-.07,0-.13,0-.17v-.07a.13.13,0,0,0-.07-.12.43.43,0,0,0-.22,0l-.18,0h-.16l-.17,0-.17,0-.15,0-.11,0,0,0a.08.08,0,0,1,0-.05.25.25,0,0,1,0-.07.17.17,0,0,0,0-.05l.12-.51a.66.66,0,0,1,.07-.21.67.67,0,0,0,.08-.18.25.25,0,0,1,.19-.1l.12,0H48l.09,0,.15.06.13.06a.13.13,0,0,0,.06-.05l0-.14c0-.05,0-.1,0-.14s0-.07,0-.1A.14.14,0,0,0,48.4,21.58Z"/><path class="cls-2" d="M50.59,24.34a.12.12,0,0,1-.11-.05.24.24,0,0,1,0-.14.23.23,0,0,0,0-.07.32.32,0,0,1,0-.08.41.41,0,0,0,0-.12.35.35,0,0,0,0-.06.1.1,0,0,0-.06-.05h-.1a.2.2,0,0,0-.14.06A.37.37,0,0,0,50,24l0,.05-.05.05-.09.14-.14.16a.65.65,0,0,1-.11.12l-.09.05-.06,0s0,0,0-.06a1.22,1.22,0,0,1,0-.21,1,1,0,0,1,0-.17c0-.06,0-.12,0-.2a.84.84,0,0,0,0-.17,1.21,1.21,0,0,0,.05-.18.42.42,0,0,0,0-.1.14.14,0,0,0,0-.06.09.09,0,0,0,0-.05.08.08,0,0,0,0-.06.06.06,0,0,0-.06,0l-.08,0-.16.07-.11.16-.12.16-.13.15L48.8,24l-.13.15a.41.41,0,0,1-.1.09v0l0,0c0,.05.05.1.07.14a.32.32,0,0,1,0,.09l.05-.07,0,0,.14-.15h0s0,0,0,0,0,.06,0,.11v.09q0,.07,0,.21a.34.34,0,0,0,.1.2.25.25,0,0,0,.19.07.3.3,0,0,0,.17-.05.6.6,0,0,0,.18-.15l.14-.15.14-.17.06-.07.06-.06,0,.06a.14.14,0,0,1,0,.06.48.48,0,0,0,.12.2.37.37,0,0,0,.21.06.34.34,0,0,0,.15,0l.26-.14-.11-.23h-.1Z"/><path class="cls-2" d="M54.16,24.34s-.09,0-.11-.05a.24.24,0,0,1,0-.14.23.23,0,0,0,0-.07A.32.32,0,0,1,54,24c0-.05,0-.09,0-.12a.35.35,0,0,0,0-.06.1.1,0,0,0-.06-.05h-.1a.2.2,0,0,0-.14.06.37.37,0,0,0-.11.18l0,.05-.05.05-.09.14-.14.16-.11.12-.09.05-.06,0s0,0,0-.06a1.22,1.22,0,0,1,0-.21,1,1,0,0,1,0-.17c0-.06,0-.12,0-.2s0-.11,0-.17a1.21,1.21,0,0,0,.05-.18.42.42,0,0,0,0-.1.14.14,0,0,0,0-.06.09.09,0,0,0,0-.05.08.08,0,0,0,0-.06.07.07,0,0,0-.06,0l-.08,0-.16.07-.11.16-.12.16-.13.15-.11.15-.13.15-.1.09v0l0,0h0a2.57,2.57,0,0,1-.27.21l-.11.08,0,0s0,0,0-.06,0-.09,0-.18l.07-.34c0-.18.08-.33.12-.46a2.49,2.49,0,0,1,.1-.32.24.24,0,0,1,0-.09v-.06l.17,0s0,0,0-.08a1.48,1.48,0,0,0,0-.23v-.06l0,0,0,0,0,0,0-.14a.34.34,0,0,0,0-.15.16.16,0,0,0,0-.11.13.13,0,0,0-.1,0c-.08,0-.15.08-.22.24s-.13.24-.19.24l-.08,0h-.08l-.06,0-.08,0H51a.11.11,0,0,0-.11.09.72.72,0,0,0,0,.25l0,0s0,0,.05,0l0,0,0,0h.59v0l-.05.11,0,.08a6.11,6.11,0,0,1-.34.53,4.81,4.81,0,0,1-.36.4l-.06.07,0,.05v0a0,0,0,0,1,0,0v0a.76.76,0,0,1,0,.11l0,.08a.15.15,0,0,1,0-.06l0,0,.27-.25.14-.14.11-.13,0,0s0,0,0,0l-.06.13,0,.19,0,.1a.56.56,0,0,1,0,.07s0,0,0,0a.61.61,0,0,0,0,.17c0,.07,0,.16,0,.25a.28.28,0,0,0,.06.2.19.19,0,0,0,.17.07l.11,0a.47.47,0,0,0,.12-.09l.09-.1.09-.1.09-.08L52,24.7l.11-.09a.22.22,0,0,0,.07-.06h0l.05-.07,0,0,.14-.15h0s0,0,0,0,0,.06,0,.11v.09q0,.07,0,.21a.34.34,0,0,0,.1.2.24.24,0,0,0,.19.07A.3.3,0,0,0,53,25a.6.6,0,0,0,.18-.15l.14-.15.14-.17.06-.07.06-.06,0,.06a.14.14,0,0,1,0,.06.48.48,0,0,0,.12.2.35.35,0,0,0,.36,0l.25-.14-.1-.23h-.1Zm-2,.07,0,.05a.14.14,0,0,1,0,.06Z"/><path class="cls-2" d="M57.34,24.45l-.06-.13-.06,0,0,0a.52.52,0,0,1-.15.07l-.18,0-.11,0-.06,0a.09.09,0,0,1-.06-.06.29.29,0,0,1,0-.09s0,0,0-.06l0-.05a3.6,3.6,0,0,0,.34-.36,1,1,0,0,0,.16-.28l0-.08a.46.46,0,0,1,0-.09s0,0,0,0a.52.52,0,0,1,0-.11l0-.1a.15.15,0,0,0,0-.06s0,0-.06,0L57,23h-.08l-.07,0-.07,0-.06.05-.12.14-.11.12a2.19,2.19,0,0,0-.11.19c0,.06,0,.1-.06.14a1,1,0,0,1,0,.1.37.37,0,0,0,0,.09s0,.06,0,.1l0,.1a.65.65,0,0,0-.12.11.76.76,0,0,0-.08.11h0l-.07,0-.16.15-.1.08-.08,0h0s0,0,0,0a.87.87,0,0,1,.08-.28.74.74,0,0,0,.08-.29.82.82,0,0,0,0-.33.41.41,0,0,0-.15-.21l0,0-.12-.1a.2.2,0,0,0-.15-.05.37.37,0,0,0-.21.08.53.53,0,0,0-.17.15l0,.12a1.22,1.22,0,0,1-.18.26,2.24,2.24,0,0,1-.31.3l-.08.11.06.11a.56.56,0,0,1,0,.12l0-.05v0a.56.56,0,0,0,.14-.1.28.28,0,0,0,.07-.09.46.46,0,0,0,.1-.07l.14-.15a.6.6,0,0,1,.13-.14l.13-.09a.17.17,0,0,1,.12.08.41.41,0,0,1,0,.21,1.12,1.12,0,0,1,0,.24,2.43,2.43,0,0,1-.09.3l0,.07,0,.06,0,.08s0,.05,0,.07a.11.11,0,0,0,.06.1.32.32,0,0,0,.16,0L55.4,25l.33-.21.23-.15L56,24.6l0-.05h0a.17.17,0,0,1,.06-.06l0,0a.05.05,0,0,1,0,0,.29.29,0,0,1,0,.08.67.67,0,0,0,.06.12s0,.06.05.07a.2.2,0,0,0,.12.08.47.47,0,0,0,.17,0h.13l.09,0a.4.4,0,0,0,.22-.07,2,2,0,0,0,.27-.21A1,1,0,0,1,57.34,24.45Zm-1.31,0,0-.05,0,.08a.14.14,0,0,1,0,.06A.36.36,0,0,0,56,24.43Zm.53-.55v0a.52.52,0,0,1,.09-.21c.06-.1.11-.14.15-.14h0s0,0,0,0a.25.25,0,0,1,0,.07l0,.07-.06,0,0,.06,0,.05s0,0,0,0Z"/><path class="cls-3" d="M29.84,27.61a11.29,11.29,0,0,1-4.17,2,11,11,0,0,1-6.16.08,10.25,10.25,0,0,1-6.68-9.54c0-.42.06-5.68,4.59-8.51a10.71,10.71,0,0,1,13.8,2.61A12.35,12.35,0,0,0,24.3,8.89a12.68,12.68,0,0,0-12.59,3.8,11.07,11.07,0,0,0-3,7.44,11.09,11.09,0,0,0,3.14,7.48,12.35,12.35,0,0,0,9.53,3.76A15,15,0,0,0,29.84,27.61Z"/><path class="cls-4" d="M22.5,7.7a9.86,9.86,0,0,0-1.78-.16,10.17,10.17,0,0,0-1.86.2,3.42,3.42,0,0,0,1.07-2.37c0-1.17-.86-1.81-.84-3.28A4,4,0,0,1,19.36.73,1.54,1.54,0,0,1,20.52,0a1.5,1.5,0,0,1,1.2.61A2.1,2.1,0,0,1,22.13,2c0,1.57-.68,2.08-.72,3.17A3.69,3.69,0,0,0,22.5,7.7Z"/><path class="cls-5" d="M31.27,12.64a9.15,9.15,0,0,0-1.11-1.37,9,9,0,0,0-1.44-1.18,3.56,3.56,0,0,0,2.5-.88c.85-.82.73-1.86,1.84-2.86a4.26,4.26,0,0,1,1.19-.74,1.5,1.5,0,0,1,1.34.32A1.45,1.45,0,0,1,36,7.2a2.12,2.12,0,0,1-.76,1.26c-1.15,1.1-2,.95-2.84,1.68A3.66,3.66,0,0,0,31.27,12.64Z"/><path class="cls-6" d="M7.88,18.19a8.69,8.69,0,0,0,0,3.57,3.59,3.59,0,0,0-2.41-1.09c-1.19,0-1.85.82-3.35.77a4.25,4.25,0,0,1-1.38-.28A1.5,1.5,0,0,1,0,20a1.48,1.48,0,0,1,.64-1.17,2.21,2.21,0,0,1,1.45-.38c1.6,0,2.1.7,3.22.75A3.73,3.73,0,0,0,7.88,18.19Z"/><path class="cls-7" d="M12.72,10.3a8.7,8.7,0,0,0-1.38,1.11,9.63,9.63,0,0,0-1.19,1.43,3.45,3.45,0,0,0-.93-2.44c-.85-.81-1.91-.69-2.94-1.76A3.87,3.87,0,0,1,5.5,7.49a1.46,1.46,0,0,1,.3-1.32,1.54,1.54,0,0,1,1.29-.39A2.28,2.28,0,0,1,8.4,6.5c1.13,1.11,1,1.95,1.75,2.76A3.79,3.79,0,0,0,12.72,10.3Z"/><path class="cls-8" d="M10.13,27.1a9.15,9.15,0,0,0,1.11,1.37,8.82,8.82,0,0,0,1.43,1.2,3.53,3.53,0,0,0-2.51.86c-.84.81-.74,1.85-1.85,2.84a4,4,0,0,1-1.19.74,1.53,1.53,0,0,1-1.34-.32,1.49,1.49,0,0,1-.37-1.28,2.14,2.14,0,0,1,.76-1.26c1.16-1.09,2-.93,2.85-1.66A3.61,3.61,0,0,0,10.13,27.1Z"/><path class="cls-9" d="M18.19,32.25a9.31,9.31,0,0,0,1.77.2,9.19,9.19,0,0,0,1.87-.14,3.4,3.4,0,0,0-1.14,2.34c0,1.17.81,1.83.74,3.3a4,4,0,0,1-.3,1.35,1.38,1.38,0,0,1-2.37.06,2.16,2.16,0,0,1-.37-1.42c0-1.57.75-2.06.81-3.16A3.59,3.59,0,0,0,18.19,32.25Z"/><path class="cls-10" d="M26.69,30.83A8.81,8.81,0,0,0,28.27,30a9.29,9.29,0,0,0,1.46-1.15,3.42,3.42,0,0,0,.4,2.57c.66,1,1.72,1.06,2.51,2.31A4.1,4.1,0,0,1,33.16,35a1.49,1.49,0,0,1-.58,1.23,1.53,1.53,0,0,1-1.34.12,2.13,2.13,0,0,1-1.12-1c-.88-1.31-.56-2.11-1.14-3.05A3.73,3.73,0,0,0,26.69,30.83Z"/><path class="cls-11" d="M14,24.8a10.41,10.41,0,0,1-.41-8.29,10.14,10.14,0,0,1,2.9-4.09A10,10,0,0,1,22,10.21a11.34,11.34,0,0,0-2.23.23,13.49,13.49,0,0,0-2.63.85c-1.62.76-5.45,3.78-5.62,8.48-.2,5.6,5,10.12,9.07,10.34a5.27,5.27,0,0,0,.69,0,10.59,10.59,0,0,1-3.57-1.37A10.39,10.39,0,0,1,14,24.8Z"/><path class="cls-12" d="M68.28,26.55a4.13,4.13,0,0,1-1.8-1.37A3.76,3.76,0,0,1,65.77,23h3.36a1.65,1.65,0,0,0,.5,1.1,1.59,1.59,0,0,0,1.11.38,1.77,1.77,0,0,0,1.11-.32,1.1,1.1,0,0,0,.41-.9,1,1,0,0,0-.33-.79,2.65,2.65,0,0,0-.79-.52,14.1,14.1,0,0,0-1.34-.46,14.42,14.42,0,0,1-2-.78,3.73,3.73,0,0,1-1.37-1.14,3.21,3.21,0,0,1-.57-2,3.4,3.4,0,0,1,1.31-2.83,6.24,6.24,0,0,1,6.87,0,3.67,3.67,0,0,1,1.41,2.85H72a1.37,1.37,0,0,0-.46-1,1.65,1.65,0,0,0-1.09-.36,1.36,1.36,0,0,0-.93.31,1.17,1.17,0,0,0,.24,1.85,9.35,9.35,0,0,0,1.85.76,16,16,0,0,1,2,.81A3.87,3.87,0,0,1,75,21.12a3,3,0,0,1,.57,1.9A3.82,3.82,0,0,1,75,25a4,4,0,0,1-1.64,1.44,5.65,5.65,0,0,1-2.53.53A6.7,6.7,0,0,1,68.28,26.55Z"/><path class="cls-12" d="M87.16,22.49H80A2.17,2.17,0,0,0,80.63,24a1.94,1.94,0,0,0,1.34.5,1.67,1.67,0,0,0,1.65-1H87A4.84,4.84,0,0,1,86,25.3a4.6,4.6,0,0,1-1.69,1.27,5.86,5.86,0,0,1-5-.19,4.55,4.55,0,0,1-1.85-1.84,5.75,5.75,0,0,1-.67-2.81,5.75,5.75,0,0,1,.66-2.81,4.53,4.53,0,0,1,1.84-1.84,6,6,0,0,1,5.37,0,4.48,4.48,0,0,1,1.82,1.79,5.39,5.39,0,0,1,.66,2.71A7.5,7.5,0,0,1,87.16,22.49ZM84,20.73a1.62,1.62,0,0,0-.55-1.29A2,2,0,0,0,82.05,19a2,2,0,0,0-1.34.46A2.06,2.06,0,0,0,80,20.73Z"/><path class="cls-12" d="M88.85,18.92a4.46,4.46,0,0,1,1.64-1.84,4.2,4.2,0,0,1,2.31-.65,4,4,0,0,1,1.91.44A3.25,3.25,0,0,1,96,18V16.58h3.16v10.3H96V25.42a3.45,3.45,0,0,1-1.28,1.17,4,4,0,0,1-1.91.44,4.24,4.24,0,0,1-2.29-.65,4.55,4.55,0,0,1-1.64-1.87,6.24,6.24,0,0,1-.6-2.8A6.16,6.16,0,0,1,88.85,18.92Zm6.47.94a2.22,2.22,0,0,0-3.2,0,2.5,2.5,0,0,0-.65,1.85,2.62,2.62,0,0,0,.65,1.88,2.13,2.13,0,0,0,1.6.69,2.15,2.15,0,0,0,1.6-.68A2.63,2.63,0,0,0,96,21.73,2.63,2.63,0,0,0,95.32,19.86Z"/><path class="cls-12" d="M108.5,16.45v2.62h4.23v2.44H108.5v2.84h4.78v2.53h-7.94v-13h7.94v2.53Z"/><path class="cls-12" d="M115.3,18.92a4.46,4.46,0,0,1,1.64-1.84,4.2,4.2,0,0,1,2.31-.65,4.09,4.09,0,0,1,1.85.42A3.45,3.45,0,0,1,122.42,18V13.21h3.16V26.88h-3.16V25.41a3.27,3.27,0,0,1-1.26,1.18,4,4,0,0,1-1.91.44,4.28,4.28,0,0,1-2.31-.65,4.55,4.55,0,0,1-1.64-1.87,6.24,6.24,0,0,1-.6-2.8A6.16,6.16,0,0,1,115.3,18.92Zm6.47.94a2.22,2.22,0,0,0-3.2,0,2.5,2.5,0,0,0-.65,1.85,2.62,2.62,0,0,0,.65,1.88,2.13,2.13,0,0,0,1.6.69,2.15,2.15,0,0,0,1.6-.68,2.63,2.63,0,0,0,.65-1.87A2.63,2.63,0,0,0,121.77,19.86Z"/><path class="cls-12" d="M138.05,16.58v10.3h-3.16v-1.4a3.52,3.52,0,0,1-1.3,1.1,4,4,0,0,1-1.82.41,4.08,4.08,0,0,1-2.09-.52,3.53,3.53,0,0,1-1.4-1.53,5,5,0,0,1-.5-2.34v-6h3.14v5.59a2.3,2.3,0,0,0,.53,1.61,2.13,2.13,0,0,0,2.9,0,2.25,2.25,0,0,0,.54-1.61V16.58Z"/><path class="cls-12" d="M140.35,18.92a4.5,4.5,0,0,1,1.83-1.84,5.35,5.35,0,0,1,2.68-.65,5.16,5.16,0,0,1,3.25,1,4.85,4.85,0,0,1,1.7,2.87h-3.36a1.61,1.61,0,0,0-1.64-1.18,1.67,1.67,0,0,0-1.39.67,3.15,3.15,0,0,0-.51,1.93,3.15,3.15,0,0,0,.51,1.93,1.67,1.67,0,0,0,1.39.67,1.61,1.61,0,0,0,1.64-1.18h3.36A4.85,4.85,0,0,1,148.1,26a5.09,5.09,0,0,1-3.24,1,5.35,5.35,0,0,1-2.68-.65,4.5,4.5,0,0,1-1.83-1.84,5.75,5.75,0,0,1-.66-2.81A5.75,5.75,0,0,1,140.35,18.92Z"/><path class="cls-12" d="M151.47,18.92a4.44,4.44,0,0,1,1.63-1.84,4.2,4.2,0,0,1,2.31-.65,4,4,0,0,1,1.91.44A3.35,3.35,0,0,1,158.59,18V16.58h3.16v10.3h-3.16V25.42a3.49,3.49,0,0,1-1.29,1.17,4,4,0,0,1-1.91.44,4.24,4.24,0,0,1-2.29-.65,4.53,4.53,0,0,1-1.63-1.87,6.24,6.24,0,0,1-.6-2.8A6.16,6.16,0,0,1,151.47,18.92Zm6.46.94a2.21,2.21,0,0,0-3.19,0,2.51,2.51,0,0,0-.66,1.85,2.63,2.63,0,0,0,.66,1.88,2.11,2.11,0,0,0,1.59.69,2.14,2.14,0,0,0,1.6-.68,2.59,2.59,0,0,0,.66-1.87A2.59,2.59,0,0,0,157.93,19.86Z"/><path class="cls-12" d="M169.78,24.21v2.67h-1.61a4,4,0,0,1-2.68-.84,3.5,3.5,0,0,1-1-2.74V19.2h-1.25V16.58h1.25V14.06h3.16v2.52h2.07V19.2h-2.07v4.14a.85.85,0,0,0,.23.66,1,1,0,0,0,.73.21Z"/><path class="cls-12" d="M171.77,15a1.67,1.67,0,0,1,0-2.44,1.89,1.89,0,0,1,1.35-.49,1.86,1.86,0,0,1,1.34.49,1.67,1.67,0,0,1,0,2.44,1.9,1.9,0,0,1-1.34.49A1.93,1.93,0,0,1,171.77,15Zm2.92,1.56v10.3h-3.16V16.58Z"/><path class="cls-12" d="M179,26.38a4.67,4.67,0,0,1-1.9-1.84,5.55,5.55,0,0,1-.69-2.81,5.47,5.47,0,0,1,.7-2.8A4.81,4.81,0,0,1,179,17.08a5.62,5.62,0,0,1,2.73-.65,5.69,5.69,0,0,1,2.74.65,4.81,4.81,0,0,1,1.92,1.85,5.57,5.57,0,0,1,.7,2.8,5.47,5.47,0,0,1-.71,2.8,4.86,4.86,0,0,1-1.94,1.85,5.71,5.71,0,0,1-2.74.65A5.62,5.62,0,0,1,179,26.38Zm4.27-2.75a2.64,2.64,0,0,0,.63-1.9,2.7,2.7,0,0,0-.61-1.9,2.09,2.09,0,0,0-3.06,0,2.69,2.69,0,0,0-.61,1.91,2.72,2.72,0,0,0,.6,1.9,1.93,1.93,0,0,0,1.51.67A2,2,0,0,0,183.22,23.63Z"/><path class="cls-12" d="M197.92,17.64A4.56,4.56,0,0,1,199,20.86v6h-3.14V21.29a2.3,2.3,0,0,0-.53-1.61,2.12,2.12,0,0,0-2.89,0,2.3,2.3,0,0,0-.53,1.61v5.59h-3.16V16.58h3.16v1.36a3.43,3.43,0,0,1,1.29-1.08,4.17,4.17,0,0,1,1.83-.39A3.74,3.74,0,0,1,197.92,17.64Z"/></svg>