<svg id="Layer_1" data-name="Layer 1" xmlns="http://www.w3.org/2000/svg" viewBox="0 0 80 80"><defs><style>.cls-1{fill:#2bb673;}.cls-2{fill:#88c923;}.cls-3,.cls-4{fill:#aae252;}.cls-3,.cls-5,.cls-6,.cls-7{fill-rule:evenodd;}.cls-5{fill:#7eacc4;}.cls-6{fill:#f8d44e;}.cls-7{fill:#ecb344;}</style></defs><rect class="cls-1" x="5.98" y="26.77" width="68.04" height="26.47" transform="translate(-8.99 11.71) rotate(-15)"/><rect class="cls-2" x="5.98" y="26.77" width="68.04" height="26.46" transform="translate(-14.64 25.36) rotate(-30)"/><polygon class="cls-3" points="8.5 45.2 9.87 44.41 13.03 49.87 11.65 50.66 9.62 47.14 9.22 48.66 7.69 48.24 8.5 45.2"/><path class="cls-3" d="M10.93,43.8,14.12,42l3.16,5.45-3.2,1.85Zm2.72,1.55.45-.25.44.76-.44.26Z"/><path class="cls-3" d="M15.11,41.38l3.2-1.84L21.46,45l-3.19,1.84Zm2.73,1.56.45-.26.44.76-.45.26Z"/><path class="cls-3" d="M19.3,39l3.2-1.85,3.14,5.46-3.19,1.85ZM22,40.52l.45-.26.43.77-.44.26Z"/><rect class="cls-4" x="29.73" y="28.76" width="20.53" height="22.49" transform="translate(-14.64 25.35) rotate(-29.99)"/><polygon class="cls-5" points="58.59 41.82 59.96 41.03 56.81 35.57 55.44 36.36 57.47 39.88 55.96 39.47 55.54 41.01 58.59 41.82"/><path class="cls-5" d="M61,40.42l3.2-1.85-3.15-5.45L57.86,35Zm0-3.14.45-.26L61,36.26l-.45.25Z"/><path class="cls-5" d="M65.2,38l3.19-1.84L65.24,30.7l-3.19,1.84Zm0-3.14.44-.26-.43-.75-.45.25Z"/><path class="cls-3" d="M69.38,35.59l3.2-1.85-3.15-5.46-3.2,1.85Zm0-3.15.44-.25-.44-.77-.45.26Z"/><path class="cls-6" d="M50.72,61.51A10.75,10.75,0,1,0,36,57.58a10.75,10.75,0,0,0,14.69,3.93Z"/><path class="cls-6" d="M64.14,41.34a10.76,10.76,0,1,0-14.7-3.93,10.75,10.75,0,0,0,14.7,3.93Z"/><path class="cls-7" d="M49.85,60a9,9,0,1,0-12.31-3.3A9,9,0,0,0,49.85,60Z"/><path class="cls-7" d="M63.26,39.83A9,9,0,1,0,51,36.53a9,9,0,0,0,12.31,3.3Z"/><polygon class="cls-6" points="42.92 47.88 45.08 46.63 50.02 55.21 47.87 56.46 44.68 50.94 44.04 53.31 41.64 52.66 42.92 47.88"/><polygon class="cls-6" points="57.51 27.08 60.01 27.08 60.01 36.98 57.51 36.98 57.51 30.6 55.78 32.34 54.01 30.57 57.51 27.08"/></svg>