<svg xmlns="http://www.w3.org/2000/svg" viewBox="0 0 35.38 27.23"><defs><style>.cls-1{fill:red;}</style></defs><g id="Layer_2" data-name="Layer 2"><g id="ELEMENTS"><path class="cls-1" d="M2.63.38l12.3,14a3.67,3.67,0,0,0,5.52,0L32.54.62a1.27,1.27,0,0,1,.34-.27A4.23,4.23,0,0,0,31.21,0h-27A4.09,4.09,0,0,0,2.57.32Z"/><path class="cls-1" d="M34.74,2a1.37,1.37,0,0,1-.24.4L22.42,16.06a6.3,6.3,0,0,1-9.46,0L.67,2.11A.31.31,0,0,1,.6,2,4.17,4.17,0,0,0,0,4.18V23.06a4.18,4.18,0,0,0,4.18,4.17h27a4.17,4.17,0,0,0,4.17-4.17V4.18A4.18,4.18,0,0,0,34.74,2Z"/></g></g></svg>