<svg xmlns="http://www.w3.org/2000/svg" viewBox="0 0 80 80"><defs><style>.cls-1{isolation:isolate;}.cls-2{fill:#fc6;}.cls-3{opacity:0.65;mix-blend-mode:multiply;}.cls-4{fill:#cec5ae;}.cls-5{fill:#343643;}.cls-6{fill:#eeeeef;}.cls-7{fill:#c6c6c9;}.cls-8{fill:#0d7ad3;}.cls-9{fill:#004870;}.cls-10{fill:#1053b7;}.cls-11{fill:#035f87;}</style></defs><g class="cls-1"><g id="Layer_1" data-name="Layer 1"><rect class="cls-2" x="37.36" y="29.9" width="5.28" height="10.48"/><g class="cls-3"><path class="cls-4" d="M37.36,30.31v2.47a8.7,8.7,0,0,0,5.28,0V30.31Z"/></g><path class="cls-2" d="M51.08,17.75c0,7.59-5,13.73-11.08,13.73S28.92,25.34,28.92,17.75,33.88,4,40,4,51.08,10.17,51.08,17.75Z"/><path class="cls-2" d="M53.44,19a2.37,2.37,0,1,1-4.72,0,2.37,2.37,0,1,1,4.72,0Z"/><path class="cls-2" d="M31.28,19a2.37,2.37,0,1,1-4.72,0,2.37,2.37,0,1,1,4.72,0Z"/><path class="cls-5" d="M35.48,5.31S25,.74,28.56,17.75H31S31.11,8.1,35.48,5.31Z"/><path class="cls-5" d="M47.26,9.18a27.71,27.71,0,0,1,1.65,8.57H51.3c1.15-3.72.18-6.49.26-8.57Z"/><path class="cls-5" d="M29.94,6.37C36.28.65,39.88.21,42,1c.76.28.78.5,5.51,3.05,2.28,1.23,4.54,2.4,5.33,1.64A.49.49,0,0,0,53,5.54s-.88,9.53-11.39,5.92a16.35,16.35,0,0,1-4.2-2.25C35.74,8,32.82,6.29,29.94,6.37Z"/><polygon class="cls-6" points="52.5 61.92 27.5 61.92 27.5 34.3 36.61 34.3 39.9 38.35 44.09 34.3 52.5 34.3 52.5 61.92"/><polygon class="cls-7" points="42.85 33.67 39.9 38.35 37.21 33.51 34.39 34.79 35.26 38.77 36.01 42.22 39.9 39.18 39.9 39.2 43.64 42.42 44.62 38.77 45.61 35.09 42.85 33.67"/><polygon class="cls-6" points="42.85 32.82 39.9 38.35 43.64 41.58 45.61 34.24 42.85 32.82"/><polygon class="cls-6" points="37.21 32.66 39.9 38.33 36.01 41.37 34.39 33.95 37.21 32.66"/><polygon class="cls-8" points="71.87 74.34 8.13 74.34 15.66 60.37 64.34 60.37 71.87 74.34"/><polygon class="cls-6" points="45.84 64.33 34.17 64.33 26.34 71.96 53.66 71.96 45.84 64.33"/><path class="cls-2" d="M37.54,63.29l-.28-.16L32.67,69.7a1.79,1.79,0,0,0,.25.22,4,4,0,0,0,4.62-6.63Z"/><path class="cls-9" d="M63.06,54.94,55.32,36.42a3.44,3.44,0,0,0-2.82-2.07V34.3H45.11L39.9,52.39,35.48,34.3h-8v.06a3.41,3.41,0,0,0-2.82,2.06L16.94,54.94a4,4,0,0,0,1.39,4.79l14.34,10,4.59-6.57-2.12-1.21H45.47l-2.73,1.67,4.59,6.58L61.67,59.73A4,4,0,0,0,63.06,54.94Zm-36.29.67.73-5v6.86A2.07,2.07,0,0,1,26.77,55.61ZM52.5,57.54v-6.9l.74,5A2.05,2.05,0,0,1,52.5,57.54Z"/><path class="cls-2" d="M42.46,63.75l.28-.16,4.59,6.58a1.73,1.73,0,0,1-.25.21,4,4,0,0,1-4.62-6.63Z"/><rect class="cls-10" x="8.13" y="74.34" width="63.74" height="4.96"/><polygon class="cls-11" points="47.57 41.64 50.38 36.56 44.11 33.83 40 50.15 35.89 33.83 29.61 36.56 32.43 41.64 29.32 43.34 40 53.02 50.68 43.34 47.57 41.64"/></g></g></svg>