<svg id="Layer_1" data-name="Layer 1" xmlns="http://www.w3.org/2000/svg" xmlns:xlink="http://www.w3.org/1999/xlink" viewBox="0 0 350 300"><defs><style>.cls-1{fill:#221f1f;}.cls-2{fill:#283c80;}.cls-3{fill:url(#linear-gradient);}.cls-4{fill:url(#New_Gradient_Swatch_2);}.cls-5{fill:url(#New_Gradient_Swatch_2-2);}.cls-6{fill:url(#New_Gradient_Swatch_2-3);}.cls-7{fill:url(#New_Gradient_Swatch_2-4);}.cls-8{fill:url(#New_Gradient_Swatch_2-5);}.cls-9{fill:url(#New_Gradient_Swatch_2-6);}.cls-10{fill:url(#New_Gradient_Swatch_2-7);}.cls-11{fill:url(#linear-gradient-2);}</style><linearGradient id="linear-gradient" x1="53.36" y1="149.49" x2="209.06" y2="149.49" gradientUnits="userSpaceOnUse"><stop offset="0" stop-color="#1180bd"/><stop offset="0.04" stop-color="#117bb6"/><stop offset="0.35" stop-color="#125789"/><stop offset="0.62" stop-color="#133e69"/><stop offset="0.85" stop-color="#142f55"/><stop offset="1" stop-color="#14294e"/></linearGradient><linearGradient id="New_Gradient_Swatch_2" x1="124.52" y1="62.19" x2="124.78" y2="37.52" gradientTransform="translate(1.67 -2.89) rotate(-0.45)" gradientUnits="userSpaceOnUse"><stop offset="0" stop-color="#1180bd"/><stop offset="0.25" stop-color="#1476b3"/><stop offset="0.69" stop-color="#1d5d98"/><stop offset="1" stop-color="#254680"/></linearGradient><linearGradient id="New_Gradient_Swatch_2-2" x1="302.6" y1="-271.18" x2="304.89" y2="-302.8" gradientTransform="translate(-210.94 59.06) rotate(45.93)" xlink:href="#New_Gradient_Swatch_2"/><linearGradient id="New_Gradient_Swatch_2-3" x1="-566" y1="71.92" x2="-568.62" y2="36.93" gradientTransform="translate(-26.84 -416.57) rotate(-89.53)" xlink:href="#New_Gradient_Swatch_2"/><linearGradient id="New_Gradient_Swatch_2-4" x1="-189.26" y1="236.7" x2="-182.53" y2="203.36" gradientTransform="translate(31.85 -204.72) rotate(-44.98)" xlink:href="#New_Gradient_Swatch_2"/><linearGradient id="New_Gradient_Swatch_2-5" x1="-668.25" y1="-229.55" x2="-669.81" y2="-254.35" gradientTransform="translate(-234.33 -432.03) rotate(-133.75)" xlink:href="#New_Gradient_Swatch_2"/><linearGradient id="New_Gradient_Swatch_2-6" x1="-539.7" y1="-540.92" x2="-541.74" y2="-569.19" gradientTransform="translate(-405.58 -312.46) rotate(-178.83)" xlink:href="#New_Gradient_Swatch_2"/><linearGradient id="New_Gradient_Swatch_2-7" x1="-317.34" y1="-662.08" x2="-317.4" y2="-686.91" gradientTransform="translate(-444.05 -156.42) rotate(146.98)" xlink:href="#New_Gradient_Swatch_2"/><linearGradient id="linear-gradient-2" x1="60.81" y1="124.62" x2="123.06" y2="127.47" gradientTransform="matrix(1, 0.05, -0.05, 1, -8.53, 15.44)" gradientUnits="userSpaceOnUse"><stop offset="0" stop-color="#1180bd"/><stop offset="0.16" stop-color="#1672ae"/><stop offset="0.48" stop-color="#1e5a95"/><stop offset="0.77" stop-color="#234b85"/><stop offset="1" stop-color="#254680"/></linearGradient></defs><path class="cls-1" d="M125.11,137.63l-1.38-.58c-2.13-.86-3.29-1.88-3.29-3.7,0-2,1.68-3.23,3.85-3.23a5.38,5.38,0,0,1,2.4.53l.64,3.64h2.45L130,130a10,10,0,0,0-5.67-1.64c-4.48,0-7.6,2.26-7.6,6,0,3.35,2.21,5.21,5.75,6.69l1.3.54c2.36,1,3.4,1.79,3.4,3.64,0,2.08-1.63,3.42-4.29,3.42a7.38,7.38,0,0,1-3.27-.68l-.63-3.8h-2.48l-.19,4.55a13.43,13.43,0,0,0,6.62,1.66c5,0,8-2.45,8-6.18C131,141.12,129.29,139.34,125.11,137.63Z"/><path class="cls-1" d="M147.39,140.65a6,6,0,0,0-6.31-6.35,7.75,7.75,0,0,0-7.82,8.08c0,5,3.07,7.92,7.57,7.92a6.81,6.81,0,0,0,6.45-3.67l-.92-.8a5.41,5.41,0,0,1-4.2,2c-2.69,0-4.64-1.79-4.79-5.41h9.82A6.85,6.85,0,0,0,147.39,140.65Zm-5.61.24h-4.39c.26-3.74,1.89-5.06,3.45-5.06a3,3,0,0,1,2.86,3.26C143.7,140.24,143.32,140.89,141.78,140.89Z"/><path class="cls-1" d="M163.25,148.3c-.6,0-.95-.4-.95-1.41V140c0-4.1-1.63-5.7-5.35-5.7-3.94,0-6.43,1.64-6.81,4.15a1.65,1.65,0,0,0,1.81,1.42c1.06,0,1.82-.67,2-2.19l.37-1.74a8.61,8.61,0,0,1,1.35-.11c2.09,0,2.81.79,2.81,3.73v.9c-1.11.28-2.24.6-3.06.86-4.64,1.48-5.76,3-5.76,5,0,2.6,1.85,4,4.27,4,2,0,3.09-.85,4.68-2.43a3,3,0,0,0,3.18,2.37,3.34,3.34,0,0,0,3.31-2l-.75-.62A1.36,1.36,0,0,1,163.25,148.3Zm-9.82-2.63c0-1.21.64-2.34,2.81-3.18a23.15,23.15,0,0,1,2.25-.76v5c-1.39,1-2,1.29-2.79,1.29A2.09,2.09,0,0,1,153.43,145.67Z"/><path class="cls-1" d="M187.77,148.18h-7.16c-.06-2.67-.06-5.38-.06-8.24h4.17l.4,2.72h1.66v-7.13h-1.66l-.42,2.75h-4.15c0-2.59,0-5.16.06-7.67h6.52l.68,3.84h2.25l-.23-5.53H173.62v1.49l2.7.29c.06,2.66.06,5.34.06,8v1.37c0,2.71,0,5.38-.06,8l-2.7.29v1.48h16.85l.23-5.52h-2.25Z"/><path class="cls-1" d="M207.45,131.46l.13-4.44-.48-.29-5.88,1.42v1.22l2.51.31v6.53a5,5,0,0,0-4-1.91c-3.79,0-7,3.16-7,8.13s2.71,7.87,6.49,7.87a5.52,5.52,0,0,0,4.5-2.13l.25,2,5.62-.34v-1.29l-2.12-.4Zm-6.69,16.59c-2.29,0-3.94-1.86-3.94-5.68,0-4,1.79-5.86,4-5.86a4.19,4.19,0,0,1,2.8,1.2v9A3.82,3.82,0,0,1,200.76,148.05Z"/><path class="cls-1" d="M226.28,139.27l.1-4.44-.42-.33-5.5.72v1.17l2,.44-.1,9a5.72,5.72,0,0,1-3.67,1.8c-1.43,0-2.17-.8-2.17-3.18v-5.21l.16-4.44-.41-.33-5.62.67v1.22l2.08.44-.1,7.79c0,4.16,1.68,5.68,4.35,5.68a7,7,0,0,0,5.47-2.93l.26,2.78,5.49-.29v-1.29l-1.95-.4Z"/><path class="cls-1" d="M238.93,147.79c-2.86,0-4.82-2.09-4.82-5.89,0-4.15,2-6.07,4.32-6.07a7,7,0,0,1,1.19.12l.41,1.88c.19,1.52.92,2.22,2.09,2.22a1.68,1.68,0,0,0,1.81-1.41c-.32-2.43-2.7-4.34-5.83-4.34a7.73,7.73,0,0,0-8,8c0,5.07,3.2,8,7.59,8,3,0,5.23-1.34,6.29-3.93l-.95-.68A4.91,4.91,0,0,1,238.93,147.79Z"/><path class="cls-1" d="M259.68,148.3c-.59,0-.95-.4-.95-1.41V140c0-4.1-1.62-5.7-5.35-5.7-3.93,0-6.42,1.64-6.81,4.15a1.66,1.66,0,0,0,1.82,1.42c1.05,0,1.82-.67,2-2.19l.38-1.74a8.61,8.61,0,0,1,1.35-.11c2.09,0,2.81.79,2.81,3.73v.9c-1.11.28-2.24.6-3.06.86-4.64,1.48-5.76,3-5.76,5,0,2.6,1.84,4,4.26,4,2,0,3.09-.85,4.68-2.43a3,3,0,0,0,3.18,2.37,3.35,3.35,0,0,0,3.32-2l-.75-.62A1.38,1.38,0,0,1,259.68,148.3Zm-9.81-2.63c0-1.21.64-2.34,2.8-3.18a23.46,23.46,0,0,1,2.26-.76v5c-1.39,1-2,1.29-2.8,1.29A2.09,2.09,0,0,1,249.87,145.67Z"/><path class="cls-1" d="M269.9,148.21c-1,0-1.72-.68-1.72-2.24v-9.32h3.9v-1.9h-3.86l.13-4.36h-2.59l-1.23,4.31-2.6.33v1.62h2.38v6.75c0,1.23,0,2,0,2.91,0,2.78,1.55,4,4.12,4a4.68,4.68,0,0,0,4.23-2.08l-.77-.8A3.28,3.28,0,0,1,269.9,148.21Z"/><path class="cls-1" d="M279.6,143.23v-4.18l.09-4.42-.51-.33-5.82,2v1.17l2.31.29c.06,1.26.1,2.24.1,4v1.5c0,1.36,0,3.36,0,4.92l-2.11.41v1.29h8v-1.29l-1.95-.39C279.61,146.61,279.6,144.6,279.6,143.23Z"/><path class="cls-1" d="M277.64,131.36a2.26,2.26,0,1,0-2.43-2.25A2.29,2.29,0,0,0,277.64,131.36Z"/><path class="cls-1" d="M291.4,134.3a7.58,7.58,0,0,0-7.76,8c0,5,3.39,8,7.76,8s7.76-2.93,7.76-8A7.58,7.58,0,0,0,291.4,134.3Zm0,14.46c-2.33,0-3.56-2.06-3.56-6.43s1.23-6.49,3.56-6.49S295,138,295,142.33,293.69,148.76,291.4,148.76Z"/><path class="cls-1" d="M317.24,148.18c0-1.56-.05-3.54-.05-5v-3.3c0-3.9-1.59-5.63-4.36-5.63a7.4,7.4,0,0,0-5.47,2.77l-.24-2.44-.51-.33-5.38,2v1.17l2.26.29c.07,1.26.1,2.08.1,3.81v1.66c0,1.36,0,3.36,0,4.93l-2.07.4v1.29h7.94v-1.29l-1.9-.38c0-1.57-.05-3.58-.05-5v-4.71a5.75,5.75,0,0,1,3.62-1.58c1.6,0,2.24.83,2.24,3.3v3c0,1.41,0,3.38,0,4.93l-2,.4v1.29h7.95v-1.29Z"/><path class="cls-2" d="M151.53,162.05q0-.5,0-.84c0-.23,0-.4.06-.52a6,6,0,0,0,.11-.64c0-.21-.06-.4-.09-.59s.08-.28.14-.49a.28.28,0,0,0-.06-.2.29.29,0,0,0-.21-.06h-.13a3.36,3.36,0,0,0-.8.67,3.84,3.84,0,0,0-.61,1c-.07.19-.16.45-.27.81s-.21.8-.33,1.33-.28,1.25-.44,1.9c0,.23,0,.58.08,1.05s.08.82.08,1.06a3.91,3.91,0,0,1,0,.45c0,.17-.05.37-.09.61s-.07.45-.11.63a3.14,3.14,0,0,0-.05.43c-.05,1-.11,1.83-.16,2.42a10.77,10.77,0,0,1-.14,1.17c-.06.29-.14.63-.23,1s-.18.87-.28,1.41c-.09.34-.18.66-.27.93a3.47,3.47,0,0,0-.13.54,2.31,2.31,0,0,0,0,.4,1.89,1.89,0,0,1-.07.57.24.24,0,0,1-.23.17c-.12,0-.31-.21-.56-.64a21.9,21.9,0,0,1-1-2c-.38-.85-.74-1.73-1.08-2.65s-.68-1.87-1-2.85-.69-1.75-1-2.58c-.24-.6-.43-1.11-.55-1.51a3.37,3.37,0,0,1-.19-.92,1.25,1.25,0,0,1,.13-.53,6.73,6.73,0,0,1,.37-.64c0-.11.07-.27.13-.48s.15-.46.27-.77.18-.51.23-.68a1.15,1.15,0,0,0,.08-.34.41.41,0,0,0,0-.21.29.29,0,0,0-.15-.14l-.44-.2a1,1,0,0,0-.41.22,2.51,2.51,0,0,0-.4.4c-.15.2-.29.37-.4.49a2,2,0,0,1-.27.26,1,1,0,0,1-.33-.25.66.66,0,0,0-.38-.21,2.53,2.53,0,0,0-.42.06,2.26,2.26,0,0,1-.43.06,1.28,1.28,0,0,0-.6.12.7.7,0,0,0-.33.33c-.05.2-.11.41-.17.62s-.12.42-.19.63l.25,1q-.37,2.41-.78,4.8c-.25,1.63-.46,2.89-.62,3.8s-.26,1.47-.31,1.67l-.18.7c-.05.2-.08.37-.1.5-.07.53-.12,1-.18,1.39s-.1.72-.14,1c0,.08-.06.28-.13.58s-.16.72-.28,1.25-.18.87-.23,1.17a5.06,5.06,0,0,0-.08.68,1.54,1.54,0,0,0,.08.56c0,.13.13.19.23.17A1.86,1.86,0,0,0,136,182a.47.47,0,0,0,.12-.14.73.73,0,0,0,.5-.19.93.93,0,0,0,.23-.53c.15-.46.29-.86.4-1.19s.2-.62.27-.86.1-.6.14-.91l.29-.51c.08-.3.15-.6.22-.89s.12-.56.19-.83l.64-2.25c.2-.7.38-1.35.54-1.94.11-.22.22-.46.33-.74.09-.43.18-.8.25-1.11a7.72,7.72,0,0,1,.22-.77l.11-.05a7.35,7.35,0,0,1,.4.67,4.84,4.84,0,0,1,.28.66c.42.91.78,1.7,1.1,2.37l.8,1.68c.05.19.1.35.14.49s.07.26.09.36a6.58,6.58,0,0,0,.46,1.1c.24.49.56,1.11,1,1.85a11.6,11.6,0,0,0,1.12,1.86c.31.41.55.61.7.61a7.11,7.11,0,0,0,1-.33,5.82,5.82,0,0,0,1-.39l.49-.77c.22-.65.4-1.25.54-1.81a11,11,0,0,0,.29-1.51,20.39,20.39,0,0,0,.56-2.55q.24-1.43.36-3.15c.1-1,.19-1.91.28-2.86s.16-1.92.23-2.88c.08-.68.14-1.22.17-1.63S151.53,162.17,151.53,162.05Z"/><path class="cls-2" d="M174.5,170a.48.48,0,0,0-.06-.26.27.27,0,0,0-.22-.08,1,1,0,0,0-.87.44,2.93,2.93,0,0,0-.46,1.3,6.48,6.48,0,0,1-.48,1.47c-.27.65-.67,1.49-1.19,2.51a19.25,19.25,0,0,1-1.33,2.34c-.37.52-.65.78-.85.78s-.29-.3-.38-.9a19.92,19.92,0,0,1-.14-2.73c0-.12.06-.22.08-.33s-.06-.17-.08-.24a1.45,1.45,0,0,0-.06-.19,4.22,4.22,0,0,0,.11-.93c0-.38,0-.87,0-1.44a3,3,0,0,0-.1-.87c-.07-.19-.17-.29-.31-.29a2.47,2.47,0,0,0-.79.43,4.58,4.58,0,0,0-.67.5c-.21.47-.4.89-.57,1.25l-.45.89a3.11,3.11,0,0,1-.42.67,8.32,8.32,0,0,1-.73.81,9.88,9.88,0,0,0-.65.75,3.67,3.67,0,0,0-.29.42v0a1.46,1.46,0,0,1-.21.16,1.08,1.08,0,0,1-.18.11l-.21.25-.21.26a2.12,2.12,0,0,1-.28.2.56.56,0,0,1-.27.08.88.88,0,0,1-.76-.4,1.33,1.33,0,0,1-.28-.88c0-.47,0-1,0-1.48a1.58,1.58,0,0,0-.2-.76.57.57,0,0,0-.5-.26,2.21,2.21,0,0,0-1.17.41A6.59,6.59,0,0,0,158,175.3l-.25.15-.22.12-.48.4-.87.78a8.61,8.61,0,0,1-.83.69,2.74,2.74,0,0,1-.72.37l-.11-.14.73-1a4.38,4.38,0,0,1,.4-.49c.58-.5,1.05-.93,1.4-1.29a4,4,0,0,0,.69-.88c.24-.18.43-.33.58-.46l.3-.28.26-.36a6.26,6.26,0,0,0,.85-.71,6,6,0,0,0,.61-.69l.85-.61a1.13,1.13,0,0,0,.37-.42,1.26,1.26,0,0,0,.12-.57.63.63,0,0,0-.2-.48.91.91,0,0,0-.6-.17,3.65,3.65,0,0,0-1.82.67,17.14,17.14,0,0,0-2.5,2,4.28,4.28,0,0,1-.58.47l-.44.27-.6.54a3.72,3.72,0,0,0-.36.39,2.1,2.1,0,0,0-.42.24,1.34,1.34,0,0,0-.29.34,2.49,2.49,0,0,1-.25.38,1.37,1.37,0,0,1-.19.21l-1.43.92c-.1.18-.19.32-.27.44a1.79,1.79,0,0,1-.18.24l.26.58.21.48a1.82,1.82,0,0,1,.1.19.38.38,0,0,1,0,.17,2.23,2.23,0,0,1,0,.32,2.7,2.7,0,0,0-.54.73,1.82,1.82,0,0,0-.18.79,1.29,1.29,0,0,0,1.47,1.48,1,1,0,0,0,.35-.1,4.57,4.57,0,0,0,.56-.27c.35-.18.66-.36.94-.53a6.59,6.59,0,0,0,.73-.53l.53-.51c.25-.23.56-.54.93-.91l.71-.55.52-.39.21-.22.18-.16a.74.74,0,0,1,.16.3,1,1,0,0,1,0,.28,2.72,2.72,0,0,0,.65,1.73,2.07,2.07,0,0,0,1.57.57,2.35,2.35,0,0,0,.88-.18,4.17,4.17,0,0,0,.91-.53,7.65,7.65,0,0,0,.74-.65c.24-.23.48-.46.72-.67.57-.62,1-1.09,1.33-1.41a4.25,4.25,0,0,1,.58-.52l.16.09-.11.36a1.41,1.41,0,0,1,.06.41v.8a4.07,4.07,0,0,0,.11.67,4.73,4.73,0,0,0,.16.49,3.92,3.92,0,0,1-.06.4,3.32,3.32,0,0,0,.44,1.9,1.47,1.47,0,0,0,1.29.63,1,1,0,0,0,.49-.12,1.31,1.31,0,0,0,.38-.33c.11-.12.22-.25.34-.37s.22-.25.32-.38a7.26,7.26,0,0,0,1.12-1.18,1.66,1.66,0,0,0,.36-.89,9.35,9.35,0,0,0,.87-1.42,8.66,8.66,0,0,0,.72-1.41,5.26,5.26,0,0,1,.22-.82,6.15,6.15,0,0,0,.6-1.16,2.69,2.69,0,0,0,.2-.93,5.69,5.69,0,0,0,.51-1.28A4.93,4.93,0,0,0,174.5,170Z"/><path class="cls-2" d="M177.77,168.32l.48,0,.51.06a.76.76,0,0,0,.34-.09,3.29,3.29,0,0,0,.6-.34,2.81,2.81,0,0,0,.59-.46,2.16,2.16,0,0,0,.39-.59q.06-.15.18-.51c.08-.24.17-.54.27-.91,0-.19.1-.44.16-.72a.55.55,0,0,0-.18-.45.88.88,0,0,0-.57-.15,2.12,2.12,0,0,0-.59.07,1.24,1.24,0,0,0-.4.17c-.25.28-.45.53-.63.74a1.77,1.77,0,0,0-1,.75,2,2,0,0,0-.57,1.16,2.31,2.31,0,0,0,.12.83A.72.72,0,0,0,177.77,168.32Z"/><path class="cls-2" d="M190.56,181.43c-.15-.17-.27-.32-.37-.45a.61.61,0,0,1-.15-.35c.34-.5.68-1,1-1.39s.54-.74.74-1l.42-.5-.6-1.42c-.76.89-1.37,1.58-1.82,2.07a4,4,0,0,1-.91.83,4.05,4.05,0,0,1-.36-.31,3.5,3.5,0,0,1-.27-.31l-.7-1-.33-.48a2.54,2.54,0,0,1-.24-.75,6.2,6.2,0,0,1-.08-1q.1-.41.21-.72c.19-.21.38-.4.55-.57l.5-.47q.51-.58,1.05-1.14t1-1.14a15.74,15.74,0,0,0,1.17-1.49,1.9,1.9,0,0,0,.39-.86,2.26,2.26,0,0,0-.23-1.14.73.73,0,0,0-.67-.39,2.33,2.33,0,0,0-1.23.34,3.51,3.51,0,0,0-1.06,1.05c-.63.71-1.23,1.37-1.81,2a9.26,9.26,0,0,0-1,1.19,3.26,3.26,0,0,0-.44.95c-.15.29-.29.54-.41.75s-.23.4-.31.58-.42.52-.6.71a4.94,4.94,0,0,1-.47.46l-.39.51a2.39,2.39,0,0,1-.27.35h0l-.5.4-.5.41a2,2,0,0,1-.61.34,1.73,1.73,0,0,1-.58.1.88.88,0,0,1-.39-.07.43.43,0,0,1-.24-.22,2.7,2.7,0,0,1-.23-.72q-.16-.62-.27-.93c0-.33-.09-.65-.16-1s-.13-.64-.2-1a1.3,1.3,0,0,0-.5-.81,1.57,1.57,0,0,0-.93-.27.9.9,0,0,0-.41.11.92.92,0,0,0-.36.35,9.11,9.11,0,0,1-1.48,1.49,10.2,10.2,0,0,0-1.49,1.49l-.05.15-.09.11a.43.43,0,0,1,.11.12.89.89,0,0,1,.08.17c.08.25.16.46.24.65s.15.34.2.48a10.05,10.05,0,0,1,1-1,1.28,1.28,0,0,1,.68-.33q.09,0,.24.18a4.32,4.32,0,0,1,.33.53c.1.15.19.29.28.4s.14.21.19.29a4.35,4.35,0,0,0,.94,1.81,3.5,3.5,0,0,0,1.85.32,1.88,1.88,0,0,0,.69-.22,7.75,7.75,0,0,0,1.1-.69l1-.73a7.83,7.83,0,0,0,.67-.56h0c.23-.24.46-.46.7-.69a1.13,1.13,0,0,1,.12.3,4.69,4.69,0,0,0,.47,1.41,7.11,7.11,0,0,0,.92,1.39c.35.44.71.9,1.06,1.39a.91.91,0,0,1-.16.46,3.52,3.52,0,0,1-.46.55l-.9,1c-.14.2-.28.41-.43.61l-.45.64-.41.71a3.11,3.11,0,0,0-.31.64,7.65,7.65,0,0,0-.29.73,1.47,1.47,0,0,0-.09.36c0,.65,0,1.17,0,1.56a3.53,3.53,0,0,0,.12.79,1.34,1.34,0,0,0,.7.62,3.49,3.49,0,0,0,1.33.21,6,6,0,0,0,3.84-1.77,5.68,5.68,0,0,0,2.22-3.55c0-.14,0-.27,0-.38s0-.2,0-.25a7.61,7.61,0,0,0-.45-1.8A4,4,0,0,0,190.56,181.43Zm-7.43-4.74c.09.18.17.35.23.49a2.64,2.64,0,0,1,.17.42ZM188,187.46a3.56,3.56,0,0,1-2.48,1.28.8.8,0,0,1-.51-.13.55.55,0,0,1-.16-.44,3.59,3.59,0,0,1,.23-.8,4.77,4.77,0,0,1,.36-.8c.24-.34.47-.68.7-1s.43-.69.65-1c.39-.57.7-1,.92-1.28s.37-.43.44-.43a.55.55,0,0,1,.39.21,3.39,3.39,0,0,1,.39.67,5.77,5.77,0,0,1,.25.73,2.28,2.28,0,0,1,.1.58A3.66,3.66,0,0,1,188,187.46Z"/><path class="cls-2" d="M220.29,176.33a1.69,1.69,0,0,1-.35.22l-.25.13a4.25,4.25,0,0,1-.89.37,4.75,4.75,0,0,1-1.12.2,4,4,0,0,1-.65-.17,1.53,1.53,0,0,1-.4-.18.82.82,0,0,1-.34-.37,1.26,1.26,0,0,1-.12-.57.85.85,0,0,1,.08-.35,1.31,1.31,0,0,1,.19-.27,22.82,22.82,0,0,0,2.07-2.21,5.2,5.2,0,0,0,1-1.71l.14-.5c.08-.24.13-.42.17-.54s.05-.13.05-.07c0-.25-.07-.48-.11-.68a3.9,3.9,0,0,0-.19-.6,1.34,1.34,0,0,0-.21-.37.9.9,0,0,0-.4-.26,2.27,2.27,0,0,0-.64-.08,2.14,2.14,0,0,0-.52.05,3.26,3.26,0,0,0-.42.1,4.29,4.29,0,0,1-.41.28,3.62,3.62,0,0,0-.38.26l-.72.86-.69.78a11.81,11.81,0,0,0-.64,1.14c-.16.33-.29.62-.38.84s-.16.44-.23.63a4.36,4.36,0,0,0-.15.51,6,6,0,0,1-.06.61c0,.2-.07.4-.1.61a6.51,6.51,0,0,0-.75.68,4.48,4.48,0,0,0-.49.66v0c-.69.57-1.23,1-1.62,1.3a2.74,2.74,0,0,1-.68.45.27.27,0,0,1-.24-.12.73.73,0,0,1-.08-.37,8.19,8.19,0,0,1,.14-1.08c.09-.53.22-1.23.38-2.1.28-1.07.52-2,.74-2.8s.42-1.44.6-2c0-.19.1-.36.13-.51l.08-.38,1.06-.21c.13,0,.22-.19.28-.52a10.06,10.06,0,0,0,.08-1.42,1.31,1.31,0,0,0,0-.37.32.32,0,0,0-.13-.2l-.16-.17a1,1,0,0,1-.09-.13,5.24,5.24,0,0,1,.25-.87,2.84,2.84,0,0,0,.21-.93,1,1,0,0,0-.2-.68.75.75,0,0,0-.58-.23c-.48,0-.92.48-1.33,1.45S210.37,166,210,166l-.51-.15-.44.08-.4.08a2.67,2.67,0,0,0-.45-.07c-.2,0-.44,0-.73,0L207,166a5.51,5.51,0,0,0-.68-.1,7.21,7.21,0,0,0-.83,0,.69.69,0,0,0-.65.52,4.26,4.26,0,0,0-.21,1.51.3.3,0,0,0,.1.24.73.73,0,0,0,.29.16l.26.12.29.13.42,0h2.38a1.81,1.81,0,0,0,.32-.05,1.24,1.24,0,0,1,.31-.06.21.21,0,0,1,.15.05.2.2,0,0,1,0,.14,7.45,7.45,0,0,1-.34.69,3.56,3.56,0,0,1-.29.45,30.9,30.9,0,0,1-2.09,3.24,18.14,18.14,0,0,1-2.18,2.43c-.14.16-.25.31-.35.43l-.25.31-.06.12h0a.68.68,0,0,1-.21.17.62.62,0,0,1-.18.11l-.21.25-.21.26a1.62,1.62,0,0,1-.28.2.53.53,0,0,1-.27.08.89.89,0,0,1-.76-.4,1.33,1.33,0,0,1-.28-.88c0-.47,0-1,0-1.48a1.47,1.47,0,0,0-.2-.76.57.57,0,0,0-.5-.26,2.15,2.15,0,0,0-1.16.41,6.6,6.6,0,0,0-1.36,1.26l-.25.15-.22.12-.48.4-.87.78a8.61,8.61,0,0,1-.83.69,2.74,2.74,0,0,1-.72.37l-.11-.14.74-1a3.64,3.64,0,0,1,.39-.49c.59-.5,1-.93,1.4-1.29a3.68,3.68,0,0,0,.69-.88c.24-.18.43-.33.58-.46l.3-.28.26-.36a6.26,6.26,0,0,0,.85-.71,6,6,0,0,0,.61-.69l.85-.61a1.13,1.13,0,0,0,.37-.42,1.26,1.26,0,0,0,.12-.57.63.63,0,0,0-.2-.48.91.91,0,0,0-.6-.17,3.65,3.65,0,0,0-1.82.67,17.14,17.14,0,0,0-2.5,2,4.28,4.28,0,0,1-.58.47l-.44.27-.6.54a3.72,3.72,0,0,0-.36.39,2.1,2.1,0,0,0-.42.24,1.34,1.34,0,0,0-.29.34,1.92,1.92,0,0,1-.25.38,1.37,1.37,0,0,1-.19.21l-1.43.92c-.1.18-.19.32-.27.44a1.79,1.79,0,0,1-.18.24l.26.58.21.48a1.82,1.82,0,0,1,.1.19.38.38,0,0,1,0,.17,2.23,2.23,0,0,1,0,.32,2.7,2.7,0,0,0-.54.73,1.82,1.82,0,0,0-.18.79,1.29,1.29,0,0,0,1.47,1.48,1,1,0,0,0,.35-.1,4.61,4.61,0,0,0,.57-.27c.34-.18.65-.36.93-.53a6.59,6.59,0,0,0,.73-.53l.53-.51c.26-.23.56-.54.93-.91.27-.21.51-.4.72-.55l.51-.39a2.27,2.27,0,0,1,.22-.22l.17-.16a.74.74,0,0,1,.16.3,1,1,0,0,1,0,.28,2.77,2.77,0,0,0,.65,1.73,2.07,2.07,0,0,0,1.57.57,2.35,2.35,0,0,0,.88-.18,4.17,4.17,0,0,0,.91-.53,7.65,7.65,0,0,0,.74-.65c.24-.23.48-.46.72-.67h0a4.07,4.07,0,0,1,.28-.39,1.42,1.42,0,0,0,.17-.23l1.64-1.52c.34-.3.64-.59.89-.86a5,5,0,0,0,.62-.78l.15-.09c.09,0,.13.09.13.14l-.36.78c-.08.4-.14.81-.21,1.21,0,.23-.07.44-.11.61a2.61,2.61,0,0,0,0,.42,1.89,1.89,0,0,1-.1.21,4.77,4.77,0,0,0-.2,1.06c0,.44-.07.95-.07,1.55a1.86,1.86,0,0,0,.34,1.21,1.27,1.27,0,0,0,1,.4,1.66,1.66,0,0,0,.68-.17,2.61,2.61,0,0,0,.73-.58l.56-.6.56-.62.52-.48a4.81,4.81,0,0,0,.39-.38c.26-.17.49-.34.68-.49l.44-.4v0a1.72,1.72,0,0,1,.34-.33.45.45,0,0,1,.28-.12.36.36,0,0,1,.28.17,2.38,2.38,0,0,1,.27.5,6.91,6.91,0,0,0,.33.71,2,2,0,0,0,.31.46,2,2,0,0,0,.75.49,3,3,0,0,0,1,.17,3.45,3.45,0,0,0,.76-.07,2,2,0,0,0,.57-.22,2.64,2.64,0,0,0,1.34-.44,9.58,9.58,0,0,0,1.63-1.3c-.06-.18-.15-.38-.25-.62S220.42,176.63,220.29,176.33Zm-16.55.07,0,0a.89.89,0,0,1,.08.17c0,.07,0,.14.07.2Zm8.92.53c0,.08.09.17.12.25a3.69,3.69,0,0,1,.16.4Zm3.27-3.29s0-.07,0-.13a2.83,2.83,0,0,1,.58-1.3c.39-.59.7-.89.93-.89a.17.17,0,0,1,.16.09.36.36,0,0,1,.06.22.94.94,0,0,1-.1.43,1.38,1.38,0,0,1-.28.43c-.1.12-.21.23-.32.35a3.51,3.51,0,0,1-.34.33l-.2.33a.34.34,0,0,1-.29.18A.22.22,0,0,1,215.93,173.64Z"/><path class="cls-2" d="M240.54,166.52a.4.4,0,0,0,.12-.23c0-.21.06-.42.08-.64a2.58,2.58,0,0,1,.31-.4c.15-.44.29-.87.43-1.3s.29-.86.45-1.3a5.1,5.1,0,0,0,.24-1.2,13.25,13.25,0,0,0,.08-1.46,1.14,1.14,0,0,0-.16-.64.59.59,0,0,0-.5-.21.45.45,0,0,0-.27.11,1.81,1.81,0,0,0-.27.32l-1.65,2.63a8,8,0,0,0-.59,1c-.21.47-.4.88-.57,1.22s-.33.63-.47.87l-.39,1c-.1.28-.18.5-.23.67l-.22.37a1.48,1.48,0,0,1-.18.25l-.29.7-.22.49q-.65,1.39-1,2.1c-.24.47-.4.7-.46.7l-.11-.06a3.42,3.42,0,0,0-.26-.47,4.28,4.28,0,0,0-.26-.36c-.17-.73-.32-1.37-.44-1.92s-.22-1-.29-1.38c-.1-.63-.19-1.18-.26-1.67s-.1-.9-.11-1.24a3.14,3.14,0,0,0-.06-.32,1.49,1.49,0,0,1,0-.21c0-.17,0-.44.05-.81a8.47,8.47,0,0,0,.06-.85c0-.36,0-.67,0-.93a3.88,3.88,0,0,0-.06-.61,1.1,1.1,0,0,0-.36-.64,1.08,1.08,0,0,0-.71-.22,4.4,4.4,0,0,1-1.15.49h-.53a.78.78,0,0,0-.52.38,1.91,1.91,0,0,0-.17.88c0,.1,0,.23,0,.38a3.87,3.87,0,0,0,0,.53c0,.21.06.4.07.54a2.88,2.88,0,0,1,0,.35l.26.34-.14.35c.13.55.22,1,.28,1.46s.1.79.13,1.1l1.16,3.93c.16.38.31.71.44,1s.25.49.33.67a3.17,3.17,0,0,0,.5,1,5.42,5.42,0,0,0,.92.94,7.36,7.36,0,0,1-.29.93,4.14,4.14,0,0,1-.31.66c-.16.34-.28.65-.38.92s-.17.49-.22.68a1,1,0,0,1,.07.2.52.52,0,0,0,.07.15l0,.06a5.35,5.35,0,0,0-.53,1,8.25,8.25,0,0,0-.35,1.24,2.72,2.72,0,0,0-.11.6.4.4,0,0,0,.17.34,1.4,1.4,0,0,0,.5.2l.48.09.5.08a3.27,3.27,0,0,0,1.13-.52c.62-.36.92-.65.92-.88a1.19,1.19,0,0,0-.19-.39,1.12,1.12,0,0,1-.18-.47,2.31,2.31,0,0,1,.05-.43L235,178a14,14,0,0,1,.51-1.75c.23-.61.49-1.25.79-1.91l.88-1.85c0-.15,0-.3,0-.46.65-1,1.2-1.78,1.66-2.51s.82-1.35,1.09-1.87c.07-.18.13-.35.19-.48s.09-.26.12-.37A3.33,3.33,0,0,0,240.54,166.52Z"/><path class="cls-2" d="M275.09,176.33a2.18,2.18,0,0,1-.43.28,8.9,8.9,0,0,0-1,.89,4.5,4.5,0,0,1-.61.49,1.06,1.06,0,0,1-.49.17.24.24,0,0,1-.15,0,.16.16,0,0,1-.06-.13,5.07,5.07,0,0,1,.49-1.73,4.86,4.86,0,0,0,.49-1.76,5.53,5.53,0,0,0-.32-2,2.81,2.81,0,0,0-.94-1.28,2,2,0,0,0-.25-.17l-.71-.65a1.4,1.4,0,0,0-.91-.3,2.64,2.64,0,0,0-1.31.52,2.89,2.89,0,0,0-1,.91l.16.74a7.06,7.06,0,0,1-1.06,1.59,14.24,14.24,0,0,1-1.88,1.78l-.5.68h0l-.35.11a1.18,1.18,0,0,1-.3,0,.73.73,0,0,1-.63-.28,1.54,1.54,0,0,1-.2-.86,2.19,2.19,0,0,0-.07-.47,2.33,2.33,0,0,1-.07-.5,6.34,6.34,0,0,0,0-.69,1.5,1.5,0,0,0-.08-.37.64.64,0,0,0-.34-.3,1.67,1.67,0,0,0-.65-.1,1.18,1.18,0,0,0-.83.36,3.35,3.35,0,0,0-.66,1.1c-.09.12-.18.23-.28.34l-.26.29c-.2.28-.39.56-.58.85s-.62.73-.85,1-.45.53-.64.72l-.55.3c-.16.09-.29.16-.39.23s-.19-.1-.25-.37a7.85,7.85,0,0,1-.08-1.28,7.72,7.72,0,0,1,.08-1c.06-.37.14-.77.25-1.22s.21-.7.33-1.06.21-.72.3-1.08.17-.42.25-.63.08-.25.11-.37a1,1,0,0,0,0-.26.64.64,0,0,0-.12-.42.46.46,0,0,0-.36-.15,1.73,1.73,0,0,0-.47.12c-.23.09-.56.22-1,.42-.25.32-.49.64-.71,1s-.46.65-.69,1-.54.62-.79.92-.48.62-.71.93-.54.63-.77.88a4.82,4.82,0,0,1-.6.6.24.24,0,0,1,0,.15.52.52,0,0,1-.1.11v0l-.3.21a.56.56,0,0,1-.26.08.27.27,0,0,1-.21-.09.72.72,0,0,1-.14-.28,1.63,1.63,0,0,0,.34-.45,4.39,4.39,0,0,0,.34-.77,5.5,5.5,0,0,0,.2-.77,3.91,3.91,0,0,0,.07-.62,3.19,3.19,0,0,0-.58-2.07,2.12,2.12,0,0,0-1.72-.68,2.41,2.41,0,0,0-.5.12q-.39.12-1.08.39l-.1-.14c.12-.24.23-.48.33-.71a.31.31,0,0,0-.2-.24,1.2,1.2,0,0,0-.52-.08,1.4,1.4,0,0,0-.58.12,2,2,0,0,0-.52.34c-.15.14-.29.29-.43.44s-.29.31-.45.47l-.41.34-.44.38a3,3,0,0,0-.43.44,2,2,0,0,0-.26.39c-.45.39-.83.72-1.13,1a7.26,7.26,0,0,0-.68.67l-1.21.81-.27.39a1.47,1.47,0,0,1-.23.29c.13.23.24.46.35.7s.2.48.28.72a1.68,1.68,0,0,0,.2-.28l.11-.19.85-.66a1.15,1.15,0,0,1,.38-.23.27.27,0,0,1,.2.07.29.29,0,0,1,.07.18,4.44,4.44,0,0,1-.18.71,4.09,4.09,0,0,0-.17,1A2.3,2.3,0,0,0,243,180a2.24,2.24,0,0,0,1.62.74,1.48,1.48,0,0,0,.37-.06,1.43,1.43,0,0,1,.31-.06,2.35,2.35,0,0,0,.59-.1,7.14,7.14,0,0,0,.71-.29,5.3,5.3,0,0,0,1.23-.7,4.67,4.67,0,0,0,.95-.93,1.31,1.31,0,0,0,.38.48,1,1,0,0,0,.6.17,1.6,1.6,0,0,0,.63-.14,2.37,2.37,0,0,0,.69-.42,6.12,6.12,0,0,0,.56-.45l.55-.47v0c.12-.14.21-.27.29-.38a1.25,1.25,0,0,0,.15-.27l.9-.9.09-.05c.07,0,.13.08.17.23a5.55,5.55,0,0,1,.08.68,2.11,2.11,0,0,0,0,.54c0,.29.09.71.19,1.24a2.11,2.11,0,0,0,.56,1.26,1.62,1.62,0,0,0,1.16.42,2.3,2.3,0,0,0,1-.28,3.92,3.92,0,0,0,1.11-.92l.86-1,.85-1c.13-.15.26-.29.38-.44l.33-.36a2,2,0,0,1,.25.36,1.21,1.21,0,0,1,.14.37,2.24,2.24,0,0,0,.74,1.19,2,2,0,0,0,1.28.4,2.44,2.44,0,0,0,.91-.28c.4-.19.92-.47,1.54-.84l-.62-1.41c.13.25.24.48.34.71a6,6,0,0,1,.28.7,1.34,1.34,0,0,0,.21-.28l.09-.19a5.24,5.24,0,0,0,.83-.63,2.51,2.51,0,0,0,.46-.52,2.57,2.57,0,0,0,.6-.48,10.18,10.18,0,0,0,.81-.91,6,6,0,0,1,.84-.84,4.2,4.2,0,0,1,.75-.53,1,1,0,0,1,.78.5,2.44,2.44,0,0,1,.26,1.24,7.24,7.24,0,0,1-.18,1.5,15.16,15.16,0,0,1-.53,1.8,3.89,3.89,0,0,1-.19.42l-.2.41a3.62,3.62,0,0,0-.2.49,1.19,1.19,0,0,0-.07.39.66.66,0,0,0,.33.62,2,2,0,0,0,1,.2,3,3,0,0,0,.72-.33c.8-.47,1.48-.89,2.05-1.25s1-.68,1.39-.94c.17-.14.31-.27.43-.38l.33-.29c-.11-.27-.22-.52-.33-.76A6.22,6.22,0,0,1,275.09,176.33Zm-26-.66c-.06.2-.11.37-.16.51a.63.63,0,0,1-.2.3l-.47.56a4.45,4.45,0,0,1-1.14,1.18,2.43,2.43,0,0,1-1.33.39.93.93,0,0,1-.68-.22.88.88,0,0,1-.22-.64,2.67,2.67,0,0,1,.08-.57c.06-.23.14-.5.25-.82a3.91,3.91,0,0,1,.35-.82q.16-.28.33-.3a1.83,1.83,0,0,0,.45-.15,1.39,1.39,0,0,0,.37-.29l.5-.77a2.17,2.17,0,0,1,.29-.36.5.5,0,0,1,.23-.16c.33,0,.59.08.77.12a1.17,1.17,0,0,1,.34.1.61.61,0,0,1,.25.33,4.42,4.42,0,0,1,.27.73Zm2.79,1.36,0,0,.09.19a3.69,3.69,0,0,1,.16.4C252,177.4,251.94,177.22,251.87,177Z"/><path class="cls-2" d="M295.7,159.62a3.2,3.2,0,0,0-1.45-.25,2.6,2.6,0,0,0-.42,0,5.56,5.56,0,0,0-.63.15l-.31-.14a.54.54,0,0,0-.2,0l-.51.18-.4-.09a6.29,6.29,0,0,0-3,1.44,12.64,12.64,0,0,0-1.6,2,5.47,5.47,0,0,0-.78,1.9c-.08.45-.15.9-.22,1.38a1.31,1.31,0,0,0,0,.27,1.73,1.73,0,0,1,0,.29c-.06.2-.12.36-.16.48a4.29,4.29,0,0,0-.15.76c-.06.37-.1.84-.14,1.43a6.74,6.74,0,0,1-.19,1.17.75.75,0,0,1-.29.49l-.42.31a1.66,1.66,0,0,0-.35.35,4.25,4.25,0,0,1-.27.46c-.1.16-.2.32-.29.48l.05.16.14.09.34-.11.24-.06.21-.09a.75.75,0,0,0,.18-.07.21.21,0,0,1,.17.1.54.54,0,0,1,.05.24,1.74,1.74,0,0,1-.05.34,1.17,1.17,0,0,0-.06.31,3.46,3.46,0,0,0,0,.43,1.9,1.9,0,0,1,0,.45c-.09.57-.17,1.12-.25,1.66.05.32.09.65.11,1s0,.64-.06.89a4.19,4.19,0,0,1-.06.63,3,3,0,0,0,0,.33c0,.17,0,.44,0,.81s.05.65.05.82c0,.42,0,.76,0,1a4,4,0,0,0,0,.52,1.14,1.14,0,0,0,.36.67.91.91,0,0,0,.63.22h.36a1.87,1.87,0,0,0,.35-.55A1.52,1.52,0,0,0,287,182c0-.78,0-1.56.09-2.35a23.23,23.23,0,0,1,.29-2.41,1.53,1.53,0,0,0,0-.3c0-.1,0-.18,0-.25l.3-1.84-.11-.47.15-.67a4.69,4.69,0,0,1,.33-1.11c.13-.24.26-.36.4-.36l.48,0a1.23,1.23,0,0,0,.42-.07,1.42,1.42,0,0,0,.42-.22c.19,0,.48-.05.85-.11a5.81,5.81,0,0,1,.86-.09,8.45,8.45,0,0,0,1.73-.2l1.64.35a6.35,6.35,0,0,0,.73.11l.42-.72c0-.42.06-.76.07-1s0-.41,0-.47a.8.8,0,0,0-.46-.72,2.88,2.88,0,0,0-1.37-.25l-1.08.18h-.94c-.37.11-.72.19-1.06.26s-.68.12-1,.16l-1,.28c-.27.09-.48.17-.64.24a.27.27,0,0,1-.2-.13.62.62,0,0,1-.08-.33,1,1,0,0,1,.1-.39,1.5,1.5,0,0,0,.12-.32c.3-1.34.55-2.38.73-3.11a5.19,5.19,0,0,1,.4-1.25,9.25,9.25,0,0,0,.53-1.1c.11-.27.49-.48,1.15-.64a6.19,6.19,0,0,1,.7-.14,3.47,3.47,0,0,1,.6-.06l.59.08.56-.22c.3.13.6.24.88.35s.56.22.83.35.22-.13.32-.32a4.06,4.06,0,0,0,.25-.85,6.76,6.76,0,0,0,.13-.81,5.29,5.29,0,0,0,0-.66A.83.83,0,0,0,295.7,159.62Z"/><path class="cls-2" d="M309.06,176.48a.73.73,0,0,1-.63-.28,1.54,1.54,0,0,1-.2-.86,3.12,3.12,0,0,0-.07-.47,2.33,2.33,0,0,1-.07-.5,6.34,6.34,0,0,0,0-.69,2.18,2.18,0,0,0-.08-.37.67.67,0,0,0-.34-.3,1.67,1.67,0,0,0-.65-.1,1.16,1.16,0,0,0-.83.36,3.19,3.19,0,0,0-.66,1.1c-.09.12-.18.23-.28.34L305,175c-.2.28-.39.56-.58.85s-.62.73-.86,1a8.49,8.49,0,0,1-.63.72l-.55.3c-.16.09-.29.16-.39.23s-.19-.1-.25-.37a6.85,6.85,0,0,1-.08-1.28,6.33,6.33,0,0,1,.08-1c.06-.37.14-.77.25-1.22s.21-.7.33-1.06.21-.72.29-1.08a5.5,5.5,0,0,0,.25-.63,3,3,0,0,0,.11-.37.77.77,0,0,0,.05-.26.64.64,0,0,0-.12-.42.46.46,0,0,0-.36-.15,1.77,1.77,0,0,0-.48.12c-.23.09-.55.22-1,.42-.25.32-.49.64-.71,1s-.46.65-.69,1-.55.62-.79.92-.49.62-.72.93-.53.63-.76.88a4.82,4.82,0,0,1-.6.6.24.24,0,0,1,0,.15.52.52,0,0,1-.1.11l.41.85a4.93,4.93,0,0,1,.22.57c.12-.16.22-.29.29-.4a1,1,0,0,0,.16-.27l.9-.9.09-.05c.07,0,.13.08.16.23a3.88,3.88,0,0,1,.09.68,2.11,2.11,0,0,0,0,.54c0,.29.09.71.19,1.24a2.11,2.11,0,0,0,.56,1.26,1.6,1.6,0,0,0,1.16.42,2.3,2.3,0,0,0,1.05-.28,3.92,3.92,0,0,0,1.11-.92l.86-1,.85-1c.13-.15.26-.29.38-.44l.32-.36a2,2,0,0,1,.26.36,1.21,1.21,0,0,1,.14.37,2.29,2.29,0,0,0,.73,1.19,2,2,0,0,0,1.29.4,2.44,2.44,0,0,0,.91-.28c.4-.19.91-.47,1.54-.84l-.63-1.42-.34.11A1.24,1.24,0,0,1,309.06,176.48Z"/><path class="cls-2" d="M330.83,176.48a.73.73,0,0,1-.63-.28,1.54,1.54,0,0,1-.2-.86,3.12,3.12,0,0,0-.07-.47,2.33,2.33,0,0,1-.07-.5,4.33,4.33,0,0,0,0-.69,1.61,1.61,0,0,0-.07-.37.67.67,0,0,0-.34-.3,1.67,1.67,0,0,0-.65-.1,1.16,1.16,0,0,0-.83.36,3.36,3.36,0,0,0-.67,1.1,2.88,2.88,0,0,1-.27.34l-.26.29c-.2.28-.39.56-.58.85s-.62.73-.86,1a8.49,8.49,0,0,1-.63.72l-.55.3c-.16.09-.29.16-.39.23s-.19-.1-.25-.37a6.67,6.67,0,0,1-.09-1.28,6.41,6.41,0,0,1,.09-1c.06-.37.14-.77.25-1.22l.32-1.06a10.87,10.87,0,0,0,.3-1.08,5.5,5.5,0,0,0,.25-.63,3,3,0,0,0,.11-.37.77.77,0,0,0,.05-.26.64.64,0,0,0-.12-.42.47.47,0,0,0-.37-.15,1.82,1.82,0,0,0-.47.12c-.23.09-.55.22-1,.42-.25.32-.49.64-.71,1l-.69,1c-.28.31-.55.62-.79.92s-.49.62-.72.93-.53.63-.76.88a4.82,4.82,0,0,1-.6.6.33.33,0,0,1,0,.15.52.52,0,0,1-.1.11v0c-.69.57-1.24,1-1.62,1.3a2.69,2.69,0,0,1-.69.45.26.26,0,0,1-.23-.12.64.64,0,0,1-.08-.37,7.64,7.64,0,0,1,.13-1.08q.13-.79.39-2.1c.27-1.07.52-2,.74-2.8s.42-1.44.6-2q.07-.28.12-.51l.08-.38,1.07-.21c.12,0,.21-.19.27-.52a8.53,8.53,0,0,0,.09-1.42,1.82,1.82,0,0,0,0-.37.37.37,0,0,0-.13-.2l-.17-.17-.08-.13a4.21,4.21,0,0,1,.24-.87,2.84,2.84,0,0,0,.21-.93,1,1,0,0,0-.2-.68.75.75,0,0,0-.58-.23c-.47,0-.92.48-1.33,1.45S316.41,166,316,166l-.52-.15-.43.08-.4.08a3,3,0,0,0-.46-.07q-.3,0-.72,0l-.44.09a5.69,5.69,0,0,0-.69-.1,7,7,0,0,0-.82,0,.69.69,0,0,0-.65.52,4,4,0,0,0-.22,1.51.3.3,0,0,0,.11.24.61.61,0,0,0,.29.16,2.06,2.06,0,0,0,.26.12l.29.13.41,0h2.38a1.68,1.68,0,0,0,.32-.05,1.43,1.43,0,0,1,.31-.06.23.23,0,0,1,.16.05.2.2,0,0,1,0,.14,7.45,7.45,0,0,1-.34.69c-.11.19-.2.34-.28.45a29.37,29.37,0,0,1-2.1,3.24,17.48,17.48,0,0,1-2.18,2.43l-.35.43a3.83,3.83,0,0,0-.24.31l-.07.12a.32.32,0,0,1,.11.12.53.53,0,0,1,.08.17c.09.25.17.47.25.66l.19.47a4,4,0,0,1,.29-.39l.17-.23,1.63-1.52a10.87,10.87,0,0,0,.9-.86,5.57,5.57,0,0,0,.61-.78l.16-.09c.08,0,.12.09.12.14q-.18.42-.36.78c-.07.4-.14.81-.2,1.21l-.11.61a2.87,2.87,0,0,0-.05.42,1.65,1.65,0,0,1-.09.21,4.2,4.2,0,0,0-.21,1.06c0,.44-.06.95-.06,1.55a1.8,1.8,0,0,0,.34,1.21,1.24,1.24,0,0,0,1,.4,1.66,1.66,0,0,0,.67-.17,2.64,2.64,0,0,0,.74-.58l.56-.6.55-.62.52-.48a4.81,4.81,0,0,0,.39-.38,7.64,7.64,0,0,0,.68-.49,4.93,4.93,0,0,0,.44-.4v0a2.56,2.56,0,0,0,.29-.38,1,1,0,0,0,.16-.27l.9-.9.09-.05c.07,0,.13.08.16.23a3.88,3.88,0,0,1,.09.68,1.7,1.7,0,0,0,0,.54c0,.29.09.71.19,1.24a2.11,2.11,0,0,0,.56,1.26,1.6,1.6,0,0,0,1.16.42,2.3,2.3,0,0,0,1-.28,3.76,3.76,0,0,0,1.1-.92q.45-.48.87-1l.85-1c.13-.15.26-.29.38-.44l.32-.36a2,2,0,0,1,.26.36,1.54,1.54,0,0,1,.14.37,2.29,2.29,0,0,0,.73,1.19,2,2,0,0,0,1.29.4,2.44,2.44,0,0,0,.91-.28c.4-.19.91-.47,1.54-.84l-.63-1.42-.34.11A1.24,1.24,0,0,1,330.83,176.48Zm-12.14.43c0,.09.09.19.12.27a2.24,2.24,0,0,1,.17.41Z"/><path class="cls-2" d="M350.23,177.13c-.11-.24-.23-.5-.36-.8a1.69,1.69,0,0,1-.35.22l-.25.13a4.12,4.12,0,0,1-.9.37,4.57,4.57,0,0,1-1.11.2,4,4,0,0,1-.65-.17,1.39,1.39,0,0,1-.4-.18.82.82,0,0,1-.34-.37,1.26,1.26,0,0,1-.12-.57.85.85,0,0,1,.08-.35,1,1,0,0,1,.19-.27,22.82,22.82,0,0,0,2.07-2.21,5.59,5.59,0,0,0,1-1.71l.14-.5c.07-.24.13-.42.17-.54s.05-.13.05-.07c0-.25-.08-.48-.11-.68a5.43,5.43,0,0,0-.19-.6,1.12,1.12,0,0,0-.22-.37.85.85,0,0,0-.4-.26,2.61,2.61,0,0,0-1.15,0l-.43.1a3.24,3.24,0,0,1-.4.28,2.81,2.81,0,0,0-.38.26l-.72.86-.69.78a10,10,0,0,0-.64,1.14c-.16.33-.29.62-.39.84s-.15.44-.22.63a4.36,4.36,0,0,0-.15.51,4.07,4.07,0,0,1-.07.61l-.09.61a6.51,6.51,0,0,0-.75.68,4.48,4.48,0,0,0-.49.66h0a2,2,0,0,1-.41.27,8.9,8.9,0,0,0-1,.89,4,4,0,0,1-.62.49,1,1,0,0,1-.48.17.21.21,0,0,1-.15,0,.16.16,0,0,1-.06-.13,5.07,5.07,0,0,1,.49-1.73,5.08,5.08,0,0,0,.49-1.76,5.53,5.53,0,0,0-.32-2,2.81,2.81,0,0,0-.94-1.28l-.25-.17c-.23-.22-.47-.44-.72-.65a1.36,1.36,0,0,0-.9-.3,2.64,2.64,0,0,0-1.31.52,2.89,2.89,0,0,0-1,.91l.15.74a6.74,6.74,0,0,1-1.06,1.59,13.51,13.51,0,0,1-1.87,1.78c-.17.24-.34.46-.51.68.13.25.25.48.35.72s.2.46.28.7a1.84,1.84,0,0,0,.21-.28l.09-.19a5.24,5.24,0,0,0,.83-.63,2.85,2.85,0,0,0,.46-.52,2.8,2.8,0,0,0,.6-.48,10.18,10.18,0,0,0,.81-.91,6,6,0,0,1,.83-.84,4.62,4.62,0,0,1,.76-.53,1,1,0,0,1,.78.5,2.44,2.44,0,0,1,.26,1.24,7.32,7.32,0,0,1-.19,1.5,15,15,0,0,1-.52,1.8,3.89,3.89,0,0,1-.19.42l-.2.41a3.62,3.62,0,0,0-.2.49,1.19,1.19,0,0,0-.07.39.66.66,0,0,0,.33.62,2,2,0,0,0,1,.2,3,3,0,0,0,.72-.33c.8-.47,1.48-.89,2.05-1.25s1-.68,1.39-.94c.17-.14.31-.27.43-.38l.32-.29v0a2,2,0,0,1,.33-.33.5.5,0,0,1,.29-.12.36.36,0,0,1,.28.17,2.38,2.38,0,0,1,.27.5,6.91,6.91,0,0,0,.33.71,2,2,0,0,0,.31.46,2,2,0,0,0,.75.49,2.92,2.92,0,0,0,1,.17,3.45,3.45,0,0,0,.76-.07,2,2,0,0,0,.57-.22,2.64,2.64,0,0,0,1.34-.44,9.58,9.58,0,0,0,1.63-1.3C350.42,177.57,350.33,177.37,350.23,177.13Zm-8-.14-.11-.24.21.43a3.78,3.78,0,0,1,.16.41A5.42,5.42,0,0,0,342.26,177Zm3.25-3.35s0-.07,0-.13a2.83,2.83,0,0,1,.58-1.3c.39-.59.7-.89.93-.89a.18.18,0,0,1,.16.09.36.36,0,0,1,.06.22,1.08,1.08,0,0,1-.1.43,1.58,1.58,0,0,1-.28.43l-.32.35c-.11.12-.23.23-.34.33l-.21.33a.31.31,0,0,1-.28.18C345.59,173.68,345.53,173.67,345.51,173.64Z"/><path class="cls-3" d="M182.53,196.42s-9.7,8.15-25.48,12.31c-5.73,1.52-21.47,5.67-37.56.48-23-7.42-40.6-32-40.73-58.19,0-2.56.38-34.62,28-51.89,24.94-15.6,51.57-6.32,55.62-4.83a65.78,65.78,0,0,1,28.55,20.76c-3.65-5.93-16.77-25.5-42.21-32.83C119,73.67,89,86.57,71.94,105.4c-4.44,4.9-18.64,21-18.58,45.38.06,24.85,15,41.12,19.19,45.62,16,17,38.76,24,58.08,22.93C160.52,217.6,182.5,196.37,182.53,196.42Z"/><path class="cls-4" d="M137.74,75a58.16,58.16,0,0,0-22.23.29c5.53-6.09,6.63-11,6.56-14.5-.14-7.1-5.28-11-5.12-20a24.79,24.79,0,0,1,1.62-8.28c.17-.29,2.57-4.27,7.08-4.47,4.13-.18,6.71,2.95,7.34,3.71,1.57,1.91,2.45,4.39,2.5,8.62.12,9.57-4.18,12.64-4.37,19.35C131,63.34,132.12,68.53,137.74,75Z"/><path class="cls-5" d="M191.26,105.11a56.08,56.08,0,0,0-6.81-8.35,56.75,56.75,0,0,0-8.74-7.23c8.31-.28,12.72-2.91,15.23-5.35,5.15-5,4.47-11.33,11.22-17.42a25.41,25.41,0,0,1,7.23-4.55c.33-.09,4.92-1.13,8.18,1.94,3,2.8,2.45,6.79,2.32,7.76-.32,2.44-1.55,4.77-4.63,7.73-7,6.69-12.22,5.75-17.3,10.24C195.19,92.33,192.12,96.69,191.26,105.11Z"/><path class="cls-6" d="M48.54,139a55.55,55.55,0,0,0-1.11,10.63,54.69,54.69,0,0,0,1.06,11.17c-6.12-5.52-11.15-6.68-14.68-6.67-7.25,0-11.29,5-20.46,4.71a26.15,26.15,0,0,1-8.41-1.72c-.29-.18-4.31-2.59-4.44-7-.12-4,3.11-6.52,3.9-7.13,2-1.51,4.51-2.34,8.82-2.32,9.76,0,12.83,4.3,19.66,4.6C36.6,145.36,41.92,144.36,48.54,139Z"/><path class="cls-7" d="M78.05,90.81a56.82,56.82,0,0,0-8.39,6.81,55.51,55.51,0,0,0-7.24,8.69c-.41-8.15-3.16-12.44-5.69-14.86-5.18-5-11.63-4.2-17.94-10.72a25.07,25.07,0,0,1-4.76-7c-.09-.33-1.23-4.82,1.85-8.06,2.81-3,6.88-2.51,7.88-2.4,2.48.28,4.88,1.44,7.94,4.42,6.94,6.74,6.07,11.89,10.73,16.8C65,87.16,69.46,90.1,78.05,90.81Z"/><path class="cls-8" d="M62.3,193.3a56.5,56.5,0,0,0,6.76,8.38,57.3,57.3,0,0,0,8.7,7.28c-8.31.23-12.74,2.83-15.26,5.26-5.18,5-4.54,11.31-11.32,17.36a25.61,25.61,0,0,1-7.25,4.52c-.33.07-4.93,1.09-8.17-2-3-2.82-2.42-6.8-2.28-7.78.33-2.43,1.57-4.76,4.67-7.7,7-6.65,12.26-5.68,17.37-10.15C58.3,206.05,61.39,201.7,62.3,193.3Z"/><path class="cls-9" d="M111.45,224.74a58,58,0,0,0,22.22.32c-5.7,5.94-6.95,10.85-7,14.32-.06,7.1,5,11.13,4.55,20.12a24.57,24.57,0,0,1-1.86,8.22c-.18.29-2.69,4.2-7.2,4.27-4.13.07-6.62-3.12-7.23-3.91-1.52-1.94-2.32-4.45-2.25-8.68.15-9.57,4.54-12.52,4.92-19.22C117.83,236.53,116.88,231.31,111.45,224.74Z"/><path class="cls-10" d="M163.3,216.06a58.13,58.13,0,0,0,9.66-4.95,57.43,57.43,0,0,0,8.91-7c-1.32,8,.47,12.8,2.43,15.69,4,5.91,10.49,6.47,15.29,14.13a24.86,24.86,0,0,1,3.17,7.83c0,.33.18,5-3.51,7.5-3.37,2.33-7.26,1.06-8.22.75-2.37-.77-4.47-2.4-6.84-5.94-5.35-8-3.41-12.86-6.94-18.61C175.34,222.3,171.56,218.5,163.3,216.06Z"/><path class="cls-11" d="M85.94,179.27c-12.36-23.62-3.88-46.88-2.47-50.54a59.14,59.14,0,0,1,51.46-38.47,72.64,72.64,0,0,0-13.58,1.4,80.85,80.85,0,0,0-16,5.22C95.43,101.49,72,119.94,71,148.58c-1.22,34.18,30.42,61.75,55.3,63.1a36,36,0,0,0,4.2,0,65.23,65.23,0,0,1-21.73-8.34A63.3,63.3,0,0,1,85.94,179.27Z"/></svg>