<svg id="Layer_1" data-name="Layer 1" xmlns="http://www.w3.org/2000/svg" xmlns:xlink="http://www.w3.org/1999/xlink" viewBox="0 0 144 144"><defs><style>.cls-1{fill:#fff;}.cls-2{fill:url(#linear-gradient);}.cls-3{fill:url(#New_Gradient_Swatch_3);}.cls-4{fill:url(#New_Gradient_Swatch_3-2);}.cls-5{fill:url(#New_Gradient_Swatch_3-3);}.cls-6{fill:url(#New_Gradient_Swatch_3-4);}.cls-7{fill:url(#New_Gradient_Swatch_3-5);}.cls-8{fill:url(#New_Gradient_Swatch_3-6);}.cls-9{fill:url(#New_Gradient_Swatch_3-7);}.cls-10,.cls-11{font-size:12.97px;}.cls-10{fill:#231f20;font-family:Poppins-SemiBold, Poppins;font-weight:600;}.cls-11{fill:#006cb7;font-family:Mistral;}.cls-12{fill:url(#linear-gradient-2);}</style><linearGradient id="linear-gradient" x1="24.92" y1="74.42" x2="81.08" y2="74.42" gradientUnits="userSpaceOnUse"><stop offset="0" stop-color="#1d8ac9"/><stop offset="0.1" stop-color="#1c7cb7"/><stop offset="0.39" stop-color="#19588a"/><stop offset="0.64" stop-color="#183e6a"/><stop offset="0.86" stop-color="#162f56"/><stop offset="1" stop-color="#16294f"/></linearGradient><linearGradient id="New_Gradient_Swatch_3" x1="50.42" y1="41.7" x2="50.52" y2="32.63" gradientTransform="translate(0.12 -0.41) rotate(-0.07)" gradientUnits="userSpaceOnUse"><stop offset="0" stop-color="#1d8ac9"/><stop offset="0.22" stop-color="#1e80bf"/><stop offset="0.6" stop-color="#2167a4"/><stop offset="1" stop-color="#254580"/></linearGradient><linearGradient id="New_Gradient_Swatch_3-2" x1="137.05" y1="-252.95" x2="137.88" y2="-264.43" gradientTransform="matrix(0.7, 0.72, -0.72, 0.7, -201.64, 129.25)" xlink:href="#New_Gradient_Swatch_3"/><linearGradient id="New_Gradient_Swatch_3-3" x1="-508.52" y1="180.14" x2="-509.46" y2="167.51" gradientTransform="translate(-141.96 -439.73) rotate(-88)" xlink:href="#New_Gradient_Swatch_3"/><linearGradient id="New_Gradient_Swatch_3-4" x1="-183.71" y1="254.74" x2="-181.25" y2="242.55" gradientTransform="matrix(0.7, -0.72, 0.72, 0.7, -25.46, -254.28)" xlink:href="#New_Gradient_Swatch_3"/><linearGradient id="New_Gradient_Swatch_3-5" x1="-663.27" y1="-41" x2="-663.84" y2="-50.05" gradientTransform="matrix(-0.69, -0.72, 0.72, -0.69, -400.66, -411.12)" xlink:href="#New_Gradient_Swatch_3"/><linearGradient id="New_Gradient_Swatch_3-6" x1="-620.4" y1="-316.28" x2="-621.15" y2="-326.68" gradientTransform="translate(-563.14 -222.52) rotate(-178.83)" xlink:href="#New_Gradient_Swatch_3"/><linearGradient id="New_Gradient_Swatch_3-7" x1="-462.22" y1="-456.19" x2="-462.24" y2="-465.27" gradientTransform="translate(-563.88 -29.28) rotate(146.98)" xlink:href="#New_Gradient_Swatch_3"/><linearGradient id="linear-gradient-2" x1="32.23" y1="51.88" x2="54.73" y2="52.91" gradientTransform="matrix(1, 0.05, -0.05, 1, -6.86, 18.9)" gradientUnits="userSpaceOnUse"><stop offset="0" stop-color="#1d8ac9"/><stop offset="0.24" stop-color="#2070ae"/><stop offset="0.53" stop-color="#235995"/><stop offset="0.79" stop-color="#244a85"/><stop offset="1" stop-color="#254580"/></linearGradient></defs><rect class="cls-1" width="144" height="144" rx="6.07"/><path class="cls-2" d="M71.51,91.69a25.14,25.14,0,0,1-9.19,4.53c-2.07.55-7.74,2.08-13.55.17C40.47,93.66,34.13,84.64,34.08,75c0-.94.14-12.73,10.1-19.09,9-5.74,18.61-2.32,20.07-1.77a23.71,23.71,0,0,1,10.29,7.63c-1.31-2.18-6-9.38-15.22-12.07-10.72-3.15-21.54,1.59-27.7,8.52a25.12,25.12,0,0,0-6.7,16.69,25,25,0,0,0,6.92,16.78,26.83,26.83,0,0,0,21,8.43C63.57,99.48,71.5,91.67,71.51,91.69Z"/><path class="cls-3" d="M54.54,47.36A20.44,20.44,0,0,0,50.63,47a20.22,20.22,0,0,0-4.1.42c2-2.23,2.42-4.05,2.4-5.32,0-2.61-1.88-4.06-1.8-7.36a9.42,9.42,0,0,1,.6-3,3,3,0,0,1,5.21-.25,4.83,4.83,0,0,1,.88,3.18c0,3.52-1.54,4.64-1.63,7.11C52.15,43.08,52.53,45,54.54,47.36Z"/><path class="cls-4" d="M74.28,58.16a20.43,20.43,0,0,0-5.61-5.73c3-.1,4.59-1.07,5.5-2,1.85-1.84,1.61-4.17,4-6.41a9.19,9.19,0,0,1,2.6-1.68,3.34,3.34,0,0,1,3,.72A3.28,3.28,0,0,1,84.61,46a4.74,4.74,0,0,1-1.67,2.84c-2.52,2.46-4.41,2.12-6.24,3.77C75.7,53.46,74.59,55.07,74.28,58.16Z"/><path class="cls-5" d="M23.35,70.78a20.65,20.65,0,0,0-.24,8c-2.15-2.09-3.95-2.57-5.23-2.6-2.61-.06-4.12,1.74-7.42,1.54a9,9,0,0,1-3-.72,3,3,0,0,1-.06-5.2,4.74,4.74,0,0,1,3.2-.77c3.52.11,4.59,1.7,7.05,1.88C19,73,20.9,72.71,23.35,70.78Z"/><path class="cls-6" d="M34.09,52.77a20.72,20.72,0,0,0-3,2.55,21.06,21.06,0,0,0-2.56,3.23c-.19-3-1.21-4.55-2.14-5.43-1.89-1.79-4.21-1.47-6.53-3.84a9,9,0,0,1-1.76-2.55,3.35,3.35,0,0,1,.62-3,3.34,3.34,0,0,1,2.83-.93,4.78,4.78,0,0,1,2.89,1.58c2.54,2.44,2.26,4.34,4,6.12C29.35,51.5,31,52.55,34.09,52.77Z"/><path class="cls-7" d="M28.48,90.44a20.45,20.45,0,0,0,2.44,3.08,20.84,20.84,0,0,0,3.13,2.68c-3,.08-4.59,1-5.5,1.93-1.87,1.83-1.64,4.16-4.08,6.39a9.47,9.47,0,0,1-2.62,1.66,3.36,3.36,0,0,1-3-.73,3.31,3.31,0,0,1-.82-2.86,4.77,4.77,0,0,1,1.69-2.83C22.3,97.31,24.19,97.66,26,96,27,95.13,28.15,93.53,28.48,90.44Z"/><path class="cls-8" d="M46.52,101a20.67,20.67,0,0,0,8,.12c-2.06,2.19-2.5,4-2.51,5.27,0,2.61,1.79,4.09,1.64,7.4a9.07,9.07,0,0,1-.68,3,3,3,0,0,1-5.2.14,4.77,4.77,0,0,1-.81-3.2c.05-3.52,1.63-4.6,1.77-7.07C48.82,105.32,48.47,103.4,46.52,101Z"/><path class="cls-9" d="M65.22,97.79a20.64,20.64,0,0,0,6.7-4.41c-.48,3,.17,4.71.87,5.77,1.46,2.18,3.79,2.38,5.52,5.2a9.15,9.15,0,0,1,1.14,2.88,3,3,0,0,1-4.23,3,4.83,4.83,0,0,1-2.46-2.19c-1.94-2.94-1.24-4.73-2.51-6.84C69.56,100.08,68.2,98.69,65.22,97.79Z"/><text class="cls-10" transform="translate(41.81 75.64)">Sea Education</text><text class="cls-11" transform="translate(52.29 86.11)">Navigate Your Future</text><path class="cls-12" d="M37.2,85.42c-4.46-8.67-1.4-17.19-.89-18.53a22.44,22.44,0,0,1,6.36-9.15,22,22,0,0,1,12.2-5,25.44,25.44,0,0,0-4.9.52,28.41,28.41,0,0,0-5.79,1.91c-3.56,1.69-12,8.45-12.36,18.95-.44,12.54,11,22.64,20,23.14a12.36,12.36,0,0,0,1.51,0A23.18,23.18,0,0,1,37.2,85.42Z"/></svg>