<?xml version="1.0" encoding="utf-8"?>
<!-- Generator: Adobe Illustrator 24.3.0, SVG Export Plug-In . SVG Version: 6.00 Build 0)  -->
<svg version="1.1" id="Layer_1" xmlns="http://www.w3.org/2000/svg" xmlns:xlink="http://www.w3.org/1999/xlink" x="0px" y="0px"
	 viewBox="0 0 80 80" style="enable-background:new 0 0 80 80;" xml:space="preserve">
<style type="text/css">
	.st0{fill-rule:evenodd;clip-rule:evenodd;fill:#F7941D;}
	.st1{fill:#F7941D;}
	.st2{fill-rule:evenodd;clip-rule:evenodd;fill:#004870;}
	.st3{fill-rule:evenodd;clip-rule:evenodd;fill:#D1D3D4;}
	.st4{fill-rule:evenodd;clip-rule:evenodd;fill:#A7A9AC;}
	.st5{fill-rule:evenodd;clip-rule:evenodd;fill:#FFFFFF;}
</style>
<polygon class="st0" points="76.9,49.1 69.5,49.1 71,42.7 75.4,42.7 "/>
<rect x="72.4" y="26" class="st1" width="1.5" height="19.2"/>
<path class="st0" d="M75.9,42.7c0.1-1.6-1.1-2.9-2.7-3c-0.1,0-0.2,0-0.3,0c-1.6,0.1-2.9,1.4-3,3c0.1,1.6,1.4,2.9,3,3
	c1.6,0.1,2.9-1.1,2.9-2.7C75.9,42.9,75.9,42.8,75.9,42.7z"/>
<path class="st2" d="M0.2,26L40,10.8L79.8,26l-20.1,7.9V28c0-4.4-10.3-6.4-19.7-6.4s-19.7,2-19.7,6.4v5.9L0.2,26z"/>
<path class="st2" d="M36.1,35.3h9.8c5.9,0.5,12.8,1.5,16.7,3.4V27.5c0-4.9-10.8-7.4-21.1-7.4c-10.8,0-22.1,2.5-22.1,7.4v11.3
	C23.3,36.8,30.2,35.8,36.1,35.3z"/>
<path class="st3" d="M64.6,49.6c0-0.5-0.5-0.5-1-0.5c-15.4,1-30.8,1-46.2,0c-0.5,0-0.5,0-1,0.5c-0.6,1.6-0.9,3.2-1,4.9
	c0,0.5,0.5,1,1,1h47.7c0.5,0,1-0.5,1-1C65.6,52.9,65.4,51.1,64.6,49.6L64.6,49.6z"/>
<path class="st4" d="M66.1,55c0-0.5-0.5-1-1-1H44.9c-0.5,0-1,0.5-1,1h-6.4c0-0.5-0.5-1-1-1H15.9c-0.5,0-1,0.5-1,1
	c-0.2,2.9,0.3,5.7,1.5,8.4c0,0.3,0.2,0.5,0.5,0.5c0,0,0,0,0,0l0,0c6.4-0.5,12.3-0.5,18.7-0.5h8.8c5.9,0,12.3,0.5,18.7,0.5
	c0.5,0,0.5,0,1-0.5C65.6,60.8,66.3,57.9,66.1,55L66.1,55z"/>
<polygon class="st0" points="40.5,58.9 42.5,59.9 38.5,68.3 37.5,66.3 35.1,66.8 39,57.9 "/>
<polygon class="st0" points="41.5,59.9 40,60.9 44.4,69.2 45.4,66.8 47.9,67.3 43.4,58.9 "/>
<path class="st0" d="M47.4,57L47.4,57c0.4-0.3,0.5-0.9,0.2-1.3c-0.1-0.1-0.1-0.1-0.2-0.2l0,0c-0.5-0.5-0.5-0.5-0.5-1l0,0
	c0.1-0.6-0.1-1.1-0.5-1.5l0,0c-0.5,0-0.5-0.5-0.5-1l0,0c0-0.5-0.5-1-1-1l0,0c-0.5,0-1,0-1-0.5l0,0c-0.1-0.5-0.6-0.8-1.1-0.7
	c-0.1,0-0.2,0.1-0.3,0.2h-1c-0.3-0.4-0.9-0.5-1.3-0.2C40.1,49.9,40,49.9,40,50l0,0c-0.5,0.5-0.5,0.5-1,0l0,0
	c-0.5-0.1-1.1,0.1-1.5,0.5l0,0c0,0.5-0.5,0.5-1,0.5l0,0c-0.5,0-1,0.5-1,1l0,0c0,0.5,0,1-0.5,1l0,0c-0.4,0.4-0.6,0.9-0.5,1.5l0,0v1
	l0,0c-0.4,0.3-0.5,0.9-0.2,1.3c0.1,0.1,0.1,0.1,0.2,0.2l0,0c0.5,0.5,0.5,0.5,0.5,1l0,0c-0.1,0.5,0.1,1.1,0.5,1.5l0,0
	c0.5,0,0.5,0.5,0.5,1l0,0c0,0.5,0.5,1,1,1l0,0c0.5,0,1,0,1,0.5l0,0c0.2,0.5,0.8,0.8,1.3,0.6c0.1,0,0.1-0.1,0.2-0.1h1
	c0.3,0.4,0.9,0.5,1.3,0.2c0.1-0.1,0.1-0.1,0.2-0.2l0,0c0.5-0.5,0.5-0.5,1,0l0,0c0.5,0.1,1.1-0.1,1.5-0.5l0,0c0-0.5,0.5-0.5,1-0.5
	l0,0c0.5,0,1-0.5,1-1l0,0c0-0.5,0-1,0.5-1l0,0c0.4-0.4,0.6-0.9,0.5-1.5l0,0L47.4,57L47.4,57z"/>
<path class="st5" d="M45.9,56c0-2.5-2.5-4.9-4.9-4.4c-2.5,0-4.9,2.5-4.4,4.9c0,2.5,2.5,4.9,4.9,4.4C43.9,60.9,45.9,58.9,45.9,56z"/>
<path class="st0" d="M45.4,56c0-2.5-2-3.9-4.4-3.9s-3.9,2-3.9,4.4s2,3.9,4.4,3.9C43.7,60.2,45.5,58.3,45.4,56z"/>
</svg>
