<svg id="Layer_1" data-name="Layer 1" xmlns="http://www.w3.org/2000/svg" viewBox="0 0 80 80"><defs><style>.cls-1,.cls-2{fill:#f7941d;}.cls-1,.cls-3,.cls-4,.cls-5,.cls-6{fill-rule:evenodd;}.cls-3{fill:#004870;}.cls-4{fill:#d1d3d4;}.cls-5{fill:#a7a9ac;}.cls-6{fill:#fff;}</style></defs><polygon class="cls-1" points="76.86 49.09 69.49 49.09 70.96 42.7 75.39 42.7 76.86 49.09"/><rect class="cls-2" x="72.44" y="25.99" width="1.47" height="19.17"/><path class="cls-1" d="M75.88,42.7a2.83,2.83,0,0,0-2.95-3,3.18,3.18,0,0,0-3,3,3.17,3.17,0,0,0,3,2.95,2.83,2.83,0,0,0,2.95-2.95Z"/><path class="cls-3" d="M.19,26,40,10.76,79.81,26,59.66,33.86V28c0-4.43-10.32-6.39-19.66-6.39s-19.66,2-19.66,6.39v5.9Z"/><path class="cls-3" d="M36.07,35.33H45.9c5.9.49,12.78,1.48,16.71,3.44V27.47c0-4.92-10.81-7.38-21.14-7.38-10.81,0-22.11,2.46-22.11,7.38v11.3c3.93-2,10.81-3,16.71-3.44Z"/><path class="cls-4" d="M64.57,49.58c0-.49-.49-.49-1-.49a359.7,359.7,0,0,1-46.2,0c-.49,0-.49,0-1,.49a17.54,17.54,0,0,0-1,4.92,1.05,1.05,0,0,0,1,1H64.08a1.06,1.06,0,0,0,1-1,6,6,0,0,0-.5-4.92Z"/><path class="cls-5" d="M66.05,55a1.05,1.05,0,0,0-1-1H44.91a1.05,1.05,0,0,0-1,1H37.54a1.05,1.05,0,0,0-1-1H15.92a1.06,1.06,0,0,0-1,1,16.82,16.82,0,0,0,1.48,8.36.48.48,0,0,0,.49.49h0c6.39-.49,12.29-.49,18.68-.49h8.84c5.9,0,12.29.49,18.68.49.49,0,.49,0,1-.49a15,15,0,0,0,2-8.36Z"/><polygon class="cls-1" points="40.49 58.92 42.46 59.91 38.53 68.26 37.54 66.3 35.09 66.79 39.02 57.94 40.49 58.92"/><polygon class="cls-1" points="41.47 59.91 40 60.89 44.42 69.24 45.41 66.79 47.86 67.28 43.44 58.92 41.47 59.91"/><path class="cls-1" d="M47.37,57h0a.93.93,0,0,0,0-1.48h0c-.49-.49-.49-.49-.49-1h0A1.83,1.83,0,0,0,46.39,53h0c-.49,0-.49-.49-.49-1h0a1.06,1.06,0,0,0-1-1h0c-.49,0-1,0-1-.49h0a.93.93,0,0,0-1.47-.49h-1a.91.91,0,0,0-1.47,0h0c-.49.49-.49.49-1,0h0a1.82,1.82,0,0,0-1.48.49h0c0,.49-.49.49-1,.49h0a1.05,1.05,0,0,0-1,1h0c0,.49,0,1-.49,1h0a1.81,1.81,0,0,0-.5,1.48h0v1h0a.93.93,0,0,0,0,1.48h0c.5.49.5.49.5,1h0a1.8,1.8,0,0,0,.49,1.47h0c.49,0,.49.5.49,1h0a1.05,1.05,0,0,0,1,1h0c.49,0,1,0,1,.49h0a1,1,0,0,0,1.48.49h1a.93.93,0,0,0,1.48,0h0c.49-.49.49-.49,1,0h0a1.8,1.8,0,0,0,1.47-.49h0c0-.49.49-.49,1-.49h0a1.05,1.05,0,0,0,1-1h0c0-.49,0-1,.49-1h0a1.8,1.8,0,0,0,.49-1.47h0V57Z"/><path class="cls-6" d="M45.9,56c0-2.45-2.46-4.91-4.92-4.42-2.45,0-4.91,2.46-4.42,4.92,0,2.45,2.46,4.91,4.91,4.42,2.46,0,4.43-2,4.43-4.92Z"/><path class="cls-1" d="M45.41,56c0-2.45-2-3.93-4.43-3.93s-3.93,2-3.93,4.43,2,3.93,4.42,3.93A4.34,4.34,0,0,0,45.41,56Z"/></svg>