<svg id="Layer_1" data-name="Layer 1" xmlns="http://www.w3.org/2000/svg" viewBox="0 0 80 80"><defs><style>.cls-1{fill:#f90;}.cls-2{fill:#f4d37f;}.cls-3{fill:#231f20;}.cls-4{fill:#004870;}.cls-5{fill:#7eb2c4;}</style></defs><path class="cls-1" d="M75.1,67.14,55.81,48.67a20.22,20.22,0,1,0-5.3,5.3L69.92,72.55a3.72,3.72,0,0,0,2.59,1,3.74,3.74,0,0,0,2.59-6.45ZM48.36,50.89a16.52,16.52,0,1,1,4.33-4.32A16.39,16.39,0,0,1,48.36,50.89Z"/><path class="cls-2" d="M44.22,29.86a.77.77,0,0,0-.25,0L43.7,30l0-.28a2.1,2.1,0,0,0-1-1.54,12.57,12.57,0,0,1-3.69.6h0a5.78,5.78,0,0,1-3.29-.85,2,2,0,0,0-.48,1.37l0,.29-.28-.1-.16,0a.52.52,0,0,0-.45.24v0a15.13,15.13,0,0,0,1.09,5.35c.8,1.8,2.34,3.37,4.12,3.37,2,0,3.52-1.88,4.32-3.9a15.32,15.32,0,0,0,.91-4.32A.74.74,0,0,0,44.22,29.86Z"/><path class="cls-3" d="M42.74,28s-4.47,1.57-7-.29a2.22,2.22,0,0,0-.64,1.63.74.74,0,0,0-1,.58s-.77-5,2.47-5.14c1.75-1.88,8.92-2.13,8.48,5.49a.94.94,0,0,0-1.15-.51A2.25,2.25,0,0,0,42.74,28Z"/><path class="cls-4" d="M52.78,44.54A3.11,3.11,0,0,0,51,42.13h0s-6.29-3.34-11.55-3.26c-4.69.07-10.15,2.67-11.3,3.24a3.14,3.14,0,0,0-1.87,2.43l0,.51H38.9l.64-2.4a2.5,2.5,0,0,1,.08-.25H39a.61.61,0,0,1-.61-.62V40.5a.61.61,0,0,1,.61-.62h1.24a.61.61,0,0,1,.61.62v1.28a.61.61,0,0,1-.61.62h-.62l.08.25.64,2.4H52.81Z"/><path class="cls-5" d="M68,34.26h0c.63,2.17,2.12,4.1,3.53,4.1s2.85-1.94,3.49-4.11h.06c.4,0,.72-.45.72-1a1,1,0,0,0-.46-.94v-.19c0-2.83-1.07-4-3.81-4s-3.83,1.24-3.83,4.06v.12a1.06,1.06,0,0,0-.44.93C67.3,33.81,67.62,34.26,68,34.26Z"/><path class="cls-5" d="M80,42.57l0-.41a2,2,0,0,0-1.17-1.53h0s-4-2.13-7.36-2.08a19.56,19.56,0,0,0-7.18,2.06,2,2,0,0,0-1.2,1.55l0,.41Z"/><path class="cls-5" d="M5,32.63H5c.63,2.17,2.11,4.1,3.53,4.1s2.85-1.94,3.48-4.1h.07c.39,0,.71-.45.71-1a1.08,1.08,0,0,0-.45-.94v-.19c0-2.83-1.07-4-3.81-4s-3.84,1.24-3.84,4.06v.12a1.1,1.1,0,0,0-.43.93C4.24,32.18,4.56,32.63,5,32.63Z"/><path class="cls-5" d="M16.94,40.94l0-.41A2,2,0,0,0,15.75,39h0s-4-2.13-7.35-2.08A19.39,19.39,0,0,0,1.21,39,2,2,0,0,0,0,40.53l0,.41Z"/></svg>