<svg id="Layer_1" data-name="Layer 1" xmlns="http://www.w3.org/2000/svg" viewBox="0 0 80 80"><defs><style>.cls-1{fill:#004870;}.cls-2{fill:#f90;}</style></defs><path class="cls-1" d="M54.6,20.46a13.58,13.58,0,0,1,2,0,3.73,3.73,0,0,1,3.22,3.91c0,7,0,13.9,0,20.85,0,5.92,0,11.84,0,17.76q0,5.94,0,11.88a3.77,3.77,0,0,1-3.68,3.92c-3.07.06-6.15,0-9.22,0a1.51,1.51,0,0,1-.3-.08V65.58H41.28V78.76H38.67V65.58H33.3V78.81H24.17a3.84,3.84,0,0,1-4.12-4.16c0-16.5,0-33,0-49.49,0-3.44,2.06-5,4.74-4.76a4.83,4.83,0,0,0,.54,0c.05-.27.09-.5.14-.74a5.28,5.28,0,0,1,5.45-4.57c5.84,0,11.69.08,17.53,0C51.29,15,54.16,16.41,54.6,20.46ZM25.35,25.69v7.93h5.28V25.69Zm8,0v7.94H38.6V25.69Zm13.25,8v-8H41.32v8Zm8,0V25.71H49.27v7.94ZM30.64,39H25.36v7.94h5.28Zm8,0H33.34v7.92h5.27Zm2.7,0v7.94h5.27V39Zm13.24,8V39H49.29v8ZM25.33,60.22h5.29V52.28H25.33Zm8-7.95V60.2H38.6V52.27Zm8,0v8h5.26v-8Zm8,0v8h5.27v-8ZM30.63,73.52V65.59H25.35v7.93Zm23.94-8H49.29V73.5h5.28Z"/><path class="cls-2" d="M37.26,10.05c0-.17,0-.34.05-.51a11.54,11.54,0,0,1,.41-1.76,1.22,1.22,0,0,0-.53-1.57c-.58-.44-1.08-1-1.61-1.45l0-.16A7.79,7.79,0,0,1,37,4.45,1.87,1.87,0,0,0,39.32,2.8,9.83,9.83,0,0,1,40,1.18c.17.32.27.48.34.65.28.7.53,1.41.85,2.09a.81.81,0,0,0,.54.39c.76.11,1.53.16,2.29.23a3.18,3.18,0,0,1,.47.11c-.17.19-.27.32-.39.44-.52.47-1,1-1.56,1.39a.82.82,0,0,0-.3,1c.19.69.32,1.39.47,2.09a4,4,0,0,1,.06.66c-.8-.51-1.5-.9-2.14-1.38a.86.86,0,0,0-1.2,0c-.63.47-1.32.86-2,1.28Z"/><path class="cls-2" d="M32.35,10.11c-.56-.36-1.14-.71-1.69-1.09a.56.56,0,0,0-.74,0c-.55.38-1.12.73-1.68,1.09l-.14-.07a9.16,9.16,0,0,1,.3-1.4,1.41,1.41,0,0,0-.6-1.9,9.68,9.68,0,0,1-1.15-1c.77-.07,1.38-.17,2-.18a.79.79,0,0,0,.87-.62c.2-.62.48-1.21.72-1.81h.15c.25.61.53,1.22.74,1.85a.75.75,0,0,0,.81.57c.61,0,1.22.1,1.84.15l.06.14c-.48.44-.93.9-1.44,1.3a.81.81,0,0,0-.3,1c.16.63.28,1.27.42,1.9Z"/><path class="cls-2" d="M46.2,5.7c.6-.06,1.21-.15,1.81-.16a.8.8,0,0,0,.88-.63c.2-.61.46-1.19.77-1.95.19.43.32.71.44,1a5.37,5.37,0,0,1,.33.87.88.88,0,0,0,1,.72,16.75,16.75,0,0,1,1.91.17c-.57.51-1,1-1.46,1.3a1,1,0,0,0-.38,1.22c.17.58.26,1.19.39,1.79l-.12.09c-.55-.35-1.11-.67-1.64-1a.65.65,0,0,0-.87,0,8.78,8.78,0,0,1-1.77,1c.13-.61.22-1.24.4-1.84a.92.92,0,0,0-.34-1.13c-.49-.37-.92-.81-1.38-1.22Z"/><path class="cls-2" d="M25.09,6.82c-.45.41-.76.74-1.12,1a.7.7,0,0,0-.26.86c.11.44.2.88.33,1.48-.52-.32-.94-.56-1.33-.83a.51.51,0,0,0-.69,0c-.38.27-.79.51-1.33.85.14-.62.23-1.09.35-1.56a.65.65,0,0,0-.24-.76c-.36-.28-.68-.61-1.13-1,.59-.06,1-.13,1.5-.15a.62.62,0,0,0,.62-.49c.15-.44.34-.87.58-1.46.23.58.42,1,.55,1.42a.7.7,0,0,0,.71.54C24.07,6.72,24.5,6.77,25.09,6.82Z"/><path class="cls-2" d="M59.28,10.17c-.54-.33-.94-.61-1.37-.83a.83.83,0,0,0-.62,0c-.43.22-.82.5-1.36.84a15,15,0,0,0,.33-1.58A1,1,0,0,0,56,7.9c-.31-.35-.68-.64-1.14-1.07.61-.06,1.07-.12,1.53-.15A.59.59,0,0,0,57,6.22c.15-.44.34-.87.59-1.48.22.57.41,1,.54,1.39a.72.72,0,0,0,.75.57c.41,0,.83.07,1.43.12-.46.42-.78.75-1.14,1a.67.67,0,0,0-.25.81C59.05,9.12,59.14,9.58,59.28,10.17Z"/></svg>