<svg id="Layer_1" data-name="Layer 1" xmlns="http://www.w3.org/2000/svg" viewBox="0 0 80 80"><defs><style>.cls-1{fill:#1053b7;}.cls-2{fill:#0d7ad3;}.cls-3{fill:#f90;}</style></defs><path class="cls-1" d="M50.61,31.51a52.6,52.6,0,0,1-5.4,2.94c-.49,0-1.47,1-2,0-.49-.49.49-1.47,1-1.47,2-.49,1.47-1.47,1-2.45-1-1.48,0-3.44-.49-4.91v-1A87.87,87.87,0,0,0,50.61,31.51Z"/><path class="cls-1" d="M72.22,20.21c-1,1-2.46,2.46-4.42,1.48-2.46-1.48-4.91-1-7.37.49a4.89,4.89,0,0,0-2,2.45c0,.49,0,.49-.49,1l-3.93-2.95-1.47-1-2.46-2.46a3,3,0,0,0,.49-2c1-2.95,3-3.93,5.41-2.46,2.94,1.48,2.94,1.48,5.4-.49-1.48-.49-2.46-1.47-2-2.94A2.7,2.7,0,0,0,58,8.92,29.11,29.11,0,0,0,46.2,4.5c-.5,0-1,.49-1.48,1-1.47,2.46-1.47,4.91-2.94,7.37,0,.49-.49,1-.49,1.47.49,2-1,2.95-2.46,3.44a6.52,6.52,0,0,0-4.91,3.93c-.49,1-1.47.49-2-.49-1-1.48-.49-2.95,0-4.42a5.36,5.36,0,0,0,.49-2.46c1-2,1-2.94-.49-4.42C31,8.92,32,7,34.41,6a3.31,3.31,0,0,0-2.94,2c-1,.49-1.48,1.47-2.46,1-1,0-1-1-.49-1.47,0-.49,0-.49-.49-.49s-1,0-1,.49-.49,1.47-.49,2c-1,.49-.49.49,0,.49,2.94.49,2.45,2.95,2.94,4.91a5,5,0,0,1-1,4.42c-1,.49-1.47,1.48-2.45,1a3.7,3.7,0,0,1-1-2.45c0-.49.49-1,1-2,.49,0,.49-1,0-1-.5-.49-1,.49-1,.49-.49,1.48-1.47,2-2,3.44a.94.94,0,0,1-1.47.49c-1-1.47-2-.49-2.46,0-1,1-1.47,2-1,2.95,0,.49.49,1,.49,1.47.49.49.49,1.47,1.47,1a1.57,1.57,0,0,0,1.48-1.47c0-1,.49-1.47,1-2.45,0-.5,0-1,1-1s2,.49,2,1.48,0,1,.5.49.49,0,1,.49c1,2.45.49,4.91,1.47,6.87a1.05,1.05,0,0,1-1,1,.93.93,0,0,1-1.47-.49c-.5-.49-.5-1.47-1.48-1,0,1,1.48,1.47.49,2.46-.49.49-1.47.49-2,1-1.47,0-2.46,1.47-3.44,2.45s-2,2.46-2.94,3.44c-.49.49-.49,1,0,2,0,.5.49,1,0,1.48-1,0-1.48-.49-1.48-1-1-2.46-2.94-1-4.42-.5-1.47,0-1.47,2-1,2.95,0,1,1,1.47,2,1,.49-.49,1-1,1.47-1s.49.49,0,1c0,1,0,2-1,2-2,.49-4.91-1-5.89-2.46-.5-.49-.5-1.47-1.48-1-.49,0-.49,1-.49,1.47S5,45.26,4,45.26c-1,.49-1-.5-1.47-1-2-4.42-1-8.83,0-13.25C6.43,14.81,19.68,3,35.89,1.56,50.61.08,62.4,6,71.24,17.76,71.73,18.25,73.2,19.23,72.22,20.21Z"/><path class="cls-1" d="M28,73.24c-2.46-3.93-3.44-7.85-4.91-11.78a3.84,3.84,0,0,0-2-2c0-.49-.5-.49-.5-1s.5-.49,1-.49l11.78-3c1-.49,1.47,0,1.47,1-.49,2.45-.49,5.4-2.45,7.36s-2,5.4-2.46,8.35c0,1.47.49,2.45,2.46,2.94,14.24,3,29.95-3.92,37.31-16.2a40.4,40.4,0,0,0,4.91-12.76c0-1.48.49-3-.49-3.93-.49-.49-.49-1,0-1,1.48-1.48,1.48-3.44,1.48-4.91,0-.49.49-1.48,1-1.48,1,0,1,1,1,2,.49,7.85-.49,15.22-4.42,22.09C65.84,71.77,54.05,79.13,38.83,78.64c-13.26,0-24.06-5.89-31.42-17.18-.49-.49-1.48-1.48-.49-2A2.31,2.31,0,0,1,9.86,60a10.47,10.47,0,0,1,2,3A41.78,41.78,0,0,0,28,73.24Z"/><path class="cls-1" d="M61.42,57.53C60.43,60,59,61.46,58,63.91l-1.47,1.48c-2,1.47-2.95,1-3.93-1.48s-2-4.91-1.47-7.85c.49-2-1.48-3.44-1.48-5.4,0-1,0-1.48.49-1.48l7.37-2.94c1,3.43,2,6.38,2.94,9.82C60.43,56.55,60.43,57.53,61.42,57.53Z"/><path class="cls-1" d="M68.29,44.27c-.49.49-1.47.49-2,1V42.31a1.71,1.71,0,0,0,1-.49c1,0,2,0,2.45,1C70.25,43.29,69.27,43.78,68.29,44.27Z"/><path class="cls-1" d="M68.29,46.73c.49,1-.49,1.47-1,2.45-.49.49-.49,1-1,1V46.24C67.31,46.24,67.8,45.75,68.29,46.73Z"/><path class="cls-2" d="M65.34,49.67a8.5,8.5,0,0,1-2,2.46,3.71,3.71,0,0,0-1,2c0,1,0,2.46-.49,2.95-1,0-1-1-1-2-1-3.43-2-6.38-3-9.81a7.07,7.07,0,0,0,3-1c1-.49,2.45-.49,2.94-1.47.49-.49.49-.49,1-.49v2.95c-.49,0-.49.49-1,.49h1A10.79,10.79,0,0,1,65.34,49.67Z"/><path class="cls-3" d="M78.11,26.6a11.6,11.6,0,0,1-4.42,2.94c-2,1-4.42,2.46-6.38,3.44-1.47.49-2,1.47-2,3.44V53.6h0v1.47c-.49,1.48-1.47,2-2.94,2.46h-.49c-1,0-1-1-1-2-1-3.44-2-6.39-3-9.82a14.43,14.43,0,0,1-1-4.42c-.49-2-1-2-2.46-1.48a44.07,44.07,0,0,1-6.87,3.44c-1.47,1-1,2-1.47,3.44,0,1.47,0,2.94-1.48,3.93-1,.49-2,.49-2.45-.5a30.25,30.25,0,0,0-5.4-11.29.92.92,0,0,1,0-1.47,1.79,1.79,0,0,1,2.45-1c.49,0,.49,0,1,.49,2.46,2,4.91,1,7.37-1,1.47-1,2.94-1.48,4.42-2.46,1-.49,1-1,.49-2-.49-.49-1-1-1-1.48a39,39,0,0,1-6.39-6.38,22.22,22.22,0,0,1-3.43-3.44c-.49-.49-1.48-1.47-.49-2.45s2.45-2,3.92-1a17.36,17.36,0,0,0,4.42,2.94h0a15,15,0,0,1,3.44,2.46c.49.49,1,.49,1.47,1,1.48,1,3,2,3.93,2.46.49.49,1.47,1,2,1.47,1.48,1,2.46,1,3.44,0,2.46-1.47,4.42-2.46,6.88-3.93a20.38,20.38,0,0,1,4.91-2c1.47-.49,2.94-.49,3.92,1C80.07,24.14,79.09,25.12,78.11,26.6Z"/><path class="cls-3" d="M40.3,48.2c-7.85,2.46-16.2,5.4-24.55,6.38a21.86,21.86,0,0,1-9.82-.49C1.52,52.62-.45,49.18.53,43.78c3.93,7.37,9.82,5.89,15.72,4.91a173.9,173.9,0,0,0,20.62-7.36A18.14,18.14,0,0,1,40.3,48.2Z"/></svg>