<?xml version="1.0" standalone="no"?>
<svg xmlns:xlink="http://www.w3.org/1999/xlink" id="wave" style="transform:rotate(0deg); transition: 0.3s" viewBox="0 0 1440 460" version="1.1" xmlns="http://www.w3.org/2000/svg"><defs><linearGradient id="sw-gradient-0" x1="0" x2="0" y1="1" y2="0"><stop stop-color="rgba(243, 106, 62, 1)" offset="0%"/><stop stop-color="rgba(255, 179, 11, 1)" offset="100%"/></linearGradient></defs><path style="transform:translate(0, 0px); opacity:1" fill="url(#sw-gradient-0)" d="M0,92L40,115C80,138,160,184,240,237.7C320,291,400,353,480,383.3C560,414,640,414,720,345C800,276,880,138,960,130.3C1040,123,1120,245,1200,253C1280,261,1360,153,1440,130.3C1520,107,1600,169,1680,161C1760,153,1840,77,1920,46C2000,15,2080,31,2160,61.3C2240,92,2320,138,2400,161C2480,184,2560,184,2640,176.3C2720,169,2800,153,2880,130.3C2960,107,3040,77,3120,122.7C3200,169,3280,291,3360,299C3440,307,3520,199,3600,176.3C3680,153,3760,215,3840,222.3C3920,230,4000,184,4080,199.3C4160,215,4240,291,4320,283.7C4400,276,4480,184,4560,122.7C4640,61,4720,31,4800,38.3C4880,46,4960,92,5040,92C5120,92,5200,46,5280,76.7C5360,107,5440,215,5520,253C5600,291,5680,261,5720,245.3L5760,230L5760,460L5720,460C5680,460,5600,460,5520,460C5440,460,5360,460,5280,460C5200,460,5120,460,5040,460C4960,460,4880,460,4800,460C4720,460,4640,460,4560,460C4480,460,4400,460,4320,460C4240,460,4160,460,4080,460C4000,460,3920,460,3840,460C3760,460,3680,460,3600,460C3520,460,3440,460,3360,460C3280,460,3200,460,3120,460C3040,460,2960,460,2880,460C2800,460,2720,460,2640,460C2560,460,2480,460,2400,460C2320,460,2240,460,2160,460C2080,460,2000,460,1920,460C1840,460,1760,460,1680,460C1600,460,1520,460,1440,460C1360,460,1280,460,1200,460C1120,460,1040,460,960,460C880,460,800,460,720,460C640,460,560,460,480,460C400,460,320,460,240,460C160,460,80,460,40,460L0,460Z"/></svg>